<?xml version="1.0" encoding="us-ascii" standalone="no"?>
<svg xmlns="http://www.w3.org/2000/svg" xmlns:xlink="http://www.w3.org/1999/xlink"
     contentStyleType="text/css" height="1092px" preserveAspectRatio="none"
     style="width:2931px;height:1092px;background:#FFFFFF;" version="1.1" viewBox="0 0 2931 1092"
     width="2931px" zoomAndPan="magnify">
  <defs/>
  <g><!--cluster entities-->
    <g id="cluster_entities">
      <path
        d="M8.5,6 L650.5,6 A3.75,3.75 0 0 1 653,8.5 L660,28.2969 L2921.5,28.2969 A2.5,2.5 0 0 1 2924,30.7969 L2924,1082.5 A2.5,2.5 0 0 1 2921.5,1085 L8.5,1085 A2.5,2.5 0 0 1 6,1082.5 L6,8.5 A2.5,2.5 0 0 1 8.5,6 "
        fill="none" style="stroke:#000000;stroke-width:1.5;"/>
      <line style="stroke:#000000;stroke-width:1.5;" x1="6" x2="660" y1="28.2969" y2="28.2969"/>
      <text fill="#000000" font-family="sans-serif" font-size="14" font-weight="bold"
            lengthAdjust="spacing" textLength="641" x="10" y="20.9951">
        de.db.vendo.prototype.buchung.reservation.divers.adapters.use_cases.entities
      </text>
    </g><!--cluster boundary-->
    <g id="cluster_boundary">
      <path
        d="M2289.5,49 L2434.5,49 A3.75,3.75 0 0 1 2437,51.5 L2444,71.2969 L2626.5,71.2969 A2.5,2.5 0 0 1 2629,73.7969 L2629,309.5 A2.5,2.5 0 0 1 2626.5,312 L2289.5,312 A2.5,2.5 0 0 1 2287,309.5 L2287,51.5 A2.5,2.5 0 0 1 2289.5,49 "
        fill="none" style="stroke:#000000;stroke-width:1.5;"/>
      <line style="stroke:#000000;stroke-width:1.5;" x1="2287" x2="2444" y1="71.2969" y2="71.2969"/>
      <text fill="#000000" font-family="sans-serif" font-size="14" font-weight="bold"
            lengthAdjust="spacing" textLength="144" x="2291" y="63.9951">confirm.boundary
      </text>
    </g><!--cluster control-->
    <g id="cluster_control">
      <path
        d="M2313.5,173 L2373.5,173 A3.75,3.75 0 0 1 2376,175.5 L2383,195.2969 L2602.5,195.2969 A2.5,2.5 0 0 1 2605,197.7969 L2605,285.5 A2.5,2.5 0 0 1 2602.5,288 L2313.5,288 A2.5,2.5 0 0 1 2311,285.5 L2311,175.5 A2.5,2.5 0 0 1 2313.5,173 "
        fill="#FF0000" style="stroke:#000000;stroke-width:1.5;"/>
      <line style="stroke:#000000;stroke-width:1.5;" x1="2311" x2="2383" y1="195.2969"
            y2="195.2969"/>
      <text fill="#000000" font-family="sans-serif" font-size="14" font-weight="bold"
            lengthAdjust="spacing" textLength="59" x="2315" y="187.9951">control
      </text>
    </g><!--cluster reservation-->
    <g id="cluster_reservation">
      <path
        d="M32.5,336 L126.5,336 A3.75,3.75 0 0 1 129,338.5 L136,358.2969 L2897.5,358.2969 A2.5,2.5 0 0 1 2900,360.7969 L2900,1058.5 A2.5,2.5 0 0 1 2897.5,1061 L32.5,1061 A2.5,2.5 0 0 1 30,1058.5 L30,338.5 A2.5,2.5 0 0 1 32.5,336 "
        fill="none" style="stroke:#000000;stroke-width:1.5;"/>
      <line style="stroke:#000000;stroke-width:1.5;" x1="30" x2="136" y1="358.2969" y2="358.2969"/>
      <text fill="#000000" font-family="sans-serif" font-size="14" font-weight="bold"
            lengthAdjust="spacing" textLength="93" x="34" y="350.9951">reservation
      </text>
    </g><!--cluster control-->
    <g id="cluster_control">
      <path
        d="M1910.5,419.5 L2051.5,419.5 A3.75,3.75 0 0 1 2054,422 L2061,441.7969 L2873.5,441.7969 A2.5,2.5 0 0 1 2876,444.2969 L2876,898.5 A2.5,2.5 0 0 1 2873.5,901 L1910.5,901 A2.5,2.5 0 0 1 1908,898.5 L1908,422 A2.5,2.5 0 0 1 1910.5,419.5 "
        fill="#FF0000" style="stroke:#000000;stroke-width:1.5;"/>
      <line style="stroke:#000000;stroke-width:1.5;" x1="1908" x2="2061" y1="441.7969"
            y2="441.7969"/>
      <text fill="#000000" font-family="sans-serif" font-size="14" font-weight="bold"
            lengthAdjust="spacing" textLength="140" x="1912" y="434.4951">boundary.control
      </text>
    </g><!--cluster entity-->
    <g id="cluster_entity">
      <path
        d="M2294.5,462.5 L2344.5,462.5 A3.75,3.75 0 0 1 2347,465 L2354,484.7969 L2849.5,484.7969 A2.5,2.5 0 0 1 2852,487.2969 L2852,874.5 A2.5,2.5 0 0 1 2849.5,877 L2294.5,877 A2.5,2.5 0 0 1 2292,874.5 L2292,465 A2.5,2.5 0 0 1 2294.5,462.5 "
        fill="#FFFF00" style="stroke:#000000;stroke-width:1.5;"/>
      <line style="stroke:#000000;stroke-width:1.5;" x1="2292" x2="2354" y1="484.7969"
            y2="484.7969"/>
      <text fill="#000000" font-family="sans-serif" font-size="14" font-weight="bold"
            lengthAdjust="spacing" textLength="49" x="2296" y="477.4951">entity
      </text>
    </g><!--cluster trip-->
    <g id="cluster_trip">
      <path
        d="M56.5,379 L87.5,379 A3.75,3.75 0 0 1 90,381.5 L97,401.2969 L1881.5,401.2969 A2.5,2.5 0 0 1 1884,403.7969 L1884,1034.5 A2.5,2.5 0 0 1 1881.5,1037 L56.5,1037 A2.5,2.5 0 0 1 54,1034.5 L54,381.5 A2.5,2.5 0 0 1 56.5,379 "
        fill="none" style="stroke:#000000;stroke-width:1.5;"/>
      <line style="stroke:#000000;stroke-width:1.5;" x1="54" x2="97" y1="401.2969" y2="401.2969"/>
      <text fill="#000000" font-family="sans-serif" font-size="14" font-weight="bold"
            lengthAdjust="spacing" textLength="30" x="58" y="393.9951">trip
      </text>
    </g><!--cluster entity-->
    <g id="cluster_entity">
      <path
        d="M80.5,422 L275.5,422 A3.75,3.75 0 0 1 278,424.5 L285,444.2969 L333.5,444.2969 A2.5,2.5 0 0 1 336,446.7969 L336,850 A2.5,2.5 0 0 1 333.5,852.5 L80.5,852.5 A2.5,2.5 0 0 1 78,850 L78,424.5 A2.5,2.5 0 0 1 80.5,422 "
        fill="#FFFF00" style="stroke:#000000;stroke-width:1.5;"/>
      <line style="stroke:#000000;stroke-width:1.5;" x1="78" x2="285" y1="444.2969" y2="444.2969"/>
      <text fill="#000000" font-family="sans-serif" font-size="14" font-weight="bold"
            lengthAdjust="spacing" textLength="194" x="82" y="436.9951">boundary.control.entity
      </text>
    </g><!--cluster entity-->
    <g id="cluster_entity">
      <path
        d="M362.5,729 L622.5,729 A3.75,3.75 0 0 1 625,731.5 L632,751.2969 L632.5,751.2969 A2.5,2.5 0 0 1 635,753.7969 L635,1010.5 A2.5,2.5 0 0 1 632.5,1013 L362.5,1013 A2.5,2.5 0 0 1 360,1010.5 L360,731.5 A2.5,2.5 0 0 1 362.5,729 "
        fill="#FFFF00" style="stroke:#000000;stroke-width:1.5;"/>
      <line style="stroke:#000000;stroke-width:1.5;" x1="360" x2="632" y1="751.2969" y2="751.2969"/>
      <text fill="#000000" font-family="sans-serif" font-size="14" font-weight="bold"
            lengthAdjust="spacing" textLength="259" x="364" y="743.9951">
        station.boundary.control.entity
      </text>
    </g><!--cluster train-->
    <g id="cluster_train">
      <path
        d="M661.5,635 L702.5,635 A3.75,3.75 0 0 1 705,637.5 L712,657.2969 L1857.5,657.2969 A2.5,2.5 0 0 1 1860,659.7969 L1860,914.5 A2.5,2.5 0 0 1 1857.5,917 L661.5,917 A2.5,2.5 0 0 1 659,914.5 L659,637.5 A2.5,2.5 0 0 1 661.5,635 "
        fill="none" style="stroke:#000000;stroke-width:1.5;"/>
      <line style="stroke:#000000;stroke-width:1.5;" x1="659" x2="712" y1="657.2969" y2="657.2969"/>
      <text fill="#000000" font-family="sans-serif" font-size="14" font-weight="bold"
            lengthAdjust="spacing" textLength="40" x="663" y="649.9951">train
      </text>
    </g><!--cluster entity-->
    <g id="cluster_entity">
      <path
        d="M1491.5,729 L1686.5,729 A3.75,3.75 0 0 1 1689,731.5 L1696,751.2969 L1833.5,751.2969 A2.5,2.5 0 0 1 1836,753.7969 L1836,858.5 A2.5,2.5 0 0 1 1833.5,861 L1491.5,861 A2.5,2.5 0 0 1 1489,858.5 L1489,731.5 A2.5,2.5 0 0 1 1491.5,729 "
        fill="#FFFF00" style="stroke:#000000;stroke-width:1.5;"/>
      <line style="stroke:#000000;stroke-width:1.5;" x1="1489" x2="1696" y1="751.2969"
            y2="751.2969"/>
      <text fill="#000000" font-family="sans-serif" font-size="14" font-weight="bold"
            lengthAdjust="spacing" textLength="194" x="1493" y="743.9951">boundary.control.entity
      </text>
    </g><!--cluster wagon-->
    <g id="cluster_wagon">
      <path
        d="M685.5,678 L739.5,678 A3.75,3.75 0 0 1 742,680.5 L749,700.2969 L1462.5,700.2969 A2.5,2.5 0 0 1 1465,702.7969 L1465,890.5 A2.5,2.5 0 0 1 1462.5,893 L685.5,893 A2.5,2.5 0 0 1 683,890.5 L683,680.5 A2.5,2.5 0 0 1 685.5,678 "
        fill="none" style="stroke:#000000;stroke-width:1.5;"/>
      <line style="stroke:#000000;stroke-width:1.5;" x1="683" x2="749" y1="700.2969" y2="700.2969"/>
      <text fill="#000000" font-family="sans-serif" font-size="14" font-weight="bold"
            lengthAdjust="spacing" textLength="53" x="687" y="692.9951">wagon
      </text>
    </g><!--cluster entity-->
    <g id="cluster_entity">
      <path
        d="M1080.5,721 L1275.5,721 A3.75,3.75 0 0 1 1278,723.5 L1285,743.2969 L1438.5,743.2969 A2.5,2.5 0 0 1 1441,745.7969 L1441,866.5 A2.5,2.5 0 0 1 1438.5,869 L1080.5,869 A2.5,2.5 0 0 1 1078,866.5 L1078,723.5 A2.5,2.5 0 0 1 1080.5,721 "
        fill="#FFFF00" style="stroke:#000000;stroke-width:1.5;"/>
      <line style="stroke:#000000;stroke-width:1.5;" x1="1078" x2="1285" y1="743.2969"
            y2="743.2969"/>
      <text fill="#000000" font-family="sans-serif" font-size="14" font-weight="bold"
            lengthAdjust="spacing" textLength="194" x="1082" y="735.9951">boundary.control.entity
      </text>
    </g><!--cluster entity-->
    <g id="cluster_entity">
      <path
        d="M709.5,729 L945.5,729 A3.75,3.75 0 0 1 948,731.5 L955,751.2969 L1051.5,751.2969 A2.5,2.5 0 0 1 1054,753.7969 L1054,858.5 A2.5,2.5 0 0 1 1051.5,861 L709.5,861 A2.5,2.5 0 0 1 707,858.5 L707,731.5 A2.5,2.5 0 0 1 709.5,729 "
        fill="#FFFF00" style="stroke:#000000;stroke-width:1.5;"/>
      <line style="stroke:#000000;stroke-width:1.5;" x1="707" x2="955" y1="751.2969" y2="751.2969"/>
      <text fill="#000000" font-family="sans-serif" font-size="14" font-weight="bold"
            lengthAdjust="spacing" textLength="235" x="711" y="743.9951">
        seat.boundary.control.entity
      </text>
    </g><!--cluster boundary-->
    <g id="cluster_boundary">
      <path
        d="M1939.5,49 L2063.5,49 A3.75,3.75 0 0 1 2066,51.5 L2073,71.2969 L2260.5,71.2969 A2.5,2.5 0 0 1 2263,73.7969 L2263,309.5 A2.5,2.5 0 0 1 2260.5,312 L1939.5,312 A2.5,2.5 0 0 1 1937,309.5 L1937,51.5 A2.5,2.5 0 0 1 1939.5,49 "
        fill="none" style="stroke:#000000;stroke-width:1.5;"/>
      <line style="stroke:#000000;stroke-width:1.5;" x1="1937" x2="2073" y1="71.2969" y2="71.2969"/>
      <text fill="#000000" font-family="sans-serif" font-size="14" font-weight="bold"
            lengthAdjust="spacing" textLength="123" x="1941" y="63.9951">reset.boundary
      </text>
    </g><!--cluster control-->
    <g id="cluster_control">
      <path
        d="M1963.5,173 L2023.5,173 A3.75,3.75 0 0 1 2026,175.5 L2033,195.2969 L2236.5,195.2969 A2.5,2.5 0 0 1 2239,197.7969 L2239,285.5 A2.5,2.5 0 0 1 2236.5,288 L1963.5,288 A2.5,2.5 0 0 1 1961,285.5 L1961,175.5 A2.5,2.5 0 0 1 1963.5,173 "
        fill="#FF0000" style="stroke:#000000;stroke-width:1.5;"/>
      <line style="stroke:#000000;stroke-width:1.5;" x1="1961" x2="2033" y1="195.2969"
            y2="195.2969"/>
      <text fill="#000000" font-family="sans-serif" font-size="14" font-weight="bold"
            lengthAdjust="spacing" textLength="59" x="1965" y="187.9951">control
      </text>
    </g><!--cluster boundary-->
    <g id="cluster_boundary">
      <path
        d="M1579.5,49 L1718.5,49 A3.75,3.75 0 0 1 1721,51.5 L1728,71.2969 L1910.5,71.2969 A2.5,2.5 0 0 1 1913,73.7969 L1913,309.5 A2.5,2.5 0 0 1 1910.5,312 L1579.5,312 A2.5,2.5 0 0 1 1577,309.5 L1577,51.5 A2.5,2.5 0 0 1 1579.5,49 "
        fill="none" style="stroke:#000000;stroke-width:1.5;"/>
      <line style="stroke:#000000;stroke-width:1.5;" x1="1577" x2="1728" y1="71.2969" y2="71.2969"/>
      <text fill="#000000" font-family="sans-serif" font-size="14" font-weight="bold"
            lengthAdjust="spacing" textLength="138" x="1581" y="63.9951">submit.boundary
      </text>
    </g><!--cluster control-->
    <g id="cluster_control">
      <path
        d="M1603.5,173 L1663.5,173 A3.75,3.75 0 0 1 1666,175.5 L1673,195.2969 L1886.5,195.2969 A2.5,2.5 0 0 1 1889,197.7969 L1889,285.5 A2.5,2.5 0 0 1 1886.5,288 L1603.5,288 A2.5,2.5 0 0 1 1601,285.5 L1601,175.5 A2.5,2.5 0 0 1 1603.5,173 "
        fill="#FF0000" style="stroke:#000000;stroke-width:1.5;"/>
      <line style="stroke:#000000;stroke-width:1.5;" x1="1601" x2="1673" y1="195.2969"
            y2="195.2969"/>
      <text fill="#000000" font-family="sans-serif" font-size="14" font-weight="bold"
            lengthAdjust="spacing" textLength="59" x="1605" y="187.9951">control
      </text>
    </g><!--class ConfirmReservationService-->
    <g id="elem_ConfirmReservationService">
      <rect codeLine="20" fill="#F1F1F1" height="64.2969" id="ConfirmReservationService" rx="2.5"
            ry="2.5" style="stroke:#181818;stroke-width:0.5;" width="229" x="2343.5" y="84"/>
      <ellipse cx="2358.5" cy="100" fill="#ADD1B2" rx="11" ry="11"
               style="stroke:#181818;stroke-width:1.0;"/>
      <path
        d="M2360.8438,95.6719 C2359.9063,95.2344 2359.3125,95.0938 2358.4375,95.0938 C2355.8125,95.0938 2353.8125,97.1719 2353.8125,99.8906 L2353.8125,101.0156 C2353.8125,103.5938 2355.9219,105.4844 2358.8125,105.4844 C2360.0313,105.4844 2361.1875,105.1875 2361.9375,104.6406 C2362.5156,104.2344 2362.8438,103.7813 2362.8438,103.3906 C2362.8438,102.9375 2362.4531,102.5469 2361.9844,102.5469 C2361.7656,102.5469 2361.5625,102.625 2361.375,102.8125 C2360.9219,103.2969 2360.9219,103.2969 2360.7344,103.3906 C2360.3125,103.6563 2359.625,103.7813 2358.8594,103.7813 C2356.8125,103.7813 2355.5156,102.6875 2355.5156,100.9844 L2355.5156,99.8906 C2355.5156,98.1094 2356.7656,96.7969 2358.5,96.7969 C2359.0781,96.7969 2359.6875,96.9531 2360.1563,97.2031 C2360.6406,97.4844 2360.8125,97.7031 2360.9063,98.1094 C2360.9688,98.5156 2361,98.6406 2361.1406,98.7656 C2361.2813,98.9063 2361.5156,99.0156 2361.7344,99.0156 C2362,99.0156 2362.2656,98.875 2362.4375,98.6563 C2362.5469,98.5 2362.5781,98.3125 2362.5781,97.8906 L2362.5781,96.4688 C2362.5781,96.0313 2362.5625,95.9063 2362.4688,95.75 C2362.3125,95.4844 2362.0313,95.3438 2361.7344,95.3438 C2361.4375,95.3438 2361.2344,95.4375 2361.0156,95.75 L2360.8438,95.6719 Z "
        fill="#000000"/>
      <text fill="#000000" font-family="sans-serif" font-size="14" lengthAdjust="spacing"
            textLength="197" x="2372.5" y="104.8467">ConfirmReservationService
      </text>
      <line style="stroke:#181818;stroke-width:0.5;" x1="2344.5" x2="2571.5" y1="116" y2="116"/>
      <line style="stroke:#181818;stroke-width:0.5;" x1="2344.5" x2="2571.5" y1="124" y2="124"/>
      <ellipse cx="2354.5" cy="137.6484" fill="#84BE84" rx="3" ry="3"
               style="stroke:#038048;stroke-width:1.0;"/>
      <text fill="#000000" font-family="sans-serif" font-size="14" lengthAdjust="spacing"
            textLength="169" x="2363.5" y="140.9951">void serve(Reservation)
      </text>
    </g><!--class ConfirmReservationComponent-->
    <g id="elem_ConfirmReservationComponent">
      <rect codeLine="23" fill="#F1F1F1" height="64.2969" id="ConfirmReservationComponent" rx="2.5"
            ry="2.5" style="stroke:#181818;stroke-width:0.5;" width="262" x="2327" y="208"/>
      <ellipse cx="2342" cy="224" fill="#ADD1B2" rx="11" ry="11"
               style="stroke:#181818;stroke-width:1.0;"/>
      <path
        d="M2344.3438,219.6719 C2343.4063,219.2344 2342.8125,219.0938 2341.9375,219.0938 C2339.3125,219.0938 2337.3125,221.1719 2337.3125,223.8906 L2337.3125,225.0156 C2337.3125,227.5938 2339.4219,229.4844 2342.3125,229.4844 C2343.5313,229.4844 2344.6875,229.1875 2345.4375,228.6406 C2346.0156,228.2344 2346.3438,227.7813 2346.3438,227.3906 C2346.3438,226.9375 2345.9531,226.5469 2345.4844,226.5469 C2345.2656,226.5469 2345.0625,226.625 2344.875,226.8125 C2344.4219,227.2969 2344.4219,227.2969 2344.2344,227.3906 C2343.8125,227.6563 2343.125,227.7813 2342.3594,227.7813 C2340.3125,227.7813 2339.0156,226.6875 2339.0156,224.9844 L2339.0156,223.8906 C2339.0156,222.1094 2340.2656,220.7969 2342,220.7969 C2342.5781,220.7969 2343.1875,220.9531 2343.6563,221.2031 C2344.1406,221.4844 2344.3125,221.7031 2344.4063,222.1094 C2344.4688,222.5156 2344.5,222.6406 2344.6406,222.7656 C2344.7813,222.9063 2345.0156,223.0156 2345.2344,223.0156 C2345.5,223.0156 2345.7656,222.875 2345.9375,222.6563 C2346.0469,222.5 2346.0781,222.3125 2346.0781,221.8906 L2346.0781,220.4688 C2346.0781,220.0313 2346.0625,219.9063 2345.9688,219.75 C2345.8125,219.4844 2345.5313,219.3438 2345.2344,219.3438 C2344.9375,219.3438 2344.7344,219.4375 2344.5156,219.75 L2344.3438,219.6719 Z "
        fill="#000000"/>
      <text fill="#000000" font-family="sans-serif" font-size="14" lengthAdjust="spacing"
            textLength="230" x="2356" y="228.8467">ConfirmReservationComponent
      </text>
      <line style="stroke:#181818;stroke-width:0.5;" x1="2328" x2="2588" y1="240" y2="240"/>
      <line style="stroke:#181818;stroke-width:0.5;" x1="2328" x2="2588" y1="248" y2="248"/>
      <ellipse cx="2338" cy="261.6484" fill="#84BE84" rx="3" ry="3"
               style="stroke:#038048;stroke-width:1.0;"/>
      <text fill="#000000" font-family="sans-serif" font-size="14" lengthAdjust="spacing"
            textLength="188" x="2347" y="264.9951">void execute(Reservation)
      </text>
    </g><!--class ReservationRepository-->
    <g id="elem_ReservationRepository">
      <rect codeLine="26" fill="#F1F1F1" height="129.4844" id="ReservationRepository" rx="2.5"
            ry="2.5" style="stroke:#181818;stroke-width:0.5;" width="352" x="1924" y="473.5"/>
      <ellipse cx="2015.25" cy="489.5" fill="#B4A7E5" rx="11" ry="11"
               style="stroke:#181818;stroke-width:1.0;"/>
      <path
        d="M2016.2031,486.2813 L2017.9219,486.2813 C2018.3125,486.2813 2018.5,486.25 2018.625,486.1719 C2018.8906,486.0156 2019.0313,485.7344 2019.0313,485.4375 C2019.0313,485.1719 2018.9219,484.9063 2018.6875,484.7344 C2018.5156,484.625 2018.375,484.5938 2017.9219,484.5938 L2012.7813,484.5938 C2012.3438,484.5938 2012.2188,484.6094 2012.0625,484.7031 C2011.8125,484.8594 2011.6563,485.1563 2011.6563,485.4375 C2011.6563,485.7188 2011.7969,485.9688 2012.0156,486.1406 C2012.1719,486.25 2012.3594,486.2813 2012.7813,486.2813 L2014.5,486.2813 L2014.5,492.7969 L2012.7813,492.7969 C2012.3438,492.7969 2012.2188,492.8125 2012.0625,492.9219 C2011.8125,493.0781 2011.6563,493.3594 2011.6563,493.6563 C2011.6563,493.9063 2011.7969,494.1719 2012.0156,494.3281 C2012.1719,494.4531 2012.375,494.5 2012.7813,494.5 L2017.9219,494.5 C2018.6719,494.5 2019.0313,494.2188 2019.0313,493.6563 C2019.0313,493.375 2018.9219,493.125 2018.6875,492.9531 C2018.5156,492.8281 2018.375,492.7969 2017.9219,492.7969 L2016.2031,492.7969 L2016.2031,486.2813 Z "
        fill="#000000"/>
      <text fill="#000000" font-family="sans-serif" font-size="14" font-style="italic"
            lengthAdjust="spacing" textLength="161" x="2035.75" y="494.3467">ReservationRepository
      </text>
      <line style="stroke:#181818;stroke-width:0.5;" x1="1925" x2="2275" y1="505.5" y2="505.5"/>
      <line style="stroke:#181818;stroke-width:0.5;" x1="1925" x2="2275" y1="513.5" y2="513.5"/>
      <ellipse cx="1935" cy="527.1484" fill="#84BE84" rx="3" ry="3"
               style="stroke:#038048;stroke-width:1.0;"/>
      <text fill="#000000" font-family="sans-serif" font-size="14" font-style="italic"
            lengthAdjust="spacing" textLength="326" x="1944" y="530.4951">Optional&lt;Reservation&gt;
        findBy(ReservationId)
      </text>
      <ellipse cx="1935" cy="543.4453" fill="#84BE84" rx="3" ry="3"
               style="stroke:#038048;stroke-width:1.0;"/>
      <text fill="#000000" font-family="sans-serif" font-size="14" font-style="italic"
            lengthAdjust="spacing" textLength="217" x="1944" y="546.792">Reservation
        save(Reservation)
      </text>
      <ellipse cx="1935" cy="559.7422" fill="#84BE84" rx="3" ry="3"
               style="stroke:#038048;stroke-width:1.0;"/>
      <text fill="#000000" font-family="sans-serif" font-size="14" font-style="italic"
            lengthAdjust="spacing" textLength="177" x="1944" y="563.0889">void submit(Reservation)
      </text>
      <ellipse cx="1935" cy="576.0391" fill="#84BE84" rx="3" ry="3"
               style="stroke:#038048;stroke-width:1.0;"/>
      <text fill="#000000" font-family="sans-serif" font-size="14" font-style="italic"
            lengthAdjust="spacing" textLength="184" x="1944" y="579.3857">void confirm(Reservation)
      </text>
      <ellipse cx="1935" cy="592.3359" fill="#84BE84" rx="3" ry="3"
               style="stroke:#038048;stroke-width:1.0;"/>
      <text fill="#000000" font-family="sans-serif" font-size="14" font-style="italic"
            lengthAdjust="spacing" textLength="165" x="1944" y="595.6826">void reset(Reservation)
      </text>
    </g><!--class Reservation-->
    <g id="elem_Reservation">
      <rect codeLine="33" fill="#F1F1F1" height="80.5938" id="Reservation" rx="2.5" ry="2.5"
            style="stroke:#181818;stroke-width:0.5;" width="243" x="2422.5" y="497.5"/>
      <ellipse cx="2496.75" cy="513.5" fill="#ADD1B2" rx="11" ry="11"
               style="stroke:#181818;stroke-width:1.0;"/>
      <path
        d="M2499.0938,509.1719 C2498.1563,508.7344 2497.5625,508.5938 2496.6875,508.5938 C2494.0625,508.5938 2492.0625,510.6719 2492.0625,513.3906 L2492.0625,514.5156 C2492.0625,517.0938 2494.1719,518.9844 2497.0625,518.9844 C2498.2813,518.9844 2499.4375,518.6875 2500.1875,518.1406 C2500.7656,517.7344 2501.0938,517.2813 2501.0938,516.8906 C2501.0938,516.4375 2500.7031,516.0469 2500.2344,516.0469 C2500.0156,516.0469 2499.8125,516.125 2499.625,516.3125 C2499.1719,516.7969 2499.1719,516.7969 2498.9844,516.8906 C2498.5625,517.1563 2497.875,517.2813 2497.1094,517.2813 C2495.0625,517.2813 2493.7656,516.1875 2493.7656,514.4844 L2493.7656,513.3906 C2493.7656,511.6094 2495.0156,510.2969 2496.75,510.2969 C2497.3281,510.2969 2497.9375,510.4531 2498.4063,510.7031 C2498.8906,510.9844 2499.0625,511.2031 2499.1563,511.6094 C2499.2188,512.0156 2499.25,512.1406 2499.3906,512.2656 C2499.5313,512.4063 2499.7656,512.5156 2499.9844,512.5156 C2500.25,512.5156 2500.5156,512.375 2500.6875,512.1563 C2500.7969,512 2500.8281,511.8125 2500.8281,511.3906 L2500.8281,509.9688 C2500.8281,509.5313 2500.8125,509.4063 2500.7188,509.25 C2500.5625,508.9844 2500.2813,508.8438 2499.9844,508.8438 C2499.6875,508.8438 2499.4844,508.9375 2499.2656,509.25 L2499.0938,509.1719 Z "
        fill="#000000"/>
      <text fill="#000000" font-family="sans-serif" font-size="14" lengthAdjust="spacing"
            textLength="86" x="2517.25" y="518.3467">Reservation
      </text>
      <line style="stroke:#181818;stroke-width:0.5;" x1="2423.5" x2="2664.5" y1="529.5" y2="529.5"/>
      <line style="stroke:#181818;stroke-width:0.5;" x1="2423.5" x2="2664.5" y1="537.5" y2="537.5"/>
      <ellipse cx="2433.5" cy="551.1484" fill="#84BE84" rx="3" ry="3"
               style="stroke:#038048;stroke-width:1.0;"/>
      <text fill="#000000" font-family="sans-serif" font-size="14" lengthAdjust="spacing"
            textLength="151" x="2442.5" y="554.4951">ReservationId getId()
      </text>
      <ellipse cx="2433.5" cy="567.4453" fill="#84BE84" rx="3" ry="3"
               style="stroke:#038048;stroke-width:1.0;"/>
      <text fill="#000000" font-family="sans-serif" font-size="14" lengthAdjust="spacing"
            textLength="217" x="2442.5" y="570.792">ReservationStatus getStatus()
      </text>
    </g><!--class ReservationId-->
    <g id="elem_ReservationId">
      <rect codeLine="37" fill="#F1F1F1" height="64.2969" id="ReservationId" rx="2.5" ry="2.5"
            style="stroke:#181818;stroke-width:0.5;" width="131" x="2308.5" y="772.5"/>
      <ellipse cx="2323.5" cy="788.5" fill="#ADD1B2" rx="11" ry="11"
               style="stroke:#181818;stroke-width:1.0;"/>
      <path
        d="M2325.8438,784.1719 C2324.9063,783.7344 2324.3125,783.5938 2323.4375,783.5938 C2320.8125,783.5938 2318.8125,785.6719 2318.8125,788.3906 L2318.8125,789.5156 C2318.8125,792.0938 2320.9219,793.9844 2323.8125,793.9844 C2325.0313,793.9844 2326.1875,793.6875 2326.9375,793.1406 C2327.5156,792.7344 2327.8438,792.2813 2327.8438,791.8906 C2327.8438,791.4375 2327.4531,791.0469 2326.9844,791.0469 C2326.7656,791.0469 2326.5625,791.125 2326.375,791.3125 C2325.9219,791.7969 2325.9219,791.7969 2325.7344,791.8906 C2325.3125,792.1563 2324.625,792.2813 2323.8594,792.2813 C2321.8125,792.2813 2320.5156,791.1875 2320.5156,789.4844 L2320.5156,788.3906 C2320.5156,786.6094 2321.7656,785.2969 2323.5,785.2969 C2324.0781,785.2969 2324.6875,785.4531 2325.1563,785.7031 C2325.6406,785.9844 2325.8125,786.2031 2325.9063,786.6094 C2325.9688,787.0156 2326,787.1406 2326.1406,787.2656 C2326.2813,787.4063 2326.5156,787.5156 2326.7344,787.5156 C2327,787.5156 2327.2656,787.375 2327.4375,787.1563 C2327.5469,787 2327.5781,786.8125 2327.5781,786.3906 L2327.5781,784.9688 C2327.5781,784.5313 2327.5625,784.4063 2327.4688,784.25 C2327.3125,783.9844 2327.0313,783.8438 2326.7344,783.8438 C2326.4375,783.8438 2326.2344,783.9375 2326.0156,784.25 L2325.8438,784.1719 Z "
        fill="#000000"/>
      <text fill="#000000" font-family="sans-serif" font-size="14" lengthAdjust="spacing"
            textLength="99" x="2337.5" y="793.3467">ReservationId
      </text>
      <line style="stroke:#181818;stroke-width:0.5;" x1="2309.5" x2="2438.5" y1="804.5" y2="804.5"/>
      <line style="stroke:#181818;stroke-width:0.5;" x1="2309.5" x2="2438.5" y1="812.5" y2="812.5"/>
      <ellipse cx="2319.5" cy="826.1484" fill="#84BE84" rx="3" ry="3"
               style="stroke:#038048;stroke-width:1.0;"/>
      <text fill="#000000" font-family="sans-serif" font-size="14" lengthAdjust="spacing"
            textLength="85" x="2328.5" y="829.4951">UUID getId()
      </text>
    </g><!--class ReservationStatus-->
    <g id="elem_ReservationStatus">
      <rect codeLine="40" fill="#F1F1F1" height="113.1875" id="ReservationStatus" rx="2.5" ry="2.5"
            style="stroke:#181818;stroke-width:0.5;" width="361" x="2474.5" y="748"/>
      <ellipse cx="2584.75" cy="764" fill="#EB937F" rx="11" ry="11"
               style="stroke:#181818;stroke-width:1.0;"/>
      <path
        d="M2583.5469,764.875 L2585,764.875 L2585,764.9844 C2585,765.3906 2585.0313,765.5469 2585.1094,765.7031 C2585.2656,765.9531 2585.5469,766.1094 2585.8438,766.1094 C2586.0938,766.1094 2586.3594,765.9688 2586.5156,765.75 C2586.6406,765.5938 2586.6719,765.4375 2586.6719,764.9844 L2586.6719,763.0625 C2586.6719,762.9063 2586.6719,762.8594 2586.6563,762.7031 C2586.5938,762.2344 2586.2813,761.9219 2585.8281,761.9219 C2585.5781,761.9219 2585.3125,762.0625 2585.1406,762.2813 C2585.0313,762.4531 2585,762.6094 2585,763.0625 L2585,763.1875 L2583.5469,763.1875 L2583.5469,760.7813 L2587.5313,760.7813 L2587.5313,761.6406 C2587.5313,762.0469 2587.5625,762.2188 2587.6406,762.375 C2587.8125,762.625 2588.0938,762.7813 2588.375,762.7813 C2588.6406,762.7813 2588.9063,762.6406 2589.0781,762.4219 C2589.1875,762.25 2589.2188,762.1094 2589.2188,761.6406 L2589.2188,759.0938 L2581.5938,759.0938 C2581.1563,759.0938 2581.0313,759.1094 2580.875,759.2031 C2580.625,759.3594 2580.4688,759.6563 2580.4688,759.9375 C2580.4688,760.2188 2580.6094,760.4688 2580.8281,760.6406 C2580.9844,760.75 2581.1719,760.7813 2581.5938,760.7813 L2581.8438,760.7813 L2581.8438,767.2969 L2581.5938,767.2969 C2581.1875,767.2969 2581.0313,767.3125 2580.875,767.4219 C2580.625,767.5938 2580.4688,767.8594 2580.4688,768.1563 C2580.4688,768.4219 2580.6094,768.6719 2580.8281,768.8281 C2580.9688,768.9531 2581.2031,769 2581.5938,769 L2589.5938,769 L2589.5938,766.4219 C2589.5938,765.9844 2589.5625,765.8438 2589.4844,765.6875 C2589.3125,765.4375 2589.0313,765.2813 2588.75,765.2813 C2588.4844,765.2813 2588.2188,765.3906 2588.0469,765.6406 C2587.9375,765.7969 2587.9063,765.9375 2587.9063,766.4219 L2587.9063,767.2969 L2583.5469,767.2969 L2583.5469,764.875 Z "
        fill="#000000"/>
      <text fill="#000000" font-family="sans-serif" font-size="14" lengthAdjust="spacing"
            textLength="132" x="2605.25" y="768.8467">ReservationStatus
      </text>
      <line style="stroke:#181818;stroke-width:0.5;" x1="2475.5" x2="2834.5" y1="780" y2="780"/>
      <text fill="#000000" font-family="sans-serif" font-size="14" lengthAdjust="spacing"
            textLength="53" x="2480.5" y="796.9951">SUBMIT
      </text>
      <text fill="#000000" font-family="sans-serif" font-size="14" lengthAdjust="spacing"
            textLength="65" x="2480.5" y="813.292">CONFIRM
      </text>
      <text fill="#000000" font-family="sans-serif" font-size="14" lengthAdjust="spacing"
            textLength="46" x="2480.5" y="829.5889">RESET
      </text>
      <line style="stroke:#181818;stroke-width:0.5;" x1="2475.5" x2="2834.5" y1="836.8906"
            y2="836.8906"/>
      <ellipse cx="2485.5" cy="850.5391" fill="#84BE84" rx="3" ry="3"
               style="stroke:#038048;stroke-width:1.0;"/>
      <text fill="#000000" font-family="sans-serif" font-size="14" lengthAdjust="spacing"
            text-decoration="underline" textLength="335" x="2494.5" y="853.8857">EnumEntries&lt;ReservationStatus&gt;
        getEntries()
      </text>
    </g><!--class Trip-->
    <g id="elem_Trip">
      <rect codeLine="47" fill="#F1F1F1" height="162.0781" id="Trip" rx="2.5" ry="2.5"
            style="stroke:#181818;stroke-width:0.5;" width="226" x="94" y="457"/>
      <ellipse cx="188.25" cy="473" fill="#ADD1B2" rx="11" ry="11"
               style="stroke:#181818;stroke-width:1.0;"/>
      <path
        d="M190.5938,468.6719 C189.6563,468.2344 189.0625,468.0938 188.1875,468.0938 C185.5625,468.0938 183.5625,470.1719 183.5625,472.8906 L183.5625,474.0156 C183.5625,476.5938 185.6719,478.4844 188.5625,478.4844 C189.7813,478.4844 190.9375,478.1875 191.6875,477.6406 C192.2656,477.2344 192.5938,476.7813 192.5938,476.3906 C192.5938,475.9375 192.2031,475.5469 191.7344,475.5469 C191.5156,475.5469 191.3125,475.625 191.125,475.8125 C190.6719,476.2969 190.6719,476.2969 190.4844,476.3906 C190.0625,476.6563 189.375,476.7813 188.6094,476.7813 C186.5625,476.7813 185.2656,475.6875 185.2656,473.9844 L185.2656,472.8906 C185.2656,471.1094 186.5156,469.7969 188.25,469.7969 C188.8281,469.7969 189.4375,469.9531 189.9063,470.2031 C190.3906,470.4844 190.5625,470.7031 190.6563,471.1094 C190.7188,471.5156 190.75,471.6406 190.8906,471.7656 C191.0313,471.9063 191.2656,472.0156 191.4844,472.0156 C191.75,472.0156 192.0156,471.875 192.1875,471.6563 C192.2969,471.5 192.3281,471.3125 192.3281,470.8906 L192.3281,469.4688 C192.3281,469.0313 192.3125,468.9063 192.2188,468.75 C192.0625,468.4844 191.7813,468.3438 191.4844,468.3438 C191.1875,468.3438 190.9844,468.4375 190.7656,468.75 L190.5938,468.6719 Z "
        fill="#000000"/>
      <text fill="#000000" font-family="sans-serif" font-size="14" lengthAdjust="spacing"
            textLength="29" x="208.75" y="477.8467">Trip
      </text>
      <line style="stroke:#181818;stroke-width:0.5;" x1="95" x2="319" y1="489" y2="489"/>
      <line style="stroke:#181818;stroke-width:0.5;" x1="95" x2="319" y1="497" y2="497"/>
      <ellipse cx="105" cy="510.6484" fill="#84BE84" rx="3" ry="3"
               style="stroke:#038048;stroke-width:1.0;"/>
      <text fill="#000000" font-family="sans-serif" font-size="14" lengthAdjust="spacing"
            textLength="94" x="114" y="513.9951">TripId getId()
      </text>
      <ellipse cx="105" cy="526.9453" fill="#84BE84" rx="3" ry="3"
               style="stroke:#038048;stroke-width:1.0;"/>
      <text fill="#000000" font-family="sans-serif" font-size="14" lengthAdjust="spacing"
            textLength="135" x="114" y="530.292">Station getOrigin()
      </text>
      <ellipse cx="105" cy="543.2422" fill="#84BE84" rx="3" ry="3"
               style="stroke:#038048;stroke-width:1.0;"/>
      <text fill="#000000" font-family="sans-serif" font-size="14" lengthAdjust="spacing"
            textLength="176" x="114" y="546.5889">Station getDestination()
      </text>
      <ellipse cx="105" cy="559.5391" fill="#84BE84" rx="3" ry="3"
               style="stroke:#038048;stroke-width:1.0;"/>
      <text fill="#000000" font-family="sans-serif" font-size="14" lengthAdjust="spacing"
            textLength="200" x="114" y="562.8857">List&lt;Station&gt; getStations()
      </text>
      <ellipse cx="105" cy="575.8359" fill="#84BE84" rx="3" ry="3"
               style="stroke:#038048;stroke-width:1.0;"/>
      <text fill="#000000" font-family="sans-serif" font-size="14" lengthAdjust="spacing"
            textLength="111" x="114" y="579.1826">Train getTrain()
      </text>
      <ellipse cx="105" cy="592.1328" fill="#84BE84" rx="3" ry="3"
               style="stroke:#038048;stroke-width:1.0;"/>
      <text fill="#000000" font-family="sans-serif" font-size="14" lengthAdjust="spacing"
            textLength="105" x="114" y="595.4795">Seat getSeat()
      </text>
      <ellipse cx="105" cy="608.4297" fill="#84BE84" rx="3" ry="3"
               style="stroke:#038048;stroke-width:1.0;"/>
      <text fill="#000000" font-family="sans-serif" font-size="14" lengthAdjust="spacing"
            textLength="137" x="114" y="611.7764">Wagon getWagon()
      </text>
    </g><!--class TripId-->
    <g id="elem_TripId">
      <rect codeLine="56" fill="#F1F1F1" height="64.2969" id="TripId" rx="2.5" ry="2.5"
            style="stroke:#181818;stroke-width:0.5;" width="111" x="151.5" y="772.5"/>
      <ellipse cx="183.15" cy="788.5" fill="#ADD1B2" rx="11" ry="11"
               style="stroke:#181818;stroke-width:1.0;"/>
      <path
        d="M185.4938,784.1719 C184.5563,783.7344 183.9625,783.5938 183.0875,783.5938 C180.4625,783.5938 178.4625,785.6719 178.4625,788.3906 L178.4625,789.5156 C178.4625,792.0938 180.5719,793.9844 183.4625,793.9844 C184.6813,793.9844 185.8375,793.6875 186.5875,793.1406 C187.1656,792.7344 187.4938,792.2813 187.4938,791.8906 C187.4938,791.4375 187.1031,791.0469 186.6344,791.0469 C186.4156,791.0469 186.2125,791.125 186.025,791.3125 C185.5719,791.7969 185.5719,791.7969 185.3844,791.8906 C184.9625,792.1563 184.275,792.2813 183.5094,792.2813 C181.4625,792.2813 180.1656,791.1875 180.1656,789.4844 L180.1656,788.3906 C180.1656,786.6094 181.4156,785.2969 183.15,785.2969 C183.7281,785.2969 184.3375,785.4531 184.8063,785.7031 C185.2906,785.9844 185.4625,786.2031 185.5563,786.6094 C185.6188,787.0156 185.65,787.1406 185.7906,787.2656 C185.9313,787.4063 186.1656,787.5156 186.3844,787.5156 C186.65,787.5156 186.9156,787.375 187.0875,787.1563 C187.1969,787 187.2281,786.8125 187.2281,786.3906 L187.2281,784.9688 C187.2281,784.5313 187.2125,784.4063 187.1188,784.25 C186.9625,783.9844 186.6813,783.8438 186.3844,783.8438 C186.0875,783.8438 185.8844,783.9375 185.6656,784.25 L185.4938,784.1719 Z "
        fill="#000000"/>
      <text fill="#000000" font-family="sans-serif" font-size="14" lengthAdjust="spacing"
            textLength="42" x="200.85" y="793.3467">TripId
      </text>
      <line style="stroke:#181818;stroke-width:0.5;" x1="152.5" x2="261.5" y1="804.5" y2="804.5"/>
      <line style="stroke:#181818;stroke-width:0.5;" x1="152.5" x2="261.5" y1="812.5" y2="812.5"/>
      <ellipse cx="162.5" cy="826.1484" fill="#84BE84" rx="3" ry="3"
               style="stroke:#038048;stroke-width:1.0;"/>
      <text fill="#000000" font-family="sans-serif" font-size="14" lengthAdjust="spacing"
            textLength="85" x="171.5" y="829.4951">UUID getId()
      </text>
    </g><!--class Station-->
    <g id="elem_Station">
      <rect codeLine="59" fill="#F1F1F1" height="80.5938" id="Station" rx="2.5" ry="2.5"
            style="stroke:#181818;stroke-width:0.5;" width="150" x="376" y="764"/>
      <ellipse cx="420.25" cy="780" fill="#ADD1B2" rx="11" ry="11"
               style="stroke:#181818;stroke-width:1.0;"/>
      <path
        d="M422.5938,775.6719 C421.6563,775.2344 421.0625,775.0938 420.1875,775.0938 C417.5625,775.0938 415.5625,777.1719 415.5625,779.8906 L415.5625,781.0156 C415.5625,783.5938 417.6719,785.4844 420.5625,785.4844 C421.7813,785.4844 422.9375,785.1875 423.6875,784.6406 C424.2656,784.2344 424.5938,783.7813 424.5938,783.3906 C424.5938,782.9375 424.2031,782.5469 423.7344,782.5469 C423.5156,782.5469 423.3125,782.625 423.125,782.8125 C422.6719,783.2969 422.6719,783.2969 422.4844,783.3906 C422.0625,783.6563 421.375,783.7813 420.6094,783.7813 C418.5625,783.7813 417.2656,782.6875 417.2656,780.9844 L417.2656,779.8906 C417.2656,778.1094 418.5156,776.7969 420.25,776.7969 C420.8281,776.7969 421.4375,776.9531 421.9063,777.2031 C422.3906,777.4844 422.5625,777.7031 422.6563,778.1094 C422.7188,778.5156 422.75,778.6406 422.8906,778.7656 C423.0313,778.9063 423.2656,779.0156 423.4844,779.0156 C423.75,779.0156 424.0156,778.875 424.1875,778.6563 C424.2969,778.5 424.3281,778.3125 424.3281,777.8906 L424.3281,776.4688 C424.3281,776.0313 424.3125,775.9063 424.2188,775.75 C424.0625,775.4844 423.7813,775.3438 423.4844,775.3438 C423.1875,775.3438 422.9844,775.4375 422.7656,775.75 L422.5938,775.6719 Z "
        fill="#000000"/>
      <text fill="#000000" font-family="sans-serif" font-size="14" lengthAdjust="spacing"
            textLength="53" x="440.75" y="784.8467">Station
      </text>
      <line style="stroke:#181818;stroke-width:0.5;" x1="377" x2="525" y1="796" y2="796"/>
      <line style="stroke:#181818;stroke-width:0.5;" x1="377" x2="525" y1="804" y2="804"/>
      <ellipse cx="387" cy="817.6484" fill="#84BE84" rx="3" ry="3"
               style="stroke:#038048;stroke-width:1.0;"/>
      <text fill="#000000" font-family="sans-serif" font-size="14" lengthAdjust="spacing"
            textLength="118" x="396" y="820.9951">StationId getId()
      </text>
      <ellipse cx="387" cy="833.9453" fill="#84BE84" rx="3" ry="3"
               style="stroke:#038048;stroke-width:1.0;"/>
      <text fill="#000000" font-family="sans-serif" font-size="14" lengthAdjust="spacing"
            textLength="124" x="396" y="837.292">String getName()
      </text>
    </g><!--class StationId-->
    <g id="elem_StationId">
      <rect codeLine="63" fill="#F1F1F1" height="64.2969" id="StationId" rx="2.5" ry="2.5"
            style="stroke:#181818;stroke-width:0.5;" width="111" x="395.5" y="933"/>
      <ellipse cx="416.35" cy="949" fill="#ADD1B2" rx="11" ry="11"
               style="stroke:#181818;stroke-width:1.0;"/>
      <path
        d="M418.6938,944.6719 C417.7563,944.2344 417.1625,944.0938 416.2875,944.0938 C413.6625,944.0938 411.6625,946.1719 411.6625,948.8906 L411.6625,950.0156 C411.6625,952.5938 413.7719,954.4844 416.6625,954.4844 C417.8813,954.4844 419.0375,954.1875 419.7875,953.6406 C420.3656,953.2344 420.6938,952.7813 420.6938,952.3906 C420.6938,951.9375 420.3031,951.5469 419.8344,951.5469 C419.6156,951.5469 419.4125,951.625 419.225,951.8125 C418.7719,952.2969 418.7719,952.2969 418.5844,952.3906 C418.1625,952.6563 417.475,952.7813 416.7094,952.7813 C414.6625,952.7813 413.3656,951.6875 413.3656,949.9844 L413.3656,948.8906 C413.3656,947.1094 414.6156,945.7969 416.35,945.7969 C416.9281,945.7969 417.5375,945.9531 418.0063,946.2031 C418.4906,946.4844 418.6625,946.7031 418.7563,947.1094 C418.8188,947.5156 418.85,947.6406 418.9906,947.7656 C419.1313,947.9063 419.3656,948.0156 419.5844,948.0156 C419.85,948.0156 420.1156,947.875 420.2875,947.6563 C420.3969,947.5 420.4281,947.3125 420.4281,946.8906 L420.4281,945.4688 C420.4281,945.0313 420.4125,944.9063 420.3188,944.75 C420.1625,944.4844 419.8813,944.3438 419.5844,944.3438 C419.2875,944.3438 419.0844,944.4375 418.8656,944.75 L418.6938,944.6719 Z "
        fill="#000000"/>
      <text fill="#000000" font-family="sans-serif" font-size="14" lengthAdjust="spacing"
            textLength="66" x="431.65" y="953.8467">StationId
      </text>
      <line style="stroke:#181818;stroke-width:0.5;" x1="396.5" x2="505.5" y1="965" y2="965"/>
      <line style="stroke:#181818;stroke-width:0.5;" x1="396.5" x2="505.5" y1="973" y2="973"/>
      <ellipse cx="406.5" cy="986.6484" fill="#84BE84" rx="3" ry="3"
               style="stroke:#038048;stroke-width:1.0;"/>
      <text fill="#000000" font-family="sans-serif" font-size="14" lengthAdjust="spacing"
            textLength="85" x="415.5" y="989.9951">UUID getId()
      </text>
    </g><!--class Train-->
    <g id="elem_Train">
      <rect codeLine="66" fill="#F1F1F1" height="80.5938" id="Train" rx="2.5" ry="2.5"
            style="stroke:#181818;stroke-width:0.5;" width="150" x="1652" y="764"/>
      <ellipse cx="1704.75" cy="780" fill="#ADD1B2" rx="11" ry="11"
               style="stroke:#181818;stroke-width:1.0;"/>
      <path
        d="M1707.0938,775.6719 C1706.1563,775.2344 1705.5625,775.0938 1704.6875,775.0938 C1702.0625,775.0938 1700.0625,777.1719 1700.0625,779.8906 L1700.0625,781.0156 C1700.0625,783.5938 1702.1719,785.4844 1705.0625,785.4844 C1706.2813,785.4844 1707.4375,785.1875 1708.1875,784.6406 C1708.7656,784.2344 1709.0938,783.7813 1709.0938,783.3906 C1709.0938,782.9375 1708.7031,782.5469 1708.2344,782.5469 C1708.0156,782.5469 1707.8125,782.625 1707.625,782.8125 C1707.1719,783.2969 1707.1719,783.2969 1706.9844,783.3906 C1706.5625,783.6563 1705.875,783.7813 1705.1094,783.7813 C1703.0625,783.7813 1701.7656,782.6875 1701.7656,780.9844 L1701.7656,779.8906 C1701.7656,778.1094 1703.0156,776.7969 1704.75,776.7969 C1705.3281,776.7969 1705.9375,776.9531 1706.4063,777.2031 C1706.8906,777.4844 1707.0625,777.7031 1707.1563,778.1094 C1707.2188,778.5156 1707.25,778.6406 1707.3906,778.7656 C1707.5313,778.9063 1707.7656,779.0156 1707.9844,779.0156 C1708.25,779.0156 1708.5156,778.875 1708.6875,778.6563 C1708.7969,778.5 1708.8281,778.3125 1708.8281,777.8906 L1708.8281,776.4688 C1708.8281,776.0313 1708.8125,775.9063 1708.7188,775.75 C1708.5625,775.4844 1708.2813,775.3438 1707.9844,775.3438 C1707.6875,775.3438 1707.4844,775.4375 1707.2656,775.75 L1707.0938,775.6719 Z "
        fill="#000000"/>
      <text fill="#000000" font-family="sans-serif" font-size="14" lengthAdjust="spacing"
            textLength="36" x="1725.25" y="784.8467">Train
      </text>
      <line style="stroke:#181818;stroke-width:0.5;" x1="1653" x2="1801" y1="796" y2="796"/>
      <line style="stroke:#181818;stroke-width:0.5;" x1="1653" x2="1801" y1="804" y2="804"/>
      <ellipse cx="1663" cy="817.6484" fill="#84BE84" rx="3" ry="3"
               style="stroke:#038048;stroke-width:1.0;"/>
      <text fill="#000000" font-family="sans-serif" font-size="14" lengthAdjust="spacing"
            textLength="88" x="1672" y="820.9951">Train getId()
      </text>
      <ellipse cx="1663" cy="833.9453" fill="#84BE84" rx="3" ry="3"
               style="stroke:#038048;stroke-width:1.0;"/>
      <text fill="#000000" font-family="sans-serif" font-size="14" lengthAdjust="spacing"
            textLength="124" x="1672" y="837.292">String getName()
      </text>
    </g><!--class TrainId-->
    <g id="elem_TrainId">
      <rect codeLine="70" fill="#F1F1F1" height="64.2969" id="TrainId" rx="2.5" ry="2.5"
            style="stroke:#181818;stroke-width:0.5;" width="111" x="1505.5" y="772.5"/>
      <ellipse cx="1534" cy="788.5" fill="#ADD1B2" rx="11" ry="11"
               style="stroke:#181818;stroke-width:1.0;"/>
      <path
        d="M1536.3438,784.1719 C1535.4063,783.7344 1534.8125,783.5938 1533.9375,783.5938 C1531.3125,783.5938 1529.3125,785.6719 1529.3125,788.3906 L1529.3125,789.5156 C1529.3125,792.0938 1531.4219,793.9844 1534.3125,793.9844 C1535.5313,793.9844 1536.6875,793.6875 1537.4375,793.1406 C1538.0156,792.7344 1538.3438,792.2813 1538.3438,791.8906 C1538.3438,791.4375 1537.9531,791.0469 1537.4844,791.0469 C1537.2656,791.0469 1537.0625,791.125 1536.875,791.3125 C1536.4219,791.7969 1536.4219,791.7969 1536.2344,791.8906 C1535.8125,792.1563 1535.125,792.2813 1534.3594,792.2813 C1532.3125,792.2813 1531.0156,791.1875 1531.0156,789.4844 L1531.0156,788.3906 C1531.0156,786.6094 1532.2656,785.2969 1534,785.2969 C1534.5781,785.2969 1535.1875,785.4531 1535.6563,785.7031 C1536.1406,785.9844 1536.3125,786.2031 1536.4063,786.6094 C1536.4688,787.0156 1536.5,787.1406 1536.6406,787.2656 C1536.7813,787.4063 1537.0156,787.5156 1537.2344,787.5156 C1537.5,787.5156 1537.7656,787.375 1537.9375,787.1563 C1538.0469,787 1538.0781,786.8125 1538.0781,786.3906 L1538.0781,784.9688 C1538.0781,784.5313 1538.0625,784.4063 1537.9688,784.25 C1537.8125,783.9844 1537.5313,783.8438 1537.2344,783.8438 C1536.9375,783.8438 1536.7344,783.9375 1536.5156,784.25 L1536.3438,784.1719 Z "
        fill="#000000"/>
      <text fill="#000000" font-family="sans-serif" font-size="14" lengthAdjust="spacing"
            textLength="49" x="1551" y="793.3467">TrainId
      </text>
      <line style="stroke:#181818;stroke-width:0.5;" x1="1506.5" x2="1615.5" y1="804.5" y2="804.5"/>
      <line style="stroke:#181818;stroke-width:0.5;" x1="1506.5" x2="1615.5" y1="812.5" y2="812.5"/>
      <ellipse cx="1516.5" cy="826.1484" fill="#84BE84" rx="3" ry="3"
               style="stroke:#038048;stroke-width:1.0;"/>
      <text fill="#000000" font-family="sans-serif" font-size="14" lengthAdjust="spacing"
            textLength="85" x="1525.5" y="829.4951">UUID getId()
      </text>
    </g><!--class Wagon-->
    <g id="elem_Wagon">
      <rect codeLine="73" fill="#F1F1F1" height="96.8906" id="Wagon" rx="2.5" ry="2.5"
            style="stroke:#181818;stroke-width:0.5;" width="166" x="1241" y="756"/>
      <ellipse cx="1295.25" cy="772" fill="#ADD1B2" rx="11" ry="11"
               style="stroke:#181818;stroke-width:1.0;"/>
      <path
        d="M1297.5938,767.6719 C1296.6563,767.2344 1296.0625,767.0938 1295.1875,767.0938 C1292.5625,767.0938 1290.5625,769.1719 1290.5625,771.8906 L1290.5625,773.0156 C1290.5625,775.5938 1292.6719,777.4844 1295.5625,777.4844 C1296.7813,777.4844 1297.9375,777.1875 1298.6875,776.6406 C1299.2656,776.2344 1299.5938,775.7813 1299.5938,775.3906 C1299.5938,774.9375 1299.2031,774.5469 1298.7344,774.5469 C1298.5156,774.5469 1298.3125,774.625 1298.125,774.8125 C1297.6719,775.2969 1297.6719,775.2969 1297.4844,775.3906 C1297.0625,775.6563 1296.375,775.7813 1295.6094,775.7813 C1293.5625,775.7813 1292.2656,774.6875 1292.2656,772.9844 L1292.2656,771.8906 C1292.2656,770.1094 1293.5156,768.7969 1295.25,768.7969 C1295.8281,768.7969 1296.4375,768.9531 1296.9063,769.2031 C1297.3906,769.4844 1297.5625,769.7031 1297.6563,770.1094 C1297.7188,770.5156 1297.75,770.6406 1297.8906,770.7656 C1298.0313,770.9063 1298.2656,771.0156 1298.4844,771.0156 C1298.75,771.0156 1299.0156,770.875 1299.1875,770.6563 C1299.2969,770.5 1299.3281,770.3125 1299.3281,769.8906 L1299.3281,768.4688 C1299.3281,768.0313 1299.3125,767.9063 1299.2188,767.75 C1299.0625,767.4844 1298.7813,767.3438 1298.4844,767.3438 C1298.1875,767.3438 1297.9844,767.4375 1297.7656,767.75 L1297.5938,767.6719 Z "
        fill="#000000"/>
      <text fill="#000000" font-family="sans-serif" font-size="14" lengthAdjust="spacing"
            textLength="49" x="1315.75" y="776.8467">Wagon
      </text>
      <line style="stroke:#181818;stroke-width:0.5;" x1="1242" x2="1406" y1="788" y2="788"/>
      <line style="stroke:#181818;stroke-width:0.5;" x1="1242" x2="1406" y1="796" y2="796"/>
      <ellipse cx="1252" cy="809.6484" fill="#84BE84" rx="3" ry="3"
               style="stroke:#038048;stroke-width:1.0;"/>
      <text fill="#000000" font-family="sans-serif" font-size="14" lengthAdjust="spacing"
            textLength="101" x="1261" y="812.9951">Wagon getId()
      </text>
      <ellipse cx="1252" cy="825.9453" fill="#84BE84" rx="3" ry="3"
               style="stroke:#038048;stroke-width:1.0;"/>
      <text fill="#000000" font-family="sans-serif" font-size="14" lengthAdjust="spacing"
            textLength="124" x="1261" y="829.292">String getName()
      </text>
      <ellipse cx="1252" cy="842.2422" fill="#84BE84" rx="3" ry="3"
               style="stroke:#038048;stroke-width:1.0;"/>
      <text fill="#000000" font-family="sans-serif" font-size="14" lengthAdjust="spacing"
            textLength="140" x="1261" y="845.5889">String getNumber()
      </text>
    </g><!--class WagonId-->
    <g id="elem_WagonId">
      <rect codeLine="78" fill="#F1F1F1" height="64.2969" id="WagonId" rx="2.5" ry="2.5"
            style="stroke:#181818;stroke-width:0.5;" width="111" x="1094.5" y="772.5"/>
      <ellipse cx="1117.15" cy="788.5" fill="#ADD1B2" rx="11" ry="11"
               style="stroke:#181818;stroke-width:1.0;"/>
      <path
        d="M1119.4938,784.1719 C1118.5563,783.7344 1117.9625,783.5938 1117.0875,783.5938 C1114.4625,783.5938 1112.4625,785.6719 1112.4625,788.3906 L1112.4625,789.5156 C1112.4625,792.0938 1114.5719,793.9844 1117.4625,793.9844 C1118.6813,793.9844 1119.8375,793.6875 1120.5875,793.1406 C1121.1656,792.7344 1121.4938,792.2813 1121.4938,791.8906 C1121.4938,791.4375 1121.1031,791.0469 1120.6344,791.0469 C1120.4156,791.0469 1120.2125,791.125 1120.025,791.3125 C1119.5719,791.7969 1119.5719,791.7969 1119.3844,791.8906 C1118.9625,792.1563 1118.275,792.2813 1117.5094,792.2813 C1115.4625,792.2813 1114.1656,791.1875 1114.1656,789.4844 L1114.1656,788.3906 C1114.1656,786.6094 1115.4156,785.2969 1117.15,785.2969 C1117.7281,785.2969 1118.3375,785.4531 1118.8063,785.7031 C1119.2906,785.9844 1119.4625,786.2031 1119.5563,786.6094 C1119.6188,787.0156 1119.65,787.1406 1119.7906,787.2656 C1119.9313,787.4063 1120.1656,787.5156 1120.3844,787.5156 C1120.65,787.5156 1120.9156,787.375 1121.0875,787.1563 C1121.1969,787 1121.2281,786.8125 1121.2281,786.3906 L1121.2281,784.9688 C1121.2281,784.5313 1121.2125,784.4063 1121.1188,784.25 C1120.9625,783.9844 1120.6813,783.8438 1120.3844,783.8438 C1120.0875,783.8438 1119.8844,783.9375 1119.6656,784.25 L1119.4938,784.1719 Z "
        fill="#000000"/>
      <text fill="#000000" font-family="sans-serif" font-size="14" lengthAdjust="spacing"
            textLength="62" x="1132.85" y="793.3467">WagonId
      </text>
      <line style="stroke:#181818;stroke-width:0.5;" x1="1095.5" x2="1204.5" y1="804.5" y2="804.5"/>
      <line style="stroke:#181818;stroke-width:0.5;" x1="1095.5" x2="1204.5" y1="812.5" y2="812.5"/>
      <ellipse cx="1105.5" cy="826.1484" fill="#84BE84" rx="3" ry="3"
               style="stroke:#038048;stroke-width:1.0;"/>
      <text fill="#000000" font-family="sans-serif" font-size="14" lengthAdjust="spacing"
            textLength="85" x="1114.5" y="829.4951">UUID getId()
      </text>
    </g><!--class Seat-->
    <g id="elem_Seat">
      <rect codeLine="81" fill="#F1F1F1" height="80.5938" id="Seat" rx="2.5" ry="2.5"
            style="stroke:#181818;stroke-width:0.5;" width="150" x="870" y="764"/>
      <ellipse cx="924.25" cy="780" fill="#ADD1B2" rx="11" ry="11"
               style="stroke:#181818;stroke-width:1.0;"/>
      <path
        d="M926.5938,775.6719 C925.6563,775.2344 925.0625,775.0938 924.1875,775.0938 C921.5625,775.0938 919.5625,777.1719 919.5625,779.8906 L919.5625,781.0156 C919.5625,783.5938 921.6719,785.4844 924.5625,785.4844 C925.7813,785.4844 926.9375,785.1875 927.6875,784.6406 C928.2656,784.2344 928.5938,783.7813 928.5938,783.3906 C928.5938,782.9375 928.2031,782.5469 927.7344,782.5469 C927.5156,782.5469 927.3125,782.625 927.125,782.8125 C926.6719,783.2969 926.6719,783.2969 926.4844,783.3906 C926.0625,783.6563 925.375,783.7813 924.6094,783.7813 C922.5625,783.7813 921.2656,782.6875 921.2656,780.9844 L921.2656,779.8906 C921.2656,778.1094 922.5156,776.7969 924.25,776.7969 C924.8281,776.7969 925.4375,776.9531 925.9063,777.2031 C926.3906,777.4844 926.5625,777.7031 926.6563,778.1094 C926.7188,778.5156 926.75,778.6406 926.8906,778.7656 C927.0313,778.9063 927.2656,779.0156 927.4844,779.0156 C927.75,779.0156 928.0156,778.875 928.1875,778.6563 C928.2969,778.5 928.3281,778.3125 928.3281,777.8906 L928.3281,776.4688 C928.3281,776.0313 928.3125,775.9063 928.2188,775.75 C928.0625,775.4844 927.7813,775.3438 927.4844,775.3438 C927.1875,775.3438 926.9844,775.4375 926.7656,775.75 L926.5938,775.6719 Z "
        fill="#000000"/>
      <text fill="#000000" font-family="sans-serif" font-size="14" lengthAdjust="spacing"
            textLength="33" x="944.75" y="784.8467">Seat
      </text>
      <line style="stroke:#181818;stroke-width:0.5;" x1="871" x2="1019" y1="796" y2="796"/>
      <line style="stroke:#181818;stroke-width:0.5;" x1="871" x2="1019" y1="804" y2="804"/>
      <ellipse cx="881" cy="817.6484" fill="#84BE84" rx="3" ry="3"
               style="stroke:#038048;stroke-width:1.0;"/>
      <text fill="#000000" font-family="sans-serif" font-size="14" lengthAdjust="spacing"
            textLength="85" x="890" y="820.9951">Seat getId()
      </text>
      <ellipse cx="881" cy="833.9453" fill="#84BE84" rx="3" ry="3"
               style="stroke:#038048;stroke-width:1.0;"/>
      <text fill="#000000" font-family="sans-serif" font-size="14" lengthAdjust="spacing"
            textLength="124" x="890" y="837.292">String getName()
      </text>
    </g><!--class SeatId-->
    <g id="elem_SeatId">
      <rect codeLine="85" fill="#F1F1F1" height="64.2969" id="SeatId" rx="2.5" ry="2.5"
            style="stroke:#181818;stroke-width:0.5;" width="111" x="723.5" y="772.5"/>
      <ellipse cx="753.35" cy="788.5" fill="#ADD1B2" rx="11" ry="11"
               style="stroke:#181818;stroke-width:1.0;"/>
      <path
        d="M755.6938,784.1719 C754.7563,783.7344 754.1625,783.5938 753.2875,783.5938 C750.6625,783.5938 748.6625,785.6719 748.6625,788.3906 L748.6625,789.5156 C748.6625,792.0938 750.7719,793.9844 753.6625,793.9844 C754.8813,793.9844 756.0375,793.6875 756.7875,793.1406 C757.3656,792.7344 757.6938,792.2813 757.6938,791.8906 C757.6938,791.4375 757.3031,791.0469 756.8344,791.0469 C756.6156,791.0469 756.4125,791.125 756.225,791.3125 C755.7719,791.7969 755.7719,791.7969 755.5844,791.8906 C755.1625,792.1563 754.475,792.2813 753.7094,792.2813 C751.6625,792.2813 750.3656,791.1875 750.3656,789.4844 L750.3656,788.3906 C750.3656,786.6094 751.6156,785.2969 753.35,785.2969 C753.9281,785.2969 754.5375,785.4531 755.0063,785.7031 C755.4906,785.9844 755.6625,786.2031 755.7563,786.6094 C755.8188,787.0156 755.85,787.1406 755.9906,787.2656 C756.1313,787.4063 756.3656,787.5156 756.5844,787.5156 C756.85,787.5156 757.1156,787.375 757.2875,787.1563 C757.3969,787 757.4281,786.8125 757.4281,786.3906 L757.4281,784.9688 C757.4281,784.5313 757.4125,784.4063 757.3188,784.25 C757.1625,783.9844 756.8813,783.8438 756.5844,783.8438 C756.2875,783.8438 756.0844,783.9375 755.8656,784.25 L755.6938,784.1719 Z "
        fill="#000000"/>
      <text fill="#000000" font-family="sans-serif" font-size="14" lengthAdjust="spacing"
            textLength="46" x="770.65" y="793.3467">SeatId
      </text>
      <line style="stroke:#181818;stroke-width:0.5;" x1="724.5" x2="833.5" y1="804.5" y2="804.5"/>
      <line style="stroke:#181818;stroke-width:0.5;" x1="724.5" x2="833.5" y1="812.5" y2="812.5"/>
      <ellipse cx="734.5" cy="826.1484" fill="#84BE84" rx="3" ry="3"
               style="stroke:#038048;stroke-width:1.0;"/>
      <text fill="#000000" font-family="sans-serif" font-size="14" lengthAdjust="spacing"
            textLength="85" x="743.5" y="829.4951">UUID getId()
      </text>
    </g><!--class ResetReservationService-->
    <g id="elem_ResetReservationService">
      <rect codeLine="88" fill="#F1F1F1" height="64.2969" id="ResetReservationService" rx="2.5"
            ry="2.5" style="stroke:#181818;stroke-width:0.5;" width="213" x="1993.5" y="84"/>
      <ellipse cx="2008.5" cy="100" fill="#ADD1B2" rx="11" ry="11"
               style="stroke:#181818;stroke-width:1.0;"/>
      <path
        d="M2010.8438,95.6719 C2009.9063,95.2344 2009.3125,95.0938 2008.4375,95.0938 C2005.8125,95.0938 2003.8125,97.1719 2003.8125,99.8906 L2003.8125,101.0156 C2003.8125,103.5938 2005.9219,105.4844 2008.8125,105.4844 C2010.0313,105.4844 2011.1875,105.1875 2011.9375,104.6406 C2012.5156,104.2344 2012.8438,103.7813 2012.8438,103.3906 C2012.8438,102.9375 2012.4531,102.5469 2011.9844,102.5469 C2011.7656,102.5469 2011.5625,102.625 2011.375,102.8125 C2010.9219,103.2969 2010.9219,103.2969 2010.7344,103.3906 C2010.3125,103.6563 2009.625,103.7813 2008.8594,103.7813 C2006.8125,103.7813 2005.5156,102.6875 2005.5156,100.9844 L2005.5156,99.8906 C2005.5156,98.1094 2006.7656,96.7969 2008.5,96.7969 C2009.0781,96.7969 2009.6875,96.9531 2010.1563,97.2031 C2010.6406,97.4844 2010.8125,97.7031 2010.9063,98.1094 C2010.9688,98.5156 2011,98.6406 2011.1406,98.7656 C2011.2813,98.9063 2011.5156,99.0156 2011.7344,99.0156 C2012,99.0156 2012.2656,98.875 2012.4375,98.6563 C2012.5469,98.5 2012.5781,98.3125 2012.5781,97.8906 L2012.5781,96.4688 C2012.5781,96.0313 2012.5625,95.9063 2012.4688,95.75 C2012.3125,95.4844 2012.0313,95.3438 2011.7344,95.3438 C2011.4375,95.3438 2011.2344,95.4375 2011.0156,95.75 L2010.8438,95.6719 Z "
        fill="#000000"/>
      <text fill="#000000" font-family="sans-serif" font-size="14" lengthAdjust="spacing"
            textLength="181" x="2022.5" y="104.8467">ResetReservationService
      </text>
      <line style="stroke:#181818;stroke-width:0.5;" x1="1994.5" x2="2205.5" y1="116" y2="116"/>
      <line style="stroke:#181818;stroke-width:0.5;" x1="1994.5" x2="2205.5" y1="124" y2="124"/>
      <ellipse cx="2004.5" cy="137.6484" fill="#84BE84" rx="3" ry="3"
               style="stroke:#038048;stroke-width:1.0;"/>
      <text fill="#000000" font-family="sans-serif" font-size="14" lengthAdjust="spacing"
            textLength="182" x="2013.5" y="140.9951">void serve(ReservationId)
      </text>
    </g><!--class ResetReservationComponent-->
    <g id="elem_ResetReservationComponent">
      <rect codeLine="91" fill="#F1F1F1" height="64.2969" id="ResetReservationComponent" rx="2.5"
            ry="2.5" style="stroke:#181818;stroke-width:0.5;" width="246" x="1977" y="208"/>
      <ellipse cx="1992" cy="224" fill="#ADD1B2" rx="11" ry="11"
               style="stroke:#181818;stroke-width:1.0;"/>
      <path
        d="M1994.3438,219.6719 C1993.4063,219.2344 1992.8125,219.0938 1991.9375,219.0938 C1989.3125,219.0938 1987.3125,221.1719 1987.3125,223.8906 L1987.3125,225.0156 C1987.3125,227.5938 1989.4219,229.4844 1992.3125,229.4844 C1993.5313,229.4844 1994.6875,229.1875 1995.4375,228.6406 C1996.0156,228.2344 1996.3438,227.7813 1996.3438,227.3906 C1996.3438,226.9375 1995.9531,226.5469 1995.4844,226.5469 C1995.2656,226.5469 1995.0625,226.625 1994.875,226.8125 C1994.4219,227.2969 1994.4219,227.2969 1994.2344,227.3906 C1993.8125,227.6563 1993.125,227.7813 1992.3594,227.7813 C1990.3125,227.7813 1989.0156,226.6875 1989.0156,224.9844 L1989.0156,223.8906 C1989.0156,222.1094 1990.2656,220.7969 1992,220.7969 C1992.5781,220.7969 1993.1875,220.9531 1993.6563,221.2031 C1994.1406,221.4844 1994.3125,221.7031 1994.4063,222.1094 C1994.4688,222.5156 1994.5,222.6406 1994.6406,222.7656 C1994.7813,222.9063 1995.0156,223.0156 1995.2344,223.0156 C1995.5,223.0156 1995.7656,222.875 1995.9375,222.6563 C1996.0469,222.5 1996.0781,222.3125 1996.0781,221.8906 L1996.0781,220.4688 C1996.0781,220.0313 1996.0625,219.9063 1995.9688,219.75 C1995.8125,219.4844 1995.5313,219.3438 1995.2344,219.3438 C1994.9375,219.3438 1994.7344,219.4375 1994.5156,219.75 L1994.3438,219.6719 Z "
        fill="#000000"/>
      <text fill="#000000" font-family="sans-serif" font-size="14" lengthAdjust="spacing"
            textLength="214" x="2006" y="228.8467">ResetReservationComponent
      </text>
      <line style="stroke:#181818;stroke-width:0.5;" x1="1978" x2="2222" y1="240" y2="240"/>
      <line style="stroke:#181818;stroke-width:0.5;" x1="1978" x2="2222" y1="248" y2="248"/>
      <ellipse cx="1988" cy="261.6484" fill="#84BE84" rx="3" ry="3"
               style="stroke:#038048;stroke-width:1.0;"/>
      <text fill="#000000" font-family="sans-serif" font-size="14" lengthAdjust="spacing"
            textLength="201" x="1997" y="264.9951">void execute(ReservationId)
      </text>
    </g><!--class SubmitReservationService-->
    <g id="elem_SubmitReservationService">
      <rect codeLine="94" fill="#F1F1F1" height="64.2969" id="SubmitReservationService" rx="2.5"
            ry="2.5" style="stroke:#181818;stroke-width:0.5;" width="223" x="1633.5" y="84"/>
      <ellipse cx="1648.5" cy="100" fill="#ADD1B2" rx="11" ry="11"
               style="stroke:#181818;stroke-width:1.0;"/>
      <path
        d="M1650.8438,95.6719 C1649.9063,95.2344 1649.3125,95.0938 1648.4375,95.0938 C1645.8125,95.0938 1643.8125,97.1719 1643.8125,99.8906 L1643.8125,101.0156 C1643.8125,103.5938 1645.9219,105.4844 1648.8125,105.4844 C1650.0313,105.4844 1651.1875,105.1875 1651.9375,104.6406 C1652.5156,104.2344 1652.8438,103.7813 1652.8438,103.3906 C1652.8438,102.9375 1652.4531,102.5469 1651.9844,102.5469 C1651.7656,102.5469 1651.5625,102.625 1651.375,102.8125 C1650.9219,103.2969 1650.9219,103.2969 1650.7344,103.3906 C1650.3125,103.6563 1649.625,103.7813 1648.8594,103.7813 C1646.8125,103.7813 1645.5156,102.6875 1645.5156,100.9844 L1645.5156,99.8906 C1645.5156,98.1094 1646.7656,96.7969 1648.5,96.7969 C1649.0781,96.7969 1649.6875,96.9531 1650.1563,97.2031 C1650.6406,97.4844 1650.8125,97.7031 1650.9063,98.1094 C1650.9688,98.5156 1651,98.6406 1651.1406,98.7656 C1651.2813,98.9063 1651.5156,99.0156 1651.7344,99.0156 C1652,99.0156 1652.2656,98.875 1652.4375,98.6563 C1652.5469,98.5 1652.5781,98.3125 1652.5781,97.8906 L1652.5781,96.4688 C1652.5781,96.0313 1652.5625,95.9063 1652.4688,95.75 C1652.3125,95.4844 1652.0313,95.3438 1651.7344,95.3438 C1651.4375,95.3438 1651.2344,95.4375 1651.0156,95.75 L1650.8438,95.6719 Z "
        fill="#000000"/>
      <text fill="#000000" font-family="sans-serif" font-size="14" lengthAdjust="spacing"
            textLength="191" x="1662.5" y="104.8467">SubmitReservationService
      </text>
      <line style="stroke:#181818;stroke-width:0.5;" x1="1634.5" x2="1855.5" y1="116" y2="116"/>
      <line style="stroke:#181818;stroke-width:0.5;" x1="1634.5" x2="1855.5" y1="124" y2="124"/>
      <ellipse cx="1644.5" cy="137.6484" fill="#84BE84" rx="3" ry="3"
               style="stroke:#038048;stroke-width:1.0;"/>
      <text fill="#000000" font-family="sans-serif" font-size="14" lengthAdjust="spacing"
            textLength="141" x="1653.5" y="140.9951">String serve(String)
      </text>
    </g><!--class SubmitReservationComponent-->
    <g id="elem_SubmitReservationComponent">
      <rect codeLine="97" fill="#F1F1F1" height="64.2969" id="SubmitReservationComponent" rx="2.5"
            ry="2.5" style="stroke:#181818;stroke-width:0.5;" width="256" x="1617" y="208"/>
      <ellipse cx="1632" cy="224" fill="#ADD1B2" rx="11" ry="11"
               style="stroke:#181818;stroke-width:1.0;"/>
      <path
        d="M1634.3438,219.6719 C1633.4063,219.2344 1632.8125,219.0938 1631.9375,219.0938 C1629.3125,219.0938 1627.3125,221.1719 1627.3125,223.8906 L1627.3125,225.0156 C1627.3125,227.5938 1629.4219,229.4844 1632.3125,229.4844 C1633.5313,229.4844 1634.6875,229.1875 1635.4375,228.6406 C1636.0156,228.2344 1636.3438,227.7813 1636.3438,227.3906 C1636.3438,226.9375 1635.9531,226.5469 1635.4844,226.5469 C1635.2656,226.5469 1635.0625,226.625 1634.875,226.8125 C1634.4219,227.2969 1634.4219,227.2969 1634.2344,227.3906 C1633.8125,227.6563 1633.125,227.7813 1632.3594,227.7813 C1630.3125,227.7813 1629.0156,226.6875 1629.0156,224.9844 L1629.0156,223.8906 C1629.0156,222.1094 1630.2656,220.7969 1632,220.7969 C1632.5781,220.7969 1633.1875,220.9531 1633.6563,221.2031 C1634.1406,221.4844 1634.3125,221.7031 1634.4063,222.1094 C1634.4688,222.5156 1634.5,222.6406 1634.6406,222.7656 C1634.7813,222.9063 1635.0156,223.0156 1635.2344,223.0156 C1635.5,223.0156 1635.7656,222.875 1635.9375,222.6563 C1636.0469,222.5 1636.0781,222.3125 1636.0781,221.8906 L1636.0781,220.4688 C1636.0781,220.0313 1636.0625,219.9063 1635.9688,219.75 C1635.8125,219.4844 1635.5313,219.3438 1635.2344,219.3438 C1634.9375,219.3438 1634.7344,219.4375 1634.5156,219.75 L1634.3438,219.6719 Z "
        fill="#000000"/>
      <text fill="#000000" font-family="sans-serif" font-size="14" lengthAdjust="spacing"
            textLength="224" x="1646" y="228.8467">SubmitReservationComponent
      </text>
      <line style="stroke:#181818;stroke-width:0.5;" x1="1618" x2="1872" y1="240" y2="240"/>
      <line style="stroke:#181818;stroke-width:0.5;" x1="1618" x2="1872" y1="248" y2="248"/>
      <ellipse cx="1628" cy="261.6484" fill="#84BE84" rx="3" ry="3"
               style="stroke:#038048;stroke-width:1.0;"/>
      <text fill="#000000" font-family="sans-serif" font-size="14" lengthAdjust="spacing"
            textLength="160" x="1637" y="264.9951">String execute(String)
      </text>
    </g><!--link ConfirmReservationService to ConfirmReservationComponent-->
    <g id="link_ConfirmReservationService_ConfirmReservationComponent">
      <path codeLine="100" d="M2458,148.256 C2458,166.626 2458,183.562 2458,201.906 " fill="none"
            id="ConfirmReservationService-to-ConfirmReservationComponent"
            style="stroke:#181818;stroke-width:1.0;"/>
      <polygon fill="#181818"
               points="2458,207.906,2462,198.906,2458,202.906,2454,198.906,2458,207.906"
               style="stroke:#181818;stroke-width:1.0;"/>
    </g><!--link ConfirmReservationComponent to ReservationRepository-->
    <g id="link_ConfirmReservationComponent_ReservationRepository">
      <path codeLine="101"
            d="M2326.84,240 C2285.08,240 2249.5,240 2249.5,240 C2249.5,240 2249.5,379.694 2249.5,467.338 "
            fill="none" id="ConfirmReservationComponent-to-ReservationRepository"
            style="stroke:#181818;stroke-width:1.0;"/>
      <polygon fill="#181818"
               points="2249.5,473.338,2253.5,464.338,2249.5,468.338,2245.5,464.338,2249.5,473.338"
               style="stroke:#181818;stroke-width:1.0;"/>
    </g><!--link Reservation to ReservationId-->
    <g id="link_Reservation_ReservationId">
      <path codeLine="102" d="M2431,578.766 C2431,631.84 2431,717.543 2431,766.124 " fill="none"
            id="Reservation-to-ReservationId" style="stroke:#181818;stroke-width:1.0;"/>
      <polygon fill="#181818"
               points="2431,772.124,2435,763.124,2431,767.124,2427,763.124,2431,772.124"
               style="stroke:#181818;stroke-width:1.0;"/>
    </g><!--link Reservation to ReservationStatus-->
    <g id="link_Reservation_ReservationStatus">
      <path codeLine="103" d="M2570,578.766 C2570,623.967 2570,691.185 2570,741.922 " fill="none"
            id="Reservation-to-ReservationStatus" style="stroke:#181818;stroke-width:1.0;"/>
      <polygon fill="#181818"
               points="2570,747.922,2574,738.922,2570,742.922,2566,738.922,2570,747.922"
               style="stroke:#181818;stroke-width:1.0;"/>
    </g><!--link Trip to TripId-->
    <g id="link_Trip_TripId">
      <path codeLine="104" d="M207,619.044 C207,670.651 207,728.668 207,766.4 " fill="none"
            id="Trip-to-TripId" style="stroke:#181818;stroke-width:1.0;"/>
      <polygon fill="#181818" points="207,772.4,211,763.4,207,767.4,203,763.4,207,772.4"
               style="stroke:#181818;stroke-width:1.0;"/>
    </g><!--link Trip to Station-->
    <g id="link_Trip_Station">
      <path codeLine="105"
            d="M281.667,619.117 C281.667,685.677 281.667,769 281.667,769 C281.667,769 324.517,769 369.742,769 "
            fill="none" id="Trip-to-Station" style="stroke:#181818;stroke-width:1.0;"/>
      <polygon fill="#181818" points="375.742,769,366.742,765,370.742,769,366.742,773,375.742,769"
               style="stroke:#181818;stroke-width:1.0;"/>
    </g><!--link Trip to Seat-->
    <g id="link_Trip_Seat">
      <path codeLine="106"
            d="M320.405,614 C532.953,614 970,614 970,614 C970,614 970,701.658 970,757.633 "
            fill="none" id="Trip-to-Seat" style="stroke:#181818;stroke-width:1.0;"/>
      <polygon fill="#181818" points="970,763.633,974,754.633,970,758.633,966,754.633,970,763.633"
               style="stroke:#181818;stroke-width:1.0;"/>
    </g><!--link Trip to Train-->
    <g id="link_Trip_Train">
      <path codeLine="107"
            d="M320.294,608 C676.777,608 1752,608 1752,608 C1752,608 1752,700.229 1752,757.785 "
            fill="none" id="Trip-to-Train" style="stroke:#181818;stroke-width:1.0;"/>
      <polygon fill="#181818"
               points="1752,763.785,1756,754.785,1752,758.785,1748,754.785,1752,763.785"
               style="stroke:#181818;stroke-width:1.0;"/>
    </g><!--link Trip to Wagon-->
    <g id="link_Trip_Wagon">
      <path codeLine="108"
            d="M300.833,619.037 C300.833,682.111 300.833,759 300.833,759 C300.833,759 990.73,759 1234.7,759 "
            fill="none" id="Trip-to-Wagon" style="stroke:#181818;stroke-width:1.0;"/>
      <polygon fill="#181818" points="1240.7,759,1231.7,755,1235.7,759,1231.7,763,1240.7,759"
               style="stroke:#181818;stroke-width:1.0;"/>
    </g><!--link Station to StationId-->
    <g id="link_Station_StationId">
      <path codeLine="109" d="M451,845.001 C451,872.21 451,901.576 451,926.852 " fill="none"
            id="Station-to-StationId" style="stroke:#181818;stroke-width:1.0;"/>
      <polygon fill="#181818" points="451,932.852,455,923.852,451,927.852,447,923.852,451,932.852"
               style="stroke:#181818;stroke-width:1.0;"/>
    </g><!--link Train to Train-->
    <g id="link_Train_Train">
      <path codeLine="110"
            d="M1702,763.794 C1702,761.437 1702,760 1702,760 C1702,760 1634.5,760 1634.5,760 C1634.5,760 1634.5,849 1634.5,849 C1634.5,849 1727,849 1727,849 C1727,849 1727,853.563 1727,851.206 "
            fill="none" id="Train-to-Train" style="stroke:#181818;stroke-width:1.0;"/>
      <polygon fill="#181818"
               points="1727,845.206,1723,854.206,1727,850.206,1731,854.206,1727,845.206"
               style="stroke:#181818;stroke-width:1.0;"/>
    </g><!--link Wagon to Wagon-->
    <g id="link_Wagon_Wagon">
      <path codeLine="111"
            d="M1324,755.776 C1324,753.413 1324,752 1324,752 C1324,752 1223.25,752 1223.25,752 C1223.25,752 1223.25,857 1223.25,857 C1223.25,857 1324,857 1324,857 C1324,857 1324,861.587 1324,859.224 "
            fill="none" id="Wagon-to-Wagon" style="stroke:#181818;stroke-width:1.0;"/>
      <polygon fill="#181818"
               points="1324,853.224,1320,862.224,1324,858.224,1328,862.224,1324,853.224"
               style="stroke:#181818;stroke-width:1.0;"/>
    </g><!--link Seat to Seat-->
    <g id="link_Seat_Seat">
      <path codeLine="112"
            d="M920,763.826 C920,762.664 920,762 920,762 C920,762 852.25,762 852.25,762 C852.25,762 852.25,849 852.25,849 C852.25,849 945,849 945,849 C945,849 945,853.563 945,851.206 "
            fill="none" id="Seat-to-Seat" style="stroke:#181818;stroke-width:1.0;"/>
      <polygon fill="#181818" points="945,845.206,941,854.206,945,850.206,949,854.206,945,845.206"
               style="stroke:#181818;stroke-width:1.0;"/>
    </g><!--link ResetReservationService to ResetReservationComponent-->
    <g id="link_ResetReservationService_ResetReservationComponent">
      <path codeLine="113" d="M2100,148.256 C2100,166.626 2100,183.562 2100,201.906 " fill="none"
            id="ResetReservationService-to-ResetReservationComponent"
            style="stroke:#181818;stroke-width:1.0;"/>
      <polygon fill="#181818"
               points="2100,207.906,2104,198.906,2100,202.906,2096,198.906,2100,207.906"
               style="stroke:#181818;stroke-width:1.0;"/>
    </g><!--link ResetReservationComponent to ReservationRepository-->
    <g id="link_ResetReservationComponent_ReservationRepository">
      <path codeLine="114" d="M2100,272.174 C2100,320.109 2100,405.273 2100,467.334 " fill="none"
            id="ResetReservationComponent-to-ReservationRepository"
            style="stroke:#181818;stroke-width:1.0;"/>
      <polygon fill="#181818"
               points="2100,473.334,2104,464.334,2100,468.334,2096,464.334,2100,473.334"
               style="stroke:#181818;stroke-width:1.0;"/>
    </g><!--link SubmitReservationService to SubmitReservationComponent-->
    <g id="link_SubmitReservationService_SubmitReservationComponent">
      <path codeLine="115" d="M1745,148.256 C1745,166.626 1745,183.562 1745,201.906 " fill="none"
            id="SubmitReservationService-to-SubmitReservationComponent"
            style="stroke:#181818;stroke-width:1.0;"/>
      <polygon fill="#181818"
               points="1745,207.906,1749,198.906,1745,202.906,1741,198.906,1745,207.906"
               style="stroke:#181818;stroke-width:1.0;"/>
    </g><!--link SubmitReservationComponent to ReservationRepository-->
    <g id="link_SubmitReservationComponent_ReservationRepository">
      <path codeLine="116"
            d="M1873.1,240 C1914.77,240 1950.5,240 1950.5,240 C1950.5,240 1950.5,379.694 1950.5,467.338 "
            fill="none" id="SubmitReservationComponent-to-ReservationRepository"
            style="stroke:#181818;stroke-width:1.0;"/>
      <polygon fill="#181818"
               points="1950.5,473.338,1954.5,464.338,1950.5,468.338,1946.5,464.338,1950.5,473.338"
               style="stroke:#181818;stroke-width:1.0;"/>
    </g><!--SRC=[vLXDRwCm4BtpAxpqqcfL_u8gXxQfXBHjLqchFLOEEAdLO2FRf1j5-U_h3x850eH81QFa5CSUyBmtWprlVYGSBM84Ke43AZ6FSKIGnBzH-84MM80vMWhiYGz24yHH39Q4OhbEC61SlZDFlBDF8DHpcEbPBx7FWP1HoTaI804Y3ACPN64QCPXm9eqXdANXUqeNa6E1-Gf9mYYCo0fp0L644ga7ogUt40ai8AQIIA86whrpmcCuOocD45_3tKON74TWi-tSWRpvGIVCK-jUVO3PdXThl5ogsFHCYUGa6GGlbOuCWHmXXvCyZGuDWIp94HaGLTNk38UeJxHWWwEhsgcXaIOmaiDahj8pH_H9TnUlI6SnQTZV2vT82E3VsGfXylNsgHgG4FlT5oErUuED1y3F5ICHq4luCcTovMthVRzZSSAesj7lhPI23LxaSE2_E4pb7XAYYyWvKf3ztCe49qmGoVZQxxSQglJ1eW0RD1FgGmlbzZdH1cXvapCVWJcXqUqw3p28hafFvXQ1GEN05crj-4qQ7pJBWdFGpdoKDTcKc_LTrA1vyYtb1Ih10iiWkhmgBKnLEP8AlMX7bzM8WiWv9WN1e7fz3Ux_WzbwcAPnmLMBmxcx6R7QvUdhxMFmeWPtpqyFmUHHZIRZwLZFlBtPD3DLORWTAp1ZzKQrtytUkqOQTRQQ3zEBki9yPzKzrDlRoEXHCT6cjjZLKy-SB0ZTcxx7GX9g_jgrNqJ8cynWjCjBDHPs-KLVrNhQ3BBNgIlRMAfVE_D7N-LwoWpAP7MTp0VfgadbpCKCiEzSYy1Td3Qve9K3p0bTw9ad5ECA5BrmtH97C-qceNp7gWRQ_DuKKlqmsSQq5wfRUDzCi_aY_K6e8MYFYKtXnAWbkpYNnZFCzt3r688Mo0uSC-gqz8UZhQ0vnJVvyxp58QCiU-Vy88fctlMzBllGIoK5MRDlarRI1NYjtnrgfMhj2sizQDP91HHJ8mZweB-ieEjstjsk9iTj2EoV9gyx9Bz6-SDw7me8TW7umk2g2N1zFN8luJttJOHlv-7u5e3dL0ptIq2LSZrl_5Q-UWxbQQSCj91xfuszfVmwRHAEgX3FWOf6ZNW-kT2eqBnXz7S6SqHqVbAsQRwSmmVIlZjoFb_BSPsAaxzHMhGEEk7W6E7lkMqxd9ooQjsp-7RantSTFDTTZm54_ny0]-->
  </g>
</svg>