<?xml version="1.0" encoding="us-ascii" standalone="no"?>
<svg xmlns="http://www.w3.org/2000/svg"
     contentStyleType="text/css" height="1417px" preserveAspectRatio="none"
     style="width:2114px;height:1417px;background:#FFFFFF;" version="1.1" viewBox="0 0 2114 1417"
     width="2114px" zoomAndPan="magnify">
  <defs/>
  <g><!--cluster entities-->
    <g id="cluster_entities">
      <path
          d="M8.5,6 L650.5,6 A3.75,3.75 0 0 1 653,8.5 L660,28.2969 L2104.5,28.2969 A2.5,2.5 0 0 1 2107,30.7969 L2107,1407.5 A2.5,2.5 0 0 1 2104.5,1410 L8.5,1410 A2.5,2.5 0 0 1 6,1407.5 L6,8.5 A2.5,2.5 0 0 1 8.5,6 "
          fill="none" style="stroke:#000000;stroke-width:1.5;"/>
      <line style="stroke:#000000;stroke-width:1.5;" x1="6" x2="660" y1="28.2969" y2="28.2969"/>
      <text fill="#000000" font-family="sans-serif" font-size="14" font-weight="bold"
            lengthAdjust="spacing" textLength="641" x="10" y="20.9951">
        de.db.vendo.prototype.buchung.reservation.divers.adapters.use_cases.entities
      </text>
    </g><!--cluster boundary-->
    <g id="cluster_boundary">
      <path
          d="M910.5,73.5 L1055.5,73.5 A3.75,3.75 0 0 1 1058,76 L1065,95.7969 L1247.5,95.7969 A2.5,2.5 0 0 1 1250,98.2969 L1250,383 A2.5,2.5 0 0 1 1247.5,385.5 L910.5,385.5 A2.5,2.5 0 0 1 908,383 L908,76 A2.5,2.5 0 0 1 910.5,73.5 "
          fill="none" style="stroke:#000000;stroke-width:1.5;"/>
      <line style="stroke:#000000;stroke-width:1.5;" x1="908" x2="1065" y1="95.7969" y2="95.7969"/>
      <text fill="#000000" font-family="sans-serif" font-size="14" font-weight="bold"
            lengthAdjust="spacing" textLength="144" x="912" y="88.4951">confirm.boundary
      </text>
    </g><!--cluster control-->
    <g id="cluster_control">
      <path
          d="M934.5,246.5 L994.5,246.5 A3.75,3.75 0 0 1 997,249 L1004,268.7969 L1223.5,268.7969 A2.5,2.5 0 0 1 1226,271.2969 L1226,359 A2.5,2.5 0 0 1 1223.5,361.5 L934.5,361.5 A2.5,2.5 0 0 1 932,359 L932,249 A2.5,2.5 0 0 1 934.5,246.5 "
          fill="none" style="stroke:#000000;stroke-width:1.5;"/>
      <line style="stroke:#000000;stroke-width:1.5;" x1="932" x2="1004" y1="268.7969"
            y2="268.7969"/>
      <text fill="#000000" font-family="sans-serif" font-size="14" font-weight="bold"
            lengthAdjust="spacing" textLength="59" x="936" y="261.4951">control
      </text>
    </g><!--cluster reservation-->
    <g id="cluster_reservation">
      <path
          d="M32.5,434 L126.5,434 A3.75,3.75 0 0 1 129,436.5 L136,456.2969 L2080.5,456.2969 A2.5,2.5 0 0 1 2083,458.7969 L2083,1383.5 A2.5,2.5 0 0 1 2080.5,1386 L32.5,1386 A2.5,2.5 0 0 1 30,1383.5 L30,436.5 A2.5,2.5 0 0 1 32.5,434 "
          fill="none" style="stroke:#000000;stroke-width:1.5;"/>
      <line style="stroke:#000000;stroke-width:1.5;" x1="30" x2="136" y1="456.2969" y2="456.2969"/>
      <text fill="#000000" font-family="sans-serif" font-size="14" font-weight="bold"
            lengthAdjust="spacing" textLength="93" x="34" y="448.9951">reservation
      </text>
    </g><!--cluster control-->
    <g id="cluster_control">
      <path
          d="M56.5,477 L197.5,477 A3.75,3.75 0 0 1 200,479.5 L207,499.2969 L588.5,499.2969 A2.5,2.5 0 0 1 591,501.7969 L591,904.5 A2.5,2.5 0 0 1 588.5,907 L56.5,907 A2.5,2.5 0 0 1 54,904.5 L54,479.5 A2.5,2.5 0 0 1 56.5,477 "
          fill="none" style="stroke:#000000;stroke-width:1.5;"/>
      <line style="stroke:#000000;stroke-width:1.5;" x1="54" x2="207" y1="499.2969" y2="499.2969"/>
      <text fill="#000000" font-family="sans-serif" font-size="14" font-weight="bold"
            lengthAdjust="spacing" textLength="140" x="58" y="491.9951">boundary.control
      </text>
    </g><!--cluster entity-->
    <g id="cluster_entity">
      <path
          d="M359.5,520 L409.5,520 A3.75,3.75 0 0 1 412,522.5 L419,542.2969 L564.5,542.2969 A2.5,2.5 0 0 1 567,544.7969 L567,880.5 A2.5,2.5 0 0 1 564.5,883 L359.5,883 A2.5,2.5 0 0 1 357,880.5 L357,522.5 A2.5,2.5 0 0 1 359.5,520 "
          fill="none" style="stroke:#000000;stroke-width:1.5;"/>
      <line style="stroke:#000000;stroke-width:1.5;" x1="357" x2="419" y1="542.2969" y2="542.2969"/>
      <text fill="#000000" font-family="sans-serif" font-size="14" font-weight="bold"
            lengthAdjust="spacing" textLength="49" x="361" y="534.9951">entity
      </text>
    </g><!--cluster trip-->
    <g id="cluster_trip">
      <path
          d="M617.5,676 L648.5,676 A3.75,3.75 0 0 1 651,678.5 L658,698.2969 L2056.5,698.2969 A2.5,2.5 0 0 1 2059,700.7969 L2059,1359.5 A2.5,2.5 0 0 1 2056.5,1362 L617.5,1362 A2.5,2.5 0 0 1 615,1359.5 L615,678.5 A2.5,2.5 0 0 1 617.5,676 "
          fill="none" style="stroke:#000000;stroke-width:1.5;"/>
      <line style="stroke:#000000;stroke-width:1.5;" x1="615" x2="658" y1="698.2969" y2="698.2969"/>
      <text fill="#000000" font-family="sans-serif" font-size="14" font-weight="bold"
            lengthAdjust="spacing" textLength="30" x="619" y="690.9951">trip
      </text>
    </g><!--cluster entity-->
    <g id="cluster_entity">
      <path
          d="M641.5,719 L836.5,719 A3.75,3.75 0 0 1 839,721.5 L846,741.2969 L894.5,741.2969 A2.5,2.5 0 0 1 897,743.7969 L897,1147 A2.5,2.5 0 0 1 894.5,1149.5 L641.5,1149.5 A2.5,2.5 0 0 1 639,1147 L639,721.5 A2.5,2.5 0 0 1 641.5,719 "
          fill="none" style="stroke:#000000;stroke-width:1.5;"/>
      <line style="stroke:#000000;stroke-width:1.5;" x1="639" x2="846" y1="741.2969" y2="741.2969"/>
      <text fill="#000000" font-family="sans-serif" font-size="14" font-weight="bold"
            lengthAdjust="spacing" textLength="194" x="643" y="733.9951">boundary.control.entity
      </text>
    </g><!--cluster entity-->
    <g id="cluster_entity">
      <path
          d="M923.5,1026 L1183.5,1026 A3.75,3.75 0 0 1 1186,1028.5 L1193,1048.2969 L1193.5,1048.2969 A2.5,2.5 0 0 1 1196,1050.7969 L1196,1287.5 A2.5,2.5 0 0 1 1193.5,1290 L923.5,1290 A2.5,2.5 0 0 1 921,1287.5 L921,1028.5 A2.5,2.5 0 0 1 923.5,1026 "
          fill="none" style="stroke:#000000;stroke-width:1.5;"/>
      <line style="stroke:#000000;stroke-width:1.5;" x1="921" x2="1193" y1="1048.2969"
            y2="1048.2969"/>
      <text fill="#000000" font-family="sans-serif" font-size="14" font-weight="bold"
            lengthAdjust="spacing" textLength="259" x="925" y="1040.9951">
        station.boundary.control.entity
      </text>
    </g><!--cluster train-->
    <g id="cluster_train">
      <path
          d="M1222.5,932 L1263.5,932 A3.75,3.75 0 0 1 1266,934.5 L1273,954.2969 L2032.5,954.2969 A2.5,2.5 0 0 1 2035,956.7969 L2035,1335.5 A2.5,2.5 0 0 1 2032.5,1338 L1222.5,1338 A2.5,2.5 0 0 1 1220,1335.5 L1220,934.5 A2.5,2.5 0 0 1 1222.5,932 "
          fill="none" style="stroke:#000000;stroke-width:1.5;"/>
      <line style="stroke:#000000;stroke-width:1.5;" x1="1220" x2="1273" y1="954.2969"
            y2="954.2969"/>
      <text fill="#000000" font-family="sans-serif" font-size="14" font-weight="bold"
            lengthAdjust="spacing" textLength="40" x="1224" y="946.9951">train
      </text>
    </g><!--cluster entity-->
    <g id="cluster_entity">
      <path
          d="M1803.5,1026 L1998.5,1026 A3.75,3.75 0 0 1 2001,1028.5 L2008,1048.2969 L2008.5,1048.2969 A2.5,2.5 0 0 1 2011,1050.7969 L2011,1287.5 A2.5,2.5 0 0 1 2008.5,1290 L1803.5,1290 A2.5,2.5 0 0 1 1801,1287.5 L1801,1028.5 A2.5,2.5 0 0 1 1803.5,1026 "
          fill="none" style="stroke:#000000;stroke-width:1.5;"/>
      <line style="stroke:#000000;stroke-width:1.5;" x1="1801" x2="2008" y1="1048.2969"
            y2="1048.2969"/>
      <text fill="#000000" font-family="sans-serif" font-size="14" font-weight="bold"
            lengthAdjust="spacing" textLength="194" x="1805" y="1040.9951">boundary.control.entity
      </text>
    </g><!--cluster wagon-->
    <g id="cluster_wagon">
      <path
          d="M1246.5,975 L1300.5,975 A3.75,3.75 0 0 1 1303,977.5 L1310,997.2969 L1774.5,997.2969 A2.5,2.5 0 0 1 1777,999.7969 L1777,1311.5 A2.5,2.5 0 0 1 1774.5,1314 L1246.5,1314 A2.5,2.5 0 0 1 1244,1311.5 L1244,977.5 A2.5,2.5 0 0 1 1246.5,975 "
          fill="none" style="stroke:#000000;stroke-width:1.5;"/>
      <line style="stroke:#000000;stroke-width:1.5;" x1="1244" x2="1310" y1="997.2969"
            y2="997.2969"/>
      <text fill="#000000" font-family="sans-serif" font-size="14" font-weight="bold"
            lengthAdjust="spacing" textLength="53" x="1248" y="989.9951">wagon
      </text>
    </g><!--cluster entity-->
    <g id="cluster_entity">
      <path
          d="M1545.5,1018 L1740.5,1018 A3.75,3.75 0 0 1 1743,1020.5 L1750,1040.2969 L1750.5,1040.2969 A2.5,2.5 0 0 1 1753,1042.7969 L1753,1287.5 A2.5,2.5 0 0 1 1750.5,1290 L1545.5,1290 A2.5,2.5 0 0 1 1543,1287.5 L1543,1020.5 A2.5,2.5 0 0 1 1545.5,1018 "
          fill="none" style="stroke:#000000;stroke-width:1.5;"/>
      <line style="stroke:#000000;stroke-width:1.5;" x1="1543" x2="1750" y1="1040.2969"
            y2="1040.2969"/>
      <text fill="#000000" font-family="sans-serif" font-size="14" font-weight="bold"
            lengthAdjust="spacing" textLength="194" x="1547" y="1032.9951">boundary.control.entity
      </text>
    </g><!--cluster entity-->
    <g id="cluster_entity">
      <path
          d="M1270.5,1026 L1506.5,1026 A3.75,3.75 0 0 1 1509,1028.5 L1516,1048.2969 L1516.5,1048.2969 A2.5,2.5 0 0 1 1519,1050.7969 L1519,1287.5 A2.5,2.5 0 0 1 1516.5,1290 L1270.5,1290 A2.5,2.5 0 0 1 1268,1287.5 L1268,1028.5 A2.5,2.5 0 0 1 1270.5,1026 "
          fill="none" style="stroke:#000000;stroke-width:1.5;"/>
      <line style="stroke:#000000;stroke-width:1.5;" x1="1268" x2="1516" y1="1048.2969"
            y2="1048.2969"/>
      <text fill="#000000" font-family="sans-serif" font-size="14" font-weight="bold"
            lengthAdjust="spacing" textLength="235" x="1272" y="1040.9951">
        seat.boundary.control.entity
      </text>
    </g><!--cluster boundary-->
    <g id="cluster_boundary">
      <path
          d="M560.5,73.5 L684.5,73.5 A3.75,3.75 0 0 1 687,76 L694,95.7969 L881.5,95.7969 A2.5,2.5 0 0 1 884,98.2969 L884,383 A2.5,2.5 0 0 1 881.5,385.5 L560.5,385.5 A2.5,2.5 0 0 1 558,383 L558,76 A2.5,2.5 0 0 1 560.5,73.5 "
          fill="none" style="stroke:#000000;stroke-width:1.5;"/>
      <line style="stroke:#000000;stroke-width:1.5;" x1="558" x2="694" y1="95.7969" y2="95.7969"/>
      <text fill="#000000" font-family="sans-serif" font-size="14" font-weight="bold"
            lengthAdjust="spacing" textLength="123" x="562" y="88.4951">reset.boundary
      </text>
    </g><!--cluster control-->
    <g id="cluster_control">
      <path
          d="M584.5,246.5 L644.5,246.5 A3.75,3.75 0 0 1 647,249 L654,268.7969 L857.5,268.7969 A2.5,2.5 0 0 1 860,271.2969 L860,359 A2.5,2.5 0 0 1 857.5,361.5 L584.5,361.5 A2.5,2.5 0 0 1 582,359 L582,249 A2.5,2.5 0 0 1 584.5,246.5 "
          fill="none" style="stroke:#000000;stroke-width:1.5;"/>
      <line style="stroke:#000000;stroke-width:1.5;" x1="582" x2="654" y1="268.7969" y2="268.7969"/>
      <text fill="#000000" font-family="sans-serif" font-size="14" font-weight="bold"
            lengthAdjust="spacing" textLength="59" x="586" y="261.4951">control
      </text>
    </g><!--cluster boundary-->
    <g id="cluster_boundary">
      <path
          d="M32.5,49 L171.5,49 A3.75,3.75 0 0 1 174,51.5 L181,71.2969 L531.5,71.2969 A2.5,2.5 0 0 1 534,73.7969 L534,407.5 A2.5,2.5 0 0 1 531.5,410 L32.5,410 A2.5,2.5 0 0 1 30,407.5 L30,51.5 A2.5,2.5 0 0 1 32.5,49 "
          fill="none" style="stroke:#000000;stroke-width:1.5;"/>
      <line style="stroke:#000000;stroke-width:1.5;" x1="30" x2="181" y1="71.2969" y2="71.2969"/>
      <text fill="#000000" font-family="sans-serif" font-size="14" font-weight="bold"
            lengthAdjust="spacing" textLength="138" x="34" y="63.9951">submit.boundary
      </text>
    </g><!--cluster control-->
    <g id="cluster_control">
      <path
          d="M56.5,222 L116.5,222 A3.75,3.75 0 0 1 119,224.5 L126,244.2969 L507.5,244.2969 A2.5,2.5 0 0 1 510,246.7969 L510,383.5 A2.5,2.5 0 0 1 507.5,386 L56.5,386 A2.5,2.5 0 0 1 54,383.5 L54,224.5 A2.5,2.5 0 0 1 56.5,222 "
          fill="none" style="stroke:#000000;stroke-width:1.5;"/>
      <line style="stroke:#000000;stroke-width:1.5;" x1="54" x2="126" y1="244.2969" y2="244.2969"/>
      <text fill="#000000" font-family="sans-serif" font-size="14" font-weight="bold"
            lengthAdjust="spacing" textLength="59" x="58" y="236.9951">control
      </text>
    </g><!--class ConfirmReservationService-->
    <g id="elem_ConfirmReservationService">
      <rect codeLine="5" fill="#F1F1F1" height="64.2969" id="ConfirmReservationService" rx="2.5"
            ry="2.5" style="stroke:#181818;stroke-width:0.5;" width="229" x="964.5" y="108.5"/>
      <ellipse cx="979.5" cy="124.5" fill="#ADD1B2" rx="11" ry="11"
               style="stroke:#181818;stroke-width:1.0;"/>
      <path
          d="M981.8438,120.1719 C980.9063,119.7344 980.3125,119.5938 979.4375,119.5938 C976.8125,119.5938 974.8125,121.6719 974.8125,124.3906 L974.8125,125.5156 C974.8125,128.0938 976.9219,129.9844 979.8125,129.9844 C981.0313,129.9844 982.1875,129.6875 982.9375,129.1406 C983.5156,128.7344 983.8438,128.2813 983.8438,127.8906 C983.8438,127.4375 983.4531,127.0469 982.9844,127.0469 C982.7656,127.0469 982.5625,127.125 982.375,127.3125 C981.9219,127.7969 981.9219,127.7969 981.7344,127.8906 C981.3125,128.1563 980.625,128.2813 979.8594,128.2813 C977.8125,128.2813 976.5156,127.1875 976.5156,125.4844 L976.5156,124.3906 C976.5156,122.6094 977.7656,121.2969 979.5,121.2969 C980.0781,121.2969 980.6875,121.4531 981.1563,121.7031 C981.6406,121.9844 981.8125,122.2031 981.9063,122.6094 C981.9688,123.0156 982,123.1406 982.1406,123.2656 C982.2813,123.4063 982.5156,123.5156 982.7344,123.5156 C983,123.5156 983.2656,123.375 983.4375,123.1563 C983.5469,123 983.5781,122.8125 983.5781,122.3906 L983.5781,120.9688 C983.5781,120.5313 983.5625,120.4063 983.4688,120.25 C983.3125,119.9844 983.0313,119.8438 982.7344,119.8438 C982.4375,119.8438 982.2344,119.9375 982.0156,120.25 L981.8438,120.1719 Z "
          fill="#000000"/>
      <text fill="#000000" font-family="sans-serif" font-size="14" lengthAdjust="spacing"
            textLength="197" x="993.5" y="129.3467">ConfirmReservationService
      </text>
      <line style="stroke:#181818;stroke-width:0.5;" x1="965.5" x2="1192.5" y1="140.5" y2="140.5"/>
      <line style="stroke:#181818;stroke-width:0.5;" x1="965.5" x2="1192.5" y1="148.5" y2="148.5"/>
      <ellipse cx="975.5" cy="162.1484" fill="#84BE84" rx="3" ry="3"
               style="stroke:#038048;stroke-width:1.0;"/>
      <text fill="#000000" font-family="sans-serif" font-size="14" lengthAdjust="spacing"
            textLength="182" x="984.5" y="165.4951">void serve(ReservationId)
      </text>
    </g><!--class ConfirmReservationComponent-->
    <g id="elem_ConfirmReservationComponent">
      <rect codeLine="8" fill="#F1F1F1" height="64.2969" id="ConfirmReservationComponent" rx="2.5"
            ry="2.5" style="stroke:#181818;stroke-width:0.5;" width="262" x="948" y="281.5"/>
      <ellipse cx="963" cy="297.5" fill="#ADD1B2" rx="11" ry="11"
               style="stroke:#181818;stroke-width:1.0;"/>
      <path
          d="M965.3438,293.1719 C964.4063,292.7344 963.8125,292.5938 962.9375,292.5938 C960.3125,292.5938 958.3125,294.6719 958.3125,297.3906 L958.3125,298.5156 C958.3125,301.0938 960.4219,302.9844 963.3125,302.9844 C964.5313,302.9844 965.6875,302.6875 966.4375,302.1406 C967.0156,301.7344 967.3438,301.2813 967.3438,300.8906 C967.3438,300.4375 966.9531,300.0469 966.4844,300.0469 C966.2656,300.0469 966.0625,300.125 965.875,300.3125 C965.4219,300.7969 965.4219,300.7969 965.2344,300.8906 C964.8125,301.1563 964.125,301.2813 963.3594,301.2813 C961.3125,301.2813 960.0156,300.1875 960.0156,298.4844 L960.0156,297.3906 C960.0156,295.6094 961.2656,294.2969 963,294.2969 C963.5781,294.2969 964.1875,294.4531 964.6563,294.7031 C965.1406,294.9844 965.3125,295.2031 965.4063,295.6094 C965.4688,296.0156 965.5,296.1406 965.6406,296.2656 C965.7813,296.4063 966.0156,296.5156 966.2344,296.5156 C966.5,296.5156 966.7656,296.375 966.9375,296.1563 C967.0469,296 967.0781,295.8125 967.0781,295.3906 L967.0781,293.9688 C967.0781,293.5313 967.0625,293.4063 966.9688,293.25 C966.8125,292.9844 966.5313,292.8438 966.2344,292.8438 C965.9375,292.8438 965.7344,292.9375 965.5156,293.25 L965.3438,293.1719 Z "
          fill="#000000"/>
      <text fill="#000000" font-family="sans-serif" font-size="14" lengthAdjust="spacing"
            textLength="230" x="977" y="302.3467">ConfirmReservationComponent
      </text>
      <line style="stroke:#181818;stroke-width:0.5;" x1="949" x2="1209" y1="313.5" y2="313.5"/>
      <line style="stroke:#181818;stroke-width:0.5;" x1="949" x2="1209" y1="321.5" y2="321.5"/>
      <ellipse cx="959" cy="335.1484" fill="#84BE84" rx="3" ry="3"
               style="stroke:#038048;stroke-width:1.0;"/>
      <text fill="#000000" font-family="sans-serif" font-size="14" lengthAdjust="spacing"
            textLength="201" x="968" y="338.4951">void execute(ReservationId)
      </text>
    </g><!--class ReservationRepository-->
    <g id="elem_ReservationRepository">
      <rect codeLine="11" fill="#F1F1F1" height="129.4844" id="ReservationRepository" rx="2.5"
            ry="2.5" style="stroke:#181818;stroke-width:0.5;" width="268" x="70" y="531"/>
      <ellipse cx="119.25" cy="547" fill="#B4A7E5" rx="11" ry="11"
               style="stroke:#181818;stroke-width:1.0;"/>
      <path
          d="M120.2031,543.7813 L121.9219,543.7813 C122.3125,543.7813 122.5,543.75 122.625,543.6719 C122.8906,543.5156 123.0313,543.2344 123.0313,542.9375 C123.0313,542.6719 122.9219,542.4063 122.6875,542.2344 C122.5156,542.125 122.375,542.0938 121.9219,542.0938 L116.7813,542.0938 C116.3438,542.0938 116.2188,542.1094 116.0625,542.2031 C115.8125,542.3594 115.6563,542.6563 115.6563,542.9375 C115.6563,543.2188 115.7969,543.4688 116.0156,543.6406 C116.1719,543.75 116.3594,543.7813 116.7813,543.7813 L118.5,543.7813 L118.5,550.2969 L116.7813,550.2969 C116.3438,550.2969 116.2188,550.3125 116.0625,550.4219 C115.8125,550.5781 115.6563,550.8594 115.6563,551.1563 C115.6563,551.4063 115.7969,551.6719 116.0156,551.8281 C116.1719,551.9531 116.375,552 116.7813,552 L121.9219,552 C122.6719,552 123.0313,551.7188 123.0313,551.1563 C123.0313,550.875 122.9219,550.625 122.6875,550.4531 C122.5156,550.3281 122.375,550.2969 121.9219,550.2969 L120.2031,550.2969 L120.2031,543.7813 Z "
          fill="#000000"/>
      <text fill="#000000" font-family="sans-serif" font-size="14" font-style="italic"
            lengthAdjust="spacing" textLength="161" x="139.75" y="551.8467">ReservationRepository
      </text>
      <line style="stroke:#181818;stroke-width:0.5;" x1="71" x2="337" y1="563" y2="563"/>
      <line style="stroke:#181818;stroke-width:0.5;" x1="71" x2="337" y1="571" y2="571"/>
      <ellipse cx="81" cy="584.6484" fill="#84BE84" rx="3" ry="3"
               style="stroke:#038048;stroke-width:1.0;"/>
      <text fill="#000000" font-family="sans-serif" font-size="14" font-style="italic"
            lengthAdjust="spacing" textLength="242" x="90" y="587.9951">Reservation
        findBy(ReservationId)
      </text>
      <ellipse cx="81" cy="600.9453" fill="#84BE84" rx="3" ry="3"
               style="stroke:#038048;stroke-width:1.0;"/>
      <text fill="#000000" font-family="sans-serif" font-size="14" font-style="italic"
            lengthAdjust="spacing" textLength="162" x="90" y="604.292">void save(Reservation)
      </text>
      <ellipse cx="81" cy="617.2422" fill="#84BE84" rx="3" ry="3"
               style="stroke:#038048;stroke-width:1.0;"/>
      <text fill="#000000" font-family="sans-serif" font-size="14" font-style="italic"
            lengthAdjust="spacing" textLength="190" x="90" y="620.5889">void submit(ReservationId)
      </text>
      <ellipse cx="81" cy="633.5391" fill="#84BE84" rx="3" ry="3"
               style="stroke:#038048;stroke-width:1.0;"/>
      <text fill="#000000" font-family="sans-serif" font-size="14" font-style="italic"
            lengthAdjust="spacing" textLength="197" x="90" y="636.8857">void confirm(ReservationId)
      </text>
      <ellipse cx="81" cy="649.8359" fill="#84BE84" rx="3" ry="3"
               style="stroke:#038048;stroke-width:1.0;"/>
      <text fill="#000000" font-family="sans-serif" font-size="14" font-style="italic"
            lengthAdjust="spacing" textLength="178" x="90" y="653.1826">void reset(ReservationId)
      </text>
    </g><!--class Reservation-->
    <g id="elem_Reservation">
      <rect codeLine="18" fill="#F1F1F1" height="80.5938" id="Reservation" rx="2.5" ry="2.5"
            style="stroke:#181818;stroke-width:0.5;" width="177" x="373.5" y="555"/>
      <ellipse cx="415.05" cy="571" fill="#ADD1B2" rx="11" ry="11"
               style="stroke:#181818;stroke-width:1.0;"/>
      <path
          d="M417.3938,566.6719 C416.4563,566.2344 415.8625,566.0938 414.9875,566.0938 C412.3625,566.0938 410.3625,568.1719 410.3625,570.8906 L410.3625,572.0156 C410.3625,574.5938 412.4719,576.4844 415.3625,576.4844 C416.5813,576.4844 417.7375,576.1875 418.4875,575.6406 C419.0656,575.2344 419.3938,574.7813 419.3938,574.3906 C419.3938,573.9375 419.0031,573.5469 418.5344,573.5469 C418.3156,573.5469 418.1125,573.625 417.925,573.8125 C417.4719,574.2969 417.4719,574.2969 417.2844,574.3906 C416.8625,574.6563 416.175,574.7813 415.4094,574.7813 C413.3625,574.7813 412.0656,573.6875 412.0656,571.9844 L412.0656,570.8906 C412.0656,569.1094 413.3156,567.7969 415.05,567.7969 C415.6281,567.7969 416.2375,567.9531 416.7063,568.2031 C417.1906,568.4844 417.3625,568.7031 417.4563,569.1094 C417.5188,569.5156 417.55,569.6406 417.6906,569.7656 C417.8313,569.9063 418.0656,570.0156 418.2844,570.0156 C418.55,570.0156 418.8156,569.875 418.9875,569.6563 C419.0969,569.5 419.1281,569.3125 419.1281,568.8906 L419.1281,567.4688 C419.1281,567.0313 419.1125,566.9063 419.0188,566.75 C418.8625,566.4844 418.5813,566.3438 418.2844,566.3438 C417.9875,566.3438 417.7844,566.4375 417.5656,566.75 L417.3938,566.6719 Z "
          fill="#000000"/>
      <text fill="#000000" font-family="sans-serif" font-size="14" lengthAdjust="spacing"
            textLength="86" x="434.95" y="575.8467">Reservation
      </text>
      <line style="stroke:#181818;stroke-width:0.5;" x1="374.5" x2="549.5" y1="587" y2="587"/>
      <line style="stroke:#181818;stroke-width:0.5;" x1="374.5" x2="549.5" y1="595" y2="595"/>
      <ellipse cx="384.5" cy="608.6484" fill="#84BE84" rx="3" ry="3"
               style="stroke:#038048;stroke-width:1.0;"/>
      <text fill="#000000" font-family="sans-serif" font-size="14" lengthAdjust="spacing"
            textLength="151" x="393.5" y="611.9951">ReservationId getId()
      </text>
      <ellipse cx="384.5" cy="624.9453" fill="#84BE84" rx="3" ry="3"
               style="stroke:#038048;stroke-width:1.0;"/>
      <text fill="#000000" font-family="sans-serif" font-size="14" lengthAdjust="spacing"
            textLength="97" x="393.5" y="628.292">Trip getTrip()
      </text>
    </g><!--class ReservationId-->
    <g id="elem_ReservationId">
      <rect codeLine="22" fill="#F1F1F1" height="64.2969" id="ReservationId" rx="2.5" ry="2.5"
            style="stroke:#181818;stroke-width:0.5;" width="131" x="396.5" y="803"/>
      <ellipse cx="411.5" cy="819" fill="#ADD1B2" rx="11" ry="11"
               style="stroke:#181818;stroke-width:1.0;"/>
      <path
          d="M413.8438,814.6719 C412.9063,814.2344 412.3125,814.0938 411.4375,814.0938 C408.8125,814.0938 406.8125,816.1719 406.8125,818.8906 L406.8125,820.0156 C406.8125,822.5938 408.9219,824.4844 411.8125,824.4844 C413.0313,824.4844 414.1875,824.1875 414.9375,823.6406 C415.5156,823.2344 415.8438,822.7813 415.8438,822.3906 C415.8438,821.9375 415.4531,821.5469 414.9844,821.5469 C414.7656,821.5469 414.5625,821.625 414.375,821.8125 C413.9219,822.2969 413.9219,822.2969 413.7344,822.3906 C413.3125,822.6563 412.625,822.7813 411.8594,822.7813 C409.8125,822.7813 408.5156,821.6875 408.5156,819.9844 L408.5156,818.8906 C408.5156,817.1094 409.7656,815.7969 411.5,815.7969 C412.0781,815.7969 412.6875,815.9531 413.1563,816.2031 C413.6406,816.4844 413.8125,816.7031 413.9063,817.1094 C413.9688,817.5156 414,817.6406 414.1406,817.7656 C414.2813,817.9063 414.5156,818.0156 414.7344,818.0156 C415,818.0156 415.2656,817.875 415.4375,817.6563 C415.5469,817.5 415.5781,817.3125 415.5781,816.8906 L415.5781,815.4688 C415.5781,815.0313 415.5625,814.9063 415.4688,814.75 C415.3125,814.4844 415.0313,814.3438 414.7344,814.3438 C414.4375,814.3438 414.2344,814.4375 414.0156,814.75 L413.8438,814.6719 Z "
          fill="#000000"/>
      <text fill="#000000" font-family="sans-serif" font-size="14" lengthAdjust="spacing"
            textLength="99" x="425.5" y="823.8467">ReservationId
      </text>
      <line style="stroke:#181818;stroke-width:0.5;" x1="397.5" x2="526.5" y1="835" y2="835"/>
      <line style="stroke:#181818;stroke-width:0.5;" x1="397.5" x2="526.5" y1="843" y2="843"/>
      <ellipse cx="407.5" cy="856.6484" fill="#84BE84" rx="3" ry="3"
               style="stroke:#038048;stroke-width:1.0;"/>
      <text fill="#000000" font-family="sans-serif" font-size="14" lengthAdjust="spacing"
            textLength="85" x="416.5" y="859.9951">UUID getId()
      </text>
    </g><!--class Trip-->
    <g id="elem_Trip">
      <rect codeLine="25" fill="#F1F1F1" height="162.0781" id="Trip" rx="2.5" ry="2.5"
            style="stroke:#181818;stroke-width:0.5;" width="226" x="655" y="754"/>
      <ellipse cx="749.25" cy="770" fill="#ADD1B2" rx="11" ry="11"
               style="stroke:#181818;stroke-width:1.0;"/>
      <path
          d="M751.5938,765.6719 C750.6563,765.2344 750.0625,765.0938 749.1875,765.0938 C746.5625,765.0938 744.5625,767.1719 744.5625,769.8906 L744.5625,771.0156 C744.5625,773.5938 746.6719,775.4844 749.5625,775.4844 C750.7813,775.4844 751.9375,775.1875 752.6875,774.6406 C753.2656,774.2344 753.5938,773.7813 753.5938,773.3906 C753.5938,772.9375 753.2031,772.5469 752.7344,772.5469 C752.5156,772.5469 752.3125,772.625 752.125,772.8125 C751.6719,773.2969 751.6719,773.2969 751.4844,773.3906 C751.0625,773.6563 750.375,773.7813 749.6094,773.7813 C747.5625,773.7813 746.2656,772.6875 746.2656,770.9844 L746.2656,769.8906 C746.2656,768.1094 747.5156,766.7969 749.25,766.7969 C749.8281,766.7969 750.4375,766.9531 750.9063,767.2031 C751.3906,767.4844 751.5625,767.7031 751.6563,768.1094 C751.7188,768.5156 751.75,768.6406 751.8906,768.7656 C752.0313,768.9063 752.2656,769.0156 752.4844,769.0156 C752.75,769.0156 753.0156,768.875 753.1875,768.6563 C753.2969,768.5 753.3281,768.3125 753.3281,767.8906 L753.3281,766.4688 C753.3281,766.0313 753.3125,765.9063 753.2188,765.75 C753.0625,765.4844 752.7813,765.3438 752.4844,765.3438 C752.1875,765.3438 751.9844,765.4375 751.7656,765.75 L751.5938,765.6719 Z "
          fill="#000000"/>
      <text fill="#000000" font-family="sans-serif" font-size="14" lengthAdjust="spacing"
            textLength="29" x="769.75" y="774.8467">Trip
      </text>
      <line style="stroke:#181818;stroke-width:0.5;" x1="656" x2="880" y1="786" y2="786"/>
      <line style="stroke:#181818;stroke-width:0.5;" x1="656" x2="880" y1="794" y2="794"/>
      <ellipse cx="666" cy="807.6484" fill="#84BE84" rx="3" ry="3"
               style="stroke:#038048;stroke-width:1.0;"/>
      <text fill="#000000" font-family="sans-serif" font-size="14" lengthAdjust="spacing"
            textLength="94" x="675" y="810.9951">TripId getId()
      </text>
      <ellipse cx="666" cy="823.9453" fill="#84BE84" rx="3" ry="3"
               style="stroke:#038048;stroke-width:1.0;"/>
      <text fill="#000000" font-family="sans-serif" font-size="14" lengthAdjust="spacing"
            textLength="135" x="675" y="827.292">Station getOrigin()
      </text>
      <ellipse cx="666" cy="840.2422" fill="#84BE84" rx="3" ry="3"
               style="stroke:#038048;stroke-width:1.0;"/>
      <text fill="#000000" font-family="sans-serif" font-size="14" lengthAdjust="spacing"
            textLength="176" x="675" y="843.5889">Station getDestination()
      </text>
      <ellipse cx="666" cy="856.5391" fill="#84BE84" rx="3" ry="3"
               style="stroke:#038048;stroke-width:1.0;"/>
      <text fill="#000000" font-family="sans-serif" font-size="14" lengthAdjust="spacing"
            textLength="200" x="675" y="859.8857">List&lt;Station&gt; getStations()
      </text>
      <ellipse cx="666" cy="872.8359" fill="#84BE84" rx="3" ry="3"
               style="stroke:#038048;stroke-width:1.0;"/>
      <text fill="#000000" font-family="sans-serif" font-size="14" lengthAdjust="spacing"
            textLength="111" x="675" y="876.1826">Train getTrain()
      </text>
      <ellipse cx="666" cy="889.1328" fill="#84BE84" rx="3" ry="3"
               style="stroke:#038048;stroke-width:1.0;"/>
      <text fill="#000000" font-family="sans-serif" font-size="14" lengthAdjust="spacing"
            textLength="105" x="675" y="892.4795">Seat getSeat()
      </text>
      <ellipse cx="666" cy="905.4297" fill="#84BE84" rx="3" ry="3"
               style="stroke:#038048;stroke-width:1.0;"/>
      <text fill="#000000" font-family="sans-serif" font-size="14" lengthAdjust="spacing"
            textLength="137" x="675" y="908.7764">Wagon getWagon()
      </text>
    </g><!--class TripId-->
    <g id="elem_TripId">
      <rect codeLine="34" fill="#F1F1F1" height="64.2969" id="TripId" rx="2.5" ry="2.5"
            style="stroke:#181818;stroke-width:0.5;" width="111" x="712.5" y="1069.5"/>
      <ellipse cx="744.15" cy="1085.5" fill="#ADD1B2" rx="11" ry="11"
               style="stroke:#181818;stroke-width:1.0;"/>
      <path
          d="M746.4938,1081.1719 C745.5563,1080.7344 744.9625,1080.5938 744.0875,1080.5938 C741.4625,1080.5938 739.4625,1082.6719 739.4625,1085.3906 L739.4625,1086.5156 C739.4625,1089.0938 741.5719,1090.9844 744.4625,1090.9844 C745.6813,1090.9844 746.8375,1090.6875 747.5875,1090.1406 C748.1656,1089.7344 748.4938,1089.2813 748.4938,1088.8906 C748.4938,1088.4375 748.1031,1088.0469 747.6344,1088.0469 C747.4156,1088.0469 747.2125,1088.125 747.025,1088.3125 C746.5719,1088.7969 746.5719,1088.7969 746.3844,1088.8906 C745.9625,1089.1563 745.275,1089.2813 744.5094,1089.2813 C742.4625,1089.2813 741.1656,1088.1875 741.1656,1086.4844 L741.1656,1085.3906 C741.1656,1083.6094 742.4156,1082.2969 744.15,1082.2969 C744.7281,1082.2969 745.3375,1082.4531 745.8063,1082.7031 C746.2906,1082.9844 746.4625,1083.2031 746.5563,1083.6094 C746.6188,1084.0156 746.65,1084.1406 746.7906,1084.2656 C746.9313,1084.4063 747.1656,1084.5156 747.3844,1084.5156 C747.65,1084.5156 747.9156,1084.375 748.0875,1084.1563 C748.1969,1084 748.2281,1083.8125 748.2281,1083.3906 L748.2281,1081.9688 C748.2281,1081.5313 748.2125,1081.4063 748.1188,1081.25 C747.9625,1080.9844 747.6813,1080.8438 747.3844,1080.8438 C747.0875,1080.8438 746.8844,1080.9375 746.6656,1081.25 L746.4938,1081.1719 Z "
          fill="#000000"/>
      <text fill="#000000" font-family="sans-serif" font-size="14" lengthAdjust="spacing"
            textLength="42" x="761.85" y="1090.3467">TripId
      </text>
      <line style="stroke:#181818;stroke-width:0.5;" x1="713.5" x2="822.5" y1="1101.5" y2="1101.5"/>
      <line style="stroke:#181818;stroke-width:0.5;" x1="713.5" x2="822.5" y1="1109.5" y2="1109.5"/>
      <ellipse cx="723.5" cy="1123.1484" fill="#84BE84" rx="3" ry="3"
               style="stroke:#038048;stroke-width:1.0;"/>
      <text fill="#000000" font-family="sans-serif" font-size="14" lengthAdjust="spacing"
            textLength="85" x="732.5" y="1126.4951">UUID getId()
      </text>
    </g><!--class Station-->
    <g id="elem_Station">
      <rect codeLine="37" fill="#F1F1F1" height="80.5938" id="Station" rx="2.5" ry="2.5"
            style="stroke:#181818;stroke-width:0.5;" width="150" x="937" y="1061"/>
      <ellipse cx="981.25" cy="1077" fill="#ADD1B2" rx="11" ry="11"
               style="stroke:#181818;stroke-width:1.0;"/>
      <path
          d="M983.5938,1072.6719 C982.6563,1072.2344 982.0625,1072.0938 981.1875,1072.0938 C978.5625,1072.0938 976.5625,1074.1719 976.5625,1076.8906 L976.5625,1078.0156 C976.5625,1080.5938 978.6719,1082.4844 981.5625,1082.4844 C982.7813,1082.4844 983.9375,1082.1875 984.6875,1081.6406 C985.2656,1081.2344 985.5938,1080.7813 985.5938,1080.3906 C985.5938,1079.9375 985.2031,1079.5469 984.7344,1079.5469 C984.5156,1079.5469 984.3125,1079.625 984.125,1079.8125 C983.6719,1080.2969 983.6719,1080.2969 983.4844,1080.3906 C983.0625,1080.6563 982.375,1080.7813 981.6094,1080.7813 C979.5625,1080.7813 978.2656,1079.6875 978.2656,1077.9844 L978.2656,1076.8906 C978.2656,1075.1094 979.5156,1073.7969 981.25,1073.7969 C981.8281,1073.7969 982.4375,1073.9531 982.9063,1074.2031 C983.3906,1074.4844 983.5625,1074.7031 983.6563,1075.1094 C983.7188,1075.5156 983.75,1075.6406 983.8906,1075.7656 C984.0313,1075.9063 984.2656,1076.0156 984.4844,1076.0156 C984.75,1076.0156 985.0156,1075.875 985.1875,1075.6563 C985.2969,1075.5 985.3281,1075.3125 985.3281,1074.8906 L985.3281,1073.4688 C985.3281,1073.0313 985.3125,1072.9063 985.2188,1072.75 C985.0625,1072.4844 984.7813,1072.3438 984.4844,1072.3438 C984.1875,1072.3438 983.9844,1072.4375 983.7656,1072.75 L983.5938,1072.6719 Z "
          fill="#000000"/>
      <text fill="#000000" font-family="sans-serif" font-size="14" lengthAdjust="spacing"
            textLength="53" x="1001.75" y="1081.8467">Station
      </text>
      <line style="stroke:#181818;stroke-width:0.5;" x1="938" x2="1086" y1="1093" y2="1093"/>
      <line style="stroke:#181818;stroke-width:0.5;" x1="938" x2="1086" y1="1101" y2="1101"/>
      <ellipse cx="948" cy="1114.6484" fill="#84BE84" rx="3" ry="3"
               style="stroke:#038048;stroke-width:1.0;"/>
      <text fill="#000000" font-family="sans-serif" font-size="14" lengthAdjust="spacing"
            textLength="118" x="957" y="1117.9951">StationId getId()
      </text>
      <ellipse cx="948" cy="1130.9453" fill="#84BE84" rx="3" ry="3"
               style="stroke:#038048;stroke-width:1.0;"/>
      <text fill="#000000" font-family="sans-serif" font-size="14" lengthAdjust="spacing"
            textLength="124" x="957" y="1134.292">String getName()
      </text>
    </g><!--class StationId-->
    <g id="elem_StationId">
      <rect codeLine="41" fill="#F1F1F1" height="64.2969" id="StationId" rx="2.5" ry="2.5"
            style="stroke:#181818;stroke-width:0.5;" width="111" x="956.5" y="1210"/>
      <ellipse cx="977.35" cy="1226" fill="#ADD1B2" rx="11" ry="11"
               style="stroke:#181818;stroke-width:1.0;"/>
      <path
          d="M979.6938,1221.6719 C978.7563,1221.2344 978.1625,1221.0938 977.2875,1221.0938 C974.6625,1221.0938 972.6625,1223.1719 972.6625,1225.8906 L972.6625,1227.0156 C972.6625,1229.5938 974.7719,1231.4844 977.6625,1231.4844 C978.8813,1231.4844 980.0375,1231.1875 980.7875,1230.6406 C981.3656,1230.2344 981.6938,1229.7813 981.6938,1229.3906 C981.6938,1228.9375 981.3031,1228.5469 980.8344,1228.5469 C980.6156,1228.5469 980.4125,1228.625 980.225,1228.8125 C979.7719,1229.2969 979.7719,1229.2969 979.5844,1229.3906 C979.1625,1229.6563 978.475,1229.7813 977.7094,1229.7813 C975.6625,1229.7813 974.3656,1228.6875 974.3656,1226.9844 L974.3656,1225.8906 C974.3656,1224.1094 975.6156,1222.7969 977.35,1222.7969 C977.9281,1222.7969 978.5375,1222.9531 979.0063,1223.2031 C979.4906,1223.4844 979.6625,1223.7031 979.7563,1224.1094 C979.8188,1224.5156 979.85,1224.6406 979.9906,1224.7656 C980.1313,1224.9063 980.3656,1225.0156 980.5844,1225.0156 C980.85,1225.0156 981.1156,1224.875 981.2875,1224.6563 C981.3969,1224.5 981.4281,1224.3125 981.4281,1223.8906 L981.4281,1222.4688 C981.4281,1222.0313 981.4125,1221.9063 981.3188,1221.75 C981.1625,1221.4844 980.8813,1221.3438 980.5844,1221.3438 C980.2875,1221.3438 980.0844,1221.4375 979.8656,1221.75 L979.6938,1221.6719 Z "
          fill="#000000"/>
      <text fill="#000000" font-family="sans-serif" font-size="14" lengthAdjust="spacing"
            textLength="66" x="992.65" y="1230.8467">StationId
      </text>
      <line style="stroke:#181818;stroke-width:0.5;" x1="957.5" x2="1066.5" y1="1242" y2="1242"/>
      <line style="stroke:#181818;stroke-width:0.5;" x1="957.5" x2="1066.5" y1="1250" y2="1250"/>
      <ellipse cx="967.5" cy="1263.6484" fill="#84BE84" rx="3" ry="3"
               style="stroke:#038048;stroke-width:1.0;"/>
      <text fill="#000000" font-family="sans-serif" font-size="14" lengthAdjust="spacing"
            textLength="85" x="976.5" y="1266.9951">UUID getId()
      </text>
    </g><!--class Train-->
    <g id="elem_Train">
      <rect codeLine="44" fill="#F1F1F1" height="80.5938" id="Train" rx="2.5" ry="2.5"
            style="stroke:#181818;stroke-width:0.5;" width="150" x="1817" y="1061"/>
      <ellipse cx="1869.75" cy="1077" fill="#ADD1B2" rx="11" ry="11"
               style="stroke:#181818;stroke-width:1.0;"/>
      <path
          d="M1872.0938,1072.6719 C1871.1563,1072.2344 1870.5625,1072.0938 1869.6875,1072.0938 C1867.0625,1072.0938 1865.0625,1074.1719 1865.0625,1076.8906 L1865.0625,1078.0156 C1865.0625,1080.5938 1867.1719,1082.4844 1870.0625,1082.4844 C1871.2813,1082.4844 1872.4375,1082.1875 1873.1875,1081.6406 C1873.7656,1081.2344 1874.0938,1080.7813 1874.0938,1080.3906 C1874.0938,1079.9375 1873.7031,1079.5469 1873.2344,1079.5469 C1873.0156,1079.5469 1872.8125,1079.625 1872.625,1079.8125 C1872.1719,1080.2969 1872.1719,1080.2969 1871.9844,1080.3906 C1871.5625,1080.6563 1870.875,1080.7813 1870.1094,1080.7813 C1868.0625,1080.7813 1866.7656,1079.6875 1866.7656,1077.9844 L1866.7656,1076.8906 C1866.7656,1075.1094 1868.0156,1073.7969 1869.75,1073.7969 C1870.3281,1073.7969 1870.9375,1073.9531 1871.4063,1074.2031 C1871.8906,1074.4844 1872.0625,1074.7031 1872.1563,1075.1094 C1872.2188,1075.5156 1872.25,1075.6406 1872.3906,1075.7656 C1872.5313,1075.9063 1872.7656,1076.0156 1872.9844,1076.0156 C1873.25,1076.0156 1873.5156,1075.875 1873.6875,1075.6563 C1873.7969,1075.5 1873.8281,1075.3125 1873.8281,1074.8906 L1873.8281,1073.4688 C1873.8281,1073.0313 1873.8125,1072.9063 1873.7188,1072.75 C1873.5625,1072.4844 1873.2813,1072.3438 1872.9844,1072.3438 C1872.6875,1072.3438 1872.4844,1072.4375 1872.2656,1072.75 L1872.0938,1072.6719 Z "
          fill="#000000"/>
      <text fill="#000000" font-family="sans-serif" font-size="14" lengthAdjust="spacing"
            textLength="36" x="1890.25" y="1081.8467">Train
      </text>
      <line style="stroke:#181818;stroke-width:0.5;" x1="1818" x2="1966" y1="1093" y2="1093"/>
      <line style="stroke:#181818;stroke-width:0.5;" x1="1818" x2="1966" y1="1101" y2="1101"/>
      <ellipse cx="1828" cy="1114.6484" fill="#84BE84" rx="3" ry="3"
               style="stroke:#038048;stroke-width:1.0;"/>
      <text fill="#000000" font-family="sans-serif" font-size="14" lengthAdjust="spacing"
            textLength="101" x="1837" y="1117.9951">TrainId getId()
      </text>
      <ellipse cx="1828" cy="1130.9453" fill="#84BE84" rx="3" ry="3"
               style="stroke:#038048;stroke-width:1.0;"/>
      <text fill="#000000" font-family="sans-serif" font-size="14" lengthAdjust="spacing"
            textLength="124" x="1837" y="1134.292">String getName()
      </text>
    </g><!--class TrainId-->
    <g id="elem_TrainId">
      <rect codeLine="48" fill="#F1F1F1" height="64.2969" id="TrainId" rx="2.5" ry="2.5"
            style="stroke:#181818;stroke-width:0.5;" width="111" x="1836.5" y="1210"/>
      <ellipse cx="1865" cy="1226" fill="#ADD1B2" rx="11" ry="11"
               style="stroke:#181818;stroke-width:1.0;"/>
      <path
          d="M1867.3438,1221.6719 C1866.4063,1221.2344 1865.8125,1221.0938 1864.9375,1221.0938 C1862.3125,1221.0938 1860.3125,1223.1719 1860.3125,1225.8906 L1860.3125,1227.0156 C1860.3125,1229.5938 1862.4219,1231.4844 1865.3125,1231.4844 C1866.5313,1231.4844 1867.6875,1231.1875 1868.4375,1230.6406 C1869.0156,1230.2344 1869.3438,1229.7813 1869.3438,1229.3906 C1869.3438,1228.9375 1868.9531,1228.5469 1868.4844,1228.5469 C1868.2656,1228.5469 1868.0625,1228.625 1867.875,1228.8125 C1867.4219,1229.2969 1867.4219,1229.2969 1867.2344,1229.3906 C1866.8125,1229.6563 1866.125,1229.7813 1865.3594,1229.7813 C1863.3125,1229.7813 1862.0156,1228.6875 1862.0156,1226.9844 L1862.0156,1225.8906 C1862.0156,1224.1094 1863.2656,1222.7969 1865,1222.7969 C1865.5781,1222.7969 1866.1875,1222.9531 1866.6563,1223.2031 C1867.1406,1223.4844 1867.3125,1223.7031 1867.4063,1224.1094 C1867.4688,1224.5156 1867.5,1224.6406 1867.6406,1224.7656 C1867.7813,1224.9063 1868.0156,1225.0156 1868.2344,1225.0156 C1868.5,1225.0156 1868.7656,1224.875 1868.9375,1224.6563 C1869.0469,1224.5 1869.0781,1224.3125 1869.0781,1223.8906 L1869.0781,1222.4688 C1869.0781,1222.0313 1869.0625,1221.9063 1868.9688,1221.75 C1868.8125,1221.4844 1868.5313,1221.3438 1868.2344,1221.3438 C1867.9375,1221.3438 1867.7344,1221.4375 1867.5156,1221.75 L1867.3438,1221.6719 Z "
          fill="#000000"/>
      <text fill="#000000" font-family="sans-serif" font-size="14" lengthAdjust="spacing"
            textLength="49" x="1882" y="1230.8467">TrainId
      </text>
      <line style="stroke:#181818;stroke-width:0.5;" x1="1837.5" x2="1946.5" y1="1242" y2="1242"/>
      <line style="stroke:#181818;stroke-width:0.5;" x1="1837.5" x2="1946.5" y1="1250" y2="1250"/>
      <ellipse cx="1847.5" cy="1263.6484" fill="#84BE84" rx="3" ry="3"
               style="stroke:#038048;stroke-width:1.0;"/>
      <text fill="#000000" font-family="sans-serif" font-size="14" lengthAdjust="spacing"
            textLength="85" x="1856.5" y="1266.9951">UUID getId()
      </text>
    </g><!--class Wagon-->
    <g id="elem_Wagon">
      <rect codeLine="51" fill="#F1F1F1" height="96.8906" id="Wagon" rx="2.5" ry="2.5"
            style="stroke:#181818;stroke-width:0.5;" width="166" x="1559" y="1053"/>
      <ellipse cx="1613.25" cy="1069" fill="#ADD1B2" rx="11" ry="11"
               style="stroke:#181818;stroke-width:1.0;"/>
      <path
          d="M1615.5938,1064.6719 C1614.6563,1064.2344 1614.0625,1064.0938 1613.1875,1064.0938 C1610.5625,1064.0938 1608.5625,1066.1719 1608.5625,1068.8906 L1608.5625,1070.0156 C1608.5625,1072.5938 1610.6719,1074.4844 1613.5625,1074.4844 C1614.7813,1074.4844 1615.9375,1074.1875 1616.6875,1073.6406 C1617.2656,1073.2344 1617.5938,1072.7813 1617.5938,1072.3906 C1617.5938,1071.9375 1617.2031,1071.5469 1616.7344,1071.5469 C1616.5156,1071.5469 1616.3125,1071.625 1616.125,1071.8125 C1615.6719,1072.2969 1615.6719,1072.2969 1615.4844,1072.3906 C1615.0625,1072.6563 1614.375,1072.7813 1613.6094,1072.7813 C1611.5625,1072.7813 1610.2656,1071.6875 1610.2656,1069.9844 L1610.2656,1068.8906 C1610.2656,1067.1094 1611.5156,1065.7969 1613.25,1065.7969 C1613.8281,1065.7969 1614.4375,1065.9531 1614.9063,1066.2031 C1615.3906,1066.4844 1615.5625,1066.7031 1615.6563,1067.1094 C1615.7188,1067.5156 1615.75,1067.6406 1615.8906,1067.7656 C1616.0313,1067.9063 1616.2656,1068.0156 1616.4844,1068.0156 C1616.75,1068.0156 1617.0156,1067.875 1617.1875,1067.6563 C1617.2969,1067.5 1617.3281,1067.3125 1617.3281,1066.8906 L1617.3281,1065.4688 C1617.3281,1065.0313 1617.3125,1064.9063 1617.2188,1064.75 C1617.0625,1064.4844 1616.7813,1064.3438 1616.4844,1064.3438 C1616.1875,1064.3438 1615.9844,1064.4375 1615.7656,1064.75 L1615.5938,1064.6719 Z "
          fill="#000000"/>
      <text fill="#000000" font-family="sans-serif" font-size="14" lengthAdjust="spacing"
            textLength="49" x="1633.75" y="1073.8467">Wagon
      </text>
      <line style="stroke:#181818;stroke-width:0.5;" x1="1560" x2="1724" y1="1085" y2="1085"/>
      <line style="stroke:#181818;stroke-width:0.5;" x1="1560" x2="1724" y1="1093" y2="1093"/>
      <ellipse cx="1570" cy="1106.6484" fill="#84BE84" rx="3" ry="3"
               style="stroke:#038048;stroke-width:1.0;"/>
      <text fill="#000000" font-family="sans-serif" font-size="14" lengthAdjust="spacing"
            textLength="114" x="1579" y="1109.9951">WagonId getId()
      </text>
      <ellipse cx="1570" cy="1122.9453" fill="#84BE84" rx="3" ry="3"
               style="stroke:#038048;stroke-width:1.0;"/>
      <text fill="#000000" font-family="sans-serif" font-size="14" lengthAdjust="spacing"
            textLength="124" x="1579" y="1126.292">String getName()
      </text>
      <ellipse cx="1570" cy="1139.2422" fill="#84BE84" rx="3" ry="3"
               style="stroke:#038048;stroke-width:1.0;"/>
      <text fill="#000000" font-family="sans-serif" font-size="14" lengthAdjust="spacing"
            textLength="140" x="1579" y="1142.5889">String getNumber()
      </text>
    </g><!--class WagonId-->
    <g id="elem_WagonId">
      <rect codeLine="56" fill="#F1F1F1" height="64.2969" id="WagonId" rx="2.5" ry="2.5"
            style="stroke:#181818;stroke-width:0.5;" width="111" x="1586.5" y="1210"/>
      <ellipse cx="1609.15" cy="1226" fill="#ADD1B2" rx="11" ry="11"
               style="stroke:#181818;stroke-width:1.0;"/>
      <path
          d="M1611.4938,1221.6719 C1610.5563,1221.2344 1609.9625,1221.0938 1609.0875,1221.0938 C1606.4625,1221.0938 1604.4625,1223.1719 1604.4625,1225.8906 L1604.4625,1227.0156 C1604.4625,1229.5938 1606.5719,1231.4844 1609.4625,1231.4844 C1610.6813,1231.4844 1611.8375,1231.1875 1612.5875,1230.6406 C1613.1656,1230.2344 1613.4938,1229.7813 1613.4938,1229.3906 C1613.4938,1228.9375 1613.1031,1228.5469 1612.6344,1228.5469 C1612.4156,1228.5469 1612.2125,1228.625 1612.025,1228.8125 C1611.5719,1229.2969 1611.5719,1229.2969 1611.3844,1229.3906 C1610.9625,1229.6563 1610.275,1229.7813 1609.5094,1229.7813 C1607.4625,1229.7813 1606.1656,1228.6875 1606.1656,1226.9844 L1606.1656,1225.8906 C1606.1656,1224.1094 1607.4156,1222.7969 1609.15,1222.7969 C1609.7281,1222.7969 1610.3375,1222.9531 1610.8063,1223.2031 C1611.2906,1223.4844 1611.4625,1223.7031 1611.5563,1224.1094 C1611.6188,1224.5156 1611.65,1224.6406 1611.7906,1224.7656 C1611.9313,1224.9063 1612.1656,1225.0156 1612.3844,1225.0156 C1612.65,1225.0156 1612.9156,1224.875 1613.0875,1224.6563 C1613.1969,1224.5 1613.2281,1224.3125 1613.2281,1223.8906 L1613.2281,1222.4688 C1613.2281,1222.0313 1613.2125,1221.9063 1613.1188,1221.75 C1612.9625,1221.4844 1612.6813,1221.3438 1612.3844,1221.3438 C1612.0875,1221.3438 1611.8844,1221.4375 1611.6656,1221.75 L1611.4938,1221.6719 Z "
          fill="#000000"/>
      <text fill="#000000" font-family="sans-serif" font-size="14" lengthAdjust="spacing"
            textLength="62" x="1624.85" y="1230.8467">WagonId
      </text>
      <line style="stroke:#181818;stroke-width:0.5;" x1="1587.5" x2="1696.5" y1="1242" y2="1242"/>
      <line style="stroke:#181818;stroke-width:0.5;" x1="1587.5" x2="1696.5" y1="1250" y2="1250"/>
      <ellipse cx="1597.5" cy="1263.6484" fill="#84BE84" rx="3" ry="3"
               style="stroke:#038048;stroke-width:1.0;"/>
      <text fill="#000000" font-family="sans-serif" font-size="14" lengthAdjust="spacing"
            textLength="85" x="1606.5" y="1266.9951">UUID getId()
      </text>
    </g><!--class Seat-->
    <g id="elem_Seat">
      <rect codeLine="59" fill="#F1F1F1" height="80.5938" id="Seat" rx="2.5" ry="2.5"
            style="stroke:#181818;stroke-width:0.5;" width="150" x="1284" y="1061"/>
      <ellipse cx="1338.25" cy="1077" fill="#ADD1B2" rx="11" ry="11"
               style="stroke:#181818;stroke-width:1.0;"/>
      <path
          d="M1340.5938,1072.6719 C1339.6563,1072.2344 1339.0625,1072.0938 1338.1875,1072.0938 C1335.5625,1072.0938 1333.5625,1074.1719 1333.5625,1076.8906 L1333.5625,1078.0156 C1333.5625,1080.5938 1335.6719,1082.4844 1338.5625,1082.4844 C1339.7813,1082.4844 1340.9375,1082.1875 1341.6875,1081.6406 C1342.2656,1081.2344 1342.5938,1080.7813 1342.5938,1080.3906 C1342.5938,1079.9375 1342.2031,1079.5469 1341.7344,1079.5469 C1341.5156,1079.5469 1341.3125,1079.625 1341.125,1079.8125 C1340.6719,1080.2969 1340.6719,1080.2969 1340.4844,1080.3906 C1340.0625,1080.6563 1339.375,1080.7813 1338.6094,1080.7813 C1336.5625,1080.7813 1335.2656,1079.6875 1335.2656,1077.9844 L1335.2656,1076.8906 C1335.2656,1075.1094 1336.5156,1073.7969 1338.25,1073.7969 C1338.8281,1073.7969 1339.4375,1073.9531 1339.9063,1074.2031 C1340.3906,1074.4844 1340.5625,1074.7031 1340.6563,1075.1094 C1340.7188,1075.5156 1340.75,1075.6406 1340.8906,1075.7656 C1341.0313,1075.9063 1341.2656,1076.0156 1341.4844,1076.0156 C1341.75,1076.0156 1342.0156,1075.875 1342.1875,1075.6563 C1342.2969,1075.5 1342.3281,1075.3125 1342.3281,1074.8906 L1342.3281,1073.4688 C1342.3281,1073.0313 1342.3125,1072.9063 1342.2188,1072.75 C1342.0625,1072.4844 1341.7813,1072.3438 1341.4844,1072.3438 C1341.1875,1072.3438 1340.9844,1072.4375 1340.7656,1072.75 L1340.5938,1072.6719 Z "
          fill="#000000"/>
      <text fill="#000000" font-family="sans-serif" font-size="14" lengthAdjust="spacing"
            textLength="33" x="1358.75" y="1081.8467">Seat
      </text>
      <line style="stroke:#181818;stroke-width:0.5;" x1="1285" x2="1433" y1="1093" y2="1093"/>
      <line style="stroke:#181818;stroke-width:0.5;" x1="1285" x2="1433" y1="1101" y2="1101"/>
      <ellipse cx="1295" cy="1114.6484" fill="#84BE84" rx="3" ry="3"
               style="stroke:#038048;stroke-width:1.0;"/>
      <text fill="#000000" font-family="sans-serif" font-size="14" lengthAdjust="spacing"
            textLength="98" x="1304" y="1117.9951">SeatId getId()
      </text>
      <ellipse cx="1295" cy="1130.9453" fill="#84BE84" rx="3" ry="3"
               style="stroke:#038048;stroke-width:1.0;"/>
      <text fill="#000000" font-family="sans-serif" font-size="14" lengthAdjust="spacing"
            textLength="124" x="1304" y="1134.292">String getName()
      </text>
    </g><!--class SeatId-->
    <g id="elem_SeatId">
      <rect codeLine="63" fill="#F1F1F1" height="64.2969" id="SeatId" rx="2.5" ry="2.5"
            style="stroke:#181818;stroke-width:0.5;" width="111" x="1303.5" y="1210"/>
      <ellipse cx="1333.35" cy="1226" fill="#ADD1B2" rx="11" ry="11"
               style="stroke:#181818;stroke-width:1.0;"/>
      <path
          d="M1335.6938,1221.6719 C1334.7563,1221.2344 1334.1625,1221.0938 1333.2875,1221.0938 C1330.6625,1221.0938 1328.6625,1223.1719 1328.6625,1225.8906 L1328.6625,1227.0156 C1328.6625,1229.5938 1330.7719,1231.4844 1333.6625,1231.4844 C1334.8813,1231.4844 1336.0375,1231.1875 1336.7875,1230.6406 C1337.3656,1230.2344 1337.6938,1229.7813 1337.6938,1229.3906 C1337.6938,1228.9375 1337.3031,1228.5469 1336.8344,1228.5469 C1336.6156,1228.5469 1336.4125,1228.625 1336.225,1228.8125 C1335.7719,1229.2969 1335.7719,1229.2969 1335.5844,1229.3906 C1335.1625,1229.6563 1334.475,1229.7813 1333.7094,1229.7813 C1331.6625,1229.7813 1330.3656,1228.6875 1330.3656,1226.9844 L1330.3656,1225.8906 C1330.3656,1224.1094 1331.6156,1222.7969 1333.35,1222.7969 C1333.9281,1222.7969 1334.5375,1222.9531 1335.0063,1223.2031 C1335.4906,1223.4844 1335.6625,1223.7031 1335.7563,1224.1094 C1335.8188,1224.5156 1335.85,1224.6406 1335.9906,1224.7656 C1336.1313,1224.9063 1336.3656,1225.0156 1336.5844,1225.0156 C1336.85,1225.0156 1337.1156,1224.875 1337.2875,1224.6563 C1337.3969,1224.5 1337.4281,1224.3125 1337.4281,1223.8906 L1337.4281,1222.4688 C1337.4281,1222.0313 1337.4125,1221.9063 1337.3188,1221.75 C1337.1625,1221.4844 1336.8813,1221.3438 1336.5844,1221.3438 C1336.2875,1221.3438 1336.0844,1221.4375 1335.8656,1221.75 L1335.6938,1221.6719 Z "
          fill="#000000"/>
      <text fill="#000000" font-family="sans-serif" font-size="14" lengthAdjust="spacing"
            textLength="46" x="1350.65" y="1230.8467">SeatId
      </text>
      <line style="stroke:#181818;stroke-width:0.5;" x1="1304.5" x2="1413.5" y1="1242" y2="1242"/>
      <line style="stroke:#181818;stroke-width:0.5;" x1="1304.5" x2="1413.5" y1="1250" y2="1250"/>
      <ellipse cx="1314.5" cy="1263.6484" fill="#84BE84" rx="3" ry="3"
               style="stroke:#038048;stroke-width:1.0;"/>
      <text fill="#000000" font-family="sans-serif" font-size="14" lengthAdjust="spacing"
            textLength="85" x="1323.5" y="1266.9951">UUID getId()
      </text>
    </g><!--class ResetReservationService-->
    <g id="elem_ResetReservationService">
      <rect codeLine="66" fill="#F1F1F1" height="64.2969" id="ResetReservationService" rx="2.5"
            ry="2.5" style="stroke:#181818;stroke-width:0.5;" width="213" x="614.5" y="108.5"/>
      <ellipse cx="629.5" cy="124.5" fill="#ADD1B2" rx="11" ry="11"
               style="stroke:#181818;stroke-width:1.0;"/>
      <path
          d="M631.8438,120.1719 C630.9063,119.7344 630.3125,119.5938 629.4375,119.5938 C626.8125,119.5938 624.8125,121.6719 624.8125,124.3906 L624.8125,125.5156 C624.8125,128.0938 626.9219,129.9844 629.8125,129.9844 C631.0313,129.9844 632.1875,129.6875 632.9375,129.1406 C633.5156,128.7344 633.8438,128.2813 633.8438,127.8906 C633.8438,127.4375 633.4531,127.0469 632.9844,127.0469 C632.7656,127.0469 632.5625,127.125 632.375,127.3125 C631.9219,127.7969 631.9219,127.7969 631.7344,127.8906 C631.3125,128.1563 630.625,128.2813 629.8594,128.2813 C627.8125,128.2813 626.5156,127.1875 626.5156,125.4844 L626.5156,124.3906 C626.5156,122.6094 627.7656,121.2969 629.5,121.2969 C630.0781,121.2969 630.6875,121.4531 631.1563,121.7031 C631.6406,121.9844 631.8125,122.2031 631.9063,122.6094 C631.9688,123.0156 632,123.1406 632.1406,123.2656 C632.2813,123.4063 632.5156,123.5156 632.7344,123.5156 C633,123.5156 633.2656,123.375 633.4375,123.1563 C633.5469,123 633.5781,122.8125 633.5781,122.3906 L633.5781,120.9688 C633.5781,120.5313 633.5625,120.4063 633.4688,120.25 C633.3125,119.9844 633.0313,119.8438 632.7344,119.8438 C632.4375,119.8438 632.2344,119.9375 632.0156,120.25 L631.8438,120.1719 Z "
          fill="#000000"/>
      <text fill="#000000" font-family="sans-serif" font-size="14" lengthAdjust="spacing"
            textLength="181" x="643.5" y="129.3467">ResetReservationService
      </text>
      <line style="stroke:#181818;stroke-width:0.5;" x1="615.5" x2="826.5" y1="140.5" y2="140.5"/>
      <line style="stroke:#181818;stroke-width:0.5;" x1="615.5" x2="826.5" y1="148.5" y2="148.5"/>
      <ellipse cx="625.5" cy="162.1484" fill="#84BE84" rx="3" ry="3"
               style="stroke:#038048;stroke-width:1.0;"/>
      <text fill="#000000" font-family="sans-serif" font-size="14" lengthAdjust="spacing"
            textLength="182" x="634.5" y="165.4951">void serve(ReservationId)
      </text>
    </g><!--class ResetReservationComponent-->
    <g id="elem_ResetReservationComponent">
      <rect codeLine="69" fill="#F1F1F1" height="64.2969" id="ResetReservationComponent" rx="2.5"
            ry="2.5" style="stroke:#181818;stroke-width:0.5;" width="246" x="598" y="281.5"/>
      <ellipse cx="613" cy="297.5" fill="#ADD1B2" rx="11" ry="11"
               style="stroke:#181818;stroke-width:1.0;"/>
      <path
          d="M615.3438,293.1719 C614.4063,292.7344 613.8125,292.5938 612.9375,292.5938 C610.3125,292.5938 608.3125,294.6719 608.3125,297.3906 L608.3125,298.5156 C608.3125,301.0938 610.4219,302.9844 613.3125,302.9844 C614.5313,302.9844 615.6875,302.6875 616.4375,302.1406 C617.0156,301.7344 617.3438,301.2813 617.3438,300.8906 C617.3438,300.4375 616.9531,300.0469 616.4844,300.0469 C616.2656,300.0469 616.0625,300.125 615.875,300.3125 C615.4219,300.7969 615.4219,300.7969 615.2344,300.8906 C614.8125,301.1563 614.125,301.2813 613.3594,301.2813 C611.3125,301.2813 610.0156,300.1875 610.0156,298.4844 L610.0156,297.3906 C610.0156,295.6094 611.2656,294.2969 613,294.2969 C613.5781,294.2969 614.1875,294.4531 614.6563,294.7031 C615.1406,294.9844 615.3125,295.2031 615.4063,295.6094 C615.4688,296.0156 615.5,296.1406 615.6406,296.2656 C615.7813,296.4063 616.0156,296.5156 616.2344,296.5156 C616.5,296.5156 616.7656,296.375 616.9375,296.1563 C617.0469,296 617.0781,295.8125 617.0781,295.3906 L617.0781,293.9688 C617.0781,293.5313 617.0625,293.4063 616.9688,293.25 C616.8125,292.9844 616.5313,292.8438 616.2344,292.8438 C615.9375,292.8438 615.7344,292.9375 615.5156,293.25 L615.3438,293.1719 Z "
          fill="#000000"/>
      <text fill="#000000" font-family="sans-serif" font-size="14" lengthAdjust="spacing"
            textLength="214" x="627" y="302.3467">ResetReservationComponent
      </text>
      <line style="stroke:#181818;stroke-width:0.5;" x1="599" x2="843" y1="313.5" y2="313.5"/>
      <line style="stroke:#181818;stroke-width:0.5;" x1="599" x2="843" y1="321.5" y2="321.5"/>
      <ellipse cx="609" cy="335.1484" fill="#84BE84" rx="3" ry="3"
               style="stroke:#038048;stroke-width:1.0;"/>
      <text fill="#000000" font-family="sans-serif" font-size="14" lengthAdjust="spacing"
            textLength="201" x="618" y="338.4951">void execute(ReservationId)
      </text>
    </g><!--class SubmitReservationService-->
    <g id="elem_SubmitReservationService">
      <rect codeLine="72" fill="#F1F1F1" height="113.1875" id="SubmitReservationService" rx="2.5"
            ry="2.5" style="stroke:#181818;stroke-width:0.5;" width="455" x="54.5" y="84"/>
      <ellipse cx="182.25" cy="100" fill="#ADD1B2" rx="11" ry="11"
               style="stroke:#181818;stroke-width:1.0;"/>
      <path
          d="M184.5938,95.6719 C183.6563,95.2344 183.0625,95.0938 182.1875,95.0938 C179.5625,95.0938 177.5625,97.1719 177.5625,99.8906 L177.5625,101.0156 C177.5625,103.5938 179.6719,105.4844 182.5625,105.4844 C183.7813,105.4844 184.9375,105.1875 185.6875,104.6406 C186.2656,104.2344 186.5938,103.7813 186.5938,103.3906 C186.5938,102.9375 186.2031,102.5469 185.7344,102.5469 C185.5156,102.5469 185.3125,102.625 185.125,102.8125 C184.6719,103.2969 184.6719,103.2969 184.4844,103.3906 C184.0625,103.6563 183.375,103.7813 182.6094,103.7813 C180.5625,103.7813 179.2656,102.6875 179.2656,100.9844 L179.2656,99.8906 C179.2656,98.1094 180.5156,96.7969 182.25,96.7969 C182.8281,96.7969 183.4375,96.9531 183.9063,97.2031 C184.3906,97.4844 184.5625,97.7031 184.6563,98.1094 C184.7188,98.5156 184.75,98.6406 184.8906,98.7656 C185.0313,98.9063 185.2656,99.0156 185.4844,99.0156 C185.75,99.0156 186.0156,98.875 186.1875,98.6563 C186.2969,98.5 186.3281,98.3125 186.3281,97.8906 L186.3281,96.4688 C186.3281,96.0313 186.3125,95.9063 186.2188,95.75 C186.0625,95.4844 185.7813,95.3438 185.4844,95.3438 C185.1875,95.3438 184.9844,95.4375 184.7656,95.75 L184.5938,95.6719 Z "
          fill="#000000"/>
      <text fill="#000000" font-family="sans-serif" font-size="14" lengthAdjust="spacing"
            textLength="191" x="202.75" y="104.8467">SubmitReservationService
      </text>
      <line style="stroke:#181818;stroke-width:0.5;" x1="55.5" x2="508.5" y1="116" y2="116"/>
      <ellipse cx="65.5" cy="129.6484" fill="none" rx="3" ry="3"
               style="stroke:#038048;stroke-width:1.0;"/>
      <text fill="#000000" font-family="sans-serif" font-size="14" lengthAdjust="spacing"
            textLength="364" x="74.5" y="132.9951">SubmitReservationComponent submitReservation
      </text>
      <line style="stroke:#181818;stroke-width:0.5;" x1="55.5" x2="508.5" y1="140.2969"
            y2="140.2969"/>
      <ellipse cx="65.5" cy="153.9453" fill="#84BE84" rx="3" ry="3"
               style="stroke:#038048;stroke-width:1.0;"/>
      <text fill="#000000" font-family="sans-serif" font-size="14" lengthAdjust="spacing"
            textLength="401" x="74.5" y="157.292">SubmitReservationComponent getSubmitReservation()
      </text>
      <ellipse cx="65.5" cy="170.2422" fill="#84BE84" rx="3" ry="3"
               style="stroke:#038048;stroke-width:1.0;"/>
      <text fill="#000000" font-family="sans-serif" font-size="14" lengthAdjust="spacing"
            textLength="429" x="74.5" y="173.5889">void
        setSubmitReservation(SubmitReservationComponent)
      </text>
      <ellipse cx="65.5" cy="186.5391" fill="#84BE84" rx="3" ry="3"
               style="stroke:#038048;stroke-width:1.0;"/>
      <text fill="#000000" font-family="sans-serif" font-size="14" lengthAdjust="spacing"
            textLength="182" x="74.5" y="189.8857">void serve(ReservationId)
      </text>
    </g><!--class SubmitReservationComponent-->
    <g id="elem_SubmitReservationComponent">
      <rect codeLine="79" fill="#F1F1F1" height="113.1875" id="SubmitReservationComponent" rx="2.5"
            ry="2.5" style="stroke:#181818;stroke-width:0.5;" width="423" x="70.5" y="257"/>
      <ellipse cx="165.75" cy="273" fill="#ADD1B2" rx="11" ry="11"
               style="stroke:#181818;stroke-width:1.0;"/>
      <path
          d="M168.0938,268.6719 C167.1563,268.2344 166.5625,268.0938 165.6875,268.0938 C163.0625,268.0938 161.0625,270.1719 161.0625,272.8906 L161.0625,274.0156 C161.0625,276.5938 163.1719,278.4844 166.0625,278.4844 C167.2813,278.4844 168.4375,278.1875 169.1875,277.6406 C169.7656,277.2344 170.0938,276.7813 170.0938,276.3906 C170.0938,275.9375 169.7031,275.5469 169.2344,275.5469 C169.0156,275.5469 168.8125,275.625 168.625,275.8125 C168.1719,276.2969 168.1719,276.2969 167.9844,276.3906 C167.5625,276.6563 166.875,276.7813 166.1094,276.7813 C164.0625,276.7813 162.7656,275.6875 162.7656,273.9844 L162.7656,272.8906 C162.7656,271.1094 164.0156,269.7969 165.75,269.7969 C166.3281,269.7969 166.9375,269.9531 167.4063,270.2031 C167.8906,270.4844 168.0625,270.7031 168.1563,271.1094 C168.2188,271.5156 168.25,271.6406 168.3906,271.7656 C168.5313,271.9063 168.7656,272.0156 168.9844,272.0156 C169.25,272.0156 169.5156,271.875 169.6875,271.6563 C169.7969,271.5 169.8281,271.3125 169.8281,270.8906 L169.8281,269.4688 C169.8281,269.0313 169.8125,268.9063 169.7188,268.75 C169.5625,268.4844 169.2813,268.3438 168.9844,268.3438 C168.6875,268.3438 168.4844,268.4375 168.2656,268.75 L168.0938,268.6719 Z "
          fill="#000000"/>
      <text fill="#000000" font-family="sans-serif" font-size="14" lengthAdjust="spacing"
            textLength="224" x="186.25" y="277.8467">SubmitReservationComponent
      </text>
      <line style="stroke:#181818;stroke-width:0.5;" x1="71.5" x2="492.5" y1="289" y2="289"/>
      <ellipse cx="81.5" cy="302.6484" fill="none" rx="3" ry="3"
               style="stroke:#038048;stroke-width:1.0;"/>
      <text fill="#000000" font-family="sans-serif" font-size="14" lengthAdjust="spacing"
            textLength="330" x="90.5" y="305.9951">ReservationRepository reservationRepository
      </text>
      <line style="stroke:#181818;stroke-width:0.5;" x1="71.5" x2="492.5" y1="313.2969"
            y2="313.2969"/>
      <ellipse cx="81.5" cy="326.9453" fill="#84BE84" rx="3" ry="3"
               style="stroke:#038048;stroke-width:1.0;"/>
      <text fill="#000000" font-family="sans-serif" font-size="14" lengthAdjust="spacing"
            textLength="369" x="90.5" y="330.292">ReservationRepository getReservationRepository()
      </text>
      <ellipse cx="81.5" cy="343.2422" fill="#84BE84" rx="3" ry="3"
               style="stroke:#038048;stroke-width:1.0;"/>
      <text fill="#000000" font-family="sans-serif" font-size="14" lengthAdjust="spacing"
            textLength="397" x="90.5" y="346.5889">void
        setReservationRepository(ReservationRepository)
      </text>
      <ellipse cx="81.5" cy="359.5391" fill="#84BE84" rx="3" ry="3"
               style="stroke:#038048;stroke-width:1.0;"/>
      <text fill="#000000" font-family="sans-serif" font-size="14" lengthAdjust="spacing"
            textLength="201" x="90.5" y="362.8857">void execute(ReservationId)
      </text>
    </g><!--link ConfirmReservationService to ConfirmReservationComponent-->
    <g id="link_ConfirmReservationService_ConfirmReservationComponent">
      <path codeLine="86" d="M1079,172.63 C1079,203.61 1079,244.23 1079,275.24 " fill="none"
            id="ConfirmReservationService-to-ConfirmReservationComponent"
            style="stroke:#181818;stroke-width:1.0;"/>
      <polygon fill="#181818" points="1079,281.24,1083,272.24,1079,276.24,1075,272.24,1079,281.24"
               style="stroke:#181818;stroke-width:1.0;"/>
    </g><!--link ConfirmReservationComponent to ReservationRepository-->
    <g id="link_ConfirmReservationComponent_ReservationRepository">
      <path codeLine="87"
            d="M1017.5,345.97 C1017.5,410.13 1017.5,547 1017.5,547 C1017.5,547 575.39,547 344.333,547 "
            fill="none" id="ConfirmReservationComponent-to-ReservationRepository"
            style="stroke:#181818;stroke-width:1.0;"/>
      <polygon fill="#181818" points="338.333,547,347.333,551,343.333,547,347.333,543,338.333,547"
               style="stroke:#181818;stroke-width:1.0;"/>
    </g><!--link Reservation to Trip-->
    <g id="link_Reservation_Trip">
      <path codeLine="88"
            d="M539,636.225 C539,690.285 539,779 539,779 C539,779 591.148,779 648.842,779 "
            fill="none" id="Reservation-to-Trip" style="stroke:#181818;stroke-width:1.0;"/>
      <polygon fill="#181818" points="654.842,779,645.842,775,649.842,779,645.842,783,654.842,779"
               style="stroke:#181818;stroke-width:1.0;"/>
    </g><!--link Reservation to ReservationId-->
    <g id="link_Reservation_ReservationId">
      <path codeLine="89" d="M462,636.128 C462,683.105 462,753.487 462,796.638 " fill="none"
            id="Reservation-to-ReservationId" style="stroke:#181818;stroke-width:1.0;"/>
      <polygon fill="#181818" points="462,802.638,466,793.638,462,797.638,458,793.638,462,802.638"
               style="stroke:#181818;stroke-width:1.0;"/>
    </g><!--link Trip to TripId-->
    <g id="link_Trip_TripId">
      <path codeLine="90" d="M768,916.044 C768,967.651 768,1025.668 768,1063.4 " fill="none"
            id="Trip-to-TripId" style="stroke:#181818;stroke-width:1.0;"/>
      <polygon fill="#181818" points="768,1069.4,772,1060.4,768,1064.4,764,1060.4,768,1069.4"
               style="stroke:#181818;stroke-width:1.0;"/>
    </g><!--link Trip to Station-->
    <g id="link_Trip_Station">
      <path codeLine="91"
            d="M842.667,916.117 C842.667,982.677 842.667,1066 842.667,1066 C842.667,1066 885.517,1066 930.742,1066 "
            fill="none" id="Trip-to-Station" style="stroke:#181818;stroke-width:1.0;"/>
      <polygon fill="#181818"
               points="936.742,1066,927.742,1062,931.742,1066,927.742,1070,936.742,1066"
               style="stroke:#181818;stroke-width:1.0;"/>
    </g><!--link Trip to Seat-->
    <g id="link_Trip_Seat">
      <path codeLine="92"
            d="M881.251,862 C1052.86,862 1359,862 1359,862 C1359,862 1359,986.542 1359,1054.872 "
            fill="none" id="Trip-to-Seat" style="stroke:#181818;stroke-width:1.0;"/>
      <polygon fill="#181818"
               points="1359,1060.872,1363,1051.872,1359,1055.872,1355,1051.872,1359,1060.872"
               style="stroke:#181818;stroke-width:1.0;"/>
    </g><!--link Trip to Train-->
    <g id="link_Trip_Train">
      <path codeLine="93"
            d="M881.18,808 C1166.39,808 1892,808 1892,808 C1892,808 1892,974.483 1892,1054.998 "
            fill="none" id="Trip-to-Train" style="stroke:#181818;stroke-width:1.0;"/>
      <polygon fill="#181818"
               points="1892,1060.998,1896,1051.998,1892,1055.998,1888,1051.998,1892,1060.998"
               style="stroke:#181818;stroke-width:1.0;"/>
    </g><!--link Trip to Wagon-->
    <g id="link_Trip_Wagon">
      <path codeLine="94"
            d="M861.833,916.089 C861.833,979.507 861.833,1057 861.833,1057 C861.833,1057 1351.85,1057 1552.88,1057 "
            fill="none" id="Trip-to-Wagon" style="stroke:#181818;stroke-width:1.0;"/>
      <polygon fill="#181818"
               points="1558.88,1057,1549.88,1053,1553.88,1057,1549.88,1061,1558.88,1057"
               style="stroke:#181818;stroke-width:1.0;"/>
    </g><!--link Station to StationId-->
    <g id="link_Station_StationId">
      <path codeLine="95" d="M1012,1142.138 C1012,1163.696 1012,1183.808 1012,1203.923 " fill="none"
            id="Station-to-StationId" style="stroke:#181818;stroke-width:1.0;"/>
      <polygon fill="#181818"
               points="1012,1209.923,1016,1200.923,1012,1204.923,1008,1200.923,1012,1209.923"
               style="stroke:#181818;stroke-width:1.0;"/>
    </g><!--link Train to TrainId-->
    <g id="link_Train_TrainId">
      <path codeLine="96" d="M1892,1142.138 C1892,1163.696 1892,1183.808 1892,1203.923 " fill="none"
            id="Train-to-TrainId" style="stroke:#181818;stroke-width:1.0;"/>
      <polygon fill="#181818"
               points="1892,1209.923,1896,1200.923,1892,1204.923,1888,1200.923,1892,1209.923"
               style="stroke:#181818;stroke-width:1.0;"/>
    </g><!--link Wagon to WagonId-->
    <g id="link_Wagon_WagonId">
      <path codeLine="97" d="M1642,1150.246 C1642,1169.902 1642,1186.043 1642,1203.651 " fill="none"
            id="Wagon-to-WagonId" style="stroke:#181818;stroke-width:1.0;"/>
      <polygon fill="#181818"
               points="1642,1209.651,1646,1200.651,1642,1204.651,1638,1200.651,1642,1209.651"
               style="stroke:#181818;stroke-width:1.0;"/>
    </g><!--link Seat to SeatId-->
    <g id="link_Seat_SeatId">
      <path codeLine="98" d="M1359,1142.138 C1359,1163.696 1359,1183.808 1359,1203.923 " fill="none"
            id="Seat-to-SeatId" style="stroke:#181818;stroke-width:1.0;"/>
      <polygon fill="#181818"
               points="1359,1209.923,1363,1200.923,1359,1204.923,1355,1200.923,1359,1209.923"
               style="stroke:#181818;stroke-width:1.0;"/>
    </g><!--link ResetReservationService to ResetReservationComponent-->
    <g id="link_ResetReservationService_ResetReservationComponent">
      <path codeLine="99" d="M721,172.63 C721,203.61 721,244.23 721,275.24 " fill="none"
            id="ResetReservationService-to-ResetReservationComponent"
            style="stroke:#181818;stroke-width:1.0;"/>
      <polygon fill="#181818" points="721,281.24,725,272.24,721,276.24,717,272.24,721,281.24"
               style="stroke:#181818;stroke-width:1.0;"/>
    </g><!--link ResetReservationComponent to ReservationRepository-->
    <g id="link_ResetReservationComponent_ReservationRepository">
      <path codeLine="100"
            d="M626.5,345.81 C626.5,408.16 626.5,539 626.5,539 C626.5,539 467.976,539 344.262,539 "
            fill="none" id="ResetReservationComponent-to-ReservationRepository"
            style="stroke:#181818;stroke-width:1.0;"/>
      <polygon fill="#181818" points="338.262,539,347.262,543,343.262,539,347.262,535,338.262,539"
               style="stroke:#181818;stroke-width:1.0;"/>
    </g><!--link SubmitReservationService to SubmitReservationComponent-->
    <g id="link_SubmitReservationService_SubmitReservationComponent">
      <path codeLine="101" d="M282,197.15 C282,216.26 282,231.6 282,250.73 " fill="none"
            id="SubmitReservationService-to-SubmitReservationComponent"
            style="stroke:#181818;stroke-width:1.0;"/>
      <polygon fill="#181818" points="282,256.73,286,247.73,282,251.73,278,247.73,282,256.73"
               style="stroke:#181818;stroke-width:1.0;"/>
    </g><!--link SubmitReservationComponent to ReservationRepository-->
    <g id="link_SubmitReservationComponent_ReservationRepository">
      <path codeLine="102" d="M204.25,370.23 C204.25,416.71 204.25,476.491 204.25,524.975 "
            fill="none" id="SubmitReservationComponent-to-ReservationRepository"
            style="stroke:#181818;stroke-width:1.0;"/>
      <polygon fill="#181818"
               points="204.25,530.975,208.25,521.975,204.25,525.975,200.25,521.975,204.25,530.975"
               style="stroke:#181818;stroke-width:1.0;"/>
    </g><!--SRC=[vLZBRjim4BphAzYS4XJH5nGvDBaO2DeYQT1ZG4bhcOX52kJAgI7atqjAiYt9Uj25zO1pCaqkoPdP9SNTBx6aOKH9ec314MG40QC8lwZ_HaDGP4dN2XprndXC9Ot8cd70RGn4I5m9Hwt4Er5w7WZJwpZ-cYf5hku5Np8PFO42kQ7817_M3UR35Q6A1E06dhi17WWtbWApkQwN-Ak4XwuyJ783jW6fN1hG64r3mtprgGBb0aU6J3VyV2lN4maFgDowhNkJr27awqQmW9WXk2wPB88RvwCT_Rs8Oi7rdYFWrnqenThjG55Y0d_1Jx212pFkN59D-weqzWInK0o5t9wVITdyY4qZXfm7IQcdK58VFqfMPCbuy7rR9rQrpvr9gxviDagyYA75QeK_B2mDNsmDebB_o59dLjkouhdE5QGa15m4rncntvB5vh_vlMwci0Wc9w4nPpHUNXOFU_Hxh0Rxi11Hxz2ACvCmtObPbVSPSoVehf-IXOmVTJ-0GiQpl_dO8rFuhJ2uCnP5M-qSHXdFFKRtom75p5B_vZr_Q9WldpNgOWtjqLwvklrP41u1eyBk4DpvAIqvhUvWoNXeUdxG21fOZAAr9O- -OwG3QWImQFRf20yJt-a-r6tbBepdWRzRwEnCZWRqtUpM2ZU_ADBzdT4ZTxKlYJoGHyn6T885jvwhHj-O8wDLUilsWsfkydHtfrjVDPdjt7XqAs- -xZX6af0zrGv0M_QrJX3gymTC3sh8oyzf_D_KO1SnsPDu3Fdpn_U1HTlEHTJNHm_aL7r8sx- -zamoZwBwQ7wQ2bSt3BSlTsCP8-qh3A_lBaewHAbd1AMaJ3RrxeLkdXDMel4mKDMvsQInzwO_ZASg8zpUtarV0d2cBqASNOVJ2mZEf5dre0BqvayNpDsg6k1CcEbFw_bBvswPoLws22Szip-359t9zkU9XSv4rvb7gMmsLyJWDwLD7MiM1sGa9MmAJJCwBwEgqb_qcTbNPGXrBAemWwXmIWt5cRQ2St5vbNNvv-pCJo-CE5CNPcRW_Ny0]-->
  </g>
</svg>