<?xml version="1.0" encoding="us-ascii" standalone="no"?>
<svg xmlns="http://www.w3.org/2000/svg"
     contentStyleType="text/css" height="1431px" preserveAspectRatio="none"
     style="width:2571px;height:1431px;background:#FFFFFF;" version="1.1" viewBox="0 0 2571 1431"
     width="2571px" zoomAndPan="magnify">
  <defs/>
  <g><!--cluster entities-->
    <g id="cluster_entities">
      <path
        d="M8.5,6 L650.5,6 A3.75,3.75 0 0 1 653,8.5 L660,28.2969 L2561.5,28.2969 A2.5,2.5 0 0 1 2564,30.7969 L2564,1421.5 A2.5,2.5 0 0 1 2561.5,1424 L8.5,1424 A2.5,2.5 0 0 1 6,1421.5 L6,8.5 A2.5,2.5 0 0 1 8.5,6 "
        fill="none" style="stroke:#000000;stroke-width:1.5;"/>
      <line style="stroke:#000000;stroke-width:1.5;" x1="6" x2="660" y1="28.2969" y2="28.2969"/>
      <text fill="#000000" font-family="sans-serif" font-size="14" font-weight="bold"
            lengthAdjust="spacing" textLength="641" x="10" y="20.9951">
        de.db.vendo.prototype.buchung.reservation.divers.adapters.use_cases.entities
      </text>
    </g><!--cluster boundary-->
    <g id="cluster_boundary">
      <path
        d="M2042.5,53 L2187.5,53 A3.75,3.75 0 0 1 2190,55.5 L2197,75.2969 L2537.5,75.2969 A2.5,2.5 0 0 1 2540,77.7969 L2540,415.5 A2.5,2.5 0 0 1 2537.5,418 L2042.5,418 A2.5,2.5 0 0 1 2040,415.5 L2040,55.5 A2.5,2.5 0 0 1 2042.5,53 "
        fill="none" style="stroke:#000000;stroke-width:1.5;"/>
      <line style="stroke:#000000;stroke-width:1.5;" x1="2040" x2="2197" y1="75.2969" y2="75.2969"/>
      <text fill="#000000" font-family="sans-serif" font-size="14" font-weight="bold"
            lengthAdjust="spacing" textLength="144" x="2044" y="67.9951">confirm.boundary
      </text>
    </g><!--cluster control-->
    <g id="cluster_control">
      <path
        d="M2085.5,230 L2145.5,230 A3.75,3.75 0 0 1 2148,232.5 L2155,252.2969 L2456.5,252.2969 A2.5,2.5 0 0 1 2459,254.7969 L2459,391.5 A2.5,2.5 0 0 1 2456.5,394 L2085.5,394 A2.5,2.5 0 0 1 2083,391.5 L2083,232.5 A2.5,2.5 0 0 1 2085.5,230 "
        fill="none" style="stroke:#000000;stroke-width:1.5;"/>
      <line style="stroke:#000000;stroke-width:1.5;" x1="2083" x2="2155" y1="252.2969"
            y2="252.2969"/>
      <text fill="#000000" font-family="sans-serif" font-size="14" font-weight="bold"
            lengthAdjust="spacing" textLength="59" x="2087" y="244.9951">control
      </text>
    </g><!--cluster reservation-->
    <g id="cluster_reservation">
      <path
        d="M32.5,442 L126.5,442 A3.75,3.75 0 0 1 129,444.5 L136,464.2969 L2537.5,464.2969 A2.5,2.5 0 0 1 2540,466.7969 L2540,1397.5 A2.5,2.5 0 0 1 2537.5,1400 L32.5,1400 A2.5,2.5 0 0 1 30,1397.5 L30,444.5 A2.5,2.5 0 0 1 32.5,442 "
        fill="none" style="stroke:#000000;stroke-width:1.5;"/>
      <line style="stroke:#000000;stroke-width:1.5;" x1="30" x2="136" y1="464.2969" y2="464.2969"/>
      <text fill="#000000" font-family="sans-serif" font-size="14" font-weight="bold"
            lengthAdjust="spacing" textLength="93" x="34" y="456.9951">reservation
      </text>
    </g><!--cluster control-->
    <g id="cluster_control">
      <path
        d="M1910.5,544.5 L2051.5,544.5 A3.75,3.75 0 0 1 2054,547 L2061,566.7969 L2513.5,566.7969 A2.5,2.5 0 0 1 2516,569.2969 L2516,1373.5 A2.5,2.5 0 0 1 2513.5,1376 L1910.5,1376 A2.5,2.5 0 0 1 1908,1373.5 L1908,547 A2.5,2.5 0 0 1 1910.5,544.5 "
        fill="none" style="stroke:#000000;stroke-width:1.5;"/>
      <line style="stroke:#000000;stroke-width:1.5;" x1="1908" x2="2061" y1="566.7969"
            y2="566.7969"/>
      <text fill="#000000" font-family="sans-serif" font-size="14" font-weight="bold"
            lengthAdjust="spacing" textLength="140" x="1912" y="559.4951">boundary.control
      </text>
    </g><!--cluster entity-->
    <g id="cluster_entity">
      <path
        d="M1934.5,1047 L1984.5,1047 A3.75,3.75 0 0 1 1987,1049.5 L1994,1069.2969 L2489.5,1069.2969 A2.5,2.5 0 0 1 2492,1071.7969 L2492,1349.5 A2.5,2.5 0 0 1 2489.5,1352 L1934.5,1352 A2.5,2.5 0 0 1 1932,1349.5 L1932,1049.5 A2.5,2.5 0 0 1 1934.5,1047 "
        fill="none" style="stroke:#000000;stroke-width:1.5;"/>
      <line style="stroke:#000000;stroke-width:1.5;" x1="1932" x2="1994" y1="1069.2969"
            y2="1069.2969"/>
      <text fill="#000000" font-family="sans-serif" font-size="14" font-weight="bold"
            lengthAdjust="spacing" textLength="49" x="1936" y="1061.9951">entity
      </text>
    </g><!--cluster trip-->
    <g id="cluster_trip">
      <path
        d="M56.5,485 L87.5,485 A3.75,3.75 0 0 1 90,487.5 L97,507.2969 L1881.5,507.2969 A2.5,2.5 0 0 1 1884,509.7969 L1884,1192 A2.5,2.5 0 0 1 1881.5,1194.5 L56.5,1194.5 A2.5,2.5 0 0 1 54,1192 L54,487.5 A2.5,2.5 0 0 1 56.5,485 "
        fill="none" style="stroke:#000000;stroke-width:1.5;"/>
      <line style="stroke:#000000;stroke-width:1.5;" x1="54" x2="97" y1="507.2969" y2="507.2969"/>
      <text fill="#000000" font-family="sans-serif" font-size="14" font-weight="bold"
            lengthAdjust="spacing" textLength="30" x="58" y="499.9951">trip
      </text>
    </g><!--cluster entity-->
    <g id="cluster_entity">
      <path
        d="M80.5,528 L275.5,528 A3.75,3.75 0 0 1 278,530.5 L285,550.2969 L333.5,550.2969 A2.5,2.5 0 0 1 336,552.7969 L336,956 A2.5,2.5 0 0 1 333.5,958.5 L80.5,958.5 A2.5,2.5 0 0 1 78,956 L78,530.5 A2.5,2.5 0 0 1 80.5,528 "
        fill="none" style="stroke:#000000;stroke-width:1.5;"/>
      <line style="stroke:#000000;stroke-width:1.5;" x1="78" x2="285" y1="550.2969" y2="550.2969"/>
      <text fill="#000000" font-family="sans-serif" font-size="14" font-weight="bold"
            lengthAdjust="spacing" textLength="194" x="82" y="542.9951">boundary.control.entity
      </text>
    </g><!--cluster entity-->
    <g id="cluster_entity">
      <path
        d="M362.5,835 L622.5,835 A3.75,3.75 0 0 1 625,837.5 L632,857.2969 L632.5,857.2969 A2.5,2.5 0 0 1 635,859.7969 L635,1168 A2.5,2.5 0 0 1 632.5,1170.5 L362.5,1170.5 A2.5,2.5 0 0 1 360,1168 L360,837.5 A2.5,2.5 0 0 1 362.5,835 "
        fill="none" style="stroke:#000000;stroke-width:1.5;"/>
      <line style="stroke:#000000;stroke-width:1.5;" x1="360" x2="632" y1="857.2969" y2="857.2969"/>
      <text fill="#000000" font-family="sans-serif" font-size="14" font-weight="bold"
            lengthAdjust="spacing" textLength="259" x="364" y="849.9951">
        station.boundary.control.entity
      </text>
    </g><!--cluster train-->
    <g id="cluster_train">
      <path
        d="M661.5,741 L702.5,741 A3.75,3.75 0 0 1 705,743.5 L712,763.2969 L1857.5,763.2969 A2.5,2.5 0 0 1 1860,765.7969 L1860,1020.5 A2.5,2.5 0 0 1 1857.5,1023 L661.5,1023 A2.5,2.5 0 0 1 659,1020.5 L659,743.5 A2.5,2.5 0 0 1 661.5,741 "
        fill="none" style="stroke:#000000;stroke-width:1.5;"/>
      <line style="stroke:#000000;stroke-width:1.5;" x1="659" x2="712" y1="763.2969" y2="763.2969"/>
      <text fill="#000000" font-family="sans-serif" font-size="14" font-weight="bold"
            lengthAdjust="spacing" textLength="40" x="663" y="755.9951">train
      </text>
    </g><!--cluster entity-->
    <g id="cluster_entity">
      <path
        d="M1491.5,835 L1686.5,835 A3.75,3.75 0 0 1 1689,837.5 L1696,857.2969 L1833.5,857.2969 A2.5,2.5 0 0 1 1836,859.7969 L1836,964.5 A2.5,2.5 0 0 1 1833.5,967 L1491.5,967 A2.5,2.5 0 0 1 1489,964.5 L1489,837.5 A2.5,2.5 0 0 1 1491.5,835 "
        fill="none" style="stroke:#000000;stroke-width:1.5;"/>
      <line style="stroke:#000000;stroke-width:1.5;" x1="1489" x2="1696" y1="857.2969"
            y2="857.2969"/>
      <text fill="#000000" font-family="sans-serif" font-size="14" font-weight="bold"
            lengthAdjust="spacing" textLength="194" x="1493" y="849.9951">boundary.control.entity
      </text>
    </g><!--cluster wagon-->
    <g id="cluster_wagon">
      <path
        d="M685.5,784 L739.5,784 A3.75,3.75 0 0 1 742,786.5 L749,806.2969 L1462.5,806.2969 A2.5,2.5 0 0 1 1465,808.7969 L1465,996.5 A2.5,2.5 0 0 1 1462.5,999 L685.5,999 A2.5,2.5 0 0 1 683,996.5 L683,786.5 A2.5,2.5 0 0 1 685.5,784 "
        fill="none" style="stroke:#000000;stroke-width:1.5;"/>
      <line style="stroke:#000000;stroke-width:1.5;" x1="683" x2="749" y1="806.2969" y2="806.2969"/>
      <text fill="#000000" font-family="sans-serif" font-size="14" font-weight="bold"
            lengthAdjust="spacing" textLength="53" x="687" y="798.9951">wagon
      </text>
    </g><!--cluster entity-->
    <g id="cluster_entity">
      <path
        d="M1080.5,827 L1275.5,827 A3.75,3.75 0 0 1 1278,829.5 L1285,849.2969 L1438.5,849.2969 A2.5,2.5 0 0 1 1441,851.7969 L1441,972.5 A2.5,2.5 0 0 1 1438.5,975 L1080.5,975 A2.5,2.5 0 0 1 1078,972.5 L1078,829.5 A2.5,2.5 0 0 1 1080.5,827 "
        fill="none" style="stroke:#000000;stroke-width:1.5;"/>
      <line style="stroke:#000000;stroke-width:1.5;" x1="1078" x2="1285" y1="849.2969"
            y2="849.2969"/>
      <text fill="#000000" font-family="sans-serif" font-size="14" font-weight="bold"
            lengthAdjust="spacing" textLength="194" x="1082" y="841.9951">boundary.control.entity
      </text>
    </g><!--cluster entity-->
    <g id="cluster_entity">
      <path
        d="M709.5,835 L945.5,835 A3.75,3.75 0 0 1 948,837.5 L955,857.2969 L1051.5,857.2969 A2.5,2.5 0 0 1 1054,859.7969 L1054,964.5 A2.5,2.5 0 0 1 1051.5,967 L709.5,967 A2.5,2.5 0 0 1 707,964.5 L707,837.5 A2.5,2.5 0 0 1 709.5,835 "
        fill="none" style="stroke:#000000;stroke-width:1.5;"/>
      <line style="stroke:#000000;stroke-width:1.5;" x1="707" x2="955" y1="857.2969" y2="857.2969"/>
      <text fill="#000000" font-family="sans-serif" font-size="14" font-weight="bold"
            lengthAdjust="spacing" textLength="235" x="711" y="849.9951">
        seat.boundary.control.entity
      </text>
    </g><!--cluster boundary-->
    <g id="cluster_boundary">
      <path
        d="M1550.5,49 L1674.5,49 A3.75,3.75 0 0 1 1677,51.5 L1684,71.2969 L2013.5,71.2969 A2.5,2.5 0 0 1 2016,73.7969 L2016,415.5 A2.5,2.5 0 0 1 2013.5,418 L1550.5,418 A2.5,2.5 0 0 1 1548,415.5 L1548,51.5 A2.5,2.5 0 0 1 1550.5,49 "
        fill="none" style="stroke:#000000;stroke-width:1.5;"/>
      <line style="stroke:#000000;stroke-width:1.5;" x1="1548" x2="1684" y1="71.2969" y2="71.2969"/>
      <text fill="#000000" font-family="sans-serif" font-size="14" font-weight="bold"
            lengthAdjust="spacing" textLength="123" x="1552" y="63.9951">reset.boundary
      </text>
    </g><!--cluster control-->
    <g id="cluster_control">
      <path
        d="M1607.5,230 L1667.5,230 A3.75,3.75 0 0 1 1670,232.5 L1677,252.2969 L1978.5,252.2969 A2.5,2.5 0 0 1 1981,254.7969 L1981,391.5 A2.5,2.5 0 0 1 1978.5,394 L1607.5,394 A2.5,2.5 0 0 1 1605,391.5 L1605,232.5 A2.5,2.5 0 0 1 1607.5,230 "
        fill="none" style="stroke:#000000;stroke-width:1.5;"/>
      <line style="stroke:#000000;stroke-width:1.5;" x1="1605" x2="1677" y1="252.2969"
            y2="252.2969"/>
      <text fill="#000000" font-family="sans-serif" font-size="14" font-weight="bold"
            lengthAdjust="spacing" textLength="59" x="1609" y="244.9951">control
      </text>
    </g><!--cluster boundary-->
    <g id="cluster_boundary">
      <path
        d="M1038.5,53 L1177.5,53 A3.75,3.75 0 0 1 1180,55.5 L1187,75.2969 L1521.5,75.2969 A2.5,2.5 0 0 1 1524,77.7969 L1524,415.5 A2.5,2.5 0 0 1 1521.5,418 L1038.5,418 A2.5,2.5 0 0 1 1036,415.5 L1036,55.5 A2.5,2.5 0 0 1 1038.5,53 "
        fill="none" style="stroke:#000000;stroke-width:1.5;"/>
      <line style="stroke:#000000;stroke-width:1.5;" x1="1036" x2="1187" y1="75.2969" y2="75.2969"/>
      <text fill="#000000" font-family="sans-serif" font-size="14" font-weight="bold"
            lengthAdjust="spacing" textLength="138" x="1040" y="67.9951">submit.boundary
      </text>
    </g><!--cluster control-->
    <g id="cluster_control">
      <path
        d="M1110.5,230 L1170.5,230 A3.75,3.75 0 0 1 1173,232.5 L1180,252.2969 L1481.5,252.2969 A2.5,2.5 0 0 1 1484,254.7969 L1484,391.5 A2.5,2.5 0 0 1 1481.5,394 L1110.5,394 A2.5,2.5 0 0 1 1108,391.5 L1108,232.5 A2.5,2.5 0 0 1 1110.5,230 "
        fill="none" style="stroke:#000000;stroke-width:1.5;"/>
      <line style="stroke:#000000;stroke-width:1.5;" x1="1108" x2="1180" y1="252.2969"
            y2="252.2969"/>
      <text fill="#000000" font-family="sans-serif" font-size="14" font-weight="bold"
            lengthAdjust="spacing" textLength="59" x="1112" y="244.9951">control
      </text>
    </g><!--class ConfirmReservationService-->
    <g id="elem_ConfirmReservationService">
      <rect codeLine="5" fill="#F1F1F1" height="113.1875" id="ConfirmReservationService" rx="2.5"
            ry="2.5" style="stroke:#181818;stroke-width:0.5;" width="467" x="2056.5" y="88"/>
      <ellipse cx="2187.25" cy="104" fill="#ADD1B2" rx="11" ry="11"
               style="stroke:#181818;stroke-width:1.0;"/>
      <path
        d="M2189.5938,99.6719 C2188.6563,99.2344 2188.0625,99.0938 2187.1875,99.0938 C2184.5625,99.0938 2182.5625,101.1719 2182.5625,103.8906 L2182.5625,105.0156 C2182.5625,107.5938 2184.6719,109.4844 2187.5625,109.4844 C2188.7813,109.4844 2189.9375,109.1875 2190.6875,108.6406 C2191.2656,108.2344 2191.5938,107.7813 2191.5938,107.3906 C2191.5938,106.9375 2191.2031,106.5469 2190.7344,106.5469 C2190.5156,106.5469 2190.3125,106.625 2190.125,106.8125 C2189.6719,107.2969 2189.6719,107.2969 2189.4844,107.3906 C2189.0625,107.6563 2188.375,107.7813 2187.6094,107.7813 C2185.5625,107.7813 2184.2656,106.6875 2184.2656,104.9844 L2184.2656,103.8906 C2184.2656,102.1094 2185.5156,100.7969 2187.25,100.7969 C2187.8281,100.7969 2188.4375,100.9531 2188.9063,101.2031 C2189.3906,101.4844 2189.5625,101.7031 2189.6563,102.1094 C2189.7188,102.5156 2189.75,102.6406 2189.8906,102.7656 C2190.0313,102.9063 2190.2656,103.0156 2190.4844,103.0156 C2190.75,103.0156 2191.0156,102.875 2191.1875,102.6563 C2191.2969,102.5 2191.3281,102.3125 2191.3281,101.8906 L2191.3281,100.4688 C2191.3281,100.0313 2191.3125,99.9063 2191.2188,99.75 C2191.0625,99.4844 2190.7813,99.3438 2190.4844,99.3438 C2190.1875,99.3438 2189.9844,99.4375 2189.7656,99.75 L2189.5938,99.6719 Z "
        fill="#000000"/>
      <text fill="#000000" font-family="sans-serif" font-size="14" lengthAdjust="spacing"
            textLength="197" x="2207.75" y="108.8467">ConfirmReservationService
      </text>
      <line style="stroke:#181818;stroke-width:0.5;" x1="2057.5" x2="2522.5" y1="120" y2="120"/>
      <ellipse cx="2067.5" cy="133.6484" fill="none" rx="3" ry="3"
               style="stroke:#038048;stroke-width:1.0;"/>
      <text fill="#000000" font-family="sans-serif" font-size="14" lengthAdjust="spacing"
            textLength="376" x="2076.5" y="136.9951">ConfirmReservationComponent confirmReservation
      </text>
      <line style="stroke:#181818;stroke-width:0.5;" x1="2057.5" x2="2522.5" y1="144.2969"
            y2="144.2969"/>
      <ellipse cx="2067.5" cy="157.9453" fill="#84BE84" rx="3" ry="3"
               style="stroke:#038048;stroke-width:1.0;"/>
      <text fill="#000000" font-family="sans-serif" font-size="14" lengthAdjust="spacing"
            textLength="413" x="2076.5" y="161.292">ConfirmReservationComponent
        getConfirmReservation()
      </text>
      <ellipse cx="2067.5" cy="174.2422" fill="#84BE84" rx="3" ry="3"
               style="stroke:#038048;stroke-width:1.0;"/>
      <text fill="#000000" font-family="sans-serif" font-size="14" lengthAdjust="spacing"
            textLength="441" x="2076.5" y="177.5889">void
        setConfirmReservation(ConfirmReservationComponent)
      </text>
      <ellipse cx="2067.5" cy="190.5391" fill="#84BE84" rx="3" ry="3"
               style="stroke:#038048;stroke-width:1.0;"/>
      <text fill="#000000" font-family="sans-serif" font-size="14" lengthAdjust="spacing"
            textLength="182" x="2076.5" y="193.8857">void serve(ReservationId)
      </text>
    </g><!--class ConfirmReservationComponent-->
    <g id="elem_ConfirmReservationComponent">
      <rect codeLine="12" fill="#F1F1F1" height="113.1875" id="ConfirmReservationComponent" rx="2.5"
            ry="2.5" style="stroke:#181818;stroke-width:0.5;" width="344" x="2099" y="265"/>
      <ellipse cx="2151.75" cy="281" fill="#ADD1B2" rx="11" ry="11"
               style="stroke:#181818;stroke-width:1.0;"/>
      <path
        d="M2154.0938,276.6719 C2153.1563,276.2344 2152.5625,276.0938 2151.6875,276.0938 C2149.0625,276.0938 2147.0625,278.1719 2147.0625,280.8906 L2147.0625,282.0156 C2147.0625,284.5938 2149.1719,286.4844 2152.0625,286.4844 C2153.2813,286.4844 2154.4375,286.1875 2155.1875,285.6406 C2155.7656,285.2344 2156.0938,284.7813 2156.0938,284.3906 C2156.0938,283.9375 2155.7031,283.5469 2155.2344,283.5469 C2155.0156,283.5469 2154.8125,283.625 2154.625,283.8125 C2154.1719,284.2969 2154.1719,284.2969 2153.9844,284.3906 C2153.5625,284.6563 2152.875,284.7813 2152.1094,284.7813 C2150.0625,284.7813 2148.7656,283.6875 2148.7656,281.9844 L2148.7656,280.8906 C2148.7656,279.1094 2150.0156,277.7969 2151.75,277.7969 C2152.3281,277.7969 2152.9375,277.9531 2153.4063,278.2031 C2153.8906,278.4844 2154.0625,278.7031 2154.1563,279.1094 C2154.2188,279.5156 2154.25,279.6406 2154.3906,279.7656 C2154.5313,279.9063 2154.7656,280.0156 2154.9844,280.0156 C2155.25,280.0156 2155.5156,279.875 2155.6875,279.6563 C2155.7969,279.5 2155.8281,279.3125 2155.8281,278.8906 L2155.8281,277.4688 C2155.8281,277.0313 2155.8125,276.9063 2155.7188,276.75 C2155.5625,276.4844 2155.2813,276.3438 2154.9844,276.3438 C2154.6875,276.3438 2154.4844,276.4375 2154.2656,276.75 L2154.0938,276.6719 Z "
        fill="#000000"/>
      <text fill="#000000" font-family="sans-serif" font-size="14" lengthAdjust="spacing"
            textLength="230" x="2172.25" y="285.8467">ConfirmReservationComponent
      </text>
      <line style="stroke:#181818;stroke-width:0.5;" x1="2100" x2="2442" y1="297" y2="297"/>
      <ellipse cx="2110" cy="310.6484" fill="none" rx="3" ry="3"
               style="stroke:#038048;stroke-width:1.0;"/>
      <text fill="#000000" font-family="sans-serif" font-size="14" lengthAdjust="spacing"
            textLength="251" x="2119" y="313.9951">ReservationRepository reservation
      </text>
      <line style="stroke:#181818;stroke-width:0.5;" x1="2100" x2="2442" y1="321.2969"
            y2="321.2969"/>
      <ellipse cx="2110" cy="334.9453" fill="#84BE84" rx="3" ry="3"
               style="stroke:#038048;stroke-width:1.0;"/>
      <text fill="#000000" font-family="sans-serif" font-size="14" lengthAdjust="spacing"
            textLength="290" x="2119" y="338.292">ReservationRepository getReservation()
      </text>
      <ellipse cx="2110" cy="351.2422" fill="#84BE84" rx="3" ry="3"
               style="stroke:#038048;stroke-width:1.0;"/>
      <text fill="#000000" font-family="sans-serif" font-size="14" lengthAdjust="spacing"
            textLength="318" x="2119" y="354.5889">void setReservation(ReservationRepository)
      </text>
      <ellipse cx="2110" cy="367.5391" fill="#84BE84" rx="3" ry="3"
               style="stroke:#038048;stroke-width:1.0;"/>
      <text fill="#000000" font-family="sans-serif" font-size="14" lengthAdjust="spacing"
            textLength="201" x="2119" y="370.8857">void execute(ReservationId)
      </text>
    </g><!--class ReservationRepository-->
    <g id="elem_ReservationRepository">
      <rect codeLine="19" fill="#F1F1F1" height="129.4844" id="ReservationRepository" rx="2.5"
            ry="2.5" style="stroke:#181818;stroke-width:0.5;" width="352" x="1925" y="579.5"/>
      <ellipse cx="2016.25" cy="595.5" fill="#B4A7E5" rx="11" ry="11"
               style="stroke:#181818;stroke-width:1.0;"/>
      <path
        d="M2017.2031,592.2813 L2018.9219,592.2813 C2019.3125,592.2813 2019.5,592.25 2019.625,592.1719 C2019.8906,592.0156 2020.0313,591.7344 2020.0313,591.4375 C2020.0313,591.1719 2019.9219,590.9063 2019.6875,590.7344 C2019.5156,590.625 2019.375,590.5938 2018.9219,590.5938 L2013.7813,590.5938 C2013.3438,590.5938 2013.2188,590.6094 2013.0625,590.7031 C2012.8125,590.8594 2012.6563,591.1563 2012.6563,591.4375 C2012.6563,591.7188 2012.7969,591.9688 2013.0156,592.1406 C2013.1719,592.25 2013.3594,592.2813 2013.7813,592.2813 L2015.5,592.2813 L2015.5,598.7969 L2013.7813,598.7969 C2013.3438,598.7969 2013.2188,598.8125 2013.0625,598.9219 C2012.8125,599.0781 2012.6563,599.3594 2012.6563,599.6563 C2012.6563,599.9063 2012.7969,600.1719 2013.0156,600.3281 C2013.1719,600.4531 2013.375,600.5 2013.7813,600.5 L2018.9219,600.5 C2019.6719,600.5 2020.0313,600.2188 2020.0313,599.6563 C2020.0313,599.375 2019.9219,599.125 2019.6875,598.9531 C2019.5156,598.8281 2019.375,598.7969 2018.9219,598.7969 L2017.2031,598.7969 L2017.2031,592.2813 Z "
        fill="#000000"/>
      <text fill="#000000" font-family="sans-serif" font-size="14" font-style="italic"
            lengthAdjust="spacing" textLength="161" x="2036.75" y="600.3467">ReservationRepository
      </text>
      <line style="stroke:#181818;stroke-width:0.5;" x1="1926" x2="2276" y1="611.5" y2="611.5"/>
      <line style="stroke:#181818;stroke-width:0.5;" x1="1926" x2="2276" y1="619.5" y2="619.5"/>
      <ellipse cx="1936" cy="633.1484" fill="#84BE84" rx="3" ry="3"
               style="stroke:#038048;stroke-width:1.0;"/>
      <text fill="#000000" font-family="sans-serif" font-size="14" font-style="italic"
            lengthAdjust="spacing" textLength="326" x="1945" y="636.4951">Optional&lt;Reservation&gt;
        findBy(ReservationId)
      </text>
      <ellipse cx="1936" cy="649.4453" fill="#84BE84" rx="3" ry="3"
               style="stroke:#038048;stroke-width:1.0;"/>
      <text fill="#000000" font-family="sans-serif" font-size="14" font-style="italic"
            lengthAdjust="spacing" textLength="217" x="1945" y="652.792">Reservation
        save(Reservation)
      </text>
      <ellipse cx="1936" cy="665.7422" fill="#84BE84" rx="3" ry="3"
               style="stroke:#038048;stroke-width:1.0;"/>
      <text fill="#000000" font-family="sans-serif" font-size="14" font-style="italic"
            lengthAdjust="spacing" textLength="190" x="1945" y="669.0889">void submit(ReservationId)
      </text>
      <ellipse cx="1936" cy="682.0391" fill="#84BE84" rx="3" ry="3"
               style="stroke:#038048;stroke-width:1.0;"/>
      <text fill="#000000" font-family="sans-serif" font-size="14" font-style="italic"
            lengthAdjust="spacing" textLength="197" x="1945" y="685.3857">void
        confirm(ReservationId)
      </text>
      <ellipse cx="1936" cy="698.3359" fill="#84BE84" rx="3" ry="3"
               style="stroke:#038048;stroke-width:1.0;"/>
      <text fill="#000000" font-family="sans-serif" font-size="14" font-style="italic"
            lengthAdjust="spacing" textLength="178" x="1945" y="701.6826">void reset(ReservationId)
      </text>
    </g><!--class ReservationRepositoryImpl-->
    <g id="elem_ReservationRepositoryImpl">
      <rect codeLine="26" fill="#F1F1F1" height="129.4844" id="ReservationRepositoryImpl" rx="2.5"
            ry="2.5" style="stroke:#181818;stroke-width:0.5;" width="355" x="1924.5" y="846"/>
      <ellipse cx="1999.25" cy="862" fill="#ADD1B2" rx="11" ry="11"
               style="stroke:#181818;stroke-width:1.0;"/>
      <path
        d="M2001.5938,857.6719 C2000.6563,857.2344 2000.0625,857.0938 1999.1875,857.0938 C1996.5625,857.0938 1994.5625,859.1719 1994.5625,861.8906 L1994.5625,863.0156 C1994.5625,865.5938 1996.6719,867.4844 1999.5625,867.4844 C2000.7813,867.4844 2001.9375,867.1875 2002.6875,866.6406 C2003.2656,866.2344 2003.5938,865.7813 2003.5938,865.3906 C2003.5938,864.9375 2003.2031,864.5469 2002.7344,864.5469 C2002.5156,864.5469 2002.3125,864.625 2002.125,864.8125 C2001.6719,865.2969 2001.6719,865.2969 2001.4844,865.3906 C2001.0625,865.6563 2000.375,865.7813 1999.6094,865.7813 C1997.5625,865.7813 1996.2656,864.6875 1996.2656,862.9844 L1996.2656,861.8906 C1996.2656,860.1094 1997.5156,858.7969 1999.25,858.7969 C1999.8281,858.7969 2000.4375,858.9531 2000.9063,859.2031 C2001.3906,859.4844 2001.5625,859.7031 2001.6563,860.1094 C2001.7188,860.5156 2001.75,860.6406 2001.8906,860.7656 C2002.0313,860.9063 2002.2656,861.0156 2002.4844,861.0156 C2002.75,861.0156 2003.0156,860.875 2003.1875,860.6563 C2003.2969,860.5 2003.3281,860.3125 2003.3281,859.8906 L2003.3281,858.4688 C2003.3281,858.0313 2003.3125,857.9063 2003.2188,857.75 C2003.0625,857.4844 2002.7813,857.3438 2002.4844,857.3438 C2002.1875,857.3438 2001.9844,857.4375 2001.7656,857.75 L2001.5938,857.6719 Z "
        fill="#000000"/>
      <text fill="#000000" font-family="sans-serif" font-size="14" lengthAdjust="spacing"
            textLength="197" x="2019.75" y="866.8467">ReservationRepositoryImpl
      </text>
      <line style="stroke:#181818;stroke-width:0.5;" x1="1925.5" x2="2278.5" y1="878" y2="878"/>
      <line style="stroke:#181818;stroke-width:0.5;" x1="1925.5" x2="2278.5" y1="886" y2="886"/>
      <ellipse cx="1935.5" cy="899.6484" fill="#84BE84" rx="3" ry="3"
               style="stroke:#038048;stroke-width:1.0;"/>
      <text fill="#000000" font-family="sans-serif" font-size="14" lengthAdjust="spacing"
            textLength="329" x="1944.5" y="902.9951">Optional&lt;Reservation&gt;
        findBy(ReservationId)
      </text>
      <ellipse cx="1935.5" cy="915.9453" fill="#84BE84" rx="3" ry="3"
               style="stroke:#038048;stroke-width:1.0;"/>
      <text fill="#000000" font-family="sans-serif" font-size="14" lengthAdjust="spacing"
            textLength="218" x="1944.5" y="919.292">Reservation save(Reservation)
      </text>
      <ellipse cx="1935.5" cy="932.2422" fill="#84BE84" rx="3" ry="3"
               style="stroke:#038048;stroke-width:1.0;"/>
      <text fill="#000000" font-family="sans-serif" font-size="14" lengthAdjust="spacing"
            textLength="193" x="1944.5" y="935.5889">void submit(ReservationId)
      </text>
      <ellipse cx="1935.5" cy="948.5391" fill="#84BE84" rx="3" ry="3"
               style="stroke:#038048;stroke-width:1.0;"/>
      <text fill="#000000" font-family="sans-serif" font-size="14" lengthAdjust="spacing"
            textLength="199" x="1944.5" y="951.8857">void confirm(ReservationId)
      </text>
      <ellipse cx="1935.5" cy="964.8359" fill="#84BE84" rx="3" ry="3"
               style="stroke:#038048;stroke-width:1.0;"/>
      <text fill="#000000" font-family="sans-serif" font-size="14" lengthAdjust="spacing"
            textLength="181" x="1944.5" y="968.1826">void reset(ReservationId)
      </text>
    </g><!--class Reservation-->
    <g id="elem_Reservation">
      <rect codeLine="33" fill="#F1F1F1" height="80.5938" id="Reservation" rx="2.5" ry="2.5"
            style="stroke:#181818;stroke-width:0.5;" width="243" x="1980.5" y="1082"/>
      <ellipse cx="2054.75" cy="1098" fill="#ADD1B2" rx="11" ry="11"
               style="stroke:#181818;stroke-width:1.0;"/>
      <path
        d="M2057.0938,1093.6719 C2056.1563,1093.2344 2055.5625,1093.0938 2054.6875,1093.0938 C2052.0625,1093.0938 2050.0625,1095.1719 2050.0625,1097.8906 L2050.0625,1099.0156 C2050.0625,1101.5938 2052.1719,1103.4844 2055.0625,1103.4844 C2056.2813,1103.4844 2057.4375,1103.1875 2058.1875,1102.6406 C2058.7656,1102.2344 2059.0938,1101.7813 2059.0938,1101.3906 C2059.0938,1100.9375 2058.7031,1100.5469 2058.2344,1100.5469 C2058.0156,1100.5469 2057.8125,1100.625 2057.625,1100.8125 C2057.1719,1101.2969 2057.1719,1101.2969 2056.9844,1101.3906 C2056.5625,1101.6563 2055.875,1101.7813 2055.1094,1101.7813 C2053.0625,1101.7813 2051.7656,1100.6875 2051.7656,1098.9844 L2051.7656,1097.8906 C2051.7656,1096.1094 2053.0156,1094.7969 2054.75,1094.7969 C2055.3281,1094.7969 2055.9375,1094.9531 2056.4063,1095.2031 C2056.8906,1095.4844 2057.0625,1095.7031 2057.1563,1096.1094 C2057.2188,1096.5156 2057.25,1096.6406 2057.3906,1096.7656 C2057.5313,1096.9063 2057.7656,1097.0156 2057.9844,1097.0156 C2058.25,1097.0156 2058.5156,1096.875 2058.6875,1096.6563 C2058.7969,1096.5 2058.8281,1096.3125 2058.8281,1095.8906 L2058.8281,1094.4688 C2058.8281,1094.0313 2058.8125,1093.9063 2058.7188,1093.75 C2058.5625,1093.4844 2058.2813,1093.3438 2057.9844,1093.3438 C2057.6875,1093.3438 2057.4844,1093.4375 2057.2656,1093.75 L2057.0938,1093.6719 Z "
        fill="#000000"/>
      <text fill="#000000" font-family="sans-serif" font-size="14" lengthAdjust="spacing"
            textLength="86" x="2075.25" y="1102.8467">Reservation
      </text>
      <line style="stroke:#181818;stroke-width:0.5;" x1="1981.5" x2="2222.5" y1="1114" y2="1114"/>
      <line style="stroke:#181818;stroke-width:0.5;" x1="1981.5" x2="2222.5" y1="1122" y2="1122"/>
      <ellipse cx="1991.5" cy="1135.6484" fill="#84BE84" rx="3" ry="3"
               style="stroke:#038048;stroke-width:1.0;"/>
      <text fill="#000000" font-family="sans-serif" font-size="14" lengthAdjust="spacing"
            textLength="151" x="2000.5" y="1138.9951">ReservationId getId()
      </text>
      <ellipse cx="1991.5" cy="1151.9453" fill="#84BE84" rx="3" ry="3"
               style="stroke:#038048;stroke-width:1.0;"/>
      <text fill="#000000" font-family="sans-serif" font-size="14" lengthAdjust="spacing"
            textLength="217" x="2000.5" y="1155.292">ReservationStatus getStatus()
      </text>
    </g><!--class ReservationId-->
    <g id="elem_ReservationId">
      <rect codeLine="37" fill="#F1F1F1" height="64.2969" id="ReservationId" rx="2.5" ry="2.5"
            style="stroke:#181818;stroke-width:0.5;" width="131" x="1948.5" y="1247.5"/>
      <ellipse cx="1963.5" cy="1263.5" fill="#ADD1B2" rx="11" ry="11"
               style="stroke:#181818;stroke-width:1.0;"/>
      <path
        d="M1965.8438,1259.1719 C1964.9063,1258.7344 1964.3125,1258.5938 1963.4375,1258.5938 C1960.8125,1258.5938 1958.8125,1260.6719 1958.8125,1263.3906 L1958.8125,1264.5156 C1958.8125,1267.0938 1960.9219,1268.9844 1963.8125,1268.9844 C1965.0313,1268.9844 1966.1875,1268.6875 1966.9375,1268.1406 C1967.5156,1267.7344 1967.8438,1267.2813 1967.8438,1266.8906 C1967.8438,1266.4375 1967.4531,1266.0469 1966.9844,1266.0469 C1966.7656,1266.0469 1966.5625,1266.125 1966.375,1266.3125 C1965.9219,1266.7969 1965.9219,1266.7969 1965.7344,1266.8906 C1965.3125,1267.1563 1964.625,1267.2813 1963.8594,1267.2813 C1961.8125,1267.2813 1960.5156,1266.1875 1960.5156,1264.4844 L1960.5156,1263.3906 C1960.5156,1261.6094 1961.7656,1260.2969 1963.5,1260.2969 C1964.0781,1260.2969 1964.6875,1260.4531 1965.1563,1260.7031 C1965.6406,1260.9844 1965.8125,1261.2031 1965.9063,1261.6094 C1965.9688,1262.0156 1966,1262.1406 1966.1406,1262.2656 C1966.2813,1262.4063 1966.5156,1262.5156 1966.7344,1262.5156 C1967,1262.5156 1967.2656,1262.375 1967.4375,1262.1563 C1967.5469,1262 1967.5781,1261.8125 1967.5781,1261.3906 L1967.5781,1259.9688 C1967.5781,1259.5313 1967.5625,1259.4063 1967.4688,1259.25 C1967.3125,1258.9844 1967.0313,1258.8438 1966.7344,1258.8438 C1966.4375,1258.8438 1966.2344,1258.9375 1966.0156,1259.25 L1965.8438,1259.1719 Z "
        fill="#000000"/>
      <text fill="#000000" font-family="sans-serif" font-size="14" lengthAdjust="spacing"
            textLength="99" x="1977.5" y="1268.3467">ReservationId
      </text>
      <line style="stroke:#181818;stroke-width:0.5;" x1="1949.5" x2="2078.5" y1="1279.5"
            y2="1279.5"/>
      <line style="stroke:#181818;stroke-width:0.5;" x1="1949.5" x2="2078.5" y1="1287.5"
            y2="1287.5"/>
      <ellipse cx="1959.5" cy="1301.1484" fill="#84BE84" rx="3" ry="3"
               style="stroke:#038048;stroke-width:1.0;"/>
      <text fill="#000000" font-family="sans-serif" font-size="14" lengthAdjust="spacing"
            textLength="85" x="1968.5" y="1304.4951">UUID getId()
      </text>
    </g><!--class ReservationStatus-->
    <g id="elem_ReservationStatus">
      <rect codeLine="40" fill="#F1F1F1" height="113.1875" id="ReservationStatus" rx="2.5" ry="2.5"
            style="stroke:#181818;stroke-width:0.5;" width="361" x="2114.5" y="1223"/>
      <ellipse cx="2224.75" cy="1239" fill="#EB937F" rx="11" ry="11"
               style="stroke:#181818;stroke-width:1.0;"/>
      <path
        d="M2223.5469,1239.875 L2225,1239.875 L2225,1239.9844 C2225,1240.3906 2225.0313,1240.5469 2225.1094,1240.7031 C2225.2656,1240.9531 2225.5469,1241.1094 2225.8438,1241.1094 C2226.0938,1241.1094 2226.3594,1240.9688 2226.5156,1240.75 C2226.6406,1240.5938 2226.6719,1240.4375 2226.6719,1239.9844 L2226.6719,1238.0625 C2226.6719,1237.9063 2226.6719,1237.8594 2226.6563,1237.7031 C2226.5938,1237.2344 2226.2813,1236.9219 2225.8281,1236.9219 C2225.5781,1236.9219 2225.3125,1237.0625 2225.1406,1237.2813 C2225.0313,1237.4531 2225,1237.6094 2225,1238.0625 L2225,1238.1875 L2223.5469,1238.1875 L2223.5469,1235.7813 L2227.5313,1235.7813 L2227.5313,1236.6406 C2227.5313,1237.0469 2227.5625,1237.2188 2227.6406,1237.375 C2227.8125,1237.625 2228.0938,1237.7813 2228.375,1237.7813 C2228.6406,1237.7813 2228.9063,1237.6406 2229.0781,1237.4219 C2229.1875,1237.25 2229.2188,1237.1094 2229.2188,1236.6406 L2229.2188,1234.0938 L2221.5938,1234.0938 C2221.1563,1234.0938 2221.0313,1234.1094 2220.875,1234.2031 C2220.625,1234.3594 2220.4688,1234.6563 2220.4688,1234.9375 C2220.4688,1235.2188 2220.6094,1235.4688 2220.8281,1235.6406 C2220.9844,1235.75 2221.1719,1235.7813 2221.5938,1235.7813 L2221.8438,1235.7813 L2221.8438,1242.2969 L2221.5938,1242.2969 C2221.1875,1242.2969 2221.0313,1242.3125 2220.875,1242.4219 C2220.625,1242.5938 2220.4688,1242.8594 2220.4688,1243.1563 C2220.4688,1243.4219 2220.6094,1243.6719 2220.8281,1243.8281 C2220.9688,1243.9531 2221.2031,1244 2221.5938,1244 L2229.5938,1244 L2229.5938,1241.4219 C2229.5938,1240.9844 2229.5625,1240.8438 2229.4844,1240.6875 C2229.3125,1240.4375 2229.0313,1240.2813 2228.75,1240.2813 C2228.4844,1240.2813 2228.2188,1240.3906 2228.0469,1240.6406 C2227.9375,1240.7969 2227.9063,1240.9375 2227.9063,1241.4219 L2227.9063,1242.2969 L2223.5469,1242.2969 L2223.5469,1239.875 Z "
        fill="#000000"/>
      <text fill="#000000" font-family="sans-serif" font-size="14" lengthAdjust="spacing"
            textLength="132" x="2245.25" y="1243.8467">ReservationStatus
      </text>
      <line style="stroke:#181818;stroke-width:0.5;" x1="2115.5" x2="2474.5" y1="1255" y2="1255"/>
      <text fill="#000000" font-family="sans-serif" font-size="14" lengthAdjust="spacing"
            textLength="53" x="2120.5" y="1271.9951">SUBMIT
      </text>
      <text fill="#000000" font-family="sans-serif" font-size="14" lengthAdjust="spacing"
            textLength="65" x="2120.5" y="1288.292">CONFIRM
      </text>
      <text fill="#000000" font-family="sans-serif" font-size="14" lengthAdjust="spacing"
            textLength="46" x="2120.5" y="1304.5889">RESET
      </text>
      <line style="stroke:#181818;stroke-width:0.5;" x1="2115.5" x2="2474.5" y1="1311.8906"
            y2="1311.8906"/>
      <ellipse cx="2125.5" cy="1325.5391" fill="#84BE84" rx="3" ry="3"
               style="stroke:#038048;stroke-width:1.0;"/>
      <text fill="#000000" font-family="sans-serif" font-size="14" lengthAdjust="spacing"
            text-decoration="underline" textLength="335" x="2134.5" y="1328.8857">EnumEntries&lt;ReservationStatus&gt;
        getEntries()
      </text>
    </g><!--class Trip-->
    <g id="elem_Trip">
      <rect codeLine="47" fill="#F1F1F1" height="162.0781" id="Trip" rx="2.5" ry="2.5"
            style="stroke:#181818;stroke-width:0.5;" width="226" x="94" y="563"/>
      <ellipse cx="188.25" cy="579" fill="#ADD1B2" rx="11" ry="11"
               style="stroke:#181818;stroke-width:1.0;"/>
      <path
        d="M190.5938,574.6719 C189.6563,574.2344 189.0625,574.0938 188.1875,574.0938 C185.5625,574.0938 183.5625,576.1719 183.5625,578.8906 L183.5625,580.0156 C183.5625,582.5938 185.6719,584.4844 188.5625,584.4844 C189.7813,584.4844 190.9375,584.1875 191.6875,583.6406 C192.2656,583.2344 192.5938,582.7813 192.5938,582.3906 C192.5938,581.9375 192.2031,581.5469 191.7344,581.5469 C191.5156,581.5469 191.3125,581.625 191.125,581.8125 C190.6719,582.2969 190.6719,582.2969 190.4844,582.3906 C190.0625,582.6563 189.375,582.7813 188.6094,582.7813 C186.5625,582.7813 185.2656,581.6875 185.2656,579.9844 L185.2656,578.8906 C185.2656,577.1094 186.5156,575.7969 188.25,575.7969 C188.8281,575.7969 189.4375,575.9531 189.9063,576.2031 C190.3906,576.4844 190.5625,576.7031 190.6563,577.1094 C190.7188,577.5156 190.75,577.6406 190.8906,577.7656 C191.0313,577.9063 191.2656,578.0156 191.4844,578.0156 C191.75,578.0156 192.0156,577.875 192.1875,577.6563 C192.2969,577.5 192.3281,577.3125 192.3281,576.8906 L192.3281,575.4688 C192.3281,575.0313 192.3125,574.9063 192.2188,574.75 C192.0625,574.4844 191.7813,574.3438 191.4844,574.3438 C191.1875,574.3438 190.9844,574.4375 190.7656,574.75 L190.5938,574.6719 Z "
        fill="#000000"/>
      <text fill="#000000" font-family="sans-serif" font-size="14" lengthAdjust="spacing"
            textLength="29" x="208.75" y="583.8467">Trip
      </text>
      <line style="stroke:#181818;stroke-width:0.5;" x1="95" x2="319" y1="595" y2="595"/>
      <line style="stroke:#181818;stroke-width:0.5;" x1="95" x2="319" y1="603" y2="603"/>
      <ellipse cx="105" cy="616.6484" fill="#84BE84" rx="3" ry="3"
               style="stroke:#038048;stroke-width:1.0;"/>
      <text fill="#000000" font-family="sans-serif" font-size="14" lengthAdjust="spacing"
            textLength="94" x="114" y="619.9951">TripId getId()
      </text>
      <ellipse cx="105" cy="632.9453" fill="#84BE84" rx="3" ry="3"
               style="stroke:#038048;stroke-width:1.0;"/>
      <text fill="#000000" font-family="sans-serif" font-size="14" lengthAdjust="spacing"
            textLength="135" x="114" y="636.292">Station getOrigin()
      </text>
      <ellipse cx="105" cy="649.2422" fill="#84BE84" rx="3" ry="3"
               style="stroke:#038048;stroke-width:1.0;"/>
      <text fill="#000000" font-family="sans-serif" font-size="14" lengthAdjust="spacing"
            textLength="176" x="114" y="652.5889">Station getDestination()
      </text>
      <ellipse cx="105" cy="665.5391" fill="#84BE84" rx="3" ry="3"
               style="stroke:#038048;stroke-width:1.0;"/>
      <text fill="#000000" font-family="sans-serif" font-size="14" lengthAdjust="spacing"
            textLength="200" x="114" y="668.8857">List&lt;Station&gt; getStations()
      </text>
      <ellipse cx="105" cy="681.8359" fill="#84BE84" rx="3" ry="3"
               style="stroke:#038048;stroke-width:1.0;"/>
      <text fill="#000000" font-family="sans-serif" font-size="14" lengthAdjust="spacing"
            textLength="111" x="114" y="685.1826">Train getTrain()
      </text>
      <ellipse cx="105" cy="698.1328" fill="#84BE84" rx="3" ry="3"
               style="stroke:#038048;stroke-width:1.0;"/>
      <text fill="#000000" font-family="sans-serif" font-size="14" lengthAdjust="spacing"
            textLength="105" x="114" y="701.4795">Seat getSeat()
      </text>
      <ellipse cx="105" cy="714.4297" fill="#84BE84" rx="3" ry="3"
               style="stroke:#038048;stroke-width:1.0;"/>
      <text fill="#000000" font-family="sans-serif" font-size="14" lengthAdjust="spacing"
            textLength="137" x="114" y="717.7764">Wagon getWagon()
      </text>
    </g><!--class TripId-->
    <g id="elem_TripId">
      <rect codeLine="56" fill="#F1F1F1" height="64.2969" id="TripId" rx="2.5" ry="2.5"
            style="stroke:#181818;stroke-width:0.5;" width="111" x="151.5" y="878.5"/>
      <ellipse cx="183.15" cy="894.5" fill="#ADD1B2" rx="11" ry="11"
               style="stroke:#181818;stroke-width:1.0;"/>
      <path
        d="M185.4938,890.1719 C184.5563,889.7344 183.9625,889.5938 183.0875,889.5938 C180.4625,889.5938 178.4625,891.6719 178.4625,894.3906 L178.4625,895.5156 C178.4625,898.0938 180.5719,899.9844 183.4625,899.9844 C184.6813,899.9844 185.8375,899.6875 186.5875,899.1406 C187.1656,898.7344 187.4938,898.2813 187.4938,897.8906 C187.4938,897.4375 187.1031,897.0469 186.6344,897.0469 C186.4156,897.0469 186.2125,897.125 186.025,897.3125 C185.5719,897.7969 185.5719,897.7969 185.3844,897.8906 C184.9625,898.1563 184.275,898.2813 183.5094,898.2813 C181.4625,898.2813 180.1656,897.1875 180.1656,895.4844 L180.1656,894.3906 C180.1656,892.6094 181.4156,891.2969 183.15,891.2969 C183.7281,891.2969 184.3375,891.4531 184.8063,891.7031 C185.2906,891.9844 185.4625,892.2031 185.5563,892.6094 C185.6188,893.0156 185.65,893.1406 185.7906,893.2656 C185.9313,893.4063 186.1656,893.5156 186.3844,893.5156 C186.65,893.5156 186.9156,893.375 187.0875,893.1563 C187.1969,893 187.2281,892.8125 187.2281,892.3906 L187.2281,890.9688 C187.2281,890.5313 187.2125,890.4063 187.1188,890.25 C186.9625,889.9844 186.6813,889.8438 186.3844,889.8438 C186.0875,889.8438 185.8844,889.9375 185.6656,890.25 L185.4938,890.1719 Z "
        fill="#000000"/>
      <text fill="#000000" font-family="sans-serif" font-size="14" lengthAdjust="spacing"
            textLength="42" x="200.85" y="899.3467">TripId
      </text>
      <line style="stroke:#181818;stroke-width:0.5;" x1="152.5" x2="261.5" y1="910.5" y2="910.5"/>
      <line style="stroke:#181818;stroke-width:0.5;" x1="152.5" x2="261.5" y1="918.5" y2="918.5"/>
      <ellipse cx="162.5" cy="932.1484" fill="#84BE84" rx="3" ry="3"
               style="stroke:#038048;stroke-width:1.0;"/>
      <text fill="#000000" font-family="sans-serif" font-size="14" lengthAdjust="spacing"
            textLength="85" x="171.5" y="935.4951">UUID getId()
      </text>
    </g><!--class Station-->
    <g id="elem_Station">
      <rect codeLine="59" fill="#F1F1F1" height="80.5938" id="Station" rx="2.5" ry="2.5"
            style="stroke:#181818;stroke-width:0.5;" width="150" x="376" y="870"/>
      <ellipse cx="420.25" cy="886" fill="#ADD1B2" rx="11" ry="11"
               style="stroke:#181818;stroke-width:1.0;"/>
      <path
        d="M422.5938,881.6719 C421.6563,881.2344 421.0625,881.0938 420.1875,881.0938 C417.5625,881.0938 415.5625,883.1719 415.5625,885.8906 L415.5625,887.0156 C415.5625,889.5938 417.6719,891.4844 420.5625,891.4844 C421.7813,891.4844 422.9375,891.1875 423.6875,890.6406 C424.2656,890.2344 424.5938,889.7813 424.5938,889.3906 C424.5938,888.9375 424.2031,888.5469 423.7344,888.5469 C423.5156,888.5469 423.3125,888.625 423.125,888.8125 C422.6719,889.2969 422.6719,889.2969 422.4844,889.3906 C422.0625,889.6563 421.375,889.7813 420.6094,889.7813 C418.5625,889.7813 417.2656,888.6875 417.2656,886.9844 L417.2656,885.8906 C417.2656,884.1094 418.5156,882.7969 420.25,882.7969 C420.8281,882.7969 421.4375,882.9531 421.9063,883.2031 C422.3906,883.4844 422.5625,883.7031 422.6563,884.1094 C422.7188,884.5156 422.75,884.6406 422.8906,884.7656 C423.0313,884.9063 423.2656,885.0156 423.4844,885.0156 C423.75,885.0156 424.0156,884.875 424.1875,884.6563 C424.2969,884.5 424.3281,884.3125 424.3281,883.8906 L424.3281,882.4688 C424.3281,882.0313 424.3125,881.9063 424.2188,881.75 C424.0625,881.4844 423.7813,881.3438 423.4844,881.3438 C423.1875,881.3438 422.9844,881.4375 422.7656,881.75 L422.5938,881.6719 Z "
        fill="#000000"/>
      <text fill="#000000" font-family="sans-serif" font-size="14" lengthAdjust="spacing"
            textLength="53" x="440.75" y="890.8467">Station
      </text>
      <line style="stroke:#181818;stroke-width:0.5;" x1="377" x2="525" y1="902" y2="902"/>
      <line style="stroke:#181818;stroke-width:0.5;" x1="377" x2="525" y1="910" y2="910"/>
      <ellipse cx="387" cy="923.6484" fill="#84BE84" rx="3" ry="3"
               style="stroke:#038048;stroke-width:1.0;"/>
      <text fill="#000000" font-family="sans-serif" font-size="14" lengthAdjust="spacing"
            textLength="118" x="396" y="926.9951">StationId getId()
      </text>
      <ellipse cx="387" cy="939.9453" fill="#84BE84" rx="3" ry="3"
               style="stroke:#038048;stroke-width:1.0;"/>
      <text fill="#000000" font-family="sans-serif" font-size="14" lengthAdjust="spacing"
            textLength="124" x="396" y="943.292">String getName()
      </text>
    </g><!--class StationId-->
    <g id="elem_StationId">
      <rect codeLine="63" fill="#F1F1F1" height="64.2969" id="StationId" rx="2.5" ry="2.5"
            style="stroke:#181818;stroke-width:0.5;" width="111" x="395.5" y="1090.5"/>
      <ellipse cx="416.35" cy="1106.5" fill="#ADD1B2" rx="11" ry="11"
               style="stroke:#181818;stroke-width:1.0;"/>
      <path
        d="M418.6938,1102.1719 C417.7563,1101.7344 417.1625,1101.5938 416.2875,1101.5938 C413.6625,1101.5938 411.6625,1103.6719 411.6625,1106.3906 L411.6625,1107.5156 C411.6625,1110.0938 413.7719,1111.9844 416.6625,1111.9844 C417.8813,1111.9844 419.0375,1111.6875 419.7875,1111.1406 C420.3656,1110.7344 420.6938,1110.2813 420.6938,1109.8906 C420.6938,1109.4375 420.3031,1109.0469 419.8344,1109.0469 C419.6156,1109.0469 419.4125,1109.125 419.225,1109.3125 C418.7719,1109.7969 418.7719,1109.7969 418.5844,1109.8906 C418.1625,1110.1563 417.475,1110.2813 416.7094,1110.2813 C414.6625,1110.2813 413.3656,1109.1875 413.3656,1107.4844 L413.3656,1106.3906 C413.3656,1104.6094 414.6156,1103.2969 416.35,1103.2969 C416.9281,1103.2969 417.5375,1103.4531 418.0063,1103.7031 C418.4906,1103.9844 418.6625,1104.2031 418.7563,1104.6094 C418.8188,1105.0156 418.85,1105.1406 418.9906,1105.2656 C419.1313,1105.4063 419.3656,1105.5156 419.5844,1105.5156 C419.85,1105.5156 420.1156,1105.375 420.2875,1105.1563 C420.3969,1105 420.4281,1104.8125 420.4281,1104.3906 L420.4281,1102.9688 C420.4281,1102.5313 420.4125,1102.4063 420.3188,1102.25 C420.1625,1101.9844 419.8813,1101.8438 419.5844,1101.8438 C419.2875,1101.8438 419.0844,1101.9375 418.8656,1102.25 L418.6938,1102.1719 Z "
        fill="#000000"/>
      <text fill="#000000" font-family="sans-serif" font-size="14" lengthAdjust="spacing"
            textLength="66" x="431.65" y="1111.3467">StationId
      </text>
      <line style="stroke:#181818;stroke-width:0.5;" x1="396.5" x2="505.5" y1="1122.5" y2="1122.5"/>
      <line style="stroke:#181818;stroke-width:0.5;" x1="396.5" x2="505.5" y1="1130.5" y2="1130.5"/>
      <ellipse cx="406.5" cy="1144.1484" fill="#84BE84" rx="3" ry="3"
               style="stroke:#038048;stroke-width:1.0;"/>
      <text fill="#000000" font-family="sans-serif" font-size="14" lengthAdjust="spacing"
            textLength="85" x="415.5" y="1147.4951">UUID getId()
      </text>
    </g><!--class Train-->
    <g id="elem_Train">
      <rect codeLine="66" fill="#F1F1F1" height="80.5938" id="Train" rx="2.5" ry="2.5"
            style="stroke:#181818;stroke-width:0.5;" width="150" x="1652" y="870"/>
      <ellipse cx="1704.75" cy="886" fill="#ADD1B2" rx="11" ry="11"
               style="stroke:#181818;stroke-width:1.0;"/>
      <path
        d="M1707.0938,881.6719 C1706.1563,881.2344 1705.5625,881.0938 1704.6875,881.0938 C1702.0625,881.0938 1700.0625,883.1719 1700.0625,885.8906 L1700.0625,887.0156 C1700.0625,889.5938 1702.1719,891.4844 1705.0625,891.4844 C1706.2813,891.4844 1707.4375,891.1875 1708.1875,890.6406 C1708.7656,890.2344 1709.0938,889.7813 1709.0938,889.3906 C1709.0938,888.9375 1708.7031,888.5469 1708.2344,888.5469 C1708.0156,888.5469 1707.8125,888.625 1707.625,888.8125 C1707.1719,889.2969 1707.1719,889.2969 1706.9844,889.3906 C1706.5625,889.6563 1705.875,889.7813 1705.1094,889.7813 C1703.0625,889.7813 1701.7656,888.6875 1701.7656,886.9844 L1701.7656,885.8906 C1701.7656,884.1094 1703.0156,882.7969 1704.75,882.7969 C1705.3281,882.7969 1705.9375,882.9531 1706.4063,883.2031 C1706.8906,883.4844 1707.0625,883.7031 1707.1563,884.1094 C1707.2188,884.5156 1707.25,884.6406 1707.3906,884.7656 C1707.5313,884.9063 1707.7656,885.0156 1707.9844,885.0156 C1708.25,885.0156 1708.5156,884.875 1708.6875,884.6563 C1708.7969,884.5 1708.8281,884.3125 1708.8281,883.8906 L1708.8281,882.4688 C1708.8281,882.0313 1708.8125,881.9063 1708.7188,881.75 C1708.5625,881.4844 1708.2813,881.3438 1707.9844,881.3438 C1707.6875,881.3438 1707.4844,881.4375 1707.2656,881.75 L1707.0938,881.6719 Z "
        fill="#000000"/>
      <text fill="#000000" font-family="sans-serif" font-size="14" lengthAdjust="spacing"
            textLength="36" x="1725.25" y="890.8467">Train
      </text>
      <line style="stroke:#181818;stroke-width:0.5;" x1="1653" x2="1801" y1="902" y2="902"/>
      <line style="stroke:#181818;stroke-width:0.5;" x1="1653" x2="1801" y1="910" y2="910"/>
      <ellipse cx="1663" cy="923.6484" fill="#84BE84" rx="3" ry="3"
               style="stroke:#038048;stroke-width:1.0;"/>
      <text fill="#000000" font-family="sans-serif" font-size="14" lengthAdjust="spacing"
            textLength="88" x="1672" y="926.9951">Train getId()
      </text>
      <ellipse cx="1663" cy="939.9453" fill="#84BE84" rx="3" ry="3"
               style="stroke:#038048;stroke-width:1.0;"/>
      <text fill="#000000" font-family="sans-serif" font-size="14" lengthAdjust="spacing"
            textLength="124" x="1672" y="943.292">String getName()
      </text>
    </g><!--class TrainId-->
    <g id="elem_TrainId">
      <rect codeLine="70" fill="#F1F1F1" height="64.2969" id="TrainId" rx="2.5" ry="2.5"
            style="stroke:#181818;stroke-width:0.5;" width="111" x="1505.5" y="878.5"/>
      <ellipse cx="1534" cy="894.5" fill="#ADD1B2" rx="11" ry="11"
               style="stroke:#181818;stroke-width:1.0;"/>
      <path
        d="M1536.3438,890.1719 C1535.4063,889.7344 1534.8125,889.5938 1533.9375,889.5938 C1531.3125,889.5938 1529.3125,891.6719 1529.3125,894.3906 L1529.3125,895.5156 C1529.3125,898.0938 1531.4219,899.9844 1534.3125,899.9844 C1535.5313,899.9844 1536.6875,899.6875 1537.4375,899.1406 C1538.0156,898.7344 1538.3438,898.2813 1538.3438,897.8906 C1538.3438,897.4375 1537.9531,897.0469 1537.4844,897.0469 C1537.2656,897.0469 1537.0625,897.125 1536.875,897.3125 C1536.4219,897.7969 1536.4219,897.7969 1536.2344,897.8906 C1535.8125,898.1563 1535.125,898.2813 1534.3594,898.2813 C1532.3125,898.2813 1531.0156,897.1875 1531.0156,895.4844 L1531.0156,894.3906 C1531.0156,892.6094 1532.2656,891.2969 1534,891.2969 C1534.5781,891.2969 1535.1875,891.4531 1535.6563,891.7031 C1536.1406,891.9844 1536.3125,892.2031 1536.4063,892.6094 C1536.4688,893.0156 1536.5,893.1406 1536.6406,893.2656 C1536.7813,893.4063 1537.0156,893.5156 1537.2344,893.5156 C1537.5,893.5156 1537.7656,893.375 1537.9375,893.1563 C1538.0469,893 1538.0781,892.8125 1538.0781,892.3906 L1538.0781,890.9688 C1538.0781,890.5313 1538.0625,890.4063 1537.9688,890.25 C1537.8125,889.9844 1537.5313,889.8438 1537.2344,889.8438 C1536.9375,889.8438 1536.7344,889.9375 1536.5156,890.25 L1536.3438,890.1719 Z "
        fill="#000000"/>
      <text fill="#000000" font-family="sans-serif" font-size="14" lengthAdjust="spacing"
            textLength="49" x="1551" y="899.3467">TrainId
      </text>
      <line style="stroke:#181818;stroke-width:0.5;" x1="1506.5" x2="1615.5" y1="910.5" y2="910.5"/>
      <line style="stroke:#181818;stroke-width:0.5;" x1="1506.5" x2="1615.5" y1="918.5" y2="918.5"/>
      <ellipse cx="1516.5" cy="932.1484" fill="#84BE84" rx="3" ry="3"
               style="stroke:#038048;stroke-width:1.0;"/>
      <text fill="#000000" font-family="sans-serif" font-size="14" lengthAdjust="spacing"
            textLength="85" x="1525.5" y="935.4951">UUID getId()
      </text>
    </g><!--class Wagon-->
    <g id="elem_Wagon">
      <rect codeLine="73" fill="#F1F1F1" height="96.8906" id="Wagon" rx="2.5" ry="2.5"
            style="stroke:#181818;stroke-width:0.5;" width="166" x="1241" y="862"/>
      <ellipse cx="1295.25" cy="878" fill="#ADD1B2" rx="11" ry="11"
               style="stroke:#181818;stroke-width:1.0;"/>
      <path
        d="M1297.5938,873.6719 C1296.6563,873.2344 1296.0625,873.0938 1295.1875,873.0938 C1292.5625,873.0938 1290.5625,875.1719 1290.5625,877.8906 L1290.5625,879.0156 C1290.5625,881.5938 1292.6719,883.4844 1295.5625,883.4844 C1296.7813,883.4844 1297.9375,883.1875 1298.6875,882.6406 C1299.2656,882.2344 1299.5938,881.7813 1299.5938,881.3906 C1299.5938,880.9375 1299.2031,880.5469 1298.7344,880.5469 C1298.5156,880.5469 1298.3125,880.625 1298.125,880.8125 C1297.6719,881.2969 1297.6719,881.2969 1297.4844,881.3906 C1297.0625,881.6563 1296.375,881.7813 1295.6094,881.7813 C1293.5625,881.7813 1292.2656,880.6875 1292.2656,878.9844 L1292.2656,877.8906 C1292.2656,876.1094 1293.5156,874.7969 1295.25,874.7969 C1295.8281,874.7969 1296.4375,874.9531 1296.9063,875.2031 C1297.3906,875.4844 1297.5625,875.7031 1297.6563,876.1094 C1297.7188,876.5156 1297.75,876.6406 1297.8906,876.7656 C1298.0313,876.9063 1298.2656,877.0156 1298.4844,877.0156 C1298.75,877.0156 1299.0156,876.875 1299.1875,876.6563 C1299.2969,876.5 1299.3281,876.3125 1299.3281,875.8906 L1299.3281,874.4688 C1299.3281,874.0313 1299.3125,873.9063 1299.2188,873.75 C1299.0625,873.4844 1298.7813,873.3438 1298.4844,873.3438 C1298.1875,873.3438 1297.9844,873.4375 1297.7656,873.75 L1297.5938,873.6719 Z "
        fill="#000000"/>
      <text fill="#000000" font-family="sans-serif" font-size="14" lengthAdjust="spacing"
            textLength="49" x="1315.75" y="882.8467">Wagon
      </text>
      <line style="stroke:#181818;stroke-width:0.5;" x1="1242" x2="1406" y1="894" y2="894"/>
      <line style="stroke:#181818;stroke-width:0.5;" x1="1242" x2="1406" y1="902" y2="902"/>
      <ellipse cx="1252" cy="915.6484" fill="#84BE84" rx="3" ry="3"
               style="stroke:#038048;stroke-width:1.0;"/>
      <text fill="#000000" font-family="sans-serif" font-size="14" lengthAdjust="spacing"
            textLength="101" x="1261" y="918.9951">Wagon getId()
      </text>
      <ellipse cx="1252" cy="931.9453" fill="#84BE84" rx="3" ry="3"
               style="stroke:#038048;stroke-width:1.0;"/>
      <text fill="#000000" font-family="sans-serif" font-size="14" lengthAdjust="spacing"
            textLength="124" x="1261" y="935.292">String getName()
      </text>
      <ellipse cx="1252" cy="948.2422" fill="#84BE84" rx="3" ry="3"
               style="stroke:#038048;stroke-width:1.0;"/>
      <text fill="#000000" font-family="sans-serif" font-size="14" lengthAdjust="spacing"
            textLength="140" x="1261" y="951.5889">String getNumber()
      </text>
    </g><!--class WagonId-->
    <g id="elem_WagonId">
      <rect codeLine="78" fill="#F1F1F1" height="64.2969" id="WagonId" rx="2.5" ry="2.5"
            style="stroke:#181818;stroke-width:0.5;" width="111" x="1094.5" y="878.5"/>
      <ellipse cx="1117.15" cy="894.5" fill="#ADD1B2" rx="11" ry="11"
               style="stroke:#181818;stroke-width:1.0;"/>
      <path
        d="M1119.4938,890.1719 C1118.5563,889.7344 1117.9625,889.5938 1117.0875,889.5938 C1114.4625,889.5938 1112.4625,891.6719 1112.4625,894.3906 L1112.4625,895.5156 C1112.4625,898.0938 1114.5719,899.9844 1117.4625,899.9844 C1118.6813,899.9844 1119.8375,899.6875 1120.5875,899.1406 C1121.1656,898.7344 1121.4938,898.2813 1121.4938,897.8906 C1121.4938,897.4375 1121.1031,897.0469 1120.6344,897.0469 C1120.4156,897.0469 1120.2125,897.125 1120.025,897.3125 C1119.5719,897.7969 1119.5719,897.7969 1119.3844,897.8906 C1118.9625,898.1563 1118.275,898.2813 1117.5094,898.2813 C1115.4625,898.2813 1114.1656,897.1875 1114.1656,895.4844 L1114.1656,894.3906 C1114.1656,892.6094 1115.4156,891.2969 1117.15,891.2969 C1117.7281,891.2969 1118.3375,891.4531 1118.8063,891.7031 C1119.2906,891.9844 1119.4625,892.2031 1119.5563,892.6094 C1119.6188,893.0156 1119.65,893.1406 1119.7906,893.2656 C1119.9313,893.4063 1120.1656,893.5156 1120.3844,893.5156 C1120.65,893.5156 1120.9156,893.375 1121.0875,893.1563 C1121.1969,893 1121.2281,892.8125 1121.2281,892.3906 L1121.2281,890.9688 C1121.2281,890.5313 1121.2125,890.4063 1121.1188,890.25 C1120.9625,889.9844 1120.6813,889.8438 1120.3844,889.8438 C1120.0875,889.8438 1119.8844,889.9375 1119.6656,890.25 L1119.4938,890.1719 Z "
        fill="#000000"/>
      <text fill="#000000" font-family="sans-serif" font-size="14" lengthAdjust="spacing"
            textLength="62" x="1132.85" y="899.3467">WagonId
      </text>
      <line style="stroke:#181818;stroke-width:0.5;" x1="1095.5" x2="1204.5" y1="910.5" y2="910.5"/>
      <line style="stroke:#181818;stroke-width:0.5;" x1="1095.5" x2="1204.5" y1="918.5" y2="918.5"/>
      <ellipse cx="1105.5" cy="932.1484" fill="#84BE84" rx="3" ry="3"
               style="stroke:#038048;stroke-width:1.0;"/>
      <text fill="#000000" font-family="sans-serif" font-size="14" lengthAdjust="spacing"
            textLength="85" x="1114.5" y="935.4951">UUID getId()
      </text>
    </g><!--class Seat-->
    <g id="elem_Seat">
      <rect codeLine="81" fill="#F1F1F1" height="80.5938" id="Seat" rx="2.5" ry="2.5"
            style="stroke:#181818;stroke-width:0.5;" width="150" x="870" y="870"/>
      <ellipse cx="924.25" cy="886" fill="#ADD1B2" rx="11" ry="11"
               style="stroke:#181818;stroke-width:1.0;"/>
      <path
        d="M926.5938,881.6719 C925.6563,881.2344 925.0625,881.0938 924.1875,881.0938 C921.5625,881.0938 919.5625,883.1719 919.5625,885.8906 L919.5625,887.0156 C919.5625,889.5938 921.6719,891.4844 924.5625,891.4844 C925.7813,891.4844 926.9375,891.1875 927.6875,890.6406 C928.2656,890.2344 928.5938,889.7813 928.5938,889.3906 C928.5938,888.9375 928.2031,888.5469 927.7344,888.5469 C927.5156,888.5469 927.3125,888.625 927.125,888.8125 C926.6719,889.2969 926.6719,889.2969 926.4844,889.3906 C926.0625,889.6563 925.375,889.7813 924.6094,889.7813 C922.5625,889.7813 921.2656,888.6875 921.2656,886.9844 L921.2656,885.8906 C921.2656,884.1094 922.5156,882.7969 924.25,882.7969 C924.8281,882.7969 925.4375,882.9531 925.9063,883.2031 C926.3906,883.4844 926.5625,883.7031 926.6563,884.1094 C926.7188,884.5156 926.75,884.6406 926.8906,884.7656 C927.0313,884.9063 927.2656,885.0156 927.4844,885.0156 C927.75,885.0156 928.0156,884.875 928.1875,884.6563 C928.2969,884.5 928.3281,884.3125 928.3281,883.8906 L928.3281,882.4688 C928.3281,882.0313 928.3125,881.9063 928.2188,881.75 C928.0625,881.4844 927.7813,881.3438 927.4844,881.3438 C927.1875,881.3438 926.9844,881.4375 926.7656,881.75 L926.5938,881.6719 Z "
        fill="#000000"/>
      <text fill="#000000" font-family="sans-serif" font-size="14" lengthAdjust="spacing"
            textLength="33" x="944.75" y="890.8467">Seat
      </text>
      <line style="stroke:#181818;stroke-width:0.5;" x1="871" x2="1019" y1="902" y2="902"/>
      <line style="stroke:#181818;stroke-width:0.5;" x1="871" x2="1019" y1="910" y2="910"/>
      <ellipse cx="881" cy="923.6484" fill="#84BE84" rx="3" ry="3"
               style="stroke:#038048;stroke-width:1.0;"/>
      <text fill="#000000" font-family="sans-serif" font-size="14" lengthAdjust="spacing"
            textLength="85" x="890" y="926.9951">Seat getId()
      </text>
      <ellipse cx="881" cy="939.9453" fill="#84BE84" rx="3" ry="3"
               style="stroke:#038048;stroke-width:1.0;"/>
      <text fill="#000000" font-family="sans-serif" font-size="14" lengthAdjust="spacing"
            textLength="124" x="890" y="943.292">String getName()
      </text>
    </g><!--class SeatId-->
    <g id="elem_SeatId">
      <rect codeLine="85" fill="#F1F1F1" height="64.2969" id="SeatId" rx="2.5" ry="2.5"
            style="stroke:#181818;stroke-width:0.5;" width="111" x="723.5" y="878.5"/>
      <ellipse cx="753.35" cy="894.5" fill="#ADD1B2" rx="11" ry="11"
               style="stroke:#181818;stroke-width:1.0;"/>
      <path
        d="M755.6938,890.1719 C754.7563,889.7344 754.1625,889.5938 753.2875,889.5938 C750.6625,889.5938 748.6625,891.6719 748.6625,894.3906 L748.6625,895.5156 C748.6625,898.0938 750.7719,899.9844 753.6625,899.9844 C754.8813,899.9844 756.0375,899.6875 756.7875,899.1406 C757.3656,898.7344 757.6938,898.2813 757.6938,897.8906 C757.6938,897.4375 757.3031,897.0469 756.8344,897.0469 C756.6156,897.0469 756.4125,897.125 756.225,897.3125 C755.7719,897.7969 755.7719,897.7969 755.5844,897.8906 C755.1625,898.1563 754.475,898.2813 753.7094,898.2813 C751.6625,898.2813 750.3656,897.1875 750.3656,895.4844 L750.3656,894.3906 C750.3656,892.6094 751.6156,891.2969 753.35,891.2969 C753.9281,891.2969 754.5375,891.4531 755.0063,891.7031 C755.4906,891.9844 755.6625,892.2031 755.7563,892.6094 C755.8188,893.0156 755.85,893.1406 755.9906,893.2656 C756.1313,893.4063 756.3656,893.5156 756.5844,893.5156 C756.85,893.5156 757.1156,893.375 757.2875,893.1563 C757.3969,893 757.4281,892.8125 757.4281,892.3906 L757.4281,890.9688 C757.4281,890.5313 757.4125,890.4063 757.3188,890.25 C757.1625,889.9844 756.8813,889.8438 756.5844,889.8438 C756.2875,889.8438 756.0844,889.9375 755.8656,890.25 L755.6938,890.1719 Z "
        fill="#000000"/>
      <text fill="#000000" font-family="sans-serif" font-size="14" lengthAdjust="spacing"
            textLength="46" x="770.65" y="899.3467">SeatId
      </text>
      <line style="stroke:#181818;stroke-width:0.5;" x1="724.5" x2="833.5" y1="910.5" y2="910.5"/>
      <line style="stroke:#181818;stroke-width:0.5;" x1="724.5" x2="833.5" y1="918.5" y2="918.5"/>
      <ellipse cx="734.5" cy="932.1484" fill="#84BE84" rx="3" ry="3"
               style="stroke:#038048;stroke-width:1.0;"/>
      <text fill="#000000" font-family="sans-serif" font-size="14" lengthAdjust="spacing"
            textLength="85" x="743.5" y="935.4951">UUID getId()
      </text>
    </g><!--class ResetReservationService-->
    <g id="elem_ResetReservationService">
      <rect codeLine="88" fill="#F1F1F1" height="121.1875" id="ResetReservationService" rx="2.5"
            ry="2.5" style="stroke:#181818;stroke-width:0.5;" width="435" x="1564.5" y="84"/>
      <ellipse cx="1687.25" cy="100" fill="#ADD1B2" rx="11" ry="11"
               style="stroke:#181818;stroke-width:1.0;"/>
      <path
        d="M1689.5938,95.6719 C1688.6563,95.2344 1688.0625,95.0938 1687.1875,95.0938 C1684.5625,95.0938 1682.5625,97.1719 1682.5625,99.8906 L1682.5625,101.0156 C1682.5625,103.5938 1684.6719,105.4844 1687.5625,105.4844 C1688.7813,105.4844 1689.9375,105.1875 1690.6875,104.6406 C1691.2656,104.2344 1691.5938,103.7813 1691.5938,103.3906 C1691.5938,102.9375 1691.2031,102.5469 1690.7344,102.5469 C1690.5156,102.5469 1690.3125,102.625 1690.125,102.8125 C1689.6719,103.2969 1689.6719,103.2969 1689.4844,103.3906 C1689.0625,103.6563 1688.375,103.7813 1687.6094,103.7813 C1685.5625,103.7813 1684.2656,102.6875 1684.2656,100.9844 L1684.2656,99.8906 C1684.2656,98.1094 1685.5156,96.7969 1687.25,96.7969 C1687.8281,96.7969 1688.4375,96.9531 1688.9063,97.2031 C1689.3906,97.4844 1689.5625,97.7031 1689.6563,98.1094 C1689.7188,98.5156 1689.75,98.6406 1689.8906,98.7656 C1690.0313,98.9063 1690.2656,99.0156 1690.4844,99.0156 C1690.75,99.0156 1691.0156,98.875 1691.1875,98.6563 C1691.2969,98.5 1691.3281,98.3125 1691.3281,97.8906 L1691.3281,96.4688 C1691.3281,96.0313 1691.3125,95.9063 1691.2188,95.75 C1691.0625,95.4844 1690.7813,95.3438 1690.4844,95.3438 C1690.1875,95.3438 1689.9844,95.4375 1689.7656,95.75 L1689.5938,95.6719 Z "
        fill="#000000"/>
      <text fill="#000000" font-family="sans-serif" font-size="14" lengthAdjust="spacing"
            textLength="181" x="1707.75" y="104.8467">ResetReservationService
      </text>
      <line style="stroke:#181818;stroke-width:0.5;" x1="1565.5" x2="1998.5" y1="116" y2="116"/>
      <line style="stroke:#181818;stroke-width:1.0;stroke-dasharray:1.0,2.0;" x1="1565.5"
            x2="1998.5" y1="124" y2="124"/>
      <ellipse cx="1575.5" cy="137.6484" fill="none" rx="3" ry="3"
               style="stroke:#038048;stroke-width:1.0;"/>
      <text fill="#000000" font-family="sans-serif" font-size="14" lengthAdjust="spacing"
            textLength="342" x="1584.5" y="140.9951">ResetReservationComponent resetReservation
      </text>
      <line style="stroke:#181818;stroke-width:0.5;" x1="1565.5" x2="1998.5" y1="148.2969"
            y2="148.2969"/>
      <ellipse cx="1575.5" cy="161.9453" fill="#84BE84" rx="3" ry="3"
               style="stroke:#038048;stroke-width:1.0;"/>
      <text fill="#000000" font-family="sans-serif" font-size="14" lengthAdjust="spacing"
            textLength="381" x="1584.5" y="165.292">ResetReservationComponent getResetReservation()
      </text>
      <ellipse cx="1575.5" cy="178.2422" fill="#84BE84" rx="3" ry="3"
               style="stroke:#038048;stroke-width:1.0;"/>
      <text fill="#000000" font-family="sans-serif" font-size="14" lengthAdjust="spacing"
            textLength="409" x="1584.5" y="181.5889">void
        setResetReservation(ResetReservationComponent)
      </text>
      <ellipse cx="1575.5" cy="194.5391" fill="#84BE84" rx="3" ry="3"
               style="stroke:#038048;stroke-width:1.0;"/>
      <text fill="#000000" font-family="sans-serif" font-size="14" lengthAdjust="spacing"
            textLength="182" x="1584.5" y="197.8857">void serve(ReservationId)
      </text>
    </g><!--class ResetReservationComponent-->
    <g id="elem_ResetReservationComponent">
      <rect codeLine="96" fill="#F1F1F1" height="113.1875" id="ResetReservationComponent" rx="2.5"
            ry="2.5" style="stroke:#181818;stroke-width:0.5;" width="344" x="1621" y="265"/>
      <ellipse cx="1681.75" cy="281" fill="#ADD1B2" rx="11" ry="11"
               style="stroke:#181818;stroke-width:1.0;"/>
      <path
        d="M1684.0938,276.6719 C1683.1563,276.2344 1682.5625,276.0938 1681.6875,276.0938 C1679.0625,276.0938 1677.0625,278.1719 1677.0625,280.8906 L1677.0625,282.0156 C1677.0625,284.5938 1679.1719,286.4844 1682.0625,286.4844 C1683.2813,286.4844 1684.4375,286.1875 1685.1875,285.6406 C1685.7656,285.2344 1686.0938,284.7813 1686.0938,284.3906 C1686.0938,283.9375 1685.7031,283.5469 1685.2344,283.5469 C1685.0156,283.5469 1684.8125,283.625 1684.625,283.8125 C1684.1719,284.2969 1684.1719,284.2969 1683.9844,284.3906 C1683.5625,284.6563 1682.875,284.7813 1682.1094,284.7813 C1680.0625,284.7813 1678.7656,283.6875 1678.7656,281.9844 L1678.7656,280.8906 C1678.7656,279.1094 1680.0156,277.7969 1681.75,277.7969 C1682.3281,277.7969 1682.9375,277.9531 1683.4063,278.2031 C1683.8906,278.4844 1684.0625,278.7031 1684.1563,279.1094 C1684.2188,279.5156 1684.25,279.6406 1684.3906,279.7656 C1684.5313,279.9063 1684.7656,280.0156 1684.9844,280.0156 C1685.25,280.0156 1685.5156,279.875 1685.6875,279.6563 C1685.7969,279.5 1685.8281,279.3125 1685.8281,278.8906 L1685.8281,277.4688 C1685.8281,277.0313 1685.8125,276.9063 1685.7188,276.75 C1685.5625,276.4844 1685.2813,276.3438 1684.9844,276.3438 C1684.6875,276.3438 1684.4844,276.4375 1684.2656,276.75 L1684.0938,276.6719 Z "
        fill="#000000"/>
      <text fill="#000000" font-family="sans-serif" font-size="14" lengthAdjust="spacing"
            textLength="214" x="1702.25" y="285.8467">ResetReservationComponent
      </text>
      <line style="stroke:#181818;stroke-width:0.5;" x1="1622" x2="1964" y1="297" y2="297"/>
      <ellipse cx="1632" cy="310.6484" fill="none" rx="3" ry="3"
               style="stroke:#038048;stroke-width:1.0;"/>
      <text fill="#000000" font-family="sans-serif" font-size="14" lengthAdjust="spacing"
            textLength="251" x="1641" y="313.9951">ReservationRepository reservation
      </text>
      <line style="stroke:#181818;stroke-width:0.5;" x1="1622" x2="1964" y1="321.2969"
            y2="321.2969"/>
      <ellipse cx="1632" cy="334.9453" fill="#84BE84" rx="3" ry="3"
               style="stroke:#038048;stroke-width:1.0;"/>
      <text fill="#000000" font-family="sans-serif" font-size="14" lengthAdjust="spacing"
            textLength="290" x="1641" y="338.292">ReservationRepository getReservation()
      </text>
      <ellipse cx="1632" cy="351.2422" fill="#84BE84" rx="3" ry="3"
               style="stroke:#038048;stroke-width:1.0;"/>
      <text fill="#000000" font-family="sans-serif" font-size="14" lengthAdjust="spacing"
            textLength="318" x="1641" y="354.5889">void setReservation(ReservationRepository)
      </text>
      <ellipse cx="1632" cy="367.5391" fill="#84BE84" rx="3" ry="3"
               style="stroke:#038048;stroke-width:1.0;"/>
      <text fill="#000000" font-family="sans-serif" font-size="14" lengthAdjust="spacing"
            textLength="201" x="1641" y="370.8857">void execute(ReservationId)
      </text>
    </g><!--class SubmitReservationService-->
    <g id="elem_SubmitReservationService">
      <rect codeLine="103" fill="#F1F1F1" height="113.1875" id="SubmitReservationService" rx="2.5"
            ry="2.5" style="stroke:#181818;stroke-width:0.5;" width="455" x="1052.5" y="88"/>
      <ellipse cx="1180.25" cy="104" fill="#ADD1B2" rx="11" ry="11"
               style="stroke:#181818;stroke-width:1.0;"/>
      <path
        d="M1182.5938,99.6719 C1181.6563,99.2344 1181.0625,99.0938 1180.1875,99.0938 C1177.5625,99.0938 1175.5625,101.1719 1175.5625,103.8906 L1175.5625,105.0156 C1175.5625,107.5938 1177.6719,109.4844 1180.5625,109.4844 C1181.7813,109.4844 1182.9375,109.1875 1183.6875,108.6406 C1184.2656,108.2344 1184.5938,107.7813 1184.5938,107.3906 C1184.5938,106.9375 1184.2031,106.5469 1183.7344,106.5469 C1183.5156,106.5469 1183.3125,106.625 1183.125,106.8125 C1182.6719,107.2969 1182.6719,107.2969 1182.4844,107.3906 C1182.0625,107.6563 1181.375,107.7813 1180.6094,107.7813 C1178.5625,107.7813 1177.2656,106.6875 1177.2656,104.9844 L1177.2656,103.8906 C1177.2656,102.1094 1178.5156,100.7969 1180.25,100.7969 C1180.8281,100.7969 1181.4375,100.9531 1181.9063,101.2031 C1182.3906,101.4844 1182.5625,101.7031 1182.6563,102.1094 C1182.7188,102.5156 1182.75,102.6406 1182.8906,102.7656 C1183.0313,102.9063 1183.2656,103.0156 1183.4844,103.0156 C1183.75,103.0156 1184.0156,102.875 1184.1875,102.6563 C1184.2969,102.5 1184.3281,102.3125 1184.3281,101.8906 L1184.3281,100.4688 C1184.3281,100.0313 1184.3125,99.9063 1184.2188,99.75 C1184.0625,99.4844 1183.7813,99.3438 1183.4844,99.3438 C1183.1875,99.3438 1182.9844,99.4375 1182.7656,99.75 L1182.5938,99.6719 Z "
        fill="#000000"/>
      <text fill="#000000" font-family="sans-serif" font-size="14" lengthAdjust="spacing"
            textLength="191" x="1200.75" y="108.8467">SubmitReservationService
      </text>
      <line style="stroke:#181818;stroke-width:0.5;" x1="1053.5" x2="1506.5" y1="120" y2="120"/>
      <ellipse cx="1063.5" cy="133.6484" fill="none" rx="3" ry="3"
               style="stroke:#038048;stroke-width:1.0;"/>
      <text fill="#000000" font-family="sans-serif" font-size="14" lengthAdjust="spacing"
            textLength="364" x="1072.5" y="136.9951">SubmitReservationComponent submitReservation
      </text>
      <line style="stroke:#181818;stroke-width:0.5;" x1="1053.5" x2="1506.5" y1="144.2969"
            y2="144.2969"/>
      <ellipse cx="1063.5" cy="157.9453" fill="#84BE84" rx="3" ry="3"
               style="stroke:#038048;stroke-width:1.0;"/>
      <text fill="#000000" font-family="sans-serif" font-size="14" lengthAdjust="spacing"
            textLength="401" x="1072.5" y="161.292">SubmitReservationComponent
        getSubmitReservation()
      </text>
      <ellipse cx="1063.5" cy="174.2422" fill="#84BE84" rx="3" ry="3"
               style="stroke:#038048;stroke-width:1.0;"/>
      <text fill="#000000" font-family="sans-serif" font-size="14" lengthAdjust="spacing"
            textLength="429" x="1072.5" y="177.5889">void
        setSubmitReservation(SubmitReservationComponent)
      </text>
      <ellipse cx="1063.5" cy="190.5391" fill="#84BE84" rx="3" ry="3"
               style="stroke:#038048;stroke-width:1.0;"/>
      <text fill="#000000" font-family="sans-serif" font-size="14" lengthAdjust="spacing"
            textLength="196" x="1072.5" y="193.8857">ReservationId serve(String)
      </text>
    </g><!--class SubmitReservationComponent-->
    <g id="elem_SubmitReservationComponent">
      <rect codeLine="110" fill="#F1F1F1" height="113.1875" id="SubmitReservationComponent" rx="2.5"
            ry="2.5" style="stroke:#181818;stroke-width:0.5;" width="344" x="1124" y="265"/>
      <ellipse cx="1179.75" cy="281" fill="#ADD1B2" rx="11" ry="11"
               style="stroke:#181818;stroke-width:1.0;"/>
      <path
        d="M1182.0938,276.6719 C1181.1563,276.2344 1180.5625,276.0938 1179.6875,276.0938 C1177.0625,276.0938 1175.0625,278.1719 1175.0625,280.8906 L1175.0625,282.0156 C1175.0625,284.5938 1177.1719,286.4844 1180.0625,286.4844 C1181.2813,286.4844 1182.4375,286.1875 1183.1875,285.6406 C1183.7656,285.2344 1184.0938,284.7813 1184.0938,284.3906 C1184.0938,283.9375 1183.7031,283.5469 1183.2344,283.5469 C1183.0156,283.5469 1182.8125,283.625 1182.625,283.8125 C1182.1719,284.2969 1182.1719,284.2969 1181.9844,284.3906 C1181.5625,284.6563 1180.875,284.7813 1180.1094,284.7813 C1178.0625,284.7813 1176.7656,283.6875 1176.7656,281.9844 L1176.7656,280.8906 C1176.7656,279.1094 1178.0156,277.7969 1179.75,277.7969 C1180.3281,277.7969 1180.9375,277.9531 1181.4063,278.2031 C1181.8906,278.4844 1182.0625,278.7031 1182.1563,279.1094 C1182.2188,279.5156 1182.25,279.6406 1182.3906,279.7656 C1182.5313,279.9063 1182.7656,280.0156 1182.9844,280.0156 C1183.25,280.0156 1183.5156,279.875 1183.6875,279.6563 C1183.7969,279.5 1183.8281,279.3125 1183.8281,278.8906 L1183.8281,277.4688 C1183.8281,277.0313 1183.8125,276.9063 1183.7188,276.75 C1183.5625,276.4844 1183.2813,276.3438 1182.9844,276.3438 C1182.6875,276.3438 1182.4844,276.4375 1182.2656,276.75 L1182.0938,276.6719 Z "
        fill="#000000"/>
      <text fill="#000000" font-family="sans-serif" font-size="14" lengthAdjust="spacing"
            textLength="224" x="1200.25" y="285.8467">SubmitReservationComponent
      </text>
      <line style="stroke:#181818;stroke-width:0.5;" x1="1125" x2="1467" y1="297" y2="297"/>
      <ellipse cx="1135" cy="310.6484" fill="none" rx="3" ry="3"
               style="stroke:#038048;stroke-width:1.0;"/>
      <text fill="#000000" font-family="sans-serif" font-size="14" lengthAdjust="spacing"
            textLength="251" x="1144" y="313.9951">ReservationRepository reservation
      </text>
      <line style="stroke:#181818;stroke-width:0.5;" x1="1125" x2="1467" y1="321.2969"
            y2="321.2969"/>
      <ellipse cx="1135" cy="334.9453" fill="#84BE84" rx="3" ry="3"
               style="stroke:#038048;stroke-width:1.0;"/>
      <text fill="#000000" font-family="sans-serif" font-size="14" lengthAdjust="spacing"
            textLength="290" x="1144" y="338.292">ReservationRepository getReservation()
      </text>
      <ellipse cx="1135" cy="351.2422" fill="#84BE84" rx="3" ry="3"
               style="stroke:#038048;stroke-width:1.0;"/>
      <text fill="#000000" font-family="sans-serif" font-size="14" lengthAdjust="spacing"
            textLength="318" x="1144" y="354.5889">void setReservation(ReservationRepository)
      </text>
      <ellipse cx="1135" cy="367.5391" fill="#84BE84" rx="3" ry="3"
               style="stroke:#038048;stroke-width:1.0;"/>
      <text fill="#000000" font-family="sans-serif" font-size="14" lengthAdjust="spacing"
            textLength="215" x="1144" y="370.8857">ReservationId execute(String)
      </text>
    </g><!--link ConfirmReservationService to ConfirmReservationComponent-->
    <g id="link_ConfirmReservationService_ConfirmReservationComponent">
      <path codeLine="117" d="M2271,201.48 C2271,221.79 2271,238.65 2271,258.93 " fill="none"
            id="ConfirmReservationService-to-ConfirmReservationComponent"
            style="stroke:#181818;stroke-width:1.0;"/>
      <polygon fill="#181818" points="2271,264.93,2275,255.93,2271,259.93,2267,255.93,2271,264.93"
               style="stroke:#181818;stroke-width:1.0;"/>
    </g><!--link ConfirmReservationComponent to ReservationRepository-->
    <g id="link_ConfirmReservationComponent_ReservationRepository">
      <path codeLine="118" d="M2188,378.04 C2188,434.32 2188,514.56 2188,573.477 " fill="none"
            id="ConfirmReservationComponent-to-ReservationRepository"
            style="stroke:#181818;stroke-width:1.0;"/>
      <polygon fill="#181818"
               points="2188,579.477,2192,570.477,2188,574.477,2184,570.477,2188,579.477"
               style="stroke:#181818;stroke-width:1.0;"/>
    </g><!--reverse link ReservationRepository to ReservationRepositoryImpl-->
    <g id="link_ReservationRepository_ReservationRepositoryImpl">
      <path codeLine="119" d="M2101,726.512 C2101,768.105 2101,804.001 2101,845.658 " fill="none"
            id="ReservationRepository-backto-ReservationRepositoryImpl"
            style="stroke:#181818;stroke-width:1.0;stroke-dasharray:7.0,7.0;"/>
      <polygon fill="none" points="2101,708.512,2095,726.512,2107,726.512,2101,708.512"
               style="stroke:#181818;stroke-width:1.0;"/>
    </g><!--link ReservationRepositoryImpl to Reservation-->
    <g id="link_ReservationRepositoryImpl_Reservation">
      <path codeLine="120" d="M2102,975.259 C2102,1009.963 2102,1045.654 2102,1075.801 " fill="none"
            id="ReservationRepositoryImpl-to-Reservation" style="stroke:#181818;stroke-width:1.0;"/>
      <polygon fill="#181818"
               points="2102,1081.801,2106,1072.801,2102,1076.801,2098,1072.801,2102,1081.801"
               style="stroke:#181818;stroke-width:1.0;"/>
    </g><!--link Reservation to ReservationId-->
    <g id="link_Reservation_ReservationId">
      <path codeLine="121" d="M2030,1163.34 C2030,1189.507 2030,1216.99 2030,1241.279 " fill="none"
            id="Reservation-to-ReservationId" style="stroke:#181818;stroke-width:1.0;"/>
      <polygon fill="#181818"
               points="2030,1247.279,2034,1238.279,2030,1242.279,2026,1238.279,2030,1247.279"
               style="stroke:#181818;stroke-width:1.0;"/>
    </g><!--link Reservation to ReservationStatus-->
    <g id="link_Reservation_ReservationStatus">
      <path codeLine="122" d="M2169,1163.34 C2169,1181.511 2169,1197.211 2169,1216.91 " fill="none"
            id="Reservation-to-ReservationStatus" style="stroke:#181818;stroke-width:1.0;"/>
      <polygon fill="#181818"
               points="2169,1222.91,2173,1213.91,2169,1217.91,2165,1213.91,2169,1222.91"
               style="stroke:#181818;stroke-width:1.0;"/>
    </g><!--link Trip to TripId-->
    <g id="link_Trip_TripId">
      <path codeLine="123" d="M207,725.044 C207,776.651 207,834.668 207,872.4 " fill="none"
            id="Trip-to-TripId" style="stroke:#181818;stroke-width:1.0;"/>
      <polygon fill="#181818" points="207,878.4,211,869.4,207,873.4,203,869.4,207,878.4"
               style="stroke:#181818;stroke-width:1.0;"/>
    </g><!--link Trip to Station-->
    <g id="link_Trip_Station">
      <path codeLine="124"
            d="M281.667,725.117 C281.667,791.677 281.667,875 281.667,875 C281.667,875 324.517,875 369.742,875 "
            fill="none" id="Trip-to-Station" style="stroke:#181818;stroke-width:1.0;"/>
      <polygon fill="#181818" points="375.742,875,366.742,871,370.742,875,366.742,879,375.742,875"
               style="stroke:#181818;stroke-width:1.0;"/>
    </g><!--link Trip to Seat-->
    <g id="link_Trip_Seat">
      <path codeLine="125"
            d="M320.371,720 C521.544,720 920,720 920,720 C920,720 920,807.658 920,863.633 "
            fill="none" id="Trip-to-Seat" style="stroke:#181818;stroke-width:1.0;"/>
      <polygon fill="#181818" points="920,869.633,924,860.633,920,864.633,916,860.633,920,869.633"
               style="stroke:#181818;stroke-width:1.0;"/>
    </g><!--link Trip to Train-->
    <g id="link_Trip_Train">
      <path codeLine="126"
            d="M320.294,714 C676.777,714 1752,714 1752,714 C1752,714 1752,806.229 1752,863.785 "
            fill="none" id="Trip-to-Train" style="stroke:#181818;stroke-width:1.0;"/>
      <polygon fill="#181818"
               points="1752,869.785,1756,860.785,1752,864.785,1748,860.785,1752,869.785"
               style="stroke:#181818;stroke-width:1.0;"/>
    </g><!--link Trip to Wagon-->
    <g id="link_Trip_Wagon">
      <path codeLine="127"
            d="M300.833,725.037 C300.833,788.111 300.833,865 300.833,865 C300.833,865 990.73,865 1234.7,865 "
            fill="none" id="Trip-to-Wagon" style="stroke:#181818;stroke-width:1.0;"/>
      <polygon fill="#181818" points="1240.7,865,1231.7,861,1235.7,865,1231.7,869,1240.7,865"
               style="stroke:#181818;stroke-width:1.0;"/>
    </g><!--link Station to StationId-->
    <g id="link_Station_StationId">
      <path codeLine="128" d="M451,951.376 C451,991.924 451,1047.231 451,1084.403 " fill="none"
            id="Station-to-StationId" style="stroke:#181818;stroke-width:1.0;"/>
      <polygon fill="#181818"
               points="451,1090.403,455,1081.403,451,1085.403,447,1081.403,451,1090.403"
               style="stroke:#181818;stroke-width:1.0;"/>
    </g><!--link Train to Train-->
    <g id="link_Train_Train">
      <path codeLine="129"
            d="M1702,869.794 C1702,867.437 1702,866 1702,866 C1702,866 1636.5,866 1636.5,866 C1636.5,866 1636.5,955 1636.5,955 C1636.5,955 1727,955 1727,955 C1727,955 1727,959.563 1727,957.206 "
            fill="none" id="Train-to-Train" style="stroke:#181818;stroke-width:1.0;"/>
      <polygon fill="#181818"
               points="1727,951.206,1723,960.206,1727,956.206,1731,960.206,1727,951.206"
               style="stroke:#181818;stroke-width:1.0;"/>
    </g><!--link Wagon to Wagon-->
    <g id="link_Wagon_Wagon">
      <path codeLine="130"
            d="M1324,861.856 C1324,857.104 1324,854 1324,854 C1324,854 1223.25,854 1223.25,854 C1223.25,854 1223.25,967 1223.25,967 C1223.25,967 1324,967 1324,967 C1324,967 1324,969.896 1324,965.144 "
            fill="none" id="Wagon-to-Wagon" style="stroke:#181818;stroke-width:1.0;"/>
      <polygon fill="#181818"
               points="1324,959.144,1320,968.144,1324,964.144,1328,968.144,1324,959.144"
               style="stroke:#181818;stroke-width:1.0;"/>
    </g><!--link Seat to Seat-->
    <g id="link_Seat_Seat">
      <path codeLine="131"
            d="M970,869.826 C970,868.664 970,868 970,868 C970,868 1036.25,868 1036.25,868 C1036.25,868 1036.25,955 1036.25,955 C1036.25,955 945,955 945,955 C945,955 945,959.563 945,957.206 "
            fill="none" id="Seat-to-Seat" style="stroke:#181818;stroke-width:1.0;"/>
      <polygon fill="#181818" points="945,951.206,941,960.206,945,956.206,949,960.206,945,951.206"
               style="stroke:#181818;stroke-width:1.0;"/>
    </g><!--link ResetReservationService to ResetReservationComponent-->
    <g id="link_ResetReservationService_ResetReservationComponent">
      <path codeLine="132" d="M1793,205.41 C1793,224.71 1793,239.96 1793,258.94 " fill="none"
            id="ResetReservationService-to-ResetReservationComponent"
            style="stroke:#181818;stroke-width:1.0;"/>
      <polygon fill="#181818" points="1793,264.94,1797,255.94,1793,259.94,1789,255.94,1793,264.94"
               style="stroke:#181818;stroke-width:1.0;"/>
    </g><!--link ResetReservationComponent to ReservationRepository-->
    <g id="link_ResetReservationComponent_ReservationRepository">
      <path codeLine="133" d="M1945,378.04 C1945,434.32 1945,514.56 1945,573.477 " fill="none"
            id="ResetReservationComponent-to-ReservationRepository"
            style="stroke:#181818;stroke-width:1.0;"/>
      <polygon fill="#181818"
               points="1945,579.477,1949,570.477,1945,574.477,1941,570.477,1945,579.477"
               style="stroke:#181818;stroke-width:1.0;"/>
    </g><!--link SubmitReservationService to SubmitReservationComponent-->
    <g id="link_SubmitReservationService_SubmitReservationComponent">
      <path codeLine="134" d="M1296,201.48 C1296,221.79 1296,238.65 1296,258.93 " fill="none"
            id="SubmitReservationService-to-SubmitReservationComponent"
            style="stroke:#181818;stroke-width:1.0;"/>
      <polygon fill="#181818" points="1296,264.93,1300,255.93,1296,259.93,1292,255.93,1296,264.93"
               style="stroke:#181818;stroke-width:1.0;"/>
    </g><!--link SubmitReservationComponent to ReservationRepository-->
    <g id="link_SubmitReservationComponent_ReservationRepository">
      <path codeLine="135"
            d="M1437.5,378.04 C1437.5,470.536 1437.5,644 1437.5,644 C1437.5,644 1722.37,644 1918.94,644 "
            fill="none" id="SubmitReservationComponent-to-ReservationRepository"
            style="stroke:#181818;stroke-width:1.0;"/>
      <polygon fill="#181818" points="1924.94,644,1915.94,640,1919.94,644,1915.94,648,1924.94,644"
               style="stroke:#181818;stroke-width:1.0;"/>
    </g><!--SRC=[xPXVRzem4C3VyocyFb5DzIUeU6ZBf4XhEm7L7YkJcDGgiIFReKCPttss4o3_IRGcOR0dBD_PlllvVEJkIy2HvoCG2cnJYRcFNO8a_e6ST-HX0PPe9R0btWaD44S-M16AvIR0W77vnYpnnZw0KEimqxEMvQoG4E3gdj4buVuK2ypNI196Psf077m5a00kXku2hZ5r6GmuasOjN8JEMqWzo0-Be4lMc0k8N1H8FL1clZf8O04nbKGIDN3Ye-22XTH5V0ChpmQH1S3NelYU-G6ZQaFW56HgnUlhiMKUbaNnw5elMpFY0b4ghzanlPIlyIYbOxlNrhOQytwB7a2h2SdP2jQXCSXJaYaEc22IyGtW9PJBDHNVIh1fGUdgWpR-XPrGbj0aElANI4N8LUaMdyyohLxWMGx1a0GHMWZ9aIEtpu5MGAlRbFeOB0brxpPv5xChKq8WK3Qyyhenvd3X4rc_gL5CGgI1fWOWA-Ewb83j1wjJk0bjHtmRBQ_WAFTws4S8jyFQCqYZjKdpB6G6szNlt7P7ULOpYMGej30UZSezijt1VL8k6AzUNko7lJDR2zFGpvWQ-p6ukGbORVBivUxHdgl1_VFJDtlwg4RJoMmotoTc40cbJPpjH3apKJkgysuBUusrruaqVKrpJe9ktLL71fK-w-FZcz6ZRA1fmtKuggbdJZn22zCFM4X2KtyztucGjud2U1UNQYnYyPmZOXQQGR8THkOpGV_6Cp-H5szl1dbONGVpKLmLePoOc3ZSWur2reVpxfwYrANbBvWJwkcP9-JZ4YzwOTtGZthi9g1wC5RgSsh2GyTtb0drux2DQY-e6rXVZzcyoDuC_T2dLPeRfuaeap4gOMVdGd-1US6l7g-WWMT7qepAbZrRAzIHrOzKP_4edSyR91cbsJlperxKSzV_wxAFsjryhXuChJZNc0hXxhDGbXQQF2V9b9IogcpF2ukrPQ70b7zJi5Tkq3dRT4aZ_zrIVVUgJ97KHuZ6vTY1OzN9ILx8ImzuHLwq9rcpI7yovgLPg4LnzNRNnP8h3jSuVTNnxJ1GyuHtaLg3vKH2DOjo5xC7c4FrEMzkniEt_gpXcu-Vpg5ziyWwXMOL3E7l_oGqYNuZejXoiGPjkGtjlUrUjlznaymQi0dMAO46JQNpzhrXa-Uy8RIgGoy1HMqdwd9YeROFP9r65_baKaJdcR99Y_SI7aZp7kpbl9Ps_T2p_qTfqA3iX46RvfqrRElmx0hjnbs_J_UyVJVC6heRTmAt_mS0]-->
  </g>
</svg>