<?xml version="1.0" encoding="us-ascii" standalone="no"?>
<svg xmlns="http://www.w3.org/2000/svg"
     contentStyleType="text/css" height="1198px" preserveAspectRatio="none"
     style="width:2931px;height:1198px;background:#FFFFFF;" version="1.1" viewBox="0 0 2931 1198"
     width="2931px" zoomAndPan="magnify">
  <defs/>
  <g><!--cluster entities-->
    <g id="cluster_entities">
      <path
        d="M8.5,6 L650.5,6 A3.75,3.75 0 0 1 653,8.5 L660,28.2969 L2921.5,28.2969 A2.5,2.5 0 0 1 2924,30.7969 L2924,1188.5 A2.5,2.5 0 0 1 2921.5,1191 L8.5,1191 A2.5,2.5 0 0 1 6,1188.5 L6,8.5 A2.5,2.5 0 0 1 8.5,6 "
        fill="none" style="stroke:#000000;stroke-width:1.5;"/>
      <line style="stroke:#000000;stroke-width:1.5;" x1="6" x2="660" y1="28.2969" y2="28.2969"/>
      <text fill="#000000" font-family="sans-serif" font-size="14" font-weight="bold"
            lengthAdjust="spacing" textLength="641" x="10" y="20.9951">
        de.db.vendo.prototype.buchung.reservation.divers.adapters.use_cases.entities
      </text>
    </g><!--cluster boundary-->
    <g id="cluster_boundary">
      <path
        d="M2360.5,53 L2505.5,53 A3.75,3.75 0 0 1 2508,55.5 L2515,75.2969 L2855.5,75.2969 A2.5,2.5 0 0 1 2858,77.7969 L2858,415.5 A2.5,2.5 0 0 1 2855.5,418 L2360.5,418 A2.5,2.5 0 0 1 2358,415.5 L2358,55.5 A2.5,2.5 0 0 1 2360.5,53 "
        fill="none" style="stroke:#000000;stroke-width:1.5;"/>
      <line style="stroke:#000000;stroke-width:1.5;" x1="2358" x2="2515" y1="75.2969" y2="75.2969"/>
      <text fill="#000000" font-family="sans-serif" font-size="14" font-weight="bold"
            lengthAdjust="spacing" textLength="144" x="2362" y="67.9951">confirm.boundary
      </text>
    </g><!--cluster control-->
    <g id="cluster_control">
      <path
        d="M2403.5,230 L2463.5,230 A3.75,3.75 0 0 1 2466,232.5 L2473,252.2969 L2774.5,252.2969 A2.5,2.5 0 0 1 2777,254.7969 L2777,391.5 A2.5,2.5 0 0 1 2774.5,394 L2403.5,394 A2.5,2.5 0 0 1 2401,391.5 L2401,232.5 A2.5,2.5 0 0 1 2403.5,230 "
        fill="none" style="stroke:#000000;stroke-width:1.5;"/>
      <line style="stroke:#000000;stroke-width:1.5;" x1="2401" x2="2473" y1="252.2969"
            y2="252.2969"/>
      <text fill="#000000" font-family="sans-serif" font-size="14" font-weight="bold"
            lengthAdjust="spacing" textLength="59" x="2405" y="244.9951">control
      </text>
    </g><!--cluster reservation-->
    <g id="cluster_reservation">
      <path
        d="M32.5,442 L126.5,442 A3.75,3.75 0 0 1 129,444.5 L136,464.2969 L2897.5,464.2969 A2.5,2.5 0 0 1 2900,466.7969 L2900,1164.5 A2.5,2.5 0 0 1 2897.5,1167 L32.5,1167 A2.5,2.5 0 0 1 30,1164.5 L30,444.5 A2.5,2.5 0 0 1 32.5,442 "
        fill="none" style="stroke:#000000;stroke-width:1.5;"/>
      <line style="stroke:#000000;stroke-width:1.5;" x1="30" x2="136" y1="464.2969" y2="464.2969"/>
      <text fill="#000000" font-family="sans-serif" font-size="14" font-weight="bold"
            lengthAdjust="spacing" textLength="93" x="34" y="456.9951">reservation
      </text>
    </g><!--cluster control-->
    <g id="cluster_control">
      <path
        d="M1910.5,525.5 L2051.5,525.5 A3.75,3.75 0 0 1 2054,528 L2061,547.7969 L2873.5,547.7969 A2.5,2.5 0 0 1 2876,550.2969 L2876,1004.5 A2.5,2.5 0 0 1 2873.5,1007 L1910.5,1007 A2.5,2.5 0 0 1 1908,1004.5 L1908,528 A2.5,2.5 0 0 1 1910.5,525.5 "
        fill="none" style="stroke:#000000;stroke-width:1.5;"/>
      <line style="stroke:#000000;stroke-width:1.5;" x1="1908" x2="2061" y1="547.7969"
            y2="547.7969"/>
      <text fill="#000000" font-family="sans-serif" font-size="14" font-weight="bold"
            lengthAdjust="spacing" textLength="140" x="1912" y="540.4951">boundary.control
      </text>
    </g><!--cluster entity-->
    <g id="cluster_entity">
      <path
        d="M2294.5,568.5 L2344.5,568.5 A3.75,3.75 0 0 1 2347,571 L2354,590.7969 L2849.5,590.7969 A2.5,2.5 0 0 1 2852,593.2969 L2852,980.5 A2.5,2.5 0 0 1 2849.5,983 L2294.5,983 A2.5,2.5 0 0 1 2292,980.5 L2292,571 A2.5,2.5 0 0 1 2294.5,568.5 "
        fill="none" style="stroke:#000000;stroke-width:1.5;"/>
      <line style="stroke:#000000;stroke-width:1.5;" x1="2292" x2="2354" y1="590.7969"
            y2="590.7969"/>
      <text fill="#000000" font-family="sans-serif" font-size="14" font-weight="bold"
            lengthAdjust="spacing" textLength="49" x="2296" y="583.4951">entity
      </text>
    </g><!--cluster trip-->
    <g id="cluster_trip">
      <path
        d="M56.5,485 L87.5,485 A3.75,3.75 0 0 1 90,487.5 L97,507.2969 L1881.5,507.2969 A2.5,2.5 0 0 1 1884,509.7969 L1884,1140.5 A2.5,2.5 0 0 1 1881.5,1143 L56.5,1143 A2.5,2.5 0 0 1 54,1140.5 L54,487.5 A2.5,2.5 0 0 1 56.5,485 "
        fill="none" style="stroke:#000000;stroke-width:1.5;"/>
      <line style="stroke:#000000;stroke-width:1.5;" x1="54" x2="97" y1="507.2969" y2="507.2969"/>
      <text fill="#000000" font-family="sans-serif" font-size="14" font-weight="bold"
            lengthAdjust="spacing" textLength="30" x="58" y="499.9951">trip
      </text>
    </g><!--cluster entity-->
    <g id="cluster_entity">
      <path
        d="M80.5,528 L275.5,528 A3.75,3.75 0 0 1 278,530.5 L285,550.2969 L333.5,550.2969 A2.5,2.5 0 0 1 336,552.7969 L336,956 A2.5,2.5 0 0 1 333.5,958.5 L80.5,958.5 A2.5,2.5 0 0 1 78,956 L78,530.5 A2.5,2.5 0 0 1 80.5,528 "
        fill="none" style="stroke:#000000;stroke-width:1.5;"/>
      <line style="stroke:#000000;stroke-width:1.5;" x1="78" x2="285" y1="550.2969" y2="550.2969"/>
      <text fill="#000000" font-family="sans-serif" font-size="14" font-weight="bold"
            lengthAdjust="spacing" textLength="194" x="82" y="542.9951">boundary.control.entity
      </text>
    </g><!--cluster entity-->
    <g id="cluster_entity">
      <path
        d="M362.5,835 L622.5,835 A3.75,3.75 0 0 1 625,837.5 L632,857.2969 L632.5,857.2969 A2.5,2.5 0 0 1 635,859.7969 L635,1116.5 A2.5,2.5 0 0 1 632.5,1119 L362.5,1119 A2.5,2.5 0 0 1 360,1116.5 L360,837.5 A2.5,2.5 0 0 1 362.5,835 "
        fill="none" style="stroke:#000000;stroke-width:1.5;"/>
      <line style="stroke:#000000;stroke-width:1.5;" x1="360" x2="632" y1="857.2969" y2="857.2969"/>
      <text fill="#000000" font-family="sans-serif" font-size="14" font-weight="bold"
            lengthAdjust="spacing" textLength="259" x="364" y="849.9951">
        station.boundary.control.entity
      </text>
    </g><!--cluster train-->
    <g id="cluster_train">
      <path
        d="M661.5,741 L702.5,741 A3.75,3.75 0 0 1 705,743.5 L712,763.2969 L1857.5,763.2969 A2.5,2.5 0 0 1 1860,765.7969 L1860,1020.5 A2.5,2.5 0 0 1 1857.5,1023 L661.5,1023 A2.5,2.5 0 0 1 659,1020.5 L659,743.5 A2.5,2.5 0 0 1 661.5,741 "
        fill="none" style="stroke:#000000;stroke-width:1.5;"/>
      <line style="stroke:#000000;stroke-width:1.5;" x1="659" x2="712" y1="763.2969" y2="763.2969"/>
      <text fill="#000000" font-family="sans-serif" font-size="14" font-weight="bold"
            lengthAdjust="spacing" textLength="40" x="663" y="755.9951">train
      </text>
    </g><!--cluster entity-->
    <g id="cluster_entity">
      <path
        d="M1491.5,835 L1686.5,835 A3.75,3.75 0 0 1 1689,837.5 L1696,857.2969 L1833.5,857.2969 A2.5,2.5 0 0 1 1836,859.7969 L1836,964.5 A2.5,2.5 0 0 1 1833.5,967 L1491.5,967 A2.5,2.5 0 0 1 1489,964.5 L1489,837.5 A2.5,2.5 0 0 1 1491.5,835 "
        fill="none" style="stroke:#000000;stroke-width:1.5;"/>
      <line style="stroke:#000000;stroke-width:1.5;" x1="1489" x2="1696" y1="857.2969"
            y2="857.2969"/>
      <text fill="#000000" font-family="sans-serif" font-size="14" font-weight="bold"
            lengthAdjust="spacing" textLength="194" x="1493" y="849.9951">boundary.control.entity
      </text>
    </g><!--cluster wagon-->
    <g id="cluster_wagon">
      <path
        d="M685.5,784 L739.5,784 A3.75,3.75 0 0 1 742,786.5 L749,806.2969 L1462.5,806.2969 A2.5,2.5 0 0 1 1465,808.7969 L1465,996.5 A2.5,2.5 0 0 1 1462.5,999 L685.5,999 A2.5,2.5 0 0 1 683,996.5 L683,786.5 A2.5,2.5 0 0 1 685.5,784 "
        fill="none" style="stroke:#000000;stroke-width:1.5;"/>
      <line style="stroke:#000000;stroke-width:1.5;" x1="683" x2="749" y1="806.2969" y2="806.2969"/>
      <text fill="#000000" font-family="sans-serif" font-size="14" font-weight="bold"
            lengthAdjust="spacing" textLength="53" x="687" y="798.9951">wagon
      </text>
    </g><!--cluster entity-->
    <g id="cluster_entity">
      <path
        d="M1080.5,827 L1275.5,827 A3.75,3.75 0 0 1 1278,829.5 L1285,849.2969 L1438.5,849.2969 A2.5,2.5 0 0 1 1441,851.7969 L1441,972.5 A2.5,2.5 0 0 1 1438.5,975 L1080.5,975 A2.5,2.5 0 0 1 1078,972.5 L1078,829.5 A2.5,2.5 0 0 1 1080.5,827 "
        fill="none" style="stroke:#000000;stroke-width:1.5;"/>
      <line style="stroke:#000000;stroke-width:1.5;" x1="1078" x2="1285" y1="849.2969"
            y2="849.2969"/>
      <text fill="#000000" font-family="sans-serif" font-size="14" font-weight="bold"
            lengthAdjust="spacing" textLength="194" x="1082" y="841.9951">boundary.control.entity
      </text>
    </g><!--cluster entity-->
    <g id="cluster_entity">
      <path
        d="M709.5,835 L945.5,835 A3.75,3.75 0 0 1 948,837.5 L955,857.2969 L1051.5,857.2969 A2.5,2.5 0 0 1 1054,859.7969 L1054,964.5 A2.5,2.5 0 0 1 1051.5,967 L709.5,967 A2.5,2.5 0 0 1 707,964.5 L707,837.5 A2.5,2.5 0 0 1 709.5,835 "
        fill="none" style="stroke:#000000;stroke-width:1.5;"/>
      <line style="stroke:#000000;stroke-width:1.5;" x1="707" x2="955" y1="857.2969" y2="857.2969"/>
      <text fill="#000000" font-family="sans-serif" font-size="14" font-weight="bold"
            lengthAdjust="spacing" textLength="235" x="711" y="849.9951">
        seat.boundary.control.entity
      </text>
    </g><!--cluster boundary-->
    <g id="cluster_boundary">
      <path
        d="M1868.5,49 L1992.5,49 A3.75,3.75 0 0 1 1995,51.5 L2002,71.2969 L2331.5,71.2969 A2.5,2.5 0 0 1 2334,73.7969 L2334,415.5 A2.5,2.5 0 0 1 2331.5,418 L1868.5,418 A2.5,2.5 0 0 1 1866,415.5 L1866,51.5 A2.5,2.5 0 0 1 1868.5,49 "
        fill="none" style="stroke:#000000;stroke-width:1.5;"/>
      <line style="stroke:#000000;stroke-width:1.5;" x1="1866" x2="2002" y1="71.2969" y2="71.2969"/>
      <text fill="#000000" font-family="sans-serif" font-size="14" font-weight="bold"
            lengthAdjust="spacing" textLength="123" x="1870" y="63.9951">reset.boundary
      </text>
    </g><!--cluster control-->
    <g id="cluster_control">
      <path
        d="M1914.5,230 L1974.5,230 A3.75,3.75 0 0 1 1977,232.5 L1984,252.2969 L2285.5,252.2969 A2.5,2.5 0 0 1 2288,254.7969 L2288,391.5 A2.5,2.5 0 0 1 2285.5,394 L1914.5,394 A2.5,2.5 0 0 1 1912,391.5 L1912,232.5 A2.5,2.5 0 0 1 1914.5,230 "
        fill="none" style="stroke:#000000;stroke-width:1.5;"/>
      <line style="stroke:#000000;stroke-width:1.5;" x1="1912" x2="1984" y1="252.2969"
            y2="252.2969"/>
      <text fill="#000000" font-family="sans-serif" font-size="14" font-weight="bold"
            lengthAdjust="spacing" textLength="59" x="1916" y="244.9951">control
      </text>
    </g><!--cluster boundary-->
    <g id="cluster_boundary">
      <path
        d="M1356.5,53 L1495.5,53 A3.75,3.75 0 0 1 1498,55.5 L1505,75.2969 L1839.5,75.2969 A2.5,2.5 0 0 1 1842,77.7969 L1842,415.5 A2.5,2.5 0 0 1 1839.5,418 L1356.5,418 A2.5,2.5 0 0 1 1354,415.5 L1354,55.5 A2.5,2.5 0 0 1 1356.5,53 "
        fill="none" style="stroke:#000000;stroke-width:1.5;"/>
      <line style="stroke:#000000;stroke-width:1.5;" x1="1354" x2="1505" y1="75.2969" y2="75.2969"/>
      <text fill="#000000" font-family="sans-serif" font-size="14" font-weight="bold"
            lengthAdjust="spacing" textLength="138" x="1358" y="67.9951">submit.boundary
      </text>
    </g><!--cluster control-->
    <g id="cluster_control">
      <path
        d="M1428.5,230 L1488.5,230 A3.75,3.75 0 0 1 1491,232.5 L1498,252.2969 L1799.5,252.2969 A2.5,2.5 0 0 1 1802,254.7969 L1802,391.5 A2.5,2.5 0 0 1 1799.5,394 L1428.5,394 A2.5,2.5 0 0 1 1426,391.5 L1426,232.5 A2.5,2.5 0 0 1 1428.5,230 "
        fill="none" style="stroke:#000000;stroke-width:1.5;"/>
      <line style="stroke:#000000;stroke-width:1.5;" x1="1426" x2="1498" y1="252.2969"
            y2="252.2969"/>
      <text fill="#000000" font-family="sans-serif" font-size="14" font-weight="bold"
            lengthAdjust="spacing" textLength="59" x="1430" y="244.9951">control
      </text>
    </g><!--class ConfirmReservationService-->
    <g id="elem_ConfirmReservationService">
      <rect codeLine="5" fill="#F1F1F1" height="113.1875" id="ConfirmReservationService" rx="2.5"
            ry="2.5" style="stroke:#181818;stroke-width:0.5;" width="467" x="2374.5" y="88"/>
      <ellipse cx="2505.25" cy="104" fill="#ADD1B2" rx="11" ry="11"
               style="stroke:#181818;stroke-width:1.0;"/>
      <path
        d="M2507.5938,99.6719 C2506.6563,99.2344 2506.0625,99.0938 2505.1875,99.0938 C2502.5625,99.0938 2500.5625,101.1719 2500.5625,103.8906 L2500.5625,105.0156 C2500.5625,107.5938 2502.6719,109.4844 2505.5625,109.4844 C2506.7813,109.4844 2507.9375,109.1875 2508.6875,108.6406 C2509.2656,108.2344 2509.5938,107.7813 2509.5938,107.3906 C2509.5938,106.9375 2509.2031,106.5469 2508.7344,106.5469 C2508.5156,106.5469 2508.3125,106.625 2508.125,106.8125 C2507.6719,107.2969 2507.6719,107.2969 2507.4844,107.3906 C2507.0625,107.6563 2506.375,107.7813 2505.6094,107.7813 C2503.5625,107.7813 2502.2656,106.6875 2502.2656,104.9844 L2502.2656,103.8906 C2502.2656,102.1094 2503.5156,100.7969 2505.25,100.7969 C2505.8281,100.7969 2506.4375,100.9531 2506.9063,101.2031 C2507.3906,101.4844 2507.5625,101.7031 2507.6563,102.1094 C2507.7188,102.5156 2507.75,102.6406 2507.8906,102.7656 C2508.0313,102.9063 2508.2656,103.0156 2508.4844,103.0156 C2508.75,103.0156 2509.0156,102.875 2509.1875,102.6563 C2509.2969,102.5 2509.3281,102.3125 2509.3281,101.8906 L2509.3281,100.4688 C2509.3281,100.0313 2509.3125,99.9063 2509.2188,99.75 C2509.0625,99.4844 2508.7813,99.3438 2508.4844,99.3438 C2508.1875,99.3438 2507.9844,99.4375 2507.7656,99.75 L2507.5938,99.6719 Z "
        fill="#000000"/>
      <text fill="#000000" font-family="sans-serif" font-size="14" lengthAdjust="spacing"
            textLength="197" x="2525.75" y="108.8467">ConfirmReservationService
      </text>
      <line style="stroke:#181818;stroke-width:0.5;" x1="2375.5" x2="2840.5" y1="120" y2="120"/>
      <ellipse cx="2385.5" cy="133.6484" fill="none" rx="3" ry="3"
               style="stroke:#038048;stroke-width:1.0;"/>
      <text fill="#000000" font-family="sans-serif" font-size="14" lengthAdjust="spacing"
            textLength="376" x="2394.5" y="136.9951">ConfirmReservationComponent confirmReservation
      </text>
      <line style="stroke:#181818;stroke-width:0.5;" x1="2375.5" x2="2840.5" y1="144.2969"
            y2="144.2969"/>
      <ellipse cx="2385.5" cy="157.9453" fill="#84BE84" rx="3" ry="3"
               style="stroke:#038048;stroke-width:1.0;"/>
      <text fill="#000000" font-family="sans-serif" font-size="14" lengthAdjust="spacing"
            textLength="413" x="2394.5" y="161.292">ConfirmReservationComponent
        getConfirmReservation()
      </text>
      <ellipse cx="2385.5" cy="174.2422" fill="#84BE84" rx="3" ry="3"
               style="stroke:#038048;stroke-width:1.0;"/>
      <text fill="#000000" font-family="sans-serif" font-size="14" lengthAdjust="spacing"
            textLength="441" x="2394.5" y="177.5889">void
        setConfirmReservation(ConfirmReservationComponent)
      </text>
      <ellipse cx="2385.5" cy="190.5391" fill="#84BE84" rx="3" ry="3"
               style="stroke:#038048;stroke-width:1.0;"/>
      <text fill="#000000" font-family="sans-serif" font-size="14" lengthAdjust="spacing"
            textLength="182" x="2394.5" y="193.8857">void serve(ReservationId)
      </text>
    </g><!--class ConfirmReservationComponent-->
    <g id="elem_ConfirmReservationComponent">
      <rect codeLine="12" fill="#F1F1F1" height="113.1875" id="ConfirmReservationComponent" rx="2.5"
            ry="2.5" style="stroke:#181818;stroke-width:0.5;" width="344" x="2417" y="265"/>
      <ellipse cx="2469.75" cy="281" fill="#ADD1B2" rx="11" ry="11"
               style="stroke:#181818;stroke-width:1.0;"/>
      <path
        d="M2472.0938,276.6719 C2471.1563,276.2344 2470.5625,276.0938 2469.6875,276.0938 C2467.0625,276.0938 2465.0625,278.1719 2465.0625,280.8906 L2465.0625,282.0156 C2465.0625,284.5938 2467.1719,286.4844 2470.0625,286.4844 C2471.2813,286.4844 2472.4375,286.1875 2473.1875,285.6406 C2473.7656,285.2344 2474.0938,284.7813 2474.0938,284.3906 C2474.0938,283.9375 2473.7031,283.5469 2473.2344,283.5469 C2473.0156,283.5469 2472.8125,283.625 2472.625,283.8125 C2472.1719,284.2969 2472.1719,284.2969 2471.9844,284.3906 C2471.5625,284.6563 2470.875,284.7813 2470.1094,284.7813 C2468.0625,284.7813 2466.7656,283.6875 2466.7656,281.9844 L2466.7656,280.8906 C2466.7656,279.1094 2468.0156,277.7969 2469.75,277.7969 C2470.3281,277.7969 2470.9375,277.9531 2471.4063,278.2031 C2471.8906,278.4844 2472.0625,278.7031 2472.1563,279.1094 C2472.2188,279.5156 2472.25,279.6406 2472.3906,279.7656 C2472.5313,279.9063 2472.7656,280.0156 2472.9844,280.0156 C2473.25,280.0156 2473.5156,279.875 2473.6875,279.6563 C2473.7969,279.5 2473.8281,279.3125 2473.8281,278.8906 L2473.8281,277.4688 C2473.8281,277.0313 2473.8125,276.9063 2473.7188,276.75 C2473.5625,276.4844 2473.2813,276.3438 2472.9844,276.3438 C2472.6875,276.3438 2472.4844,276.4375 2472.2656,276.75 L2472.0938,276.6719 Z "
        fill="#000000"/>
      <text fill="#000000" font-family="sans-serif" font-size="14" lengthAdjust="spacing"
            textLength="230" x="2490.25" y="285.8467">ConfirmReservationComponent
      </text>
      <line style="stroke:#181818;stroke-width:0.5;" x1="2418" x2="2760" y1="297" y2="297"/>
      <ellipse cx="2428" cy="310.6484" fill="none" rx="3" ry="3"
               style="stroke:#038048;stroke-width:1.0;"/>
      <text fill="#000000" font-family="sans-serif" font-size="14" lengthAdjust="spacing"
            textLength="251" x="2437" y="313.9951">ReservationRepository reservation
      </text>
      <line style="stroke:#181818;stroke-width:0.5;" x1="2418" x2="2760" y1="321.2969"
            y2="321.2969"/>
      <ellipse cx="2428" cy="334.9453" fill="#84BE84" rx="3" ry="3"
               style="stroke:#038048;stroke-width:1.0;"/>
      <text fill="#000000" font-family="sans-serif" font-size="14" lengthAdjust="spacing"
            textLength="290" x="2437" y="338.292">ReservationRepository getReservation()
      </text>
      <ellipse cx="2428" cy="351.2422" fill="#84BE84" rx="3" ry="3"
               style="stroke:#038048;stroke-width:1.0;"/>
      <text fill="#000000" font-family="sans-serif" font-size="14" lengthAdjust="spacing"
            textLength="318" x="2437" y="354.5889">void setReservation(ReservationRepository)
      </text>
      <ellipse cx="2428" cy="367.5391" fill="#84BE84" rx="3" ry="3"
               style="stroke:#038048;stroke-width:1.0;"/>
      <text fill="#000000" font-family="sans-serif" font-size="14" lengthAdjust="spacing"
            textLength="201" x="2437" y="370.8857">void execute(ReservationId)
      </text>
    </g><!--class ReservationRepository-->
    <g id="elem_ReservationRepository">
      <rect codeLine="19" fill="#F1F1F1" height="129.4844" id="ReservationRepository" rx="2.5"
            ry="2.5" style="stroke:#181818;stroke-width:0.5;" width="352" x="1924" y="579.5"/>
      <ellipse cx="2015.25" cy="595.5" fill="#B4A7E5" rx="11" ry="11"
               style="stroke:#181818;stroke-width:1.0;"/>
      <path
        d="M2016.2031,592.2813 L2017.9219,592.2813 C2018.3125,592.2813 2018.5,592.25 2018.625,592.1719 C2018.8906,592.0156 2019.0313,591.7344 2019.0313,591.4375 C2019.0313,591.1719 2018.9219,590.9063 2018.6875,590.7344 C2018.5156,590.625 2018.375,590.5938 2017.9219,590.5938 L2012.7813,590.5938 C2012.3438,590.5938 2012.2188,590.6094 2012.0625,590.7031 C2011.8125,590.8594 2011.6563,591.1563 2011.6563,591.4375 C2011.6563,591.7188 2011.7969,591.9688 2012.0156,592.1406 C2012.1719,592.25 2012.3594,592.2813 2012.7813,592.2813 L2014.5,592.2813 L2014.5,598.7969 L2012.7813,598.7969 C2012.3438,598.7969 2012.2188,598.8125 2012.0625,598.9219 C2011.8125,599.0781 2011.6563,599.3594 2011.6563,599.6563 C2011.6563,599.9063 2011.7969,600.1719 2012.0156,600.3281 C2012.1719,600.4531 2012.375,600.5 2012.7813,600.5 L2017.9219,600.5 C2018.6719,600.5 2019.0313,600.2188 2019.0313,599.6563 C2019.0313,599.375 2018.9219,599.125 2018.6875,598.9531 C2018.5156,598.8281 2018.375,598.7969 2017.9219,598.7969 L2016.2031,598.7969 L2016.2031,592.2813 Z "
        fill="#000000"/>
      <text fill="#000000" font-family="sans-serif" font-size="14" font-style="italic"
            lengthAdjust="spacing" textLength="161" x="2035.75" y="600.3467">ReservationRepository
      </text>
      <line style="stroke:#181818;stroke-width:0.5;" x1="1925" x2="2275" y1="611.5" y2="611.5"/>
      <line style="stroke:#181818;stroke-width:0.5;" x1="1925" x2="2275" y1="619.5" y2="619.5"/>
      <ellipse cx="1935" cy="633.1484" fill="#84BE84" rx="3" ry="3"
               style="stroke:#038048;stroke-width:1.0;"/>
      <text fill="#000000" font-family="sans-serif" font-size="14" font-style="italic"
            lengthAdjust="spacing" textLength="326" x="1944" y="636.4951">Optional&lt;Reservation&gt;
        findBy(ReservationId)
      </text>
      <ellipse cx="1935" cy="649.4453" fill="#84BE84" rx="3" ry="3"
               style="stroke:#038048;stroke-width:1.0;"/>
      <text fill="#000000" font-family="sans-serif" font-size="14" font-style="italic"
            lengthAdjust="spacing" textLength="217" x="1944" y="652.792">Reservation
        save(Reservation)
      </text>
      <ellipse cx="1935" cy="665.7422" fill="#84BE84" rx="3" ry="3"
               style="stroke:#038048;stroke-width:1.0;"/>
      <text fill="#000000" font-family="sans-serif" font-size="14" font-style="italic"
            lengthAdjust="spacing" textLength="190" x="1944" y="669.0889">void submit(ReservationId)
      </text>
      <ellipse cx="1935" cy="682.0391" fill="#84BE84" rx="3" ry="3"
               style="stroke:#038048;stroke-width:1.0;"/>
      <text fill="#000000" font-family="sans-serif" font-size="14" font-style="italic"
            lengthAdjust="spacing" textLength="197" x="1944" y="685.3857">void
        confirm(ReservationId)
      </text>
      <ellipse cx="1935" cy="698.3359" fill="#84BE84" rx="3" ry="3"
               style="stroke:#038048;stroke-width:1.0;"/>
      <text fill="#000000" font-family="sans-serif" font-size="14" font-style="italic"
            lengthAdjust="spacing" textLength="178" x="1944" y="701.6826">void reset(ReservationId)
      </text>
    </g><!--class Reservation-->
    <g id="elem_Reservation">
      <rect codeLine="26" fill="#F1F1F1" height="80.5938" id="Reservation" rx="2.5" ry="2.5"
            style="stroke:#181818;stroke-width:0.5;" width="243" x="2422.5" y="603.5"/>
      <ellipse cx="2496.75" cy="619.5" fill="#ADD1B2" rx="11" ry="11"
               style="stroke:#181818;stroke-width:1.0;"/>
      <path
        d="M2499.0938,615.1719 C2498.1563,614.7344 2497.5625,614.5938 2496.6875,614.5938 C2494.0625,614.5938 2492.0625,616.6719 2492.0625,619.3906 L2492.0625,620.5156 C2492.0625,623.0938 2494.1719,624.9844 2497.0625,624.9844 C2498.2813,624.9844 2499.4375,624.6875 2500.1875,624.1406 C2500.7656,623.7344 2501.0938,623.2813 2501.0938,622.8906 C2501.0938,622.4375 2500.7031,622.0469 2500.2344,622.0469 C2500.0156,622.0469 2499.8125,622.125 2499.625,622.3125 C2499.1719,622.7969 2499.1719,622.7969 2498.9844,622.8906 C2498.5625,623.1563 2497.875,623.2813 2497.1094,623.2813 C2495.0625,623.2813 2493.7656,622.1875 2493.7656,620.4844 L2493.7656,619.3906 C2493.7656,617.6094 2495.0156,616.2969 2496.75,616.2969 C2497.3281,616.2969 2497.9375,616.4531 2498.4063,616.7031 C2498.8906,616.9844 2499.0625,617.2031 2499.1563,617.6094 C2499.2188,618.0156 2499.25,618.1406 2499.3906,618.2656 C2499.5313,618.4063 2499.7656,618.5156 2499.9844,618.5156 C2500.25,618.5156 2500.5156,618.375 2500.6875,618.1563 C2500.7969,618 2500.8281,617.8125 2500.8281,617.3906 L2500.8281,615.9688 C2500.8281,615.5313 2500.8125,615.4063 2500.7188,615.25 C2500.5625,614.9844 2500.2813,614.8438 2499.9844,614.8438 C2499.6875,614.8438 2499.4844,614.9375 2499.2656,615.25 L2499.0938,615.1719 Z "
        fill="#000000"/>
      <text fill="#000000" font-family="sans-serif" font-size="14" lengthAdjust="spacing"
            textLength="86" x="2517.25" y="624.3467">Reservation
      </text>
      <line style="stroke:#181818;stroke-width:0.5;" x1="2423.5" x2="2664.5" y1="635.5" y2="635.5"/>
      <line style="stroke:#181818;stroke-width:0.5;" x1="2423.5" x2="2664.5" y1="643.5" y2="643.5"/>
      <ellipse cx="2433.5" cy="657.1484" fill="#84BE84" rx="3" ry="3"
               style="stroke:#038048;stroke-width:1.0;"/>
      <text fill="#000000" font-family="sans-serif" font-size="14" lengthAdjust="spacing"
            textLength="151" x="2442.5" y="660.4951">ReservationId getId()
      </text>
      <ellipse cx="2433.5" cy="673.4453" fill="#84BE84" rx="3" ry="3"
               style="stroke:#038048;stroke-width:1.0;"/>
      <text fill="#000000" font-family="sans-serif" font-size="14" lengthAdjust="spacing"
            textLength="217" x="2442.5" y="676.792">ReservationStatus getStatus()
      </text>
    </g><!--class ReservationId-->
    <g id="elem_ReservationId">
      <rect codeLine="30" fill="#F1F1F1" height="64.2969" id="ReservationId" rx="2.5" ry="2.5"
            style="stroke:#181818;stroke-width:0.5;" width="131" x="2308.5" y="878.5"/>
      <ellipse cx="2323.5" cy="894.5" fill="#ADD1B2" rx="11" ry="11"
               style="stroke:#181818;stroke-width:1.0;"/>
      <path
        d="M2325.8438,890.1719 C2324.9063,889.7344 2324.3125,889.5938 2323.4375,889.5938 C2320.8125,889.5938 2318.8125,891.6719 2318.8125,894.3906 L2318.8125,895.5156 C2318.8125,898.0938 2320.9219,899.9844 2323.8125,899.9844 C2325.0313,899.9844 2326.1875,899.6875 2326.9375,899.1406 C2327.5156,898.7344 2327.8438,898.2813 2327.8438,897.8906 C2327.8438,897.4375 2327.4531,897.0469 2326.9844,897.0469 C2326.7656,897.0469 2326.5625,897.125 2326.375,897.3125 C2325.9219,897.7969 2325.9219,897.7969 2325.7344,897.8906 C2325.3125,898.1563 2324.625,898.2813 2323.8594,898.2813 C2321.8125,898.2813 2320.5156,897.1875 2320.5156,895.4844 L2320.5156,894.3906 C2320.5156,892.6094 2321.7656,891.2969 2323.5,891.2969 C2324.0781,891.2969 2324.6875,891.4531 2325.1563,891.7031 C2325.6406,891.9844 2325.8125,892.2031 2325.9063,892.6094 C2325.9688,893.0156 2326,893.1406 2326.1406,893.2656 C2326.2813,893.4063 2326.5156,893.5156 2326.7344,893.5156 C2327,893.5156 2327.2656,893.375 2327.4375,893.1563 C2327.5469,893 2327.5781,892.8125 2327.5781,892.3906 L2327.5781,890.9688 C2327.5781,890.5313 2327.5625,890.4063 2327.4688,890.25 C2327.3125,889.9844 2327.0313,889.8438 2326.7344,889.8438 C2326.4375,889.8438 2326.2344,889.9375 2326.0156,890.25 L2325.8438,890.1719 Z "
        fill="#000000"/>
      <text fill="#000000" font-family="sans-serif" font-size="14" lengthAdjust="spacing"
            textLength="99" x="2337.5" y="899.3467">ReservationId
      </text>
      <line style="stroke:#181818;stroke-width:0.5;" x1="2309.5" x2="2438.5" y1="910.5" y2="910.5"/>
      <line style="stroke:#181818;stroke-width:0.5;" x1="2309.5" x2="2438.5" y1="918.5" y2="918.5"/>
      <ellipse cx="2319.5" cy="932.1484" fill="#84BE84" rx="3" ry="3"
               style="stroke:#038048;stroke-width:1.0;"/>
      <text fill="#000000" font-family="sans-serif" font-size="14" lengthAdjust="spacing"
            textLength="85" x="2328.5" y="935.4951">UUID getId()
      </text>
    </g><!--class ReservationStatus-->
    <g id="elem_ReservationStatus">
      <rect codeLine="33" fill="#F1F1F1" height="113.1875" id="ReservationStatus" rx="2.5" ry="2.5"
            style="stroke:#181818;stroke-width:0.5;" width="361" x="2474.5" y="854"/>
      <ellipse cx="2584.75" cy="870" fill="#EB937F" rx="11" ry="11"
               style="stroke:#181818;stroke-width:1.0;"/>
      <path
        d="M2583.5469,870.875 L2585,870.875 L2585,870.9844 C2585,871.3906 2585.0313,871.5469 2585.1094,871.7031 C2585.2656,871.9531 2585.5469,872.1094 2585.8438,872.1094 C2586.0938,872.1094 2586.3594,871.9688 2586.5156,871.75 C2586.6406,871.5938 2586.6719,871.4375 2586.6719,870.9844 L2586.6719,869.0625 C2586.6719,868.9063 2586.6719,868.8594 2586.6563,868.7031 C2586.5938,868.2344 2586.2813,867.9219 2585.8281,867.9219 C2585.5781,867.9219 2585.3125,868.0625 2585.1406,868.2813 C2585.0313,868.4531 2585,868.6094 2585,869.0625 L2585,869.1875 L2583.5469,869.1875 L2583.5469,866.7813 L2587.5313,866.7813 L2587.5313,867.6406 C2587.5313,868.0469 2587.5625,868.2188 2587.6406,868.375 C2587.8125,868.625 2588.0938,868.7813 2588.375,868.7813 C2588.6406,868.7813 2588.9063,868.6406 2589.0781,868.4219 C2589.1875,868.25 2589.2188,868.1094 2589.2188,867.6406 L2589.2188,865.0938 L2581.5938,865.0938 C2581.1563,865.0938 2581.0313,865.1094 2580.875,865.2031 C2580.625,865.3594 2580.4688,865.6563 2580.4688,865.9375 C2580.4688,866.2188 2580.6094,866.4688 2580.8281,866.6406 C2580.9844,866.75 2581.1719,866.7813 2581.5938,866.7813 L2581.8438,866.7813 L2581.8438,873.2969 L2581.5938,873.2969 C2581.1875,873.2969 2581.0313,873.3125 2580.875,873.4219 C2580.625,873.5938 2580.4688,873.8594 2580.4688,874.1563 C2580.4688,874.4219 2580.6094,874.6719 2580.8281,874.8281 C2580.9688,874.9531 2581.2031,875 2581.5938,875 L2589.5938,875 L2589.5938,872.4219 C2589.5938,871.9844 2589.5625,871.8438 2589.4844,871.6875 C2589.3125,871.4375 2589.0313,871.2813 2588.75,871.2813 C2588.4844,871.2813 2588.2188,871.3906 2588.0469,871.6406 C2587.9375,871.7969 2587.9063,871.9375 2587.9063,872.4219 L2587.9063,873.2969 L2583.5469,873.2969 L2583.5469,870.875 Z "
        fill="#000000"/>
      <text fill="#000000" font-family="sans-serif" font-size="14" lengthAdjust="spacing"
            textLength="132" x="2605.25" y="874.8467">ReservationStatus
      </text>
      <line style="stroke:#181818;stroke-width:0.5;" x1="2475.5" x2="2834.5" y1="886" y2="886"/>
      <text fill="#000000" font-family="sans-serif" font-size="14" lengthAdjust="spacing"
            textLength="53" x="2480.5" y="902.9951">SUBMIT
      </text>
      <text fill="#000000" font-family="sans-serif" font-size="14" lengthAdjust="spacing"
            textLength="65" x="2480.5" y="919.292">CONFIRM
      </text>
      <text fill="#000000" font-family="sans-serif" font-size="14" lengthAdjust="spacing"
            textLength="46" x="2480.5" y="935.5889">RESET
      </text>
      <line style="stroke:#181818;stroke-width:0.5;" x1="2475.5" x2="2834.5" y1="942.8906"
            y2="942.8906"/>
      <ellipse cx="2485.5" cy="956.5391" fill="#84BE84" rx="3" ry="3"
               style="stroke:#038048;stroke-width:1.0;"/>
      <text fill="#000000" font-family="sans-serif" font-size="14" lengthAdjust="spacing"
            text-decoration="underline" textLength="335" x="2494.5" y="959.8857">EnumEntries&lt;ReservationStatus&gt;
        getEntries()
      </text>
    </g><!--class Trip-->
    <g id="elem_Trip">
      <rect codeLine="40" fill="#F1F1F1" height="162.0781" id="Trip" rx="2.5" ry="2.5"
            style="stroke:#181818;stroke-width:0.5;" width="226" x="94" y="563"/>
      <ellipse cx="188.25" cy="579" fill="#ADD1B2" rx="11" ry="11"
               style="stroke:#181818;stroke-width:1.0;"/>
      <path
        d="M190.5938,574.6719 C189.6563,574.2344 189.0625,574.0938 188.1875,574.0938 C185.5625,574.0938 183.5625,576.1719 183.5625,578.8906 L183.5625,580.0156 C183.5625,582.5938 185.6719,584.4844 188.5625,584.4844 C189.7813,584.4844 190.9375,584.1875 191.6875,583.6406 C192.2656,583.2344 192.5938,582.7813 192.5938,582.3906 C192.5938,581.9375 192.2031,581.5469 191.7344,581.5469 C191.5156,581.5469 191.3125,581.625 191.125,581.8125 C190.6719,582.2969 190.6719,582.2969 190.4844,582.3906 C190.0625,582.6563 189.375,582.7813 188.6094,582.7813 C186.5625,582.7813 185.2656,581.6875 185.2656,579.9844 L185.2656,578.8906 C185.2656,577.1094 186.5156,575.7969 188.25,575.7969 C188.8281,575.7969 189.4375,575.9531 189.9063,576.2031 C190.3906,576.4844 190.5625,576.7031 190.6563,577.1094 C190.7188,577.5156 190.75,577.6406 190.8906,577.7656 C191.0313,577.9063 191.2656,578.0156 191.4844,578.0156 C191.75,578.0156 192.0156,577.875 192.1875,577.6563 C192.2969,577.5 192.3281,577.3125 192.3281,576.8906 L192.3281,575.4688 C192.3281,575.0313 192.3125,574.9063 192.2188,574.75 C192.0625,574.4844 191.7813,574.3438 191.4844,574.3438 C191.1875,574.3438 190.9844,574.4375 190.7656,574.75 L190.5938,574.6719 Z "
        fill="#000000"/>
      <text fill="#000000" font-family="sans-serif" font-size="14" lengthAdjust="spacing"
            textLength="29" x="208.75" y="583.8467">Trip
      </text>
      <line style="stroke:#181818;stroke-width:0.5;" x1="95" x2="319" y1="595" y2="595"/>
      <line style="stroke:#181818;stroke-width:0.5;" x1="95" x2="319" y1="603" y2="603"/>
      <ellipse cx="105" cy="616.6484" fill="#84BE84" rx="3" ry="3"
               style="stroke:#038048;stroke-width:1.0;"/>
      <text fill="#000000" font-family="sans-serif" font-size="14" lengthAdjust="spacing"
            textLength="94" x="114" y="619.9951">TripId getId()
      </text>
      <ellipse cx="105" cy="632.9453" fill="#84BE84" rx="3" ry="3"
               style="stroke:#038048;stroke-width:1.0;"/>
      <text fill="#000000" font-family="sans-serif" font-size="14" lengthAdjust="spacing"
            textLength="135" x="114" y="636.292">Station getOrigin()
      </text>
      <ellipse cx="105" cy="649.2422" fill="#84BE84" rx="3" ry="3"
               style="stroke:#038048;stroke-width:1.0;"/>
      <text fill="#000000" font-family="sans-serif" font-size="14" lengthAdjust="spacing"
            textLength="176" x="114" y="652.5889">Station getDestination()
      </text>
      <ellipse cx="105" cy="665.5391" fill="#84BE84" rx="3" ry="3"
               style="stroke:#038048;stroke-width:1.0;"/>
      <text fill="#000000" font-family="sans-serif" font-size="14" lengthAdjust="spacing"
            textLength="200" x="114" y="668.8857">List&lt;Station&gt; getStations()
      </text>
      <ellipse cx="105" cy="681.8359" fill="#84BE84" rx="3" ry="3"
               style="stroke:#038048;stroke-width:1.0;"/>
      <text fill="#000000" font-family="sans-serif" font-size="14" lengthAdjust="spacing"
            textLength="111" x="114" y="685.1826">Train getTrain()
      </text>
      <ellipse cx="105" cy="698.1328" fill="#84BE84" rx="3" ry="3"
               style="stroke:#038048;stroke-width:1.0;"/>
      <text fill="#000000" font-family="sans-serif" font-size="14" lengthAdjust="spacing"
            textLength="105" x="114" y="701.4795">Seat getSeat()
      </text>
      <ellipse cx="105" cy="714.4297" fill="#84BE84" rx="3" ry="3"
               style="stroke:#038048;stroke-width:1.0;"/>
      <text fill="#000000" font-family="sans-serif" font-size="14" lengthAdjust="spacing"
            textLength="137" x="114" y="717.7764">Wagon getWagon()
      </text>
    </g><!--class TripId-->
    <g id="elem_TripId">
      <rect codeLine="49" fill="#F1F1F1" height="64.2969" id="TripId" rx="2.5" ry="2.5"
            style="stroke:#181818;stroke-width:0.5;" width="111" x="151.5" y="878.5"/>
      <ellipse cx="183.15" cy="894.5" fill="#ADD1B2" rx="11" ry="11"
               style="stroke:#181818;stroke-width:1.0;"/>
      <path
        d="M185.4938,890.1719 C184.5563,889.7344 183.9625,889.5938 183.0875,889.5938 C180.4625,889.5938 178.4625,891.6719 178.4625,894.3906 L178.4625,895.5156 C178.4625,898.0938 180.5719,899.9844 183.4625,899.9844 C184.6813,899.9844 185.8375,899.6875 186.5875,899.1406 C187.1656,898.7344 187.4938,898.2813 187.4938,897.8906 C187.4938,897.4375 187.1031,897.0469 186.6344,897.0469 C186.4156,897.0469 186.2125,897.125 186.025,897.3125 C185.5719,897.7969 185.5719,897.7969 185.3844,897.8906 C184.9625,898.1563 184.275,898.2813 183.5094,898.2813 C181.4625,898.2813 180.1656,897.1875 180.1656,895.4844 L180.1656,894.3906 C180.1656,892.6094 181.4156,891.2969 183.15,891.2969 C183.7281,891.2969 184.3375,891.4531 184.8063,891.7031 C185.2906,891.9844 185.4625,892.2031 185.5563,892.6094 C185.6188,893.0156 185.65,893.1406 185.7906,893.2656 C185.9313,893.4063 186.1656,893.5156 186.3844,893.5156 C186.65,893.5156 186.9156,893.375 187.0875,893.1563 C187.1969,893 187.2281,892.8125 187.2281,892.3906 L187.2281,890.9688 C187.2281,890.5313 187.2125,890.4063 187.1188,890.25 C186.9625,889.9844 186.6813,889.8438 186.3844,889.8438 C186.0875,889.8438 185.8844,889.9375 185.6656,890.25 L185.4938,890.1719 Z "
        fill="#000000"/>
      <text fill="#000000" font-family="sans-serif" font-size="14" lengthAdjust="spacing"
            textLength="42" x="200.85" y="899.3467">TripId
      </text>
      <line style="stroke:#181818;stroke-width:0.5;" x1="152.5" x2="261.5" y1="910.5" y2="910.5"/>
      <line style="stroke:#181818;stroke-width:0.5;" x1="152.5" x2="261.5" y1="918.5" y2="918.5"/>
      <ellipse cx="162.5" cy="932.1484" fill="#84BE84" rx="3" ry="3"
               style="stroke:#038048;stroke-width:1.0;"/>
      <text fill="#000000" font-family="sans-serif" font-size="14" lengthAdjust="spacing"
            textLength="85" x="171.5" y="935.4951">UUID getId()
      </text>
    </g><!--class Station-->
    <g id="elem_Station">
      <rect codeLine="52" fill="#F1F1F1" height="80.5938" id="Station" rx="2.5" ry="2.5"
            style="stroke:#181818;stroke-width:0.5;" width="150" x="376" y="870"/>
      <ellipse cx="420.25" cy="886" fill="#ADD1B2" rx="11" ry="11"
               style="stroke:#181818;stroke-width:1.0;"/>
      <path
        d="M422.5938,881.6719 C421.6563,881.2344 421.0625,881.0938 420.1875,881.0938 C417.5625,881.0938 415.5625,883.1719 415.5625,885.8906 L415.5625,887.0156 C415.5625,889.5938 417.6719,891.4844 420.5625,891.4844 C421.7813,891.4844 422.9375,891.1875 423.6875,890.6406 C424.2656,890.2344 424.5938,889.7813 424.5938,889.3906 C424.5938,888.9375 424.2031,888.5469 423.7344,888.5469 C423.5156,888.5469 423.3125,888.625 423.125,888.8125 C422.6719,889.2969 422.6719,889.2969 422.4844,889.3906 C422.0625,889.6563 421.375,889.7813 420.6094,889.7813 C418.5625,889.7813 417.2656,888.6875 417.2656,886.9844 L417.2656,885.8906 C417.2656,884.1094 418.5156,882.7969 420.25,882.7969 C420.8281,882.7969 421.4375,882.9531 421.9063,883.2031 C422.3906,883.4844 422.5625,883.7031 422.6563,884.1094 C422.7188,884.5156 422.75,884.6406 422.8906,884.7656 C423.0313,884.9063 423.2656,885.0156 423.4844,885.0156 C423.75,885.0156 424.0156,884.875 424.1875,884.6563 C424.2969,884.5 424.3281,884.3125 424.3281,883.8906 L424.3281,882.4688 C424.3281,882.0313 424.3125,881.9063 424.2188,881.75 C424.0625,881.4844 423.7813,881.3438 423.4844,881.3438 C423.1875,881.3438 422.9844,881.4375 422.7656,881.75 L422.5938,881.6719 Z "
        fill="#000000"/>
      <text fill="#000000" font-family="sans-serif" font-size="14" lengthAdjust="spacing"
            textLength="53" x="440.75" y="890.8467">Station
      </text>
      <line style="stroke:#181818;stroke-width:0.5;" x1="377" x2="525" y1="902" y2="902"/>
      <line style="stroke:#181818;stroke-width:0.5;" x1="377" x2="525" y1="910" y2="910"/>
      <ellipse cx="387" cy="923.6484" fill="#84BE84" rx="3" ry="3"
               style="stroke:#038048;stroke-width:1.0;"/>
      <text fill="#000000" font-family="sans-serif" font-size="14" lengthAdjust="spacing"
            textLength="118" x="396" y="926.9951">StationId getId()
      </text>
      <ellipse cx="387" cy="939.9453" fill="#84BE84" rx="3" ry="3"
               style="stroke:#038048;stroke-width:1.0;"/>
      <text fill="#000000" font-family="sans-serif" font-size="14" lengthAdjust="spacing"
            textLength="124" x="396" y="943.292">String getName()
      </text>
    </g><!--class StationId-->
    <g id="elem_StationId">
      <rect codeLine="56" fill="#F1F1F1" height="64.2969" id="StationId" rx="2.5" ry="2.5"
            style="stroke:#181818;stroke-width:0.5;" width="111" x="395.5" y="1039"/>
      <ellipse cx="416.35" cy="1055" fill="#ADD1B2" rx="11" ry="11"
               style="stroke:#181818;stroke-width:1.0;"/>
      <path
        d="M418.6938,1050.6719 C417.7563,1050.2344 417.1625,1050.0938 416.2875,1050.0938 C413.6625,1050.0938 411.6625,1052.1719 411.6625,1054.8906 L411.6625,1056.0156 C411.6625,1058.5938 413.7719,1060.4844 416.6625,1060.4844 C417.8813,1060.4844 419.0375,1060.1875 419.7875,1059.6406 C420.3656,1059.2344 420.6938,1058.7813 420.6938,1058.3906 C420.6938,1057.9375 420.3031,1057.5469 419.8344,1057.5469 C419.6156,1057.5469 419.4125,1057.625 419.225,1057.8125 C418.7719,1058.2969 418.7719,1058.2969 418.5844,1058.3906 C418.1625,1058.6563 417.475,1058.7813 416.7094,1058.7813 C414.6625,1058.7813 413.3656,1057.6875 413.3656,1055.9844 L413.3656,1054.8906 C413.3656,1053.1094 414.6156,1051.7969 416.35,1051.7969 C416.9281,1051.7969 417.5375,1051.9531 418.0063,1052.2031 C418.4906,1052.4844 418.6625,1052.7031 418.7563,1053.1094 C418.8188,1053.5156 418.85,1053.6406 418.9906,1053.7656 C419.1313,1053.9063 419.3656,1054.0156 419.5844,1054.0156 C419.85,1054.0156 420.1156,1053.875 420.2875,1053.6563 C420.3969,1053.5 420.4281,1053.3125 420.4281,1052.8906 L420.4281,1051.4688 C420.4281,1051.0313 420.4125,1050.9063 420.3188,1050.75 C420.1625,1050.4844 419.8813,1050.3438 419.5844,1050.3438 C419.2875,1050.3438 419.0844,1050.4375 418.8656,1050.75 L418.6938,1050.6719 Z "
        fill="#000000"/>
      <text fill="#000000" font-family="sans-serif" font-size="14" lengthAdjust="spacing"
            textLength="66" x="431.65" y="1059.8467">StationId
      </text>
      <line style="stroke:#181818;stroke-width:0.5;" x1="396.5" x2="505.5" y1="1071" y2="1071"/>
      <line style="stroke:#181818;stroke-width:0.5;" x1="396.5" x2="505.5" y1="1079" y2="1079"/>
      <ellipse cx="406.5" cy="1092.6484" fill="#84BE84" rx="3" ry="3"
               style="stroke:#038048;stroke-width:1.0;"/>
      <text fill="#000000" font-family="sans-serif" font-size="14" lengthAdjust="spacing"
            textLength="85" x="415.5" y="1095.9951">UUID getId()
      </text>
    </g><!--class Train-->
    <g id="elem_Train">
      <rect codeLine="59" fill="#F1F1F1" height="80.5938" id="Train" rx="2.5" ry="2.5"
            style="stroke:#181818;stroke-width:0.5;" width="150" x="1652" y="870"/>
      <ellipse cx="1704.75" cy="886" fill="#ADD1B2" rx="11" ry="11"
               style="stroke:#181818;stroke-width:1.0;"/>
      <path
        d="M1707.0938,881.6719 C1706.1563,881.2344 1705.5625,881.0938 1704.6875,881.0938 C1702.0625,881.0938 1700.0625,883.1719 1700.0625,885.8906 L1700.0625,887.0156 C1700.0625,889.5938 1702.1719,891.4844 1705.0625,891.4844 C1706.2813,891.4844 1707.4375,891.1875 1708.1875,890.6406 C1708.7656,890.2344 1709.0938,889.7813 1709.0938,889.3906 C1709.0938,888.9375 1708.7031,888.5469 1708.2344,888.5469 C1708.0156,888.5469 1707.8125,888.625 1707.625,888.8125 C1707.1719,889.2969 1707.1719,889.2969 1706.9844,889.3906 C1706.5625,889.6563 1705.875,889.7813 1705.1094,889.7813 C1703.0625,889.7813 1701.7656,888.6875 1701.7656,886.9844 L1701.7656,885.8906 C1701.7656,884.1094 1703.0156,882.7969 1704.75,882.7969 C1705.3281,882.7969 1705.9375,882.9531 1706.4063,883.2031 C1706.8906,883.4844 1707.0625,883.7031 1707.1563,884.1094 C1707.2188,884.5156 1707.25,884.6406 1707.3906,884.7656 C1707.5313,884.9063 1707.7656,885.0156 1707.9844,885.0156 C1708.25,885.0156 1708.5156,884.875 1708.6875,884.6563 C1708.7969,884.5 1708.8281,884.3125 1708.8281,883.8906 L1708.8281,882.4688 C1708.8281,882.0313 1708.8125,881.9063 1708.7188,881.75 C1708.5625,881.4844 1708.2813,881.3438 1707.9844,881.3438 C1707.6875,881.3438 1707.4844,881.4375 1707.2656,881.75 L1707.0938,881.6719 Z "
        fill="#000000"/>
      <text fill="#000000" font-family="sans-serif" font-size="14" lengthAdjust="spacing"
            textLength="36" x="1725.25" y="890.8467">Train
      </text>
      <line style="stroke:#181818;stroke-width:0.5;" x1="1653" x2="1801" y1="902" y2="902"/>
      <line style="stroke:#181818;stroke-width:0.5;" x1="1653" x2="1801" y1="910" y2="910"/>
      <ellipse cx="1663" cy="923.6484" fill="#84BE84" rx="3" ry="3"
               style="stroke:#038048;stroke-width:1.0;"/>
      <text fill="#000000" font-family="sans-serif" font-size="14" lengthAdjust="spacing"
            textLength="88" x="1672" y="926.9951">Train getId()
      </text>
      <ellipse cx="1663" cy="939.9453" fill="#84BE84" rx="3" ry="3"
               style="stroke:#038048;stroke-width:1.0;"/>
      <text fill="#000000" font-family="sans-serif" font-size="14" lengthAdjust="spacing"
            textLength="124" x="1672" y="943.292">String getName()
      </text>
    </g><!--class TrainId-->
    <g id="elem_TrainId">
      <rect codeLine="63" fill="#F1F1F1" height="64.2969" id="TrainId" rx="2.5" ry="2.5"
            style="stroke:#181818;stroke-width:0.5;" width="111" x="1505.5" y="878.5"/>
      <ellipse cx="1534" cy="894.5" fill="#ADD1B2" rx="11" ry="11"
               style="stroke:#181818;stroke-width:1.0;"/>
      <path
        d="M1536.3438,890.1719 C1535.4063,889.7344 1534.8125,889.5938 1533.9375,889.5938 C1531.3125,889.5938 1529.3125,891.6719 1529.3125,894.3906 L1529.3125,895.5156 C1529.3125,898.0938 1531.4219,899.9844 1534.3125,899.9844 C1535.5313,899.9844 1536.6875,899.6875 1537.4375,899.1406 C1538.0156,898.7344 1538.3438,898.2813 1538.3438,897.8906 C1538.3438,897.4375 1537.9531,897.0469 1537.4844,897.0469 C1537.2656,897.0469 1537.0625,897.125 1536.875,897.3125 C1536.4219,897.7969 1536.4219,897.7969 1536.2344,897.8906 C1535.8125,898.1563 1535.125,898.2813 1534.3594,898.2813 C1532.3125,898.2813 1531.0156,897.1875 1531.0156,895.4844 L1531.0156,894.3906 C1531.0156,892.6094 1532.2656,891.2969 1534,891.2969 C1534.5781,891.2969 1535.1875,891.4531 1535.6563,891.7031 C1536.1406,891.9844 1536.3125,892.2031 1536.4063,892.6094 C1536.4688,893.0156 1536.5,893.1406 1536.6406,893.2656 C1536.7813,893.4063 1537.0156,893.5156 1537.2344,893.5156 C1537.5,893.5156 1537.7656,893.375 1537.9375,893.1563 C1538.0469,893 1538.0781,892.8125 1538.0781,892.3906 L1538.0781,890.9688 C1538.0781,890.5313 1538.0625,890.4063 1537.9688,890.25 C1537.8125,889.9844 1537.5313,889.8438 1537.2344,889.8438 C1536.9375,889.8438 1536.7344,889.9375 1536.5156,890.25 L1536.3438,890.1719 Z "
        fill="#000000"/>
      <text fill="#000000" font-family="sans-serif" font-size="14" lengthAdjust="spacing"
            textLength="49" x="1551" y="899.3467">TrainId
      </text>
      <line style="stroke:#181818;stroke-width:0.5;" x1="1506.5" x2="1615.5" y1="910.5" y2="910.5"/>
      <line style="stroke:#181818;stroke-width:0.5;" x1="1506.5" x2="1615.5" y1="918.5" y2="918.5"/>
      <ellipse cx="1516.5" cy="932.1484" fill="#84BE84" rx="3" ry="3"
               style="stroke:#038048;stroke-width:1.0;"/>
      <text fill="#000000" font-family="sans-serif" font-size="14" lengthAdjust="spacing"
            textLength="85" x="1525.5" y="935.4951">UUID getId()
      </text>
    </g><!--class Wagon-->
    <g id="elem_Wagon">
      <rect codeLine="66" fill="#F1F1F1" height="96.8906" id="Wagon" rx="2.5" ry="2.5"
            style="stroke:#181818;stroke-width:0.5;" width="166" x="1241" y="862"/>
      <ellipse cx="1295.25" cy="878" fill="#ADD1B2" rx="11" ry="11"
               style="stroke:#181818;stroke-width:1.0;"/>
      <path
        d="M1297.5938,873.6719 C1296.6563,873.2344 1296.0625,873.0938 1295.1875,873.0938 C1292.5625,873.0938 1290.5625,875.1719 1290.5625,877.8906 L1290.5625,879.0156 C1290.5625,881.5938 1292.6719,883.4844 1295.5625,883.4844 C1296.7813,883.4844 1297.9375,883.1875 1298.6875,882.6406 C1299.2656,882.2344 1299.5938,881.7813 1299.5938,881.3906 C1299.5938,880.9375 1299.2031,880.5469 1298.7344,880.5469 C1298.5156,880.5469 1298.3125,880.625 1298.125,880.8125 C1297.6719,881.2969 1297.6719,881.2969 1297.4844,881.3906 C1297.0625,881.6563 1296.375,881.7813 1295.6094,881.7813 C1293.5625,881.7813 1292.2656,880.6875 1292.2656,878.9844 L1292.2656,877.8906 C1292.2656,876.1094 1293.5156,874.7969 1295.25,874.7969 C1295.8281,874.7969 1296.4375,874.9531 1296.9063,875.2031 C1297.3906,875.4844 1297.5625,875.7031 1297.6563,876.1094 C1297.7188,876.5156 1297.75,876.6406 1297.8906,876.7656 C1298.0313,876.9063 1298.2656,877.0156 1298.4844,877.0156 C1298.75,877.0156 1299.0156,876.875 1299.1875,876.6563 C1299.2969,876.5 1299.3281,876.3125 1299.3281,875.8906 L1299.3281,874.4688 C1299.3281,874.0313 1299.3125,873.9063 1299.2188,873.75 C1299.0625,873.4844 1298.7813,873.3438 1298.4844,873.3438 C1298.1875,873.3438 1297.9844,873.4375 1297.7656,873.75 L1297.5938,873.6719 Z "
        fill="#000000"/>
      <text fill="#000000" font-family="sans-serif" font-size="14" lengthAdjust="spacing"
            textLength="49" x="1315.75" y="882.8467">Wagon
      </text>
      <line style="stroke:#181818;stroke-width:0.5;" x1="1242" x2="1406" y1="894" y2="894"/>
      <line style="stroke:#181818;stroke-width:0.5;" x1="1242" x2="1406" y1="902" y2="902"/>
      <ellipse cx="1252" cy="915.6484" fill="#84BE84" rx="3" ry="3"
               style="stroke:#038048;stroke-width:1.0;"/>
      <text fill="#000000" font-family="sans-serif" font-size="14" lengthAdjust="spacing"
            textLength="101" x="1261" y="918.9951">Wagon getId()
      </text>
      <ellipse cx="1252" cy="931.9453" fill="#84BE84" rx="3" ry="3"
               style="stroke:#038048;stroke-width:1.0;"/>
      <text fill="#000000" font-family="sans-serif" font-size="14" lengthAdjust="spacing"
            textLength="124" x="1261" y="935.292">String getName()
      </text>
      <ellipse cx="1252" cy="948.2422" fill="#84BE84" rx="3" ry="3"
               style="stroke:#038048;stroke-width:1.0;"/>
      <text fill="#000000" font-family="sans-serif" font-size="14" lengthAdjust="spacing"
            textLength="140" x="1261" y="951.5889">String getNumber()
      </text>
    </g><!--class WagonId-->
    <g id="elem_WagonId">
      <rect codeLine="71" fill="#F1F1F1" height="64.2969" id="WagonId" rx="2.5" ry="2.5"
            style="stroke:#181818;stroke-width:0.5;" width="111" x="1094.5" y="878.5"/>
      <ellipse cx="1117.15" cy="894.5" fill="#ADD1B2" rx="11" ry="11"
               style="stroke:#181818;stroke-width:1.0;"/>
      <path
        d="M1119.4938,890.1719 C1118.5563,889.7344 1117.9625,889.5938 1117.0875,889.5938 C1114.4625,889.5938 1112.4625,891.6719 1112.4625,894.3906 L1112.4625,895.5156 C1112.4625,898.0938 1114.5719,899.9844 1117.4625,899.9844 C1118.6813,899.9844 1119.8375,899.6875 1120.5875,899.1406 C1121.1656,898.7344 1121.4938,898.2813 1121.4938,897.8906 C1121.4938,897.4375 1121.1031,897.0469 1120.6344,897.0469 C1120.4156,897.0469 1120.2125,897.125 1120.025,897.3125 C1119.5719,897.7969 1119.5719,897.7969 1119.3844,897.8906 C1118.9625,898.1563 1118.275,898.2813 1117.5094,898.2813 C1115.4625,898.2813 1114.1656,897.1875 1114.1656,895.4844 L1114.1656,894.3906 C1114.1656,892.6094 1115.4156,891.2969 1117.15,891.2969 C1117.7281,891.2969 1118.3375,891.4531 1118.8063,891.7031 C1119.2906,891.9844 1119.4625,892.2031 1119.5563,892.6094 C1119.6188,893.0156 1119.65,893.1406 1119.7906,893.2656 C1119.9313,893.4063 1120.1656,893.5156 1120.3844,893.5156 C1120.65,893.5156 1120.9156,893.375 1121.0875,893.1563 C1121.1969,893 1121.2281,892.8125 1121.2281,892.3906 L1121.2281,890.9688 C1121.2281,890.5313 1121.2125,890.4063 1121.1188,890.25 C1120.9625,889.9844 1120.6813,889.8438 1120.3844,889.8438 C1120.0875,889.8438 1119.8844,889.9375 1119.6656,890.25 L1119.4938,890.1719 Z "
        fill="#000000"/>
      <text fill="#000000" font-family="sans-serif" font-size="14" lengthAdjust="spacing"
            textLength="62" x="1132.85" y="899.3467">WagonId
      </text>
      <line style="stroke:#181818;stroke-width:0.5;" x1="1095.5" x2="1204.5" y1="910.5" y2="910.5"/>
      <line style="stroke:#181818;stroke-width:0.5;" x1="1095.5" x2="1204.5" y1="918.5" y2="918.5"/>
      <ellipse cx="1105.5" cy="932.1484" fill="#84BE84" rx="3" ry="3"
               style="stroke:#038048;stroke-width:1.0;"/>
      <text fill="#000000" font-family="sans-serif" font-size="14" lengthAdjust="spacing"
            textLength="85" x="1114.5" y="935.4951">UUID getId()
      </text>
    </g><!--class Seat-->
    <g id="elem_Seat">
      <rect codeLine="74" fill="#F1F1F1" height="80.5938" id="Seat" rx="2.5" ry="2.5"
            style="stroke:#181818;stroke-width:0.5;" width="150" x="870" y="870"/>
      <ellipse cx="924.25" cy="886" fill="#ADD1B2" rx="11" ry="11"
               style="stroke:#181818;stroke-width:1.0;"/>
      <path
        d="M926.5938,881.6719 C925.6563,881.2344 925.0625,881.0938 924.1875,881.0938 C921.5625,881.0938 919.5625,883.1719 919.5625,885.8906 L919.5625,887.0156 C919.5625,889.5938 921.6719,891.4844 924.5625,891.4844 C925.7813,891.4844 926.9375,891.1875 927.6875,890.6406 C928.2656,890.2344 928.5938,889.7813 928.5938,889.3906 C928.5938,888.9375 928.2031,888.5469 927.7344,888.5469 C927.5156,888.5469 927.3125,888.625 927.125,888.8125 C926.6719,889.2969 926.6719,889.2969 926.4844,889.3906 C926.0625,889.6563 925.375,889.7813 924.6094,889.7813 C922.5625,889.7813 921.2656,888.6875 921.2656,886.9844 L921.2656,885.8906 C921.2656,884.1094 922.5156,882.7969 924.25,882.7969 C924.8281,882.7969 925.4375,882.9531 925.9063,883.2031 C926.3906,883.4844 926.5625,883.7031 926.6563,884.1094 C926.7188,884.5156 926.75,884.6406 926.8906,884.7656 C927.0313,884.9063 927.2656,885.0156 927.4844,885.0156 C927.75,885.0156 928.0156,884.875 928.1875,884.6563 C928.2969,884.5 928.3281,884.3125 928.3281,883.8906 L928.3281,882.4688 C928.3281,882.0313 928.3125,881.9063 928.2188,881.75 C928.0625,881.4844 927.7813,881.3438 927.4844,881.3438 C927.1875,881.3438 926.9844,881.4375 926.7656,881.75 L926.5938,881.6719 Z "
        fill="#000000"/>
      <text fill="#000000" font-family="sans-serif" font-size="14" lengthAdjust="spacing"
            textLength="33" x="944.75" y="890.8467">Seat
      </text>
      <line style="stroke:#181818;stroke-width:0.5;" x1="871" x2="1019" y1="902" y2="902"/>
      <line style="stroke:#181818;stroke-width:0.5;" x1="871" x2="1019" y1="910" y2="910"/>
      <ellipse cx="881" cy="923.6484" fill="#84BE84" rx="3" ry="3"
               style="stroke:#038048;stroke-width:1.0;"/>
      <text fill="#000000" font-family="sans-serif" font-size="14" lengthAdjust="spacing"
            textLength="85" x="890" y="926.9951">Seat getId()
      </text>
      <ellipse cx="881" cy="939.9453" fill="#84BE84" rx="3" ry="3"
               style="stroke:#038048;stroke-width:1.0;"/>
      <text fill="#000000" font-family="sans-serif" font-size="14" lengthAdjust="spacing"
            textLength="124" x="890" y="943.292">String getName()
      </text>
    </g><!--class SeatId-->
    <g id="elem_SeatId">
      <rect codeLine="78" fill="#F1F1F1" height="64.2969" id="SeatId" rx="2.5" ry="2.5"
            style="stroke:#181818;stroke-width:0.5;" width="111" x="723.5" y="878.5"/>
      <ellipse cx="753.35" cy="894.5" fill="#ADD1B2" rx="11" ry="11"
               style="stroke:#181818;stroke-width:1.0;"/>
      <path
        d="M755.6938,890.1719 C754.7563,889.7344 754.1625,889.5938 753.2875,889.5938 C750.6625,889.5938 748.6625,891.6719 748.6625,894.3906 L748.6625,895.5156 C748.6625,898.0938 750.7719,899.9844 753.6625,899.9844 C754.8813,899.9844 756.0375,899.6875 756.7875,899.1406 C757.3656,898.7344 757.6938,898.2813 757.6938,897.8906 C757.6938,897.4375 757.3031,897.0469 756.8344,897.0469 C756.6156,897.0469 756.4125,897.125 756.225,897.3125 C755.7719,897.7969 755.7719,897.7969 755.5844,897.8906 C755.1625,898.1563 754.475,898.2813 753.7094,898.2813 C751.6625,898.2813 750.3656,897.1875 750.3656,895.4844 L750.3656,894.3906 C750.3656,892.6094 751.6156,891.2969 753.35,891.2969 C753.9281,891.2969 754.5375,891.4531 755.0063,891.7031 C755.4906,891.9844 755.6625,892.2031 755.7563,892.6094 C755.8188,893.0156 755.85,893.1406 755.9906,893.2656 C756.1313,893.4063 756.3656,893.5156 756.5844,893.5156 C756.85,893.5156 757.1156,893.375 757.2875,893.1563 C757.3969,893 757.4281,892.8125 757.4281,892.3906 L757.4281,890.9688 C757.4281,890.5313 757.4125,890.4063 757.3188,890.25 C757.1625,889.9844 756.8813,889.8438 756.5844,889.8438 C756.2875,889.8438 756.0844,889.9375 755.8656,890.25 L755.6938,890.1719 Z "
        fill="#000000"/>
      <text fill="#000000" font-family="sans-serif" font-size="14" lengthAdjust="spacing"
            textLength="46" x="770.65" y="899.3467">SeatId
      </text>
      <line style="stroke:#181818;stroke-width:0.5;" x1="724.5" x2="833.5" y1="910.5" y2="910.5"/>
      <line style="stroke:#181818;stroke-width:0.5;" x1="724.5" x2="833.5" y1="918.5" y2="918.5"/>
      <ellipse cx="734.5" cy="932.1484" fill="#84BE84" rx="3" ry="3"
               style="stroke:#038048;stroke-width:1.0;"/>
      <text fill="#000000" font-family="sans-serif" font-size="14" lengthAdjust="spacing"
            textLength="85" x="743.5" y="935.4951">UUID getId()
      </text>
    </g><!--class ResetReservationService-->
    <g id="elem_ResetReservationService">
      <rect codeLine="81" fill="#F1F1F1" height="121.1875" id="ResetReservationService" rx="2.5"
            ry="2.5" style="stroke:#181818;stroke-width:0.5;" width="435" x="1882.5" y="84"/>
      <ellipse cx="2005.25" cy="100" fill="#ADD1B2" rx="11" ry="11"
               style="stroke:#181818;stroke-width:1.0;"/>
      <path
        d="M2007.5938,95.6719 C2006.6563,95.2344 2006.0625,95.0938 2005.1875,95.0938 C2002.5625,95.0938 2000.5625,97.1719 2000.5625,99.8906 L2000.5625,101.0156 C2000.5625,103.5938 2002.6719,105.4844 2005.5625,105.4844 C2006.7813,105.4844 2007.9375,105.1875 2008.6875,104.6406 C2009.2656,104.2344 2009.5938,103.7813 2009.5938,103.3906 C2009.5938,102.9375 2009.2031,102.5469 2008.7344,102.5469 C2008.5156,102.5469 2008.3125,102.625 2008.125,102.8125 C2007.6719,103.2969 2007.6719,103.2969 2007.4844,103.3906 C2007.0625,103.6563 2006.375,103.7813 2005.6094,103.7813 C2003.5625,103.7813 2002.2656,102.6875 2002.2656,100.9844 L2002.2656,99.8906 C2002.2656,98.1094 2003.5156,96.7969 2005.25,96.7969 C2005.8281,96.7969 2006.4375,96.9531 2006.9063,97.2031 C2007.3906,97.4844 2007.5625,97.7031 2007.6563,98.1094 C2007.7188,98.5156 2007.75,98.6406 2007.8906,98.7656 C2008.0313,98.9063 2008.2656,99.0156 2008.4844,99.0156 C2008.75,99.0156 2009.0156,98.875 2009.1875,98.6563 C2009.2969,98.5 2009.3281,98.3125 2009.3281,97.8906 L2009.3281,96.4688 C2009.3281,96.0313 2009.3125,95.9063 2009.2188,95.75 C2009.0625,95.4844 2008.7813,95.3438 2008.4844,95.3438 C2008.1875,95.3438 2007.9844,95.4375 2007.7656,95.75 L2007.5938,95.6719 Z "
        fill="#000000"/>
      <text fill="#000000" font-family="sans-serif" font-size="14" lengthAdjust="spacing"
            textLength="181" x="2025.75" y="104.8467">ResetReservationService
      </text>
      <line style="stroke:#181818;stroke-width:0.5;" x1="1883.5" x2="2316.5" y1="116" y2="116"/>
      <line style="stroke:#181818;stroke-width:1.0;stroke-dasharray:1.0,2.0;" x1="1883.5"
            x2="2316.5" y1="124" y2="124"/>
      <ellipse cx="1893.5" cy="137.6484" fill="none" rx="3" ry="3"
               style="stroke:#038048;stroke-width:1.0;"/>
      <text fill="#000000" font-family="sans-serif" font-size="14" lengthAdjust="spacing"
            textLength="342" x="1902.5" y="140.9951">ResetReservationComponent resetReservation
      </text>
      <line style="stroke:#181818;stroke-width:0.5;" x1="1883.5" x2="2316.5" y1="148.2969"
            y2="148.2969"/>
      <ellipse cx="1893.5" cy="161.9453" fill="#84BE84" rx="3" ry="3"
               style="stroke:#038048;stroke-width:1.0;"/>
      <text fill="#000000" font-family="sans-serif" font-size="14" lengthAdjust="spacing"
            textLength="381" x="1902.5" y="165.292">ResetReservationComponent getResetReservation()
      </text>
      <ellipse cx="1893.5" cy="178.2422" fill="#84BE84" rx="3" ry="3"
               style="stroke:#038048;stroke-width:1.0;"/>
      <text fill="#000000" font-family="sans-serif" font-size="14" lengthAdjust="spacing"
            textLength="409" x="1902.5" y="181.5889">void
        setResetReservation(ResetReservationComponent)
      </text>
      <ellipse cx="1893.5" cy="194.5391" fill="#84BE84" rx="3" ry="3"
               style="stroke:#038048;stroke-width:1.0;"/>
      <text fill="#000000" font-family="sans-serif" font-size="14" lengthAdjust="spacing"
            textLength="182" x="1902.5" y="197.8857">void serve(ReservationId)
      </text>
    </g><!--class ResetReservationComponent-->
    <g id="elem_ResetReservationComponent">
      <rect codeLine="89" fill="#F1F1F1" height="113.1875" id="ResetReservationComponent" rx="2.5"
            ry="2.5" style="stroke:#181818;stroke-width:0.5;" width="344" x="1928" y="265"/>
      <ellipse cx="1988.75" cy="281" fill="#ADD1B2" rx="11" ry="11"
               style="stroke:#181818;stroke-width:1.0;"/>
      <path
        d="M1991.0938,276.6719 C1990.1563,276.2344 1989.5625,276.0938 1988.6875,276.0938 C1986.0625,276.0938 1984.0625,278.1719 1984.0625,280.8906 L1984.0625,282.0156 C1984.0625,284.5938 1986.1719,286.4844 1989.0625,286.4844 C1990.2813,286.4844 1991.4375,286.1875 1992.1875,285.6406 C1992.7656,285.2344 1993.0938,284.7813 1993.0938,284.3906 C1993.0938,283.9375 1992.7031,283.5469 1992.2344,283.5469 C1992.0156,283.5469 1991.8125,283.625 1991.625,283.8125 C1991.1719,284.2969 1991.1719,284.2969 1990.9844,284.3906 C1990.5625,284.6563 1989.875,284.7813 1989.1094,284.7813 C1987.0625,284.7813 1985.7656,283.6875 1985.7656,281.9844 L1985.7656,280.8906 C1985.7656,279.1094 1987.0156,277.7969 1988.75,277.7969 C1989.3281,277.7969 1989.9375,277.9531 1990.4063,278.2031 C1990.8906,278.4844 1991.0625,278.7031 1991.1563,279.1094 C1991.2188,279.5156 1991.25,279.6406 1991.3906,279.7656 C1991.5313,279.9063 1991.7656,280.0156 1991.9844,280.0156 C1992.25,280.0156 1992.5156,279.875 1992.6875,279.6563 C1992.7969,279.5 1992.8281,279.3125 1992.8281,278.8906 L1992.8281,277.4688 C1992.8281,277.0313 1992.8125,276.9063 1992.7188,276.75 C1992.5625,276.4844 1992.2813,276.3438 1991.9844,276.3438 C1991.6875,276.3438 1991.4844,276.4375 1991.2656,276.75 L1991.0938,276.6719 Z "
        fill="#000000"/>
      <text fill="#000000" font-family="sans-serif" font-size="14" lengthAdjust="spacing"
            textLength="214" x="2009.25" y="285.8467">ResetReservationComponent
      </text>
      <line style="stroke:#181818;stroke-width:0.5;" x1="1929" x2="2271" y1="297" y2="297"/>
      <ellipse cx="1939" cy="310.6484" fill="none" rx="3" ry="3"
               style="stroke:#038048;stroke-width:1.0;"/>
      <text fill="#000000" font-family="sans-serif" font-size="14" lengthAdjust="spacing"
            textLength="251" x="1948" y="313.9951">ReservationRepository reservation
      </text>
      <line style="stroke:#181818;stroke-width:0.5;" x1="1929" x2="2271" y1="321.2969"
            y2="321.2969"/>
      <ellipse cx="1939" cy="334.9453" fill="#84BE84" rx="3" ry="3"
               style="stroke:#038048;stroke-width:1.0;"/>
      <text fill="#000000" font-family="sans-serif" font-size="14" lengthAdjust="spacing"
            textLength="290" x="1948" y="338.292">ReservationRepository getReservation()
      </text>
      <ellipse cx="1939" cy="351.2422" fill="#84BE84" rx="3" ry="3"
               style="stroke:#038048;stroke-width:1.0;"/>
      <text fill="#000000" font-family="sans-serif" font-size="14" lengthAdjust="spacing"
            textLength="318" x="1948" y="354.5889">void setReservation(ReservationRepository)
      </text>
      <ellipse cx="1939" cy="367.5391" fill="#84BE84" rx="3" ry="3"
               style="stroke:#038048;stroke-width:1.0;"/>
      <text fill="#000000" font-family="sans-serif" font-size="14" lengthAdjust="spacing"
            textLength="201" x="1948" y="370.8857">void execute(ReservationId)
      </text>
    </g><!--class SubmitReservationService-->
    <g id="elem_SubmitReservationService">
      <rect codeLine="96" fill="#F1F1F1" height="113.1875" id="SubmitReservationService" rx="2.5"
            ry="2.5" style="stroke:#181818;stroke-width:0.5;" width="455" x="1370.5" y="88"/>
      <ellipse cx="1498.25" cy="104" fill="#ADD1B2" rx="11" ry="11"
               style="stroke:#181818;stroke-width:1.0;"/>
      <path
        d="M1500.5938,99.6719 C1499.6563,99.2344 1499.0625,99.0938 1498.1875,99.0938 C1495.5625,99.0938 1493.5625,101.1719 1493.5625,103.8906 L1493.5625,105.0156 C1493.5625,107.5938 1495.6719,109.4844 1498.5625,109.4844 C1499.7813,109.4844 1500.9375,109.1875 1501.6875,108.6406 C1502.2656,108.2344 1502.5938,107.7813 1502.5938,107.3906 C1502.5938,106.9375 1502.2031,106.5469 1501.7344,106.5469 C1501.5156,106.5469 1501.3125,106.625 1501.125,106.8125 C1500.6719,107.2969 1500.6719,107.2969 1500.4844,107.3906 C1500.0625,107.6563 1499.375,107.7813 1498.6094,107.7813 C1496.5625,107.7813 1495.2656,106.6875 1495.2656,104.9844 L1495.2656,103.8906 C1495.2656,102.1094 1496.5156,100.7969 1498.25,100.7969 C1498.8281,100.7969 1499.4375,100.9531 1499.9063,101.2031 C1500.3906,101.4844 1500.5625,101.7031 1500.6563,102.1094 C1500.7188,102.5156 1500.75,102.6406 1500.8906,102.7656 C1501.0313,102.9063 1501.2656,103.0156 1501.4844,103.0156 C1501.75,103.0156 1502.0156,102.875 1502.1875,102.6563 C1502.2969,102.5 1502.3281,102.3125 1502.3281,101.8906 L1502.3281,100.4688 C1502.3281,100.0313 1502.3125,99.9063 1502.2188,99.75 C1502.0625,99.4844 1501.7813,99.3438 1501.4844,99.3438 C1501.1875,99.3438 1500.9844,99.4375 1500.7656,99.75 L1500.5938,99.6719 Z "
        fill="#000000"/>
      <text fill="#000000" font-family="sans-serif" font-size="14" lengthAdjust="spacing"
            textLength="191" x="1518.75" y="108.8467">SubmitReservationService
      </text>
      <line style="stroke:#181818;stroke-width:0.5;" x1="1371.5" x2="1824.5" y1="120" y2="120"/>
      <ellipse cx="1381.5" cy="133.6484" fill="none" rx="3" ry="3"
               style="stroke:#038048;stroke-width:1.0;"/>
      <text fill="#000000" font-family="sans-serif" font-size="14" lengthAdjust="spacing"
            textLength="364" x="1390.5" y="136.9951">SubmitReservationComponent submitReservation
      </text>
      <line style="stroke:#181818;stroke-width:0.5;" x1="1371.5" x2="1824.5" y1="144.2969"
            y2="144.2969"/>
      <ellipse cx="1381.5" cy="157.9453" fill="#84BE84" rx="3" ry="3"
               style="stroke:#038048;stroke-width:1.0;"/>
      <text fill="#000000" font-family="sans-serif" font-size="14" lengthAdjust="spacing"
            textLength="401" x="1390.5" y="161.292">SubmitReservationComponent
        getSubmitReservation()
      </text>
      <ellipse cx="1381.5" cy="174.2422" fill="#84BE84" rx="3" ry="3"
               style="stroke:#038048;stroke-width:1.0;"/>
      <text fill="#000000" font-family="sans-serif" font-size="14" lengthAdjust="spacing"
            textLength="429" x="1390.5" y="177.5889">void
        setSubmitReservation(SubmitReservationComponent)
      </text>
      <ellipse cx="1381.5" cy="190.5391" fill="#84BE84" rx="3" ry="3"
               style="stroke:#038048;stroke-width:1.0;"/>
      <text fill="#000000" font-family="sans-serif" font-size="14" lengthAdjust="spacing"
            textLength="196" x="1390.5" y="193.8857">ReservationId serve(String)
      </text>
    </g><!--class SubmitReservationComponent-->
    <g id="elem_SubmitReservationComponent">
      <rect codeLine="103" fill="#F1F1F1" height="113.1875" id="SubmitReservationComponent" rx="2.5"
            ry="2.5" style="stroke:#181818;stroke-width:0.5;" width="344" x="1442" y="265"/>
      <ellipse cx="1497.75" cy="281" fill="#ADD1B2" rx="11" ry="11"
               style="stroke:#181818;stroke-width:1.0;"/>
      <path
        d="M1500.0938,276.6719 C1499.1563,276.2344 1498.5625,276.0938 1497.6875,276.0938 C1495.0625,276.0938 1493.0625,278.1719 1493.0625,280.8906 L1493.0625,282.0156 C1493.0625,284.5938 1495.1719,286.4844 1498.0625,286.4844 C1499.2813,286.4844 1500.4375,286.1875 1501.1875,285.6406 C1501.7656,285.2344 1502.0938,284.7813 1502.0938,284.3906 C1502.0938,283.9375 1501.7031,283.5469 1501.2344,283.5469 C1501.0156,283.5469 1500.8125,283.625 1500.625,283.8125 C1500.1719,284.2969 1500.1719,284.2969 1499.9844,284.3906 C1499.5625,284.6563 1498.875,284.7813 1498.1094,284.7813 C1496.0625,284.7813 1494.7656,283.6875 1494.7656,281.9844 L1494.7656,280.8906 C1494.7656,279.1094 1496.0156,277.7969 1497.75,277.7969 C1498.3281,277.7969 1498.9375,277.9531 1499.4063,278.2031 C1499.8906,278.4844 1500.0625,278.7031 1500.1563,279.1094 C1500.2188,279.5156 1500.25,279.6406 1500.3906,279.7656 C1500.5313,279.9063 1500.7656,280.0156 1500.9844,280.0156 C1501.25,280.0156 1501.5156,279.875 1501.6875,279.6563 C1501.7969,279.5 1501.8281,279.3125 1501.8281,278.8906 L1501.8281,277.4688 C1501.8281,277.0313 1501.8125,276.9063 1501.7188,276.75 C1501.5625,276.4844 1501.2813,276.3438 1500.9844,276.3438 C1500.6875,276.3438 1500.4844,276.4375 1500.2656,276.75 L1500.0938,276.6719 Z "
        fill="#000000"/>
      <text fill="#000000" font-family="sans-serif" font-size="14" lengthAdjust="spacing"
            textLength="224" x="1518.25" y="285.8467">SubmitReservationComponent
      </text>
      <line style="stroke:#181818;stroke-width:0.5;" x1="1443" x2="1785" y1="297" y2="297"/>
      <ellipse cx="1453" cy="310.6484" fill="none" rx="3" ry="3"
               style="stroke:#038048;stroke-width:1.0;"/>
      <text fill="#000000" font-family="sans-serif" font-size="14" lengthAdjust="spacing"
            textLength="251" x="1462" y="313.9951">ReservationRepository reservation
      </text>
      <line style="stroke:#181818;stroke-width:0.5;" x1="1443" x2="1785" y1="321.2969"
            y2="321.2969"/>
      <ellipse cx="1453" cy="334.9453" fill="#84BE84" rx="3" ry="3"
               style="stroke:#038048;stroke-width:1.0;"/>
      <text fill="#000000" font-family="sans-serif" font-size="14" lengthAdjust="spacing"
            textLength="290" x="1462" y="338.292">ReservationRepository getReservation()
      </text>
      <ellipse cx="1453" cy="351.2422" fill="#84BE84" rx="3" ry="3"
               style="stroke:#038048;stroke-width:1.0;"/>
      <text fill="#000000" font-family="sans-serif" font-size="14" lengthAdjust="spacing"
            textLength="318" x="1462" y="354.5889">void setReservation(ReservationRepository)
      </text>
      <ellipse cx="1453" cy="367.5391" fill="#84BE84" rx="3" ry="3"
               style="stroke:#038048;stroke-width:1.0;"/>
      <text fill="#000000" font-family="sans-serif" font-size="14" lengthAdjust="spacing"
            textLength="215" x="1462" y="370.8857">ReservationId execute(String)
      </text>
    </g><!--link ConfirmReservationService to ConfirmReservationComponent-->
    <g id="link_ConfirmReservationService_ConfirmReservationComponent">
      <path codeLine="110" d="M2589,201.48 C2589,221.791 2589,238.653 2589,258.931 " fill="none"
            id="ConfirmReservationService-to-ConfirmReservationComponent"
            style="stroke:#181818;stroke-width:1.0;"/>
      <polygon fill="#181818"
               points="2589,264.931,2593,255.931,2589,259.931,2585,255.931,2589,264.931"
               style="stroke:#181818;stroke-width:1.0;"/>
    </g><!--link ConfirmReservationComponent to ReservationRepository-->
    <g id="link_ConfirmReservationComponent_ReservationRepository">
      <path codeLine="111"
            d="M2544,378.206 C2544,457.525 2544,592 2544,592 C2544,592 2406.08,592 2282.12,592 "
            fill="none" id="ConfirmReservationComponent-to-ReservationRepository"
            style="stroke:#181818;stroke-width:1.0;"/>
      <polygon fill="#181818" points="2276.12,592,2285.12,596,2281.12,592,2285.12,588,2276.12,592"
               style="stroke:#181818;stroke-width:1.0;"/>
    </g><!--link Reservation to ReservationId-->
    <g id="link_Reservation_ReservationId">
      <path codeLine="112" d="M2431,684.766 C2431,737.84 2431,823.543 2431,872.124 " fill="none"
            id="Reservation-to-ReservationId" style="stroke:#181818;stroke-width:1.0;"/>
      <polygon fill="#181818"
               points="2431,878.124,2435,869.124,2431,873.124,2427,869.124,2431,878.124"
               style="stroke:#181818;stroke-width:1.0;"/>
    </g><!--link Reservation to ReservationStatus-->
    <g id="link_Reservation_ReservationStatus">
      <path codeLine="113" d="M2570,684.766 C2570,729.967 2570,797.185 2570,847.922 " fill="none"
            id="Reservation-to-ReservationStatus" style="stroke:#181818;stroke-width:1.0;"/>
      <polygon fill="#181818"
               points="2570,853.922,2574,844.922,2570,848.922,2566,844.922,2570,853.922"
               style="stroke:#181818;stroke-width:1.0;"/>
    </g><!--link Trip to TripId-->
    <g id="link_Trip_TripId">
      <path codeLine="114" d="M207,725.044 C207,776.651 207,834.668 207,872.4 " fill="none"
            id="Trip-to-TripId" style="stroke:#181818;stroke-width:1.0;"/>
      <polygon fill="#181818" points="207,878.4,211,869.4,207,873.4,203,869.4,207,878.4"
               style="stroke:#181818;stroke-width:1.0;"/>
    </g><!--link Trip to Station-->
    <g id="link_Trip_Station">
      <path codeLine="115"
            d="M281.667,725.117 C281.667,791.677 281.667,875 281.667,875 C281.667,875 324.517,875 369.742,875 "
            fill="none" id="Trip-to-Station" style="stroke:#181818;stroke-width:1.0;"/>
      <polygon fill="#181818" points="375.742,875,366.742,871,370.742,875,366.742,879,375.742,875"
               style="stroke:#181818;stroke-width:1.0;"/>
    </g><!--link Trip to Seat-->
    <g id="link_Trip_Seat">
      <path codeLine="116"
            d="M320.405,720 C532.953,720 970,720 970,720 C970,720 970,807.658 970,863.633 "
            fill="none" id="Trip-to-Seat" style="stroke:#181818;stroke-width:1.0;"/>
      <polygon fill="#181818" points="970,869.633,974,860.633,970,864.633,966,860.633,970,869.633"
               style="stroke:#181818;stroke-width:1.0;"/>
    </g><!--link Trip to Train-->
    <g id="link_Trip_Train">
      <path codeLine="117"
            d="M320.19,714 C667.826,714 1696.67,714 1696.67,714 C1696.67,714 1696.67,806.229 1696.67,863.785 "
            fill="none" id="Trip-to-Train" style="stroke:#181818;stroke-width:1.0;"/>
      <polygon fill="#181818"
               points="1696.67,869.785,1700.67,860.785,1696.67,864.785,1692.67,860.785,1696.67,869.785"
               style="stroke:#181818;stroke-width:1.0;"/>
    </g><!--link Trip to Wagon-->
    <g id="link_Trip_Wagon">
      <path codeLine="118"
            d="M300.833,725.037 C300.833,788.111 300.833,865 300.833,865 C300.833,865 990.73,865 1234.7,865 "
            fill="none" id="Trip-to-Wagon" style="stroke:#181818;stroke-width:1.0;"/>
      <polygon fill="#181818" points="1240.7,865,1231.7,861,1235.7,865,1231.7,869,1240.7,865"
               style="stroke:#181818;stroke-width:1.0;"/>
    </g><!--link Station to StationId-->
    <g id="link_Station_StationId">
      <path codeLine="119" d="M451,951.001 C451,978.21 451,1007.576 451,1032.852 " fill="none"
            id="Station-to-StationId" style="stroke:#181818;stroke-width:1.0;"/>
      <polygon fill="#181818"
               points="451,1038.852,455,1029.852,451,1033.852,447,1029.852,451,1038.852"
               style="stroke:#181818;stroke-width:1.0;"/>
    </g><!--link Train to Train-->
    <g id="link_Train_Train">
      <path codeLine="120"
            d="M1794,869.794 C1794,867.437 1794,866 1794,866 C1794,866 1813.75,866 1813.75,866 C1813.75,866 1813.75,955 1813.75,955 C1813.75,955 1727,955 1727,955 C1727,955 1727,959.563 1727,957.206 "
            fill="none" id="Train-to-Train" style="stroke:#181818;stroke-width:1.0;"/>
      <polygon fill="#181818"
               points="1727,951.206,1723,960.206,1727,956.206,1731,960.206,1727,951.206"
               style="stroke:#181818;stroke-width:1.0;"/>
    </g><!--link Wagon to Wagon-->
    <g id="link_Wagon_Wagon">
      <path codeLine="121"
            d="M1388.75,861.776 C1388.75,859.413 1388.75,858 1388.75,858 C1388.75,858 1424.5,858 1424.5,858 C1424.5,858 1424.5,963 1424.5,963 C1424.5,963 1324,963 1324,963 C1324,963 1324,967.587 1324,965.224 "
            fill="none" id="Wagon-to-Wagon" style="stroke:#181818;stroke-width:1.0;"/>
      <polygon fill="#181818"
               points="1324,959.224,1320,968.224,1324,964.224,1328,968.224,1324,959.224"
               style="stroke:#181818;stroke-width:1.0;"/>
    </g><!--link Seat to Seat-->
    <g id="link_Seat_Seat">
      <path codeLine="122"
            d="M920,869.826 C920,868.664 920,868 920,868 C920,868 852.25,868 852.25,868 C852.25,868 852.25,955 852.25,955 C852.25,955 945,955 945,955 C945,955 945,959.563 945,957.206 "
            fill="none" id="Seat-to-Seat" style="stroke:#181818;stroke-width:1.0;"/>
      <polygon fill="#181818" points="945,951.206,941,960.206,945,956.206,949,960.206,945,951.206"
               style="stroke:#181818;stroke-width:1.0;"/>
    </g><!--link ResetReservationService to ResetReservationComponent-->
    <g id="link_ResetReservationService_ResetReservationComponent">
      <path codeLine="123" d="M2100,205.41 C2100,224.713 2100,239.958 2100,258.939 " fill="none"
            id="ResetReservationService-to-ResetReservationComponent"
            style="stroke:#181818;stroke-width:1.0;"/>
      <polygon fill="#181818"
               points="2100,264.939,2104,255.939,2100,259.939,2096,255.939,2100,264.939"
               style="stroke:#181818;stroke-width:1.0;"/>
    </g><!--link ResetReservationComponent to ReservationRepository-->
    <g id="link_ResetReservationComponent_ReservationRepository">
      <path codeLine="124" d="M2100,378.044 C2100,434.316 2100,514.56 2100,573.477 " fill="none"
            id="ResetReservationComponent-to-ReservationRepository"
            style="stroke:#181818;stroke-width:1.0;"/>
      <polygon fill="#181818"
               points="2100,579.477,2104,570.477,2100,574.477,2096,570.477,2100,579.477"
               style="stroke:#181818;stroke-width:1.0;"/>
    </g><!--link SubmitReservationService to SubmitReservationComponent-->
    <g id="link_SubmitReservationService_SubmitReservationComponent">
      <path codeLine="125" d="M1614,201.48 C1614,221.791 1614,238.653 1614,258.931 " fill="none"
            id="SubmitReservationService-to-SubmitReservationComponent"
            style="stroke:#181818;stroke-width:1.0;"/>
      <polygon fill="#181818"
               points="1614,264.931,1618,255.931,1614,259.931,1610,255.931,1614,264.931"
               style="stroke:#181818;stroke-width:1.0;"/>
    </g><!--link SubmitReservationComponent to ReservationRepository-->
    <g id="link_SubmitReservationComponent_ReservationRepository">
      <path codeLine="126"
            d="M1741.33,378.044 C1741.33,470.536 1741.33,644 1741.33,644 C1741.33,644 1827.11,644 1917.82,644 "
            fill="none" id="SubmitReservationComponent-to-ReservationRepository"
            style="stroke:#181818;stroke-width:1.0;"/>
      <polygon fill="#181818" points="1923.82,644,1914.82,640,1918.82,644,1914.82,648,1923.82,644"
               style="stroke:#181818;stroke-width:1.0;"/>
    </g><!--SRC=[vLZRRk8m47tFLtZxr6hLV475GrjMYhHjLvHg7okJc62Ls97jq4KH_xw-172k16sJiF24vRbuvlXumiotcC4mWY3Xo2C2iGW560hq2_eVC4GSpE6I8uT_O1931YEmn0I9TOm0PM917RwWdu1BEqJLhkFuIyWvk7gWP8vPD44SiHKKc99NkS0-kWAGWm2vmSnT8H9GDsPKQ5jtblYBX8Gksnkv0LuXnbqOm5YeXGpptOSSSHSHWGMM2zySvSveGWB8rcxjsI1r0FXU5Z_GAAP4EWH-IIOjtjyFcOL8bCNNDyfiHN40UAMymQDjobResjBnWXjdKm_ppaKFGCiDmUZIRO96Gsv99YYc70lAre1Le5ojAV6j1TOML5hljT4Vv2UY0asic3-7aY5NbIw-7ajRlOHdDGWQIP326HSC-cBp4Yi5kBopr4TWZabmlowccBUqX833FBsAkWRcP1PXqUnKAsOKQQ6f012rlBRsUyPUQwtjAoXHs0iK8Rt0yD0kCmAAX2kXMLrNP-G5W-SaKz1PlRrvZxjaDWuYIPGBrUGnUBWPi2harxVx9syg5mylpp-yoPDSJSQlu-ckWe2KIstiRyOocR7qAC-xA_aQgQmpgNrDKuRZRjELHyQrEQlZpSseLPveAd15Hxdrmd28IMdx4N61YLKZVs8kxZA5qPQNSisDUCeWrePwaRb3K7_FrA_P-Gr3urulYc1rJUQ3SDLGEGinIxY76BbeflFsdbBhqeeNp309rSupZ5155hrWtJAFPjWreNe8LgXp6kYX-9tcg7uORAtQ2zGjec-6MR_8tWBzLAVLXclAH9gh6BLWv_UIQ8POAQyUhw15PWVAZAoMFKVBvP7rZrHLyTIkvosAZDJi7VE3MJJZhhxheeycK_zTtGTQSwuErNMtVmj5PKV42f9SxoFg-ikYiDm4bJeXyI-TPQs3ph6rko3n__QKsrUbMwS-A6gQj3sETITdTQ4etSFBYw8TaWr6wYzZKPe7jIokTtTJRhaCNKtvQiAtGw8M4TuojG6M4w5g7iejP_TW3ZMGkxqT3J-ZSeQVadqv3iVFbvn1Popz0b0r4Bdi_CrKn1bmwj4f0Ysc2EUTUykk_hn1EAhnk0Ge6aSFbyE5niRVEOsnuScKYCuhPPkPtYKyaFP3jyjvBSSDmCx-Yz9Y8jK91iTCQvnXPqLdrrcr7lDyUUR7Zp-SeSSl9t3xVm40]-->
  </g>
</svg>