<?xml version="1.0" encoding="us-ascii" standalone="no"?>
<svg xmlns="http://www.w3.org/2000/svg"
     contentStyleType="text/css" height="1419px" preserveAspectRatio="none"
     style="width:2185px;height:1419px;background:#FFFFFF;" version="1.1" viewBox="0 0 2185 1419"
     width="2185px" zoomAndPan="magnify">
  <defs/>
  <g><!--cluster entities-->
    <g id="cluster_entities">
      <path
        d="M8.5,6 L650.5,6 A3.75,3.75 0 0 1 653,8.5 L660,28.2969 L2175.5,28.2969 A2.5,2.5 0 0 1 2178,30.7969 L2178,1410 A2.5,2.5 0 0 1 2175.5,1412.5 L8.5,1412.5 A2.5,2.5 0 0 1 6,1410 L6,8.5 A2.5,2.5 0 0 1 8.5,6 "
        fill="none" style="stroke:#000000;stroke-width:1.5;"/>
      <line style="stroke:#000000;stroke-width:1.5;" x1="6" x2="660" y1="28.2969" y2="28.2969"/>
      <text fill="#000000" font-family="sans-serif" font-size="14" font-weight="bold"
            lengthAdjust="spacing" textLength="641" x="10" y="20.9951">
        de.db.vendo.prototype.buchung.reservation.divers.adapters.use_cases.entities
      </text>
    </g><!--cluster boundary-->
    <g id="cluster_boundary">
      <path
        d="M1652.5,53 L1797.5,53 A3.75,3.75 0 0 1 1800,55.5 L1807,75.2969 L2151.5,75.2969 A2.5,2.5 0 0 1 2154,77.7969 L2154,415.5 A2.5,2.5 0 0 1 2151.5,418 L1652.5,418 A2.5,2.5 0 0 1 1650,415.5 L1650,55.5 A2.5,2.5 0 0 1 1652.5,53 "
        fill="none" style="stroke:#000000;stroke-width:1.5;"/>
      <line style="stroke:#000000;stroke-width:1.5;" x1="1650" x2="1807" y1="75.2969" y2="75.2969"/>
      <text fill="#000000" font-family="sans-serif" font-size="14" font-weight="bold"
            lengthAdjust="spacing" textLength="144" x="1654" y="67.9951">confirm.boundary
      </text>
    </g><!--cluster control-->
    <g id="cluster_control">
      <path
        d="M1676.5,230 L1736.5,230 A3.75,3.75 0 0 1 1739,232.5 L1746,252.2969 L2127.5,252.2969 A2.5,2.5 0 0 1 2130,254.7969 L2130,391.5 A2.5,2.5 0 0 1 2127.5,394 L1676.5,394 A2.5,2.5 0 0 1 1674,391.5 L1674,232.5 A2.5,2.5 0 0 1 1676.5,230 "
        fill="none" style="stroke:#000000;stroke-width:1.5;"/>
      <line style="stroke:#000000;stroke-width:1.5;" x1="1674" x2="1746" y1="252.2969"
            y2="252.2969"/>
      <text fill="#000000" font-family="sans-serif" font-size="14" font-weight="bold"
            lengthAdjust="spacing" textLength="59" x="1678" y="244.9951">control
      </text>
    </g><!--cluster reservation-->
    <g id="cluster_reservation">
      <path
        d="M32.5,442 L126.5,442 A3.75,3.75 0 0 1 129,444.5 L136,464.2969 L2151.5,464.2969 A2.5,2.5 0 0 1 2154,466.7969 L2154,1386 A2.5,2.5 0 0 1 2151.5,1388.5 L32.5,1388.5 A2.5,2.5 0 0 1 30,1386 L30,444.5 A2.5,2.5 0 0 1 32.5,442 "
        fill="none" style="stroke:#000000;stroke-width:1.5;"/>
      <line style="stroke:#000000;stroke-width:1.5;" x1="30" x2="136" y1="464.2969" y2="464.2969"/>
      <text fill="#000000" font-family="sans-serif" font-size="14" font-weight="bold"
            lengthAdjust="spacing" textLength="93" x="34" y="456.9951">reservation
      </text>
    </g><!--cluster control-->
    <g id="cluster_control">
      <path
        d="M1524.5,544.5 L1665.5,544.5 A3.75,3.75 0 0 1 1668,547 L1675,566.7969 L2127.5,566.7969 A2.5,2.5 0 0 1 2130,569.2969 L2130,1362 A2.5,2.5 0 0 1 2127.5,1364.5 L1524.5,1364.5 A2.5,2.5 0 0 1 1522,1362 L1522,547 A2.5,2.5 0 0 1 1524.5,544.5 "
        fill="none" style="stroke:#000000;stroke-width:1.5;"/>
      <line style="stroke:#000000;stroke-width:1.5;" x1="1522" x2="1675" y1="566.7969"
            y2="566.7969"/>
      <text fill="#000000" font-family="sans-serif" font-size="14" font-weight="bold"
            lengthAdjust="spacing" textLength="140" x="1526" y="559.4951">boundary.control
      </text>
    </g><!--cluster entity-->
    <g id="cluster_entity">
      <path
        d="M1548.5,1000 L1598.5,1000 A3.75,3.75 0 0 1 1601,1002.5 L1608,1022.2969 L2103.5,1022.2969 A2.5,2.5 0 0 1 2106,1024.7969 L2106,1338 A2.5,2.5 0 0 1 2103.5,1340.5 L1548.5,1340.5 A2.5,2.5 0 0 1 1546,1338 L1546,1002.5 A2.5,2.5 0 0 1 1548.5,1000 "
        fill="none" style="stroke:#000000;stroke-width:1.5;"/>
      <line style="stroke:#000000;stroke-width:1.5;" x1="1546" x2="1608" y1="1022.2969"
            y2="1022.2969"/>
      <text fill="#000000" font-family="sans-serif" font-size="14" font-weight="bold"
            lengthAdjust="spacing" textLength="49" x="1550" y="1014.9951">entity
      </text>
    </g><!--cluster trip-->
    <g id="cluster_trip">
      <path
        d="M56.5,485 L87.5,485 A3.75,3.75 0 0 1 90,487.5 L97,507.2969 L1495.5,507.2969 A2.5,2.5 0 0 1 1498,509.7969 L1498,1193 A2.5,2.5 0 0 1 1495.5,1195.5 L56.5,1195.5 A2.5,2.5 0 0 1 54,1193 L54,487.5 A2.5,2.5 0 0 1 56.5,485 "
        fill="none" style="stroke:#000000;stroke-width:1.5;"/>
      <line style="stroke:#000000;stroke-width:1.5;" x1="54" x2="97" y1="507.2969" y2="507.2969"/>
      <text fill="#000000" font-family="sans-serif" font-size="14" font-weight="bold"
            lengthAdjust="spacing" textLength="30" x="58" y="499.9951">trip
      </text>
    </g><!--cluster entity-->
    <g id="cluster_entity">
      <path
        d="M80.5,528 L275.5,528 A3.75,3.75 0 0 1 278,530.5 L285,550.2969 L333.5,550.2969 A2.5,2.5 0 0 1 336,552.7969 L336,956 A2.5,2.5 0 0 1 333.5,958.5 L80.5,958.5 A2.5,2.5 0 0 1 78,956 L78,530.5 A2.5,2.5 0 0 1 80.5,528 "
        fill="none" style="stroke:#000000;stroke-width:1.5;"/>
      <line style="stroke:#000000;stroke-width:1.5;" x1="78" x2="285" y1="550.2969" y2="550.2969"/>
      <text fill="#000000" font-family="sans-serif" font-size="14" font-weight="bold"
            lengthAdjust="spacing" textLength="194" x="82" y="542.9951">boundary.control.entity
      </text>
    </g><!--cluster entity-->
    <g id="cluster_entity">
      <path
        d="M362.5,835 L622.5,835 A3.75,3.75 0 0 1 625,837.5 L632,857.2969 L632.5,857.2969 A2.5,2.5 0 0 1 635,859.7969 L635,1121 A2.5,2.5 0 0 1 632.5,1123.5 L362.5,1123.5 A2.5,2.5 0 0 1 360,1121 L360,837.5 A2.5,2.5 0 0 1 362.5,835 "
        fill="none" style="stroke:#000000;stroke-width:1.5;"/>
      <line style="stroke:#000000;stroke-width:1.5;" x1="360" x2="632" y1="857.2969" y2="857.2969"/>
      <text fill="#000000" font-family="sans-serif" font-size="14" font-weight="bold"
            lengthAdjust="spacing" textLength="259" x="364" y="849.9951">
        station.boundary.control.entity
      </text>
    </g><!--cluster train-->
    <g id="cluster_train">
      <path
        d="M661.5,741 L702.5,741 A3.75,3.75 0 0 1 705,743.5 L712,763.2969 L1471.5,763.2969 A2.5,2.5 0 0 1 1474,765.7969 L1474,1169 A2.5,2.5 0 0 1 1471.5,1171.5 L661.5,1171.5 A2.5,2.5 0 0 1 659,1169 L659,743.5 A2.5,2.5 0 0 1 661.5,741 "
        fill="none" style="stroke:#000000;stroke-width:1.5;"/>
      <line style="stroke:#000000;stroke-width:1.5;" x1="659" x2="712" y1="763.2969" y2="763.2969"/>
      <text fill="#000000" font-family="sans-serif" font-size="14" font-weight="bold"
            lengthAdjust="spacing" textLength="40" x="663" y="755.9951">train
      </text>
    </g><!--cluster entity-->
    <g id="cluster_entity">
      <path
        d="M1242.5,835 L1437.5,835 A3.75,3.75 0 0 1 1440,837.5 L1447,857.2969 L1447.5,857.2969 A2.5,2.5 0 0 1 1450,859.7969 L1450,1121 A2.5,2.5 0 0 1 1447.5,1123.5 L1242.5,1123.5 A2.5,2.5 0 0 1 1240,1121 L1240,837.5 A2.5,2.5 0 0 1 1242.5,835 "
        fill="none" style="stroke:#000000;stroke-width:1.5;"/>
      <line style="stroke:#000000;stroke-width:1.5;" x1="1240" x2="1447" y1="857.2969"
            y2="857.2969"/>
      <text fill="#000000" font-family="sans-serif" font-size="14" font-weight="bold"
            lengthAdjust="spacing" textLength="194" x="1244" y="849.9951">boundary.control.entity
      </text>
    </g><!--cluster wagon-->
    <g id="cluster_wagon">
      <path
        d="M685.5,784 L739.5,784 A3.75,3.75 0 0 1 742,786.5 L749,806.2969 L1213.5,806.2969 A2.5,2.5 0 0 1 1216,808.7969 L1216,1145 A2.5,2.5 0 0 1 1213.5,1147.5 L685.5,1147.5 A2.5,2.5 0 0 1 683,1145 L683,786.5 A2.5,2.5 0 0 1 685.5,784 "
        fill="none" style="stroke:#000000;stroke-width:1.5;"/>
      <line style="stroke:#000000;stroke-width:1.5;" x1="683" x2="749" y1="806.2969" y2="806.2969"/>
      <text fill="#000000" font-family="sans-serif" font-size="14" font-weight="bold"
            lengthAdjust="spacing" textLength="53" x="687" y="798.9951">wagon
      </text>
    </g><!--cluster entity-->
    <g id="cluster_entity">
      <path
        d="M984.5,827 L1179.5,827 A3.75,3.75 0 0 1 1182,829.5 L1189,849.2969 L1189.5,849.2969 A2.5,2.5 0 0 1 1192,851.7969 L1192,1121 A2.5,2.5 0 0 1 1189.5,1123.5 L984.5,1123.5 A2.5,2.5 0 0 1 982,1121 L982,829.5 A2.5,2.5 0 0 1 984.5,827 "
        fill="none" style="stroke:#000000;stroke-width:1.5;"/>
      <line style="stroke:#000000;stroke-width:1.5;" x1="982" x2="1189" y1="849.2969"
            y2="849.2969"/>
      <text fill="#000000" font-family="sans-serif" font-size="14" font-weight="bold"
            lengthAdjust="spacing" textLength="194" x="986" y="841.9951">boundary.control.entity
      </text>
    </g><!--cluster entity-->
    <g id="cluster_entity">
      <path
        d="M709.5,835 L945.5,835 A3.75,3.75 0 0 1 948,837.5 L955,857.2969 L955.5,857.2969 A2.5,2.5 0 0 1 958,859.7969 L958,1121 A2.5,2.5 0 0 1 955.5,1123.5 L709.5,1123.5 A2.5,2.5 0 0 1 707,1121 L707,837.5 A2.5,2.5 0 0 1 709.5,835 "
        fill="none" style="stroke:#000000;stroke-width:1.5;"/>
      <line style="stroke:#000000;stroke-width:1.5;" x1="707" x2="955" y1="857.2969" y2="857.2969"/>
      <text fill="#000000" font-family="sans-serif" font-size="14" font-weight="bold"
            lengthAdjust="spacing" textLength="235" x="711" y="849.9951">
        seat.boundary.control.entity
      </text>
    </g><!--cluster boundary-->
    <g id="cluster_boundary">
      <path
        d="M1302.5,77.5 L1426.5,77.5 A3.75,3.75 0 0 1 1429,80 L1436,99.7969 L1623.5,99.7969 A2.5,2.5 0 0 1 1626,102.2969 L1626,391 A2.5,2.5 0 0 1 1623.5,393.5 L1302.5,393.5 A2.5,2.5 0 0 1 1300,391 L1300,80 A2.5,2.5 0 0 1 1302.5,77.5 "
        fill="none" style="stroke:#000000;stroke-width:1.5;"/>
      <line style="stroke:#000000;stroke-width:1.5;" x1="1300" x2="1436" y1="99.7969" y2="99.7969"/>
      <text fill="#000000" font-family="sans-serif" font-size="14" font-weight="bold"
            lengthAdjust="spacing" textLength="123" x="1304" y="92.4951">reset.boundary
      </text>
    </g><!--cluster control-->
    <g id="cluster_control">
      <path
        d="M1326.5,254.5 L1386.5,254.5 A3.75,3.75 0 0 1 1389,257 L1396,276.7969 L1599.5,276.7969 A2.5,2.5 0 0 1 1602,279.2969 L1602,367 A2.5,2.5 0 0 1 1599.5,369.5 L1326.5,369.5 A2.5,2.5 0 0 1 1324,367 L1324,257 A2.5,2.5 0 0 1 1326.5,254.5 "
        fill="none" style="stroke:#000000;stroke-width:1.5;"/>
      <line style="stroke:#000000;stroke-width:1.5;" x1="1324" x2="1396" y1="276.7969"
            y2="276.7969"/>
      <text fill="#000000" font-family="sans-serif" font-size="14" font-weight="bold"
            lengthAdjust="spacing" textLength="59" x="1328" y="269.4951">control
      </text>
    </g><!--cluster boundary-->
    <g id="cluster_boundary">
      <path
        d="M774.5,49 L913.5,49 A3.75,3.75 0 0 1 916,51.5 L923,71.2969 L1273.5,71.2969 A2.5,2.5 0 0 1 1276,73.7969 L1276,415.5 A2.5,2.5 0 0 1 1273.5,418 L774.5,418 A2.5,2.5 0 0 1 772,415.5 L772,51.5 A2.5,2.5 0 0 1 774.5,49 "
        fill="none" style="stroke:#000000;stroke-width:1.5;"/>
      <line style="stroke:#000000;stroke-width:1.5;" x1="772" x2="923" y1="71.2969" y2="71.2969"/>
      <text fill="#000000" font-family="sans-serif" font-size="14" font-weight="bold"
            lengthAdjust="spacing" textLength="138" x="776" y="63.9951">submit.boundary
      </text>
    </g><!--cluster control-->
    <g id="cluster_control">
      <path
        d="M798.5,230 L858.5,230 A3.75,3.75 0 0 1 861,232.5 L868,252.2969 L1249.5,252.2969 A2.5,2.5 0 0 1 1252,254.7969 L1252,391.5 A2.5,2.5 0 0 1 1249.5,394 L798.5,394 A2.5,2.5 0 0 1 796,391.5 L796,232.5 A2.5,2.5 0 0 1 798.5,230 "
        fill="none" style="stroke:#000000;stroke-width:1.5;"/>
      <line style="stroke:#000000;stroke-width:1.5;" x1="796" x2="868" y1="252.2969" y2="252.2969"/>
      <text fill="#000000" font-family="sans-serif" font-size="14" font-weight="bold"
            lengthAdjust="spacing" textLength="59" x="800" y="244.9951">control
      </text>
    </g><!--class ConfirmReservationService-->
    <g id="elem_ConfirmReservationService">
      <rect codeLine="5" fill="#F1F1F1" height="113.1875" id="ConfirmReservationService" rx="2.5"
            ry="2.5" style="stroke:#181818;stroke-width:0.5;" width="467" x="1668.5" y="88"/>
      <ellipse cx="1799.25" cy="104" fill="#ADD1B2" rx="11" ry="11"
               style="stroke:#181818;stroke-width:1.0;"/>
      <path
        d="M1801.5938,99.6719 C1800.6563,99.2344 1800.0625,99.0938 1799.1875,99.0938 C1796.5625,99.0938 1794.5625,101.1719 1794.5625,103.8906 L1794.5625,105.0156 C1794.5625,107.5938 1796.6719,109.4844 1799.5625,109.4844 C1800.7813,109.4844 1801.9375,109.1875 1802.6875,108.6406 C1803.2656,108.2344 1803.5938,107.7813 1803.5938,107.3906 C1803.5938,106.9375 1803.2031,106.5469 1802.7344,106.5469 C1802.5156,106.5469 1802.3125,106.625 1802.125,106.8125 C1801.6719,107.2969 1801.6719,107.2969 1801.4844,107.3906 C1801.0625,107.6563 1800.375,107.7813 1799.6094,107.7813 C1797.5625,107.7813 1796.2656,106.6875 1796.2656,104.9844 L1796.2656,103.8906 C1796.2656,102.1094 1797.5156,100.7969 1799.25,100.7969 C1799.8281,100.7969 1800.4375,100.9531 1800.9063,101.2031 C1801.3906,101.4844 1801.5625,101.7031 1801.6563,102.1094 C1801.7188,102.5156 1801.75,102.6406 1801.8906,102.7656 C1802.0313,102.9063 1802.2656,103.0156 1802.4844,103.0156 C1802.75,103.0156 1803.0156,102.875 1803.1875,102.6563 C1803.2969,102.5 1803.3281,102.3125 1803.3281,101.8906 L1803.3281,100.4688 C1803.3281,100.0313 1803.3125,99.9063 1803.2188,99.75 C1803.0625,99.4844 1802.7813,99.3438 1802.4844,99.3438 C1802.1875,99.3438 1801.9844,99.4375 1801.7656,99.75 L1801.5938,99.6719 Z "
        fill="#000000"/>
      <text fill="#000000" font-family="sans-serif" font-size="14" lengthAdjust="spacing"
            textLength="197" x="1819.75" y="108.8467">ConfirmReservationService
      </text>
      <line style="stroke:#181818;stroke-width:0.5;" x1="1669.5" x2="2134.5" y1="120" y2="120"/>
      <ellipse cx="1679.5" cy="133.6484" fill="none" rx="3" ry="3"
               style="stroke:#038048;stroke-width:1.0;"/>
      <text fill="#000000" font-family="sans-serif" font-size="14" lengthAdjust="spacing"
            textLength="376" x="1688.5" y="136.9951">ConfirmReservationComponent confirmReservation
      </text>
      <line style="stroke:#181818;stroke-width:0.5;" x1="1669.5" x2="2134.5" y1="144.2969"
            y2="144.2969"/>
      <ellipse cx="1679.5" cy="157.9453" fill="#84BE84" rx="3" ry="3"
               style="stroke:#038048;stroke-width:1.0;"/>
      <text fill="#000000" font-family="sans-serif" font-size="14" lengthAdjust="spacing"
            textLength="413" x="1688.5" y="161.292">ConfirmReservationComponent
        getConfirmReservation()
      </text>
      <ellipse cx="1679.5" cy="174.2422" fill="#84BE84" rx="3" ry="3"
               style="stroke:#038048;stroke-width:1.0;"/>
      <text fill="#000000" font-family="sans-serif" font-size="14" lengthAdjust="spacing"
            textLength="441" x="1688.5" y="177.5889">void
        setConfirmReservation(ConfirmReservationComponent)
      </text>
      <ellipse cx="1679.5" cy="190.5391" fill="#84BE84" rx="3" ry="3"
               style="stroke:#038048;stroke-width:1.0;"/>
      <text fill="#000000" font-family="sans-serif" font-size="14" lengthAdjust="spacing"
            textLength="182" x="1688.5" y="193.8857">void serve(ReservationId)
      </text>
    </g><!--class ConfirmReservationComponent-->
    <g id="elem_ConfirmReservationComponent">
      <rect codeLine="12" fill="#F1F1F1" height="113.1875" id="ConfirmReservationComponent" rx="2.5"
            ry="2.5" style="stroke:#181818;stroke-width:0.5;" width="423" x="1690.5" y="265"/>
      <ellipse cx="1782.75" cy="281" fill="#ADD1B2" rx="11" ry="11"
               style="stroke:#181818;stroke-width:1.0;"/>
      <path
        d="M1785.0938,276.6719 C1784.1563,276.2344 1783.5625,276.0938 1782.6875,276.0938 C1780.0625,276.0938 1778.0625,278.1719 1778.0625,280.8906 L1778.0625,282.0156 C1778.0625,284.5938 1780.1719,286.4844 1783.0625,286.4844 C1784.2813,286.4844 1785.4375,286.1875 1786.1875,285.6406 C1786.7656,285.2344 1787.0938,284.7813 1787.0938,284.3906 C1787.0938,283.9375 1786.7031,283.5469 1786.2344,283.5469 C1786.0156,283.5469 1785.8125,283.625 1785.625,283.8125 C1785.1719,284.2969 1785.1719,284.2969 1784.9844,284.3906 C1784.5625,284.6563 1783.875,284.7813 1783.1094,284.7813 C1781.0625,284.7813 1779.7656,283.6875 1779.7656,281.9844 L1779.7656,280.8906 C1779.7656,279.1094 1781.0156,277.7969 1782.75,277.7969 C1783.3281,277.7969 1783.9375,277.9531 1784.4063,278.2031 C1784.8906,278.4844 1785.0625,278.7031 1785.1563,279.1094 C1785.2188,279.5156 1785.25,279.6406 1785.3906,279.7656 C1785.5313,279.9063 1785.7656,280.0156 1785.9844,280.0156 C1786.25,280.0156 1786.5156,279.875 1786.6875,279.6563 C1786.7969,279.5 1786.8281,279.3125 1786.8281,278.8906 L1786.8281,277.4688 C1786.8281,277.0313 1786.8125,276.9063 1786.7188,276.75 C1786.5625,276.4844 1786.2813,276.3438 1785.9844,276.3438 C1785.6875,276.3438 1785.4844,276.4375 1785.2656,276.75 L1785.0938,276.6719 Z "
        fill="#000000"/>
      <text fill="#000000" font-family="sans-serif" font-size="14" lengthAdjust="spacing"
            textLength="230" x="1803.25" y="285.8467">ConfirmReservationComponent
      </text>
      <line style="stroke:#181818;stroke-width:0.5;" x1="1691.5" x2="2112.5" y1="297" y2="297"/>
      <ellipse cx="1701.5" cy="310.6484" fill="none" rx="3" ry="3"
               style="stroke:#038048;stroke-width:1.0;"/>
      <text fill="#000000" font-family="sans-serif" font-size="14" lengthAdjust="spacing"
            textLength="330" x="1710.5" y="313.9951">ReservationRepository reservationRepository
      </text>
      <line style="stroke:#181818;stroke-width:0.5;" x1="1691.5" x2="2112.5" y1="321.2969"
            y2="321.2969"/>
      <ellipse cx="1701.5" cy="334.9453" fill="#84BE84" rx="3" ry="3"
               style="stroke:#038048;stroke-width:1.0;"/>
      <text fill="#000000" font-family="sans-serif" font-size="14" lengthAdjust="spacing"
            textLength="369" x="1710.5" y="338.292">ReservationRepository getReservationRepository()
      </text>
      <ellipse cx="1701.5" cy="351.2422" fill="#84BE84" rx="3" ry="3"
               style="stroke:#038048;stroke-width:1.0;"/>
      <text fill="#000000" font-family="sans-serif" font-size="14" lengthAdjust="spacing"
            textLength="397" x="1710.5" y="354.5889">void
        setReservationRepository(ReservationRepository)
      </text>
      <ellipse cx="1701.5" cy="367.5391" fill="#84BE84" rx="3" ry="3"
               style="stroke:#038048;stroke-width:1.0;"/>
      <text fill="#000000" font-family="sans-serif" font-size="14" lengthAdjust="spacing"
            textLength="201" x="1710.5" y="370.8857">void execute(ReservationId)
      </text>
    </g><!--class ReservationRepository-->
    <g id="elem_ReservationRepository">
      <rect codeLine="19" fill="#F1F1F1" height="129.4844" id="ReservationRepository" rx="2.5"
            ry="2.5" style="stroke:#181818;stroke-width:0.5;" width="352" x="1539" y="579.5"/>
      <ellipse cx="1630.25" cy="595.5" fill="#B4A7E5" rx="11" ry="11"
               style="stroke:#181818;stroke-width:1.0;"/>
      <path
        d="M1631.2031,592.2813 L1632.9219,592.2813 C1633.3125,592.2813 1633.5,592.25 1633.625,592.1719 C1633.8906,592.0156 1634.0313,591.7344 1634.0313,591.4375 C1634.0313,591.1719 1633.9219,590.9063 1633.6875,590.7344 C1633.5156,590.625 1633.375,590.5938 1632.9219,590.5938 L1627.7813,590.5938 C1627.3438,590.5938 1627.2188,590.6094 1627.0625,590.7031 C1626.8125,590.8594 1626.6563,591.1563 1626.6563,591.4375 C1626.6563,591.7188 1626.7969,591.9688 1627.0156,592.1406 C1627.1719,592.25 1627.3594,592.2813 1627.7813,592.2813 L1629.5,592.2813 L1629.5,598.7969 L1627.7813,598.7969 C1627.3438,598.7969 1627.2188,598.8125 1627.0625,598.9219 C1626.8125,599.0781 1626.6563,599.3594 1626.6563,599.6563 C1626.6563,599.9063 1626.7969,600.1719 1627.0156,600.3281 C1627.1719,600.4531 1627.375,600.5 1627.7813,600.5 L1632.9219,600.5 C1633.6719,600.5 1634.0313,600.2188 1634.0313,599.6563 C1634.0313,599.375 1633.9219,599.125 1633.6875,598.9531 C1633.5156,598.8281 1633.375,598.7969 1632.9219,598.7969 L1631.2031,598.7969 L1631.2031,592.2813 Z "
        fill="#000000"/>
      <text fill="#000000" font-family="sans-serif" font-size="14" font-style="italic"
            lengthAdjust="spacing" textLength="161" x="1650.75" y="600.3467">ReservationRepository
      </text>
      <line style="stroke:#181818;stroke-width:0.5;" x1="1540" x2="1890" y1="611.5" y2="611.5"/>
      <line style="stroke:#181818;stroke-width:0.5;" x1="1540" x2="1890" y1="619.5" y2="619.5"/>
      <ellipse cx="1550" cy="633.1484" fill="#84BE84" rx="3" ry="3"
               style="stroke:#038048;stroke-width:1.0;"/>
      <text fill="#000000" font-family="sans-serif" font-size="14" font-style="italic"
            lengthAdjust="spacing" textLength="326" x="1559" y="636.4951">Optional&lt;Reservation&gt;
        findBy(ReservationId)
      </text>
      <ellipse cx="1550" cy="649.4453" fill="#84BE84" rx="3" ry="3"
               style="stroke:#038048;stroke-width:1.0;"/>
      <text fill="#000000" font-family="sans-serif" font-size="14" font-style="italic"
            lengthAdjust="spacing" textLength="217" x="1559" y="652.792">Reservation
        save(Reservation)
      </text>
      <ellipse cx="1550" cy="665.7422" fill="#84BE84" rx="3" ry="3"
               style="stroke:#038048;stroke-width:1.0;"/>
      <text fill="#000000" font-family="sans-serif" font-size="14" font-style="italic"
            lengthAdjust="spacing" textLength="190" x="1559" y="669.0889">void submit(ReservationId)
      </text>
      <ellipse cx="1550" cy="682.0391" fill="#84BE84" rx="3" ry="3"
               style="stroke:#038048;stroke-width:1.0;"/>
      <text fill="#000000" font-family="sans-serif" font-size="14" font-style="italic"
            lengthAdjust="spacing" textLength="197" x="1559" y="685.3857">void
        confirm(ReservationId)
      </text>
      <ellipse cx="1550" cy="698.3359" fill="#84BE84" rx="3" ry="3"
               style="stroke:#038048;stroke-width:1.0;"/>
      <text fill="#000000" font-family="sans-serif" font-size="14" font-style="italic"
            lengthAdjust="spacing" textLength="178" x="1559" y="701.6826">void reset(ReservationId)
      </text>
    </g><!--class ReservationRepositoryImpl-->
    <g id="elem_ReservationRepositoryImpl">
      <rect codeLine="26" fill="#F1F1F1" height="129.4844" id="ReservationRepositoryImpl" rx="2.5"
            ry="2.5" style="stroke:#181818;stroke-width:0.5;" width="355" x="1538.5" y="846"/>
      <ellipse cx="1613.25" cy="862" fill="#ADD1B2" rx="11" ry="11"
               style="stroke:#181818;stroke-width:1.0;"/>
      <path
        d="M1615.5938,857.6719 C1614.6563,857.2344 1614.0625,857.0938 1613.1875,857.0938 C1610.5625,857.0938 1608.5625,859.1719 1608.5625,861.8906 L1608.5625,863.0156 C1608.5625,865.5938 1610.6719,867.4844 1613.5625,867.4844 C1614.7813,867.4844 1615.9375,867.1875 1616.6875,866.6406 C1617.2656,866.2344 1617.5938,865.7813 1617.5938,865.3906 C1617.5938,864.9375 1617.2031,864.5469 1616.7344,864.5469 C1616.5156,864.5469 1616.3125,864.625 1616.125,864.8125 C1615.6719,865.2969 1615.6719,865.2969 1615.4844,865.3906 C1615.0625,865.6563 1614.375,865.7813 1613.6094,865.7813 C1611.5625,865.7813 1610.2656,864.6875 1610.2656,862.9844 L1610.2656,861.8906 C1610.2656,860.1094 1611.5156,858.7969 1613.25,858.7969 C1613.8281,858.7969 1614.4375,858.9531 1614.9063,859.2031 C1615.3906,859.4844 1615.5625,859.7031 1615.6563,860.1094 C1615.7188,860.5156 1615.75,860.6406 1615.8906,860.7656 C1616.0313,860.9063 1616.2656,861.0156 1616.4844,861.0156 C1616.75,861.0156 1617.0156,860.875 1617.1875,860.6563 C1617.2969,860.5 1617.3281,860.3125 1617.3281,859.8906 L1617.3281,858.4688 C1617.3281,858.0313 1617.3125,857.9063 1617.2188,857.75 C1617.0625,857.4844 1616.7813,857.3438 1616.4844,857.3438 C1616.1875,857.3438 1615.9844,857.4375 1615.7656,857.75 L1615.5938,857.6719 Z "
        fill="#000000"/>
      <text fill="#000000" font-family="sans-serif" font-size="14" lengthAdjust="spacing"
            textLength="197" x="1633.75" y="866.8467">ReservationRepositoryImpl
      </text>
      <line style="stroke:#181818;stroke-width:0.5;" x1="1539.5" x2="1892.5" y1="878" y2="878"/>
      <line style="stroke:#181818;stroke-width:0.5;" x1="1539.5" x2="1892.5" y1="886" y2="886"/>
      <ellipse cx="1549.5" cy="899.6484" fill="#84BE84" rx="3" ry="3"
               style="stroke:#038048;stroke-width:1.0;"/>
      <text fill="#000000" font-family="sans-serif" font-size="14" lengthAdjust="spacing"
            textLength="329" x="1558.5" y="902.9951">Optional&lt;Reservation&gt;
        findBy(ReservationId)
      </text>
      <ellipse cx="1549.5" cy="915.9453" fill="#84BE84" rx="3" ry="3"
               style="stroke:#038048;stroke-width:1.0;"/>
      <text fill="#000000" font-family="sans-serif" font-size="14" lengthAdjust="spacing"
            textLength="218" x="1558.5" y="919.292">Reservation save(Reservation)
      </text>
      <ellipse cx="1549.5" cy="932.2422" fill="#84BE84" rx="3" ry="3"
               style="stroke:#038048;stroke-width:1.0;"/>
      <text fill="#000000" font-family="sans-serif" font-size="14" lengthAdjust="spacing"
            textLength="193" x="1558.5" y="935.5889">void submit(ReservationId)
      </text>
      <ellipse cx="1549.5" cy="948.5391" fill="#84BE84" rx="3" ry="3"
               style="stroke:#038048;stroke-width:1.0;"/>
      <text fill="#000000" font-family="sans-serif" font-size="14" lengthAdjust="spacing"
            textLength="199" x="1558.5" y="951.8857">void confirm(ReservationId)
      </text>
      <ellipse cx="1549.5" cy="964.8359" fill="#84BE84" rx="3" ry="3"
               style="stroke:#038048;stroke-width:1.0;"/>
      <text fill="#000000" font-family="sans-serif" font-size="14" lengthAdjust="spacing"
            textLength="181" x="1558.5" y="968.1826">void reset(ReservationId)
      </text>
    </g><!--class Reservation-->
    <g id="elem_Reservation">
      <rect codeLine="33" fill="#F1F1F1" height="80.5938" id="Reservation" rx="2.5" ry="2.5"
            style="stroke:#181818;stroke-width:0.5;" width="243" x="1594.5" y="1035"/>
      <ellipse cx="1668.75" cy="1051" fill="#ADD1B2" rx="11" ry="11"
               style="stroke:#181818;stroke-width:1.0;"/>
      <path
        d="M1671.0938,1046.6719 C1670.1563,1046.2344 1669.5625,1046.0938 1668.6875,1046.0938 C1666.0625,1046.0938 1664.0625,1048.1719 1664.0625,1050.8906 L1664.0625,1052.0156 C1664.0625,1054.5938 1666.1719,1056.4844 1669.0625,1056.4844 C1670.2813,1056.4844 1671.4375,1056.1875 1672.1875,1055.6406 C1672.7656,1055.2344 1673.0938,1054.7813 1673.0938,1054.3906 C1673.0938,1053.9375 1672.7031,1053.5469 1672.2344,1053.5469 C1672.0156,1053.5469 1671.8125,1053.625 1671.625,1053.8125 C1671.1719,1054.2969 1671.1719,1054.2969 1670.9844,1054.3906 C1670.5625,1054.6563 1669.875,1054.7813 1669.1094,1054.7813 C1667.0625,1054.7813 1665.7656,1053.6875 1665.7656,1051.9844 L1665.7656,1050.8906 C1665.7656,1049.1094 1667.0156,1047.7969 1668.75,1047.7969 C1669.3281,1047.7969 1669.9375,1047.9531 1670.4063,1048.2031 C1670.8906,1048.4844 1671.0625,1048.7031 1671.1563,1049.1094 C1671.2188,1049.5156 1671.25,1049.6406 1671.3906,1049.7656 C1671.5313,1049.9063 1671.7656,1050.0156 1671.9844,1050.0156 C1672.25,1050.0156 1672.5156,1049.875 1672.6875,1049.6563 C1672.7969,1049.5 1672.8281,1049.3125 1672.8281,1048.8906 L1672.8281,1047.4688 C1672.8281,1047.0313 1672.8125,1046.9063 1672.7188,1046.75 C1672.5625,1046.4844 1672.2813,1046.3438 1671.9844,1046.3438 C1671.6875,1046.3438 1671.4844,1046.4375 1671.2656,1046.75 L1671.0938,1046.6719 Z "
        fill="#000000"/>
      <text fill="#000000" font-family="sans-serif" font-size="14" lengthAdjust="spacing"
            textLength="86" x="1689.25" y="1055.8467">Reservation
      </text>
      <line style="stroke:#181818;stroke-width:0.5;" x1="1595.5" x2="1836.5" y1="1067" y2="1067"/>
      <line style="stroke:#181818;stroke-width:0.5;" x1="1595.5" x2="1836.5" y1="1075" y2="1075"/>
      <ellipse cx="1605.5" cy="1088.6484" fill="#84BE84" rx="3" ry="3"
               style="stroke:#038048;stroke-width:1.0;"/>
      <text fill="#000000" font-family="sans-serif" font-size="14" lengthAdjust="spacing"
            textLength="151" x="1614.5" y="1091.9951">ReservationId getId()
      </text>
      <ellipse cx="1605.5" cy="1104.9453" fill="#84BE84" rx="3" ry="3"
               style="stroke:#038048;stroke-width:1.0;"/>
      <text fill="#000000" font-family="sans-serif" font-size="14" lengthAdjust="spacing"
            textLength="217" x="1614.5" y="1108.292">ReservationStatus getStatus()
      </text>
    </g><!--class ReservationId-->
    <g id="elem_ReservationId">
      <rect codeLine="37" fill="#F1F1F1" height="64.2969" id="ReservationId" rx="2.5" ry="2.5"
            style="stroke:#181818;stroke-width:0.5;" width="131" x="1562.5" y="1236"/>
      <ellipse cx="1577.5" cy="1252" fill="#ADD1B2" rx="11" ry="11"
               style="stroke:#181818;stroke-width:1.0;"/>
      <path
        d="M1579.8438,1247.6719 C1578.9063,1247.2344 1578.3125,1247.0938 1577.4375,1247.0938 C1574.8125,1247.0938 1572.8125,1249.1719 1572.8125,1251.8906 L1572.8125,1253.0156 C1572.8125,1255.5938 1574.9219,1257.4844 1577.8125,1257.4844 C1579.0313,1257.4844 1580.1875,1257.1875 1580.9375,1256.6406 C1581.5156,1256.2344 1581.8438,1255.7813 1581.8438,1255.3906 C1581.8438,1254.9375 1581.4531,1254.5469 1580.9844,1254.5469 C1580.7656,1254.5469 1580.5625,1254.625 1580.375,1254.8125 C1579.9219,1255.2969 1579.9219,1255.2969 1579.7344,1255.3906 C1579.3125,1255.6563 1578.625,1255.7813 1577.8594,1255.7813 C1575.8125,1255.7813 1574.5156,1254.6875 1574.5156,1252.9844 L1574.5156,1251.8906 C1574.5156,1250.1094 1575.7656,1248.7969 1577.5,1248.7969 C1578.0781,1248.7969 1578.6875,1248.9531 1579.1563,1249.2031 C1579.6406,1249.4844 1579.8125,1249.7031 1579.9063,1250.1094 C1579.9688,1250.5156 1580,1250.6406 1580.1406,1250.7656 C1580.2813,1250.9063 1580.5156,1251.0156 1580.7344,1251.0156 C1581,1251.0156 1581.2656,1250.875 1581.4375,1250.6563 C1581.5469,1250.5 1581.5781,1250.3125 1581.5781,1249.8906 L1581.5781,1248.4688 C1581.5781,1248.0313 1581.5625,1247.9063 1581.4688,1247.75 C1581.3125,1247.4844 1581.0313,1247.3438 1580.7344,1247.3438 C1580.4375,1247.3438 1580.2344,1247.4375 1580.0156,1247.75 L1579.8438,1247.6719 Z "
        fill="#000000"/>
      <text fill="#000000" font-family="sans-serif" font-size="14" lengthAdjust="spacing"
            textLength="99" x="1591.5" y="1256.8467">ReservationId
      </text>
      <line style="stroke:#181818;stroke-width:0.5;" x1="1563.5" x2="1692.5" y1="1268" y2="1268"/>
      <line style="stroke:#181818;stroke-width:0.5;" x1="1563.5" x2="1692.5" y1="1276" y2="1276"/>
      <ellipse cx="1573.5" cy="1289.6484" fill="#84BE84" rx="3" ry="3"
               style="stroke:#038048;stroke-width:1.0;"/>
      <text fill="#000000" font-family="sans-serif" font-size="14" lengthAdjust="spacing"
            textLength="85" x="1582.5" y="1292.9951">UUID getId()
      </text>
    </g><!--class ReservationStatus-->
    <g id="elem_ReservationStatus">
      <rect codeLine="40" fill="#F1F1F1" height="113.1875" id="ReservationStatus" rx="2.5" ry="2.5"
            style="stroke:#181818;stroke-width:0.5;" width="361" x="1728.5" y="1211.5"/>
      <ellipse cx="1838.75" cy="1227.5" fill="#EB937F" rx="11" ry="11"
               style="stroke:#181818;stroke-width:1.0;"/>
      <path
        d="M1837.5469,1228.375 L1839,1228.375 L1839,1228.4844 C1839,1228.8906 1839.0313,1229.0469 1839.1094,1229.2031 C1839.2656,1229.4531 1839.5469,1229.6094 1839.8438,1229.6094 C1840.0938,1229.6094 1840.3594,1229.4688 1840.5156,1229.25 C1840.6406,1229.0938 1840.6719,1228.9375 1840.6719,1228.4844 L1840.6719,1226.5625 C1840.6719,1226.4063 1840.6719,1226.3594 1840.6563,1226.2031 C1840.5938,1225.7344 1840.2813,1225.4219 1839.8281,1225.4219 C1839.5781,1225.4219 1839.3125,1225.5625 1839.1406,1225.7813 C1839.0313,1225.9531 1839,1226.1094 1839,1226.5625 L1839,1226.6875 L1837.5469,1226.6875 L1837.5469,1224.2813 L1841.5313,1224.2813 L1841.5313,1225.1406 C1841.5313,1225.5469 1841.5625,1225.7188 1841.6406,1225.875 C1841.8125,1226.125 1842.0938,1226.2813 1842.375,1226.2813 C1842.6406,1226.2813 1842.9063,1226.1406 1843.0781,1225.9219 C1843.1875,1225.75 1843.2188,1225.6094 1843.2188,1225.1406 L1843.2188,1222.5938 L1835.5938,1222.5938 C1835.1563,1222.5938 1835.0313,1222.6094 1834.875,1222.7031 C1834.625,1222.8594 1834.4688,1223.1563 1834.4688,1223.4375 C1834.4688,1223.7188 1834.6094,1223.9688 1834.8281,1224.1406 C1834.9844,1224.25 1835.1719,1224.2813 1835.5938,1224.2813 L1835.8438,1224.2813 L1835.8438,1230.7969 L1835.5938,1230.7969 C1835.1875,1230.7969 1835.0313,1230.8125 1834.875,1230.9219 C1834.625,1231.0938 1834.4688,1231.3594 1834.4688,1231.6563 C1834.4688,1231.9219 1834.6094,1232.1719 1834.8281,1232.3281 C1834.9688,1232.4531 1835.2031,1232.5 1835.5938,1232.5 L1843.5938,1232.5 L1843.5938,1229.9219 C1843.5938,1229.4844 1843.5625,1229.3438 1843.4844,1229.1875 C1843.3125,1228.9375 1843.0313,1228.7813 1842.75,1228.7813 C1842.4844,1228.7813 1842.2188,1228.8906 1842.0469,1229.1406 C1841.9375,1229.2969 1841.9063,1229.4375 1841.9063,1229.9219 L1841.9063,1230.7969 L1837.5469,1230.7969 L1837.5469,1228.375 Z "
        fill="#000000"/>
      <text fill="#000000" font-family="sans-serif" font-size="14" lengthAdjust="spacing"
            textLength="132" x="1859.25" y="1232.3467">ReservationStatus
      </text>
      <line style="stroke:#181818;stroke-width:0.5;" x1="1729.5" x2="2088.5" y1="1243.5"
            y2="1243.5"/>
      <text fill="#000000" font-family="sans-serif" font-size="14" lengthAdjust="spacing"
            textLength="53" x="1734.5" y="1260.4951">SUBMIT
      </text>
      <text fill="#000000" font-family="sans-serif" font-size="14" lengthAdjust="spacing"
            textLength="65" x="1734.5" y="1276.792">CONFIRM
      </text>
      <text fill="#000000" font-family="sans-serif" font-size="14" lengthAdjust="spacing"
            textLength="57" x="1734.5" y="1293.0889">CANCEL
      </text>
      <line style="stroke:#181818;stroke-width:0.5;" x1="1729.5" x2="2088.5" y1="1300.3906"
            y2="1300.3906"/>
      <ellipse cx="1739.5" cy="1314.0391" fill="#84BE84" rx="3" ry="3"
               style="stroke:#038048;stroke-width:1.0;"/>
      <text fill="#000000" font-family="sans-serif" font-size="14" lengthAdjust="spacing"
            text-decoration="underline" textLength="335" x="1748.5" y="1317.3857">EnumEntries&lt;ReservationStatus&gt;
        getEntries()
      </text>
    </g><!--class Trip-->
    <g id="elem_Trip">
      <rect codeLine="47" fill="#F1F1F1" height="162.0781" id="Trip" rx="2.5" ry="2.5"
            style="stroke:#181818;stroke-width:0.5;" width="226" x="94" y="563"/>
      <ellipse cx="188.25" cy="579" fill="#ADD1B2" rx="11" ry="11"
               style="stroke:#181818;stroke-width:1.0;"/>
      <path
        d="M190.5938,574.6719 C189.6563,574.2344 189.0625,574.0938 188.1875,574.0938 C185.5625,574.0938 183.5625,576.1719 183.5625,578.8906 L183.5625,580.0156 C183.5625,582.5938 185.6719,584.4844 188.5625,584.4844 C189.7813,584.4844 190.9375,584.1875 191.6875,583.6406 C192.2656,583.2344 192.5938,582.7813 192.5938,582.3906 C192.5938,581.9375 192.2031,581.5469 191.7344,581.5469 C191.5156,581.5469 191.3125,581.625 191.125,581.8125 C190.6719,582.2969 190.6719,582.2969 190.4844,582.3906 C190.0625,582.6563 189.375,582.7813 188.6094,582.7813 C186.5625,582.7813 185.2656,581.6875 185.2656,579.9844 L185.2656,578.8906 C185.2656,577.1094 186.5156,575.7969 188.25,575.7969 C188.8281,575.7969 189.4375,575.9531 189.9063,576.2031 C190.3906,576.4844 190.5625,576.7031 190.6563,577.1094 C190.7188,577.5156 190.75,577.6406 190.8906,577.7656 C191.0313,577.9063 191.2656,578.0156 191.4844,578.0156 C191.75,578.0156 192.0156,577.875 192.1875,577.6563 C192.2969,577.5 192.3281,577.3125 192.3281,576.8906 L192.3281,575.4688 C192.3281,575.0313 192.3125,574.9063 192.2188,574.75 C192.0625,574.4844 191.7813,574.3438 191.4844,574.3438 C191.1875,574.3438 190.9844,574.4375 190.7656,574.75 L190.5938,574.6719 Z "
        fill="#000000"/>
      <text fill="#000000" font-family="sans-serif" font-size="14" lengthAdjust="spacing"
            textLength="29" x="208.75" y="583.8467">Trip
      </text>
      <line style="stroke:#181818;stroke-width:0.5;" x1="95" x2="319" y1="595" y2="595"/>
      <line style="stroke:#181818;stroke-width:0.5;" x1="95" x2="319" y1="603" y2="603"/>
      <ellipse cx="105" cy="616.6484" fill="#84BE84" rx="3" ry="3"
               style="stroke:#038048;stroke-width:1.0;"/>
      <text fill="#000000" font-family="sans-serif" font-size="14" lengthAdjust="spacing"
            textLength="94" x="114" y="619.9951">TripId getId()
      </text>
      <ellipse cx="105" cy="632.9453" fill="#84BE84" rx="3" ry="3"
               style="stroke:#038048;stroke-width:1.0;"/>
      <text fill="#000000" font-family="sans-serif" font-size="14" lengthAdjust="spacing"
            textLength="135" x="114" y="636.292">Station getOrigin()
      </text>
      <ellipse cx="105" cy="649.2422" fill="#84BE84" rx="3" ry="3"
               style="stroke:#038048;stroke-width:1.0;"/>
      <text fill="#000000" font-family="sans-serif" font-size="14" lengthAdjust="spacing"
            textLength="176" x="114" y="652.5889">Station getDestination()
      </text>
      <ellipse cx="105" cy="665.5391" fill="#84BE84" rx="3" ry="3"
               style="stroke:#038048;stroke-width:1.0;"/>
      <text fill="#000000" font-family="sans-serif" font-size="14" lengthAdjust="spacing"
            textLength="200" x="114" y="668.8857">List&lt;Station&gt; getStations()
      </text>
      <ellipse cx="105" cy="681.8359" fill="#84BE84" rx="3" ry="3"
               style="stroke:#038048;stroke-width:1.0;"/>
      <text fill="#000000" font-family="sans-serif" font-size="14" lengthAdjust="spacing"
            textLength="111" x="114" y="685.1826">Train getTrain()
      </text>
      <ellipse cx="105" cy="698.1328" fill="#84BE84" rx="3" ry="3"
               style="stroke:#038048;stroke-width:1.0;"/>
      <text fill="#000000" font-family="sans-serif" font-size="14" lengthAdjust="spacing"
            textLength="105" x="114" y="701.4795">Seat getSeat()
      </text>
      <ellipse cx="105" cy="714.4297" fill="#84BE84" rx="3" ry="3"
               style="stroke:#038048;stroke-width:1.0;"/>
      <text fill="#000000" font-family="sans-serif" font-size="14" lengthAdjust="spacing"
            textLength="137" x="114" y="717.7764">Wagon getWagon()
      </text>
    </g><!--class TripId-->
    <g id="elem_TripId">
      <rect codeLine="56" fill="#F1F1F1" height="64.2969" id="TripId" rx="2.5" ry="2.5"
            style="stroke:#181818;stroke-width:0.5;" width="111" x="151.5" y="878.5"/>
      <ellipse cx="183.15" cy="894.5" fill="#ADD1B2" rx="11" ry="11"
               style="stroke:#181818;stroke-width:1.0;"/>
      <path
        d="M185.4938,890.1719 C184.5563,889.7344 183.9625,889.5938 183.0875,889.5938 C180.4625,889.5938 178.4625,891.6719 178.4625,894.3906 L178.4625,895.5156 C178.4625,898.0938 180.5719,899.9844 183.4625,899.9844 C184.6813,899.9844 185.8375,899.6875 186.5875,899.1406 C187.1656,898.7344 187.4938,898.2813 187.4938,897.8906 C187.4938,897.4375 187.1031,897.0469 186.6344,897.0469 C186.4156,897.0469 186.2125,897.125 186.025,897.3125 C185.5719,897.7969 185.5719,897.7969 185.3844,897.8906 C184.9625,898.1563 184.275,898.2813 183.5094,898.2813 C181.4625,898.2813 180.1656,897.1875 180.1656,895.4844 L180.1656,894.3906 C180.1656,892.6094 181.4156,891.2969 183.15,891.2969 C183.7281,891.2969 184.3375,891.4531 184.8063,891.7031 C185.2906,891.9844 185.4625,892.2031 185.5563,892.6094 C185.6188,893.0156 185.65,893.1406 185.7906,893.2656 C185.9313,893.4063 186.1656,893.5156 186.3844,893.5156 C186.65,893.5156 186.9156,893.375 187.0875,893.1563 C187.1969,893 187.2281,892.8125 187.2281,892.3906 L187.2281,890.9688 C187.2281,890.5313 187.2125,890.4063 187.1188,890.25 C186.9625,889.9844 186.6813,889.8438 186.3844,889.8438 C186.0875,889.8438 185.8844,889.9375 185.6656,890.25 L185.4938,890.1719 Z "
        fill="#000000"/>
      <text fill="#000000" font-family="sans-serif" font-size="14" lengthAdjust="spacing"
            textLength="42" x="200.85" y="899.3467">TripId
      </text>
      <line style="stroke:#181818;stroke-width:0.5;" x1="152.5" x2="261.5" y1="910.5" y2="910.5"/>
      <line style="stroke:#181818;stroke-width:0.5;" x1="152.5" x2="261.5" y1="918.5" y2="918.5"/>
      <ellipse cx="162.5" cy="932.1484" fill="#84BE84" rx="3" ry="3"
               style="stroke:#038048;stroke-width:1.0;"/>
      <text fill="#000000" font-family="sans-serif" font-size="14" lengthAdjust="spacing"
            textLength="85" x="171.5" y="935.4951">UUID getId()
      </text>
    </g><!--class Station-->
    <g id="elem_Station">
      <rect codeLine="59" fill="#F1F1F1" height="80.5938" id="Station" rx="2.5" ry="2.5"
            style="stroke:#181818;stroke-width:0.5;" width="150" x="376" y="870"/>
      <ellipse cx="420.25" cy="886" fill="#ADD1B2" rx="11" ry="11"
               style="stroke:#181818;stroke-width:1.0;"/>
      <path
        d="M422.5938,881.6719 C421.6563,881.2344 421.0625,881.0938 420.1875,881.0938 C417.5625,881.0938 415.5625,883.1719 415.5625,885.8906 L415.5625,887.0156 C415.5625,889.5938 417.6719,891.4844 420.5625,891.4844 C421.7813,891.4844 422.9375,891.1875 423.6875,890.6406 C424.2656,890.2344 424.5938,889.7813 424.5938,889.3906 C424.5938,888.9375 424.2031,888.5469 423.7344,888.5469 C423.5156,888.5469 423.3125,888.625 423.125,888.8125 C422.6719,889.2969 422.6719,889.2969 422.4844,889.3906 C422.0625,889.6563 421.375,889.7813 420.6094,889.7813 C418.5625,889.7813 417.2656,888.6875 417.2656,886.9844 L417.2656,885.8906 C417.2656,884.1094 418.5156,882.7969 420.25,882.7969 C420.8281,882.7969 421.4375,882.9531 421.9063,883.2031 C422.3906,883.4844 422.5625,883.7031 422.6563,884.1094 C422.7188,884.5156 422.75,884.6406 422.8906,884.7656 C423.0313,884.9063 423.2656,885.0156 423.4844,885.0156 C423.75,885.0156 424.0156,884.875 424.1875,884.6563 C424.2969,884.5 424.3281,884.3125 424.3281,883.8906 L424.3281,882.4688 C424.3281,882.0313 424.3125,881.9063 424.2188,881.75 C424.0625,881.4844 423.7813,881.3438 423.4844,881.3438 C423.1875,881.3438 422.9844,881.4375 422.7656,881.75 L422.5938,881.6719 Z "
        fill="#000000"/>
      <text fill="#000000" font-family="sans-serif" font-size="14" lengthAdjust="spacing"
            textLength="53" x="440.75" y="890.8467">Station
      </text>
      <line style="stroke:#181818;stroke-width:0.5;" x1="377" x2="525" y1="902" y2="902"/>
      <line style="stroke:#181818;stroke-width:0.5;" x1="377" x2="525" y1="910" y2="910"/>
      <ellipse cx="387" cy="923.6484" fill="#84BE84" rx="3" ry="3"
               style="stroke:#038048;stroke-width:1.0;"/>
      <text fill="#000000" font-family="sans-serif" font-size="14" lengthAdjust="spacing"
            textLength="118" x="396" y="926.9951">StationId getId()
      </text>
      <ellipse cx="387" cy="939.9453" fill="#84BE84" rx="3" ry="3"
               style="stroke:#038048;stroke-width:1.0;"/>
      <text fill="#000000" font-family="sans-serif" font-size="14" lengthAdjust="spacing"
            textLength="124" x="396" y="943.292">String getName()
      </text>
    </g><!--class StationId-->
    <g id="elem_StationId">
      <rect codeLine="63" fill="#F1F1F1" height="64.2969" id="StationId" rx="2.5" ry="2.5"
            style="stroke:#181818;stroke-width:0.5;" width="111" x="395.5" y="1043.5"/>
      <ellipse cx="416.35" cy="1059.5" fill="#ADD1B2" rx="11" ry="11"
               style="stroke:#181818;stroke-width:1.0;"/>
      <path
        d="M418.6938,1055.1719 C417.7563,1054.7344 417.1625,1054.5938 416.2875,1054.5938 C413.6625,1054.5938 411.6625,1056.6719 411.6625,1059.3906 L411.6625,1060.5156 C411.6625,1063.0938 413.7719,1064.9844 416.6625,1064.9844 C417.8813,1064.9844 419.0375,1064.6875 419.7875,1064.1406 C420.3656,1063.7344 420.6938,1063.2813 420.6938,1062.8906 C420.6938,1062.4375 420.3031,1062.0469 419.8344,1062.0469 C419.6156,1062.0469 419.4125,1062.125 419.225,1062.3125 C418.7719,1062.7969 418.7719,1062.7969 418.5844,1062.8906 C418.1625,1063.1563 417.475,1063.2813 416.7094,1063.2813 C414.6625,1063.2813 413.3656,1062.1875 413.3656,1060.4844 L413.3656,1059.3906 C413.3656,1057.6094 414.6156,1056.2969 416.35,1056.2969 C416.9281,1056.2969 417.5375,1056.4531 418.0063,1056.7031 C418.4906,1056.9844 418.6625,1057.2031 418.7563,1057.6094 C418.8188,1058.0156 418.85,1058.1406 418.9906,1058.2656 C419.1313,1058.4063 419.3656,1058.5156 419.5844,1058.5156 C419.85,1058.5156 420.1156,1058.375 420.2875,1058.1563 C420.3969,1058 420.4281,1057.8125 420.4281,1057.3906 L420.4281,1055.9688 C420.4281,1055.5313 420.4125,1055.4063 420.3188,1055.25 C420.1625,1054.9844 419.8813,1054.8438 419.5844,1054.8438 C419.2875,1054.8438 419.0844,1054.9375 418.8656,1055.25 L418.6938,1055.1719 Z "
        fill="#000000"/>
      <text fill="#000000" font-family="sans-serif" font-size="14" lengthAdjust="spacing"
            textLength="66" x="431.65" y="1064.3467">StationId
      </text>
      <line style="stroke:#181818;stroke-width:0.5;" x1="396.5" x2="505.5" y1="1075.5" y2="1075.5"/>
      <line style="stroke:#181818;stroke-width:0.5;" x1="396.5" x2="505.5" y1="1083.5" y2="1083.5"/>
      <ellipse cx="406.5" cy="1097.1484" fill="#84BE84" rx="3" ry="3"
               style="stroke:#038048;stroke-width:1.0;"/>
      <text fill="#000000" font-family="sans-serif" font-size="14" lengthAdjust="spacing"
            textLength="85" x="415.5" y="1100.4951">UUID getId()
      </text>
    </g><!--class Train-->
    <g id="elem_Train">
      <rect codeLine="66" fill="#F1F1F1" height="80.5938" id="Train" rx="2.5" ry="2.5"
            style="stroke:#181818;stroke-width:0.5;" width="150" x="1256" y="870"/>
      <ellipse cx="1308.75" cy="886" fill="#ADD1B2" rx="11" ry="11"
               style="stroke:#181818;stroke-width:1.0;"/>
      <path
        d="M1311.0938,881.6719 C1310.1563,881.2344 1309.5625,881.0938 1308.6875,881.0938 C1306.0625,881.0938 1304.0625,883.1719 1304.0625,885.8906 L1304.0625,887.0156 C1304.0625,889.5938 1306.1719,891.4844 1309.0625,891.4844 C1310.2813,891.4844 1311.4375,891.1875 1312.1875,890.6406 C1312.7656,890.2344 1313.0938,889.7813 1313.0938,889.3906 C1313.0938,888.9375 1312.7031,888.5469 1312.2344,888.5469 C1312.0156,888.5469 1311.8125,888.625 1311.625,888.8125 C1311.1719,889.2969 1311.1719,889.2969 1310.9844,889.3906 C1310.5625,889.6563 1309.875,889.7813 1309.1094,889.7813 C1307.0625,889.7813 1305.7656,888.6875 1305.7656,886.9844 L1305.7656,885.8906 C1305.7656,884.1094 1307.0156,882.7969 1308.75,882.7969 C1309.3281,882.7969 1309.9375,882.9531 1310.4063,883.2031 C1310.8906,883.4844 1311.0625,883.7031 1311.1563,884.1094 C1311.2188,884.5156 1311.25,884.6406 1311.3906,884.7656 C1311.5313,884.9063 1311.7656,885.0156 1311.9844,885.0156 C1312.25,885.0156 1312.5156,884.875 1312.6875,884.6563 C1312.7969,884.5 1312.8281,884.3125 1312.8281,883.8906 L1312.8281,882.4688 C1312.8281,882.0313 1312.8125,881.9063 1312.7188,881.75 C1312.5625,881.4844 1312.2813,881.3438 1311.9844,881.3438 C1311.6875,881.3438 1311.4844,881.4375 1311.2656,881.75 L1311.0938,881.6719 Z "
        fill="#000000"/>
      <text fill="#000000" font-family="sans-serif" font-size="14" lengthAdjust="spacing"
            textLength="36" x="1329.25" y="890.8467">Train
      </text>
      <line style="stroke:#181818;stroke-width:0.5;" x1="1257" x2="1405" y1="902" y2="902"/>
      <line style="stroke:#181818;stroke-width:0.5;" x1="1257" x2="1405" y1="910" y2="910"/>
      <ellipse cx="1267" cy="923.6484" fill="#84BE84" rx="3" ry="3"
               style="stroke:#038048;stroke-width:1.0;"/>
      <text fill="#000000" font-family="sans-serif" font-size="14" lengthAdjust="spacing"
            textLength="101" x="1276" y="926.9951">TrainId getId()
      </text>
      <ellipse cx="1267" cy="939.9453" fill="#84BE84" rx="3" ry="3"
               style="stroke:#038048;stroke-width:1.0;"/>
      <text fill="#000000" font-family="sans-serif" font-size="14" lengthAdjust="spacing"
            textLength="124" x="1276" y="943.292">String getName()
      </text>
    </g><!--class TrainId-->
    <g id="elem_TrainId">
      <rect codeLine="70" fill="#F1F1F1" height="64.2969" id="TrainId" rx="2.5" ry="2.5"
            style="stroke:#181818;stroke-width:0.5;" width="111" x="1275.5" y="1043.5"/>
      <ellipse cx="1304" cy="1059.5" fill="#ADD1B2" rx="11" ry="11"
               style="stroke:#181818;stroke-width:1.0;"/>
      <path
        d="M1306.3438,1055.1719 C1305.4063,1054.7344 1304.8125,1054.5938 1303.9375,1054.5938 C1301.3125,1054.5938 1299.3125,1056.6719 1299.3125,1059.3906 L1299.3125,1060.5156 C1299.3125,1063.0938 1301.4219,1064.9844 1304.3125,1064.9844 C1305.5313,1064.9844 1306.6875,1064.6875 1307.4375,1064.1406 C1308.0156,1063.7344 1308.3438,1063.2813 1308.3438,1062.8906 C1308.3438,1062.4375 1307.9531,1062.0469 1307.4844,1062.0469 C1307.2656,1062.0469 1307.0625,1062.125 1306.875,1062.3125 C1306.4219,1062.7969 1306.4219,1062.7969 1306.2344,1062.8906 C1305.8125,1063.1563 1305.125,1063.2813 1304.3594,1063.2813 C1302.3125,1063.2813 1301.0156,1062.1875 1301.0156,1060.4844 L1301.0156,1059.3906 C1301.0156,1057.6094 1302.2656,1056.2969 1304,1056.2969 C1304.5781,1056.2969 1305.1875,1056.4531 1305.6563,1056.7031 C1306.1406,1056.9844 1306.3125,1057.2031 1306.4063,1057.6094 C1306.4688,1058.0156 1306.5,1058.1406 1306.6406,1058.2656 C1306.7813,1058.4063 1307.0156,1058.5156 1307.2344,1058.5156 C1307.5,1058.5156 1307.7656,1058.375 1307.9375,1058.1563 C1308.0469,1058 1308.0781,1057.8125 1308.0781,1057.3906 L1308.0781,1055.9688 C1308.0781,1055.5313 1308.0625,1055.4063 1307.9688,1055.25 C1307.8125,1054.9844 1307.5313,1054.8438 1307.2344,1054.8438 C1306.9375,1054.8438 1306.7344,1054.9375 1306.5156,1055.25 L1306.3438,1055.1719 Z "
        fill="#000000"/>
      <text fill="#000000" font-family="sans-serif" font-size="14" lengthAdjust="spacing"
            textLength="49" x="1321" y="1064.3467">TrainId
      </text>
      <line style="stroke:#181818;stroke-width:0.5;" x1="1276.5" x2="1385.5" y1="1075.5"
            y2="1075.5"/>
      <line style="stroke:#181818;stroke-width:0.5;" x1="1276.5" x2="1385.5" y1="1083.5"
            y2="1083.5"/>
      <ellipse cx="1286.5" cy="1097.1484" fill="#84BE84" rx="3" ry="3"
               style="stroke:#038048;stroke-width:1.0;"/>
      <text fill="#000000" font-family="sans-serif" font-size="14" lengthAdjust="spacing"
            textLength="85" x="1295.5" y="1100.4951">UUID getId()
      </text>
    </g><!--class Wagon-->
    <g id="elem_Wagon">
      <rect codeLine="73" fill="#F1F1F1" height="96.8906" id="Wagon" rx="2.5" ry="2.5"
            style="stroke:#181818;stroke-width:0.5;" width="166" x="998" y="862"/>
      <ellipse cx="1052.25" cy="878" fill="#ADD1B2" rx="11" ry="11"
               style="stroke:#181818;stroke-width:1.0;"/>
      <path
        d="M1054.5938,873.6719 C1053.6563,873.2344 1053.0625,873.0938 1052.1875,873.0938 C1049.5625,873.0938 1047.5625,875.1719 1047.5625,877.8906 L1047.5625,879.0156 C1047.5625,881.5938 1049.6719,883.4844 1052.5625,883.4844 C1053.7813,883.4844 1054.9375,883.1875 1055.6875,882.6406 C1056.2656,882.2344 1056.5938,881.7813 1056.5938,881.3906 C1056.5938,880.9375 1056.2031,880.5469 1055.7344,880.5469 C1055.5156,880.5469 1055.3125,880.625 1055.125,880.8125 C1054.6719,881.2969 1054.6719,881.2969 1054.4844,881.3906 C1054.0625,881.6563 1053.375,881.7813 1052.6094,881.7813 C1050.5625,881.7813 1049.2656,880.6875 1049.2656,878.9844 L1049.2656,877.8906 C1049.2656,876.1094 1050.5156,874.7969 1052.25,874.7969 C1052.8281,874.7969 1053.4375,874.9531 1053.9063,875.2031 C1054.3906,875.4844 1054.5625,875.7031 1054.6563,876.1094 C1054.7188,876.5156 1054.75,876.6406 1054.8906,876.7656 C1055.0313,876.9063 1055.2656,877.0156 1055.4844,877.0156 C1055.75,877.0156 1056.0156,876.875 1056.1875,876.6563 C1056.2969,876.5 1056.3281,876.3125 1056.3281,875.8906 L1056.3281,874.4688 C1056.3281,874.0313 1056.3125,873.9063 1056.2188,873.75 C1056.0625,873.4844 1055.7813,873.3438 1055.4844,873.3438 C1055.1875,873.3438 1054.9844,873.4375 1054.7656,873.75 L1054.5938,873.6719 Z "
        fill="#000000"/>
      <text fill="#000000" font-family="sans-serif" font-size="14" lengthAdjust="spacing"
            textLength="49" x="1072.75" y="882.8467">Wagon
      </text>
      <line style="stroke:#181818;stroke-width:0.5;" x1="999" x2="1163" y1="894" y2="894"/>
      <line style="stroke:#181818;stroke-width:0.5;" x1="999" x2="1163" y1="902" y2="902"/>
      <ellipse cx="1009" cy="915.6484" fill="#84BE84" rx="3" ry="3"
               style="stroke:#038048;stroke-width:1.0;"/>
      <text fill="#000000" font-family="sans-serif" font-size="14" lengthAdjust="spacing"
            textLength="114" x="1018" y="918.9951">WagonId getId()
      </text>
      <ellipse cx="1009" cy="931.9453" fill="#84BE84" rx="3" ry="3"
               style="stroke:#038048;stroke-width:1.0;"/>
      <text fill="#000000" font-family="sans-serif" font-size="14" lengthAdjust="spacing"
            textLength="124" x="1018" y="935.292">String getName()
      </text>
      <ellipse cx="1009" cy="948.2422" fill="#84BE84" rx="3" ry="3"
               style="stroke:#038048;stroke-width:1.0;"/>
      <text fill="#000000" font-family="sans-serif" font-size="14" lengthAdjust="spacing"
            textLength="140" x="1018" y="951.5889">String getNumber()
      </text>
    </g><!--class WagonId-->
    <g id="elem_WagonId">
      <rect codeLine="78" fill="#F1F1F1" height="64.2969" id="WagonId" rx="2.5" ry="2.5"
            style="stroke:#181818;stroke-width:0.5;" width="111" x="1025.5" y="1043.5"/>
      <ellipse cx="1048.15" cy="1059.5" fill="#ADD1B2" rx="11" ry="11"
               style="stroke:#181818;stroke-width:1.0;"/>
      <path
        d="M1050.4938,1055.1719 C1049.5563,1054.7344 1048.9625,1054.5938 1048.0875,1054.5938 C1045.4625,1054.5938 1043.4625,1056.6719 1043.4625,1059.3906 L1043.4625,1060.5156 C1043.4625,1063.0938 1045.5719,1064.9844 1048.4625,1064.9844 C1049.6813,1064.9844 1050.8375,1064.6875 1051.5875,1064.1406 C1052.1656,1063.7344 1052.4938,1063.2813 1052.4938,1062.8906 C1052.4938,1062.4375 1052.1031,1062.0469 1051.6344,1062.0469 C1051.4156,1062.0469 1051.2125,1062.125 1051.025,1062.3125 C1050.5719,1062.7969 1050.5719,1062.7969 1050.3844,1062.8906 C1049.9625,1063.1563 1049.275,1063.2813 1048.5094,1063.2813 C1046.4625,1063.2813 1045.1656,1062.1875 1045.1656,1060.4844 L1045.1656,1059.3906 C1045.1656,1057.6094 1046.4156,1056.2969 1048.15,1056.2969 C1048.7281,1056.2969 1049.3375,1056.4531 1049.8063,1056.7031 C1050.2906,1056.9844 1050.4625,1057.2031 1050.5563,1057.6094 C1050.6188,1058.0156 1050.65,1058.1406 1050.7906,1058.2656 C1050.9313,1058.4063 1051.1656,1058.5156 1051.3844,1058.5156 C1051.65,1058.5156 1051.9156,1058.375 1052.0875,1058.1563 C1052.1969,1058 1052.2281,1057.8125 1052.2281,1057.3906 L1052.2281,1055.9688 C1052.2281,1055.5313 1052.2125,1055.4063 1052.1188,1055.25 C1051.9625,1054.9844 1051.6813,1054.8438 1051.3844,1054.8438 C1051.0875,1054.8438 1050.8844,1054.9375 1050.6656,1055.25 L1050.4938,1055.1719 Z "
        fill="#000000"/>
      <text fill="#000000" font-family="sans-serif" font-size="14" lengthAdjust="spacing"
            textLength="62" x="1063.85" y="1064.3467">WagonId
      </text>
      <line style="stroke:#181818;stroke-width:0.5;" x1="1026.5" x2="1135.5" y1="1075.5"
            y2="1075.5"/>
      <line style="stroke:#181818;stroke-width:0.5;" x1="1026.5" x2="1135.5" y1="1083.5"
            y2="1083.5"/>
      <ellipse cx="1036.5" cy="1097.1484" fill="#84BE84" rx="3" ry="3"
               style="stroke:#038048;stroke-width:1.0;"/>
      <text fill="#000000" font-family="sans-serif" font-size="14" lengthAdjust="spacing"
            textLength="85" x="1045.5" y="1100.4951">UUID getId()
      </text>
    </g><!--class Seat-->
    <g id="elem_Seat">
      <rect codeLine="81" fill="#F1F1F1" height="80.5938" id="Seat" rx="2.5" ry="2.5"
            style="stroke:#181818;stroke-width:0.5;" width="150" x="723" y="870"/>
      <ellipse cx="777.25" cy="886" fill="#ADD1B2" rx="11" ry="11"
               style="stroke:#181818;stroke-width:1.0;"/>
      <path
        d="M779.5938,881.6719 C778.6563,881.2344 778.0625,881.0938 777.1875,881.0938 C774.5625,881.0938 772.5625,883.1719 772.5625,885.8906 L772.5625,887.0156 C772.5625,889.5938 774.6719,891.4844 777.5625,891.4844 C778.7813,891.4844 779.9375,891.1875 780.6875,890.6406 C781.2656,890.2344 781.5938,889.7813 781.5938,889.3906 C781.5938,888.9375 781.2031,888.5469 780.7344,888.5469 C780.5156,888.5469 780.3125,888.625 780.125,888.8125 C779.6719,889.2969 779.6719,889.2969 779.4844,889.3906 C779.0625,889.6563 778.375,889.7813 777.6094,889.7813 C775.5625,889.7813 774.2656,888.6875 774.2656,886.9844 L774.2656,885.8906 C774.2656,884.1094 775.5156,882.7969 777.25,882.7969 C777.8281,882.7969 778.4375,882.9531 778.9063,883.2031 C779.3906,883.4844 779.5625,883.7031 779.6563,884.1094 C779.7188,884.5156 779.75,884.6406 779.8906,884.7656 C780.0313,884.9063 780.2656,885.0156 780.4844,885.0156 C780.75,885.0156 781.0156,884.875 781.1875,884.6563 C781.2969,884.5 781.3281,884.3125 781.3281,883.8906 L781.3281,882.4688 C781.3281,882.0313 781.3125,881.9063 781.2188,881.75 C781.0625,881.4844 780.7813,881.3438 780.4844,881.3438 C780.1875,881.3438 779.9844,881.4375 779.7656,881.75 L779.5938,881.6719 Z "
        fill="#000000"/>
      <text fill="#000000" font-family="sans-serif" font-size="14" lengthAdjust="spacing"
            textLength="33" x="797.75" y="890.8467">Seat
      </text>
      <line style="stroke:#181818;stroke-width:0.5;" x1="724" x2="872" y1="902" y2="902"/>
      <line style="stroke:#181818;stroke-width:0.5;" x1="724" x2="872" y1="910" y2="910"/>
      <ellipse cx="734" cy="923.6484" fill="#84BE84" rx="3" ry="3"
               style="stroke:#038048;stroke-width:1.0;"/>
      <text fill="#000000" font-family="sans-serif" font-size="14" lengthAdjust="spacing"
            textLength="98" x="743" y="926.9951">SeatId getId()
      </text>
      <ellipse cx="734" cy="939.9453" fill="#84BE84" rx="3" ry="3"
               style="stroke:#038048;stroke-width:1.0;"/>
      <text fill="#000000" font-family="sans-serif" font-size="14" lengthAdjust="spacing"
            textLength="124" x="743" y="943.292">String getName()
      </text>
    </g><!--class SeatId-->
    <g id="elem_SeatId">
      <rect codeLine="85" fill="#F1F1F1" height="64.2969" id="SeatId" rx="2.5" ry="2.5"
            style="stroke:#181818;stroke-width:0.5;" width="111" x="742.5" y="1043.5"/>
      <ellipse cx="772.35" cy="1059.5" fill="#ADD1B2" rx="11" ry="11"
               style="stroke:#181818;stroke-width:1.0;"/>
      <path
        d="M774.6938,1055.1719 C773.7563,1054.7344 773.1625,1054.5938 772.2875,1054.5938 C769.6625,1054.5938 767.6625,1056.6719 767.6625,1059.3906 L767.6625,1060.5156 C767.6625,1063.0938 769.7719,1064.9844 772.6625,1064.9844 C773.8813,1064.9844 775.0375,1064.6875 775.7875,1064.1406 C776.3656,1063.7344 776.6938,1063.2813 776.6938,1062.8906 C776.6938,1062.4375 776.3031,1062.0469 775.8344,1062.0469 C775.6156,1062.0469 775.4125,1062.125 775.225,1062.3125 C774.7719,1062.7969 774.7719,1062.7969 774.5844,1062.8906 C774.1625,1063.1563 773.475,1063.2813 772.7094,1063.2813 C770.6625,1063.2813 769.3656,1062.1875 769.3656,1060.4844 L769.3656,1059.3906 C769.3656,1057.6094 770.6156,1056.2969 772.35,1056.2969 C772.9281,1056.2969 773.5375,1056.4531 774.0063,1056.7031 C774.4906,1056.9844 774.6625,1057.2031 774.7563,1057.6094 C774.8188,1058.0156 774.85,1058.1406 774.9906,1058.2656 C775.1313,1058.4063 775.3656,1058.5156 775.5844,1058.5156 C775.85,1058.5156 776.1156,1058.375 776.2875,1058.1563 C776.3969,1058 776.4281,1057.8125 776.4281,1057.3906 L776.4281,1055.9688 C776.4281,1055.5313 776.4125,1055.4063 776.3188,1055.25 C776.1625,1054.9844 775.8813,1054.8438 775.5844,1054.8438 C775.2875,1054.8438 775.0844,1054.9375 774.8656,1055.25 L774.6938,1055.1719 Z "
        fill="#000000"/>
      <text fill="#000000" font-family="sans-serif" font-size="14" lengthAdjust="spacing"
            textLength="46" x="789.65" y="1064.3467">SeatId
      </text>
      <line style="stroke:#181818;stroke-width:0.5;" x1="743.5" x2="852.5" y1="1075.5" y2="1075.5"/>
      <line style="stroke:#181818;stroke-width:0.5;" x1="743.5" x2="852.5" y1="1083.5" y2="1083.5"/>
      <ellipse cx="753.5" cy="1097.1484" fill="#84BE84" rx="3" ry="3"
               style="stroke:#038048;stroke-width:1.0;"/>
      <text fill="#000000" font-family="sans-serif" font-size="14" lengthAdjust="spacing"
            textLength="85" x="762.5" y="1100.4951">UUID getId()
      </text>
    </g><!--class ResetReservationService-->
    <g id="elem_ResetReservationService">
      <rect codeLine="88" fill="#F1F1F1" height="64.2969" id="ResetReservationService" rx="2.5"
            ry="2.5" style="stroke:#181818;stroke-width:0.5;" width="213" x="1356.5" y="112.5"/>
      <ellipse cx="1371.5" cy="128.5" fill="#ADD1B2" rx="11" ry="11"
               style="stroke:#181818;stroke-width:1.0;"/>
      <path
        d="M1373.8438,124.1719 C1372.9063,123.7344 1372.3125,123.5938 1371.4375,123.5938 C1368.8125,123.5938 1366.8125,125.6719 1366.8125,128.3906 L1366.8125,129.5156 C1366.8125,132.0938 1368.9219,133.9844 1371.8125,133.9844 C1373.0313,133.9844 1374.1875,133.6875 1374.9375,133.1406 C1375.5156,132.7344 1375.8438,132.2813 1375.8438,131.8906 C1375.8438,131.4375 1375.4531,131.0469 1374.9844,131.0469 C1374.7656,131.0469 1374.5625,131.125 1374.375,131.3125 C1373.9219,131.7969 1373.9219,131.7969 1373.7344,131.8906 C1373.3125,132.1563 1372.625,132.2813 1371.8594,132.2813 C1369.8125,132.2813 1368.5156,131.1875 1368.5156,129.4844 L1368.5156,128.3906 C1368.5156,126.6094 1369.7656,125.2969 1371.5,125.2969 C1372.0781,125.2969 1372.6875,125.4531 1373.1563,125.7031 C1373.6406,125.9844 1373.8125,126.2031 1373.9063,126.6094 C1373.9688,127.0156 1374,127.1406 1374.1406,127.2656 C1374.2813,127.4063 1374.5156,127.5156 1374.7344,127.5156 C1375,127.5156 1375.2656,127.375 1375.4375,127.1563 C1375.5469,127 1375.5781,126.8125 1375.5781,126.3906 L1375.5781,124.9688 C1375.5781,124.5313 1375.5625,124.4063 1375.4688,124.25 C1375.3125,123.9844 1375.0313,123.8438 1374.7344,123.8438 C1374.4375,123.8438 1374.2344,123.9375 1374.0156,124.25 L1373.8438,124.1719 Z "
        fill="#000000"/>
      <text fill="#000000" font-family="sans-serif" font-size="14" lengthAdjust="spacing"
            textLength="181" x="1385.5" y="133.3467">ResetReservationService
      </text>
      <line style="stroke:#181818;stroke-width:0.5;" x1="1357.5" x2="1568.5" y1="144.5" y2="144.5"/>
      <line style="stroke:#181818;stroke-width:0.5;" x1="1357.5" x2="1568.5" y1="152.5" y2="152.5"/>
      <ellipse cx="1367.5" cy="166.1484" fill="#84BE84" rx="3" ry="3"
               style="stroke:#038048;stroke-width:1.0;"/>
      <text fill="#000000" font-family="sans-serif" font-size="14" lengthAdjust="spacing"
            textLength="182" x="1376.5" y="169.4951">void serve(ReservationId)
      </text>
    </g><!--class ResetReservationComponent-->
    <g id="elem_ResetReservationComponent">
      <rect codeLine="91" fill="#F1F1F1" height="64.2969" id="ResetReservationComponent" rx="2.5"
            ry="2.5" style="stroke:#181818;stroke-width:0.5;" width="246" x="1340" y="289.5"/>
      <ellipse cx="1355" cy="305.5" fill="#ADD1B2" rx="11" ry="11"
               style="stroke:#181818;stroke-width:1.0;"/>
      <path
        d="M1357.3438,301.1719 C1356.4063,300.7344 1355.8125,300.5938 1354.9375,300.5938 C1352.3125,300.5938 1350.3125,302.6719 1350.3125,305.3906 L1350.3125,306.5156 C1350.3125,309.0938 1352.4219,310.9844 1355.3125,310.9844 C1356.5313,310.9844 1357.6875,310.6875 1358.4375,310.1406 C1359.0156,309.7344 1359.3438,309.2813 1359.3438,308.8906 C1359.3438,308.4375 1358.9531,308.0469 1358.4844,308.0469 C1358.2656,308.0469 1358.0625,308.125 1357.875,308.3125 C1357.4219,308.7969 1357.4219,308.7969 1357.2344,308.8906 C1356.8125,309.1563 1356.125,309.2813 1355.3594,309.2813 C1353.3125,309.2813 1352.0156,308.1875 1352.0156,306.4844 L1352.0156,305.3906 C1352.0156,303.6094 1353.2656,302.2969 1355,302.2969 C1355.5781,302.2969 1356.1875,302.4531 1356.6563,302.7031 C1357.1406,302.9844 1357.3125,303.2031 1357.4063,303.6094 C1357.4688,304.0156 1357.5,304.1406 1357.6406,304.2656 C1357.7813,304.4063 1358.0156,304.5156 1358.2344,304.5156 C1358.5,304.5156 1358.7656,304.375 1358.9375,304.1563 C1359.0469,304 1359.0781,303.8125 1359.0781,303.3906 L1359.0781,301.9688 C1359.0781,301.5313 1359.0625,301.4063 1358.9688,301.25 C1358.8125,300.9844 1358.5313,300.8438 1358.2344,300.8438 C1357.9375,300.8438 1357.7344,300.9375 1357.5156,301.25 L1357.3438,301.1719 Z "
        fill="#000000"/>
      <text fill="#000000" font-family="sans-serif" font-size="14" lengthAdjust="spacing"
            textLength="214" x="1369" y="310.3467">ResetReservationComponent
      </text>
      <line style="stroke:#181818;stroke-width:0.5;" x1="1341" x2="1585" y1="321.5" y2="321.5"/>
      <line style="stroke:#181818;stroke-width:0.5;" x1="1341" x2="1585" y1="329.5" y2="329.5"/>
      <ellipse cx="1351" cy="343.1484" fill="#84BE84" rx="3" ry="3"
               style="stroke:#038048;stroke-width:1.0;"/>
      <text fill="#000000" font-family="sans-serif" font-size="14" lengthAdjust="spacing"
            textLength="201" x="1360" y="346.4951">void execute(ReservationId)
      </text>
    </g><!--class SubmitReservationService-->
    <g id="elem_SubmitReservationService">
      <rect codeLine="94" fill="#F1F1F1" height="121.1875" id="SubmitReservationService" rx="2.5"
            ry="2.5" style="stroke:#181818;stroke-width:0.5;" width="455" x="796.5" y="84"/>
      <ellipse cx="924.25" cy="100" fill="#ADD1B2" rx="11" ry="11"
               style="stroke:#181818;stroke-width:1.0;"/>
      <path
        d="M926.5938,95.6719 C925.6563,95.2344 925.0625,95.0938 924.1875,95.0938 C921.5625,95.0938 919.5625,97.1719 919.5625,99.8906 L919.5625,101.0156 C919.5625,103.5938 921.6719,105.4844 924.5625,105.4844 C925.7813,105.4844 926.9375,105.1875 927.6875,104.6406 C928.2656,104.2344 928.5938,103.7813 928.5938,103.3906 C928.5938,102.9375 928.2031,102.5469 927.7344,102.5469 C927.5156,102.5469 927.3125,102.625 927.125,102.8125 C926.6719,103.2969 926.6719,103.2969 926.4844,103.3906 C926.0625,103.6563 925.375,103.7813 924.6094,103.7813 C922.5625,103.7813 921.2656,102.6875 921.2656,100.9844 L921.2656,99.8906 C921.2656,98.1094 922.5156,96.7969 924.25,96.7969 C924.8281,96.7969 925.4375,96.9531 925.9063,97.2031 C926.3906,97.4844 926.5625,97.7031 926.6563,98.1094 C926.7188,98.5156 926.75,98.6406 926.8906,98.7656 C927.0313,98.9063 927.2656,99.0156 927.4844,99.0156 C927.75,99.0156 928.0156,98.875 928.1875,98.6563 C928.2969,98.5 928.3281,98.3125 928.3281,97.8906 L928.3281,96.4688 C928.3281,96.0313 928.3125,95.9063 928.2188,95.75 C928.0625,95.4844 927.7813,95.3438 927.4844,95.3438 C927.1875,95.3438 926.9844,95.4375 926.7656,95.75 L926.5938,95.6719 Z "
        fill="#000000"/>
      <text fill="#000000" font-family="sans-serif" font-size="14" lengthAdjust="spacing"
            textLength="191" x="944.75" y="104.8467">SubmitReservationService
      </text>
      <line style="stroke:#181818;stroke-width:0.5;" x1="797.5" x2="1250.5" y1="116" y2="116"/>
      <line style="stroke:#181818;stroke-width:1.0;stroke-dasharray:1.0,2.0;" x1="797.5" x2="1250.5"
            y1="124" y2="124"/>
      <ellipse cx="807.5" cy="137.6484" fill="none" rx="3" ry="3"
               style="stroke:#038048;stroke-width:1.0;"/>
      <text fill="#000000" font-family="sans-serif" font-size="14" lengthAdjust="spacing"
            textLength="364" x="816.5" y="140.9951">SubmitReservationComponent submitReservation
      </text>
      <line style="stroke:#181818;stroke-width:0.5;" x1="797.5" x2="1250.5" y1="148.2969"
            y2="148.2969"/>
      <ellipse cx="807.5" cy="161.9453" fill="#84BE84" rx="3" ry="3"
               style="stroke:#038048;stroke-width:1.0;"/>
      <text fill="#000000" font-family="sans-serif" font-size="14" lengthAdjust="spacing"
            textLength="401" x="816.5" y="165.292">SubmitReservationComponent getSubmitReservation()
      </text>
      <ellipse cx="807.5" cy="178.2422" fill="#84BE84" rx="3" ry="3"
               style="stroke:#038048;stroke-width:1.0;"/>
      <text fill="#000000" font-family="sans-serif" font-size="14" lengthAdjust="spacing"
            textLength="429" x="816.5" y="181.5889">void
        setSubmitReservation(SubmitReservationComponent)
      </text>
      <ellipse cx="807.5" cy="194.5391" fill="#84BE84" rx="3" ry="3"
               style="stroke:#038048;stroke-width:1.0;"/>
      <text fill="#000000" font-family="sans-serif" font-size="14" lengthAdjust="spacing"
            textLength="196" x="816.5" y="197.8857">ReservationId serve(String)
      </text>
    </g><!--class SubmitReservationComponent-->
    <g id="elem_SubmitReservationComponent">
      <rect codeLine="102" fill="#F1F1F1" height="113.1875" id="SubmitReservationComponent" rx="2.5"
            ry="2.5" style="stroke:#181818;stroke-width:0.5;" width="423" x="812.5" y="265"/>
      <ellipse cx="907.75" cy="281" fill="#ADD1B2" rx="11" ry="11"
               style="stroke:#181818;stroke-width:1.0;"/>
      <path
        d="M910.0938,276.6719 C909.1563,276.2344 908.5625,276.0938 907.6875,276.0938 C905.0625,276.0938 903.0625,278.1719 903.0625,280.8906 L903.0625,282.0156 C903.0625,284.5938 905.1719,286.4844 908.0625,286.4844 C909.2813,286.4844 910.4375,286.1875 911.1875,285.6406 C911.7656,285.2344 912.0938,284.7813 912.0938,284.3906 C912.0938,283.9375 911.7031,283.5469 911.2344,283.5469 C911.0156,283.5469 910.8125,283.625 910.625,283.8125 C910.1719,284.2969 910.1719,284.2969 909.9844,284.3906 C909.5625,284.6563 908.875,284.7813 908.1094,284.7813 C906.0625,284.7813 904.7656,283.6875 904.7656,281.9844 L904.7656,280.8906 C904.7656,279.1094 906.0156,277.7969 907.75,277.7969 C908.3281,277.7969 908.9375,277.9531 909.4063,278.2031 C909.8906,278.4844 910.0625,278.7031 910.1563,279.1094 C910.2188,279.5156 910.25,279.6406 910.3906,279.7656 C910.5313,279.9063 910.7656,280.0156 910.9844,280.0156 C911.25,280.0156 911.5156,279.875 911.6875,279.6563 C911.7969,279.5 911.8281,279.3125 911.8281,278.8906 L911.8281,277.4688 C911.8281,277.0313 911.8125,276.9063 911.7188,276.75 C911.5625,276.4844 911.2813,276.3438 910.9844,276.3438 C910.6875,276.3438 910.4844,276.4375 910.2656,276.75 L910.0938,276.6719 Z "
        fill="#000000"/>
      <text fill="#000000" font-family="sans-serif" font-size="14" lengthAdjust="spacing"
            textLength="224" x="928.25" y="285.8467">SubmitReservationComponent
      </text>
      <line style="stroke:#181818;stroke-width:0.5;" x1="813.5" x2="1234.5" y1="297" y2="297"/>
      <ellipse cx="823.5" cy="310.6484" fill="none" rx="3" ry="3"
               style="stroke:#038048;stroke-width:1.0;"/>
      <text fill="#000000" font-family="sans-serif" font-size="14" lengthAdjust="spacing"
            textLength="330" x="832.5" y="313.9951">ReservationRepository reservationRepository
      </text>
      <line style="stroke:#181818;stroke-width:0.5;" x1="813.5" x2="1234.5" y1="321.2969"
            y2="321.2969"/>
      <ellipse cx="823.5" cy="334.9453" fill="#84BE84" rx="3" ry="3"
               style="stroke:#038048;stroke-width:1.0;"/>
      <text fill="#000000" font-family="sans-serif" font-size="14" lengthAdjust="spacing"
            textLength="369" x="832.5" y="338.292">ReservationRepository getReservationRepository()
      </text>
      <ellipse cx="823.5" cy="351.2422" fill="#84BE84" rx="3" ry="3"
               style="stroke:#038048;stroke-width:1.0;"/>
      <text fill="#000000" font-family="sans-serif" font-size="14" lengthAdjust="spacing"
            textLength="397" x="832.5" y="354.5889">void
        setReservationRepository(ReservationRepository)
      </text>
      <ellipse cx="823.5" cy="367.5391" fill="#84BE84" rx="3" ry="3"
               style="stroke:#038048;stroke-width:1.0;"/>
      <text fill="#000000" font-family="sans-serif" font-size="14" lengthAdjust="spacing"
            textLength="215" x="832.5" y="370.8857">ReservationId execute(String)
      </text>
    </g><!--link ConfirmReservationService to ConfirmReservationComponent-->
    <g id="link_ConfirmReservationService_ConfirmReservationComponent">
      <path codeLine="109" d="M1902,201.48 C1902,221.79 1902,238.65 1902,258.93 " fill="none"
            id="ConfirmReservationService-to-ConfirmReservationComponent"
            style="stroke:#181818;stroke-width:1.0;"/>
      <polygon fill="#181818" points="1902,264.93,1906,255.93,1902,259.93,1898,255.93,1902,264.93"
               style="stroke:#181818;stroke-width:1.0;"/>
    </g><!--link ConfirmReservationComponent to ReservationRepository-->
    <g id="link_ConfirmReservationComponent_ReservationRepository">
      <path codeLine="110" d="M1790.75,378.04 C1790.75,434.316 1790.75,514.56 1790.75,573.477 "
            fill="none" id="ConfirmReservationComponent-to-ReservationRepository"
            style="stroke:#181818;stroke-width:1.0;"/>
      <polygon fill="#181818"
               points="1790.75,579.477,1794.75,570.477,1790.75,574.477,1786.75,570.477,1790.75,579.477"
               style="stroke:#181818;stroke-width:1.0;"/>
    </g><!--reverse link ReservationRepository to ReservationRepositoryImpl-->
    <g id="link_ReservationRepository_ReservationRepositoryImpl">
      <path codeLine="111" d="M1715,726.512 C1715,768.105 1715,804.001 1715,845.658 " fill="none"
            id="ReservationRepository-backto-ReservationRepositoryImpl"
            style="stroke:#181818;stroke-width:1.0;stroke-dasharray:7.0,7.0;"/>
      <polygon fill="none" points="1715,708.512,1709,726.512,1721,726.512,1715,708.512"
               style="stroke:#181818;stroke-width:1.0;"/>
    </g><!--link ReservationRepositoryImpl to Reservation-->
    <g id="link_ReservationRepositoryImpl_Reservation">
      <path codeLine="112" d="M1716,975.239 C1716,995.282 1716,1010.793 1716,1028.732 " fill="none"
            id="ReservationRepositoryImpl-to-Reservation" style="stroke:#181818;stroke-width:1.0;"/>
      <polygon fill="#181818"
               points="1716,1034.732,1720,1025.732,1716,1029.732,1712,1025.732,1716,1034.732"
               style="stroke:#181818;stroke-width:1.0;"/>
    </g><!--link Reservation to ReservationId-->
    <g id="link_Reservation_ReservationId">
      <path codeLine="113" d="M1644,1116.324 C1644,1151.972 1644,1197.007 1644,1229.827 "
            fill="none" id="Reservation-to-ReservationId" style="stroke:#181818;stroke-width:1.0;"/>
      <polygon fill="#181818"
               points="1644,1235.827,1648,1226.827,1644,1230.827,1640,1226.827,1644,1235.827"
               style="stroke:#181818;stroke-width:1.0;"/>
    </g><!--link Reservation to ReservationStatus-->
    <g id="link_Reservation_ReservationStatus">
      <path codeLine="114" d="M1783,1116.324 C1783,1143.915 1783,1174.724 1783,1205.171 "
            fill="none" id="Reservation-to-ReservationStatus"
            style="stroke:#181818;stroke-width:1.0;"/>
      <polygon fill="#181818"
               points="1783,1211.171,1787,1202.171,1783,1206.171,1779,1202.171,1783,1211.171"
               style="stroke:#181818;stroke-width:1.0;"/>
    </g><!--link Trip to TripId-->
    <g id="link_Trip_TripId">
      <path codeLine="115" d="M207,725.044 C207,776.651 207,834.668 207,872.4 " fill="none"
            id="Trip-to-TripId" style="stroke:#181818;stroke-width:1.0;"/>
      <polygon fill="#181818" points="207,878.4,211,869.4,207,873.4,203,869.4,207,878.4"
               style="stroke:#181818;stroke-width:1.0;"/>
    </g><!--link Trip to Station-->
    <g id="link_Trip_Station">
      <path codeLine="116"
            d="M281.667,725.266 C281.667,791.628 281.667,874.5 281.667,874.5 C281.667,874.5 324.517,874.5 369.742,874.5 "
            fill="none" id="Trip-to-Station" style="stroke:#181818;stroke-width:1.0;"/>
      <polygon fill="#181818"
               points="375.742,874.5,366.742,870.5,370.742,874.5,366.742,878.5,375.742,874.5"
               style="stroke:#181818;stroke-width:1.0;"/>
    </g><!--link Trip to Seat-->
    <g id="link_Trip_Seat">
      <path codeLine="117"
            d="M320.191,719.5 C481.905,719.5 759.75,719.5 759.75,719.5 C759.75,719.5 759.75,807.927 759.75,863.994 "
            fill="none" id="Trip-to-Seat" style="stroke:#181818;stroke-width:1.0;"/>
      <polygon fill="#181818"
               points="759.75,869.994,763.75,860.994,759.75,864.994,755.75,860.994,759.75,869.994"
               style="stroke:#181818;stroke-width:1.0;"/>
    </g><!--link Trip to Train-->
    <g id="link_Trip_Train">
      <path codeLine="118"
            d="M320.157,714.5 C599.249,714.5 1298,714.5 1298,714.5 C1298,714.5 1298,806.479 1298,863.889 "
            fill="none" id="Trip-to-Train" style="stroke:#181818;stroke-width:1.0;"/>
      <polygon fill="#181818"
               points="1298,869.889,1302,860.889,1298,864.889,1294,860.889,1298,869.889"
               style="stroke:#181818;stroke-width:1.0;"/>
    </g><!--link Trip to Wagon-->
    <g id="link_Trip_Wagon">
      <path codeLine="119"
            d="M300.833,725.272 C300.833,788.832 300.833,866.5 300.833,866.5 C300.833,866.5 790.854,866.5 991.88,866.5 "
            fill="none" id="Trip-to-Wagon" style="stroke:#181818;stroke-width:1.0;"/>
      <polygon fill="#181818"
               points="997.88,866.5,988.88,862.5,992.88,866.5,988.88,870.5,997.88,866.5"
               style="stroke:#181818;stroke-width:1.0;"/>
    </g><!--link Station to StationId-->
    <g id="link_Station_StationId">
      <path codeLine="120" d="M451,951.287 C451,979.725 451,1011.138 451,1037.445 " fill="none"
            id="Station-to-StationId" style="stroke:#181818;stroke-width:1.0;"/>
      <polygon fill="#181818"
               points="451,1043.445,455,1034.445,451,1038.445,447,1034.445,451,1043.445"
               style="stroke:#181818;stroke-width:1.0;"/>
    </g><!--link Train to TrainId-->
    <g id="link_Train_TrainId">
      <path codeLine="121" d="M1331,951.287 C1331,979.725 1331,1011.138 1331,1037.445 " fill="none"
            id="Train-to-TrainId" style="stroke:#181818;stroke-width:1.0;"/>
      <polygon fill="#181818"
               points="1331,1043.445,1335,1034.445,1331,1038.445,1327,1034.445,1331,1043.445"
               style="stroke:#181818;stroke-width:1.0;"/>
    </g><!--link Wagon to WagonId-->
    <g id="link_Wagon_WagonId">
      <path codeLine="122" d="M1081,959.113 C1081,986.3 1081,1013.43 1081,1037.38 " fill="none"
            id="Wagon-to-WagonId" style="stroke:#181818;stroke-width:1.0;"/>
      <polygon fill="#181818"
               points="1081,1043.38,1085,1034.38,1081,1038.38,1077,1034.38,1081,1043.38"
               style="stroke:#181818;stroke-width:1.0;"/>
    </g><!--link Seat to SeatId-->
    <g id="link_Seat_SeatId">
      <path codeLine="123" d="M798,951.287 C798,979.725 798,1011.138 798,1037.445 " fill="none"
            id="Seat-to-SeatId" style="stroke:#181818;stroke-width:1.0;"/>
      <polygon fill="#181818"
               points="798,1043.445,802,1034.445,798,1038.445,794,1034.445,798,1043.445"
               style="stroke:#181818;stroke-width:1.0;"/>
    </g><!--link ResetReservationService to ResetReservationComponent-->
    <g id="link_ResetReservationService_ResetReservationComponent">
      <path codeLine="124" d="M1463,176.55 C1463,208.53 1463,251.39 1463,283.39 " fill="none"
            id="ResetReservationService-to-ResetReservationComponent"
            style="stroke:#181818;stroke-width:1.0;"/>
      <polygon fill="#181818" points="1463,289.39,1467,280.39,1463,284.39,1459,280.39,1463,289.39"
               style="stroke:#181818;stroke-width:1.0;"/>
    </g><!--link ResetReservationComponent to ReservationRepository-->
    <g id="link_ResetReservationComponent_ReservationRepository">
      <path codeLine="125" d="M1570.33,353.6 C1570.33,406.02 1570.33,504.979 1570.33,573.313 "
            fill="none" id="ResetReservationComponent-to-ReservationRepository"
            style="stroke:#181818;stroke-width:1.0;"/>
      <polygon fill="#181818"
               points="1570.33,579.313,1574.33,570.313,1570.33,574.313,1566.33,570.313,1570.33,579.313"
               style="stroke:#181818;stroke-width:1.0;"/>
    </g><!--link SubmitReservationService to SubmitReservationComponent-->
    <g id="link_SubmitReservationService_SubmitReservationComponent">
      <path codeLine="126" d="M1024,205.41 C1024,224.71 1024,239.96 1024,258.94 " fill="none"
            id="SubmitReservationService-to-SubmitReservationComponent"
            style="stroke:#181818;stroke-width:1.0;"/>
      <polygon fill="#181818" points="1024,264.94,1028,255.94,1024,259.94,1020,255.94,1024,264.94"
               style="stroke:#181818;stroke-width:1.0;"/>
    </g><!--link SubmitReservationComponent to ReservationRepository-->
    <g id="link_SubmitReservationComponent_ReservationRepository">
      <path codeLine="127"
            d="M1235.64,366.5 C1383.54,366.5 1554.67,366.5 1554.67,366.5 C1554.67,366.5 1554.67,491.29 1554.67,573.289 "
            fill="none" id="SubmitReservationComponent-to-ReservationRepository"
            style="stroke:#181818;stroke-width:1.0;"/>
      <polygon fill="#181818"
               points="1554.67,579.289,1558.67,570.289,1554.67,574.289,1550.67,570.289,1554.67,579.289"
               style="stroke:#181818;stroke-width:1.0;"/>
    </g><!--SRC=[xLZ9Rjim4BthAzYS71JX5mG66YS116Gfig37W9PeXuX52YJbr73zx-KYsrff6OYM9ZsPuCoGynw7jEPzYpcQHmWa0ljKOXxXa229VwBW3Ssn03Eq4DWJRuJ6YAC8B0Z5SXLZmBXyPPvuPUz0g3ZCzApd1Gia13YPC3eZF7h00lCbaeJHHpKW0Ju1I80Gmt0AbvY63CQSIHCBfqdmcj0vvFiW698bvWAY4CLI3rIQBm4IM41C9P543GAx5PooX8Q8hs3jtc3j0V2zR9wmA6PKBGY2aar5lBmS2fjZMJQFJdNOaf4GY4gxOyLiA5_YKSR73q-zJJtDkoKw85fDICuMq4MDeJnZUS0n4qGolWAyQdR7TtMCOhhIa2UxsgLoTX-7V-CWaHLS4tqlPaZLpqdb4X_FTDQzn7OrCOPdi4PJ8JaAvEO-rWveSPvn7uCPeU75gWWn7van0e7onLVqjOGdquX8zwB6CIsW1fwQ05bRzPKC-56y6C99w3piQHnv10TvTvDzWE7ZQEsOIEErol9PUZVyKDzzFnmLkNgKI2P26-reL8t83tl7f20OLC_F_kKEpCR3D8bogLeSlQUR4gjJVdo-kFMVr61oVtVjFzpgqO-xoTNDxhK6Qw7SIR2vKcYkr99gm_FIOcCDExLcp-c9axXTl6hBk1QqtjuUZHxbAqqdhkjHJTrpCYUqD7s9XIGqyvT_GuGyJnt6sy9KOs7DJnmH4sW6wN8OcQy8_MjdVg6vNTuCYcIrNSq7wQgfvJJ55707EGhfhkVjEQqpXrOyO4xeNC_SeGXNeEY4wuOutBIRWkeWMQdtSPI7hk_rhjIRqfqw3oD_Dz7cJdQMwBlUhJPT-r2iTs_60RhpSqaqnRo4hCD3Q83jm5EZNioEinLgo_gBgb_ozVPDR_pK6D-XuN0ph__TPHSDllbgtITQiwzDjK7FN8nliMCkP9xj6sHzj-pkHhSLO_g0BkYt7SSUHTtE9da8JQ4NNVO8HT6q-uHq1Ealew8rt_6NpVNBdPPR2rinzdwwI6wnLeeqRul5GSi_eQtaYTwMzPxglhJ0ixDn__AOrxz0z-4y72-PU4EGR602__ndGZFHRKMKXGUlL-6fR_H- -BNnMwN8wr49QfM11ihAvyRUKEdut2GSrOPz1IgSOipNgGMd4E8DGqeTp1FH-alPHESSn0NfY8acGkI0xakdh1mM1GVshz86EmrKkbPOE4PZy_fL-3vTkzrO7lnmvCShPbxVYjq0Jlyl]-->
  </g>
</svg>