<?xml version="1.0" encoding="us-ascii" standalone="no"?>
<svg xmlns="http://www.w3.org/2000/svg"
     contentStyleType="text/css" height="1092px" preserveAspectRatio="none"
     style="width:3025px;height:1092px;background:#FFFFFF;" version="1.1" viewBox="0 0 3025 1092"
     width="3025px" zoomAndPan="magnify">
  <defs/>
  <g><!--cluster entities-->
    <g id="cluster_entities">
      <path
        d="M8.5,6 L650.5,6 A3.75,3.75 0 0 1 653,8.5 L660,28.2969 L3015.5,28.2969 A2.5,2.5 0 0 1 3018,30.7969 L3018,1082.5 A2.5,2.5 0 0 1 3015.5,1085 L8.5,1085 A2.5,2.5 0 0 1 6,1082.5 L6,8.5 A2.5,2.5 0 0 1 8.5,6 "
        fill="none" style="stroke:#000000;stroke-width:1.5;"/>
      <line style="stroke:#000000;stroke-width:1.5;" x1="6" x2="660" y1="28.2969" y2="28.2969"/>
      <text fill="#000000" font-family="sans-serif" font-size="14" font-weight="bold"
            lengthAdjust="spacing" textLength="641" x="10" y="20.9951">
        de.db.vendo.prototype.buchung.reservation.divers.adapters.use_cases.entities
      </text>
    </g><!--cluster boundary-->
    <g id="cluster_boundary">
      <path
        d="M2236.5,49 L2381.5,49 A3.75,3.75 0 0 1 2384,51.5 L2391,71.2969 L2573.5,71.2969 A2.5,2.5 0 0 1 2576,73.7969 L2576,309.5 A2.5,2.5 0 0 1 2573.5,312 L2236.5,312 A2.5,2.5 0 0 1 2234,309.5 L2234,51.5 A2.5,2.5 0 0 1 2236.5,49 "
        fill="none" style="stroke:#000000;stroke-width:1.5;"/>
      <line style="stroke:#000000;stroke-width:1.5;" x1="2234" x2="2391" y1="71.2969" y2="71.2969"/>
      <text fill="#000000" font-family="sans-serif" font-size="14" font-weight="bold"
            lengthAdjust="spacing" textLength="144" x="2238" y="63.9951">confirm.boundary
      </text>
    </g><!--cluster control-->
    <g id="cluster_control">
      <path
        d="M2260.5,173 L2320.5,173 A3.75,3.75 0 0 1 2323,175.5 L2330,195.2969 L2549.5,195.2969 A2.5,2.5 0 0 1 2552,197.7969 L2552,285.5 A2.5,2.5 0 0 1 2549.5,288 L2260.5,288 A2.5,2.5 0 0 1 2258,285.5 L2258,175.5 A2.5,2.5 0 0 1 2260.5,173 "
        fill="none" style="stroke:#000000;stroke-width:1.5;"/>
      <line style="stroke:#000000;stroke-width:1.5;" x1="2258" x2="2330" y1="195.2969"
            y2="195.2969"/>
      <text fill="#000000" font-family="sans-serif" font-size="14" font-weight="bold"
            lengthAdjust="spacing" textLength="59" x="2262" y="187.9951">control
      </text>
    </g><!--cluster reservation-->
    <g id="cluster_reservation">
      <path
        d="M32.5,336 L126.5,336 A3.75,3.75 0 0 1 129,338.5 L136,358.2969 L2991.5,358.2969 A2.5,2.5 0 0 1 2994,360.7969 L2994,1058.5 A2.5,2.5 0 0 1 2991.5,1061 L32.5,1061 A2.5,2.5 0 0 1 30,1058.5 L30,338.5 A2.5,2.5 0 0 1 32.5,336 "
        fill="none" style="stroke:#000000;stroke-width:1.5;"/>
      <line style="stroke:#000000;stroke-width:1.5;" x1="30" x2="136" y1="358.2969" y2="358.2969"/>
      <text fill="#000000" font-family="sans-serif" font-size="14" font-weight="bold"
            lengthAdjust="spacing" textLength="93" x="34" y="350.9951">reservation
      </text>
    </g><!--cluster control-->
    <g id="cluster_control">
      <path
        d="M1910.5,419.5 L2051.5,419.5 A3.75,3.75 0 0 1 2054,422 L2061,441.7969 L2967.5,441.7969 A2.5,2.5 0 0 1 2970,444.2969 L2970,898.5 A2.5,2.5 0 0 1 2967.5,901 L1910.5,901 A2.5,2.5 0 0 1 1908,898.5 L1908,422 A2.5,2.5 0 0 1 1910.5,419.5 "
        fill="none" style="stroke:#000000;stroke-width:1.5;"/>
      <line style="stroke:#000000;stroke-width:1.5;" x1="1908" x2="2061" y1="441.7969"
            y2="441.7969"/>
      <text fill="#000000" font-family="sans-serif" font-size="14" font-weight="bold"
            lengthAdjust="spacing" textLength="140" x="1912" y="434.4951">boundary.control
      </text>
    </g><!--cluster entity-->
    <g id="cluster_entity">
      <path
        d="M2188.5,462.5 L2238.5,462.5 A3.75,3.75 0 0 1 2241,465 L2248,484.7969 L2943.5,484.7969 A2.5,2.5 0 0 1 2946,487.2969 L2946,874.5 A2.5,2.5 0 0 1 2943.5,877 L2188.5,877 A2.5,2.5 0 0 1 2186,874.5 L2186,465 A2.5,2.5 0 0 1 2188.5,462.5 "
        fill="none" style="stroke:#000000;stroke-width:1.5;"/>
      <line style="stroke:#000000;stroke-width:1.5;" x1="2186" x2="2248" y1="484.7969"
            y2="484.7969"/>
      <text fill="#000000" font-family="sans-serif" font-size="14" font-weight="bold"
            lengthAdjust="spacing" textLength="49" x="2190" y="477.4951">entity
      </text>
    </g><!--cluster trip-->
    <g id="cluster_trip">
      <path
        d="M56.5,379 L87.5,379 A3.75,3.75 0 0 1 90,381.5 L97,401.2969 L1881.5,401.2969 A2.5,2.5 0 0 1 1884,403.7969 L1884,1034.5 A2.5,2.5 0 0 1 1881.5,1037 L56.5,1037 A2.5,2.5 0 0 1 54,1034.5 L54,381.5 A2.5,2.5 0 0 1 56.5,379 "
        fill="none" style="stroke:#000000;stroke-width:1.5;"/>
      <line style="stroke:#000000;stroke-width:1.5;" x1="54" x2="97" y1="401.2969" y2="401.2969"/>
      <text fill="#000000" font-family="sans-serif" font-size="14" font-weight="bold"
            lengthAdjust="spacing" textLength="30" x="58" y="393.9951">trip
      </text>
    </g><!--cluster entity-->
    <g id="cluster_entity">
      <path
        d="M80.5,422 L275.5,422 A3.75,3.75 0 0 1 278,424.5 L285,444.2969 L333.5,444.2969 A2.5,2.5 0 0 1 336,446.7969 L336,850 A2.5,2.5 0 0 1 333.5,852.5 L80.5,852.5 A2.5,2.5 0 0 1 78,850 L78,424.5 A2.5,2.5 0 0 1 80.5,422 "
        fill="none" style="stroke:#000000;stroke-width:1.5;"/>
      <line style="stroke:#000000;stroke-width:1.5;" x1="78" x2="285" y1="444.2969" y2="444.2969"/>
      <text fill="#000000" font-family="sans-serif" font-size="14" font-weight="bold"
            lengthAdjust="spacing" textLength="194" x="82" y="436.9951">boundary.control.entity
      </text>
    </g><!--cluster entity-->
    <g id="cluster_entity">
      <path
        d="M362.5,729 L622.5,729 A3.75,3.75 0 0 1 625,731.5 L632,751.2969 L632.5,751.2969 A2.5,2.5 0 0 1 635,753.7969 L635,1010.5 A2.5,2.5 0 0 1 632.5,1013 L362.5,1013 A2.5,2.5 0 0 1 360,1010.5 L360,731.5 A2.5,2.5 0 0 1 362.5,729 "
        fill="none" style="stroke:#000000;stroke-width:1.5;"/>
      <line style="stroke:#000000;stroke-width:1.5;" x1="360" x2="632" y1="751.2969" y2="751.2969"/>
      <text fill="#000000" font-family="sans-serif" font-size="14" font-weight="bold"
            lengthAdjust="spacing" textLength="259" x="364" y="743.9951">
        station.boundary.control.entity
      </text>
    </g><!--cluster train-->
    <g id="cluster_train">
      <path
        d="M661.5,635 L702.5,635 A3.75,3.75 0 0 1 705,637.5 L712,657.2969 L1857.5,657.2969 A2.5,2.5 0 0 1 1860,659.7969 L1860,914.5 A2.5,2.5 0 0 1 1857.5,917 L661.5,917 A2.5,2.5 0 0 1 659,914.5 L659,637.5 A2.5,2.5 0 0 1 661.5,635 "
        fill="none" style="stroke:#000000;stroke-width:1.5;"/>
      <line style="stroke:#000000;stroke-width:1.5;" x1="659" x2="712" y1="657.2969" y2="657.2969"/>
      <text fill="#000000" font-family="sans-serif" font-size="14" font-weight="bold"
            lengthAdjust="spacing" textLength="40" x="663" y="649.9951">train
      </text>
    </g><!--cluster entity-->
    <g id="cluster_entity">
      <path
        d="M1491.5,729 L1686.5,729 A3.75,3.75 0 0 1 1689,731.5 L1696,751.2969 L1833.5,751.2969 A2.5,2.5 0 0 1 1836,753.7969 L1836,858.5 A2.5,2.5 0 0 1 1833.5,861 L1491.5,861 A2.5,2.5 0 0 1 1489,858.5 L1489,731.5 A2.5,2.5 0 0 1 1491.5,729 "
        fill="none" style="stroke:#000000;stroke-width:1.5;"/>
      <line style="stroke:#000000;stroke-width:1.5;" x1="1489" x2="1696" y1="751.2969"
            y2="751.2969"/>
      <text fill="#000000" font-family="sans-serif" font-size="14" font-weight="bold"
            lengthAdjust="spacing" textLength="194" x="1493" y="743.9951">boundary.control.entity
      </text>
    </g><!--cluster wagon-->
    <g id="cluster_wagon">
      <path
        d="M685.5,678 L739.5,678 A3.75,3.75 0 0 1 742,680.5 L749,700.2969 L1462.5,700.2969 A2.5,2.5 0 0 1 1465,702.7969 L1465,890.5 A2.5,2.5 0 0 1 1462.5,893 L685.5,893 A2.5,2.5 0 0 1 683,890.5 L683,680.5 A2.5,2.5 0 0 1 685.5,678 "
        fill="none" style="stroke:#000000;stroke-width:1.5;"/>
      <line style="stroke:#000000;stroke-width:1.5;" x1="683" x2="749" y1="700.2969" y2="700.2969"/>
      <text fill="#000000" font-family="sans-serif" font-size="14" font-weight="bold"
            lengthAdjust="spacing" textLength="53" x="687" y="692.9951">wagon
      </text>
    </g><!--cluster entity-->
    <g id="cluster_entity">
      <path
        d="M1080.5,721 L1275.5,721 A3.75,3.75 0 0 1 1278,723.5 L1285,743.2969 L1438.5,743.2969 A2.5,2.5 0 0 1 1441,745.7969 L1441,866.5 A2.5,2.5 0 0 1 1438.5,869 L1080.5,869 A2.5,2.5 0 0 1 1078,866.5 L1078,723.5 A2.5,2.5 0 0 1 1080.5,721 "
        fill="none" style="stroke:#000000;stroke-width:1.5;"/>
      <line style="stroke:#000000;stroke-width:1.5;" x1="1078" x2="1285" y1="743.2969"
            y2="743.2969"/>
      <text fill="#000000" font-family="sans-serif" font-size="14" font-weight="bold"
            lengthAdjust="spacing" textLength="194" x="1082" y="735.9951">boundary.control.entity
      </text>
    </g><!--cluster entity-->
    <g id="cluster_entity">
      <path
        d="M709.5,729 L945.5,729 A3.75,3.75 0 0 1 948,731.5 L955,751.2969 L1051.5,751.2969 A2.5,2.5 0 0 1 1054,753.7969 L1054,858.5 A2.5,2.5 0 0 1 1051.5,861 L709.5,861 A2.5,2.5 0 0 1 707,858.5 L707,731.5 A2.5,2.5 0 0 1 709.5,729 "
        fill="none" style="stroke:#000000;stroke-width:1.5;"/>
      <line style="stroke:#000000;stroke-width:1.5;" x1="707" x2="955" y1="751.2969" y2="751.2969"/>
      <text fill="#000000" font-family="sans-serif" font-size="14" font-weight="bold"
            lengthAdjust="spacing" textLength="235" x="711" y="743.9951">
        seat.boundary.control.entity
      </text>
    </g><!--cluster boundary-->
    <g id="cluster_boundary">
      <path
        d="M1886.5,49 L2010.5,49 A3.75,3.75 0 0 1 2013,51.5 L2020,71.2969 L2207.5,71.2969 A2.5,2.5 0 0 1 2210,73.7969 L2210,309.5 A2.5,2.5 0 0 1 2207.5,312 L1886.5,312 A2.5,2.5 0 0 1 1884,309.5 L1884,51.5 A2.5,2.5 0 0 1 1886.5,49 "
        fill="none" style="stroke:#000000;stroke-width:1.5;"/>
      <line style="stroke:#000000;stroke-width:1.5;" x1="1884" x2="2020" y1="71.2969" y2="71.2969"/>
      <text fill="#000000" font-family="sans-serif" font-size="14" font-weight="bold"
            lengthAdjust="spacing" textLength="123" x="1888" y="63.9951">reset.boundary
      </text>
    </g><!--cluster control-->
    <g id="cluster_control">
      <path
        d="M1910.5,173 L1970.5,173 A3.75,3.75 0 0 1 1973,175.5 L1980,195.2969 L2183.5,195.2969 A2.5,2.5 0 0 1 2186,197.7969 L2186,285.5 A2.5,2.5 0 0 1 2183.5,288 L1910.5,288 A2.5,2.5 0 0 1 1908,285.5 L1908,175.5 A2.5,2.5 0 0 1 1910.5,173 "
        fill="none" style="stroke:#000000;stroke-width:1.5;"/>
      <line style="stroke:#000000;stroke-width:1.5;" x1="1908" x2="1980" y1="195.2969"
            y2="195.2969"/>
      <text fill="#000000" font-family="sans-serif" font-size="14" font-weight="bold"
            lengthAdjust="spacing" textLength="59" x="1912" y="187.9951">control
      </text>
    </g><!--cluster boundary-->
    <g id="cluster_boundary">
      <path
        d="M1526.5,49 L1665.5,49 A3.75,3.75 0 0 1 1668,51.5 L1675,71.2969 L1857.5,71.2969 A2.5,2.5 0 0 1 1860,73.7969 L1860,309.5 A2.5,2.5 0 0 1 1857.5,312 L1526.5,312 A2.5,2.5 0 0 1 1524,309.5 L1524,51.5 A2.5,2.5 0 0 1 1526.5,49 "
        fill="none" style="stroke:#000000;stroke-width:1.5;"/>
      <line style="stroke:#000000;stroke-width:1.5;" x1="1524" x2="1675" y1="71.2969" y2="71.2969"/>
      <text fill="#000000" font-family="sans-serif" font-size="14" font-weight="bold"
            lengthAdjust="spacing" textLength="138" x="1528" y="63.9951">submit.boundary
      </text>
    </g><!--cluster control-->
    <g id="cluster_control">
      <path
        d="M1550.5,173 L1610.5,173 A3.75,3.75 0 0 1 1613,175.5 L1620,195.2969 L1833.5,195.2969 A2.5,2.5 0 0 1 1836,197.7969 L1836,285.5 A2.5,2.5 0 0 1 1833.5,288 L1550.5,288 A2.5,2.5 0 0 1 1548,285.5 L1548,175.5 A2.5,2.5 0 0 1 1550.5,173 "
        fill="none" style="stroke:#000000;stroke-width:1.5;"/>
      <line style="stroke:#000000;stroke-width:1.5;" x1="1548" x2="1620" y1="195.2969"
            y2="195.2969"/>
      <text fill="#000000" font-family="sans-serif" font-size="14" font-weight="bold"
            lengthAdjust="spacing" textLength="59" x="1552" y="187.9951">control
      </text>
    </g><!--class ConfirmReservationService-->
    <g id="elem_ConfirmReservationService">
      <rect codeLine="5" fill="#F1F1F1" height="64.2969" id="ConfirmReservationService" rx="2.5"
            ry="2.5" style="stroke:#181818;stroke-width:0.5;" width="229" x="2290.5" y="84"/>
      <ellipse cx="2305.5" cy="100" fill="#ADD1B2" rx="11" ry="11"
               style="stroke:#181818;stroke-width:1.0;"/>
      <path
        d="M2307.8438,95.6719 C2306.9063,95.2344 2306.3125,95.0938 2305.4375,95.0938 C2302.8125,95.0938 2300.8125,97.1719 2300.8125,99.8906 L2300.8125,101.0156 C2300.8125,103.5938 2302.9219,105.4844 2305.8125,105.4844 C2307.0313,105.4844 2308.1875,105.1875 2308.9375,104.6406 C2309.5156,104.2344 2309.8438,103.7813 2309.8438,103.3906 C2309.8438,102.9375 2309.4531,102.5469 2308.9844,102.5469 C2308.7656,102.5469 2308.5625,102.625 2308.375,102.8125 C2307.9219,103.2969 2307.9219,103.2969 2307.7344,103.3906 C2307.3125,103.6563 2306.625,103.7813 2305.8594,103.7813 C2303.8125,103.7813 2302.5156,102.6875 2302.5156,100.9844 L2302.5156,99.8906 C2302.5156,98.1094 2303.7656,96.7969 2305.5,96.7969 C2306.0781,96.7969 2306.6875,96.9531 2307.1563,97.2031 C2307.6406,97.4844 2307.8125,97.7031 2307.9063,98.1094 C2307.9688,98.5156 2308,98.6406 2308.1406,98.7656 C2308.2813,98.9063 2308.5156,99.0156 2308.7344,99.0156 C2309,99.0156 2309.2656,98.875 2309.4375,98.6563 C2309.5469,98.5 2309.5781,98.3125 2309.5781,97.8906 L2309.5781,96.4688 C2309.5781,96.0313 2309.5625,95.9063 2309.4688,95.75 C2309.3125,95.4844 2309.0313,95.3438 2308.7344,95.3438 C2308.4375,95.3438 2308.2344,95.4375 2308.0156,95.75 L2307.8438,95.6719 Z "
        fill="#000000"/>
      <text fill="#000000" font-family="sans-serif" font-size="14" lengthAdjust="spacing"
            textLength="197" x="2319.5" y="104.8467">ConfirmReservationService
      </text>
      <line style="stroke:#181818;stroke-width:0.5;" x1="2291.5" x2="2518.5" y1="116" y2="116"/>
      <line style="stroke:#181818;stroke-width:0.5;" x1="2291.5" x2="2518.5" y1="124" y2="124"/>
      <ellipse cx="2301.5" cy="137.6484" fill="#84BE84" rx="3" ry="3"
               style="stroke:#038048;stroke-width:1.0;"/>
      <text fill="#000000" font-family="sans-serif" font-size="14" lengthAdjust="spacing"
            textLength="127" x="2310.5" y="140.9951">void serve(String)
      </text>
    </g><!--class ConfirmReservationComponent-->
    <g id="elem_ConfirmReservationComponent">
      <rect codeLine="8" fill="#F1F1F1" height="64.2969" id="ConfirmReservationComponent" rx="2.5"
            ry="2.5" style="stroke:#181818;stroke-width:0.5;" width="262" x="2274" y="208"/>
      <ellipse cx="2289" cy="224" fill="#ADD1B2" rx="11" ry="11"
               style="stroke:#181818;stroke-width:1.0;"/>
      <path
        d="M2291.3438,219.6719 C2290.4063,219.2344 2289.8125,219.0938 2288.9375,219.0938 C2286.3125,219.0938 2284.3125,221.1719 2284.3125,223.8906 L2284.3125,225.0156 C2284.3125,227.5938 2286.4219,229.4844 2289.3125,229.4844 C2290.5313,229.4844 2291.6875,229.1875 2292.4375,228.6406 C2293.0156,228.2344 2293.3438,227.7813 2293.3438,227.3906 C2293.3438,226.9375 2292.9531,226.5469 2292.4844,226.5469 C2292.2656,226.5469 2292.0625,226.625 2291.875,226.8125 C2291.4219,227.2969 2291.4219,227.2969 2291.2344,227.3906 C2290.8125,227.6563 2290.125,227.7813 2289.3594,227.7813 C2287.3125,227.7813 2286.0156,226.6875 2286.0156,224.9844 L2286.0156,223.8906 C2286.0156,222.1094 2287.2656,220.7969 2289,220.7969 C2289.5781,220.7969 2290.1875,220.9531 2290.6563,221.2031 C2291.1406,221.4844 2291.3125,221.7031 2291.4063,222.1094 C2291.4688,222.5156 2291.5,222.6406 2291.6406,222.7656 C2291.7813,222.9063 2292.0156,223.0156 2292.2344,223.0156 C2292.5,223.0156 2292.7656,222.875 2292.9375,222.6563 C2293.0469,222.5 2293.0781,222.3125 2293.0781,221.8906 L2293.0781,220.4688 C2293.0781,220.0313 2293.0625,219.9063 2292.9688,219.75 C2292.8125,219.4844 2292.5313,219.3438 2292.2344,219.3438 C2291.9375,219.3438 2291.7344,219.4375 2291.5156,219.75 L2291.3438,219.6719 Z "
        fill="#000000"/>
      <text fill="#000000" font-family="sans-serif" font-size="14" lengthAdjust="spacing"
            textLength="230" x="2303" y="228.8467">ConfirmReservationComponent
      </text>
      <line style="stroke:#181818;stroke-width:0.5;" x1="2275" x2="2535" y1="240" y2="240"/>
      <line style="stroke:#181818;stroke-width:0.5;" x1="2275" x2="2535" y1="248" y2="248"/>
      <ellipse cx="2285" cy="261.6484" fill="#84BE84" rx="3" ry="3"
               style="stroke:#038048;stroke-width:1.0;"/>
      <text fill="#000000" font-family="sans-serif" font-size="14" lengthAdjust="spacing"
            textLength="146" x="2294" y="264.9951">void execute(String)
      </text>
    </g><!--class ReservationRepository-->
    <g id="elem_ReservationRepository">
      <rect codeLine="11" fill="#F1F1F1" height="129.4844" id="ReservationRepository" rx="2.5"
            ry="2.5" style="stroke:#181818;stroke-width:0.5;" width="246" x="1924" y="473.5"/>
      <ellipse cx="1962.85" cy="489.5" fill="#B4A7E5" rx="11" ry="11"
               style="stroke:#181818;stroke-width:1.0;"/>
      <path
        d="M1963.8031,486.2813 L1965.5219,486.2813 C1965.9125,486.2813 1966.1,486.25 1966.225,486.1719 C1966.4906,486.0156 1966.6313,485.7344 1966.6313,485.4375 C1966.6313,485.1719 1966.5219,484.9063 1966.2875,484.7344 C1966.1156,484.625 1965.975,484.5938 1965.5219,484.5938 L1960.3813,484.5938 C1959.9438,484.5938 1959.8188,484.6094 1959.6625,484.7031 C1959.4125,484.8594 1959.2563,485.1563 1959.2563,485.4375 C1959.2563,485.7188 1959.3969,485.9688 1959.6156,486.1406 C1959.7719,486.25 1959.9594,486.2813 1960.3813,486.2813 L1962.1,486.2813 L1962.1,492.7969 L1960.3813,492.7969 C1959.9438,492.7969 1959.8188,492.8125 1959.6625,492.9219 C1959.4125,493.0781 1959.2563,493.3594 1959.2563,493.6563 C1959.2563,493.9063 1959.3969,494.1719 1959.6156,494.3281 C1959.7719,494.4531 1959.975,494.5 1960.3813,494.5 L1965.5219,494.5 C1966.2719,494.5 1966.6313,494.2188 1966.6313,493.6563 C1966.6313,493.375 1966.5219,493.125 1966.2875,492.9531 C1966.1156,492.8281 1965.975,492.7969 1965.5219,492.7969 L1963.8031,492.7969 L1963.8031,486.2813 Z "
        fill="#000000"/>
      <text fill="#000000" font-family="sans-serif" font-size="14" font-style="italic"
            lengthAdjust="spacing" textLength="161" x="1982.15" y="494.3467">ReservationRepository
      </text>
      <line style="stroke:#181818;stroke-width:0.5;" x1="1925" x2="2169" y1="505.5" y2="505.5"/>
      <line style="stroke:#181818;stroke-width:0.5;" x1="1925" x2="2169" y1="513.5" y2="513.5"/>
      <ellipse cx="1935" cy="527.1484" fill="#84BE84" rx="3" ry="3"
               style="stroke:#038048;stroke-width:1.0;"/>
      <text fill="#000000" font-family="sans-serif" font-size="14" font-style="italic"
            lengthAdjust="spacing" textLength="220" x="1944" y="530.4951">Optional&lt;String&gt;
        findBy(UUID)
      </text>
      <ellipse cx="1935" cy="543.4453" fill="#84BE84" rx="3" ry="3"
               style="stroke:#038048;stroke-width:1.0;"/>
      <text fill="#000000" font-family="sans-serif" font-size="14" font-style="italic"
            lengthAdjust="spacing" textLength="131" x="1944" y="546.792">String save(String)
      </text>
      <ellipse cx="1935" cy="559.7422" fill="#84BE84" rx="3" ry="3"
               style="stroke:#038048;stroke-width:1.0;"/>
      <text fill="#000000" font-family="sans-serif" font-size="14" font-style="italic"
            lengthAdjust="spacing" textLength="134" x="1944" y="563.0889">void submit(String)
      </text>
      <ellipse cx="1935" cy="576.0391" fill="#84BE84" rx="3" ry="3"
               style="stroke:#038048;stroke-width:1.0;"/>
      <text fill="#000000" font-family="sans-serif" font-size="14" font-style="italic"
            lengthAdjust="spacing" textLength="141" x="1944" y="579.3857">void confirm(String)
      </text>
      <ellipse cx="1935" cy="592.3359" fill="#84BE84" rx="3" ry="3"
               style="stroke:#038048;stroke-width:1.0;"/>
      <text fill="#000000" font-family="sans-serif" font-size="14" font-style="italic"
            lengthAdjust="spacing" textLength="122" x="1944" y="595.6826">void reset(String)
      </text>
    </g><!--class Reservation-->
    <g id="elem_Reservation">
      <rect codeLine="18" fill="#F1F1F1" height="80.5938" id="Reservation" rx="2.5" ry="2.5"
            style="stroke:#181818;stroke-width:0.5;" width="243" x="2261.5" y="497.5"/>
      <ellipse cx="2335.75" cy="513.5" fill="#ADD1B2" rx="11" ry="11"
               style="stroke:#181818;stroke-width:1.0;"/>
      <path
        d="M2338.0938,509.1719 C2337.1563,508.7344 2336.5625,508.5938 2335.6875,508.5938 C2333.0625,508.5938 2331.0625,510.6719 2331.0625,513.3906 L2331.0625,514.5156 C2331.0625,517.0938 2333.1719,518.9844 2336.0625,518.9844 C2337.2813,518.9844 2338.4375,518.6875 2339.1875,518.1406 C2339.7656,517.7344 2340.0938,517.2813 2340.0938,516.8906 C2340.0938,516.4375 2339.7031,516.0469 2339.2344,516.0469 C2339.0156,516.0469 2338.8125,516.125 2338.625,516.3125 C2338.1719,516.7969 2338.1719,516.7969 2337.9844,516.8906 C2337.5625,517.1563 2336.875,517.2813 2336.1094,517.2813 C2334.0625,517.2813 2332.7656,516.1875 2332.7656,514.4844 L2332.7656,513.3906 C2332.7656,511.6094 2334.0156,510.2969 2335.75,510.2969 C2336.3281,510.2969 2336.9375,510.4531 2337.4063,510.7031 C2337.8906,510.9844 2338.0625,511.2031 2338.1563,511.6094 C2338.2188,512.0156 2338.25,512.1406 2338.3906,512.2656 C2338.5313,512.4063 2338.7656,512.5156 2338.9844,512.5156 C2339.25,512.5156 2339.5156,512.375 2339.6875,512.1563 C2339.7969,512 2339.8281,511.8125 2339.8281,511.3906 L2339.8281,509.9688 C2339.8281,509.5313 2339.8125,509.4063 2339.7188,509.25 C2339.5625,508.9844 2339.2813,508.8438 2338.9844,508.8438 C2338.6875,508.8438 2338.4844,508.9375 2338.2656,509.25 L2338.0938,509.1719 Z "
        fill="#000000"/>
      <text fill="#000000" font-family="sans-serif" font-size="14" lengthAdjust="spacing"
            textLength="86" x="2356.25" y="518.3467">Reservation
      </text>
      <line style="stroke:#181818;stroke-width:0.5;" x1="2262.5" x2="2503.5" y1="529.5" y2="529.5"/>
      <line style="stroke:#181818;stroke-width:0.5;" x1="2262.5" x2="2503.5" y1="537.5" y2="537.5"/>
      <ellipse cx="2272.5" cy="551.1484" fill="#84BE84" rx="3" ry="3"
               style="stroke:#038048;stroke-width:1.0;"/>
      <text fill="#000000" font-family="sans-serif" font-size="14" lengthAdjust="spacing"
            textLength="85" x="2281.5" y="554.4951">UUID getId()
      </text>
      <ellipse cx="2272.5" cy="567.4453" fill="#84BE84" rx="3" ry="3"
               style="stroke:#038048;stroke-width:1.0;"/>
      <text fill="#000000" font-family="sans-serif" font-size="14" lengthAdjust="spacing"
            textLength="217" x="2281.5" y="570.792">ReservationStatus getStatus()
      </text>
    </g><!--class ReservationDto-->
    <g id="elem_ReservationDto">
      <rect codeLine="22" fill="#F1F1F1" height="80.5938" id="ReservationDto" rx="2.5" ry="2.5"
            style="stroke:#181818;stroke-width:0.5;" width="155" x="2608.5" y="497.5"/>
      <ellipse cx="2628" cy="513.5" fill="#ADD1B2" rx="11" ry="11"
               style="stroke:#181818;stroke-width:1.0;"/>
      <path
        d="M2630.3438,509.1719 C2629.4063,508.7344 2628.8125,508.5938 2627.9375,508.5938 C2625.3125,508.5938 2623.3125,510.6719 2623.3125,513.3906 L2623.3125,514.5156 C2623.3125,517.0938 2625.4219,518.9844 2628.3125,518.9844 C2629.5313,518.9844 2630.6875,518.6875 2631.4375,518.1406 C2632.0156,517.7344 2632.3438,517.2813 2632.3438,516.8906 C2632.3438,516.4375 2631.9531,516.0469 2631.4844,516.0469 C2631.2656,516.0469 2631.0625,516.125 2630.875,516.3125 C2630.4219,516.7969 2630.4219,516.7969 2630.2344,516.8906 C2629.8125,517.1563 2629.125,517.2813 2628.3594,517.2813 C2626.3125,517.2813 2625.0156,516.1875 2625.0156,514.4844 L2625.0156,513.3906 C2625.0156,511.6094 2626.2656,510.2969 2628,510.2969 C2628.5781,510.2969 2629.1875,510.4531 2629.6563,510.7031 C2630.1406,510.9844 2630.3125,511.2031 2630.4063,511.6094 C2630.4688,512.0156 2630.5,512.1406 2630.6406,512.2656 C2630.7813,512.4063 2631.0156,512.5156 2631.2344,512.5156 C2631.5,512.5156 2631.7656,512.375 2631.9375,512.1563 C2632.0469,512 2632.0781,511.8125 2632.0781,511.3906 L2632.0781,509.9688 C2632.0781,509.5313 2632.0625,509.4063 2631.9688,509.25 C2631.8125,508.9844 2631.5313,508.8438 2631.2344,508.8438 C2630.9375,508.8438 2630.7344,508.9375 2630.5156,509.25 L2630.3438,509.1719 Z "
        fill="#000000"/>
      <text fill="#000000" font-family="sans-serif" font-size="14" lengthAdjust="spacing"
            textLength="113" x="2643" y="518.3467">ReservationDto
      </text>
      <line style="stroke:#181818;stroke-width:0.5;" x1="2609.5" x2="2762.5" y1="529.5" y2="529.5"/>
      <line style="stroke:#181818;stroke-width:0.5;" x1="2609.5" x2="2762.5" y1="537.5" y2="537.5"/>
      <ellipse cx="2619.5" cy="551.1484" fill="#84BE84" rx="3" ry="3"
               style="stroke:#038048;stroke-width:1.0;"/>
      <text fill="#000000" font-family="sans-serif" font-size="14" lengthAdjust="spacing"
            textLength="85" x="2628.5" y="554.4951">UUID getId()
      </text>
      <ellipse cx="2619.5" cy="567.4453" fill="#84BE84" rx="3" ry="3"
               style="stroke:#038048;stroke-width:1.0;"/>
      <text fill="#000000" font-family="sans-serif" font-size="14" lengthAdjust="spacing"
            textLength="129" x="2628.5" y="570.792">String getStatus()
      </text>
    </g><!--class ReservationId-->
    <g id="elem_ReservationId">
      <rect codeLine="26" fill="#F1F1F1" height="64.2969" id="ReservationId" rx="2.5" ry="2.5"
            style="stroke:#181818;stroke-width:0.5;" width="131" x="2798.5" y="506"/>
      <ellipse cx="2813.5" cy="522" fill="#ADD1B2" rx="11" ry="11"
               style="stroke:#181818;stroke-width:1.0;"/>
      <path
        d="M2815.8438,517.6719 C2814.9063,517.2344 2814.3125,517.0938 2813.4375,517.0938 C2810.8125,517.0938 2808.8125,519.1719 2808.8125,521.8906 L2808.8125,523.0156 C2808.8125,525.5938 2810.9219,527.4844 2813.8125,527.4844 C2815.0313,527.4844 2816.1875,527.1875 2816.9375,526.6406 C2817.5156,526.2344 2817.8438,525.7813 2817.8438,525.3906 C2817.8438,524.9375 2817.4531,524.5469 2816.9844,524.5469 C2816.7656,524.5469 2816.5625,524.625 2816.375,524.8125 C2815.9219,525.2969 2815.9219,525.2969 2815.7344,525.3906 C2815.3125,525.6563 2814.625,525.7813 2813.8594,525.7813 C2811.8125,525.7813 2810.5156,524.6875 2810.5156,522.9844 L2810.5156,521.8906 C2810.5156,520.1094 2811.7656,518.7969 2813.5,518.7969 C2814.0781,518.7969 2814.6875,518.9531 2815.1563,519.2031 C2815.6406,519.4844 2815.8125,519.7031 2815.9063,520.1094 C2815.9688,520.5156 2816,520.6406 2816.1406,520.7656 C2816.2813,520.9063 2816.5156,521.0156 2816.7344,521.0156 C2817,521.0156 2817.2656,520.875 2817.4375,520.6563 C2817.5469,520.5 2817.5781,520.3125 2817.5781,519.8906 L2817.5781,518.4688 C2817.5781,518.0313 2817.5625,517.9063 2817.4688,517.75 C2817.3125,517.4844 2817.0313,517.3438 2816.7344,517.3438 C2816.4375,517.3438 2816.2344,517.4375 2816.0156,517.75 L2815.8438,517.6719 Z "
        fill="#000000"/>
      <text fill="#000000" font-family="sans-serif" font-size="14" lengthAdjust="spacing"
            textLength="99" x="2827.5" y="526.8467">ReservationId
      </text>
      <line style="stroke:#181818;stroke-width:0.5;" x1="2799.5" x2="2928.5" y1="538" y2="538"/>
      <line style="stroke:#181818;stroke-width:0.5;" x1="2799.5" x2="2928.5" y1="546" y2="546"/>
      <ellipse cx="2809.5" cy="559.6484" fill="#84BE84" rx="3" ry="3"
               style="stroke:#038048;stroke-width:1.0;"/>
      <text fill="#000000" font-family="sans-serif" font-size="14" lengthAdjust="spacing"
            textLength="85" x="2818.5" y="562.9951">UUID getId()
      </text>
    </g><!--class ReservationMapper-->
    <g id="elem_ReservationMapper">
      <rect codeLine="29" fill="#F1F1F1" height="80.5938" id="ReservationMapper" rx="2.5" ry="2.5"
            style="stroke:#181818;stroke-width:0.5;" width="331" x="2598.5" y="764"/>
      <ellipse cx="2690.25" cy="780" fill="#B4A7E5" rx="11" ry="11"
               style="stroke:#181818;stroke-width:1.0;"/>
      <path
        d="M2691.2031,776.7813 L2692.9219,776.7813 C2693.3125,776.7813 2693.5,776.75 2693.625,776.6719 C2693.8906,776.5156 2694.0313,776.2344 2694.0313,775.9375 C2694.0313,775.6719 2693.9219,775.4063 2693.6875,775.2344 C2693.5156,775.125 2693.375,775.0938 2692.9219,775.0938 L2687.7813,775.0938 C2687.3438,775.0938 2687.2188,775.1094 2687.0625,775.2031 C2686.8125,775.3594 2686.6563,775.6563 2686.6563,775.9375 C2686.6563,776.2188 2686.7969,776.4688 2687.0156,776.6406 C2687.1719,776.75 2687.3594,776.7813 2687.7813,776.7813 L2689.5,776.7813 L2689.5,783.2969 L2687.7813,783.2969 C2687.3438,783.2969 2687.2188,783.3125 2687.0625,783.4219 C2686.8125,783.5781 2686.6563,783.8594 2686.6563,784.1563 C2686.6563,784.4063 2686.7969,784.6719 2687.0156,784.8281 C2687.1719,784.9531 2687.375,785 2687.7813,785 L2692.9219,785 C2693.6719,785 2694.0313,784.7188 2694.0313,784.1563 C2694.0313,783.875 2693.9219,783.625 2693.6875,783.4531 C2693.5156,783.3281 2693.375,783.2969 2692.9219,783.2969 L2691.2031,783.2969 L2691.2031,776.7813 Z "
        fill="#000000"/>
      <text fill="#000000" font-family="sans-serif" font-size="14" font-style="italic"
            lengthAdjust="spacing" textLength="139" x="2710.75" y="784.8467">ReservationMapper
      </text>
      <line style="stroke:#181818;stroke-width:0.5;" x1="2599.5" x2="2928.5" y1="796" y2="796"/>
      <line style="stroke:#181818;stroke-width:0.5;" x1="2599.5" x2="2928.5" y1="804" y2="804"/>
      <ellipse cx="2609.5" cy="817.6484" fill="#84BE84" rx="3" ry="3"
               style="stroke:#038048;stroke-width:1.0;"/>
      <text fill="#000000" font-family="sans-serif" font-size="14" font-style="italic"
            lengthAdjust="spacing" textLength="305" x="2618.5" y="820.9951">ReservationDto
        toAddressDto(Reservation)
      </text>
      <ellipse cx="2609.5" cy="833.9453" fill="#84BE84" rx="3" ry="3"
               style="stroke:#038048;stroke-width:1.0;"/>
      <text fill="#000000" font-family="sans-serif" font-size="14" font-style="italic"
            lengthAdjust="spacing" textLength="280" x="2618.5" y="837.292">Reservation
        toAddress(ReservationDto)
      </text>
    </g><!--class ReservationStatus-->
    <g id="elem_ReservationStatus">
      <rect codeLine="33" fill="#F1F1F1" height="113.1875" id="ReservationStatus" rx="2.5" ry="2.5"
            style="stroke:#181818;stroke-width:0.5;" width="361" x="2202.5" y="748"/>
      <ellipse cx="2312.75" cy="764" fill="#EB937F" rx="11" ry="11"
               style="stroke:#181818;stroke-width:1.0;"/>
      <path
        d="M2311.5469,764.875 L2313,764.875 L2313,764.9844 C2313,765.3906 2313.0313,765.5469 2313.1094,765.7031 C2313.2656,765.9531 2313.5469,766.1094 2313.8438,766.1094 C2314.0938,766.1094 2314.3594,765.9688 2314.5156,765.75 C2314.6406,765.5938 2314.6719,765.4375 2314.6719,764.9844 L2314.6719,763.0625 C2314.6719,762.9063 2314.6719,762.8594 2314.6563,762.7031 C2314.5938,762.2344 2314.2813,761.9219 2313.8281,761.9219 C2313.5781,761.9219 2313.3125,762.0625 2313.1406,762.2813 C2313.0313,762.4531 2313,762.6094 2313,763.0625 L2313,763.1875 L2311.5469,763.1875 L2311.5469,760.7813 L2315.5313,760.7813 L2315.5313,761.6406 C2315.5313,762.0469 2315.5625,762.2188 2315.6406,762.375 C2315.8125,762.625 2316.0938,762.7813 2316.375,762.7813 C2316.6406,762.7813 2316.9063,762.6406 2317.0781,762.4219 C2317.1875,762.25 2317.2188,762.1094 2317.2188,761.6406 L2317.2188,759.0938 L2309.5938,759.0938 C2309.1563,759.0938 2309.0313,759.1094 2308.875,759.2031 C2308.625,759.3594 2308.4688,759.6563 2308.4688,759.9375 C2308.4688,760.2188 2308.6094,760.4688 2308.8281,760.6406 C2308.9844,760.75 2309.1719,760.7813 2309.5938,760.7813 L2309.8438,760.7813 L2309.8438,767.2969 L2309.5938,767.2969 C2309.1875,767.2969 2309.0313,767.3125 2308.875,767.4219 C2308.625,767.5938 2308.4688,767.8594 2308.4688,768.1563 C2308.4688,768.4219 2308.6094,768.6719 2308.8281,768.8281 C2308.9688,768.9531 2309.2031,769 2309.5938,769 L2317.5938,769 L2317.5938,766.4219 C2317.5938,765.9844 2317.5625,765.8438 2317.4844,765.6875 C2317.3125,765.4375 2317.0313,765.2813 2316.75,765.2813 C2316.4844,765.2813 2316.2188,765.3906 2316.0469,765.6406 C2315.9375,765.7969 2315.9063,765.9375 2315.9063,766.4219 L2315.9063,767.2969 L2311.5469,767.2969 L2311.5469,764.875 Z "
        fill="#000000"/>
      <text fill="#000000" font-family="sans-serif" font-size="14" lengthAdjust="spacing"
            textLength="132" x="2333.25" y="768.8467">ReservationStatus
      </text>
      <line style="stroke:#181818;stroke-width:0.5;" x1="2203.5" x2="2562.5" y1="780" y2="780"/>
      <text fill="#000000" font-family="sans-serif" font-size="14" lengthAdjust="spacing"
            textLength="53" x="2208.5" y="796.9951">SUBMIT
      </text>
      <text fill="#000000" font-family="sans-serif" font-size="14" lengthAdjust="spacing"
            textLength="65" x="2208.5" y="813.292">CONFIRM
      </text>
      <text fill="#000000" font-family="sans-serif" font-size="14" lengthAdjust="spacing"
            textLength="46" x="2208.5" y="829.5889">RESET
      </text>
      <line style="stroke:#181818;stroke-width:0.5;" x1="2203.5" x2="2562.5" y1="836.8906"
            y2="836.8906"/>
      <ellipse cx="2213.5" cy="850.5391" fill="#84BE84" rx="3" ry="3"
               style="stroke:#038048;stroke-width:1.0;"/>
      <text fill="#000000" font-family="sans-serif" font-size="14" lengthAdjust="spacing"
            text-decoration="underline" textLength="335" x="2222.5" y="853.8857">EnumEntries&lt;ReservationStatus&gt;
        getEntries()
      </text>
    </g><!--class Trip-->
    <g id="elem_Trip">
      <rect codeLine="40" fill="#F1F1F1" height="162.0781" id="Trip" rx="2.5" ry="2.5"
            style="stroke:#181818;stroke-width:0.5;" width="226" x="94" y="457"/>
      <ellipse cx="188.25" cy="473" fill="#ADD1B2" rx="11" ry="11"
               style="stroke:#181818;stroke-width:1.0;"/>
      <path
        d="M190.5938,468.6719 C189.6563,468.2344 189.0625,468.0938 188.1875,468.0938 C185.5625,468.0938 183.5625,470.1719 183.5625,472.8906 L183.5625,474.0156 C183.5625,476.5938 185.6719,478.4844 188.5625,478.4844 C189.7813,478.4844 190.9375,478.1875 191.6875,477.6406 C192.2656,477.2344 192.5938,476.7813 192.5938,476.3906 C192.5938,475.9375 192.2031,475.5469 191.7344,475.5469 C191.5156,475.5469 191.3125,475.625 191.125,475.8125 C190.6719,476.2969 190.6719,476.2969 190.4844,476.3906 C190.0625,476.6563 189.375,476.7813 188.6094,476.7813 C186.5625,476.7813 185.2656,475.6875 185.2656,473.9844 L185.2656,472.8906 C185.2656,471.1094 186.5156,469.7969 188.25,469.7969 C188.8281,469.7969 189.4375,469.9531 189.9063,470.2031 C190.3906,470.4844 190.5625,470.7031 190.6563,471.1094 C190.7188,471.5156 190.75,471.6406 190.8906,471.7656 C191.0313,471.9063 191.2656,472.0156 191.4844,472.0156 C191.75,472.0156 192.0156,471.875 192.1875,471.6563 C192.2969,471.5 192.3281,471.3125 192.3281,470.8906 L192.3281,469.4688 C192.3281,469.0313 192.3125,468.9063 192.2188,468.75 C192.0625,468.4844 191.7813,468.3438 191.4844,468.3438 C191.1875,468.3438 190.9844,468.4375 190.7656,468.75 L190.5938,468.6719 Z "
        fill="#000000"/>
      <text fill="#000000" font-family="sans-serif" font-size="14" lengthAdjust="spacing"
            textLength="29" x="208.75" y="477.8467">Trip
      </text>
      <line style="stroke:#181818;stroke-width:0.5;" x1="95" x2="319" y1="489" y2="489"/>
      <line style="stroke:#181818;stroke-width:0.5;" x1="95" x2="319" y1="497" y2="497"/>
      <ellipse cx="105" cy="510.6484" fill="#84BE84" rx="3" ry="3"
               style="stroke:#038048;stroke-width:1.0;"/>
      <text fill="#000000" font-family="sans-serif" font-size="14" lengthAdjust="spacing"
            textLength="94" x="114" y="513.9951">TripId getId()
      </text>
      <ellipse cx="105" cy="526.9453" fill="#84BE84" rx="3" ry="3"
               style="stroke:#038048;stroke-width:1.0;"/>
      <text fill="#000000" font-family="sans-serif" font-size="14" lengthAdjust="spacing"
            textLength="135" x="114" y="530.292">Station getOrigin()
      </text>
      <ellipse cx="105" cy="543.2422" fill="#84BE84" rx="3" ry="3"
               style="stroke:#038048;stroke-width:1.0;"/>
      <text fill="#000000" font-family="sans-serif" font-size="14" lengthAdjust="spacing"
            textLength="176" x="114" y="546.5889">Station getDestination()
      </text>
      <ellipse cx="105" cy="559.5391" fill="#84BE84" rx="3" ry="3"
               style="stroke:#038048;stroke-width:1.0;"/>
      <text fill="#000000" font-family="sans-serif" font-size="14" lengthAdjust="spacing"
            textLength="200" x="114" y="562.8857">List&lt;Station&gt; getStations()
      </text>
      <ellipse cx="105" cy="575.8359" fill="#84BE84" rx="3" ry="3"
               style="stroke:#038048;stroke-width:1.0;"/>
      <text fill="#000000" font-family="sans-serif" font-size="14" lengthAdjust="spacing"
            textLength="111" x="114" y="579.1826">Train getTrain()
      </text>
      <ellipse cx="105" cy="592.1328" fill="#84BE84" rx="3" ry="3"
               style="stroke:#038048;stroke-width:1.0;"/>
      <text fill="#000000" font-family="sans-serif" font-size="14" lengthAdjust="spacing"
            textLength="105" x="114" y="595.4795">Seat getSeat()
      </text>
      <ellipse cx="105" cy="608.4297" fill="#84BE84" rx="3" ry="3"
               style="stroke:#038048;stroke-width:1.0;"/>
      <text fill="#000000" font-family="sans-serif" font-size="14" lengthAdjust="spacing"
            textLength="137" x="114" y="611.7764">Wagon getWagon()
      </text>
    </g><!--class TripId-->
    <g id="elem_TripId">
      <rect codeLine="49" fill="#F1F1F1" height="64.2969" id="TripId" rx="2.5" ry="2.5"
            style="stroke:#181818;stroke-width:0.5;" width="111" x="151.5" y="772.5"/>
      <ellipse cx="183.15" cy="788.5" fill="#ADD1B2" rx="11" ry="11"
               style="stroke:#181818;stroke-width:1.0;"/>
      <path
        d="M185.4938,784.1719 C184.5563,783.7344 183.9625,783.5938 183.0875,783.5938 C180.4625,783.5938 178.4625,785.6719 178.4625,788.3906 L178.4625,789.5156 C178.4625,792.0938 180.5719,793.9844 183.4625,793.9844 C184.6813,793.9844 185.8375,793.6875 186.5875,793.1406 C187.1656,792.7344 187.4938,792.2813 187.4938,791.8906 C187.4938,791.4375 187.1031,791.0469 186.6344,791.0469 C186.4156,791.0469 186.2125,791.125 186.025,791.3125 C185.5719,791.7969 185.5719,791.7969 185.3844,791.8906 C184.9625,792.1563 184.275,792.2813 183.5094,792.2813 C181.4625,792.2813 180.1656,791.1875 180.1656,789.4844 L180.1656,788.3906 C180.1656,786.6094 181.4156,785.2969 183.15,785.2969 C183.7281,785.2969 184.3375,785.4531 184.8063,785.7031 C185.2906,785.9844 185.4625,786.2031 185.5563,786.6094 C185.6188,787.0156 185.65,787.1406 185.7906,787.2656 C185.9313,787.4063 186.1656,787.5156 186.3844,787.5156 C186.65,787.5156 186.9156,787.375 187.0875,787.1563 C187.1969,787 187.2281,786.8125 187.2281,786.3906 L187.2281,784.9688 C187.2281,784.5313 187.2125,784.4063 187.1188,784.25 C186.9625,783.9844 186.6813,783.8438 186.3844,783.8438 C186.0875,783.8438 185.8844,783.9375 185.6656,784.25 L185.4938,784.1719 Z "
        fill="#000000"/>
      <text fill="#000000" font-family="sans-serif" font-size="14" lengthAdjust="spacing"
            textLength="42" x="200.85" y="793.3467">TripId
      </text>
      <line style="stroke:#181818;stroke-width:0.5;" x1="152.5" x2="261.5" y1="804.5" y2="804.5"/>
      <line style="stroke:#181818;stroke-width:0.5;" x1="152.5" x2="261.5" y1="812.5" y2="812.5"/>
      <ellipse cx="162.5" cy="826.1484" fill="#84BE84" rx="3" ry="3"
               style="stroke:#038048;stroke-width:1.0;"/>
      <text fill="#000000" font-family="sans-serif" font-size="14" lengthAdjust="spacing"
            textLength="85" x="171.5" y="829.4951">UUID getId()
      </text>
    </g><!--class Station-->
    <g id="elem_Station">
      <rect codeLine="52" fill="#F1F1F1" height="80.5938" id="Station" rx="2.5" ry="2.5"
            style="stroke:#181818;stroke-width:0.5;" width="150" x="376" y="764"/>
      <ellipse cx="420.25" cy="780" fill="#ADD1B2" rx="11" ry="11"
               style="stroke:#181818;stroke-width:1.0;"/>
      <path
        d="M422.5938,775.6719 C421.6563,775.2344 421.0625,775.0938 420.1875,775.0938 C417.5625,775.0938 415.5625,777.1719 415.5625,779.8906 L415.5625,781.0156 C415.5625,783.5938 417.6719,785.4844 420.5625,785.4844 C421.7813,785.4844 422.9375,785.1875 423.6875,784.6406 C424.2656,784.2344 424.5938,783.7813 424.5938,783.3906 C424.5938,782.9375 424.2031,782.5469 423.7344,782.5469 C423.5156,782.5469 423.3125,782.625 423.125,782.8125 C422.6719,783.2969 422.6719,783.2969 422.4844,783.3906 C422.0625,783.6563 421.375,783.7813 420.6094,783.7813 C418.5625,783.7813 417.2656,782.6875 417.2656,780.9844 L417.2656,779.8906 C417.2656,778.1094 418.5156,776.7969 420.25,776.7969 C420.8281,776.7969 421.4375,776.9531 421.9063,777.2031 C422.3906,777.4844 422.5625,777.7031 422.6563,778.1094 C422.7188,778.5156 422.75,778.6406 422.8906,778.7656 C423.0313,778.9063 423.2656,779.0156 423.4844,779.0156 C423.75,779.0156 424.0156,778.875 424.1875,778.6563 C424.2969,778.5 424.3281,778.3125 424.3281,777.8906 L424.3281,776.4688 C424.3281,776.0313 424.3125,775.9063 424.2188,775.75 C424.0625,775.4844 423.7813,775.3438 423.4844,775.3438 C423.1875,775.3438 422.9844,775.4375 422.7656,775.75 L422.5938,775.6719 Z "
        fill="#000000"/>
      <text fill="#000000" font-family="sans-serif" font-size="14" lengthAdjust="spacing"
            textLength="53" x="440.75" y="784.8467">Station
      </text>
      <line style="stroke:#181818;stroke-width:0.5;" x1="377" x2="525" y1="796" y2="796"/>
      <line style="stroke:#181818;stroke-width:0.5;" x1="377" x2="525" y1="804" y2="804"/>
      <ellipse cx="387" cy="817.6484" fill="#84BE84" rx="3" ry="3"
               style="stroke:#038048;stroke-width:1.0;"/>
      <text fill="#000000" font-family="sans-serif" font-size="14" lengthAdjust="spacing"
            textLength="118" x="396" y="820.9951">StationId getId()
      </text>
      <ellipse cx="387" cy="833.9453" fill="#84BE84" rx="3" ry="3"
               style="stroke:#038048;stroke-width:1.0;"/>
      <text fill="#000000" font-family="sans-serif" font-size="14" lengthAdjust="spacing"
            textLength="124" x="396" y="837.292">String getName()
      </text>
    </g><!--class StationId-->
    <g id="elem_StationId">
      <rect codeLine="56" fill="#F1F1F1" height="64.2969" id="StationId" rx="2.5" ry="2.5"
            style="stroke:#181818;stroke-width:0.5;" width="111" x="395.5" y="933"/>
      <ellipse cx="416.35" cy="949" fill="#ADD1B2" rx="11" ry="11"
               style="stroke:#181818;stroke-width:1.0;"/>
      <path
        d="M418.6938,944.6719 C417.7563,944.2344 417.1625,944.0938 416.2875,944.0938 C413.6625,944.0938 411.6625,946.1719 411.6625,948.8906 L411.6625,950.0156 C411.6625,952.5938 413.7719,954.4844 416.6625,954.4844 C417.8813,954.4844 419.0375,954.1875 419.7875,953.6406 C420.3656,953.2344 420.6938,952.7813 420.6938,952.3906 C420.6938,951.9375 420.3031,951.5469 419.8344,951.5469 C419.6156,951.5469 419.4125,951.625 419.225,951.8125 C418.7719,952.2969 418.7719,952.2969 418.5844,952.3906 C418.1625,952.6563 417.475,952.7813 416.7094,952.7813 C414.6625,952.7813 413.3656,951.6875 413.3656,949.9844 L413.3656,948.8906 C413.3656,947.1094 414.6156,945.7969 416.35,945.7969 C416.9281,945.7969 417.5375,945.9531 418.0063,946.2031 C418.4906,946.4844 418.6625,946.7031 418.7563,947.1094 C418.8188,947.5156 418.85,947.6406 418.9906,947.7656 C419.1313,947.9063 419.3656,948.0156 419.5844,948.0156 C419.85,948.0156 420.1156,947.875 420.2875,947.6563 C420.3969,947.5 420.4281,947.3125 420.4281,946.8906 L420.4281,945.4688 C420.4281,945.0313 420.4125,944.9063 420.3188,944.75 C420.1625,944.4844 419.8813,944.3438 419.5844,944.3438 C419.2875,944.3438 419.0844,944.4375 418.8656,944.75 L418.6938,944.6719 Z "
        fill="#000000"/>
      <text fill="#000000" font-family="sans-serif" font-size="14" lengthAdjust="spacing"
            textLength="66" x="431.65" y="953.8467">StationId
      </text>
      <line style="stroke:#181818;stroke-width:0.5;" x1="396.5" x2="505.5" y1="965" y2="965"/>
      <line style="stroke:#181818;stroke-width:0.5;" x1="396.5" x2="505.5" y1="973" y2="973"/>
      <ellipse cx="406.5" cy="986.6484" fill="#84BE84" rx="3" ry="3"
               style="stroke:#038048;stroke-width:1.0;"/>
      <text fill="#000000" font-family="sans-serif" font-size="14" lengthAdjust="spacing"
            textLength="85" x="415.5" y="989.9951">UUID getId()
      </text>
    </g><!--class Train-->
    <g id="elem_Train">
      <rect codeLine="59" fill="#F1F1F1" height="80.5938" id="Train" rx="2.5" ry="2.5"
            style="stroke:#181818;stroke-width:0.5;" width="150" x="1652" y="764"/>
      <ellipse cx="1704.75" cy="780" fill="#ADD1B2" rx="11" ry="11"
               style="stroke:#181818;stroke-width:1.0;"/>
      <path
        d="M1707.0938,775.6719 C1706.1563,775.2344 1705.5625,775.0938 1704.6875,775.0938 C1702.0625,775.0938 1700.0625,777.1719 1700.0625,779.8906 L1700.0625,781.0156 C1700.0625,783.5938 1702.1719,785.4844 1705.0625,785.4844 C1706.2813,785.4844 1707.4375,785.1875 1708.1875,784.6406 C1708.7656,784.2344 1709.0938,783.7813 1709.0938,783.3906 C1709.0938,782.9375 1708.7031,782.5469 1708.2344,782.5469 C1708.0156,782.5469 1707.8125,782.625 1707.625,782.8125 C1707.1719,783.2969 1707.1719,783.2969 1706.9844,783.3906 C1706.5625,783.6563 1705.875,783.7813 1705.1094,783.7813 C1703.0625,783.7813 1701.7656,782.6875 1701.7656,780.9844 L1701.7656,779.8906 C1701.7656,778.1094 1703.0156,776.7969 1704.75,776.7969 C1705.3281,776.7969 1705.9375,776.9531 1706.4063,777.2031 C1706.8906,777.4844 1707.0625,777.7031 1707.1563,778.1094 C1707.2188,778.5156 1707.25,778.6406 1707.3906,778.7656 C1707.5313,778.9063 1707.7656,779.0156 1707.9844,779.0156 C1708.25,779.0156 1708.5156,778.875 1708.6875,778.6563 C1708.7969,778.5 1708.8281,778.3125 1708.8281,777.8906 L1708.8281,776.4688 C1708.8281,776.0313 1708.8125,775.9063 1708.7188,775.75 C1708.5625,775.4844 1708.2813,775.3438 1707.9844,775.3438 C1707.6875,775.3438 1707.4844,775.4375 1707.2656,775.75 L1707.0938,775.6719 Z "
        fill="#000000"/>
      <text fill="#000000" font-family="sans-serif" font-size="14" lengthAdjust="spacing"
            textLength="36" x="1725.25" y="784.8467">Train
      </text>
      <line style="stroke:#181818;stroke-width:0.5;" x1="1653" x2="1801" y1="796" y2="796"/>
      <line style="stroke:#181818;stroke-width:0.5;" x1="1653" x2="1801" y1="804" y2="804"/>
      <ellipse cx="1663" cy="817.6484" fill="#84BE84" rx="3" ry="3"
               style="stroke:#038048;stroke-width:1.0;"/>
      <text fill="#000000" font-family="sans-serif" font-size="14" lengthAdjust="spacing"
            textLength="88" x="1672" y="820.9951">Train getId()
      </text>
      <ellipse cx="1663" cy="833.9453" fill="#84BE84" rx="3" ry="3"
               style="stroke:#038048;stroke-width:1.0;"/>
      <text fill="#000000" font-family="sans-serif" font-size="14" lengthAdjust="spacing"
            textLength="124" x="1672" y="837.292">String getName()
      </text>
    </g><!--class TrainId-->
    <g id="elem_TrainId">
      <rect codeLine="63" fill="#F1F1F1" height="64.2969" id="TrainId" rx="2.5" ry="2.5"
            style="stroke:#181818;stroke-width:0.5;" width="111" x="1505.5" y="772.5"/>
      <ellipse cx="1534" cy="788.5" fill="#ADD1B2" rx="11" ry="11"
               style="stroke:#181818;stroke-width:1.0;"/>
      <path
        d="M1536.3438,784.1719 C1535.4063,783.7344 1534.8125,783.5938 1533.9375,783.5938 C1531.3125,783.5938 1529.3125,785.6719 1529.3125,788.3906 L1529.3125,789.5156 C1529.3125,792.0938 1531.4219,793.9844 1534.3125,793.9844 C1535.5313,793.9844 1536.6875,793.6875 1537.4375,793.1406 C1538.0156,792.7344 1538.3438,792.2813 1538.3438,791.8906 C1538.3438,791.4375 1537.9531,791.0469 1537.4844,791.0469 C1537.2656,791.0469 1537.0625,791.125 1536.875,791.3125 C1536.4219,791.7969 1536.4219,791.7969 1536.2344,791.8906 C1535.8125,792.1563 1535.125,792.2813 1534.3594,792.2813 C1532.3125,792.2813 1531.0156,791.1875 1531.0156,789.4844 L1531.0156,788.3906 C1531.0156,786.6094 1532.2656,785.2969 1534,785.2969 C1534.5781,785.2969 1535.1875,785.4531 1535.6563,785.7031 C1536.1406,785.9844 1536.3125,786.2031 1536.4063,786.6094 C1536.4688,787.0156 1536.5,787.1406 1536.6406,787.2656 C1536.7813,787.4063 1537.0156,787.5156 1537.2344,787.5156 C1537.5,787.5156 1537.7656,787.375 1537.9375,787.1563 C1538.0469,787 1538.0781,786.8125 1538.0781,786.3906 L1538.0781,784.9688 C1538.0781,784.5313 1538.0625,784.4063 1537.9688,784.25 C1537.8125,783.9844 1537.5313,783.8438 1537.2344,783.8438 C1536.9375,783.8438 1536.7344,783.9375 1536.5156,784.25 L1536.3438,784.1719 Z "
        fill="#000000"/>
      <text fill="#000000" font-family="sans-serif" font-size="14" lengthAdjust="spacing"
            textLength="49" x="1551" y="793.3467">TrainId
      </text>
      <line style="stroke:#181818;stroke-width:0.5;" x1="1506.5" x2="1615.5" y1="804.5" y2="804.5"/>
      <line style="stroke:#181818;stroke-width:0.5;" x1="1506.5" x2="1615.5" y1="812.5" y2="812.5"/>
      <ellipse cx="1516.5" cy="826.1484" fill="#84BE84" rx="3" ry="3"
               style="stroke:#038048;stroke-width:1.0;"/>
      <text fill="#000000" font-family="sans-serif" font-size="14" lengthAdjust="spacing"
            textLength="85" x="1525.5" y="829.4951">UUID getId()
      </text>
    </g><!--class Wagon-->
    <g id="elem_Wagon">
      <rect codeLine="66" fill="#F1F1F1" height="96.8906" id="Wagon" rx="2.5" ry="2.5"
            style="stroke:#181818;stroke-width:0.5;" width="166" x="1241" y="756"/>
      <ellipse cx="1295.25" cy="772" fill="#ADD1B2" rx="11" ry="11"
               style="stroke:#181818;stroke-width:1.0;"/>
      <path
        d="M1297.5938,767.6719 C1296.6563,767.2344 1296.0625,767.0938 1295.1875,767.0938 C1292.5625,767.0938 1290.5625,769.1719 1290.5625,771.8906 L1290.5625,773.0156 C1290.5625,775.5938 1292.6719,777.4844 1295.5625,777.4844 C1296.7813,777.4844 1297.9375,777.1875 1298.6875,776.6406 C1299.2656,776.2344 1299.5938,775.7813 1299.5938,775.3906 C1299.5938,774.9375 1299.2031,774.5469 1298.7344,774.5469 C1298.5156,774.5469 1298.3125,774.625 1298.125,774.8125 C1297.6719,775.2969 1297.6719,775.2969 1297.4844,775.3906 C1297.0625,775.6563 1296.375,775.7813 1295.6094,775.7813 C1293.5625,775.7813 1292.2656,774.6875 1292.2656,772.9844 L1292.2656,771.8906 C1292.2656,770.1094 1293.5156,768.7969 1295.25,768.7969 C1295.8281,768.7969 1296.4375,768.9531 1296.9063,769.2031 C1297.3906,769.4844 1297.5625,769.7031 1297.6563,770.1094 C1297.7188,770.5156 1297.75,770.6406 1297.8906,770.7656 C1298.0313,770.9063 1298.2656,771.0156 1298.4844,771.0156 C1298.75,771.0156 1299.0156,770.875 1299.1875,770.6563 C1299.2969,770.5 1299.3281,770.3125 1299.3281,769.8906 L1299.3281,768.4688 C1299.3281,768.0313 1299.3125,767.9063 1299.2188,767.75 C1299.0625,767.4844 1298.7813,767.3438 1298.4844,767.3438 C1298.1875,767.3438 1297.9844,767.4375 1297.7656,767.75 L1297.5938,767.6719 Z "
        fill="#000000"/>
      <text fill="#000000" font-family="sans-serif" font-size="14" lengthAdjust="spacing"
            textLength="49" x="1315.75" y="776.8467">Wagon
      </text>
      <line style="stroke:#181818;stroke-width:0.5;" x1="1242" x2="1406" y1="788" y2="788"/>
      <line style="stroke:#181818;stroke-width:0.5;" x1="1242" x2="1406" y1="796" y2="796"/>
      <ellipse cx="1252" cy="809.6484" fill="#84BE84" rx="3" ry="3"
               style="stroke:#038048;stroke-width:1.0;"/>
      <text fill="#000000" font-family="sans-serif" font-size="14" lengthAdjust="spacing"
            textLength="101" x="1261" y="812.9951">Wagon getId()
      </text>
      <ellipse cx="1252" cy="825.9453" fill="#84BE84" rx="3" ry="3"
               style="stroke:#038048;stroke-width:1.0;"/>
      <text fill="#000000" font-family="sans-serif" font-size="14" lengthAdjust="spacing"
            textLength="124" x="1261" y="829.292">String getName()
      </text>
      <ellipse cx="1252" cy="842.2422" fill="#84BE84" rx="3" ry="3"
               style="stroke:#038048;stroke-width:1.0;"/>
      <text fill="#000000" font-family="sans-serif" font-size="14" lengthAdjust="spacing"
            textLength="140" x="1261" y="845.5889">String getNumber()
      </text>
    </g><!--class WagonId-->
    <g id="elem_WagonId">
      <rect codeLine="71" fill="#F1F1F1" height="64.2969" id="WagonId" rx="2.5" ry="2.5"
            style="stroke:#181818;stroke-width:0.5;" width="111" x="1094.5" y="772.5"/>
      <ellipse cx="1117.15" cy="788.5" fill="#ADD1B2" rx="11" ry="11"
               style="stroke:#181818;stroke-width:1.0;"/>
      <path
        d="M1119.4938,784.1719 C1118.5563,783.7344 1117.9625,783.5938 1117.0875,783.5938 C1114.4625,783.5938 1112.4625,785.6719 1112.4625,788.3906 L1112.4625,789.5156 C1112.4625,792.0938 1114.5719,793.9844 1117.4625,793.9844 C1118.6813,793.9844 1119.8375,793.6875 1120.5875,793.1406 C1121.1656,792.7344 1121.4938,792.2813 1121.4938,791.8906 C1121.4938,791.4375 1121.1031,791.0469 1120.6344,791.0469 C1120.4156,791.0469 1120.2125,791.125 1120.025,791.3125 C1119.5719,791.7969 1119.5719,791.7969 1119.3844,791.8906 C1118.9625,792.1563 1118.275,792.2813 1117.5094,792.2813 C1115.4625,792.2813 1114.1656,791.1875 1114.1656,789.4844 L1114.1656,788.3906 C1114.1656,786.6094 1115.4156,785.2969 1117.15,785.2969 C1117.7281,785.2969 1118.3375,785.4531 1118.8063,785.7031 C1119.2906,785.9844 1119.4625,786.2031 1119.5563,786.6094 C1119.6188,787.0156 1119.65,787.1406 1119.7906,787.2656 C1119.9313,787.4063 1120.1656,787.5156 1120.3844,787.5156 C1120.65,787.5156 1120.9156,787.375 1121.0875,787.1563 C1121.1969,787 1121.2281,786.8125 1121.2281,786.3906 L1121.2281,784.9688 C1121.2281,784.5313 1121.2125,784.4063 1121.1188,784.25 C1120.9625,783.9844 1120.6813,783.8438 1120.3844,783.8438 C1120.0875,783.8438 1119.8844,783.9375 1119.6656,784.25 L1119.4938,784.1719 Z "
        fill="#000000"/>
      <text fill="#000000" font-family="sans-serif" font-size="14" lengthAdjust="spacing"
            textLength="62" x="1132.85" y="793.3467">WagonId
      </text>
      <line style="stroke:#181818;stroke-width:0.5;" x1="1095.5" x2="1204.5" y1="804.5" y2="804.5"/>
      <line style="stroke:#181818;stroke-width:0.5;" x1="1095.5" x2="1204.5" y1="812.5" y2="812.5"/>
      <ellipse cx="1105.5" cy="826.1484" fill="#84BE84" rx="3" ry="3"
               style="stroke:#038048;stroke-width:1.0;"/>
      <text fill="#000000" font-family="sans-serif" font-size="14" lengthAdjust="spacing"
            textLength="85" x="1114.5" y="829.4951">UUID getId()
      </text>
    </g><!--class Seat-->
    <g id="elem_Seat">
      <rect codeLine="74" fill="#F1F1F1" height="80.5938" id="Seat" rx="2.5" ry="2.5"
            style="stroke:#181818;stroke-width:0.5;" width="150" x="870" y="764"/>
      <ellipse cx="924.25" cy="780" fill="#ADD1B2" rx="11" ry="11"
               style="stroke:#181818;stroke-width:1.0;"/>
      <path
        d="M926.5938,775.6719 C925.6563,775.2344 925.0625,775.0938 924.1875,775.0938 C921.5625,775.0938 919.5625,777.1719 919.5625,779.8906 L919.5625,781.0156 C919.5625,783.5938 921.6719,785.4844 924.5625,785.4844 C925.7813,785.4844 926.9375,785.1875 927.6875,784.6406 C928.2656,784.2344 928.5938,783.7813 928.5938,783.3906 C928.5938,782.9375 928.2031,782.5469 927.7344,782.5469 C927.5156,782.5469 927.3125,782.625 927.125,782.8125 C926.6719,783.2969 926.6719,783.2969 926.4844,783.3906 C926.0625,783.6563 925.375,783.7813 924.6094,783.7813 C922.5625,783.7813 921.2656,782.6875 921.2656,780.9844 L921.2656,779.8906 C921.2656,778.1094 922.5156,776.7969 924.25,776.7969 C924.8281,776.7969 925.4375,776.9531 925.9063,777.2031 C926.3906,777.4844 926.5625,777.7031 926.6563,778.1094 C926.7188,778.5156 926.75,778.6406 926.8906,778.7656 C927.0313,778.9063 927.2656,779.0156 927.4844,779.0156 C927.75,779.0156 928.0156,778.875 928.1875,778.6563 C928.2969,778.5 928.3281,778.3125 928.3281,777.8906 L928.3281,776.4688 C928.3281,776.0313 928.3125,775.9063 928.2188,775.75 C928.0625,775.4844 927.7813,775.3438 927.4844,775.3438 C927.1875,775.3438 926.9844,775.4375 926.7656,775.75 L926.5938,775.6719 Z "
        fill="#000000"/>
      <text fill="#000000" font-family="sans-serif" font-size="14" lengthAdjust="spacing"
            textLength="33" x="944.75" y="784.8467">Seat
      </text>
      <line style="stroke:#181818;stroke-width:0.5;" x1="871" x2="1019" y1="796" y2="796"/>
      <line style="stroke:#181818;stroke-width:0.5;" x1="871" x2="1019" y1="804" y2="804"/>
      <ellipse cx="881" cy="817.6484" fill="#84BE84" rx="3" ry="3"
               style="stroke:#038048;stroke-width:1.0;"/>
      <text fill="#000000" font-family="sans-serif" font-size="14" lengthAdjust="spacing"
            textLength="85" x="890" y="820.9951">Seat getId()
      </text>
      <ellipse cx="881" cy="833.9453" fill="#84BE84" rx="3" ry="3"
               style="stroke:#038048;stroke-width:1.0;"/>
      <text fill="#000000" font-family="sans-serif" font-size="14" lengthAdjust="spacing"
            textLength="124" x="890" y="837.292">String getName()
      </text>
    </g><!--class SeatId-->
    <g id="elem_SeatId">
      <rect codeLine="78" fill="#F1F1F1" height="64.2969" id="SeatId" rx="2.5" ry="2.5"
            style="stroke:#181818;stroke-width:0.5;" width="111" x="723.5" y="772.5"/>
      <ellipse cx="753.35" cy="788.5" fill="#ADD1B2" rx="11" ry="11"
               style="stroke:#181818;stroke-width:1.0;"/>
      <path
        d="M755.6938,784.1719 C754.7563,783.7344 754.1625,783.5938 753.2875,783.5938 C750.6625,783.5938 748.6625,785.6719 748.6625,788.3906 L748.6625,789.5156 C748.6625,792.0938 750.7719,793.9844 753.6625,793.9844 C754.8813,793.9844 756.0375,793.6875 756.7875,793.1406 C757.3656,792.7344 757.6938,792.2813 757.6938,791.8906 C757.6938,791.4375 757.3031,791.0469 756.8344,791.0469 C756.6156,791.0469 756.4125,791.125 756.225,791.3125 C755.7719,791.7969 755.7719,791.7969 755.5844,791.8906 C755.1625,792.1563 754.475,792.2813 753.7094,792.2813 C751.6625,792.2813 750.3656,791.1875 750.3656,789.4844 L750.3656,788.3906 C750.3656,786.6094 751.6156,785.2969 753.35,785.2969 C753.9281,785.2969 754.5375,785.4531 755.0063,785.7031 C755.4906,785.9844 755.6625,786.2031 755.7563,786.6094 C755.8188,787.0156 755.85,787.1406 755.9906,787.2656 C756.1313,787.4063 756.3656,787.5156 756.5844,787.5156 C756.85,787.5156 757.1156,787.375 757.2875,787.1563 C757.3969,787 757.4281,786.8125 757.4281,786.3906 L757.4281,784.9688 C757.4281,784.5313 757.4125,784.4063 757.3188,784.25 C757.1625,783.9844 756.8813,783.8438 756.5844,783.8438 C756.2875,783.8438 756.0844,783.9375 755.8656,784.25 L755.6938,784.1719 Z "
        fill="#000000"/>
      <text fill="#000000" font-family="sans-serif" font-size="14" lengthAdjust="spacing"
            textLength="46" x="770.65" y="793.3467">SeatId
      </text>
      <line style="stroke:#181818;stroke-width:0.5;" x1="724.5" x2="833.5" y1="804.5" y2="804.5"/>
      <line style="stroke:#181818;stroke-width:0.5;" x1="724.5" x2="833.5" y1="812.5" y2="812.5"/>
      <ellipse cx="734.5" cy="826.1484" fill="#84BE84" rx="3" ry="3"
               style="stroke:#038048;stroke-width:1.0;"/>
      <text fill="#000000" font-family="sans-serif" font-size="14" lengthAdjust="spacing"
            textLength="85" x="743.5" y="829.4951">UUID getId()
      </text>
    </g><!--class ResetReservationService-->
    <g id="elem_ResetReservationService">
      <rect codeLine="81" fill="#F1F1F1" height="64.2969" id="ResetReservationService" rx="2.5"
            ry="2.5" style="stroke:#181818;stroke-width:0.5;" width="213" x="1940.5" y="84"/>
      <ellipse cx="1955.5" cy="100" fill="#ADD1B2" rx="11" ry="11"
               style="stroke:#181818;stroke-width:1.0;"/>
      <path
        d="M1957.8438,95.6719 C1956.9063,95.2344 1956.3125,95.0938 1955.4375,95.0938 C1952.8125,95.0938 1950.8125,97.1719 1950.8125,99.8906 L1950.8125,101.0156 C1950.8125,103.5938 1952.9219,105.4844 1955.8125,105.4844 C1957.0313,105.4844 1958.1875,105.1875 1958.9375,104.6406 C1959.5156,104.2344 1959.8438,103.7813 1959.8438,103.3906 C1959.8438,102.9375 1959.4531,102.5469 1958.9844,102.5469 C1958.7656,102.5469 1958.5625,102.625 1958.375,102.8125 C1957.9219,103.2969 1957.9219,103.2969 1957.7344,103.3906 C1957.3125,103.6563 1956.625,103.7813 1955.8594,103.7813 C1953.8125,103.7813 1952.5156,102.6875 1952.5156,100.9844 L1952.5156,99.8906 C1952.5156,98.1094 1953.7656,96.7969 1955.5,96.7969 C1956.0781,96.7969 1956.6875,96.9531 1957.1563,97.2031 C1957.6406,97.4844 1957.8125,97.7031 1957.9063,98.1094 C1957.9688,98.5156 1958,98.6406 1958.1406,98.7656 C1958.2813,98.9063 1958.5156,99.0156 1958.7344,99.0156 C1959,99.0156 1959.2656,98.875 1959.4375,98.6563 C1959.5469,98.5 1959.5781,98.3125 1959.5781,97.8906 L1959.5781,96.4688 C1959.5781,96.0313 1959.5625,95.9063 1959.4688,95.75 C1959.3125,95.4844 1959.0313,95.3438 1958.7344,95.3438 C1958.4375,95.3438 1958.2344,95.4375 1958.0156,95.75 L1957.8438,95.6719 Z "
        fill="#000000"/>
      <text fill="#000000" font-family="sans-serif" font-size="14" lengthAdjust="spacing"
            textLength="181" x="1969.5" y="104.8467">ResetReservationService
      </text>
      <line style="stroke:#181818;stroke-width:0.5;" x1="1941.5" x2="2152.5" y1="116" y2="116"/>
      <line style="stroke:#181818;stroke-width:0.5;" x1="1941.5" x2="2152.5" y1="124" y2="124"/>
      <ellipse cx="1951.5" cy="137.6484" fill="#84BE84" rx="3" ry="3"
               style="stroke:#038048;stroke-width:1.0;"/>
      <text fill="#000000" font-family="sans-serif" font-size="14" lengthAdjust="spacing"
            textLength="127" x="1960.5" y="140.9951">void serve(String)
      </text>
    </g><!--class ResetReservationComponent-->
    <g id="elem_ResetReservationComponent">
      <rect codeLine="84" fill="#F1F1F1" height="64.2969" id="ResetReservationComponent" rx="2.5"
            ry="2.5" style="stroke:#181818;stroke-width:0.5;" width="246" x="1924" y="208"/>
      <ellipse cx="1939" cy="224" fill="#ADD1B2" rx="11" ry="11"
               style="stroke:#181818;stroke-width:1.0;"/>
      <path
        d="M1941.3438,219.6719 C1940.4063,219.2344 1939.8125,219.0938 1938.9375,219.0938 C1936.3125,219.0938 1934.3125,221.1719 1934.3125,223.8906 L1934.3125,225.0156 C1934.3125,227.5938 1936.4219,229.4844 1939.3125,229.4844 C1940.5313,229.4844 1941.6875,229.1875 1942.4375,228.6406 C1943.0156,228.2344 1943.3438,227.7813 1943.3438,227.3906 C1943.3438,226.9375 1942.9531,226.5469 1942.4844,226.5469 C1942.2656,226.5469 1942.0625,226.625 1941.875,226.8125 C1941.4219,227.2969 1941.4219,227.2969 1941.2344,227.3906 C1940.8125,227.6563 1940.125,227.7813 1939.3594,227.7813 C1937.3125,227.7813 1936.0156,226.6875 1936.0156,224.9844 L1936.0156,223.8906 C1936.0156,222.1094 1937.2656,220.7969 1939,220.7969 C1939.5781,220.7969 1940.1875,220.9531 1940.6563,221.2031 C1941.1406,221.4844 1941.3125,221.7031 1941.4063,222.1094 C1941.4688,222.5156 1941.5,222.6406 1941.6406,222.7656 C1941.7813,222.9063 1942.0156,223.0156 1942.2344,223.0156 C1942.5,223.0156 1942.7656,222.875 1942.9375,222.6563 C1943.0469,222.5 1943.0781,222.3125 1943.0781,221.8906 L1943.0781,220.4688 C1943.0781,220.0313 1943.0625,219.9063 1942.9688,219.75 C1942.8125,219.4844 1942.5313,219.3438 1942.2344,219.3438 C1941.9375,219.3438 1941.7344,219.4375 1941.5156,219.75 L1941.3438,219.6719 Z "
        fill="#000000"/>
      <text fill="#000000" font-family="sans-serif" font-size="14" lengthAdjust="spacing"
            textLength="214" x="1953" y="228.8467">ResetReservationComponent
      </text>
      <line style="stroke:#181818;stroke-width:0.5;" x1="1925" x2="2169" y1="240" y2="240"/>
      <line style="stroke:#181818;stroke-width:0.5;" x1="1925" x2="2169" y1="248" y2="248"/>
      <ellipse cx="1935" cy="261.6484" fill="#84BE84" rx="3" ry="3"
               style="stroke:#038048;stroke-width:1.0;"/>
      <text fill="#000000" font-family="sans-serif" font-size="14" lengthAdjust="spacing"
            textLength="146" x="1944" y="264.9951">void execute(String)
      </text>
    </g><!--class SubmitReservationService-->
    <g id="elem_SubmitReservationService">
      <rect codeLine="87" fill="#F1F1F1" height="64.2969" id="SubmitReservationService" rx="2.5"
            ry="2.5" style="stroke:#181818;stroke-width:0.5;" width="223" x="1580.5" y="84"/>
      <ellipse cx="1595.5" cy="100" fill="#ADD1B2" rx="11" ry="11"
               style="stroke:#181818;stroke-width:1.0;"/>
      <path
        d="M1597.8438,95.6719 C1596.9063,95.2344 1596.3125,95.0938 1595.4375,95.0938 C1592.8125,95.0938 1590.8125,97.1719 1590.8125,99.8906 L1590.8125,101.0156 C1590.8125,103.5938 1592.9219,105.4844 1595.8125,105.4844 C1597.0313,105.4844 1598.1875,105.1875 1598.9375,104.6406 C1599.5156,104.2344 1599.8438,103.7813 1599.8438,103.3906 C1599.8438,102.9375 1599.4531,102.5469 1598.9844,102.5469 C1598.7656,102.5469 1598.5625,102.625 1598.375,102.8125 C1597.9219,103.2969 1597.9219,103.2969 1597.7344,103.3906 C1597.3125,103.6563 1596.625,103.7813 1595.8594,103.7813 C1593.8125,103.7813 1592.5156,102.6875 1592.5156,100.9844 L1592.5156,99.8906 C1592.5156,98.1094 1593.7656,96.7969 1595.5,96.7969 C1596.0781,96.7969 1596.6875,96.9531 1597.1563,97.2031 C1597.6406,97.4844 1597.8125,97.7031 1597.9063,98.1094 C1597.9688,98.5156 1598,98.6406 1598.1406,98.7656 C1598.2813,98.9063 1598.5156,99.0156 1598.7344,99.0156 C1599,99.0156 1599.2656,98.875 1599.4375,98.6563 C1599.5469,98.5 1599.5781,98.3125 1599.5781,97.8906 L1599.5781,96.4688 C1599.5781,96.0313 1599.5625,95.9063 1599.4688,95.75 C1599.3125,95.4844 1599.0313,95.3438 1598.7344,95.3438 C1598.4375,95.3438 1598.2344,95.4375 1598.0156,95.75 L1597.8438,95.6719 Z "
        fill="#000000"/>
      <text fill="#000000" font-family="sans-serif" font-size="14" lengthAdjust="spacing"
            textLength="191" x="1609.5" y="104.8467">SubmitReservationService
      </text>
      <line style="stroke:#181818;stroke-width:0.5;" x1="1581.5" x2="1802.5" y1="116" y2="116"/>
      <line style="stroke:#181818;stroke-width:0.5;" x1="1581.5" x2="1802.5" y1="124" y2="124"/>
      <ellipse cx="1591.5" cy="137.6484" fill="#84BE84" rx="3" ry="3"
               style="stroke:#038048;stroke-width:1.0;"/>
      <text fill="#000000" font-family="sans-serif" font-size="14" lengthAdjust="spacing"
            textLength="141" x="1600.5" y="140.9951">String serve(String)
      </text>
    </g><!--class SubmitReservationComponent-->
    <g id="elem_SubmitReservationComponent">
      <rect codeLine="90" fill="#F1F1F1" height="64.2969" id="SubmitReservationComponent" rx="2.5"
            ry="2.5" style="stroke:#181818;stroke-width:0.5;" width="256" x="1564" y="208"/>
      <ellipse cx="1579" cy="224" fill="#ADD1B2" rx="11" ry="11"
               style="stroke:#181818;stroke-width:1.0;"/>
      <path
        d="M1581.3438,219.6719 C1580.4063,219.2344 1579.8125,219.0938 1578.9375,219.0938 C1576.3125,219.0938 1574.3125,221.1719 1574.3125,223.8906 L1574.3125,225.0156 C1574.3125,227.5938 1576.4219,229.4844 1579.3125,229.4844 C1580.5313,229.4844 1581.6875,229.1875 1582.4375,228.6406 C1583.0156,228.2344 1583.3438,227.7813 1583.3438,227.3906 C1583.3438,226.9375 1582.9531,226.5469 1582.4844,226.5469 C1582.2656,226.5469 1582.0625,226.625 1581.875,226.8125 C1581.4219,227.2969 1581.4219,227.2969 1581.2344,227.3906 C1580.8125,227.6563 1580.125,227.7813 1579.3594,227.7813 C1577.3125,227.7813 1576.0156,226.6875 1576.0156,224.9844 L1576.0156,223.8906 C1576.0156,222.1094 1577.2656,220.7969 1579,220.7969 C1579.5781,220.7969 1580.1875,220.9531 1580.6563,221.2031 C1581.1406,221.4844 1581.3125,221.7031 1581.4063,222.1094 C1581.4688,222.5156 1581.5,222.6406 1581.6406,222.7656 C1581.7813,222.9063 1582.0156,223.0156 1582.2344,223.0156 C1582.5,223.0156 1582.7656,222.875 1582.9375,222.6563 C1583.0469,222.5 1583.0781,222.3125 1583.0781,221.8906 L1583.0781,220.4688 C1583.0781,220.0313 1583.0625,219.9063 1582.9688,219.75 C1582.8125,219.4844 1582.5313,219.3438 1582.2344,219.3438 C1581.9375,219.3438 1581.7344,219.4375 1581.5156,219.75 L1581.3438,219.6719 Z "
        fill="#000000"/>
      <text fill="#000000" font-family="sans-serif" font-size="14" lengthAdjust="spacing"
            textLength="224" x="1593" y="228.8467">SubmitReservationComponent
      </text>
      <line style="stroke:#181818;stroke-width:0.5;" x1="1565" x2="1819" y1="240" y2="240"/>
      <line style="stroke:#181818;stroke-width:0.5;" x1="1565" x2="1819" y1="248" y2="248"/>
      <ellipse cx="1575" cy="261.6484" fill="#84BE84" rx="3" ry="3"
               style="stroke:#038048;stroke-width:1.0;"/>
      <text fill="#000000" font-family="sans-serif" font-size="14" lengthAdjust="spacing"
            textLength="160" x="1584" y="264.9951">String execute(String)
      </text>
    </g><!--link ConfirmReservationService to ConfirmReservationComponent-->
    <g id="link_ConfirmReservationService_ConfirmReservationComponent">
      <path codeLine="93" d="M2405,148.256 C2405,166.626 2405,183.562 2405,201.906 " fill="none"
            id="ConfirmReservationService-to-ConfirmReservationComponent"
            style="stroke:#181818;stroke-width:1.0;"/>
      <polygon fill="#181818"
               points="2405,207.906,2409,198.906,2405,202.906,2401,198.906,2405,207.906"
               style="stroke:#181818;stroke-width:1.0;"/>
    </g><!--link ConfirmReservationComponent to ReservationRepository-->
    <g id="link_ConfirmReservationComponent_ReservationRepository">
      <path codeLine="94"
            d="M2389.25,272.16 C2389.25,338.841 2389.25,486 2389.25,486 C2389.25,486 2274.2,486 2176.08,486 "
            fill="none" id="ConfirmReservationComponent-to-ReservationRepository"
            style="stroke:#181818;stroke-width:1.0;"/>
      <polygon fill="#181818" points="2170.08,486,2179.08,490,2175.08,486,2179.08,482,2170.08,486"
               style="stroke:#181818;stroke-width:1.0;"/>
    </g><!--link Reservation to ReservationStatus-->
    <g id="link_Reservation_ReservationStatus">
      <path codeLine="95" d="M2383,578.766 C2383,623.967 2383,691.185 2383,741.922 " fill="none"
            id="Reservation-to-ReservationStatus" style="stroke:#181818;stroke-width:1.0;"/>
      <polygon fill="#181818"
               points="2383,747.922,2387,738.922,2383,742.922,2379,738.922,2383,747.922"
               style="stroke:#181818;stroke-width:1.0;"/>
    </g><!--link Trip to TripId-->
    <g id="link_Trip_TripId">
      <path codeLine="96" d="M207,619.044 C207,670.651 207,728.668 207,766.4 " fill="none"
            id="Trip-to-TripId" style="stroke:#181818;stroke-width:1.0;"/>
      <polygon fill="#181818" points="207,772.4,211,763.4,207,767.4,203,763.4,207,772.4"
               style="stroke:#181818;stroke-width:1.0;"/>
    </g><!--link Trip to Station-->
    <g id="link_Trip_Station">
      <path codeLine="97"
            d="M281.667,619.117 C281.667,685.677 281.667,769 281.667,769 C281.667,769 324.517,769 369.742,769 "
            fill="none" id="Trip-to-Station" style="stroke:#181818;stroke-width:1.0;"/>
      <polygon fill="#181818" points="375.742,769,366.742,765,370.742,769,366.742,773,375.742,769"
               style="stroke:#181818;stroke-width:1.0;"/>
    </g><!--link Trip to Seat-->
    <g id="link_Trip_Seat">
      <path codeLine="98"
            d="M320.405,614 C532.953,614 970,614 970,614 C970,614 970,701.658 970,757.633 "
            fill="none" id="Trip-to-Seat" style="stroke:#181818;stroke-width:1.0;"/>
      <polygon fill="#181818" points="970,763.633,974,754.633,970,758.633,966,754.633,970,763.633"
               style="stroke:#181818;stroke-width:1.0;"/>
    </g><!--link Trip to Train-->
    <g id="link_Trip_Train">
      <path codeLine="99"
            d="M320.288,608 C668.869,608 1702,608 1702,608 C1702,608 1702,700.229 1702,757.785 "
            fill="none" id="Trip-to-Train" style="stroke:#181818;stroke-width:1.0;"/>
      <polygon fill="#181818"
               points="1702,763.785,1706,754.785,1702,758.785,1698,754.785,1702,763.785"
               style="stroke:#181818;stroke-width:1.0;"/>
    </g><!--link Trip to Wagon-->
    <g id="link_Trip_Wagon">
      <path codeLine="100"
            d="M300.833,619.037 C300.833,682.111 300.833,759 300.833,759 C300.833,759 990.73,759 1234.7,759 "
            fill="none" id="Trip-to-Wagon" style="stroke:#181818;stroke-width:1.0;"/>
      <polygon fill="#181818" points="1240.7,759,1231.7,755,1235.7,759,1231.7,763,1240.7,759"
               style="stroke:#181818;stroke-width:1.0;"/>
    </g><!--link Station to StationId-->
    <g id="link_Station_StationId">
      <path codeLine="101" d="M451,845.001 C451,872.21 451,901.576 451,926.852 " fill="none"
            id="Station-to-StationId" style="stroke:#181818;stroke-width:1.0;"/>
      <polygon fill="#181818" points="451,932.852,455,923.852,451,927.852,447,923.852,451,932.852"
               style="stroke:#181818;stroke-width:1.0;"/>
    </g><!--link Train to Train-->
    <g id="link_Train_Train">
      <path codeLine="102"
            d="M1752,763.794 C1752,761.437 1752,760 1752,760 C1752,760 1814,760 1814,760 C1814,760 1814,849 1814,849 C1814,849 1727,849 1727,849 C1727,849 1727,853.563 1727,851.206 "
            fill="none" id="Train-to-Train" style="stroke:#181818;stroke-width:1.0;"/>
      <polygon fill="#181818"
               points="1727,845.206,1723,854.206,1727,850.206,1731,854.206,1727,845.206"
               style="stroke:#181818;stroke-width:1.0;"/>
    </g><!--link Wagon to Wagon-->
    <g id="link_Wagon_Wagon">
      <path codeLine="103"
            d="M1324,755.776 C1324,753.413 1324,752 1324,752 C1324,752 1223.25,752 1223.25,752 C1223.25,752 1223.25,857 1223.25,857 C1223.25,857 1324,857 1324,857 C1324,857 1324,861.587 1324,859.224 "
            fill="none" id="Wagon-to-Wagon" style="stroke:#181818;stroke-width:1.0;"/>
      <polygon fill="#181818"
               points="1324,853.224,1320,862.224,1324,858.224,1328,862.224,1324,853.224"
               style="stroke:#181818;stroke-width:1.0;"/>
    </g><!--link Seat to Seat-->
    <g id="link_Seat_Seat">
      <path codeLine="104"
            d="M920,763.826 C920,762.664 920,762 920,762 C920,762 852.25,762 852.25,762 C852.25,762 852.25,849 852.25,849 C852.25,849 945,849 945,849 C945,849 945,853.563 945,851.206 "
            fill="none" id="Seat-to-Seat" style="stroke:#181818;stroke-width:1.0;"/>
      <polygon fill="#181818" points="945,845.206,941,854.206,945,850.206,949,854.206,945,845.206"
               style="stroke:#181818;stroke-width:1.0;"/>
    </g><!--link ResetReservationService to ResetReservationComponent-->
    <g id="link_ResetReservationService_ResetReservationComponent">
      <path codeLine="105" d="M2047,148.256 C2047,166.626 2047,183.562 2047,201.906 " fill="none"
            id="ResetReservationService-to-ResetReservationComponent"
            style="stroke:#181818;stroke-width:1.0;"/>
      <polygon fill="#181818"
               points="2047,207.906,2051,198.906,2047,202.906,2043,198.906,2047,207.906"
               style="stroke:#181818;stroke-width:1.0;"/>
    </g><!--link ResetReservationComponent to ReservationRepository-->
    <g id="link_ResetReservationComponent_ReservationRepository">
      <path codeLine="106" d="M2047,272.174 C2047,320.109 2047,405.273 2047,467.334 " fill="none"
            id="ResetReservationComponent-to-ReservationRepository"
            style="stroke:#181818;stroke-width:1.0;"/>
      <polygon fill="#181818"
               points="2047,473.334,2051,464.334,2047,468.334,2043,464.334,2047,473.334"
               style="stroke:#181818;stroke-width:1.0;"/>
    </g><!--link SubmitReservationService to SubmitReservationComponent-->
    <g id="link_SubmitReservationService_SubmitReservationComponent">
      <path codeLine="107" d="M1692,148.256 C1692,166.626 1692,183.562 1692,201.906 " fill="none"
            id="SubmitReservationService-to-SubmitReservationComponent"
            style="stroke:#181818;stroke-width:1.0;"/>
      <polygon fill="#181818"
               points="1692,207.906,1696,198.906,1692,202.906,1688,198.906,1692,207.906"
               style="stroke:#181818;stroke-width:1.0;"/>
    </g><!--link SubmitReservationComponent to ReservationRepository-->
    <g id="link_SubmitReservationComponent_ReservationRepository">
      <path codeLine="108"
            d="M1808,272.174 C1808,349.231 1808,538 1808,538 C1808,538 1859.44,538 1918,538 "
            fill="none" id="SubmitReservationComponent-to-ReservationRepository"
            style="stroke:#181818;stroke-width:1.0;"/>
      <polygon fill="#181818" points="1924,538,1915,534,1919,538,1915,542,1924,538"
               style="stroke:#181818;stroke-width:1.0;"/>
    </g><!--SRC=[vLZRJkCm47tFLtXvAbgHBq2L5YXIf0LMBMWVaPjCWqLZH_QaR5Nnxsl7gPfBawOIIL3xX6kFFNFEp3WS_uWb3IDA4WKUHv0H18mY_A7-Emr1aGLTAd3KE-CnbJGYIyO1rp4G8V5DEEfDV12bzu4miuxZBwbIvE9My0MJqHGKo1L59lXC3vWF5uGg4e0RpDqLy42uiHIOxdNdYV-MyD2Lkqrkm5OWbKi36gCPw31VVQf0kS2H8TC3txfovoBX0PLhjzOtsJY4_5m95X2p1ACPIiR3I-UpFknR4SM2QsSz1AudK8gbsn153WBy0p_1F0Xc4hYW6kX5RkyKOg4O2hd-UWXvymgClJ5O06H3vmebzV7pAJO6T7bjSOp9Wl7WPZrwUV7kBaksreGecijTqS8cDvb739iiCkgRJ0mqh5P83bJFTAPMwpohbaj350a1lM2K0idNFL9Cb5cqez5-87Se1iUYOzWF9ylv8GnUC3W4BzY3eAuh7sWSWnmyPXj6fIbBYK7nAmZqoKh_6ENMBkktxVQCYeSPIe0dKO4Dczh1sSZwnR0nUxbvy9xruFRfyTwRFkZHT3ARc9dNLmjRQMlcVquqc8a-KVkxhfmrDeMGhUOhzrcok5kuscLSYzcujqat8rsuXOQp2THJJvA5Z5Ucxq0Xu-bFk_QRARpE3CRRLjLZPPUV9MNfndIG7GSKKqlzryxyfQ4zFXsKoUgwlm_ILTFTMOWPu1vYLDXSpjiyRN99AoTuUwC-qWZseEY5wvOuccbF2wg7OD7uQIWFKz-RGgaV9ZirxONg5j4tqvnsP6-1VXXljU7QQs9Jk35goIxE9T4SP0LNZobeWUp0DQDlovwZLTfbVPEQMtoJlyzRN3BQidVE3w9evjryrx4FCPkgZbsWDNuF2zdonWvbR2dalFh3eoNijaPI1TS7uLOhxiAlyxpzdbe1kf_qojuEMI_7lQMzFeO2WYhpGxt9N5sDXtzMSOP_sFbo7ev_ct46VSpebu0wyUSCACWwPQ25m3bjx2q5nscJSDJ_HET0HQCgEfzQQDGaplTuqVWsLqJdDsMRvuPpQ93sxm7dqot7QVEJ_wAq4CkTS72CudM6rTidfonQQ_OlHtwywdQ6LltV8Fl_0G00]-->
  </g>
</svg>