<?xml version="1.0" encoding="us-ascii" standalone="no"?>
<svg xmlns="http://www.w3.org/2000/svg" xmlns:xlink="http://www.w3.org/1999/xlink"
     contentStyleType="text/css" height="738px" preserveAspectRatio="none"
     style="width:2883px;height:738px;background:#FFFFFF;" version="1.1" viewBox="0 0 2883 738"
     width="2883px" zoomAndPan="magnify">
  <defs/>
  <g><!--cluster reservation-->
    <g id="cluster_reservation">
      <path
        d="M8.5,6 L748.5,6 A3.75,3.75 0 0 1 751,8.5 L758,28.2969 L2873.5,28.2969 A2.5,2.5 0 0 1 2876,30.7969 L2876,728.5 A2.5,2.5 0 0 1 2873.5,731 L8.5,731 A2.5,2.5 0 0 1 6,728.5 L6,8.5 A2.5,2.5 0 0 1 8.5,6 "
        fill="#FF9A99" style="stroke:#000000;stroke-width:1.5;"/>
      <line style="stroke:#000000;stroke-width:1.5;" x1="6" x2="758" y1="28.2969" y2="28.2969"/>
      <text fill="#000000" font-family="sans-serif" font-size="14" font-weight="bold"
            lengthAdjust="spacing" textLength="739" x="10" y="20.9951">
        de.db.vendo.prototype.buchung.reservation.divers.adapters.use_cases.entities.reservation
      </text>
    </g><!--cluster control-->
    <g id="cluster_control">
      <path
        d="M1886.5,89.5 L2027.5,89.5 A3.75,3.75 0 0 1 2030,92 L2037,111.7969 L2849.5,111.7969 A2.5,2.5 0 0 1 2852,114.2969 L2852,568.5 A2.5,2.5 0 0 1 2849.5,571 L1886.5,571 A2.5,2.5 0 0 1 1884,568.5 L1884,92 A2.5,2.5 0 0 1 1886.5,89.5 "
        fill="#FF9A99" style="stroke:#000000;stroke-width:1.5;"/>
      <line style="stroke:#000000;stroke-width:1.5;" x1="1884" x2="2037" y1="111.7969"
            y2="111.7969"/>
      <text fill="#000000" font-family="sans-serif" font-size="14" font-weight="bold"
            lengthAdjust="spacing" textLength="140" x="1888" y="104.4951">boundary.control
      </text>
    </g><!--cluster entity-->
    <g id="cluster_entity">
      <path
        d="M2270.5,132.5 L2320.5,132.5 A3.75,3.75 0 0 1 2323,135 L2330,154.7969 L2825.5,154.7969 A2.5,2.5 0 0 1 2828,157.2969 L2828,544.5 A2.5,2.5 0 0 1 2825.5,547 L2270.5,547 A2.5,2.5 0 0 1 2268,544.5 L2268,135 A2.5,2.5 0 0 1 2270.5,132.5 "
        fill="#FCFDB0" style="stroke:#000000;stroke-width:1.5;"/>
      <line style="stroke:#000000;stroke-width:1.5;" x1="2268" x2="2330" y1="154.7969"
            y2="154.7969"/>
      <text fill="#000000" font-family="sans-serif" font-size="14" font-weight="bold"
            lengthAdjust="spacing" textLength="49" x="2272" y="147.4951">entity
      </text>
    </g><!--cluster trip-->
    <g id="cluster_trip">
      <path
        d="M32.5,49 L63.5,49 A3.75,3.75 0 0 1 66,51.5 L73,71.2969 L1857.5,71.2969 A2.5,2.5 0 0 1 1860,73.7969 L1860,704.5 A2.5,2.5 0 0 1 1857.5,707 L32.5,707 A2.5,2.5 0 0 1 30,704.5 L30,51.5 A2.5,2.5 0 0 1 32.5,49 "
        fill="#FF9A99" style="stroke:#000000;stroke-width:1.5;"/>
      <line style="stroke:#000000;stroke-width:1.5;" x1="30" x2="73" y1="71.2969" y2="71.2969"/>
      <text fill="#000000" font-family="sans-serif" font-size="14" font-weight="bold"
            lengthAdjust="spacing" textLength="30" x="34" y="63.9951">trip
      </text>
    </g><!--cluster entity-->
    <g id="cluster_entity">
      <path
        d="M56.5,92 L251.5,92 A3.75,3.75 0 0 1 254,94.5 L261,114.2969 L309.5,114.2969 A2.5,2.5 0 0 1 312,116.7969 L312,520 A2.5,2.5 0 0 1 309.5,522.5 L56.5,522.5 A2.5,2.5 0 0 1 54,520 L54,94.5 A2.5,2.5 0 0 1 56.5,92 "
        fill="#FCFDB0" style="stroke:#000000;stroke-width:1.5;"/>
      <line style="stroke:#000000;stroke-width:1.5;" x1="54" x2="261" y1="114.2969" y2="114.2969"/>
      <text fill="#000000" font-family="sans-serif" font-size="14" font-weight="bold"
            lengthAdjust="spacing" textLength="194" x="58" y="106.9951">boundary.control.entity
      </text>
    </g><!--cluster entity-->
    <g id="cluster_entity">
      <path
        d="M338.5,399 L598.5,399 A3.75,3.75 0 0 1 601,401.5 L608,421.2969 L608.5,421.2969 A2.5,2.5 0 0 1 611,423.7969 L611,680.5 A2.5,2.5 0 0 1 608.5,683 L338.5,683 A2.5,2.5 0 0 1 336,680.5 L336,401.5 A2.5,2.5 0 0 1 338.5,399 "
        fill="#FCFDB0" style="stroke:#000000;stroke-width:1.5;"/>
      <line style="stroke:#000000;stroke-width:1.5;" x1="336" x2="608" y1="421.2969" y2="421.2969"/>
      <text fill="#000000" font-family="sans-serif" font-size="14" font-weight="bold"
            lengthAdjust="spacing" textLength="259" x="340" y="413.9951">
        station.boundary.control.entity
      </text>
    </g><!--cluster train-->
    <g id="cluster_train">
      <path
        d="M637.5,305 L678.5,305 A3.75,3.75 0 0 1 681,307.5 L688,327.2969 L1833.5,327.2969 A2.5,2.5 0 0 1 1836,329.7969 L1836,584.5 A2.5,2.5 0 0 1 1833.5,587 L637.5,587 A2.5,2.5 0 0 1 635,584.5 L635,307.5 A2.5,2.5 0 0 1 637.5,305 "
        fill="#FF9A99" style="stroke:#000000;stroke-width:1.5;"/>
      <line style="stroke:#000000;stroke-width:1.5;" x1="635" x2="688" y1="327.2969" y2="327.2969"/>
      <text fill="#000000" font-family="sans-serif" font-size="14" font-weight="bold"
            lengthAdjust="spacing" textLength="40" x="639" y="319.9951">train
      </text>
    </g><!--cluster entity-->
    <g id="cluster_entity">
      <path
        d="M1467.5,399 L1662.5,399 A3.75,3.75 0 0 1 1665,401.5 L1672,421.2969 L1809.5,421.2969 A2.5,2.5 0 0 1 1812,423.7969 L1812,528.5 A2.5,2.5 0 0 1 1809.5,531 L1467.5,531 A2.5,2.5 0 0 1 1465,528.5 L1465,401.5 A2.5,2.5 0 0 1 1467.5,399 "
        fill="#FCFDB0" style="stroke:#000000;stroke-width:1.5;"/>
      <line style="stroke:#000000;stroke-width:1.5;" x1="1465" x2="1672" y1="421.2969"
            y2="421.2969"/>
      <text fill="#000000" font-family="sans-serif" font-size="14" font-weight="bold"
            lengthAdjust="spacing" textLength="194" x="1469" y="413.9951">boundary.control.entity
      </text>
    </g><!--cluster wagon-->
    <g id="cluster_wagon">
      <path
        d="M661.5,348 L715.5,348 A3.75,3.75 0 0 1 718,350.5 L725,370.2969 L1438.5,370.2969 A2.5,2.5 0 0 1 1441,372.7969 L1441,560.5 A2.5,2.5 0 0 1 1438.5,563 L661.5,563 A2.5,2.5 0 0 1 659,560.5 L659,350.5 A2.5,2.5 0 0 1 661.5,348 "
        fill="#FF9A99" style="stroke:#000000;stroke-width:1.5;"/>
      <line style="stroke:#000000;stroke-width:1.5;" x1="659" x2="725" y1="370.2969" y2="370.2969"/>
      <text fill="#000000" font-family="sans-serif" font-size="14" font-weight="bold"
            lengthAdjust="spacing" textLength="53" x="663" y="362.9951">wagon
      </text>
    </g><!--cluster entity-->
    <g id="cluster_entity">
      <path
        d="M1056.5,391 L1251.5,391 A3.75,3.75 0 0 1 1254,393.5 L1261,413.2969 L1414.5,413.2969 A2.5,2.5 0 0 1 1417,415.7969 L1417,536.5 A2.5,2.5 0 0 1 1414.5,539 L1056.5,539 A2.5,2.5 0 0 1 1054,536.5 L1054,393.5 A2.5,2.5 0 0 1 1056.5,391 "
        fill="#FCFDB0" style="stroke:#000000;stroke-width:1.5;"/>
      <line style="stroke:#000000;stroke-width:1.5;" x1="1054" x2="1261" y1="413.2969"
            y2="413.2969"/>
      <text fill="#000000" font-family="sans-serif" font-size="14" font-weight="bold"
            lengthAdjust="spacing" textLength="194" x="1058" y="405.9951">boundary.control.entity
      </text>
    </g><!--cluster entity-->
    <g id="cluster_entity">
      <path
        d="M685.5,399 L921.5,399 A3.75,3.75 0 0 1 924,401.5 L931,421.2969 L1027.5,421.2969 A2.5,2.5 0 0 1 1030,423.7969 L1030,528.5 A2.5,2.5 0 0 1 1027.5,531 L685.5,531 A2.5,2.5 0 0 1 683,528.5 L683,401.5 A2.5,2.5 0 0 1 685.5,399 "
        fill="#FCFDB0" style="stroke:#000000;stroke-width:1.5;"/>
      <line style="stroke:#000000;stroke-width:1.5;" x1="683" x2="931" y1="421.2969" y2="421.2969"/>
      <text fill="#000000" font-family="sans-serif" font-size="14" font-weight="bold"
            lengthAdjust="spacing" textLength="235" x="687" y="413.9951">
        seat.boundary.control.entity
      </text>
    </g><!--class ReservationRepository-->
    <g id="elem_ReservationRepository">
      <rect codeLine="33" fill="#F1F1F1" height="129.4844" id="ReservationRepository" rx="2.5"
            ry="2.5" style="stroke:#181818;stroke-width:0.5;" width="352" x="1900" y="143.5"/>
      <ellipse cx="1991.25" cy="159.5" fill="#B4A7E5" rx="11" ry="11"
               style="stroke:#181818;stroke-width:1.0;"/>
      <path
        d="M1992.2031,156.2813 L1993.9219,156.2813 C1994.3125,156.2813 1994.5,156.25 1994.625,156.1719 C1994.8906,156.0156 1995.0313,155.7344 1995.0313,155.4375 C1995.0313,155.1719 1994.9219,154.9063 1994.6875,154.7344 C1994.5156,154.625 1994.375,154.5938 1993.9219,154.5938 L1988.7813,154.5938 C1988.3438,154.5938 1988.2188,154.6094 1988.0625,154.7031 C1987.8125,154.8594 1987.6563,155.1563 1987.6563,155.4375 C1987.6563,155.7188 1987.7969,155.9688 1988.0156,156.1406 C1988.1719,156.25 1988.3594,156.2813 1988.7813,156.2813 L1990.5,156.2813 L1990.5,162.7969 L1988.7813,162.7969 C1988.3438,162.7969 1988.2188,162.8125 1988.0625,162.9219 C1987.8125,163.0781 1987.6563,163.3594 1987.6563,163.6563 C1987.6563,163.9063 1987.7969,164.1719 1988.0156,164.3281 C1988.1719,164.4531 1988.375,164.5 1988.7813,164.5 L1993.9219,164.5 C1994.6719,164.5 1995.0313,164.2188 1995.0313,163.6563 C1995.0313,163.375 1994.9219,163.125 1994.6875,162.9531 C1994.5156,162.8281 1994.375,162.7969 1993.9219,162.7969 L1992.2031,162.7969 L1992.2031,156.2813 Z "
        fill="#000000"/>
      <text fill="#000000" font-family="sans-serif" font-size="14" font-style="italic"
            lengthAdjust="spacing" textLength="161" x="2011.75" y="164.3467">ReservationRepository
      </text>
      <line style="stroke:#181818;stroke-width:0.5;" x1="1901" x2="2251" y1="175.5" y2="175.5"/>
      <line style="stroke:#181818;stroke-width:0.5;" x1="1901" x2="2251" y1="183.5" y2="183.5"/>
      <ellipse cx="1911" cy="197.1484" fill="#84BE84" rx="3" ry="3"
               style="stroke:#038048;stroke-width:1.0;"/>
      <text fill="#000000" font-family="sans-serif" font-size="14" font-style="italic"
            lengthAdjust="spacing" textLength="326" x="1920" y="200.4951">Optional&lt;Reservation&gt;
        findBy(ReservationId)
      </text>
      <ellipse cx="1911" cy="213.4453" fill="#84BE84" rx="3" ry="3"
               style="stroke:#038048;stroke-width:1.0;"/>
      <text fill="#000000" font-family="sans-serif" font-size="14" font-style="italic"
            lengthAdjust="spacing" textLength="217" x="1920" y="216.792">Reservation
        save(Reservation)
      </text>
      <ellipse cx="1911" cy="229.7422" fill="#84BE84" rx="3" ry="3"
               style="stroke:#038048;stroke-width:1.0;"/>
      <text fill="#000000" font-family="sans-serif" font-size="14" font-style="italic"
            lengthAdjust="spacing" textLength="177" x="1920" y="233.0889">void submit(Reservation)
      </text>
      <ellipse cx="1911" cy="246.0391" fill="#84BE84" rx="3" ry="3"
               style="stroke:#038048;stroke-width:1.0;"/>
      <text fill="#000000" font-family="sans-serif" font-size="14" font-style="italic"
            lengthAdjust="spacing" textLength="184" x="1920" y="249.3857">void confirm(Reservation)
      </text>
      <ellipse cx="1911" cy="262.3359" fill="#84BE84" rx="3" ry="3"
               style="stroke:#038048;stroke-width:1.0;"/>
      <text fill="#000000" font-family="sans-serif" font-size="14" font-style="italic"
            lengthAdjust="spacing" textLength="165" x="1920" y="265.6826">void reset(Reservation)
      </text>
    </g><!--class Reservation-->
    <g id="elem_Reservation">
      <rect codeLine="40" fill="#F1F1F1" height="80.5938" id="Reservation" rx="2.5" ry="2.5"
            style="stroke:#181818;stroke-width:0.5;" width="243" x="2398.5" y="167.5"/>
      <ellipse cx="2472.75" cy="183.5" fill="#ADD1B2" rx="11" ry="11"
               style="stroke:#181818;stroke-width:1.0;"/>
      <path
        d="M2475.0938,179.1719 C2474.1563,178.7344 2473.5625,178.5938 2472.6875,178.5938 C2470.0625,178.5938 2468.0625,180.6719 2468.0625,183.3906 L2468.0625,184.5156 C2468.0625,187.0938 2470.1719,188.9844 2473.0625,188.9844 C2474.2813,188.9844 2475.4375,188.6875 2476.1875,188.1406 C2476.7656,187.7344 2477.0938,187.2813 2477.0938,186.8906 C2477.0938,186.4375 2476.7031,186.0469 2476.2344,186.0469 C2476.0156,186.0469 2475.8125,186.125 2475.625,186.3125 C2475.1719,186.7969 2475.1719,186.7969 2474.9844,186.8906 C2474.5625,187.1563 2473.875,187.2813 2473.1094,187.2813 C2471.0625,187.2813 2469.7656,186.1875 2469.7656,184.4844 L2469.7656,183.3906 C2469.7656,181.6094 2471.0156,180.2969 2472.75,180.2969 C2473.3281,180.2969 2473.9375,180.4531 2474.4063,180.7031 C2474.8906,180.9844 2475.0625,181.2031 2475.1563,181.6094 C2475.2188,182.0156 2475.25,182.1406 2475.3906,182.2656 C2475.5313,182.4063 2475.7656,182.5156 2475.9844,182.5156 C2476.25,182.5156 2476.5156,182.375 2476.6875,182.1563 C2476.7969,182 2476.8281,181.8125 2476.8281,181.3906 L2476.8281,179.9688 C2476.8281,179.5313 2476.8125,179.4063 2476.7188,179.25 C2476.5625,178.9844 2476.2813,178.8438 2475.9844,178.8438 C2475.6875,178.8438 2475.4844,178.9375 2475.2656,179.25 L2475.0938,179.1719 Z "
        fill="#000000"/>
      <text fill="#000000" font-family="sans-serif" font-size="14" lengthAdjust="spacing"
            textLength="86" x="2493.25" y="188.3467">Reservation
      </text>
      <line style="stroke:#181818;stroke-width:0.5;" x1="2399.5" x2="2640.5" y1="199.5" y2="199.5"/>
      <line style="stroke:#181818;stroke-width:0.5;" x1="2399.5" x2="2640.5" y1="207.5" y2="207.5"/>
      <ellipse cx="2409.5" cy="221.1484" fill="#84BE84" rx="3" ry="3"
               style="stroke:#038048;stroke-width:1.0;"/>
      <text fill="#000000" font-family="sans-serif" font-size="14" lengthAdjust="spacing"
            textLength="151" x="2418.5" y="224.4951">ReservationId getId()
      </text>
      <ellipse cx="2409.5" cy="237.4453" fill="#84BE84" rx="3" ry="3"
               style="stroke:#038048;stroke-width:1.0;"/>
      <text fill="#000000" font-family="sans-serif" font-size="14" lengthAdjust="spacing"
            textLength="217" x="2418.5" y="240.792">ReservationStatus getStatus()
      </text>
    </g><!--class ReservationId-->
    <g id="elem_ReservationId">
      <rect codeLine="44" fill="#F1F1F1" height="64.2969" id="ReservationId" rx="2.5" ry="2.5"
            style="stroke:#181818;stroke-width:0.5;" width="131" x="2284.5" y="442.5"/>
      <ellipse cx="2299.5" cy="458.5" fill="#ADD1B2" rx="11" ry="11"
               style="stroke:#181818;stroke-width:1.0;"/>
      <path
        d="M2301.8438,454.1719 C2300.9063,453.7344 2300.3125,453.5938 2299.4375,453.5938 C2296.8125,453.5938 2294.8125,455.6719 2294.8125,458.3906 L2294.8125,459.5156 C2294.8125,462.0938 2296.9219,463.9844 2299.8125,463.9844 C2301.0313,463.9844 2302.1875,463.6875 2302.9375,463.1406 C2303.5156,462.7344 2303.8438,462.2813 2303.8438,461.8906 C2303.8438,461.4375 2303.4531,461.0469 2302.9844,461.0469 C2302.7656,461.0469 2302.5625,461.125 2302.375,461.3125 C2301.9219,461.7969 2301.9219,461.7969 2301.7344,461.8906 C2301.3125,462.1563 2300.625,462.2813 2299.8594,462.2813 C2297.8125,462.2813 2296.5156,461.1875 2296.5156,459.4844 L2296.5156,458.3906 C2296.5156,456.6094 2297.7656,455.2969 2299.5,455.2969 C2300.0781,455.2969 2300.6875,455.4531 2301.1563,455.7031 C2301.6406,455.9844 2301.8125,456.2031 2301.9063,456.6094 C2301.9688,457.0156 2302,457.1406 2302.1406,457.2656 C2302.2813,457.4063 2302.5156,457.5156 2302.7344,457.5156 C2303,457.5156 2303.2656,457.375 2303.4375,457.1563 C2303.5469,457 2303.5781,456.8125 2303.5781,456.3906 L2303.5781,454.9688 C2303.5781,454.5313 2303.5625,454.4063 2303.4688,454.25 C2303.3125,453.9844 2303.0313,453.8438 2302.7344,453.8438 C2302.4375,453.8438 2302.2344,453.9375 2302.0156,454.25 L2301.8438,454.1719 Z "
        fill="#000000"/>
      <text fill="#000000" font-family="sans-serif" font-size="14" lengthAdjust="spacing"
            textLength="99" x="2313.5" y="463.3467">ReservationId
      </text>
      <line style="stroke:#181818;stroke-width:0.5;" x1="2285.5" x2="2414.5" y1="474.5" y2="474.5"/>
      <line style="stroke:#181818;stroke-width:0.5;" x1="2285.5" x2="2414.5" y1="482.5" y2="482.5"/>
      <ellipse cx="2295.5" cy="496.1484" fill="#84BE84" rx="3" ry="3"
               style="stroke:#038048;stroke-width:1.0;"/>
      <text fill="#000000" font-family="sans-serif" font-size="14" lengthAdjust="spacing"
            textLength="85" x="2304.5" y="499.4951">UUID getId()
      </text>
    </g><!--class ReservationStatus-->
    <g id="elem_ReservationStatus">
      <rect codeLine="47" fill="#F1F1F1" height="113.1875" id="ReservationStatus" rx="2.5" ry="2.5"
            style="stroke:#181818;stroke-width:0.5;" width="361" x="2450.5" y="418"/>
      <ellipse cx="2560.75" cy="434" fill="#EB937F" rx="11" ry="11"
               style="stroke:#181818;stroke-width:1.0;"/>
      <path
        d="M2559.5469,434.875 L2561,434.875 L2561,434.9844 C2561,435.3906 2561.0313,435.5469 2561.1094,435.7031 C2561.2656,435.9531 2561.5469,436.1094 2561.8438,436.1094 C2562.0938,436.1094 2562.3594,435.9688 2562.5156,435.75 C2562.6406,435.5938 2562.6719,435.4375 2562.6719,434.9844 L2562.6719,433.0625 C2562.6719,432.9063 2562.6719,432.8594 2562.6563,432.7031 C2562.5938,432.2344 2562.2813,431.9219 2561.8281,431.9219 C2561.5781,431.9219 2561.3125,432.0625 2561.1406,432.2813 C2561.0313,432.4531 2561,432.6094 2561,433.0625 L2561,433.1875 L2559.5469,433.1875 L2559.5469,430.7813 L2563.5313,430.7813 L2563.5313,431.6406 C2563.5313,432.0469 2563.5625,432.2188 2563.6406,432.375 C2563.8125,432.625 2564.0938,432.7813 2564.375,432.7813 C2564.6406,432.7813 2564.9063,432.6406 2565.0781,432.4219 C2565.1875,432.25 2565.2188,432.1094 2565.2188,431.6406 L2565.2188,429.0938 L2557.5938,429.0938 C2557.1563,429.0938 2557.0313,429.1094 2556.875,429.2031 C2556.625,429.3594 2556.4688,429.6563 2556.4688,429.9375 C2556.4688,430.2188 2556.6094,430.4688 2556.8281,430.6406 C2556.9844,430.75 2557.1719,430.7813 2557.5938,430.7813 L2557.8438,430.7813 L2557.8438,437.2969 L2557.5938,437.2969 C2557.1875,437.2969 2557.0313,437.3125 2556.875,437.4219 C2556.625,437.5938 2556.4688,437.8594 2556.4688,438.1563 C2556.4688,438.4219 2556.6094,438.6719 2556.8281,438.8281 C2556.9688,438.9531 2557.2031,439 2557.5938,439 L2565.5938,439 L2565.5938,436.4219 C2565.5938,435.9844 2565.5625,435.8438 2565.4844,435.6875 C2565.3125,435.4375 2565.0313,435.2813 2564.75,435.2813 C2564.4844,435.2813 2564.2188,435.3906 2564.0469,435.6406 C2563.9375,435.7969 2563.9063,435.9375 2563.9063,436.4219 L2563.9063,437.2969 L2559.5469,437.2969 L2559.5469,434.875 Z "
        fill="#000000"/>
      <text fill="#000000" font-family="sans-serif" font-size="14" lengthAdjust="spacing"
            textLength="132" x="2581.25" y="438.8467">ReservationStatus
      </text>
      <line style="stroke:#181818;stroke-width:0.5;" x1="2451.5" x2="2810.5" y1="450" y2="450"/>
      <text fill="#000000" font-family="sans-serif" font-size="14" lengthAdjust="spacing"
            textLength="53" x="2456.5" y="466.9951">SUBMIT
      </text>
      <text fill="#000000" font-family="sans-serif" font-size="14" lengthAdjust="spacing"
            textLength="65" x="2456.5" y="483.292">CONFIRM
      </text>
      <text fill="#000000" font-family="sans-serif" font-size="14" lengthAdjust="spacing"
            textLength="46" x="2456.5" y="499.5889">RESET
      </text>
      <line style="stroke:#181818;stroke-width:0.5;" x1="2451.5" x2="2810.5" y1="506.8906"
            y2="506.8906"/>
      <ellipse cx="2461.5" cy="520.5391" fill="#84BE84" rx="3" ry="3"
               style="stroke:#038048;stroke-width:1.0;"/>
      <text fill="#000000" font-family="sans-serif" font-size="14" lengthAdjust="spacing"
            text-decoration="underline" textLength="335" x="2470.5" y="523.8857">EnumEntries&lt;ReservationStatus&gt;
        getEntries()
      </text>
    </g><!--class Trip-->
    <g id="elem_Trip">
      <rect codeLine="54" fill="#F1F1F1" height="162.0781" id="Trip" rx="2.5" ry="2.5"
            style="stroke:#181818;stroke-width:0.5;" width="226" x="70" y="127"/>
      <ellipse cx="164.25" cy="143" fill="#ADD1B2" rx="11" ry="11"
               style="stroke:#181818;stroke-width:1.0;"/>
      <path
        d="M166.5938,138.6719 C165.6563,138.2344 165.0625,138.0938 164.1875,138.0938 C161.5625,138.0938 159.5625,140.1719 159.5625,142.8906 L159.5625,144.0156 C159.5625,146.5938 161.6719,148.4844 164.5625,148.4844 C165.7813,148.4844 166.9375,148.1875 167.6875,147.6406 C168.2656,147.2344 168.5938,146.7813 168.5938,146.3906 C168.5938,145.9375 168.2031,145.5469 167.7344,145.5469 C167.5156,145.5469 167.3125,145.625 167.125,145.8125 C166.6719,146.2969 166.6719,146.2969 166.4844,146.3906 C166.0625,146.6563 165.375,146.7813 164.6094,146.7813 C162.5625,146.7813 161.2656,145.6875 161.2656,143.9844 L161.2656,142.8906 C161.2656,141.1094 162.5156,139.7969 164.25,139.7969 C164.8281,139.7969 165.4375,139.9531 165.9063,140.2031 C166.3906,140.4844 166.5625,140.7031 166.6563,141.1094 C166.7188,141.5156 166.75,141.6406 166.8906,141.7656 C167.0313,141.9063 167.2656,142.0156 167.4844,142.0156 C167.75,142.0156 168.0156,141.875 168.1875,141.6563 C168.2969,141.5 168.3281,141.3125 168.3281,140.8906 L168.3281,139.4688 C168.3281,139.0313 168.3125,138.9063 168.2188,138.75 C168.0625,138.4844 167.7813,138.3438 167.4844,138.3438 C167.1875,138.3438 166.9844,138.4375 166.7656,138.75 L166.5938,138.6719 Z "
        fill="#000000"/>
      <text fill="#000000" font-family="sans-serif" font-size="14" lengthAdjust="spacing"
            textLength="29" x="184.75" y="147.8467">Trip
      </text>
      <line style="stroke:#181818;stroke-width:0.5;" x1="71" x2="295" y1="159" y2="159"/>
      <line style="stroke:#181818;stroke-width:0.5;" x1="71" x2="295" y1="167" y2="167"/>
      <ellipse cx="81" cy="180.6484" fill="#84BE84" rx="3" ry="3"
               style="stroke:#038048;stroke-width:1.0;"/>
      <text fill="#000000" font-family="sans-serif" font-size="14" lengthAdjust="spacing"
            textLength="94" x="90" y="183.9951">TripId getId()
      </text>
      <ellipse cx="81" cy="196.9453" fill="#84BE84" rx="3" ry="3"
               style="stroke:#038048;stroke-width:1.0;"/>
      <text fill="#000000" font-family="sans-serif" font-size="14" lengthAdjust="spacing"
            textLength="135" x="90" y="200.292">Station getOrigin()
      </text>
      <ellipse cx="81" cy="213.2422" fill="#84BE84" rx="3" ry="3"
               style="stroke:#038048;stroke-width:1.0;"/>
      <text fill="#000000" font-family="sans-serif" font-size="14" lengthAdjust="spacing"
            textLength="176" x="90" y="216.5889">Station getDestination()
      </text>
      <ellipse cx="81" cy="229.5391" fill="#84BE84" rx="3" ry="3"
               style="stroke:#038048;stroke-width:1.0;"/>
      <text fill="#000000" font-family="sans-serif" font-size="14" lengthAdjust="spacing"
            textLength="200" x="90" y="232.8857">List&lt;Station&gt; getStations()
      </text>
      <ellipse cx="81" cy="245.8359" fill="#84BE84" rx="3" ry="3"
               style="stroke:#038048;stroke-width:1.0;"/>
      <text fill="#000000" font-family="sans-serif" font-size="14" lengthAdjust="spacing"
            textLength="111" x="90" y="249.1826">Train getTrain()
      </text>
      <ellipse cx="81" cy="262.1328" fill="#84BE84" rx="3" ry="3"
               style="stroke:#038048;stroke-width:1.0;"/>
      <text fill="#000000" font-family="sans-serif" font-size="14" lengthAdjust="spacing"
            textLength="105" x="90" y="265.4795">Seat getSeat()
      </text>
      <ellipse cx="81" cy="278.4297" fill="#84BE84" rx="3" ry="3"
               style="stroke:#038048;stroke-width:1.0;"/>
      <text fill="#000000" font-family="sans-serif" font-size="14" lengthAdjust="spacing"
            textLength="137" x="90" y="281.7764">Wagon getWagon()
      </text>
    </g><!--class TripId-->
    <g id="elem_TripId">
      <rect codeLine="63" fill="#F1F1F1" height="64.2969" id="TripId" rx="2.5" ry="2.5"
            style="stroke:#181818;stroke-width:0.5;" width="111" x="127.5" y="442.5"/>
      <ellipse cx="159.15" cy="458.5" fill="#ADD1B2" rx="11" ry="11"
               style="stroke:#181818;stroke-width:1.0;"/>
      <path
        d="M161.4938,454.1719 C160.5563,453.7344 159.9625,453.5938 159.0875,453.5938 C156.4625,453.5938 154.4625,455.6719 154.4625,458.3906 L154.4625,459.5156 C154.4625,462.0938 156.5719,463.9844 159.4625,463.9844 C160.6813,463.9844 161.8375,463.6875 162.5875,463.1406 C163.1656,462.7344 163.4938,462.2813 163.4938,461.8906 C163.4938,461.4375 163.1031,461.0469 162.6344,461.0469 C162.4156,461.0469 162.2125,461.125 162.025,461.3125 C161.5719,461.7969 161.5719,461.7969 161.3844,461.8906 C160.9625,462.1563 160.275,462.2813 159.5094,462.2813 C157.4625,462.2813 156.1656,461.1875 156.1656,459.4844 L156.1656,458.3906 C156.1656,456.6094 157.4156,455.2969 159.15,455.2969 C159.7281,455.2969 160.3375,455.4531 160.8063,455.7031 C161.2906,455.9844 161.4625,456.2031 161.5563,456.6094 C161.6188,457.0156 161.65,457.1406 161.7906,457.2656 C161.9313,457.4063 162.1656,457.5156 162.3844,457.5156 C162.65,457.5156 162.9156,457.375 163.0875,457.1563 C163.1969,457 163.2281,456.8125 163.2281,456.3906 L163.2281,454.9688 C163.2281,454.5313 163.2125,454.4063 163.1188,454.25 C162.9625,453.9844 162.6813,453.8438 162.3844,453.8438 C162.0875,453.8438 161.8844,453.9375 161.6656,454.25 L161.4938,454.1719 Z "
        fill="#000000"/>
      <text fill="#000000" font-family="sans-serif" font-size="14" lengthAdjust="spacing"
            textLength="42" x="176.85" y="463.3467">TripId
      </text>
      <line style="stroke:#181818;stroke-width:0.5;" x1="128.5" x2="237.5" y1="474.5" y2="474.5"/>
      <line style="stroke:#181818;stroke-width:0.5;" x1="128.5" x2="237.5" y1="482.5" y2="482.5"/>
      <ellipse cx="138.5" cy="496.1484" fill="#84BE84" rx="3" ry="3"
               style="stroke:#038048;stroke-width:1.0;"/>
      <text fill="#000000" font-family="sans-serif" font-size="14" lengthAdjust="spacing"
            textLength="85" x="147.5" y="499.4951">UUID getId()
      </text>
    </g><!--class Station-->
    <g id="elem_Station">
      <rect codeLine="66" fill="#F1F1F1" height="80.5938" id="Station" rx="2.5" ry="2.5"
            style="stroke:#181818;stroke-width:0.5;" width="150" x="352" y="434"/>
      <ellipse cx="396.25" cy="450" fill="#ADD1B2" rx="11" ry="11"
               style="stroke:#181818;stroke-width:1.0;"/>
      <path
        d="M398.5938,445.6719 C397.6563,445.2344 397.0625,445.0938 396.1875,445.0938 C393.5625,445.0938 391.5625,447.1719 391.5625,449.8906 L391.5625,451.0156 C391.5625,453.5938 393.6719,455.4844 396.5625,455.4844 C397.7813,455.4844 398.9375,455.1875 399.6875,454.6406 C400.2656,454.2344 400.5938,453.7813 400.5938,453.3906 C400.5938,452.9375 400.2031,452.5469 399.7344,452.5469 C399.5156,452.5469 399.3125,452.625 399.125,452.8125 C398.6719,453.2969 398.6719,453.2969 398.4844,453.3906 C398.0625,453.6563 397.375,453.7813 396.6094,453.7813 C394.5625,453.7813 393.2656,452.6875 393.2656,450.9844 L393.2656,449.8906 C393.2656,448.1094 394.5156,446.7969 396.25,446.7969 C396.8281,446.7969 397.4375,446.9531 397.9063,447.2031 C398.3906,447.4844 398.5625,447.7031 398.6563,448.1094 C398.7188,448.5156 398.75,448.6406 398.8906,448.7656 C399.0313,448.9063 399.2656,449.0156 399.4844,449.0156 C399.75,449.0156 400.0156,448.875 400.1875,448.6563 C400.2969,448.5 400.3281,448.3125 400.3281,447.8906 L400.3281,446.4688 C400.3281,446.0313 400.3125,445.9063 400.2188,445.75 C400.0625,445.4844 399.7813,445.3438 399.4844,445.3438 C399.1875,445.3438 398.9844,445.4375 398.7656,445.75 L398.5938,445.6719 Z "
        fill="#000000"/>
      <text fill="#000000" font-family="sans-serif" font-size="14" lengthAdjust="spacing"
            textLength="53" x="416.75" y="454.8467">Station
      </text>
      <line style="stroke:#181818;stroke-width:0.5;" x1="353" x2="501" y1="466" y2="466"/>
      <line style="stroke:#181818;stroke-width:0.5;" x1="353" x2="501" y1="474" y2="474"/>
      <ellipse cx="363" cy="487.6484" fill="#84BE84" rx="3" ry="3"
               style="stroke:#038048;stroke-width:1.0;"/>
      <text fill="#000000" font-family="sans-serif" font-size="14" lengthAdjust="spacing"
            textLength="118" x="372" y="490.9951">StationId getId()
      </text>
      <ellipse cx="363" cy="503.9453" fill="#84BE84" rx="3" ry="3"
               style="stroke:#038048;stroke-width:1.0;"/>
      <text fill="#000000" font-family="sans-serif" font-size="14" lengthAdjust="spacing"
            textLength="124" x="372" y="507.292">String getName()
      </text>
    </g><!--class StationId-->
    <g id="elem_StationId">
      <rect codeLine="70" fill="#F1F1F1" height="64.2969" id="StationId" rx="2.5" ry="2.5"
            style="stroke:#181818;stroke-width:0.5;" width="111" x="371.5" y="603"/>
      <ellipse cx="392.35" cy="619" fill="#ADD1B2" rx="11" ry="11"
               style="stroke:#181818;stroke-width:1.0;"/>
      <path
        d="M394.6938,614.6719 C393.7563,614.2344 393.1625,614.0938 392.2875,614.0938 C389.6625,614.0938 387.6625,616.1719 387.6625,618.8906 L387.6625,620.0156 C387.6625,622.5938 389.7719,624.4844 392.6625,624.4844 C393.8813,624.4844 395.0375,624.1875 395.7875,623.6406 C396.3656,623.2344 396.6938,622.7813 396.6938,622.3906 C396.6938,621.9375 396.3031,621.5469 395.8344,621.5469 C395.6156,621.5469 395.4125,621.625 395.225,621.8125 C394.7719,622.2969 394.7719,622.2969 394.5844,622.3906 C394.1625,622.6563 393.475,622.7813 392.7094,622.7813 C390.6625,622.7813 389.3656,621.6875 389.3656,619.9844 L389.3656,618.8906 C389.3656,617.1094 390.6156,615.7969 392.35,615.7969 C392.9281,615.7969 393.5375,615.9531 394.0063,616.2031 C394.4906,616.4844 394.6625,616.7031 394.7563,617.1094 C394.8188,617.5156 394.85,617.6406 394.9906,617.7656 C395.1313,617.9063 395.3656,618.0156 395.5844,618.0156 C395.85,618.0156 396.1156,617.875 396.2875,617.6563 C396.3969,617.5 396.4281,617.3125 396.4281,616.8906 L396.4281,615.4688 C396.4281,615.0313 396.4125,614.9063 396.3188,614.75 C396.1625,614.4844 395.8813,614.3438 395.5844,614.3438 C395.2875,614.3438 395.0844,614.4375 394.8656,614.75 L394.6938,614.6719 Z "
        fill="#000000"/>
      <text fill="#000000" font-family="sans-serif" font-size="14" lengthAdjust="spacing"
            textLength="66" x="407.65" y="623.8467">StationId
      </text>
      <line style="stroke:#181818;stroke-width:0.5;" x1="372.5" x2="481.5" y1="635" y2="635"/>
      <line style="stroke:#181818;stroke-width:0.5;" x1="372.5" x2="481.5" y1="643" y2="643"/>
      <ellipse cx="382.5" cy="656.6484" fill="#84BE84" rx="3" ry="3"
               style="stroke:#038048;stroke-width:1.0;"/>
      <text fill="#000000" font-family="sans-serif" font-size="14" lengthAdjust="spacing"
            textLength="85" x="391.5" y="659.9951">UUID getId()
      </text>
    </g><!--class Train-->
    <g id="elem_Train">
      <rect codeLine="73" fill="#F1F1F1" height="80.5938" id="Train" rx="2.5" ry="2.5"
            style="stroke:#181818;stroke-width:0.5;" width="150" x="1628" y="434"/>
      <ellipse cx="1680.75" cy="450" fill="#ADD1B2" rx="11" ry="11"
               style="stroke:#181818;stroke-width:1.0;"/>
      <path
        d="M1683.0938,445.6719 C1682.1563,445.2344 1681.5625,445.0938 1680.6875,445.0938 C1678.0625,445.0938 1676.0625,447.1719 1676.0625,449.8906 L1676.0625,451.0156 C1676.0625,453.5938 1678.1719,455.4844 1681.0625,455.4844 C1682.2813,455.4844 1683.4375,455.1875 1684.1875,454.6406 C1684.7656,454.2344 1685.0938,453.7813 1685.0938,453.3906 C1685.0938,452.9375 1684.7031,452.5469 1684.2344,452.5469 C1684.0156,452.5469 1683.8125,452.625 1683.625,452.8125 C1683.1719,453.2969 1683.1719,453.2969 1682.9844,453.3906 C1682.5625,453.6563 1681.875,453.7813 1681.1094,453.7813 C1679.0625,453.7813 1677.7656,452.6875 1677.7656,450.9844 L1677.7656,449.8906 C1677.7656,448.1094 1679.0156,446.7969 1680.75,446.7969 C1681.3281,446.7969 1681.9375,446.9531 1682.4063,447.2031 C1682.8906,447.4844 1683.0625,447.7031 1683.1563,448.1094 C1683.2188,448.5156 1683.25,448.6406 1683.3906,448.7656 C1683.5313,448.9063 1683.7656,449.0156 1683.9844,449.0156 C1684.25,449.0156 1684.5156,448.875 1684.6875,448.6563 C1684.7969,448.5 1684.8281,448.3125 1684.8281,447.8906 L1684.8281,446.4688 C1684.8281,446.0313 1684.8125,445.9063 1684.7188,445.75 C1684.5625,445.4844 1684.2813,445.3438 1683.9844,445.3438 C1683.6875,445.3438 1683.4844,445.4375 1683.2656,445.75 L1683.0938,445.6719 Z "
        fill="#000000"/>
      <text fill="#000000" font-family="sans-serif" font-size="14" lengthAdjust="spacing"
            textLength="36" x="1701.25" y="454.8467">Train
      </text>
      <line style="stroke:#181818;stroke-width:0.5;" x1="1629" x2="1777" y1="466" y2="466"/>
      <line style="stroke:#181818;stroke-width:0.5;" x1="1629" x2="1777" y1="474" y2="474"/>
      <ellipse cx="1639" cy="487.6484" fill="#84BE84" rx="3" ry="3"
               style="stroke:#038048;stroke-width:1.0;"/>
      <text fill="#000000" font-family="sans-serif" font-size="14" lengthAdjust="spacing"
            textLength="88" x="1648" y="490.9951">Train getId()
      </text>
      <ellipse cx="1639" cy="503.9453" fill="#84BE84" rx="3" ry="3"
               style="stroke:#038048;stroke-width:1.0;"/>
      <text fill="#000000" font-family="sans-serif" font-size="14" lengthAdjust="spacing"
            textLength="124" x="1648" y="507.292">String getName()
      </text>
    </g><!--class TrainId-->
    <g id="elem_TrainId">
      <rect codeLine="77" fill="#F1F1F1" height="64.2969" id="TrainId" rx="2.5" ry="2.5"
            style="stroke:#181818;stroke-width:0.5;" width="111" x="1481.5" y="442.5"/>
      <ellipse cx="1510" cy="458.5" fill="#ADD1B2" rx="11" ry="11"
               style="stroke:#181818;stroke-width:1.0;"/>
      <path
        d="M1512.3438,454.1719 C1511.4063,453.7344 1510.8125,453.5938 1509.9375,453.5938 C1507.3125,453.5938 1505.3125,455.6719 1505.3125,458.3906 L1505.3125,459.5156 C1505.3125,462.0938 1507.4219,463.9844 1510.3125,463.9844 C1511.5313,463.9844 1512.6875,463.6875 1513.4375,463.1406 C1514.0156,462.7344 1514.3438,462.2813 1514.3438,461.8906 C1514.3438,461.4375 1513.9531,461.0469 1513.4844,461.0469 C1513.2656,461.0469 1513.0625,461.125 1512.875,461.3125 C1512.4219,461.7969 1512.4219,461.7969 1512.2344,461.8906 C1511.8125,462.1563 1511.125,462.2813 1510.3594,462.2813 C1508.3125,462.2813 1507.0156,461.1875 1507.0156,459.4844 L1507.0156,458.3906 C1507.0156,456.6094 1508.2656,455.2969 1510,455.2969 C1510.5781,455.2969 1511.1875,455.4531 1511.6563,455.7031 C1512.1406,455.9844 1512.3125,456.2031 1512.4063,456.6094 C1512.4688,457.0156 1512.5,457.1406 1512.6406,457.2656 C1512.7813,457.4063 1513.0156,457.5156 1513.2344,457.5156 C1513.5,457.5156 1513.7656,457.375 1513.9375,457.1563 C1514.0469,457 1514.0781,456.8125 1514.0781,456.3906 L1514.0781,454.9688 C1514.0781,454.5313 1514.0625,454.4063 1513.9688,454.25 C1513.8125,453.9844 1513.5313,453.8438 1513.2344,453.8438 C1512.9375,453.8438 1512.7344,453.9375 1512.5156,454.25 L1512.3438,454.1719 Z "
        fill="#000000"/>
      <text fill="#000000" font-family="sans-serif" font-size="14" lengthAdjust="spacing"
            textLength="49" x="1527" y="463.3467">TrainId
      </text>
      <line style="stroke:#181818;stroke-width:0.5;" x1="1482.5" x2="1591.5" y1="474.5" y2="474.5"/>
      <line style="stroke:#181818;stroke-width:0.5;" x1="1482.5" x2="1591.5" y1="482.5" y2="482.5"/>
      <ellipse cx="1492.5" cy="496.1484" fill="#84BE84" rx="3" ry="3"
               style="stroke:#038048;stroke-width:1.0;"/>
      <text fill="#000000" font-family="sans-serif" font-size="14" lengthAdjust="spacing"
            textLength="85" x="1501.5" y="499.4951">UUID getId()
      </text>
    </g><!--class Wagon-->
    <g id="elem_Wagon">
      <rect codeLine="80" fill="#F1F1F1" height="96.8906" id="Wagon" rx="2.5" ry="2.5"
            style="stroke:#181818;stroke-width:0.5;" width="166" x="1217" y="426"/>
      <ellipse cx="1271.25" cy="442" fill="#ADD1B2" rx="11" ry="11"
               style="stroke:#181818;stroke-width:1.0;"/>
      <path
        d="M1273.5938,437.6719 C1272.6563,437.2344 1272.0625,437.0938 1271.1875,437.0938 C1268.5625,437.0938 1266.5625,439.1719 1266.5625,441.8906 L1266.5625,443.0156 C1266.5625,445.5938 1268.6719,447.4844 1271.5625,447.4844 C1272.7813,447.4844 1273.9375,447.1875 1274.6875,446.6406 C1275.2656,446.2344 1275.5938,445.7813 1275.5938,445.3906 C1275.5938,444.9375 1275.2031,444.5469 1274.7344,444.5469 C1274.5156,444.5469 1274.3125,444.625 1274.125,444.8125 C1273.6719,445.2969 1273.6719,445.2969 1273.4844,445.3906 C1273.0625,445.6563 1272.375,445.7813 1271.6094,445.7813 C1269.5625,445.7813 1268.2656,444.6875 1268.2656,442.9844 L1268.2656,441.8906 C1268.2656,440.1094 1269.5156,438.7969 1271.25,438.7969 C1271.8281,438.7969 1272.4375,438.9531 1272.9063,439.2031 C1273.3906,439.4844 1273.5625,439.7031 1273.6563,440.1094 C1273.7188,440.5156 1273.75,440.6406 1273.8906,440.7656 C1274.0313,440.9063 1274.2656,441.0156 1274.4844,441.0156 C1274.75,441.0156 1275.0156,440.875 1275.1875,440.6563 C1275.2969,440.5 1275.3281,440.3125 1275.3281,439.8906 L1275.3281,438.4688 C1275.3281,438.0313 1275.3125,437.9063 1275.2188,437.75 C1275.0625,437.4844 1274.7813,437.3438 1274.4844,437.3438 C1274.1875,437.3438 1273.9844,437.4375 1273.7656,437.75 L1273.5938,437.6719 Z "
        fill="#000000"/>
      <text fill="#000000" font-family="sans-serif" font-size="14" lengthAdjust="spacing"
            textLength="49" x="1291.75" y="446.8467">Wagon
      </text>
      <line style="stroke:#181818;stroke-width:0.5;" x1="1218" x2="1382" y1="458" y2="458"/>
      <line style="stroke:#181818;stroke-width:0.5;" x1="1218" x2="1382" y1="466" y2="466"/>
      <ellipse cx="1228" cy="479.6484" fill="#84BE84" rx="3" ry="3"
               style="stroke:#038048;stroke-width:1.0;"/>
      <text fill="#000000" font-family="sans-serif" font-size="14" lengthAdjust="spacing"
            textLength="101" x="1237" y="482.9951">Wagon getId()
      </text>
      <ellipse cx="1228" cy="495.9453" fill="#84BE84" rx="3" ry="3"
               style="stroke:#038048;stroke-width:1.0;"/>
      <text fill="#000000" font-family="sans-serif" font-size="14" lengthAdjust="spacing"
            textLength="124" x="1237" y="499.292">String getName()
      </text>
      <ellipse cx="1228" cy="512.2422" fill="#84BE84" rx="3" ry="3"
               style="stroke:#038048;stroke-width:1.0;"/>
      <text fill="#000000" font-family="sans-serif" font-size="14" lengthAdjust="spacing"
            textLength="140" x="1237" y="515.5889">String getNumber()
      </text>
    </g><!--class WagonId-->
    <g id="elem_WagonId">
      <rect codeLine="85" fill="#F1F1F1" height="64.2969" id="WagonId" rx="2.5" ry="2.5"
            style="stroke:#181818;stroke-width:0.5;" width="111" x="1070.5" y="442.5"/>
      <ellipse cx="1093.15" cy="458.5" fill="#ADD1B2" rx="11" ry="11"
               style="stroke:#181818;stroke-width:1.0;"/>
      <path
        d="M1095.4938,454.1719 C1094.5563,453.7344 1093.9625,453.5938 1093.0875,453.5938 C1090.4625,453.5938 1088.4625,455.6719 1088.4625,458.3906 L1088.4625,459.5156 C1088.4625,462.0938 1090.5719,463.9844 1093.4625,463.9844 C1094.6813,463.9844 1095.8375,463.6875 1096.5875,463.1406 C1097.1656,462.7344 1097.4938,462.2813 1097.4938,461.8906 C1097.4938,461.4375 1097.1031,461.0469 1096.6344,461.0469 C1096.4156,461.0469 1096.2125,461.125 1096.025,461.3125 C1095.5719,461.7969 1095.5719,461.7969 1095.3844,461.8906 C1094.9625,462.1563 1094.275,462.2813 1093.5094,462.2813 C1091.4625,462.2813 1090.1656,461.1875 1090.1656,459.4844 L1090.1656,458.3906 C1090.1656,456.6094 1091.4156,455.2969 1093.15,455.2969 C1093.7281,455.2969 1094.3375,455.4531 1094.8063,455.7031 C1095.2906,455.9844 1095.4625,456.2031 1095.5563,456.6094 C1095.6188,457.0156 1095.65,457.1406 1095.7906,457.2656 C1095.9313,457.4063 1096.1656,457.5156 1096.3844,457.5156 C1096.65,457.5156 1096.9156,457.375 1097.0875,457.1563 C1097.1969,457 1097.2281,456.8125 1097.2281,456.3906 L1097.2281,454.9688 C1097.2281,454.5313 1097.2125,454.4063 1097.1188,454.25 C1096.9625,453.9844 1096.6813,453.8438 1096.3844,453.8438 C1096.0875,453.8438 1095.8844,453.9375 1095.6656,454.25 L1095.4938,454.1719 Z "
        fill="#000000"/>
      <text fill="#000000" font-family="sans-serif" font-size="14" lengthAdjust="spacing"
            textLength="62" x="1108.85" y="463.3467">WagonId
      </text>
      <line style="stroke:#181818;stroke-width:0.5;" x1="1071.5" x2="1180.5" y1="474.5" y2="474.5"/>
      <line style="stroke:#181818;stroke-width:0.5;" x1="1071.5" x2="1180.5" y1="482.5" y2="482.5"/>
      <ellipse cx="1081.5" cy="496.1484" fill="#84BE84" rx="3" ry="3"
               style="stroke:#038048;stroke-width:1.0;"/>
      <text fill="#000000" font-family="sans-serif" font-size="14" lengthAdjust="spacing"
            textLength="85" x="1090.5" y="499.4951">UUID getId()
      </text>
    </g><!--class Seat-->
    <g id="elem_Seat">
      <rect codeLine="88" fill="#F1F1F1" height="80.5938" id="Seat" rx="2.5" ry="2.5"
            style="stroke:#181818;stroke-width:0.5;" width="150" x="846" y="434"/>
      <ellipse cx="900.25" cy="450" fill="#ADD1B2" rx="11" ry="11"
               style="stroke:#181818;stroke-width:1.0;"/>
      <path
        d="M902.5938,445.6719 C901.6563,445.2344 901.0625,445.0938 900.1875,445.0938 C897.5625,445.0938 895.5625,447.1719 895.5625,449.8906 L895.5625,451.0156 C895.5625,453.5938 897.6719,455.4844 900.5625,455.4844 C901.7813,455.4844 902.9375,455.1875 903.6875,454.6406 C904.2656,454.2344 904.5938,453.7813 904.5938,453.3906 C904.5938,452.9375 904.2031,452.5469 903.7344,452.5469 C903.5156,452.5469 903.3125,452.625 903.125,452.8125 C902.6719,453.2969 902.6719,453.2969 902.4844,453.3906 C902.0625,453.6563 901.375,453.7813 900.6094,453.7813 C898.5625,453.7813 897.2656,452.6875 897.2656,450.9844 L897.2656,449.8906 C897.2656,448.1094 898.5156,446.7969 900.25,446.7969 C900.8281,446.7969 901.4375,446.9531 901.9063,447.2031 C902.3906,447.4844 902.5625,447.7031 902.6563,448.1094 C902.7188,448.5156 902.75,448.6406 902.8906,448.7656 C903.0313,448.9063 903.2656,449.0156 903.4844,449.0156 C903.75,449.0156 904.0156,448.875 904.1875,448.6563 C904.2969,448.5 904.3281,448.3125 904.3281,447.8906 L904.3281,446.4688 C904.3281,446.0313 904.3125,445.9063 904.2188,445.75 C904.0625,445.4844 903.7813,445.3438 903.4844,445.3438 C903.1875,445.3438 902.9844,445.4375 902.7656,445.75 L902.5938,445.6719 Z "
        fill="#000000"/>
      <text fill="#000000" font-family="sans-serif" font-size="14" lengthAdjust="spacing"
            textLength="33" x="920.75" y="454.8467">Seat
      </text>
      <line style="stroke:#181818;stroke-width:0.5;" x1="847" x2="995" y1="466" y2="466"/>
      <line style="stroke:#181818;stroke-width:0.5;" x1="847" x2="995" y1="474" y2="474"/>
      <ellipse cx="857" cy="487.6484" fill="#84BE84" rx="3" ry="3"
               style="stroke:#038048;stroke-width:1.0;"/>
      <text fill="#000000" font-family="sans-serif" font-size="14" lengthAdjust="spacing"
            textLength="85" x="866" y="490.9951">Seat getId()
      </text>
      <ellipse cx="857" cy="503.9453" fill="#84BE84" rx="3" ry="3"
               style="stroke:#038048;stroke-width:1.0;"/>
      <text fill="#000000" font-family="sans-serif" font-size="14" lengthAdjust="spacing"
            textLength="124" x="866" y="507.292">String getName()
      </text>
    </g><!--class SeatId-->
    <g id="elem_SeatId">
      <rect codeLine="92" fill="#F1F1F1" height="64.2969" id="SeatId" rx="2.5" ry="2.5"
            style="stroke:#181818;stroke-width:0.5;" width="111" x="699.5" y="442.5"/>
      <ellipse cx="729.35" cy="458.5" fill="#ADD1B2" rx="11" ry="11"
               style="stroke:#181818;stroke-width:1.0;"/>
      <path
        d="M731.6938,454.1719 C730.7563,453.7344 730.1625,453.5938 729.2875,453.5938 C726.6625,453.5938 724.6625,455.6719 724.6625,458.3906 L724.6625,459.5156 C724.6625,462.0938 726.7719,463.9844 729.6625,463.9844 C730.8813,463.9844 732.0375,463.6875 732.7875,463.1406 C733.3656,462.7344 733.6938,462.2813 733.6938,461.8906 C733.6938,461.4375 733.3031,461.0469 732.8344,461.0469 C732.6156,461.0469 732.4125,461.125 732.225,461.3125 C731.7719,461.7969 731.7719,461.7969 731.5844,461.8906 C731.1625,462.1563 730.475,462.2813 729.7094,462.2813 C727.6625,462.2813 726.3656,461.1875 726.3656,459.4844 L726.3656,458.3906 C726.3656,456.6094 727.6156,455.2969 729.35,455.2969 C729.9281,455.2969 730.5375,455.4531 731.0063,455.7031 C731.4906,455.9844 731.6625,456.2031 731.7563,456.6094 C731.8188,457.0156 731.85,457.1406 731.9906,457.2656 C732.1313,457.4063 732.3656,457.5156 732.5844,457.5156 C732.85,457.5156 733.1156,457.375 733.2875,457.1563 C733.3969,457 733.4281,456.8125 733.4281,456.3906 L733.4281,454.9688 C733.4281,454.5313 733.4125,454.4063 733.3188,454.25 C733.1625,453.9844 732.8813,453.8438 732.5844,453.8438 C732.2875,453.8438 732.0844,453.9375 731.8656,454.25 L731.6938,454.1719 Z "
        fill="#000000"/>
      <text fill="#000000" font-family="sans-serif" font-size="14" lengthAdjust="spacing"
            textLength="46" x="746.65" y="463.3467">SeatId
      </text>
      <line style="stroke:#181818;stroke-width:0.5;" x1="700.5" x2="809.5" y1="474.5" y2="474.5"/>
      <line style="stroke:#181818;stroke-width:0.5;" x1="700.5" x2="809.5" y1="482.5" y2="482.5"/>
      <ellipse cx="710.5" cy="496.1484" fill="#84BE84" rx="3" ry="3"
               style="stroke:#038048;stroke-width:1.0;"/>
      <text fill="#000000" font-family="sans-serif" font-size="14" lengthAdjust="spacing"
            textLength="85" x="719.5" y="499.4951">UUID getId()
      </text>
    </g><!--link Reservation to ReservationId-->
    <g id="link_Reservation_ReservationId">
      <path codeLine="95" d="M2407,248.766 C2407,301.84 2407,387.543 2407,436.124 " fill="none"
            id="Reservation-to-ReservationId" style="stroke:#181818;stroke-width:1.0;"/>
      <polygon fill="#181818"
               points="2407,442.124,2411,433.124,2407,437.124,2403,433.124,2407,442.124"
               style="stroke:#181818;stroke-width:1.0;"/>
    </g><!--link Reservation to ReservationStatus-->
    <g id="link_Reservation_ReservationStatus">
      <path codeLine="96" d="M2546,248.766 C2546,293.967 2546,361.185 2546,411.922 " fill="none"
            id="Reservation-to-ReservationStatus" style="stroke:#181818;stroke-width:1.0;"/>
      <polygon fill="#181818"
               points="2546,417.922,2550,408.922,2546,412.922,2542,408.922,2546,417.922"
               style="stroke:#181818;stroke-width:1.0;"/>
    </g><!--link Trip to TripId-->
    <g id="link_Trip_TripId">
      <path codeLine="97" d="M183,289.044 C183,340.651 183,398.668 183,436.4 " fill="none"
            id="Trip-to-TripId" style="stroke:#181818;stroke-width:1.0;"/>
      <polygon fill="#181818" points="183,442.4,187,433.4,183,437.4,179,433.4,183,442.4"
               style="stroke:#181818;stroke-width:1.0;"/>
    </g><!--link Trip to Station-->
    <g id="link_Trip_Station">
      <path codeLine="98"
            d="M257.667,289.117 C257.667,355.677 257.667,439 257.667,439 C257.667,439 300.517,439 345.742,439 "
            fill="none" id="Trip-to-Station" style="stroke:#181818;stroke-width:1.0;"/>
      <polygon fill="#181818" points="351.742,439,342.742,435,346.742,439,342.742,443,351.742,439"
               style="stroke:#181818;stroke-width:1.0;"/>
    </g><!--link Trip to Seat-->
    <g id="link_Trip_Seat">
      <path codeLine="99"
            d="M296.405,284 C508.953,284 946,284 946,284 C946,284 946,371.658 946,427.633 "
            fill="none" id="Trip-to-Seat" style="stroke:#181818;stroke-width:1.0;"/>
      <polygon fill="#181818" points="946,433.633,950,424.633,946,428.633,942,424.633,946,433.633"
               style="stroke:#181818;stroke-width:1.0;"/>
    </g><!--link Trip to Train-->
    <g id="link_Trip_Train">
      <path codeLine="100"
            d="M296.294,278 C652.777,278 1728,278 1728,278 C1728,278 1728,370.229 1728,427.785 "
            fill="none" id="Trip-to-Train" style="stroke:#181818;stroke-width:1.0;"/>
      <polygon fill="#181818"
               points="1728,433.785,1732,424.785,1728,428.785,1724,424.785,1728,433.785"
               style="stroke:#181818;stroke-width:1.0;"/>
    </g><!--link Trip to Wagon-->
    <g id="link_Trip_Wagon">
      <path codeLine="101"
            d="M276.833,289.037 C276.833,352.111 276.833,429 276.833,429 C276.833,429 966.732,429 1210.7,429 "
            fill="none" id="Trip-to-Wagon" style="stroke:#181818;stroke-width:1.0;"/>
      <polygon fill="#181818" points="1216.7,429,1207.7,425,1211.7,429,1207.7,433,1216.7,429"
               style="stroke:#181818;stroke-width:1.0;"/>
    </g><!--link Station to StationId-->
    <g id="link_Station_StationId">
      <path codeLine="102" d="M427,515.001 C427,542.21 427,571.576 427,596.852 " fill="none"
            id="Station-to-StationId" style="stroke:#181818;stroke-width:1.0;"/>
      <polygon fill="#181818" points="427,602.852,431,593.852,427,597.852,423,593.852,427,602.852"
               style="stroke:#181818;stroke-width:1.0;"/>
    </g><!--link Train to Train-->
    <g id="link_Train_Train">
      <path codeLine="103"
            d="M1678,433.794 C1678,431.437 1678,430 1678,430 C1678,430 1610.25,430 1610.25,430 C1610.25,430 1610.25,519 1610.25,519 C1610.25,519 1703,519 1703,519 C1703,519 1703,523.563 1703,521.206 "
            fill="none" id="Train-to-Train" style="stroke:#181818;stroke-width:1.0;"/>
      <polygon fill="#181818"
               points="1703,515.206,1699,524.206,1703,520.206,1707,524.206,1703,515.206"
               style="stroke:#181818;stroke-width:1.0;"/>
    </g><!--link Wagon to Wagon-->
    <g id="link_Wagon_Wagon">
      <path codeLine="104"
            d="M1300,425.776 C1300,423.413 1300,422 1300,422 C1300,422 1199.25,422 1199.25,422 C1199.25,422 1199.25,527 1199.25,527 C1199.25,527 1300,527 1300,527 C1300,527 1300,531.587 1300,529.224 "
            fill="none" id="Wagon-to-Wagon" style="stroke:#181818;stroke-width:1.0;"/>
      <polygon fill="#181818"
               points="1300,523.224,1296,532.224,1300,528.224,1304,532.224,1300,523.224"
               style="stroke:#181818;stroke-width:1.0;"/>
    </g><!--link Seat to Seat-->
    <g id="link_Seat_Seat">
      <path codeLine="105"
            d="M896,433.826 C896,432.664 896,432 896,432 C896,432 828.25,432 828.25,432 C828.25,432 828.25,519 828.25,519 C828.25,519 921,519 921,519 C921,519 921,523.563 921,521.206 "
            fill="none" id="Seat-to-Seat" style="stroke:#181818;stroke-width:1.0;"/>
      <polygon fill="#181818" points="921,515.206,917,524.206,921,520.206,925,524.206,921,515.206"
               style="stroke:#181818;stroke-width:1.0;"/>
    </g><!--SRC=[vLTDRwCm4BtpAxpqqjMgrbuhLJbqcvKYRTjLqcgFbG53h096jaaLeVptzGT9WH92TnkmcbESyJ3ptlWnZBza34K90Zd7irHWbk20885_8_yPHPY34CKSE_oPf1bYA04nIR5OPnXG9fRKuKlw0hXy3bDbTJBp70Z82ZCE40S1Xe47LpWDACmO5TeFUhc_pDC8CimnMo51Q0hBPyvY4Ys55-SO59jTG1IWJFnZIBXxk3ssvFxa8ux_BpXy3NCMXfVeyhAQ0wU22F9XAU0kNakkIeIFJbTrRqljqJmD45iVCo_S9Ma1uDDKC1eFaXzka-qxx_MWC62Pyopqmy3xNaKZ6CcEYaKd64iFAldeegY165aPhLWwvC75qPk5mRHDDAfIIX1sAAO9nWRbxCFKsM0G6K0_9isewj4GxD1E7OeDocb7rA6R5nJHeNG3JJ8BrAE1sAIXEY1xbDIEg-jBXf4O5fpEQ8sc51hxX5L3PPkwMi6rICmXwduS8Xy3T_uQS8upoecWREqEE-stOW250y0tK22FIuw-sDndoW75LnNt2GX96bolpoksMV2ryMHb4t2qmbNlfk-AaW3mt4k8EEWcyOU49GVz5Fb6j8tZnuZpMltTCUvOrUARajTA2I8iPi7vryR6GivLELURPdNUpcWMZCv9Kj2i7XzdDpio6mUdULA3QdYC3hSih8AyUBo-dJt8nO_xkv-p-QrSpQUBgR8yFHcPwV7MtqmbcQcCAFDTlOarKQpBtUenFSZkuOvsTuCglJaPjQeBRL7UhQJfdf68f6_CDvWBakg_PkyNuUAgT9XiTIdNt6m_w6bRclMY3AS-TyfJ_XhB7prLIPDUD8jrR34VBDSUAPSGIyBkw9Sgk3sded9epGDc98sKvGubk8N58BNkoQExx5fGxiZt4MZqNTIaVhZOsdMGKlT0trrc_KQwLWphqBI9ejOnzXQxRiiJ3xCtl0OyWXxC3hGPsIrTUyPQgBjuKUtdFPgCz1oyvWTPxAdxg0FXnSLavEdjjFcR4SuPSKGxQWLwZ3oVctlF4UHp5-5TNV8KIj4v9vsE5Zgd5CUEEuurBUBedRBF1UGKNf3-DuJJULlUDwrRzaNv2m00]-->
  </g>
</svg>