<?xml version="1.0" encoding="us-ascii" standalone="no"?>
<svg xmlns="http://www.w3.org/2000/svg"
     contentStyleType="text/css" height="971px" preserveAspectRatio="none"
     style="width:2523px;height:971px;background:#FFFFFF;" version="1.1" viewBox="0 0 2523 971"
     width="2523px" zoomAndPan="magnify">
  <defs/>
  <g><!--cluster reservation-->
    <g id="cluster_reservation">
      <path
        d="M8.5,6 L748.5,6 A3.75,3.75 0 0 1 751,8.5 L758,28.2969 L2513.5,28.2969 A2.5,2.5 0 0 1 2516,30.7969 L2516,961.5 A2.5,2.5 0 0 1 2513.5,964 L8.5,964 A2.5,2.5 0 0 1 6,961.5 L6,8.5 A2.5,2.5 0 0 1 8.5,6 "
        fill="none" style="stroke:#000000;stroke-width:1.5;"/>
      <line style="stroke:#000000;stroke-width:1.5;" x1="6" x2="758" y1="28.2969" y2="28.2969"/>
      <text fill="#000000" font-family="sans-serif" font-size="14" font-weight="bold"
            lengthAdjust="spacing" textLength="739" x="10" y="20.9951">
        de.db.vendo.prototype.buchung.reservation.divers.adapters.use_cases.entities.reservation
      </text>
    </g><!--cluster control-->
    <g id="cluster_control">
      <path
        d="M1886.5,108.5 L2027.5,108.5 A3.75,3.75 0 0 1 2030,111 L2037,130.7969 L2489.5,130.7969 A2.5,2.5 0 0 1 2492,133.2969 L2492,937.5 A2.5,2.5 0 0 1 2489.5,940 L1886.5,940 A2.5,2.5 0 0 1 1884,937.5 L1884,111 A2.5,2.5 0 0 1 1886.5,108.5 "
        fill="none" style="stroke:#000000;stroke-width:1.5;"/>
      <line style="stroke:#000000;stroke-width:1.5;" x1="1884" x2="2037" y1="130.7969"
            y2="130.7969"/>
      <text fill="#000000" font-family="sans-serif" font-size="14" font-weight="bold"
            lengthAdjust="spacing" textLength="140" x="1888" y="123.4951">boundary.control
      </text>
    </g><!--cluster entity-->
    <g id="cluster_entity">
      <path
        d="M1910.5,611 L1960.5,611 A3.75,3.75 0 0 1 1963,613.5 L1970,633.2969 L2465.5,633.2969 A2.5,2.5 0 0 1 2468,635.7969 L2468,913.5 A2.5,2.5 0 0 1 2465.5,916 L1910.5,916 A2.5,2.5 0 0 1 1908,913.5 L1908,613.5 A2.5,2.5 0 0 1 1910.5,611 "
        fill="none" style="stroke:#000000;stroke-width:1.5;"/>
      <line style="stroke:#000000;stroke-width:1.5;" x1="1908" x2="1970" y1="633.2969"
            y2="633.2969"/>
      <text fill="#000000" font-family="sans-serif" font-size="14" font-weight="bold"
            lengthAdjust="spacing" textLength="49" x="1912" y="625.9951">entity
      </text>
    </g><!--cluster trip-->
    <g id="cluster_trip">
      <path
        d="M32.5,49 L63.5,49 A3.75,3.75 0 0 1 66,51.5 L73,71.2969 L1857.5,71.2969 A2.5,2.5 0 0 1 1860,73.7969 L1860,756 A2.5,2.5 0 0 1 1857.5,758.5 L32.5,758.5 A2.5,2.5 0 0 1 30,756 L30,51.5 A2.5,2.5 0 0 1 32.5,49 "
        fill="none" style="stroke:#000000;stroke-width:1.5;"/>
      <line style="stroke:#000000;stroke-width:1.5;" x1="30" x2="73" y1="71.2969" y2="71.2969"/>
      <text fill="#000000" font-family="sans-serif" font-size="14" font-weight="bold"
            lengthAdjust="spacing" textLength="30" x="34" y="63.9951">trip
      </text>
    </g><!--cluster entity-->
    <g id="cluster_entity">
      <path
        d="M56.5,92 L251.5,92 A3.75,3.75 0 0 1 254,94.5 L261,114.2969 L309.5,114.2969 A2.5,2.5 0 0 1 312,116.7969 L312,520 A2.5,2.5 0 0 1 309.5,522.5 L56.5,522.5 A2.5,2.5 0 0 1 54,520 L54,94.5 A2.5,2.5 0 0 1 56.5,92 "
        fill="none" style="stroke:#000000;stroke-width:1.5;"/>
      <line style="stroke:#000000;stroke-width:1.5;" x1="54" x2="261" y1="114.2969" y2="114.2969"/>
      <text fill="#000000" font-family="sans-serif" font-size="14" font-weight="bold"
            lengthAdjust="spacing" textLength="194" x="58" y="106.9951">boundary.control.entity
      </text>
    </g><!--cluster entity-->
    <g id="cluster_entity">
      <path
        d="M338.5,399 L598.5,399 A3.75,3.75 0 0 1 601,401.5 L608,421.2969 L608.5,421.2969 A2.5,2.5 0 0 1 611,423.7969 L611,732 A2.5,2.5 0 0 1 608.5,734.5 L338.5,734.5 A2.5,2.5 0 0 1 336,732 L336,401.5 A2.5,2.5 0 0 1 338.5,399 "
        fill="none" style="stroke:#000000;stroke-width:1.5;"/>
      <line style="stroke:#000000;stroke-width:1.5;" x1="336" x2="608" y1="421.2969" y2="421.2969"/>
      <text fill="#000000" font-family="sans-serif" font-size="14" font-weight="bold"
            lengthAdjust="spacing" textLength="259" x="340" y="413.9951">
        station.boundary.control.entity
      </text>
    </g><!--cluster train-->
    <g id="cluster_train">
      <path
        d="M637.5,305 L678.5,305 A3.75,3.75 0 0 1 681,307.5 L688,327.2969 L1833.5,327.2969 A2.5,2.5 0 0 1 1836,329.7969 L1836,584.5 A2.5,2.5 0 0 1 1833.5,587 L637.5,587 A2.5,2.5 0 0 1 635,584.5 L635,307.5 A2.5,2.5 0 0 1 637.5,305 "
        fill="none" style="stroke:#000000;stroke-width:1.5;"/>
      <line style="stroke:#000000;stroke-width:1.5;" x1="635" x2="688" y1="327.2969" y2="327.2969"/>
      <text fill="#000000" font-family="sans-serif" font-size="14" font-weight="bold"
            lengthAdjust="spacing" textLength="40" x="639" y="319.9951">train
      </text>
    </g><!--cluster entity-->
    <g id="cluster_entity">
      <path
        d="M1467.5,399 L1662.5,399 A3.75,3.75 0 0 1 1665,401.5 L1672,421.2969 L1809.5,421.2969 A2.5,2.5 0 0 1 1812,423.7969 L1812,528.5 A2.5,2.5 0 0 1 1809.5,531 L1467.5,531 A2.5,2.5 0 0 1 1465,528.5 L1465,401.5 A2.5,2.5 0 0 1 1467.5,399 "
        fill="none" style="stroke:#000000;stroke-width:1.5;"/>
      <line style="stroke:#000000;stroke-width:1.5;" x1="1465" x2="1672" y1="421.2969"
            y2="421.2969"/>
      <text fill="#000000" font-family="sans-serif" font-size="14" font-weight="bold"
            lengthAdjust="spacing" textLength="194" x="1469" y="413.9951">boundary.control.entity
      </text>
    </g><!--cluster wagon-->
    <g id="cluster_wagon">
      <path
        d="M661.5,348 L715.5,348 A3.75,3.75 0 0 1 718,350.5 L725,370.2969 L1438.5,370.2969 A2.5,2.5 0 0 1 1441,372.7969 L1441,560.5 A2.5,2.5 0 0 1 1438.5,563 L661.5,563 A2.5,2.5 0 0 1 659,560.5 L659,350.5 A2.5,2.5 0 0 1 661.5,348 "
        fill="none" style="stroke:#000000;stroke-width:1.5;"/>
      <line style="stroke:#000000;stroke-width:1.5;" x1="659" x2="725" y1="370.2969" y2="370.2969"/>
      <text fill="#000000" font-family="sans-serif" font-size="14" font-weight="bold"
            lengthAdjust="spacing" textLength="53" x="663" y="362.9951">wagon
      </text>
    </g><!--cluster entity-->
    <g id="cluster_entity">
      <path
        d="M1056.5,391 L1251.5,391 A3.75,3.75 0 0 1 1254,393.5 L1261,413.2969 L1414.5,413.2969 A2.5,2.5 0 0 1 1417,415.7969 L1417,536.5 A2.5,2.5 0 0 1 1414.5,539 L1056.5,539 A2.5,2.5 0 0 1 1054,536.5 L1054,393.5 A2.5,2.5 0 0 1 1056.5,391 "
        fill="none" style="stroke:#000000;stroke-width:1.5;"/>
      <line style="stroke:#000000;stroke-width:1.5;" x1="1054" x2="1261" y1="413.2969"
            y2="413.2969"/>
      <text fill="#000000" font-family="sans-serif" font-size="14" font-weight="bold"
            lengthAdjust="spacing" textLength="194" x="1058" y="405.9951">boundary.control.entity
      </text>
    </g><!--cluster entity-->
    <g id="cluster_entity">
      <path
        d="M685.5,399 L921.5,399 A3.75,3.75 0 0 1 924,401.5 L931,421.2969 L1027.5,421.2969 A2.5,2.5 0 0 1 1030,423.7969 L1030,528.5 A2.5,2.5 0 0 1 1027.5,531 L685.5,531 A2.5,2.5 0 0 1 683,528.5 L683,401.5 A2.5,2.5 0 0 1 685.5,399 "
        fill="none" style="stroke:#000000;stroke-width:1.5;"/>
      <line style="stroke:#000000;stroke-width:1.5;" x1="683" x2="931" y1="421.2969" y2="421.2969"/>
      <text fill="#000000" font-family="sans-serif" font-size="14" font-weight="bold"
            lengthAdjust="spacing" textLength="235" x="687" y="413.9951">
        seat.boundary.control.entity
      </text>
    </g><!--class ReservationRepository-->
    <g id="elem_ReservationRepository">
      <rect codeLine="5" fill="#F1F1F1" height="129.4844" id="ReservationRepository" rx="2.5"
            ry="2.5" style="stroke:#181818;stroke-width:0.5;" width="352" x="1998" y="143.5"/>
      <ellipse cx="2089.25" cy="159.5" fill="#B4A7E5" rx="11" ry="11"
               style="stroke:#181818;stroke-width:1.0;"/>
      <path
        d="M2090.2031,156.2813 L2091.9219,156.2813 C2092.3125,156.2813 2092.5,156.25 2092.625,156.1719 C2092.8906,156.0156 2093.0313,155.7344 2093.0313,155.4375 C2093.0313,155.1719 2092.9219,154.9063 2092.6875,154.7344 C2092.5156,154.625 2092.375,154.5938 2091.9219,154.5938 L2086.7813,154.5938 C2086.3438,154.5938 2086.2188,154.6094 2086.0625,154.7031 C2085.8125,154.8594 2085.6563,155.1563 2085.6563,155.4375 C2085.6563,155.7188 2085.7969,155.9688 2086.0156,156.1406 C2086.1719,156.25 2086.3594,156.2813 2086.7813,156.2813 L2088.5,156.2813 L2088.5,162.7969 L2086.7813,162.7969 C2086.3438,162.7969 2086.2188,162.8125 2086.0625,162.9219 C2085.8125,163.0781 2085.6563,163.3594 2085.6563,163.6563 C2085.6563,163.9063 2085.7969,164.1719 2086.0156,164.3281 C2086.1719,164.4531 2086.375,164.5 2086.7813,164.5 L2091.9219,164.5 C2092.6719,164.5 2093.0313,164.2188 2093.0313,163.6563 C2093.0313,163.375 2092.9219,163.125 2092.6875,162.9531 C2092.5156,162.8281 2092.375,162.7969 2091.9219,162.7969 L2090.2031,162.7969 L2090.2031,156.2813 Z "
        fill="#000000"/>
      <text fill="#000000" font-family="sans-serif" font-size="14" font-style="italic"
            lengthAdjust="spacing" textLength="161" x="2109.75" y="164.3467">ReservationRepository
      </text>
      <line style="stroke:#181818;stroke-width:0.5;" x1="1999" x2="2349" y1="175.5" y2="175.5"/>
      <line style="stroke:#181818;stroke-width:0.5;" x1="1999" x2="2349" y1="183.5" y2="183.5"/>
      <ellipse cx="2009" cy="197.1484" fill="#84BE84" rx="3" ry="3"
               style="stroke:#038048;stroke-width:1.0;"/>
      <text fill="#000000" font-family="sans-serif" font-size="14" font-style="italic"
            lengthAdjust="spacing" textLength="326" x="2018" y="200.4951">Optional&lt;Reservation&gt;
        findBy(ReservationId)
      </text>
      <ellipse cx="2009" cy="213.4453" fill="#84BE84" rx="3" ry="3"
               style="stroke:#038048;stroke-width:1.0;"/>
      <text fill="#000000" font-family="sans-serif" font-size="14" font-style="italic"
            lengthAdjust="spacing" textLength="217" x="2018" y="216.792">Reservation
        save(Reservation)
      </text>
      <ellipse cx="2009" cy="229.7422" fill="#84BE84" rx="3" ry="3"
               style="stroke:#038048;stroke-width:1.0;"/>
      <text fill="#000000" font-family="sans-serif" font-size="14" font-style="italic"
            lengthAdjust="spacing" textLength="190" x="2018" y="233.0889">void submit(ReservationId)
      </text>
      <ellipse cx="2009" cy="246.0391" fill="#84BE84" rx="3" ry="3"
               style="stroke:#038048;stroke-width:1.0;"/>
      <text fill="#000000" font-family="sans-serif" font-size="14" font-style="italic"
            lengthAdjust="spacing" textLength="197" x="2018" y="249.3857">void
        confirm(ReservationId)
      </text>
      <ellipse cx="2009" cy="262.3359" fill="#84BE84" rx="3" ry="3"
               style="stroke:#038048;stroke-width:1.0;"/>
      <text fill="#000000" font-family="sans-serif" font-size="14" font-style="italic"
            lengthAdjust="spacing" textLength="178" x="2018" y="265.6826">void reset(ReservationId)
      </text>
    </g><!--class ReservationRepositoryImpl-->
    <g id="elem_ReservationRepositoryImpl">
      <rect codeLine="12" fill="#F1F1F1" height="129.4844" id="ReservationRepositoryImpl" rx="2.5"
            ry="2.5" style="stroke:#181818;stroke-width:0.5;" width="355" x="1996.5" y="410"/>
      <ellipse cx="2071.25" cy="426" fill="#ADD1B2" rx="11" ry="11"
               style="stroke:#181818;stroke-width:1.0;"/>
      <path
        d="M2073.5938,421.6719 C2072.6563,421.2344 2072.0625,421.0938 2071.1875,421.0938 C2068.5625,421.0938 2066.5625,423.1719 2066.5625,425.8906 L2066.5625,427.0156 C2066.5625,429.5938 2068.6719,431.4844 2071.5625,431.4844 C2072.7813,431.4844 2073.9375,431.1875 2074.6875,430.6406 C2075.2656,430.2344 2075.5938,429.7813 2075.5938,429.3906 C2075.5938,428.9375 2075.2031,428.5469 2074.7344,428.5469 C2074.5156,428.5469 2074.3125,428.625 2074.125,428.8125 C2073.6719,429.2969 2073.6719,429.2969 2073.4844,429.3906 C2073.0625,429.6563 2072.375,429.7813 2071.6094,429.7813 C2069.5625,429.7813 2068.2656,428.6875 2068.2656,426.9844 L2068.2656,425.8906 C2068.2656,424.1094 2069.5156,422.7969 2071.25,422.7969 C2071.8281,422.7969 2072.4375,422.9531 2072.9063,423.2031 C2073.3906,423.4844 2073.5625,423.7031 2073.6563,424.1094 C2073.7188,424.5156 2073.75,424.6406 2073.8906,424.7656 C2074.0313,424.9063 2074.2656,425.0156 2074.4844,425.0156 C2074.75,425.0156 2075.0156,424.875 2075.1875,424.6563 C2075.2969,424.5 2075.3281,424.3125 2075.3281,423.8906 L2075.3281,422.4688 C2075.3281,422.0313 2075.3125,421.9063 2075.2188,421.75 C2075.0625,421.4844 2074.7813,421.3438 2074.4844,421.3438 C2074.1875,421.3438 2073.9844,421.4375 2073.7656,421.75 L2073.5938,421.6719 Z "
        fill="#000000"/>
      <text fill="#000000" font-family="sans-serif" font-size="14" lengthAdjust="spacing"
            textLength="197" x="2091.75" y="430.8467">ReservationRepositoryImpl
      </text>
      <line style="stroke:#181818;stroke-width:0.5;" x1="1997.5" x2="2350.5" y1="442" y2="442"/>
      <line style="stroke:#181818;stroke-width:0.5;" x1="1997.5" x2="2350.5" y1="450" y2="450"/>
      <ellipse cx="2007.5" cy="463.6484" fill="#84BE84" rx="3" ry="3"
               style="stroke:#038048;stroke-width:1.0;"/>
      <text fill="#000000" font-family="sans-serif" font-size="14" lengthAdjust="spacing"
            textLength="329" x="2016.5" y="466.9951">Optional&lt;Reservation&gt;
        findBy(ReservationId)
      </text>
      <ellipse cx="2007.5" cy="479.9453" fill="#84BE84" rx="3" ry="3"
               style="stroke:#038048;stroke-width:1.0;"/>
      <text fill="#000000" font-family="sans-serif" font-size="14" lengthAdjust="spacing"
            textLength="218" x="2016.5" y="483.292">Reservation save(Reservation)
      </text>
      <ellipse cx="2007.5" cy="496.2422" fill="#84BE84" rx="3" ry="3"
               style="stroke:#038048;stroke-width:1.0;"/>
      <text fill="#000000" font-family="sans-serif" font-size="14" lengthAdjust="spacing"
            textLength="193" x="2016.5" y="499.5889">void submit(ReservationId)
      </text>
      <ellipse cx="2007.5" cy="512.5391" fill="#84BE84" rx="3" ry="3"
               style="stroke:#038048;stroke-width:1.0;"/>
      <text fill="#000000" font-family="sans-serif" font-size="14" lengthAdjust="spacing"
            textLength="199" x="2016.5" y="515.8857">void confirm(ReservationId)
      </text>
      <ellipse cx="2007.5" cy="528.8359" fill="#84BE84" rx="3" ry="3"
               style="stroke:#038048;stroke-width:1.0;"/>
      <text fill="#000000" font-family="sans-serif" font-size="14" lengthAdjust="spacing"
            textLength="181" x="2016.5" y="532.1826">void reset(ReservationId)
      </text>
    </g><!--class Reservation-->
    <g id="elem_Reservation">
      <rect codeLine="19" fill="#F1F1F1" height="80.5938" id="Reservation" rx="2.5" ry="2.5"
            style="stroke:#181818;stroke-width:0.5;" width="243" x="2052.5" y="646"/>
      <ellipse cx="2126.75" cy="662" fill="#ADD1B2" rx="11" ry="11"
               style="stroke:#181818;stroke-width:1.0;"/>
      <path
        d="M2129.0938,657.6719 C2128.1563,657.2344 2127.5625,657.0938 2126.6875,657.0938 C2124.0625,657.0938 2122.0625,659.1719 2122.0625,661.8906 L2122.0625,663.0156 C2122.0625,665.5938 2124.1719,667.4844 2127.0625,667.4844 C2128.2813,667.4844 2129.4375,667.1875 2130.1875,666.6406 C2130.7656,666.2344 2131.0938,665.7813 2131.0938,665.3906 C2131.0938,664.9375 2130.7031,664.5469 2130.2344,664.5469 C2130.0156,664.5469 2129.8125,664.625 2129.625,664.8125 C2129.1719,665.2969 2129.1719,665.2969 2128.9844,665.3906 C2128.5625,665.6563 2127.875,665.7813 2127.1094,665.7813 C2125.0625,665.7813 2123.7656,664.6875 2123.7656,662.9844 L2123.7656,661.8906 C2123.7656,660.1094 2125.0156,658.7969 2126.75,658.7969 C2127.3281,658.7969 2127.9375,658.9531 2128.4063,659.2031 C2128.8906,659.4844 2129.0625,659.7031 2129.1563,660.1094 C2129.2188,660.5156 2129.25,660.6406 2129.3906,660.7656 C2129.5313,660.9063 2129.7656,661.0156 2129.9844,661.0156 C2130.25,661.0156 2130.5156,660.875 2130.6875,660.6563 C2130.7969,660.5 2130.8281,660.3125 2130.8281,659.8906 L2130.8281,658.4688 C2130.8281,658.0313 2130.8125,657.9063 2130.7188,657.75 C2130.5625,657.4844 2130.2813,657.3438 2129.9844,657.3438 C2129.6875,657.3438 2129.4844,657.4375 2129.2656,657.75 L2129.0938,657.6719 Z "
        fill="#000000"/>
      <text fill="#000000" font-family="sans-serif" font-size="14" lengthAdjust="spacing"
            textLength="86" x="2147.25" y="666.8467">Reservation
      </text>
      <line style="stroke:#181818;stroke-width:0.5;" x1="2053.5" x2="2294.5" y1="678" y2="678"/>
      <line style="stroke:#181818;stroke-width:0.5;" x1="2053.5" x2="2294.5" y1="686" y2="686"/>
      <ellipse cx="2063.5" cy="699.6484" fill="#84BE84" rx="3" ry="3"
               style="stroke:#038048;stroke-width:1.0;"/>
      <text fill="#000000" font-family="sans-serif" font-size="14" lengthAdjust="spacing"
            textLength="151" x="2072.5" y="702.9951">ReservationId getId()
      </text>
      <ellipse cx="2063.5" cy="715.9453" fill="#84BE84" rx="3" ry="3"
               style="stroke:#038048;stroke-width:1.0;"/>
      <text fill="#000000" font-family="sans-serif" font-size="14" lengthAdjust="spacing"
            textLength="217" x="2072.5" y="719.292">ReservationStatus getStatus()
      </text>
    </g><!--class ReservationId-->
    <g id="elem_ReservationId">
      <rect codeLine="23" fill="#F1F1F1" height="64.2969" id="ReservationId" rx="2.5" ry="2.5"
            style="stroke:#181818;stroke-width:0.5;" width="131" x="1924.5" y="811.5"/>
      <ellipse cx="1939.5" cy="827.5" fill="#ADD1B2" rx="11" ry="11"
               style="stroke:#181818;stroke-width:1.0;"/>
      <path
        d="M1941.8438,823.1719 C1940.9063,822.7344 1940.3125,822.5938 1939.4375,822.5938 C1936.8125,822.5938 1934.8125,824.6719 1934.8125,827.3906 L1934.8125,828.5156 C1934.8125,831.0938 1936.9219,832.9844 1939.8125,832.9844 C1941.0313,832.9844 1942.1875,832.6875 1942.9375,832.1406 C1943.5156,831.7344 1943.8438,831.2813 1943.8438,830.8906 C1943.8438,830.4375 1943.4531,830.0469 1942.9844,830.0469 C1942.7656,830.0469 1942.5625,830.125 1942.375,830.3125 C1941.9219,830.7969 1941.9219,830.7969 1941.7344,830.8906 C1941.3125,831.1563 1940.625,831.2813 1939.8594,831.2813 C1937.8125,831.2813 1936.5156,830.1875 1936.5156,828.4844 L1936.5156,827.3906 C1936.5156,825.6094 1937.7656,824.2969 1939.5,824.2969 C1940.0781,824.2969 1940.6875,824.4531 1941.1563,824.7031 C1941.6406,824.9844 1941.8125,825.2031 1941.9063,825.6094 C1941.9688,826.0156 1942,826.1406 1942.1406,826.2656 C1942.2813,826.4063 1942.5156,826.5156 1942.7344,826.5156 C1943,826.5156 1943.2656,826.375 1943.4375,826.1563 C1943.5469,826 1943.5781,825.8125 1943.5781,825.3906 L1943.5781,823.9688 C1943.5781,823.5313 1943.5625,823.4063 1943.4688,823.25 C1943.3125,822.9844 1943.0313,822.8438 1942.7344,822.8438 C1942.4375,822.8438 1942.2344,822.9375 1942.0156,823.25 L1941.8438,823.1719 Z "
        fill="#000000"/>
      <text fill="#000000" font-family="sans-serif" font-size="14" lengthAdjust="spacing"
            textLength="99" x="1953.5" y="832.3467">ReservationId
      </text>
      <line style="stroke:#181818;stroke-width:0.5;" x1="1925.5" x2="2054.5" y1="843.5" y2="843.5"/>
      <line style="stroke:#181818;stroke-width:0.5;" x1="1925.5" x2="2054.5" y1="851.5" y2="851.5"/>
      <ellipse cx="1935.5" cy="865.1484" fill="#84BE84" rx="3" ry="3"
               style="stroke:#038048;stroke-width:1.0;"/>
      <text fill="#000000" font-family="sans-serif" font-size="14" lengthAdjust="spacing"
            textLength="85" x="1944.5" y="868.4951">UUID getId()
      </text>
    </g><!--class ReservationStatus-->
    <g id="elem_ReservationStatus">
      <rect codeLine="26" fill="#F1F1F1" height="113.1875" id="ReservationStatus" rx="2.5" ry="2.5"
            style="stroke:#181818;stroke-width:0.5;" width="361" x="2090.5" y="787"/>
      <ellipse cx="2200.75" cy="803" fill="#EB937F" rx="11" ry="11"
               style="stroke:#181818;stroke-width:1.0;"/>
      <path
        d="M2199.5469,803.875 L2201,803.875 L2201,803.9844 C2201,804.3906 2201.0313,804.5469 2201.1094,804.7031 C2201.2656,804.9531 2201.5469,805.1094 2201.8438,805.1094 C2202.0938,805.1094 2202.3594,804.9688 2202.5156,804.75 C2202.6406,804.5938 2202.6719,804.4375 2202.6719,803.9844 L2202.6719,802.0625 C2202.6719,801.9063 2202.6719,801.8594 2202.6563,801.7031 C2202.5938,801.2344 2202.2813,800.9219 2201.8281,800.9219 C2201.5781,800.9219 2201.3125,801.0625 2201.1406,801.2813 C2201.0313,801.4531 2201,801.6094 2201,802.0625 L2201,802.1875 L2199.5469,802.1875 L2199.5469,799.7813 L2203.5313,799.7813 L2203.5313,800.6406 C2203.5313,801.0469 2203.5625,801.2188 2203.6406,801.375 C2203.8125,801.625 2204.0938,801.7813 2204.375,801.7813 C2204.6406,801.7813 2204.9063,801.6406 2205.0781,801.4219 C2205.1875,801.25 2205.2188,801.1094 2205.2188,800.6406 L2205.2188,798.0938 L2197.5938,798.0938 C2197.1563,798.0938 2197.0313,798.1094 2196.875,798.2031 C2196.625,798.3594 2196.4688,798.6563 2196.4688,798.9375 C2196.4688,799.2188 2196.6094,799.4688 2196.8281,799.6406 C2196.9844,799.75 2197.1719,799.7813 2197.5938,799.7813 L2197.8438,799.7813 L2197.8438,806.2969 L2197.5938,806.2969 C2197.1875,806.2969 2197.0313,806.3125 2196.875,806.4219 C2196.625,806.5938 2196.4688,806.8594 2196.4688,807.1563 C2196.4688,807.4219 2196.6094,807.6719 2196.8281,807.8281 C2196.9688,807.9531 2197.2031,808 2197.5938,808 L2205.5938,808 L2205.5938,805.4219 C2205.5938,804.9844 2205.5625,804.8438 2205.4844,804.6875 C2205.3125,804.4375 2205.0313,804.2813 2204.75,804.2813 C2204.4844,804.2813 2204.2188,804.3906 2204.0469,804.6406 C2203.9375,804.7969 2203.9063,804.9375 2203.9063,805.4219 L2203.9063,806.2969 L2199.5469,806.2969 L2199.5469,803.875 Z "
        fill="#000000"/>
      <text fill="#000000" font-family="sans-serif" font-size="14" lengthAdjust="spacing"
            textLength="132" x="2221.25" y="807.8467">ReservationStatus
      </text>
      <line style="stroke:#181818;stroke-width:0.5;" x1="2091.5" x2="2450.5" y1="819" y2="819"/>
      <text fill="#000000" font-family="sans-serif" font-size="14" lengthAdjust="spacing"
            textLength="53" x="2096.5" y="835.9951">SUBMIT
      </text>
      <text fill="#000000" font-family="sans-serif" font-size="14" lengthAdjust="spacing"
            textLength="65" x="2096.5" y="852.292">CONFIRM
      </text>
      <text fill="#000000" font-family="sans-serif" font-size="14" lengthAdjust="spacing"
            textLength="46" x="2096.5" y="868.5889">RESET
      </text>
      <line style="stroke:#181818;stroke-width:0.5;" x1="2091.5" x2="2450.5" y1="875.8906"
            y2="875.8906"/>
      <ellipse cx="2101.5" cy="889.5391" fill="#84BE84" rx="3" ry="3"
               style="stroke:#038048;stroke-width:1.0;"/>
      <text fill="#000000" font-family="sans-serif" font-size="14" lengthAdjust="spacing"
            text-decoration="underline" textLength="335" x="2110.5" y="892.8857">EnumEntries&lt;ReservationStatus&gt;
        getEntries()
      </text>
    </g><!--class Trip-->
    <g id="elem_Trip">
      <rect codeLine="33" fill="#F1F1F1" height="162.0781" id="Trip" rx="2.5" ry="2.5"
            style="stroke:#181818;stroke-width:0.5;" width="226" x="70" y="127"/>
      <ellipse cx="164.25" cy="143" fill="#ADD1B2" rx="11" ry="11"
               style="stroke:#181818;stroke-width:1.0;"/>
      <path
        d="M166.5938,138.6719 C165.6563,138.2344 165.0625,138.0938 164.1875,138.0938 C161.5625,138.0938 159.5625,140.1719 159.5625,142.8906 L159.5625,144.0156 C159.5625,146.5938 161.6719,148.4844 164.5625,148.4844 C165.7813,148.4844 166.9375,148.1875 167.6875,147.6406 C168.2656,147.2344 168.5938,146.7813 168.5938,146.3906 C168.5938,145.9375 168.2031,145.5469 167.7344,145.5469 C167.5156,145.5469 167.3125,145.625 167.125,145.8125 C166.6719,146.2969 166.6719,146.2969 166.4844,146.3906 C166.0625,146.6563 165.375,146.7813 164.6094,146.7813 C162.5625,146.7813 161.2656,145.6875 161.2656,143.9844 L161.2656,142.8906 C161.2656,141.1094 162.5156,139.7969 164.25,139.7969 C164.8281,139.7969 165.4375,139.9531 165.9063,140.2031 C166.3906,140.4844 166.5625,140.7031 166.6563,141.1094 C166.7188,141.5156 166.75,141.6406 166.8906,141.7656 C167.0313,141.9063 167.2656,142.0156 167.4844,142.0156 C167.75,142.0156 168.0156,141.875 168.1875,141.6563 C168.2969,141.5 168.3281,141.3125 168.3281,140.8906 L168.3281,139.4688 C168.3281,139.0313 168.3125,138.9063 168.2188,138.75 C168.0625,138.4844 167.7813,138.3438 167.4844,138.3438 C167.1875,138.3438 166.9844,138.4375 166.7656,138.75 L166.5938,138.6719 Z "
        fill="#000000"/>
      <text fill="#000000" font-family="sans-serif" font-size="14" lengthAdjust="spacing"
            textLength="29" x="184.75" y="147.8467">Trip
      </text>
      <line style="stroke:#181818;stroke-width:0.5;" x1="71" x2="295" y1="159" y2="159"/>
      <line style="stroke:#181818;stroke-width:0.5;" x1="71" x2="295" y1="167" y2="167"/>
      <ellipse cx="81" cy="180.6484" fill="#84BE84" rx="3" ry="3"
               style="stroke:#038048;stroke-width:1.0;"/>
      <text fill="#000000" font-family="sans-serif" font-size="14" lengthAdjust="spacing"
            textLength="94" x="90" y="183.9951">TripId getId()
      </text>
      <ellipse cx="81" cy="196.9453" fill="#84BE84" rx="3" ry="3"
               style="stroke:#038048;stroke-width:1.0;"/>
      <text fill="#000000" font-family="sans-serif" font-size="14" lengthAdjust="spacing"
            textLength="135" x="90" y="200.292">Station getOrigin()
      </text>
      <ellipse cx="81" cy="213.2422" fill="#84BE84" rx="3" ry="3"
               style="stroke:#038048;stroke-width:1.0;"/>
      <text fill="#000000" font-family="sans-serif" font-size="14" lengthAdjust="spacing"
            textLength="176" x="90" y="216.5889">Station getDestination()
      </text>
      <ellipse cx="81" cy="229.5391" fill="#84BE84" rx="3" ry="3"
               style="stroke:#038048;stroke-width:1.0;"/>
      <text fill="#000000" font-family="sans-serif" font-size="14" lengthAdjust="spacing"
            textLength="200" x="90" y="232.8857">List&lt;Station&gt; getStations()
      </text>
      <ellipse cx="81" cy="245.8359" fill="#84BE84" rx="3" ry="3"
               style="stroke:#038048;stroke-width:1.0;"/>
      <text fill="#000000" font-family="sans-serif" font-size="14" lengthAdjust="spacing"
            textLength="111" x="90" y="249.1826">Train getTrain()
      </text>
      <ellipse cx="81" cy="262.1328" fill="#84BE84" rx="3" ry="3"
               style="stroke:#038048;stroke-width:1.0;"/>
      <text fill="#000000" font-family="sans-serif" font-size="14" lengthAdjust="spacing"
            textLength="105" x="90" y="265.4795">Seat getSeat()
      </text>
      <ellipse cx="81" cy="278.4297" fill="#84BE84" rx="3" ry="3"
               style="stroke:#038048;stroke-width:1.0;"/>
      <text fill="#000000" font-family="sans-serif" font-size="14" lengthAdjust="spacing"
            textLength="137" x="90" y="281.7764">Wagon getWagon()
      </text>
    </g><!--class TripId-->
    <g id="elem_TripId">
      <rect codeLine="42" fill="#F1F1F1" height="64.2969" id="TripId" rx="2.5" ry="2.5"
            style="stroke:#181818;stroke-width:0.5;" width="111" x="127.5" y="442.5"/>
      <ellipse cx="159.15" cy="458.5" fill="#ADD1B2" rx="11" ry="11"
               style="stroke:#181818;stroke-width:1.0;"/>
      <path
        d="M161.4938,454.1719 C160.5563,453.7344 159.9625,453.5938 159.0875,453.5938 C156.4625,453.5938 154.4625,455.6719 154.4625,458.3906 L154.4625,459.5156 C154.4625,462.0938 156.5719,463.9844 159.4625,463.9844 C160.6813,463.9844 161.8375,463.6875 162.5875,463.1406 C163.1656,462.7344 163.4938,462.2813 163.4938,461.8906 C163.4938,461.4375 163.1031,461.0469 162.6344,461.0469 C162.4156,461.0469 162.2125,461.125 162.025,461.3125 C161.5719,461.7969 161.5719,461.7969 161.3844,461.8906 C160.9625,462.1563 160.275,462.2813 159.5094,462.2813 C157.4625,462.2813 156.1656,461.1875 156.1656,459.4844 L156.1656,458.3906 C156.1656,456.6094 157.4156,455.2969 159.15,455.2969 C159.7281,455.2969 160.3375,455.4531 160.8063,455.7031 C161.2906,455.9844 161.4625,456.2031 161.5563,456.6094 C161.6188,457.0156 161.65,457.1406 161.7906,457.2656 C161.9313,457.4063 162.1656,457.5156 162.3844,457.5156 C162.65,457.5156 162.9156,457.375 163.0875,457.1563 C163.1969,457 163.2281,456.8125 163.2281,456.3906 L163.2281,454.9688 C163.2281,454.5313 163.2125,454.4063 163.1188,454.25 C162.9625,453.9844 162.6813,453.8438 162.3844,453.8438 C162.0875,453.8438 161.8844,453.9375 161.6656,454.25 L161.4938,454.1719 Z "
        fill="#000000"/>
      <text fill="#000000" font-family="sans-serif" font-size="14" lengthAdjust="spacing"
            textLength="42" x="176.85" y="463.3467">TripId
      </text>
      <line style="stroke:#181818;stroke-width:0.5;" x1="128.5" x2="237.5" y1="474.5" y2="474.5"/>
      <line style="stroke:#181818;stroke-width:0.5;" x1="128.5" x2="237.5" y1="482.5" y2="482.5"/>
      <ellipse cx="138.5" cy="496.1484" fill="#84BE84" rx="3" ry="3"
               style="stroke:#038048;stroke-width:1.0;"/>
      <text fill="#000000" font-family="sans-serif" font-size="14" lengthAdjust="spacing"
            textLength="85" x="147.5" y="499.4951">UUID getId()
      </text>
    </g><!--class Station-->
    <g id="elem_Station">
      <rect codeLine="45" fill="#F1F1F1" height="80.5938" id="Station" rx="2.5" ry="2.5"
            style="stroke:#181818;stroke-width:0.5;" width="150" x="352" y="434"/>
      <ellipse cx="396.25" cy="450" fill="#ADD1B2" rx="11" ry="11"
               style="stroke:#181818;stroke-width:1.0;"/>
      <path
        d="M398.5938,445.6719 C397.6563,445.2344 397.0625,445.0938 396.1875,445.0938 C393.5625,445.0938 391.5625,447.1719 391.5625,449.8906 L391.5625,451.0156 C391.5625,453.5938 393.6719,455.4844 396.5625,455.4844 C397.7813,455.4844 398.9375,455.1875 399.6875,454.6406 C400.2656,454.2344 400.5938,453.7813 400.5938,453.3906 C400.5938,452.9375 400.2031,452.5469 399.7344,452.5469 C399.5156,452.5469 399.3125,452.625 399.125,452.8125 C398.6719,453.2969 398.6719,453.2969 398.4844,453.3906 C398.0625,453.6563 397.375,453.7813 396.6094,453.7813 C394.5625,453.7813 393.2656,452.6875 393.2656,450.9844 L393.2656,449.8906 C393.2656,448.1094 394.5156,446.7969 396.25,446.7969 C396.8281,446.7969 397.4375,446.9531 397.9063,447.2031 C398.3906,447.4844 398.5625,447.7031 398.6563,448.1094 C398.7188,448.5156 398.75,448.6406 398.8906,448.7656 C399.0313,448.9063 399.2656,449.0156 399.4844,449.0156 C399.75,449.0156 400.0156,448.875 400.1875,448.6563 C400.2969,448.5 400.3281,448.3125 400.3281,447.8906 L400.3281,446.4688 C400.3281,446.0313 400.3125,445.9063 400.2188,445.75 C400.0625,445.4844 399.7813,445.3438 399.4844,445.3438 C399.1875,445.3438 398.9844,445.4375 398.7656,445.75 L398.5938,445.6719 Z "
        fill="#000000"/>
      <text fill="#000000" font-family="sans-serif" font-size="14" lengthAdjust="spacing"
            textLength="53" x="416.75" y="454.8467">Station
      </text>
      <line style="stroke:#181818;stroke-width:0.5;" x1="353" x2="501" y1="466" y2="466"/>
      <line style="stroke:#181818;stroke-width:0.5;" x1="353" x2="501" y1="474" y2="474"/>
      <ellipse cx="363" cy="487.6484" fill="#84BE84" rx="3" ry="3"
               style="stroke:#038048;stroke-width:1.0;"/>
      <text fill="#000000" font-family="sans-serif" font-size="14" lengthAdjust="spacing"
            textLength="118" x="372" y="490.9951">StationId getId()
      </text>
      <ellipse cx="363" cy="503.9453" fill="#84BE84" rx="3" ry="3"
               style="stroke:#038048;stroke-width:1.0;"/>
      <text fill="#000000" font-family="sans-serif" font-size="14" lengthAdjust="spacing"
            textLength="124" x="372" y="507.292">String getName()
      </text>
    </g><!--class StationId-->
    <g id="elem_StationId">
      <rect codeLine="49" fill="#F1F1F1" height="64.2969" id="StationId" rx="2.5" ry="2.5"
            style="stroke:#181818;stroke-width:0.5;" width="111" x="371.5" y="654.5"/>
      <ellipse cx="392.35" cy="670.5" fill="#ADD1B2" rx="11" ry="11"
               style="stroke:#181818;stroke-width:1.0;"/>
      <path
        d="M394.6938,666.1719 C393.7563,665.7344 393.1625,665.5938 392.2875,665.5938 C389.6625,665.5938 387.6625,667.6719 387.6625,670.3906 L387.6625,671.5156 C387.6625,674.0938 389.7719,675.9844 392.6625,675.9844 C393.8813,675.9844 395.0375,675.6875 395.7875,675.1406 C396.3656,674.7344 396.6938,674.2813 396.6938,673.8906 C396.6938,673.4375 396.3031,673.0469 395.8344,673.0469 C395.6156,673.0469 395.4125,673.125 395.225,673.3125 C394.7719,673.7969 394.7719,673.7969 394.5844,673.8906 C394.1625,674.1563 393.475,674.2813 392.7094,674.2813 C390.6625,674.2813 389.3656,673.1875 389.3656,671.4844 L389.3656,670.3906 C389.3656,668.6094 390.6156,667.2969 392.35,667.2969 C392.9281,667.2969 393.5375,667.4531 394.0063,667.7031 C394.4906,667.9844 394.6625,668.2031 394.7563,668.6094 C394.8188,669.0156 394.85,669.1406 394.9906,669.2656 C395.1313,669.4063 395.3656,669.5156 395.5844,669.5156 C395.85,669.5156 396.1156,669.375 396.2875,669.1563 C396.3969,669 396.4281,668.8125 396.4281,668.3906 L396.4281,666.9688 C396.4281,666.5313 396.4125,666.4063 396.3188,666.25 C396.1625,665.9844 395.8813,665.8438 395.5844,665.8438 C395.2875,665.8438 395.0844,665.9375 394.8656,666.25 L394.6938,666.1719 Z "
        fill="#000000"/>
      <text fill="#000000" font-family="sans-serif" font-size="14" lengthAdjust="spacing"
            textLength="66" x="407.65" y="675.3467">StationId
      </text>
      <line style="stroke:#181818;stroke-width:0.5;" x1="372.5" x2="481.5" y1="686.5" y2="686.5"/>
      <line style="stroke:#181818;stroke-width:0.5;" x1="372.5" x2="481.5" y1="694.5" y2="694.5"/>
      <ellipse cx="382.5" cy="708.1484" fill="#84BE84" rx="3" ry="3"
               style="stroke:#038048;stroke-width:1.0;"/>
      <text fill="#000000" font-family="sans-serif" font-size="14" lengthAdjust="spacing"
            textLength="85" x="391.5" y="711.4951">UUID getId()
      </text>
    </g><!--class Train-->
    <g id="elem_Train">
      <rect codeLine="52" fill="#F1F1F1" height="80.5938" id="Train" rx="2.5" ry="2.5"
            style="stroke:#181818;stroke-width:0.5;" width="150" x="1628" y="434"/>
      <ellipse cx="1680.75" cy="450" fill="#ADD1B2" rx="11" ry="11"
               style="stroke:#181818;stroke-width:1.0;"/>
      <path
        d="M1683.0938,445.6719 C1682.1563,445.2344 1681.5625,445.0938 1680.6875,445.0938 C1678.0625,445.0938 1676.0625,447.1719 1676.0625,449.8906 L1676.0625,451.0156 C1676.0625,453.5938 1678.1719,455.4844 1681.0625,455.4844 C1682.2813,455.4844 1683.4375,455.1875 1684.1875,454.6406 C1684.7656,454.2344 1685.0938,453.7813 1685.0938,453.3906 C1685.0938,452.9375 1684.7031,452.5469 1684.2344,452.5469 C1684.0156,452.5469 1683.8125,452.625 1683.625,452.8125 C1683.1719,453.2969 1683.1719,453.2969 1682.9844,453.3906 C1682.5625,453.6563 1681.875,453.7813 1681.1094,453.7813 C1679.0625,453.7813 1677.7656,452.6875 1677.7656,450.9844 L1677.7656,449.8906 C1677.7656,448.1094 1679.0156,446.7969 1680.75,446.7969 C1681.3281,446.7969 1681.9375,446.9531 1682.4063,447.2031 C1682.8906,447.4844 1683.0625,447.7031 1683.1563,448.1094 C1683.2188,448.5156 1683.25,448.6406 1683.3906,448.7656 C1683.5313,448.9063 1683.7656,449.0156 1683.9844,449.0156 C1684.25,449.0156 1684.5156,448.875 1684.6875,448.6563 C1684.7969,448.5 1684.8281,448.3125 1684.8281,447.8906 L1684.8281,446.4688 C1684.8281,446.0313 1684.8125,445.9063 1684.7188,445.75 C1684.5625,445.4844 1684.2813,445.3438 1683.9844,445.3438 C1683.6875,445.3438 1683.4844,445.4375 1683.2656,445.75 L1683.0938,445.6719 Z "
        fill="#000000"/>
      <text fill="#000000" font-family="sans-serif" font-size="14" lengthAdjust="spacing"
            textLength="36" x="1701.25" y="454.8467">Train
      </text>
      <line style="stroke:#181818;stroke-width:0.5;" x1="1629" x2="1777" y1="466" y2="466"/>
      <line style="stroke:#181818;stroke-width:0.5;" x1="1629" x2="1777" y1="474" y2="474"/>
      <ellipse cx="1639" cy="487.6484" fill="#84BE84" rx="3" ry="3"
               style="stroke:#038048;stroke-width:1.0;"/>
      <text fill="#000000" font-family="sans-serif" font-size="14" lengthAdjust="spacing"
            textLength="88" x="1648" y="490.9951">Train getId()
      </text>
      <ellipse cx="1639" cy="503.9453" fill="#84BE84" rx="3" ry="3"
               style="stroke:#038048;stroke-width:1.0;"/>
      <text fill="#000000" font-family="sans-serif" font-size="14" lengthAdjust="spacing"
            textLength="124" x="1648" y="507.292">String getName()
      </text>
    </g><!--class TrainId-->
    <g id="elem_TrainId">
      <rect codeLine="56" fill="#F1F1F1" height="64.2969" id="TrainId" rx="2.5" ry="2.5"
            style="stroke:#181818;stroke-width:0.5;" width="111" x="1481.5" y="442.5"/>
      <ellipse cx="1510" cy="458.5" fill="#ADD1B2" rx="11" ry="11"
               style="stroke:#181818;stroke-width:1.0;"/>
      <path
        d="M1512.3438,454.1719 C1511.4063,453.7344 1510.8125,453.5938 1509.9375,453.5938 C1507.3125,453.5938 1505.3125,455.6719 1505.3125,458.3906 L1505.3125,459.5156 C1505.3125,462.0938 1507.4219,463.9844 1510.3125,463.9844 C1511.5313,463.9844 1512.6875,463.6875 1513.4375,463.1406 C1514.0156,462.7344 1514.3438,462.2813 1514.3438,461.8906 C1514.3438,461.4375 1513.9531,461.0469 1513.4844,461.0469 C1513.2656,461.0469 1513.0625,461.125 1512.875,461.3125 C1512.4219,461.7969 1512.4219,461.7969 1512.2344,461.8906 C1511.8125,462.1563 1511.125,462.2813 1510.3594,462.2813 C1508.3125,462.2813 1507.0156,461.1875 1507.0156,459.4844 L1507.0156,458.3906 C1507.0156,456.6094 1508.2656,455.2969 1510,455.2969 C1510.5781,455.2969 1511.1875,455.4531 1511.6563,455.7031 C1512.1406,455.9844 1512.3125,456.2031 1512.4063,456.6094 C1512.4688,457.0156 1512.5,457.1406 1512.6406,457.2656 C1512.7813,457.4063 1513.0156,457.5156 1513.2344,457.5156 C1513.5,457.5156 1513.7656,457.375 1513.9375,457.1563 C1514.0469,457 1514.0781,456.8125 1514.0781,456.3906 L1514.0781,454.9688 C1514.0781,454.5313 1514.0625,454.4063 1513.9688,454.25 C1513.8125,453.9844 1513.5313,453.8438 1513.2344,453.8438 C1512.9375,453.8438 1512.7344,453.9375 1512.5156,454.25 L1512.3438,454.1719 Z "
        fill="#000000"/>
      <text fill="#000000" font-family="sans-serif" font-size="14" lengthAdjust="spacing"
            textLength="49" x="1527" y="463.3467">TrainId
      </text>
      <line style="stroke:#181818;stroke-width:0.5;" x1="1482.5" x2="1591.5" y1="474.5" y2="474.5"/>
      <line style="stroke:#181818;stroke-width:0.5;" x1="1482.5" x2="1591.5" y1="482.5" y2="482.5"/>
      <ellipse cx="1492.5" cy="496.1484" fill="#84BE84" rx="3" ry="3"
               style="stroke:#038048;stroke-width:1.0;"/>
      <text fill="#000000" font-family="sans-serif" font-size="14" lengthAdjust="spacing"
            textLength="85" x="1501.5" y="499.4951">UUID getId()
      </text>
    </g><!--class Wagon-->
    <g id="elem_Wagon">
      <rect codeLine="59" fill="#F1F1F1" height="96.8906" id="Wagon" rx="2.5" ry="2.5"
            style="stroke:#181818;stroke-width:0.5;" width="166" x="1217" y="426"/>
      <ellipse cx="1271.25" cy="442" fill="#ADD1B2" rx="11" ry="11"
               style="stroke:#181818;stroke-width:1.0;"/>
      <path
        d="M1273.5938,437.6719 C1272.6563,437.2344 1272.0625,437.0938 1271.1875,437.0938 C1268.5625,437.0938 1266.5625,439.1719 1266.5625,441.8906 L1266.5625,443.0156 C1266.5625,445.5938 1268.6719,447.4844 1271.5625,447.4844 C1272.7813,447.4844 1273.9375,447.1875 1274.6875,446.6406 C1275.2656,446.2344 1275.5938,445.7813 1275.5938,445.3906 C1275.5938,444.9375 1275.2031,444.5469 1274.7344,444.5469 C1274.5156,444.5469 1274.3125,444.625 1274.125,444.8125 C1273.6719,445.2969 1273.6719,445.2969 1273.4844,445.3906 C1273.0625,445.6563 1272.375,445.7813 1271.6094,445.7813 C1269.5625,445.7813 1268.2656,444.6875 1268.2656,442.9844 L1268.2656,441.8906 C1268.2656,440.1094 1269.5156,438.7969 1271.25,438.7969 C1271.8281,438.7969 1272.4375,438.9531 1272.9063,439.2031 C1273.3906,439.4844 1273.5625,439.7031 1273.6563,440.1094 C1273.7188,440.5156 1273.75,440.6406 1273.8906,440.7656 C1274.0313,440.9063 1274.2656,441.0156 1274.4844,441.0156 C1274.75,441.0156 1275.0156,440.875 1275.1875,440.6563 C1275.2969,440.5 1275.3281,440.3125 1275.3281,439.8906 L1275.3281,438.4688 C1275.3281,438.0313 1275.3125,437.9063 1275.2188,437.75 C1275.0625,437.4844 1274.7813,437.3438 1274.4844,437.3438 C1274.1875,437.3438 1273.9844,437.4375 1273.7656,437.75 L1273.5938,437.6719 Z "
        fill="#000000"/>
      <text fill="#000000" font-family="sans-serif" font-size="14" lengthAdjust="spacing"
            textLength="49" x="1291.75" y="446.8467">Wagon
      </text>
      <line style="stroke:#181818;stroke-width:0.5;" x1="1218" x2="1382" y1="458" y2="458"/>
      <line style="stroke:#181818;stroke-width:0.5;" x1="1218" x2="1382" y1="466" y2="466"/>
      <ellipse cx="1228" cy="479.6484" fill="#84BE84" rx="3" ry="3"
               style="stroke:#038048;stroke-width:1.0;"/>
      <text fill="#000000" font-family="sans-serif" font-size="14" lengthAdjust="spacing"
            textLength="101" x="1237" y="482.9951">Wagon getId()
      </text>
      <ellipse cx="1228" cy="495.9453" fill="#84BE84" rx="3" ry="3"
               style="stroke:#038048;stroke-width:1.0;"/>
      <text fill="#000000" font-family="sans-serif" font-size="14" lengthAdjust="spacing"
            textLength="124" x="1237" y="499.292">String getName()
      </text>
      <ellipse cx="1228" cy="512.2422" fill="#84BE84" rx="3" ry="3"
               style="stroke:#038048;stroke-width:1.0;"/>
      <text fill="#000000" font-family="sans-serif" font-size="14" lengthAdjust="spacing"
            textLength="140" x="1237" y="515.5889">String getNumber()
      </text>
    </g><!--class WagonId-->
    <g id="elem_WagonId">
      <rect codeLine="64" fill="#F1F1F1" height="64.2969" id="WagonId" rx="2.5" ry="2.5"
            style="stroke:#181818;stroke-width:0.5;" width="111" x="1070.5" y="442.5"/>
      <ellipse cx="1093.15" cy="458.5" fill="#ADD1B2" rx="11" ry="11"
               style="stroke:#181818;stroke-width:1.0;"/>
      <path
        d="M1095.4938,454.1719 C1094.5563,453.7344 1093.9625,453.5938 1093.0875,453.5938 C1090.4625,453.5938 1088.4625,455.6719 1088.4625,458.3906 L1088.4625,459.5156 C1088.4625,462.0938 1090.5719,463.9844 1093.4625,463.9844 C1094.6813,463.9844 1095.8375,463.6875 1096.5875,463.1406 C1097.1656,462.7344 1097.4938,462.2813 1097.4938,461.8906 C1097.4938,461.4375 1097.1031,461.0469 1096.6344,461.0469 C1096.4156,461.0469 1096.2125,461.125 1096.025,461.3125 C1095.5719,461.7969 1095.5719,461.7969 1095.3844,461.8906 C1094.9625,462.1563 1094.275,462.2813 1093.5094,462.2813 C1091.4625,462.2813 1090.1656,461.1875 1090.1656,459.4844 L1090.1656,458.3906 C1090.1656,456.6094 1091.4156,455.2969 1093.15,455.2969 C1093.7281,455.2969 1094.3375,455.4531 1094.8063,455.7031 C1095.2906,455.9844 1095.4625,456.2031 1095.5563,456.6094 C1095.6188,457.0156 1095.65,457.1406 1095.7906,457.2656 C1095.9313,457.4063 1096.1656,457.5156 1096.3844,457.5156 C1096.65,457.5156 1096.9156,457.375 1097.0875,457.1563 C1097.1969,457 1097.2281,456.8125 1097.2281,456.3906 L1097.2281,454.9688 C1097.2281,454.5313 1097.2125,454.4063 1097.1188,454.25 C1096.9625,453.9844 1096.6813,453.8438 1096.3844,453.8438 C1096.0875,453.8438 1095.8844,453.9375 1095.6656,454.25 L1095.4938,454.1719 Z "
        fill="#000000"/>
      <text fill="#000000" font-family="sans-serif" font-size="14" lengthAdjust="spacing"
            textLength="62" x="1108.85" y="463.3467">WagonId
      </text>
      <line style="stroke:#181818;stroke-width:0.5;" x1="1071.5" x2="1180.5" y1="474.5" y2="474.5"/>
      <line style="stroke:#181818;stroke-width:0.5;" x1="1071.5" x2="1180.5" y1="482.5" y2="482.5"/>
      <ellipse cx="1081.5" cy="496.1484" fill="#84BE84" rx="3" ry="3"
               style="stroke:#038048;stroke-width:1.0;"/>
      <text fill="#000000" font-family="sans-serif" font-size="14" lengthAdjust="spacing"
            textLength="85" x="1090.5" y="499.4951">UUID getId()
      </text>
    </g><!--class Seat-->
    <g id="elem_Seat">
      <rect codeLine="67" fill="#F1F1F1" height="80.5938" id="Seat" rx="2.5" ry="2.5"
            style="stroke:#181818;stroke-width:0.5;" width="150" x="846" y="434"/>
      <ellipse cx="900.25" cy="450" fill="#ADD1B2" rx="11" ry="11"
               style="stroke:#181818;stroke-width:1.0;"/>
      <path
        d="M902.5938,445.6719 C901.6563,445.2344 901.0625,445.0938 900.1875,445.0938 C897.5625,445.0938 895.5625,447.1719 895.5625,449.8906 L895.5625,451.0156 C895.5625,453.5938 897.6719,455.4844 900.5625,455.4844 C901.7813,455.4844 902.9375,455.1875 903.6875,454.6406 C904.2656,454.2344 904.5938,453.7813 904.5938,453.3906 C904.5938,452.9375 904.2031,452.5469 903.7344,452.5469 C903.5156,452.5469 903.3125,452.625 903.125,452.8125 C902.6719,453.2969 902.6719,453.2969 902.4844,453.3906 C902.0625,453.6563 901.375,453.7813 900.6094,453.7813 C898.5625,453.7813 897.2656,452.6875 897.2656,450.9844 L897.2656,449.8906 C897.2656,448.1094 898.5156,446.7969 900.25,446.7969 C900.8281,446.7969 901.4375,446.9531 901.9063,447.2031 C902.3906,447.4844 902.5625,447.7031 902.6563,448.1094 C902.7188,448.5156 902.75,448.6406 902.8906,448.7656 C903.0313,448.9063 903.2656,449.0156 903.4844,449.0156 C903.75,449.0156 904.0156,448.875 904.1875,448.6563 C904.2969,448.5 904.3281,448.3125 904.3281,447.8906 L904.3281,446.4688 C904.3281,446.0313 904.3125,445.9063 904.2188,445.75 C904.0625,445.4844 903.7813,445.3438 903.4844,445.3438 C903.1875,445.3438 902.9844,445.4375 902.7656,445.75 L902.5938,445.6719 Z "
        fill="#000000"/>
      <text fill="#000000" font-family="sans-serif" font-size="14" lengthAdjust="spacing"
            textLength="33" x="920.75" y="454.8467">Seat
      </text>
      <line style="stroke:#181818;stroke-width:0.5;" x1="847" x2="995" y1="466" y2="466"/>
      <line style="stroke:#181818;stroke-width:0.5;" x1="847" x2="995" y1="474" y2="474"/>
      <ellipse cx="857" cy="487.6484" fill="#84BE84" rx="3" ry="3"
               style="stroke:#038048;stroke-width:1.0;"/>
      <text fill="#000000" font-family="sans-serif" font-size="14" lengthAdjust="spacing"
            textLength="85" x="866" y="490.9951">Seat getId()
      </text>
      <ellipse cx="857" cy="503.9453" fill="#84BE84" rx="3" ry="3"
               style="stroke:#038048;stroke-width:1.0;"/>
      <text fill="#000000" font-family="sans-serif" font-size="14" lengthAdjust="spacing"
            textLength="124" x="866" y="507.292">String getName()
      </text>
    </g><!--class SeatId-->
    <g id="elem_SeatId">
      <rect codeLine="71" fill="#F1F1F1" height="64.2969" id="SeatId" rx="2.5" ry="2.5"
            style="stroke:#181818;stroke-width:0.5;" width="111" x="699.5" y="442.5"/>
      <ellipse cx="729.35" cy="458.5" fill="#ADD1B2" rx="11" ry="11"
               style="stroke:#181818;stroke-width:1.0;"/>
      <path
        d="M731.6938,454.1719 C730.7563,453.7344 730.1625,453.5938 729.2875,453.5938 C726.6625,453.5938 724.6625,455.6719 724.6625,458.3906 L724.6625,459.5156 C724.6625,462.0938 726.7719,463.9844 729.6625,463.9844 C730.8813,463.9844 732.0375,463.6875 732.7875,463.1406 C733.3656,462.7344 733.6938,462.2813 733.6938,461.8906 C733.6938,461.4375 733.3031,461.0469 732.8344,461.0469 C732.6156,461.0469 732.4125,461.125 732.225,461.3125 C731.7719,461.7969 731.7719,461.7969 731.5844,461.8906 C731.1625,462.1563 730.475,462.2813 729.7094,462.2813 C727.6625,462.2813 726.3656,461.1875 726.3656,459.4844 L726.3656,458.3906 C726.3656,456.6094 727.6156,455.2969 729.35,455.2969 C729.9281,455.2969 730.5375,455.4531 731.0063,455.7031 C731.4906,455.9844 731.6625,456.2031 731.7563,456.6094 C731.8188,457.0156 731.85,457.1406 731.9906,457.2656 C732.1313,457.4063 732.3656,457.5156 732.5844,457.5156 C732.85,457.5156 733.1156,457.375 733.2875,457.1563 C733.3969,457 733.4281,456.8125 733.4281,456.3906 L733.4281,454.9688 C733.4281,454.5313 733.4125,454.4063 733.3188,454.25 C733.1625,453.9844 732.8813,453.8438 732.5844,453.8438 C732.2875,453.8438 732.0844,453.9375 731.8656,454.25 L731.6938,454.1719 Z "
        fill="#000000"/>
      <text fill="#000000" font-family="sans-serif" font-size="14" lengthAdjust="spacing"
            textLength="46" x="746.65" y="463.3467">SeatId
      </text>
      <line style="stroke:#181818;stroke-width:0.5;" x1="700.5" x2="809.5" y1="474.5" y2="474.5"/>
      <line style="stroke:#181818;stroke-width:0.5;" x1="700.5" x2="809.5" y1="482.5" y2="482.5"/>
      <ellipse cx="710.5" cy="496.1484" fill="#84BE84" rx="3" ry="3"
               style="stroke:#038048;stroke-width:1.0;"/>
      <text fill="#000000" font-family="sans-serif" font-size="14" lengthAdjust="spacing"
            textLength="85" x="719.5" y="499.4951">UUID getId()
      </text>
    </g><!--reverse link ReservationRepository to ReservationRepositoryImpl-->
    <g id="link_ReservationRepository_ReservationRepositoryImpl">
      <path codeLine="74" d="M2174,290.512 C2174,332.105 2174,368.001 2174,409.658 " fill="none"
            id="ReservationRepository-backto-ReservationRepositoryImpl"
            style="stroke:#181818;stroke-width:1.0;stroke-dasharray:7.0,7.0;"/>
      <polygon fill="none" points="2174,272.512,2168,290.512,2180,290.512,2174,272.512"
               style="stroke:#181818;stroke-width:1.0;"/>
    </g><!--link ReservationRepositoryImpl to Reservation-->
    <g id="link_ReservationRepositoryImpl_Reservation">
      <path codeLine="75" d="M2174,539.259 C2174,573.963 2174,609.654 2174,639.801 " fill="none"
            id="ReservationRepositoryImpl-to-Reservation" style="stroke:#181818;stroke-width:1.0;"/>
      <polygon fill="#181818"
               points="2174,645.801,2178,636.801,2174,640.801,2170,636.801,2174,645.801"
               style="stroke:#181818;stroke-width:1.0;"/>
    </g><!--link Reservation to ReservationId-->
    <g id="link_Reservation_ReservationId">
      <path codeLine="76"
            d="M2052.27,723 C2035.84,723 2024.5,723 2024.5,723 C2024.5,723 2024.5,769.515 2024.5,805.208 "
            fill="none" id="Reservation-to-ReservationId" style="stroke:#181818;stroke-width:1.0;"/>
      <polygon fill="#181818"
               points="2024.5,811.208,2028.5,802.208,2024.5,806.208,2020.5,802.208,2024.5,811.208"
               style="stroke:#181818;stroke-width:1.0;"/>
    </g><!--link Reservation to ReservationStatus-->
    <g id="link_Reservation_ReservationStatus">
      <path codeLine="77" d="M2193,727.34 C2193,745.511 2193,761.211 2193,780.91 " fill="none"
            id="Reservation-to-ReservationStatus" style="stroke:#181818;stroke-width:1.0;"/>
      <polygon fill="#181818" points="2193,786.91,2197,777.91,2193,781.91,2189,777.91,2193,786.91"
               style="stroke:#181818;stroke-width:1.0;"/>
    </g><!--link Trip to TripId-->
    <g id="link_Trip_TripId">
      <path codeLine="78" d="M183,289.044 C183,340.651 183,398.668 183,436.4 " fill="none"
            id="Trip-to-TripId" style="stroke:#181818;stroke-width:1.0;"/>
      <polygon fill="#181818" points="183,442.4,187,433.4,183,437.4,179,433.4,183,442.4"
               style="stroke:#181818;stroke-width:1.0;"/>
    </g><!--link Trip to Station-->
    <g id="link_Trip_Station">
      <path codeLine="79"
            d="M257.667,289.117 C257.667,355.677 257.667,439 257.667,439 C257.667,439 300.517,439 345.742,439 "
            fill="none" id="Trip-to-Station" style="stroke:#181818;stroke-width:1.0;"/>
      <polygon fill="#181818" points="351.742,439,342.742,435,346.742,439,342.742,443,351.742,439"
               style="stroke:#181818;stroke-width:1.0;"/>
    </g><!--link Trip to Seat-->
    <g id="link_Trip_Seat">
      <path codeLine="80"
            d="M296.405,284 C508.953,284 946,284 946,284 C946,284 946,371.658 946,427.633 "
            fill="none" id="Trip-to-Seat" style="stroke:#181818;stroke-width:1.0;"/>
      <polygon fill="#181818" points="946,433.633,950,424.633,946,428.633,942,424.633,946,433.633"
               style="stroke:#181818;stroke-width:1.0;"/>
    </g><!--link Trip to Train-->
    <g id="link_Trip_Train">
      <path codeLine="81"
            d="M296.294,278 C652.777,278 1728,278 1728,278 C1728,278 1728,370.229 1728,427.785 "
            fill="none" id="Trip-to-Train" style="stroke:#181818;stroke-width:1.0;"/>
      <polygon fill="#181818"
               points="1728,433.785,1732,424.785,1728,428.785,1724,424.785,1728,433.785"
               style="stroke:#181818;stroke-width:1.0;"/>
    </g><!--link Trip to Wagon-->
    <g id="link_Trip_Wagon">
      <path codeLine="82"
            d="M276.833,289.037 C276.833,352.111 276.833,429 276.833,429 C276.833,429 966.732,429 1210.7,429 "
            fill="none" id="Trip-to-Wagon" style="stroke:#181818;stroke-width:1.0;"/>
      <polygon fill="#181818" points="1216.7,429,1207.7,425,1211.7,429,1207.7,433,1216.7,429"
               style="stroke:#181818;stroke-width:1.0;"/>
    </g><!--link Station to StationId-->
    <g id="link_Station_StationId">
      <path codeLine="83" d="M427,515.376 C427,555.924 427,611.231 427,648.403 " fill="none"
            id="Station-to-StationId" style="stroke:#181818;stroke-width:1.0;"/>
      <polygon fill="#181818" points="427,654.403,431,645.403,427,649.403,423,645.403,427,654.403"
               style="stroke:#181818;stroke-width:1.0;"/>
    </g><!--link Train to Train-->
    <g id="link_Train_Train">
      <path codeLine="84"
            d="M1678,433.794 C1678,431.437 1678,430 1678,430 C1678,430 1610.25,430 1610.25,430 C1610.25,430 1610.25,519 1610.25,519 C1610.25,519 1703,519 1703,519 C1703,519 1703,523.563 1703,521.206 "
            fill="none" id="Train-to-Train" style="stroke:#181818;stroke-width:1.0;"/>
      <polygon fill="#181818"
               points="1703,515.206,1699,524.206,1703,520.206,1707,524.206,1703,515.206"
               style="stroke:#181818;stroke-width:1.0;"/>
    </g><!--link Wagon to Wagon-->
    <g id="link_Wagon_Wagon">
      <path codeLine="85"
            d="M1300,425.856 C1300,421.104 1300,418 1300,418 C1300,418 1199.25,418 1199.25,418 C1199.25,418 1199.25,531 1199.25,531 C1199.25,531 1300,531 1300,531 C1300,531 1300,533.896 1300,529.144 "
            fill="none" id="Wagon-to-Wagon" style="stroke:#181818;stroke-width:1.0;"/>
      <polygon fill="#181818"
               points="1300,523.144,1296,532.144,1300,528.144,1304,532.144,1300,523.144"
               style="stroke:#181818;stroke-width:1.0;"/>
    </g><!--link Seat to Seat-->
    <g id="link_Seat_Seat">
      <path codeLine="86"
            d="M896,433.826 C896,432.664 896,432 896,432 C896,432 828.25,432 828.25,432 C828.25,432 828.25,519 828.25,519 C828.25,519 921,519 921,519 C921,519 921,523.563 921,521.206 "
            fill="none" id="Seat-to-Seat" style="stroke:#181818;stroke-width:1.0;"/>
      <polygon fill="#181818" points="921,515.206,917,524.206,921,520.206,925,524.206,921,515.206"
               style="stroke:#181818;stroke-width:1.0;"/>
    </g><!--SRC=[vLVDZjem4BxdATmzKLMR9q0SjakbIDsbuaSzeY4UWhN4Zco75Kfvzzf9jas0X70WYPOJmtWydk-RyMJy9P8GX41YXHxNA4Ea33J-0lyD0bHa3Lk5ZdfZF0898TaoZdeV8H5IRuIZDkATABCFXTKw3hDErk0ZUPYYGha3pGIVOYGKqqBk7mWeGj6bAtU7d0etaaAdUzrLx6zY7hZo_pwNiXrAvGA5I5l1XBdqGQ5oaMkccH6AvYiHSmfox_g2QocsxjaOIE8Gyeqai59QWgyFayWQm7POC1-HDUFqQJyew3pwzMXdOP4es67H-jXs9nWbAbw5JDSxJGqDWZMJOGDBIy29nuFZRq6fYYnuORJjGoPi75ashap1HTxhoRx0y7MqjanaQhKlyfanM8gK1AWzEZZcQgP1nyekPjBWF2AFTex9G4XHBHRUypym1mTv79P2pN1q7cvEh0rvjdXwyUP6-3vv_U5DNumq7S_6LhDSPlTN6Mlc7yO6pDXuDESDJtoDBEfyjPYckMJHRU6Q8wDApFRuB3DMAXUQ3ToMer5D90iOFr4_ezACft-pjPzCwM5kCFgeIoEhR7akWQKRKo5tXw1JI_ERQNv3aBbFXMEoRbtC5-cgAEKyn1nm2p4gNL_E7tbA2aaxJh1aFB2QLmZn38fMk6w8evxsjA1Q25RRSshAmzPtKYhrosIdfgrGtI3wUfhJ6zbQeE_sjCfmipQHb3f69TbbNHokK9xWQZ453P1TQ3EcMxOShJ97LbzIsyMJOZzlq6ICPUkSNqHHmNiV9citTl-CkfxnUy74u-Eeq_dGwVHzq3LwZzut_coYTpgSs6_AG8C9-7DZRpYHVcuIhlfetWCLjMFp_TH2xT3gzEF9sviMSVDEsUGzUWyNfFc3yNvkotMFjvvzKVu2]-->
  </g>
</svg>