<?xml version="1.0" encoding="us-ascii" standalone="no"?>
<svg xmlns="http://www.w3.org/2000/svg"
     contentStyleType="text/css" height="965px" preserveAspectRatio="none"
     style="width:2066px;height:965px;background:#FFFFFF;" version="1.1" viewBox="0 0 2066 965"
     width="2066px" zoomAndPan="magnify">
  <defs/>
  <g><!--cluster reservation-->
    <g id="cluster_reservation">
      <path
          d="M8.5,6 L748.5,6 A3.75,3.75 0 0 1 751,8.5 L758,28.2969 L2056.5,28.2969 A2.5,2.5 0 0 1 2059,30.7969 L2059,955.5 A2.5,2.5 0 0 1 2056.5,958 L8.5,958 A2.5,2.5 0 0 1 6,955.5 L6,8.5 A2.5,2.5 0 0 1 8.5,6 "
          fill="none" style="stroke:#000000;stroke-width:1.5;"/>
      <line style="stroke:#000000;stroke-width:1.5;" x1="6" x2="758" y1="28.2969" y2="28.2969"/>
      <text fill="#000000" font-family="sans-serif" font-size="14" font-weight="bold"
            lengthAdjust="spacing" textLength="739" x="10" y="20.9951">
        de.db.vendo.prototype.buchung.reservation.divers.adapters.use_cases.entities.reservation
      </text>
    </g><!--cluster control-->
    <g id="cluster_control">
      <path
          d="M32.5,49 L173.5,49 A3.75,3.75 0 0 1 176,51.5 L183,71.2969 L564.5,71.2969 A2.5,2.5 0 0 1 567,73.7969 L567,476.5 A2.5,2.5 0 0 1 564.5,479 L32.5,479 A2.5,2.5 0 0 1 30,476.5 L30,51.5 A2.5,2.5 0 0 1 32.5,49 "
          fill="none" style="stroke:#000000;stroke-width:1.5;"/>
      <line style="stroke:#000000;stroke-width:1.5;" x1="30" x2="183" y1="71.2969" y2="71.2969"/>
      <text fill="#000000" font-family="sans-serif" font-size="14" font-weight="bold"
            lengthAdjust="spacing" textLength="140" x="34" y="63.9951">boundary.control
      </text>
    </g><!--cluster entity-->
    <g id="cluster_entity">
      <path
          d="M335.5,92 L385.5,92 A3.75,3.75 0 0 1 388,94.5 L395,114.2969 L540.5,114.2969 A2.5,2.5 0 0 1 543,116.7969 L543,452.5 A2.5,2.5 0 0 1 540.5,455 L335.5,455 A2.5,2.5 0 0 1 333,452.5 L333,94.5 A2.5,2.5 0 0 1 335.5,92 "
          fill="none" style="stroke:#000000;stroke-width:1.5;"/>
      <line style="stroke:#000000;stroke-width:1.5;" x1="333" x2="395" y1="114.2969" y2="114.2969"/>
      <text fill="#000000" font-family="sans-serif" font-size="14" font-weight="bold"
            lengthAdjust="spacing" textLength="49" x="337" y="106.9951">entity
      </text>
    </g><!--cluster trip-->
    <g id="cluster_trip">
      <path
          d="M593.5,248 L624.5,248 A3.75,3.75 0 0 1 627,250.5 L634,270.2969 L2032.5,270.2969 A2.5,2.5 0 0 1 2035,272.7969 L2035,931.5 A2.5,2.5 0 0 1 2032.5,934 L593.5,934 A2.5,2.5 0 0 1 591,931.5 L591,250.5 A2.5,2.5 0 0 1 593.5,248 "
          fill="none" style="stroke:#000000;stroke-width:1.5;"/>
      <line style="stroke:#000000;stroke-width:1.5;" x1="591" x2="634" y1="270.2969" y2="270.2969"/>
      <text fill="#000000" font-family="sans-serif" font-size="14" font-weight="bold"
            lengthAdjust="spacing" textLength="30" x="595" y="262.9951">trip
      </text>
    </g><!--cluster entity-->
    <g id="cluster_entity">
      <path
          d="M617.5,291 L812.5,291 A3.75,3.75 0 0 1 815,293.5 L822,313.2969 L870.5,313.2969 A2.5,2.5 0 0 1 873,315.7969 L873,719 A2.5,2.5 0 0 1 870.5,721.5 L617.5,721.5 A2.5,2.5 0 0 1 615,719 L615,293.5 A2.5,2.5 0 0 1 617.5,291 "
          fill="none" style="stroke:#000000;stroke-width:1.5;"/>
      <line style="stroke:#000000;stroke-width:1.5;" x1="615" x2="822" y1="313.2969" y2="313.2969"/>
      <text fill="#000000" font-family="sans-serif" font-size="14" font-weight="bold"
            lengthAdjust="spacing" textLength="194" x="619" y="305.9951">boundary.control.entity
      </text>
    </g><!--cluster entity-->
    <g id="cluster_entity">
      <path
          d="M899.5,598 L1159.5,598 A3.75,3.75 0 0 1 1162,600.5 L1169,620.2969 L1169.5,620.2969 A2.5,2.5 0 0 1 1172,622.7969 L1172,859.5 A2.5,2.5 0 0 1 1169.5,862 L899.5,862 A2.5,2.5 0 0 1 897,859.5 L897,600.5 A2.5,2.5 0 0 1 899.5,598 "
          fill="none" style="stroke:#000000;stroke-width:1.5;"/>
      <line style="stroke:#000000;stroke-width:1.5;" x1="897" x2="1169" y1="620.2969"
            y2="620.2969"/>
      <text fill="#000000" font-family="sans-serif" font-size="14" font-weight="bold"
            lengthAdjust="spacing" textLength="259" x="901" y="612.9951">
        station.boundary.control.entity
      </text>
    </g><!--cluster train-->
    <g id="cluster_train">
      <path
          d="M1198.5,504 L1239.5,504 A3.75,3.75 0 0 1 1242,506.5 L1249,526.2969 L2008.5,526.2969 A2.5,2.5 0 0 1 2011,528.7969 L2011,907.5 A2.5,2.5 0 0 1 2008.5,910 L1198.5,910 A2.5,2.5 0 0 1 1196,907.5 L1196,506.5 A2.5,2.5 0 0 1 1198.5,504 "
          fill="none" style="stroke:#000000;stroke-width:1.5;"/>
      <line style="stroke:#000000;stroke-width:1.5;" x1="1196" x2="1249" y1="526.2969"
            y2="526.2969"/>
      <text fill="#000000" font-family="sans-serif" font-size="14" font-weight="bold"
            lengthAdjust="spacing" textLength="40" x="1200" y="518.9951">train
      </text>
    </g><!--cluster entity-->
    <g id="cluster_entity">
      <path
          d="M1779.5,598 L1974.5,598 A3.75,3.75 0 0 1 1977,600.5 L1984,620.2969 L1984.5,620.2969 A2.5,2.5 0 0 1 1987,622.7969 L1987,859.5 A2.5,2.5 0 0 1 1984.5,862 L1779.5,862 A2.5,2.5 0 0 1 1777,859.5 L1777,600.5 A2.5,2.5 0 0 1 1779.5,598 "
          fill="none" style="stroke:#000000;stroke-width:1.5;"/>
      <line style="stroke:#000000;stroke-width:1.5;" x1="1777" x2="1984" y1="620.2969"
            y2="620.2969"/>
      <text fill="#000000" font-family="sans-serif" font-size="14" font-weight="bold"
            lengthAdjust="spacing" textLength="194" x="1781" y="612.9951">boundary.control.entity
      </text>
    </g><!--cluster wagon-->
    <g id="cluster_wagon">
      <path
          d="M1222.5,547 L1276.5,547 A3.75,3.75 0 0 1 1279,549.5 L1286,569.2969 L1750.5,569.2969 A2.5,2.5 0 0 1 1753,571.7969 L1753,883.5 A2.5,2.5 0 0 1 1750.5,886 L1222.5,886 A2.5,2.5 0 0 1 1220,883.5 L1220,549.5 A2.5,2.5 0 0 1 1222.5,547 "
          fill="none" style="stroke:#000000;stroke-width:1.5;"/>
      <line style="stroke:#000000;stroke-width:1.5;" x1="1220" x2="1286" y1="569.2969"
            y2="569.2969"/>
      <text fill="#000000" font-family="sans-serif" font-size="14" font-weight="bold"
            lengthAdjust="spacing" textLength="53" x="1224" y="561.9951">wagon
      </text>
    </g><!--cluster entity-->
    <g id="cluster_entity">
      <path
          d="M1521.5,590 L1716.5,590 A3.75,3.75 0 0 1 1719,592.5 L1726,612.2969 L1726.5,612.2969 A2.5,2.5 0 0 1 1729,614.7969 L1729,859.5 A2.5,2.5 0 0 1 1726.5,862 L1521.5,862 A2.5,2.5 0 0 1 1519,859.5 L1519,592.5 A2.5,2.5 0 0 1 1521.5,590 "
          fill="none" style="stroke:#000000;stroke-width:1.5;"/>
      <line style="stroke:#000000;stroke-width:1.5;" x1="1519" x2="1726" y1="612.2969"
            y2="612.2969"/>
      <text fill="#000000" font-family="sans-serif" font-size="14" font-weight="bold"
            lengthAdjust="spacing" textLength="194" x="1523" y="604.9951">boundary.control.entity
      </text>
    </g><!--cluster entity-->
    <g id="cluster_entity">
      <path
          d="M1246.5,598 L1482.5,598 A3.75,3.75 0 0 1 1485,600.5 L1492,620.2969 L1492.5,620.2969 A2.5,2.5 0 0 1 1495,622.7969 L1495,859.5 A2.5,2.5 0 0 1 1492.5,862 L1246.5,862 A2.5,2.5 0 0 1 1244,859.5 L1244,600.5 A2.5,2.5 0 0 1 1246.5,598 "
          fill="none" style="stroke:#000000;stroke-width:1.5;"/>
      <line style="stroke:#000000;stroke-width:1.5;" x1="1244" x2="1492" y1="620.2969"
            y2="620.2969"/>
      <text fill="#000000" font-family="sans-serif" font-size="14" font-weight="bold"
            lengthAdjust="spacing" textLength="235" x="1248" y="612.9951">
        seat.boundary.control.entity
      </text>
    </g><!--class ReservationRepository-->
    <g id="elem_ReservationRepository">
      <rect codeLine="5" fill="#F1F1F1" height="129.4844" id="ReservationRepository" rx="2.5"
            ry="2.5" style="stroke:#181818;stroke-width:0.5;" width="268" x="46" y="103"/>
      <ellipse cx="95.25" cy="119" fill="#B4A7E5" rx="11" ry="11"
               style="stroke:#181818;stroke-width:1.0;"/>
      <path
          d="M96.2031,115.7813 L97.9219,115.7813 C98.3125,115.7813 98.5,115.75 98.625,115.6719 C98.8906,115.5156 99.0313,115.2344 99.0313,114.9375 C99.0313,114.6719 98.9219,114.4063 98.6875,114.2344 C98.5156,114.125 98.375,114.0938 97.9219,114.0938 L92.7813,114.0938 C92.3438,114.0938 92.2188,114.1094 92.0625,114.2031 C91.8125,114.3594 91.6563,114.6563 91.6563,114.9375 C91.6563,115.2188 91.7969,115.4688 92.0156,115.6406 C92.1719,115.75 92.3594,115.7813 92.7813,115.7813 L94.5,115.7813 L94.5,122.2969 L92.7813,122.2969 C92.3438,122.2969 92.2188,122.3125 92.0625,122.4219 C91.8125,122.5781 91.6563,122.8594 91.6563,123.1563 C91.6563,123.4063 91.7969,123.6719 92.0156,123.8281 C92.1719,123.9531 92.375,124 92.7813,124 L97.9219,124 C98.6719,124 99.0313,123.7188 99.0313,123.1563 C99.0313,122.875 98.9219,122.625 98.6875,122.4531 C98.5156,122.3281 98.375,122.2969 97.9219,122.2969 L96.2031,122.2969 L96.2031,115.7813 Z "
          fill="#000000"/>
      <text fill="#000000" font-family="sans-serif" font-size="14" font-style="italic"
            lengthAdjust="spacing" textLength="161" x="115.75" y="123.8467">ReservationRepository
      </text>
      <line style="stroke:#181818;stroke-width:0.5;" x1="47" x2="313" y1="135" y2="135"/>
      <line style="stroke:#181818;stroke-width:0.5;" x1="47" x2="313" y1="143" y2="143"/>
      <ellipse cx="57" cy="156.6484" fill="#84BE84" rx="3" ry="3"
               style="stroke:#038048;stroke-width:1.0;"/>
      <text fill="#000000" font-family="sans-serif" font-size="14" font-style="italic"
            lengthAdjust="spacing" textLength="242" x="66" y="159.9951">Reservation
        findBy(ReservationId)
      </text>
      <ellipse cx="57" cy="172.9453" fill="#84BE84" rx="3" ry="3"
               style="stroke:#038048;stroke-width:1.0;"/>
      <text fill="#000000" font-family="sans-serif" font-size="14" font-style="italic"
            lengthAdjust="spacing" textLength="162" x="66" y="176.292">void save(Reservation)
      </text>
      <ellipse cx="57" cy="189.2422" fill="#84BE84" rx="3" ry="3"
               style="stroke:#038048;stroke-width:1.0;"/>
      <text fill="#000000" font-family="sans-serif" font-size="14" font-style="italic"
            lengthAdjust="spacing" textLength="190" x="66" y="192.5889">void submit(ReservationId)
      </text>
      <ellipse cx="57" cy="205.5391" fill="#84BE84" rx="3" ry="3"
               style="stroke:#038048;stroke-width:1.0;"/>
      <text fill="#000000" font-family="sans-serif" font-size="14" font-style="italic"
            lengthAdjust="spacing" textLength="197" x="66" y="208.8857">void confirm(ReservationId)
      </text>
      <ellipse cx="57" cy="221.8359" fill="#84BE84" rx="3" ry="3"
               style="stroke:#038048;stroke-width:1.0;"/>
      <text fill="#000000" font-family="sans-serif" font-size="14" font-style="italic"
            lengthAdjust="spacing" textLength="178" x="66" y="225.1826">void reset(ReservationId)
      </text>
    </g><!--class Reservation-->
    <g id="elem_Reservation">
      <rect codeLine="12" fill="#F1F1F1" height="80.5938" id="Reservation" rx="2.5" ry="2.5"
            style="stroke:#181818;stroke-width:0.5;" width="177" x="349.5" y="127"/>
      <ellipse cx="391.05" cy="143" fill="#ADD1B2" rx="11" ry="11"
               style="stroke:#181818;stroke-width:1.0;"/>
      <path
          d="M393.3938,138.6719 C392.4563,138.2344 391.8625,138.0938 390.9875,138.0938 C388.3625,138.0938 386.3625,140.1719 386.3625,142.8906 L386.3625,144.0156 C386.3625,146.5938 388.4719,148.4844 391.3625,148.4844 C392.5813,148.4844 393.7375,148.1875 394.4875,147.6406 C395.0656,147.2344 395.3938,146.7813 395.3938,146.3906 C395.3938,145.9375 395.0031,145.5469 394.5344,145.5469 C394.3156,145.5469 394.1125,145.625 393.925,145.8125 C393.4719,146.2969 393.4719,146.2969 393.2844,146.3906 C392.8625,146.6563 392.175,146.7813 391.4094,146.7813 C389.3625,146.7813 388.0656,145.6875 388.0656,143.9844 L388.0656,142.8906 C388.0656,141.1094 389.3156,139.7969 391.05,139.7969 C391.6281,139.7969 392.2375,139.9531 392.7063,140.2031 C393.1906,140.4844 393.3625,140.7031 393.4563,141.1094 C393.5188,141.5156 393.55,141.6406 393.6906,141.7656 C393.8313,141.9063 394.0656,142.0156 394.2844,142.0156 C394.55,142.0156 394.8156,141.875 394.9875,141.6563 C395.0969,141.5 395.1281,141.3125 395.1281,140.8906 L395.1281,139.4688 C395.1281,139.0313 395.1125,138.9063 395.0188,138.75 C394.8625,138.4844 394.5813,138.3438 394.2844,138.3438 C393.9875,138.3438 393.7844,138.4375 393.5656,138.75 L393.3938,138.6719 Z "
          fill="#000000"/>
      <text fill="#000000" font-family="sans-serif" font-size="14" lengthAdjust="spacing"
            textLength="86" x="410.95" y="147.8467">Reservation
      </text>
      <line style="stroke:#181818;stroke-width:0.5;" x1="350.5" x2="525.5" y1="159" y2="159"/>
      <line style="stroke:#181818;stroke-width:0.5;" x1="350.5" x2="525.5" y1="167" y2="167"/>
      <ellipse cx="360.5" cy="180.6484" fill="#84BE84" rx="3" ry="3"
               style="stroke:#038048;stroke-width:1.0;"/>
      <text fill="#000000" font-family="sans-serif" font-size="14" lengthAdjust="spacing"
            textLength="151" x="369.5" y="183.9951">ReservationId getId()
      </text>
      <ellipse cx="360.5" cy="196.9453" fill="#84BE84" rx="3" ry="3"
               style="stroke:#038048;stroke-width:1.0;"/>
      <text fill="#000000" font-family="sans-serif" font-size="14" lengthAdjust="spacing"
            textLength="97" x="369.5" y="200.292">Trip getTrip()
      </text>
    </g><!--class ReservationId-->
    <g id="elem_ReservationId">
      <rect codeLine="16" fill="#F1F1F1" height="64.2969" id="ReservationId" rx="2.5" ry="2.5"
            style="stroke:#181818;stroke-width:0.5;" width="131" x="372.5" y="375"/>
      <ellipse cx="387.5" cy="391" fill="#ADD1B2" rx="11" ry="11"
               style="stroke:#181818;stroke-width:1.0;"/>
      <path
          d="M389.8438,386.6719 C388.9063,386.2344 388.3125,386.0938 387.4375,386.0938 C384.8125,386.0938 382.8125,388.1719 382.8125,390.8906 L382.8125,392.0156 C382.8125,394.5938 384.9219,396.4844 387.8125,396.4844 C389.0313,396.4844 390.1875,396.1875 390.9375,395.6406 C391.5156,395.2344 391.8438,394.7813 391.8438,394.3906 C391.8438,393.9375 391.4531,393.5469 390.9844,393.5469 C390.7656,393.5469 390.5625,393.625 390.375,393.8125 C389.9219,394.2969 389.9219,394.2969 389.7344,394.3906 C389.3125,394.6563 388.625,394.7813 387.8594,394.7813 C385.8125,394.7813 384.5156,393.6875 384.5156,391.9844 L384.5156,390.8906 C384.5156,389.1094 385.7656,387.7969 387.5,387.7969 C388.0781,387.7969 388.6875,387.9531 389.1563,388.2031 C389.6406,388.4844 389.8125,388.7031 389.9063,389.1094 C389.9688,389.5156 390,389.6406 390.1406,389.7656 C390.2813,389.9063 390.5156,390.0156 390.7344,390.0156 C391,390.0156 391.2656,389.875 391.4375,389.6563 C391.5469,389.5 391.5781,389.3125 391.5781,388.8906 L391.5781,387.4688 C391.5781,387.0313 391.5625,386.9063 391.4688,386.75 C391.3125,386.4844 391.0313,386.3438 390.7344,386.3438 C390.4375,386.3438 390.2344,386.4375 390.0156,386.75 L389.8438,386.6719 Z "
          fill="#000000"/>
      <text fill="#000000" font-family="sans-serif" font-size="14" lengthAdjust="spacing"
            textLength="99" x="401.5" y="395.8467">ReservationId
      </text>
      <line style="stroke:#181818;stroke-width:0.5;" x1="373.5" x2="502.5" y1="407" y2="407"/>
      <line style="stroke:#181818;stroke-width:0.5;" x1="373.5" x2="502.5" y1="415" y2="415"/>
      <ellipse cx="383.5" cy="428.6484" fill="#84BE84" rx="3" ry="3"
               style="stroke:#038048;stroke-width:1.0;"/>
      <text fill="#000000" font-family="sans-serif" font-size="14" lengthAdjust="spacing"
            textLength="85" x="392.5" y="431.9951">UUID getId()
      </text>
    </g><!--class Trip-->
    <g id="elem_Trip">
      <rect codeLine="19" fill="#F1F1F1" height="162.0781" id="Trip" rx="2.5" ry="2.5"
            style="stroke:#181818;stroke-width:0.5;" width="226" x="631" y="326"/>
      <ellipse cx="725.25" cy="342" fill="#ADD1B2" rx="11" ry="11"
               style="stroke:#181818;stroke-width:1.0;"/>
      <path
          d="M727.5938,337.6719 C726.6563,337.2344 726.0625,337.0938 725.1875,337.0938 C722.5625,337.0938 720.5625,339.1719 720.5625,341.8906 L720.5625,343.0156 C720.5625,345.5938 722.6719,347.4844 725.5625,347.4844 C726.7813,347.4844 727.9375,347.1875 728.6875,346.6406 C729.2656,346.2344 729.5938,345.7813 729.5938,345.3906 C729.5938,344.9375 729.2031,344.5469 728.7344,344.5469 C728.5156,344.5469 728.3125,344.625 728.125,344.8125 C727.6719,345.2969 727.6719,345.2969 727.4844,345.3906 C727.0625,345.6563 726.375,345.7813 725.6094,345.7813 C723.5625,345.7813 722.2656,344.6875 722.2656,342.9844 L722.2656,341.8906 C722.2656,340.1094 723.5156,338.7969 725.25,338.7969 C725.8281,338.7969 726.4375,338.9531 726.9063,339.2031 C727.3906,339.4844 727.5625,339.7031 727.6563,340.1094 C727.7188,340.5156 727.75,340.6406 727.8906,340.7656 C728.0313,340.9063 728.2656,341.0156 728.4844,341.0156 C728.75,341.0156 729.0156,340.875 729.1875,340.6563 C729.2969,340.5 729.3281,340.3125 729.3281,339.8906 L729.3281,338.4688 C729.3281,338.0313 729.3125,337.9063 729.2188,337.75 C729.0625,337.4844 728.7813,337.3438 728.4844,337.3438 C728.1875,337.3438 727.9844,337.4375 727.7656,337.75 L727.5938,337.6719 Z "
          fill="#000000"/>
      <text fill="#000000" font-family="sans-serif" font-size="14" lengthAdjust="spacing"
            textLength="29" x="745.75" y="346.8467">Trip
      </text>
      <line style="stroke:#181818;stroke-width:0.5;" x1="632" x2="856" y1="358" y2="358"/>
      <line style="stroke:#181818;stroke-width:0.5;" x1="632" x2="856" y1="366" y2="366"/>
      <ellipse cx="642" cy="379.6484" fill="#84BE84" rx="3" ry="3"
               style="stroke:#038048;stroke-width:1.0;"/>
      <text fill="#000000" font-family="sans-serif" font-size="14" lengthAdjust="spacing"
            textLength="94" x="651" y="382.9951">TripId getId()
      </text>
      <ellipse cx="642" cy="395.9453" fill="#84BE84" rx="3" ry="3"
               style="stroke:#038048;stroke-width:1.0;"/>
      <text fill="#000000" font-family="sans-serif" font-size="14" lengthAdjust="spacing"
            textLength="135" x="651" y="399.292">Station getOrigin()
      </text>
      <ellipse cx="642" cy="412.2422" fill="#84BE84" rx="3" ry="3"
               style="stroke:#038048;stroke-width:1.0;"/>
      <text fill="#000000" font-family="sans-serif" font-size="14" lengthAdjust="spacing"
            textLength="176" x="651" y="415.5889">Station getDestination()
      </text>
      <ellipse cx="642" cy="428.5391" fill="#84BE84" rx="3" ry="3"
               style="stroke:#038048;stroke-width:1.0;"/>
      <text fill="#000000" font-family="sans-serif" font-size="14" lengthAdjust="spacing"
            textLength="200" x="651" y="431.8857">List&lt;Station&gt; getStations()
      </text>
      <ellipse cx="642" cy="444.8359" fill="#84BE84" rx="3" ry="3"
               style="stroke:#038048;stroke-width:1.0;"/>
      <text fill="#000000" font-family="sans-serif" font-size="14" lengthAdjust="spacing"
            textLength="111" x="651" y="448.1826">Train getTrain()
      </text>
      <ellipse cx="642" cy="461.1328" fill="#84BE84" rx="3" ry="3"
               style="stroke:#038048;stroke-width:1.0;"/>
      <text fill="#000000" font-family="sans-serif" font-size="14" lengthAdjust="spacing"
            textLength="105" x="651" y="464.4795">Seat getSeat()
      </text>
      <ellipse cx="642" cy="477.4297" fill="#84BE84" rx="3" ry="3"
               style="stroke:#038048;stroke-width:1.0;"/>
      <text fill="#000000" font-family="sans-serif" font-size="14" lengthAdjust="spacing"
            textLength="137" x="651" y="480.7764">Wagon getWagon()
      </text>
    </g><!--class TripId-->
    <g id="elem_TripId">
      <rect codeLine="28" fill="#F1F1F1" height="64.2969" id="TripId" rx="2.5" ry="2.5"
            style="stroke:#181818;stroke-width:0.5;" width="111" x="688.5" y="641.5"/>
      <ellipse cx="720.15" cy="657.5" fill="#ADD1B2" rx="11" ry="11"
               style="stroke:#181818;stroke-width:1.0;"/>
      <path
          d="M722.4938,653.1719 C721.5563,652.7344 720.9625,652.5938 720.0875,652.5938 C717.4625,652.5938 715.4625,654.6719 715.4625,657.3906 L715.4625,658.5156 C715.4625,661.0938 717.5719,662.9844 720.4625,662.9844 C721.6813,662.9844 722.8375,662.6875 723.5875,662.1406 C724.1656,661.7344 724.4938,661.2813 724.4938,660.8906 C724.4938,660.4375 724.1031,660.0469 723.6344,660.0469 C723.4156,660.0469 723.2125,660.125 723.025,660.3125 C722.5719,660.7969 722.5719,660.7969 722.3844,660.8906 C721.9625,661.1563 721.275,661.2813 720.5094,661.2813 C718.4625,661.2813 717.1656,660.1875 717.1656,658.4844 L717.1656,657.3906 C717.1656,655.6094 718.4156,654.2969 720.15,654.2969 C720.7281,654.2969 721.3375,654.4531 721.8063,654.7031 C722.2906,654.9844 722.4625,655.2031 722.5563,655.6094 C722.6188,656.0156 722.65,656.1406 722.7906,656.2656 C722.9313,656.4063 723.1656,656.5156 723.3844,656.5156 C723.65,656.5156 723.9156,656.375 724.0875,656.1563 C724.1969,656 724.2281,655.8125 724.2281,655.3906 L724.2281,653.9688 C724.2281,653.5313 724.2125,653.4063 724.1188,653.25 C723.9625,652.9844 723.6813,652.8438 723.3844,652.8438 C723.0875,652.8438 722.8844,652.9375 722.6656,653.25 L722.4938,653.1719 Z "
          fill="#000000"/>
      <text fill="#000000" font-family="sans-serif" font-size="14" lengthAdjust="spacing"
            textLength="42" x="737.85" y="662.3467">TripId
      </text>
      <line style="stroke:#181818;stroke-width:0.5;" x1="689.5" x2="798.5" y1="673.5" y2="673.5"/>
      <line style="stroke:#181818;stroke-width:0.5;" x1="689.5" x2="798.5" y1="681.5" y2="681.5"/>
      <ellipse cx="699.5" cy="695.1484" fill="#84BE84" rx="3" ry="3"
               style="stroke:#038048;stroke-width:1.0;"/>
      <text fill="#000000" font-family="sans-serif" font-size="14" lengthAdjust="spacing"
            textLength="85" x="708.5" y="698.4951">UUID getId()
      </text>
    </g><!--class Station-->
    <g id="elem_Station">
      <rect codeLine="31" fill="#F1F1F1" height="80.5938" id="Station" rx="2.5" ry="2.5"
            style="stroke:#181818;stroke-width:0.5;" width="150" x="913" y="633"/>
      <ellipse cx="957.25" cy="649" fill="#ADD1B2" rx="11" ry="11"
               style="stroke:#181818;stroke-width:1.0;"/>
      <path
          d="M959.5938,644.6719 C958.6563,644.2344 958.0625,644.0938 957.1875,644.0938 C954.5625,644.0938 952.5625,646.1719 952.5625,648.8906 L952.5625,650.0156 C952.5625,652.5938 954.6719,654.4844 957.5625,654.4844 C958.7813,654.4844 959.9375,654.1875 960.6875,653.6406 C961.2656,653.2344 961.5938,652.7813 961.5938,652.3906 C961.5938,651.9375 961.2031,651.5469 960.7344,651.5469 C960.5156,651.5469 960.3125,651.625 960.125,651.8125 C959.6719,652.2969 959.6719,652.2969 959.4844,652.3906 C959.0625,652.6563 958.375,652.7813 957.6094,652.7813 C955.5625,652.7813 954.2656,651.6875 954.2656,649.9844 L954.2656,648.8906 C954.2656,647.1094 955.5156,645.7969 957.25,645.7969 C957.8281,645.7969 958.4375,645.9531 958.9063,646.2031 C959.3906,646.4844 959.5625,646.7031 959.6563,647.1094 C959.7188,647.5156 959.75,647.6406 959.8906,647.7656 C960.0313,647.9063 960.2656,648.0156 960.4844,648.0156 C960.75,648.0156 961.0156,647.875 961.1875,647.6563 C961.2969,647.5 961.3281,647.3125 961.3281,646.8906 L961.3281,645.4688 C961.3281,645.0313 961.3125,644.9063 961.2188,644.75 C961.0625,644.4844 960.7813,644.3438 960.4844,644.3438 C960.1875,644.3438 959.9844,644.4375 959.7656,644.75 L959.5938,644.6719 Z "
          fill="#000000"/>
      <text fill="#000000" font-family="sans-serif" font-size="14" lengthAdjust="spacing"
            textLength="53" x="977.75" y="653.8467">Station
      </text>
      <line style="stroke:#181818;stroke-width:0.5;" x1="914" x2="1062" y1="665" y2="665"/>
      <line style="stroke:#181818;stroke-width:0.5;" x1="914" x2="1062" y1="673" y2="673"/>
      <ellipse cx="924" cy="686.6484" fill="#84BE84" rx="3" ry="3"
               style="stroke:#038048;stroke-width:1.0;"/>
      <text fill="#000000" font-family="sans-serif" font-size="14" lengthAdjust="spacing"
            textLength="118" x="933" y="689.9951">StationId getId()
      </text>
      <ellipse cx="924" cy="702.9453" fill="#84BE84" rx="3" ry="3"
               style="stroke:#038048;stroke-width:1.0;"/>
      <text fill="#000000" font-family="sans-serif" font-size="14" lengthAdjust="spacing"
            textLength="124" x="933" y="706.292">String getName()
      </text>
    </g><!--class StationId-->
    <g id="elem_StationId">
      <rect codeLine="35" fill="#F1F1F1" height="64.2969" id="StationId" rx="2.5" ry="2.5"
            style="stroke:#181818;stroke-width:0.5;" width="111" x="932.5" y="782"/>
      <ellipse cx="953.35" cy="798" fill="#ADD1B2" rx="11" ry="11"
               style="stroke:#181818;stroke-width:1.0;"/>
      <path
          d="M955.6938,793.6719 C954.7563,793.2344 954.1625,793.0938 953.2875,793.0938 C950.6625,793.0938 948.6625,795.1719 948.6625,797.8906 L948.6625,799.0156 C948.6625,801.5938 950.7719,803.4844 953.6625,803.4844 C954.8813,803.4844 956.0375,803.1875 956.7875,802.6406 C957.3656,802.2344 957.6938,801.7813 957.6938,801.3906 C957.6938,800.9375 957.3031,800.5469 956.8344,800.5469 C956.6156,800.5469 956.4125,800.625 956.225,800.8125 C955.7719,801.2969 955.7719,801.2969 955.5844,801.3906 C955.1625,801.6563 954.475,801.7813 953.7094,801.7813 C951.6625,801.7813 950.3656,800.6875 950.3656,798.9844 L950.3656,797.8906 C950.3656,796.1094 951.6156,794.7969 953.35,794.7969 C953.9281,794.7969 954.5375,794.9531 955.0063,795.2031 C955.4906,795.4844 955.6625,795.7031 955.7563,796.1094 C955.8188,796.5156 955.85,796.6406 955.9906,796.7656 C956.1313,796.9063 956.3656,797.0156 956.5844,797.0156 C956.85,797.0156 957.1156,796.875 957.2875,796.6563 C957.3969,796.5 957.4281,796.3125 957.4281,795.8906 L957.4281,794.4688 C957.4281,794.0313 957.4125,793.9063 957.3188,793.75 C957.1625,793.4844 956.8813,793.3438 956.5844,793.3438 C956.2875,793.3438 956.0844,793.4375 955.8656,793.75 L955.6938,793.6719 Z "
          fill="#000000"/>
      <text fill="#000000" font-family="sans-serif" font-size="14" lengthAdjust="spacing"
            textLength="66" x="968.65" y="802.8467">StationId
      </text>
      <line style="stroke:#181818;stroke-width:0.5;" x1="933.5" x2="1042.5" y1="814" y2="814"/>
      <line style="stroke:#181818;stroke-width:0.5;" x1="933.5" x2="1042.5" y1="822" y2="822"/>
      <ellipse cx="943.5" cy="835.6484" fill="#84BE84" rx="3" ry="3"
               style="stroke:#038048;stroke-width:1.0;"/>
      <text fill="#000000" font-family="sans-serif" font-size="14" lengthAdjust="spacing"
            textLength="85" x="952.5" y="838.9951">UUID getId()
      </text>
    </g><!--class Train-->
    <g id="elem_Train">
      <rect codeLine="38" fill="#F1F1F1" height="80.5938" id="Train" rx="2.5" ry="2.5"
            style="stroke:#181818;stroke-width:0.5;" width="150" x="1793" y="633"/>
      <ellipse cx="1845.75" cy="649" fill="#ADD1B2" rx="11" ry="11"
               style="stroke:#181818;stroke-width:1.0;"/>
      <path
          d="M1848.0938,644.6719 C1847.1563,644.2344 1846.5625,644.0938 1845.6875,644.0938 C1843.0625,644.0938 1841.0625,646.1719 1841.0625,648.8906 L1841.0625,650.0156 C1841.0625,652.5938 1843.1719,654.4844 1846.0625,654.4844 C1847.2813,654.4844 1848.4375,654.1875 1849.1875,653.6406 C1849.7656,653.2344 1850.0938,652.7813 1850.0938,652.3906 C1850.0938,651.9375 1849.7031,651.5469 1849.2344,651.5469 C1849.0156,651.5469 1848.8125,651.625 1848.625,651.8125 C1848.1719,652.2969 1848.1719,652.2969 1847.9844,652.3906 C1847.5625,652.6563 1846.875,652.7813 1846.1094,652.7813 C1844.0625,652.7813 1842.7656,651.6875 1842.7656,649.9844 L1842.7656,648.8906 C1842.7656,647.1094 1844.0156,645.7969 1845.75,645.7969 C1846.3281,645.7969 1846.9375,645.9531 1847.4063,646.2031 C1847.8906,646.4844 1848.0625,646.7031 1848.1563,647.1094 C1848.2188,647.5156 1848.25,647.6406 1848.3906,647.7656 C1848.5313,647.9063 1848.7656,648.0156 1848.9844,648.0156 C1849.25,648.0156 1849.5156,647.875 1849.6875,647.6563 C1849.7969,647.5 1849.8281,647.3125 1849.8281,646.8906 L1849.8281,645.4688 C1849.8281,645.0313 1849.8125,644.9063 1849.7188,644.75 C1849.5625,644.4844 1849.2813,644.3438 1848.9844,644.3438 C1848.6875,644.3438 1848.4844,644.4375 1848.2656,644.75 L1848.0938,644.6719 Z "
          fill="#000000"/>
      <text fill="#000000" font-family="sans-serif" font-size="14" lengthAdjust="spacing"
            textLength="36" x="1866.25" y="653.8467">Train
      </text>
      <line style="stroke:#181818;stroke-width:0.5;" x1="1794" x2="1942" y1="665" y2="665"/>
      <line style="stroke:#181818;stroke-width:0.5;" x1="1794" x2="1942" y1="673" y2="673"/>
      <ellipse cx="1804" cy="686.6484" fill="#84BE84" rx="3" ry="3"
               style="stroke:#038048;stroke-width:1.0;"/>
      <text fill="#000000" font-family="sans-serif" font-size="14" lengthAdjust="spacing"
            textLength="101" x="1813" y="689.9951">TrainId getId()
      </text>
      <ellipse cx="1804" cy="702.9453" fill="#84BE84" rx="3" ry="3"
               style="stroke:#038048;stroke-width:1.0;"/>
      <text fill="#000000" font-family="sans-serif" font-size="14" lengthAdjust="spacing"
            textLength="124" x="1813" y="706.292">String getName()
      </text>
    </g><!--class TrainId-->
    <g id="elem_TrainId">
      <rect codeLine="42" fill="#F1F1F1" height="64.2969" id="TrainId" rx="2.5" ry="2.5"
            style="stroke:#181818;stroke-width:0.5;" width="111" x="1812.5" y="782"/>
      <ellipse cx="1841" cy="798" fill="#ADD1B2" rx="11" ry="11"
               style="stroke:#181818;stroke-width:1.0;"/>
      <path
          d="M1843.3438,793.6719 C1842.4063,793.2344 1841.8125,793.0938 1840.9375,793.0938 C1838.3125,793.0938 1836.3125,795.1719 1836.3125,797.8906 L1836.3125,799.0156 C1836.3125,801.5938 1838.4219,803.4844 1841.3125,803.4844 C1842.5313,803.4844 1843.6875,803.1875 1844.4375,802.6406 C1845.0156,802.2344 1845.3438,801.7813 1845.3438,801.3906 C1845.3438,800.9375 1844.9531,800.5469 1844.4844,800.5469 C1844.2656,800.5469 1844.0625,800.625 1843.875,800.8125 C1843.4219,801.2969 1843.4219,801.2969 1843.2344,801.3906 C1842.8125,801.6563 1842.125,801.7813 1841.3594,801.7813 C1839.3125,801.7813 1838.0156,800.6875 1838.0156,798.9844 L1838.0156,797.8906 C1838.0156,796.1094 1839.2656,794.7969 1841,794.7969 C1841.5781,794.7969 1842.1875,794.9531 1842.6563,795.2031 C1843.1406,795.4844 1843.3125,795.7031 1843.4063,796.1094 C1843.4688,796.5156 1843.5,796.6406 1843.6406,796.7656 C1843.7813,796.9063 1844.0156,797.0156 1844.2344,797.0156 C1844.5,797.0156 1844.7656,796.875 1844.9375,796.6563 C1845.0469,796.5 1845.0781,796.3125 1845.0781,795.8906 L1845.0781,794.4688 C1845.0781,794.0313 1845.0625,793.9063 1844.9688,793.75 C1844.8125,793.4844 1844.5313,793.3438 1844.2344,793.3438 C1843.9375,793.3438 1843.7344,793.4375 1843.5156,793.75 L1843.3438,793.6719 Z "
          fill="#000000"/>
      <text fill="#000000" font-family="sans-serif" font-size="14" lengthAdjust="spacing"
            textLength="49" x="1858" y="802.8467">TrainId
      </text>
      <line style="stroke:#181818;stroke-width:0.5;" x1="1813.5" x2="1922.5" y1="814" y2="814"/>
      <line style="stroke:#181818;stroke-width:0.5;" x1="1813.5" x2="1922.5" y1="822" y2="822"/>
      <ellipse cx="1823.5" cy="835.6484" fill="#84BE84" rx="3" ry="3"
               style="stroke:#038048;stroke-width:1.0;"/>
      <text fill="#000000" font-family="sans-serif" font-size="14" lengthAdjust="spacing"
            textLength="85" x="1832.5" y="838.9951">UUID getId()
      </text>
    </g><!--class Wagon-->
    <g id="elem_Wagon">
      <rect codeLine="45" fill="#F1F1F1" height="96.8906" id="Wagon" rx="2.5" ry="2.5"
            style="stroke:#181818;stroke-width:0.5;" width="166" x="1535" y="625"/>
      <ellipse cx="1589.25" cy="641" fill="#ADD1B2" rx="11" ry="11"
               style="stroke:#181818;stroke-width:1.0;"/>
      <path
          d="M1591.5938,636.6719 C1590.6563,636.2344 1590.0625,636.0938 1589.1875,636.0938 C1586.5625,636.0938 1584.5625,638.1719 1584.5625,640.8906 L1584.5625,642.0156 C1584.5625,644.5938 1586.6719,646.4844 1589.5625,646.4844 C1590.7813,646.4844 1591.9375,646.1875 1592.6875,645.6406 C1593.2656,645.2344 1593.5938,644.7813 1593.5938,644.3906 C1593.5938,643.9375 1593.2031,643.5469 1592.7344,643.5469 C1592.5156,643.5469 1592.3125,643.625 1592.125,643.8125 C1591.6719,644.2969 1591.6719,644.2969 1591.4844,644.3906 C1591.0625,644.6563 1590.375,644.7813 1589.6094,644.7813 C1587.5625,644.7813 1586.2656,643.6875 1586.2656,641.9844 L1586.2656,640.8906 C1586.2656,639.1094 1587.5156,637.7969 1589.25,637.7969 C1589.8281,637.7969 1590.4375,637.9531 1590.9063,638.2031 C1591.3906,638.4844 1591.5625,638.7031 1591.6563,639.1094 C1591.7188,639.5156 1591.75,639.6406 1591.8906,639.7656 C1592.0313,639.9063 1592.2656,640.0156 1592.4844,640.0156 C1592.75,640.0156 1593.0156,639.875 1593.1875,639.6563 C1593.2969,639.5 1593.3281,639.3125 1593.3281,638.8906 L1593.3281,637.4688 C1593.3281,637.0313 1593.3125,636.9063 1593.2188,636.75 C1593.0625,636.4844 1592.7813,636.3438 1592.4844,636.3438 C1592.1875,636.3438 1591.9844,636.4375 1591.7656,636.75 L1591.5938,636.6719 Z "
          fill="#000000"/>
      <text fill="#000000" font-family="sans-serif" font-size="14" lengthAdjust="spacing"
            textLength="49" x="1609.75" y="645.8467">Wagon
      </text>
      <line style="stroke:#181818;stroke-width:0.5;" x1="1536" x2="1700" y1="657" y2="657"/>
      <line style="stroke:#181818;stroke-width:0.5;" x1="1536" x2="1700" y1="665" y2="665"/>
      <ellipse cx="1546" cy="678.6484" fill="#84BE84" rx="3" ry="3"
               style="stroke:#038048;stroke-width:1.0;"/>
      <text fill="#000000" font-family="sans-serif" font-size="14" lengthAdjust="spacing"
            textLength="114" x="1555" y="681.9951">WagonId getId()
      </text>
      <ellipse cx="1546" cy="694.9453" fill="#84BE84" rx="3" ry="3"
               style="stroke:#038048;stroke-width:1.0;"/>
      <text fill="#000000" font-family="sans-serif" font-size="14" lengthAdjust="spacing"
            textLength="124" x="1555" y="698.292">String getName()
      </text>
      <ellipse cx="1546" cy="711.2422" fill="#84BE84" rx="3" ry="3"
               style="stroke:#038048;stroke-width:1.0;"/>
      <text fill="#000000" font-family="sans-serif" font-size="14" lengthAdjust="spacing"
            textLength="140" x="1555" y="714.5889">String getNumber()
      </text>
    </g><!--class WagonId-->
    <g id="elem_WagonId">
      <rect codeLine="50" fill="#F1F1F1" height="64.2969" id="WagonId" rx="2.5" ry="2.5"
            style="stroke:#181818;stroke-width:0.5;" width="111" x="1562.5" y="782"/>
      <ellipse cx="1585.15" cy="798" fill="#ADD1B2" rx="11" ry="11"
               style="stroke:#181818;stroke-width:1.0;"/>
      <path
          d="M1587.4938,793.6719 C1586.5563,793.2344 1585.9625,793.0938 1585.0875,793.0938 C1582.4625,793.0938 1580.4625,795.1719 1580.4625,797.8906 L1580.4625,799.0156 C1580.4625,801.5938 1582.5719,803.4844 1585.4625,803.4844 C1586.6813,803.4844 1587.8375,803.1875 1588.5875,802.6406 C1589.1656,802.2344 1589.4938,801.7813 1589.4938,801.3906 C1589.4938,800.9375 1589.1031,800.5469 1588.6344,800.5469 C1588.4156,800.5469 1588.2125,800.625 1588.025,800.8125 C1587.5719,801.2969 1587.5719,801.2969 1587.3844,801.3906 C1586.9625,801.6563 1586.275,801.7813 1585.5094,801.7813 C1583.4625,801.7813 1582.1656,800.6875 1582.1656,798.9844 L1582.1656,797.8906 C1582.1656,796.1094 1583.4156,794.7969 1585.15,794.7969 C1585.7281,794.7969 1586.3375,794.9531 1586.8063,795.2031 C1587.2906,795.4844 1587.4625,795.7031 1587.5563,796.1094 C1587.6188,796.5156 1587.65,796.6406 1587.7906,796.7656 C1587.9313,796.9063 1588.1656,797.0156 1588.3844,797.0156 C1588.65,797.0156 1588.9156,796.875 1589.0875,796.6563 C1589.1969,796.5 1589.2281,796.3125 1589.2281,795.8906 L1589.2281,794.4688 C1589.2281,794.0313 1589.2125,793.9063 1589.1188,793.75 C1588.9625,793.4844 1588.6813,793.3438 1588.3844,793.3438 C1588.0875,793.3438 1587.8844,793.4375 1587.6656,793.75 L1587.4938,793.6719 Z "
          fill="#000000"/>
      <text fill="#000000" font-family="sans-serif" font-size="14" lengthAdjust="spacing"
            textLength="62" x="1600.85" y="802.8467">WagonId
      </text>
      <line style="stroke:#181818;stroke-width:0.5;" x1="1563.5" x2="1672.5" y1="814" y2="814"/>
      <line style="stroke:#181818;stroke-width:0.5;" x1="1563.5" x2="1672.5" y1="822" y2="822"/>
      <ellipse cx="1573.5" cy="835.6484" fill="#84BE84" rx="3" ry="3"
               style="stroke:#038048;stroke-width:1.0;"/>
      <text fill="#000000" font-family="sans-serif" font-size="14" lengthAdjust="spacing"
            textLength="85" x="1582.5" y="838.9951">UUID getId()
      </text>
    </g><!--class Seat-->
    <g id="elem_Seat">
      <rect codeLine="53" fill="#F1F1F1" height="80.5938" id="Seat" rx="2.5" ry="2.5"
            style="stroke:#181818;stroke-width:0.5;" width="150" x="1260" y="633"/>
      <ellipse cx="1314.25" cy="649" fill="#ADD1B2" rx="11" ry="11"
               style="stroke:#181818;stroke-width:1.0;"/>
      <path
          d="M1316.5938,644.6719 C1315.6563,644.2344 1315.0625,644.0938 1314.1875,644.0938 C1311.5625,644.0938 1309.5625,646.1719 1309.5625,648.8906 L1309.5625,650.0156 C1309.5625,652.5938 1311.6719,654.4844 1314.5625,654.4844 C1315.7813,654.4844 1316.9375,654.1875 1317.6875,653.6406 C1318.2656,653.2344 1318.5938,652.7813 1318.5938,652.3906 C1318.5938,651.9375 1318.2031,651.5469 1317.7344,651.5469 C1317.5156,651.5469 1317.3125,651.625 1317.125,651.8125 C1316.6719,652.2969 1316.6719,652.2969 1316.4844,652.3906 C1316.0625,652.6563 1315.375,652.7813 1314.6094,652.7813 C1312.5625,652.7813 1311.2656,651.6875 1311.2656,649.9844 L1311.2656,648.8906 C1311.2656,647.1094 1312.5156,645.7969 1314.25,645.7969 C1314.8281,645.7969 1315.4375,645.9531 1315.9063,646.2031 C1316.3906,646.4844 1316.5625,646.7031 1316.6563,647.1094 C1316.7188,647.5156 1316.75,647.6406 1316.8906,647.7656 C1317.0313,647.9063 1317.2656,648.0156 1317.4844,648.0156 C1317.75,648.0156 1318.0156,647.875 1318.1875,647.6563 C1318.2969,647.5 1318.3281,647.3125 1318.3281,646.8906 L1318.3281,645.4688 C1318.3281,645.0313 1318.3125,644.9063 1318.2188,644.75 C1318.0625,644.4844 1317.7813,644.3438 1317.4844,644.3438 C1317.1875,644.3438 1316.9844,644.4375 1316.7656,644.75 L1316.5938,644.6719 Z "
          fill="#000000"/>
      <text fill="#000000" font-family="sans-serif" font-size="14" lengthAdjust="spacing"
            textLength="33" x="1334.75" y="653.8467">Seat
      </text>
      <line style="stroke:#181818;stroke-width:0.5;" x1="1261" x2="1409" y1="665" y2="665"/>
      <line style="stroke:#181818;stroke-width:0.5;" x1="1261" x2="1409" y1="673" y2="673"/>
      <ellipse cx="1271" cy="686.6484" fill="#84BE84" rx="3" ry="3"
               style="stroke:#038048;stroke-width:1.0;"/>
      <text fill="#000000" font-family="sans-serif" font-size="14" lengthAdjust="spacing"
            textLength="98" x="1280" y="689.9951">SeatId getId()
      </text>
      <ellipse cx="1271" cy="702.9453" fill="#84BE84" rx="3" ry="3"
               style="stroke:#038048;stroke-width:1.0;"/>
      <text fill="#000000" font-family="sans-serif" font-size="14" lengthAdjust="spacing"
            textLength="124" x="1280" y="706.292">String getName()
      </text>
    </g><!--class SeatId-->
    <g id="elem_SeatId">
      <rect codeLine="57" fill="#F1F1F1" height="64.2969" id="SeatId" rx="2.5" ry="2.5"
            style="stroke:#181818;stroke-width:0.5;" width="111" x="1279.5" y="782"/>
      <ellipse cx="1309.35" cy="798" fill="#ADD1B2" rx="11" ry="11"
               style="stroke:#181818;stroke-width:1.0;"/>
      <path
          d="M1311.6938,793.6719 C1310.7563,793.2344 1310.1625,793.0938 1309.2875,793.0938 C1306.6625,793.0938 1304.6625,795.1719 1304.6625,797.8906 L1304.6625,799.0156 C1304.6625,801.5938 1306.7719,803.4844 1309.6625,803.4844 C1310.8813,803.4844 1312.0375,803.1875 1312.7875,802.6406 C1313.3656,802.2344 1313.6938,801.7813 1313.6938,801.3906 C1313.6938,800.9375 1313.3031,800.5469 1312.8344,800.5469 C1312.6156,800.5469 1312.4125,800.625 1312.225,800.8125 C1311.7719,801.2969 1311.7719,801.2969 1311.5844,801.3906 C1311.1625,801.6563 1310.475,801.7813 1309.7094,801.7813 C1307.6625,801.7813 1306.3656,800.6875 1306.3656,798.9844 L1306.3656,797.8906 C1306.3656,796.1094 1307.6156,794.7969 1309.35,794.7969 C1309.9281,794.7969 1310.5375,794.9531 1311.0063,795.2031 C1311.4906,795.4844 1311.6625,795.7031 1311.7563,796.1094 C1311.8188,796.5156 1311.85,796.6406 1311.9906,796.7656 C1312.1313,796.9063 1312.3656,797.0156 1312.5844,797.0156 C1312.85,797.0156 1313.1156,796.875 1313.2875,796.6563 C1313.3969,796.5 1313.4281,796.3125 1313.4281,795.8906 L1313.4281,794.4688 C1313.4281,794.0313 1313.4125,793.9063 1313.3188,793.75 C1313.1625,793.4844 1312.8813,793.3438 1312.5844,793.3438 C1312.2875,793.3438 1312.0844,793.4375 1311.8656,793.75 L1311.6938,793.6719 Z "
          fill="#000000"/>
      <text fill="#000000" font-family="sans-serif" font-size="14" lengthAdjust="spacing"
            textLength="46" x="1326.65" y="802.8467">SeatId
      </text>
      <line style="stroke:#181818;stroke-width:0.5;" x1="1280.5" x2="1389.5" y1="814" y2="814"/>
      <line style="stroke:#181818;stroke-width:0.5;" x1="1280.5" x2="1389.5" y1="822" y2="822"/>
      <ellipse cx="1290.5" cy="835.6484" fill="#84BE84" rx="3" ry="3"
               style="stroke:#038048;stroke-width:1.0;"/>
      <text fill="#000000" font-family="sans-serif" font-size="14" lengthAdjust="spacing"
            textLength="85" x="1299.5" y="838.9951">UUID getId()
      </text>
    </g><!--link Reservation to Trip-->
    <g id="link_Reservation_Trip">
      <path codeLine="60"
            d="M515,208.225 C515,262.285 515,351 515,351 C515,351 567.148,351 624.842,351 "
            fill="none" id="Reservation-to-Trip" style="stroke:#181818;stroke-width:1.0;"/>
      <polygon fill="#181818" points="630.842,351,621.842,347,625.842,351,621.842,355,630.842,351"
               style="stroke:#181818;stroke-width:1.0;"/>
    </g><!--link Reservation to ReservationId-->
    <g id="link_Reservation_ReservationId">
      <path codeLine="61" d="M438,208.128 C438,255.105 438,325.487 438,368.638 " fill="none"
            id="Reservation-to-ReservationId" style="stroke:#181818;stroke-width:1.0;"/>
      <polygon fill="#181818" points="438,374.638,442,365.638,438,369.638,434,365.638,438,374.638"
               style="stroke:#181818;stroke-width:1.0;"/>
    </g><!--link Trip to TripId-->
    <g id="link_Trip_TripId">
      <path codeLine="62" d="M744,488.044 C744,539.651 744,597.668 744,635.4 " fill="none"
            id="Trip-to-TripId" style="stroke:#181818;stroke-width:1.0;"/>
      <polygon fill="#181818" points="744,641.4,748,632.4,744,636.4,740,632.4,744,641.4"
               style="stroke:#181818;stroke-width:1.0;"/>
    </g><!--link Trip to Station-->
    <g id="link_Trip_Station">
      <path codeLine="63"
            d="M818.667,488.117 C818.667,554.677 818.667,638 818.667,638 C818.667,638 861.517,638 906.742,638 "
            fill="none" id="Trip-to-Station" style="stroke:#181818;stroke-width:1.0;"/>
      <polygon fill="#181818" points="912.742,638,903.742,634,907.742,638,903.742,642,912.742,638"
               style="stroke:#181818;stroke-width:1.0;"/>
    </g><!--link Trip to Seat-->
    <g id="link_Trip_Seat">
      <path codeLine="64"
            d="M857.251,434 C1028.86,434 1335,434 1335,434 C1335,434 1335,558.542 1335,626.872 "
            fill="none" id="Trip-to-Seat" style="stroke:#181818;stroke-width:1.0;"/>
      <polygon fill="#181818"
               points="1335,632.872,1339,623.872,1335,627.872,1331,623.872,1335,632.872"
               style="stroke:#181818;stroke-width:1.0;"/>
    </g><!--link Trip to Train-->
    <g id="link_Trip_Train">
      <path codeLine="65"
            d="M857.18,380 C1142.39,380 1868,380 1868,380 C1868,380 1868,546.483 1868,626.998 "
            fill="none" id="Trip-to-Train" style="stroke:#181818;stroke-width:1.0;"/>
      <polygon fill="#181818"
               points="1868,632.998,1872,623.998,1868,627.998,1864,623.998,1868,632.998"
               style="stroke:#181818;stroke-width:1.0;"/>
    </g><!--link Trip to Wagon-->
    <g id="link_Trip_Wagon">
      <path codeLine="66"
            d="M837.833,488.089 C837.833,551.507 837.833,629 837.833,629 C837.833,629 1327.85,629 1528.88,629 "
            fill="none" id="Trip-to-Wagon" style="stroke:#181818;stroke-width:1.0;"/>
      <polygon fill="#181818" points="1534.88,629,1525.88,625,1529.88,629,1525.88,633,1534.88,629"
               style="stroke:#181818;stroke-width:1.0;"/>
    </g><!--link Station to StationId-->
    <g id="link_Station_StationId">
      <path codeLine="67" d="M988,714.138 C988,735.696 988,755.808 988,775.923 " fill="none"
            id="Station-to-StationId" style="stroke:#181818;stroke-width:1.0;"/>
      <polygon fill="#181818" points="988,781.923,992,772.923,988,776.923,984,772.923,988,781.923"
               style="stroke:#181818;stroke-width:1.0;"/>
    </g><!--link Train to TrainId-->
    <g id="link_Train_TrainId">
      <path codeLine="68" d="M1868,714.138 C1868,735.696 1868,755.808 1868,775.923 " fill="none"
            id="Train-to-TrainId" style="stroke:#181818;stroke-width:1.0;"/>
      <polygon fill="#181818"
               points="1868,781.923,1872,772.923,1868,776.923,1864,772.923,1868,781.923"
               style="stroke:#181818;stroke-width:1.0;"/>
    </g><!--link Wagon to WagonId-->
    <g id="link_Wagon_WagonId">
      <path codeLine="69" d="M1618,722.246 C1618,741.902 1618,758.043 1618,775.651 " fill="none"
            id="Wagon-to-WagonId" style="stroke:#181818;stroke-width:1.0;"/>
      <polygon fill="#181818"
               points="1618,781.651,1622,772.651,1618,776.651,1614,772.651,1618,781.651"
               style="stroke:#181818;stroke-width:1.0;"/>
    </g><!--link Seat to SeatId-->
    <g id="link_Seat_SeatId">
      <path codeLine="70" d="M1335,714.138 C1335,735.696 1335,755.808 1335,775.923 " fill="none"
            id="Seat-to-SeatId" style="stroke:#181818;stroke-width:1.0;"/>
      <polygon fill="#181818"
               points="1335,781.923,1339,772.923,1335,776.923,1331,772.923,1335,781.923"
               style="stroke:#181818;stroke-width:1.0;"/>
    </g><!--SRC=[vLTDZvim4BtpAzmzfQgMNr3jeTeBKjLMswvwh0Oy8TO66ta6LWZjVwyDIKg-W1v2KFQ46SRsUs_6m_X3RY7DG1I4aMQq6Ke5Z3yWUO4KIInXJHZGYz8vMCZ4McdaAaTXBAzCG2lpAiZDG-EjGQ3y8aj8KDmz8Q4jWPNHJvWRKcniTIU0XCHGnc69MfemjuQRkM5S9Aj2fw7zDo-KgaHB8KZ8sGySp3y945A8cXKhD-YwnwRG4cmL9aQpDUlm90PH1q9y4ZN4n1OIVkjuYQNIyakrw9WY-V70lpHA2e8IkswddOeuKpnYDGTugMmsmjFpFLhnBKZMGBGd-iHIDrvLL_5Mvpsa8aMEvA8XzikgtB_xv-8qXKXUdOJ3tD1uVeuUT-XtM3tsoq9ajyDPd8s4zLRCVNb_SXi4P_fkLQhqaVaHYPLkNjjlNnNnvut3W_VOZ6aRC52wZHZibaFWnjCzMyjlIDlbcy6XM9UEwA1S_V7S49u08t5_2cxZL7U2TXXWgtJgBTyWmnCi9j5w98-XO-GIQWAmxFVfIG-Vt_KkrSVAlN6U1_v-ePipEHdGLx_RMRXjeQXtDMD0xdrRaSLeZvXD68GHt0PAZQkO4wCbj-NvW-ehURsjwQDBJUCxDnvdbBzgCtH__t35tzuDSn_Ln0LNRD2k6_bRvpwo0Rbj4VwhEhu7ANfxfFUJ2xtzIJ2F6yviIiJ5A-MOwySi3iX4Ieov7ypel4ogod2lFhE_IYJ_0W00]-->
  </g>
</svg>