<?xml version="1.0" encoding="us-ascii" standalone="no"?>
<svg xmlns="http://www.w3.org/2000/svg"
     contentStyleType="text/css" height="959px" preserveAspectRatio="none"
     style="width:2137px;height:959px;background:#FFFFFF;" version="1.1" viewBox="0 0 2137 959"
     width="2137px" zoomAndPan="magnify">
  <defs/>
  <g><!--cluster reservation-->
    <g id="cluster_reservation">
      <path
        d="M8.5,6 L748.5,6 A3.75,3.75 0 0 1 751,8.5 L758,28.2969 L2127.5,28.2969 A2.5,2.5 0 0 1 2130,30.7969 L2130,950 A2.5,2.5 0 0 1 2127.5,952.5 L8.5,952.5 A2.5,2.5 0 0 1 6,950 L6,8.5 A2.5,2.5 0 0 1 8.5,6 "
        fill="none" style="stroke:#000000;stroke-width:1.5;"/>
      <line style="stroke:#000000;stroke-width:1.5;" x1="6" x2="758" y1="28.2969" y2="28.2969"/>
      <text fill="#000000" font-family="sans-serif" font-size="14" font-weight="bold"
            lengthAdjust="spacing" textLength="739" x="10" y="20.9951">
        de.db.vendo.prototype.buchung.reservation.divers.adapters.use_cases.entities.reservation
      </text>
    </g><!--cluster control-->
    <g id="cluster_control">
      <path
        d="M1500.5,108.5 L1641.5,108.5 A3.75,3.75 0 0 1 1644,111 L1651,130.7969 L2103.5,130.7969 A2.5,2.5 0 0 1 2106,133.2969 L2106,926 A2.5,2.5 0 0 1 2103.5,928.5 L1500.5,928.5 A2.5,2.5 0 0 1 1498,926 L1498,111 A2.5,2.5 0 0 1 1500.5,108.5 "
        fill="none" style="stroke:#000000;stroke-width:1.5;"/>
      <line style="stroke:#000000;stroke-width:1.5;" x1="1498" x2="1651" y1="130.7969"
            y2="130.7969"/>
      <text fill="#000000" font-family="sans-serif" font-size="14" font-weight="bold"
            lengthAdjust="spacing" textLength="140" x="1502" y="123.4951">boundary.control
      </text>
    </g><!--cluster entity-->
    <g id="cluster_entity">
      <path
        d="M1524.5,564 L1574.5,564 A3.75,3.75 0 0 1 1577,566.5 L1584,586.2969 L2079.5,586.2969 A2.5,2.5 0 0 1 2082,588.7969 L2082,902 A2.5,2.5 0 0 1 2079.5,904.5 L1524.5,904.5 A2.5,2.5 0 0 1 1522,902 L1522,566.5 A2.5,2.5 0 0 1 1524.5,564 "
        fill="none" style="stroke:#000000;stroke-width:1.5;"/>
      <line style="stroke:#000000;stroke-width:1.5;" x1="1522" x2="1584" y1="586.2969"
            y2="586.2969"/>
      <text fill="#000000" font-family="sans-serif" font-size="14" font-weight="bold"
            lengthAdjust="spacing" textLength="49" x="1526" y="578.9951">entity
      </text>
    </g><!--cluster trip-->
    <g id="cluster_trip">
      <path
        d="M32.5,49 L63.5,49 A3.75,3.75 0 0 1 66,51.5 L73,71.2969 L1471.5,71.2969 A2.5,2.5 0 0 1 1474,73.7969 L1474,757 A2.5,2.5 0 0 1 1471.5,759.5 L32.5,759.5 A2.5,2.5 0 0 1 30,757 L30,51.5 A2.5,2.5 0 0 1 32.5,49 "
        fill="none" style="stroke:#000000;stroke-width:1.5;"/>
      <line style="stroke:#000000;stroke-width:1.5;" x1="30" x2="73" y1="71.2969" y2="71.2969"/>
      <text fill="#000000" font-family="sans-serif" font-size="14" font-weight="bold"
            lengthAdjust="spacing" textLength="30" x="34" y="63.9951">trip
      </text>
    </g><!--cluster entity-->
    <g id="cluster_entity">
      <path
        d="M56.5,92 L251.5,92 A3.75,3.75 0 0 1 254,94.5 L261,114.2969 L309.5,114.2969 A2.5,2.5 0 0 1 312,116.7969 L312,520 A2.5,2.5 0 0 1 309.5,522.5 L56.5,522.5 A2.5,2.5 0 0 1 54,520 L54,94.5 A2.5,2.5 0 0 1 56.5,92 "
        fill="none" style="stroke:#000000;stroke-width:1.5;"/>
      <line style="stroke:#000000;stroke-width:1.5;" x1="54" x2="261" y1="114.2969" y2="114.2969"/>
      <text fill="#000000" font-family="sans-serif" font-size="14" font-weight="bold"
            lengthAdjust="spacing" textLength="194" x="58" y="106.9951">boundary.control.entity
      </text>
    </g><!--cluster entity-->
    <g id="cluster_entity">
      <path
        d="M338.5,399 L598.5,399 A3.75,3.75 0 0 1 601,401.5 L608,421.2969 L608.5,421.2969 A2.5,2.5 0 0 1 611,423.7969 L611,685 A2.5,2.5 0 0 1 608.5,687.5 L338.5,687.5 A2.5,2.5 0 0 1 336,685 L336,401.5 A2.5,2.5 0 0 1 338.5,399 "
        fill="none" style="stroke:#000000;stroke-width:1.5;"/>
      <line style="stroke:#000000;stroke-width:1.5;" x1="336" x2="608" y1="421.2969" y2="421.2969"/>
      <text fill="#000000" font-family="sans-serif" font-size="14" font-weight="bold"
            lengthAdjust="spacing" textLength="259" x="340" y="413.9951">
        station.boundary.control.entity
      </text>
    </g><!--cluster train-->
    <g id="cluster_train">
      <path
        d="M637.5,305 L678.5,305 A3.75,3.75 0 0 1 681,307.5 L688,327.2969 L1447.5,327.2969 A2.5,2.5 0 0 1 1450,329.7969 L1450,733 A2.5,2.5 0 0 1 1447.5,735.5 L637.5,735.5 A2.5,2.5 0 0 1 635,733 L635,307.5 A2.5,2.5 0 0 1 637.5,305 "
        fill="none" style="stroke:#000000;stroke-width:1.5;"/>
      <line style="stroke:#000000;stroke-width:1.5;" x1="635" x2="688" y1="327.2969" y2="327.2969"/>
      <text fill="#000000" font-family="sans-serif" font-size="14" font-weight="bold"
            lengthAdjust="spacing" textLength="40" x="639" y="319.9951">train
      </text>
    </g><!--cluster entity-->
    <g id="cluster_entity">
      <path
        d="M1218.5,399 L1413.5,399 A3.75,3.75 0 0 1 1416,401.5 L1423,421.2969 L1423.5,421.2969 A2.5,2.5 0 0 1 1426,423.7969 L1426,685 A2.5,2.5 0 0 1 1423.5,687.5 L1218.5,687.5 A2.5,2.5 0 0 1 1216,685 L1216,401.5 A2.5,2.5 0 0 1 1218.5,399 "
        fill="none" style="stroke:#000000;stroke-width:1.5;"/>
      <line style="stroke:#000000;stroke-width:1.5;" x1="1216" x2="1423" y1="421.2969"
            y2="421.2969"/>
      <text fill="#000000" font-family="sans-serif" font-size="14" font-weight="bold"
            lengthAdjust="spacing" textLength="194" x="1220" y="413.9951">boundary.control.entity
      </text>
    </g><!--cluster wagon-->
    <g id="cluster_wagon">
      <path
        d="M661.5,348 L715.5,348 A3.75,3.75 0 0 1 718,350.5 L725,370.2969 L1189.5,370.2969 A2.5,2.5 0 0 1 1192,372.7969 L1192,709 A2.5,2.5 0 0 1 1189.5,711.5 L661.5,711.5 A2.5,2.5 0 0 1 659,709 L659,350.5 A2.5,2.5 0 0 1 661.5,348 "
        fill="none" style="stroke:#000000;stroke-width:1.5;"/>
      <line style="stroke:#000000;stroke-width:1.5;" x1="659" x2="725" y1="370.2969" y2="370.2969"/>
      <text fill="#000000" font-family="sans-serif" font-size="14" font-weight="bold"
            lengthAdjust="spacing" textLength="53" x="663" y="362.9951">wagon
      </text>
    </g><!--cluster entity-->
    <g id="cluster_entity">
      <path
        d="M960.5,391 L1155.5,391 A3.75,3.75 0 0 1 1158,393.5 L1165,413.2969 L1165.5,413.2969 A2.5,2.5 0 0 1 1168,415.7969 L1168,685 A2.5,2.5 0 0 1 1165.5,687.5 L960.5,687.5 A2.5,2.5 0 0 1 958,685 L958,393.5 A2.5,2.5 0 0 1 960.5,391 "
        fill="none" style="stroke:#000000;stroke-width:1.5;"/>
      <line style="stroke:#000000;stroke-width:1.5;" x1="958" x2="1165" y1="413.2969"
            y2="413.2969"/>
      <text fill="#000000" font-family="sans-serif" font-size="14" font-weight="bold"
            lengthAdjust="spacing" textLength="194" x="962" y="405.9951">boundary.control.entity
      </text>
    </g><!--cluster entity-->
    <g id="cluster_entity">
      <path
        d="M685.5,399 L921.5,399 A3.75,3.75 0 0 1 924,401.5 L931,421.2969 L931.5,421.2969 A2.5,2.5 0 0 1 934,423.7969 L934,685 A2.5,2.5 0 0 1 931.5,687.5 L685.5,687.5 A2.5,2.5 0 0 1 683,685 L683,401.5 A2.5,2.5 0 0 1 685.5,399 "
        fill="none" style="stroke:#000000;stroke-width:1.5;"/>
      <line style="stroke:#000000;stroke-width:1.5;" x1="683" x2="931" y1="421.2969" y2="421.2969"/>
      <text fill="#000000" font-family="sans-serif" font-size="14" font-weight="bold"
            lengthAdjust="spacing" textLength="235" x="687" y="413.9951">
        seat.boundary.control.entity
      </text>
    </g><!--class ReservationRepository-->
    <g id="elem_ReservationRepository">
      <rect codeLine="5" fill="#F1F1F1" height="129.4844" id="ReservationRepository" rx="2.5"
            ry="2.5" style="stroke:#181818;stroke-width:0.5;" width="352" x="1612" y="143.5"/>
      <ellipse cx="1703.25" cy="159.5" fill="#B4A7E5" rx="11" ry="11"
               style="stroke:#181818;stroke-width:1.0;"/>
      <path
        d="M1704.2031,156.2813 L1705.9219,156.2813 C1706.3125,156.2813 1706.5,156.25 1706.625,156.1719 C1706.8906,156.0156 1707.0313,155.7344 1707.0313,155.4375 C1707.0313,155.1719 1706.9219,154.9063 1706.6875,154.7344 C1706.5156,154.625 1706.375,154.5938 1705.9219,154.5938 L1700.7813,154.5938 C1700.3438,154.5938 1700.2188,154.6094 1700.0625,154.7031 C1699.8125,154.8594 1699.6563,155.1563 1699.6563,155.4375 C1699.6563,155.7188 1699.7969,155.9688 1700.0156,156.1406 C1700.1719,156.25 1700.3594,156.2813 1700.7813,156.2813 L1702.5,156.2813 L1702.5,162.7969 L1700.7813,162.7969 C1700.3438,162.7969 1700.2188,162.8125 1700.0625,162.9219 C1699.8125,163.0781 1699.6563,163.3594 1699.6563,163.6563 C1699.6563,163.9063 1699.7969,164.1719 1700.0156,164.3281 C1700.1719,164.4531 1700.375,164.5 1700.7813,164.5 L1705.9219,164.5 C1706.6719,164.5 1707.0313,164.2188 1707.0313,163.6563 C1707.0313,163.375 1706.9219,163.125 1706.6875,162.9531 C1706.5156,162.8281 1706.375,162.7969 1705.9219,162.7969 L1704.2031,162.7969 L1704.2031,156.2813 Z "
        fill="#000000"/>
      <text fill="#000000" font-family="sans-serif" font-size="14" font-style="italic"
            lengthAdjust="spacing" textLength="161" x="1723.75" y="164.3467">ReservationRepository
      </text>
      <line style="stroke:#181818;stroke-width:0.5;" x1="1613" x2="1963" y1="175.5" y2="175.5"/>
      <line style="stroke:#181818;stroke-width:0.5;" x1="1613" x2="1963" y1="183.5" y2="183.5"/>
      <ellipse cx="1623" cy="197.1484" fill="#84BE84" rx="3" ry="3"
               style="stroke:#038048;stroke-width:1.0;"/>
      <text fill="#000000" font-family="sans-serif" font-size="14" font-style="italic"
            lengthAdjust="spacing" textLength="326" x="1632" y="200.4951">Optional&lt;Reservation&gt;
        findBy(ReservationId)
      </text>
      <ellipse cx="1623" cy="213.4453" fill="#84BE84" rx="3" ry="3"
               style="stroke:#038048;stroke-width:1.0;"/>
      <text fill="#000000" font-family="sans-serif" font-size="14" font-style="italic"
            lengthAdjust="spacing" textLength="217" x="1632" y="216.792">Reservation
        save(Reservation)
      </text>
      <ellipse cx="1623" cy="229.7422" fill="#84BE84" rx="3" ry="3"
               style="stroke:#038048;stroke-width:1.0;"/>
      <text fill="#000000" font-family="sans-serif" font-size="14" font-style="italic"
            lengthAdjust="spacing" textLength="190" x="1632" y="233.0889">void submit(ReservationId)
      </text>
      <ellipse cx="1623" cy="246.0391" fill="#84BE84" rx="3" ry="3"
               style="stroke:#038048;stroke-width:1.0;"/>
      <text fill="#000000" font-family="sans-serif" font-size="14" font-style="italic"
            lengthAdjust="spacing" textLength="197" x="1632" y="249.3857">void
        confirm(ReservationId)
      </text>
      <ellipse cx="1623" cy="262.3359" fill="#84BE84" rx="3" ry="3"
               style="stroke:#038048;stroke-width:1.0;"/>
      <text fill="#000000" font-family="sans-serif" font-size="14" font-style="italic"
            lengthAdjust="spacing" textLength="178" x="1632" y="265.6826">void reset(ReservationId)
      </text>
    </g><!--class ReservationRepositoryImpl-->
    <g id="elem_ReservationRepositoryImpl">
      <rect codeLine="12" fill="#F1F1F1" height="129.4844" id="ReservationRepositoryImpl" rx="2.5"
            ry="2.5" style="stroke:#181818;stroke-width:0.5;" width="355" x="1610.5" y="410"/>
      <ellipse cx="1685.25" cy="426" fill="#ADD1B2" rx="11" ry="11"
               style="stroke:#181818;stroke-width:1.0;"/>
      <path
        d="M1687.5938,421.6719 C1686.6563,421.2344 1686.0625,421.0938 1685.1875,421.0938 C1682.5625,421.0938 1680.5625,423.1719 1680.5625,425.8906 L1680.5625,427.0156 C1680.5625,429.5938 1682.6719,431.4844 1685.5625,431.4844 C1686.7813,431.4844 1687.9375,431.1875 1688.6875,430.6406 C1689.2656,430.2344 1689.5938,429.7813 1689.5938,429.3906 C1689.5938,428.9375 1689.2031,428.5469 1688.7344,428.5469 C1688.5156,428.5469 1688.3125,428.625 1688.125,428.8125 C1687.6719,429.2969 1687.6719,429.2969 1687.4844,429.3906 C1687.0625,429.6563 1686.375,429.7813 1685.6094,429.7813 C1683.5625,429.7813 1682.2656,428.6875 1682.2656,426.9844 L1682.2656,425.8906 C1682.2656,424.1094 1683.5156,422.7969 1685.25,422.7969 C1685.8281,422.7969 1686.4375,422.9531 1686.9063,423.2031 C1687.3906,423.4844 1687.5625,423.7031 1687.6563,424.1094 C1687.7188,424.5156 1687.75,424.6406 1687.8906,424.7656 C1688.0313,424.9063 1688.2656,425.0156 1688.4844,425.0156 C1688.75,425.0156 1689.0156,424.875 1689.1875,424.6563 C1689.2969,424.5 1689.3281,424.3125 1689.3281,423.8906 L1689.3281,422.4688 C1689.3281,422.0313 1689.3125,421.9063 1689.2188,421.75 C1689.0625,421.4844 1688.7813,421.3438 1688.4844,421.3438 C1688.1875,421.3438 1687.9844,421.4375 1687.7656,421.75 L1687.5938,421.6719 Z "
        fill="#000000"/>
      <text fill="#000000" font-family="sans-serif" font-size="14" lengthAdjust="spacing"
            textLength="197" x="1705.75" y="430.8467">ReservationRepositoryImpl
      </text>
      <line style="stroke:#181818;stroke-width:0.5;" x1="1611.5" x2="1964.5" y1="442" y2="442"/>
      <line style="stroke:#181818;stroke-width:0.5;" x1="1611.5" x2="1964.5" y1="450" y2="450"/>
      <ellipse cx="1621.5" cy="463.6484" fill="#84BE84" rx="3" ry="3"
               style="stroke:#038048;stroke-width:1.0;"/>
      <text fill="#000000" font-family="sans-serif" font-size="14" lengthAdjust="spacing"
            textLength="329" x="1630.5" y="466.9951">Optional&lt;Reservation&gt;
        findBy(ReservationId)
      </text>
      <ellipse cx="1621.5" cy="479.9453" fill="#84BE84" rx="3" ry="3"
               style="stroke:#038048;stroke-width:1.0;"/>
      <text fill="#000000" font-family="sans-serif" font-size="14" lengthAdjust="spacing"
            textLength="218" x="1630.5" y="483.292">Reservation save(Reservation)
      </text>
      <ellipse cx="1621.5" cy="496.2422" fill="#84BE84" rx="3" ry="3"
               style="stroke:#038048;stroke-width:1.0;"/>
      <text fill="#000000" font-family="sans-serif" font-size="14" lengthAdjust="spacing"
            textLength="193" x="1630.5" y="499.5889">void submit(ReservationId)
      </text>
      <ellipse cx="1621.5" cy="512.5391" fill="#84BE84" rx="3" ry="3"
               style="stroke:#038048;stroke-width:1.0;"/>
      <text fill="#000000" font-family="sans-serif" font-size="14" lengthAdjust="spacing"
            textLength="199" x="1630.5" y="515.8857">void confirm(ReservationId)
      </text>
      <ellipse cx="1621.5" cy="528.8359" fill="#84BE84" rx="3" ry="3"
               style="stroke:#038048;stroke-width:1.0;"/>
      <text fill="#000000" font-family="sans-serif" font-size="14" lengthAdjust="spacing"
            textLength="181" x="1630.5" y="532.1826">void reset(ReservationId)
      </text>
    </g><!--class Reservation-->
    <g id="elem_Reservation">
      <rect codeLine="19" fill="#F1F1F1" height="80.5938" id="Reservation" rx="2.5" ry="2.5"
            style="stroke:#181818;stroke-width:0.5;" width="243" x="1666.5" y="599"/>
      <ellipse cx="1740.75" cy="615" fill="#ADD1B2" rx="11" ry="11"
               style="stroke:#181818;stroke-width:1.0;"/>
      <path
        d="M1743.0938,610.6719 C1742.1563,610.2344 1741.5625,610.0938 1740.6875,610.0938 C1738.0625,610.0938 1736.0625,612.1719 1736.0625,614.8906 L1736.0625,616.0156 C1736.0625,618.5938 1738.1719,620.4844 1741.0625,620.4844 C1742.2813,620.4844 1743.4375,620.1875 1744.1875,619.6406 C1744.7656,619.2344 1745.0938,618.7813 1745.0938,618.3906 C1745.0938,617.9375 1744.7031,617.5469 1744.2344,617.5469 C1744.0156,617.5469 1743.8125,617.625 1743.625,617.8125 C1743.1719,618.2969 1743.1719,618.2969 1742.9844,618.3906 C1742.5625,618.6563 1741.875,618.7813 1741.1094,618.7813 C1739.0625,618.7813 1737.7656,617.6875 1737.7656,615.9844 L1737.7656,614.8906 C1737.7656,613.1094 1739.0156,611.7969 1740.75,611.7969 C1741.3281,611.7969 1741.9375,611.9531 1742.4063,612.2031 C1742.8906,612.4844 1743.0625,612.7031 1743.1563,613.1094 C1743.2188,613.5156 1743.25,613.6406 1743.3906,613.7656 C1743.5313,613.9063 1743.7656,614.0156 1743.9844,614.0156 C1744.25,614.0156 1744.5156,613.875 1744.6875,613.6563 C1744.7969,613.5 1744.8281,613.3125 1744.8281,612.8906 L1744.8281,611.4688 C1744.8281,611.0313 1744.8125,610.9063 1744.7188,610.75 C1744.5625,610.4844 1744.2813,610.3438 1743.9844,610.3438 C1743.6875,610.3438 1743.4844,610.4375 1743.2656,610.75 L1743.0938,610.6719 Z "
        fill="#000000"/>
      <text fill="#000000" font-family="sans-serif" font-size="14" lengthAdjust="spacing"
            textLength="86" x="1761.25" y="619.8467">Reservation
      </text>
      <line style="stroke:#181818;stroke-width:0.5;" x1="1667.5" x2="1908.5" y1="631" y2="631"/>
      <line style="stroke:#181818;stroke-width:0.5;" x1="1667.5" x2="1908.5" y1="639" y2="639"/>
      <ellipse cx="1677.5" cy="652.6484" fill="#84BE84" rx="3" ry="3"
               style="stroke:#038048;stroke-width:1.0;"/>
      <text fill="#000000" font-family="sans-serif" font-size="14" lengthAdjust="spacing"
            textLength="151" x="1686.5" y="655.9951">ReservationId getId()
      </text>
      <ellipse cx="1677.5" cy="668.9453" fill="#84BE84" rx="3" ry="3"
               style="stroke:#038048;stroke-width:1.0;"/>
      <text fill="#000000" font-family="sans-serif" font-size="14" lengthAdjust="spacing"
            textLength="217" x="1686.5" y="672.292">ReservationStatus getStatus()
      </text>
    </g><!--class ReservationId-->
    <g id="elem_ReservationId">
      <rect codeLine="23" fill="#F1F1F1" height="64.2969" id="ReservationId" rx="2.5" ry="2.5"
            style="stroke:#181818;stroke-width:0.5;" width="131" x="1538.5" y="800"/>
      <ellipse cx="1553.5" cy="816" fill="#ADD1B2" rx="11" ry="11"
               style="stroke:#181818;stroke-width:1.0;"/>
      <path
        d="M1555.8438,811.6719 C1554.9063,811.2344 1554.3125,811.0938 1553.4375,811.0938 C1550.8125,811.0938 1548.8125,813.1719 1548.8125,815.8906 L1548.8125,817.0156 C1548.8125,819.5938 1550.9219,821.4844 1553.8125,821.4844 C1555.0313,821.4844 1556.1875,821.1875 1556.9375,820.6406 C1557.5156,820.2344 1557.8438,819.7813 1557.8438,819.3906 C1557.8438,818.9375 1557.4531,818.5469 1556.9844,818.5469 C1556.7656,818.5469 1556.5625,818.625 1556.375,818.8125 C1555.9219,819.2969 1555.9219,819.2969 1555.7344,819.3906 C1555.3125,819.6563 1554.625,819.7813 1553.8594,819.7813 C1551.8125,819.7813 1550.5156,818.6875 1550.5156,816.9844 L1550.5156,815.8906 C1550.5156,814.1094 1551.7656,812.7969 1553.5,812.7969 C1554.0781,812.7969 1554.6875,812.9531 1555.1563,813.2031 C1555.6406,813.4844 1555.8125,813.7031 1555.9063,814.1094 C1555.9688,814.5156 1556,814.6406 1556.1406,814.7656 C1556.2813,814.9063 1556.5156,815.0156 1556.7344,815.0156 C1557,815.0156 1557.2656,814.875 1557.4375,814.6563 C1557.5469,814.5 1557.5781,814.3125 1557.5781,813.8906 L1557.5781,812.4688 C1557.5781,812.0313 1557.5625,811.9063 1557.4688,811.75 C1557.3125,811.4844 1557.0313,811.3438 1556.7344,811.3438 C1556.4375,811.3438 1556.2344,811.4375 1556.0156,811.75 L1555.8438,811.6719 Z "
        fill="#000000"/>
      <text fill="#000000" font-family="sans-serif" font-size="14" lengthAdjust="spacing"
            textLength="99" x="1567.5" y="820.8467">ReservationId
      </text>
      <line style="stroke:#181818;stroke-width:0.5;" x1="1539.5" x2="1668.5" y1="832" y2="832"/>
      <line style="stroke:#181818;stroke-width:0.5;" x1="1539.5" x2="1668.5" y1="840" y2="840"/>
      <ellipse cx="1549.5" cy="853.6484" fill="#84BE84" rx="3" ry="3"
               style="stroke:#038048;stroke-width:1.0;"/>
      <text fill="#000000" font-family="sans-serif" font-size="14" lengthAdjust="spacing"
            textLength="85" x="1558.5" y="856.9951">UUID getId()
      </text>
    </g><!--class ReservationStatus-->
    <g id="elem_ReservationStatus">
      <rect codeLine="26" fill="#F1F1F1" height="113.1875" id="ReservationStatus" rx="2.5" ry="2.5"
            style="stroke:#181818;stroke-width:0.5;" width="361" x="1704.5" y="775.5"/>
      <ellipse cx="1814.75" cy="791.5" fill="#EB937F" rx="11" ry="11"
               style="stroke:#181818;stroke-width:1.0;"/>
      <path
        d="M1813.5469,792.375 L1815,792.375 L1815,792.4844 C1815,792.8906 1815.0313,793.0469 1815.1094,793.2031 C1815.2656,793.4531 1815.5469,793.6094 1815.8438,793.6094 C1816.0938,793.6094 1816.3594,793.4688 1816.5156,793.25 C1816.6406,793.0938 1816.6719,792.9375 1816.6719,792.4844 L1816.6719,790.5625 C1816.6719,790.4063 1816.6719,790.3594 1816.6563,790.2031 C1816.5938,789.7344 1816.2813,789.4219 1815.8281,789.4219 C1815.5781,789.4219 1815.3125,789.5625 1815.1406,789.7813 C1815.0313,789.9531 1815,790.1094 1815,790.5625 L1815,790.6875 L1813.5469,790.6875 L1813.5469,788.2813 L1817.5313,788.2813 L1817.5313,789.1406 C1817.5313,789.5469 1817.5625,789.7188 1817.6406,789.875 C1817.8125,790.125 1818.0938,790.2813 1818.375,790.2813 C1818.6406,790.2813 1818.9063,790.1406 1819.0781,789.9219 C1819.1875,789.75 1819.2188,789.6094 1819.2188,789.1406 L1819.2188,786.5938 L1811.5938,786.5938 C1811.1563,786.5938 1811.0313,786.6094 1810.875,786.7031 C1810.625,786.8594 1810.4688,787.1563 1810.4688,787.4375 C1810.4688,787.7188 1810.6094,787.9688 1810.8281,788.1406 C1810.9844,788.25 1811.1719,788.2813 1811.5938,788.2813 L1811.8438,788.2813 L1811.8438,794.7969 L1811.5938,794.7969 C1811.1875,794.7969 1811.0313,794.8125 1810.875,794.9219 C1810.625,795.0938 1810.4688,795.3594 1810.4688,795.6563 C1810.4688,795.9219 1810.6094,796.1719 1810.8281,796.3281 C1810.9688,796.4531 1811.2031,796.5 1811.5938,796.5 L1819.5938,796.5 L1819.5938,793.9219 C1819.5938,793.4844 1819.5625,793.3438 1819.4844,793.1875 C1819.3125,792.9375 1819.0313,792.7813 1818.75,792.7813 C1818.4844,792.7813 1818.2188,792.8906 1818.0469,793.1406 C1817.9375,793.2969 1817.9063,793.4375 1817.9063,793.9219 L1817.9063,794.7969 L1813.5469,794.7969 L1813.5469,792.375 Z "
        fill="#000000"/>
      <text fill="#000000" font-family="sans-serif" font-size="14" lengthAdjust="spacing"
            textLength="132" x="1835.25" y="796.3467">ReservationStatus
      </text>
      <line style="stroke:#181818;stroke-width:0.5;" x1="1705.5" x2="2064.5" y1="807.5" y2="807.5"/>
      <text fill="#000000" font-family="sans-serif" font-size="14" lengthAdjust="spacing"
            textLength="53" x="1710.5" y="824.4951">SUBMIT
      </text>
      <text fill="#000000" font-family="sans-serif" font-size="14" lengthAdjust="spacing"
            textLength="65" x="1710.5" y="840.792">CONFIRM
      </text>
      <text fill="#000000" font-family="sans-serif" font-size="14" lengthAdjust="spacing"
            textLength="57" x="1710.5" y="857.0889">CANCEL
      </text>
      <line style="stroke:#181818;stroke-width:0.5;" x1="1705.5" x2="2064.5" y1="864.3906"
            y2="864.3906"/>
      <ellipse cx="1715.5" cy="878.0391" fill="#84BE84" rx="3" ry="3"
               style="stroke:#038048;stroke-width:1.0;"/>
      <text fill="#000000" font-family="sans-serif" font-size="14" lengthAdjust="spacing"
            text-decoration="underline" textLength="335" x="1724.5" y="881.3857">EnumEntries&lt;ReservationStatus&gt;
        getEntries()
      </text>
    </g><!--class Trip-->
    <g id="elem_Trip">
      <rect codeLine="33" fill="#F1F1F1" height="162.0781" id="Trip" rx="2.5" ry="2.5"
            style="stroke:#181818;stroke-width:0.5;" width="226" x="70" y="127"/>
      <ellipse cx="164.25" cy="143" fill="#ADD1B2" rx="11" ry="11"
               style="stroke:#181818;stroke-width:1.0;"/>
      <path
        d="M166.5938,138.6719 C165.6563,138.2344 165.0625,138.0938 164.1875,138.0938 C161.5625,138.0938 159.5625,140.1719 159.5625,142.8906 L159.5625,144.0156 C159.5625,146.5938 161.6719,148.4844 164.5625,148.4844 C165.7813,148.4844 166.9375,148.1875 167.6875,147.6406 C168.2656,147.2344 168.5938,146.7813 168.5938,146.3906 C168.5938,145.9375 168.2031,145.5469 167.7344,145.5469 C167.5156,145.5469 167.3125,145.625 167.125,145.8125 C166.6719,146.2969 166.6719,146.2969 166.4844,146.3906 C166.0625,146.6563 165.375,146.7813 164.6094,146.7813 C162.5625,146.7813 161.2656,145.6875 161.2656,143.9844 L161.2656,142.8906 C161.2656,141.1094 162.5156,139.7969 164.25,139.7969 C164.8281,139.7969 165.4375,139.9531 165.9063,140.2031 C166.3906,140.4844 166.5625,140.7031 166.6563,141.1094 C166.7188,141.5156 166.75,141.6406 166.8906,141.7656 C167.0313,141.9063 167.2656,142.0156 167.4844,142.0156 C167.75,142.0156 168.0156,141.875 168.1875,141.6563 C168.2969,141.5 168.3281,141.3125 168.3281,140.8906 L168.3281,139.4688 C168.3281,139.0313 168.3125,138.9063 168.2188,138.75 C168.0625,138.4844 167.7813,138.3438 167.4844,138.3438 C167.1875,138.3438 166.9844,138.4375 166.7656,138.75 L166.5938,138.6719 Z "
        fill="#000000"/>
      <text fill="#000000" font-family="sans-serif" font-size="14" lengthAdjust="spacing"
            textLength="29" x="184.75" y="147.8467">Trip
      </text>
      <line style="stroke:#181818;stroke-width:0.5;" x1="71" x2="295" y1="159" y2="159"/>
      <line style="stroke:#181818;stroke-width:0.5;" x1="71" x2="295" y1="167" y2="167"/>
      <ellipse cx="81" cy="180.6484" fill="#84BE84" rx="3" ry="3"
               style="stroke:#038048;stroke-width:1.0;"/>
      <text fill="#000000" font-family="sans-serif" font-size="14" lengthAdjust="spacing"
            textLength="94" x="90" y="183.9951">TripId getId()
      </text>
      <ellipse cx="81" cy="196.9453" fill="#84BE84" rx="3" ry="3"
               style="stroke:#038048;stroke-width:1.0;"/>
      <text fill="#000000" font-family="sans-serif" font-size="14" lengthAdjust="spacing"
            textLength="135" x="90" y="200.292">Station getOrigin()
      </text>
      <ellipse cx="81" cy="213.2422" fill="#84BE84" rx="3" ry="3"
               style="stroke:#038048;stroke-width:1.0;"/>
      <text fill="#000000" font-family="sans-serif" font-size="14" lengthAdjust="spacing"
            textLength="176" x="90" y="216.5889">Station getDestination()
      </text>
      <ellipse cx="81" cy="229.5391" fill="#84BE84" rx="3" ry="3"
               style="stroke:#038048;stroke-width:1.0;"/>
      <text fill="#000000" font-family="sans-serif" font-size="14" lengthAdjust="spacing"
            textLength="200" x="90" y="232.8857">List&lt;Station&gt; getStations()
      </text>
      <ellipse cx="81" cy="245.8359" fill="#84BE84" rx="3" ry="3"
               style="stroke:#038048;stroke-width:1.0;"/>
      <text fill="#000000" font-family="sans-serif" font-size="14" lengthAdjust="spacing"
            textLength="111" x="90" y="249.1826">Train getTrain()
      </text>
      <ellipse cx="81" cy="262.1328" fill="#84BE84" rx="3" ry="3"
               style="stroke:#038048;stroke-width:1.0;"/>
      <text fill="#000000" font-family="sans-serif" font-size="14" lengthAdjust="spacing"
            textLength="105" x="90" y="265.4795">Seat getSeat()
      </text>
      <ellipse cx="81" cy="278.4297" fill="#84BE84" rx="3" ry="3"
               style="stroke:#038048;stroke-width:1.0;"/>
      <text fill="#000000" font-family="sans-serif" font-size="14" lengthAdjust="spacing"
            textLength="137" x="90" y="281.7764">Wagon getWagon()
      </text>
    </g><!--class TripId-->
    <g id="elem_TripId">
      <rect codeLine="42" fill="#F1F1F1" height="64.2969" id="TripId" rx="2.5" ry="2.5"
            style="stroke:#181818;stroke-width:0.5;" width="111" x="127.5" y="442.5"/>
      <ellipse cx="159.15" cy="458.5" fill="#ADD1B2" rx="11" ry="11"
               style="stroke:#181818;stroke-width:1.0;"/>
      <path
        d="M161.4938,454.1719 C160.5563,453.7344 159.9625,453.5938 159.0875,453.5938 C156.4625,453.5938 154.4625,455.6719 154.4625,458.3906 L154.4625,459.5156 C154.4625,462.0938 156.5719,463.9844 159.4625,463.9844 C160.6813,463.9844 161.8375,463.6875 162.5875,463.1406 C163.1656,462.7344 163.4938,462.2813 163.4938,461.8906 C163.4938,461.4375 163.1031,461.0469 162.6344,461.0469 C162.4156,461.0469 162.2125,461.125 162.025,461.3125 C161.5719,461.7969 161.5719,461.7969 161.3844,461.8906 C160.9625,462.1563 160.275,462.2813 159.5094,462.2813 C157.4625,462.2813 156.1656,461.1875 156.1656,459.4844 L156.1656,458.3906 C156.1656,456.6094 157.4156,455.2969 159.15,455.2969 C159.7281,455.2969 160.3375,455.4531 160.8063,455.7031 C161.2906,455.9844 161.4625,456.2031 161.5563,456.6094 C161.6188,457.0156 161.65,457.1406 161.7906,457.2656 C161.9313,457.4063 162.1656,457.5156 162.3844,457.5156 C162.65,457.5156 162.9156,457.375 163.0875,457.1563 C163.1969,457 163.2281,456.8125 163.2281,456.3906 L163.2281,454.9688 C163.2281,454.5313 163.2125,454.4063 163.1188,454.25 C162.9625,453.9844 162.6813,453.8438 162.3844,453.8438 C162.0875,453.8438 161.8844,453.9375 161.6656,454.25 L161.4938,454.1719 Z "
        fill="#000000"/>
      <text fill="#000000" font-family="sans-serif" font-size="14" lengthAdjust="spacing"
            textLength="42" x="176.85" y="463.3467">TripId
      </text>
      <line style="stroke:#181818;stroke-width:0.5;" x1="128.5" x2="237.5" y1="474.5" y2="474.5"/>
      <line style="stroke:#181818;stroke-width:0.5;" x1="128.5" x2="237.5" y1="482.5" y2="482.5"/>
      <ellipse cx="138.5" cy="496.1484" fill="#84BE84" rx="3" ry="3"
               style="stroke:#038048;stroke-width:1.0;"/>
      <text fill="#000000" font-family="sans-serif" font-size="14" lengthAdjust="spacing"
            textLength="85" x="147.5" y="499.4951">UUID getId()
      </text>
    </g><!--class Station-->
    <g id="elem_Station">
      <rect codeLine="45" fill="#F1F1F1" height="80.5938" id="Station" rx="2.5" ry="2.5"
            style="stroke:#181818;stroke-width:0.5;" width="150" x="352" y="434"/>
      <ellipse cx="396.25" cy="450" fill="#ADD1B2" rx="11" ry="11"
               style="stroke:#181818;stroke-width:1.0;"/>
      <path
        d="M398.5938,445.6719 C397.6563,445.2344 397.0625,445.0938 396.1875,445.0938 C393.5625,445.0938 391.5625,447.1719 391.5625,449.8906 L391.5625,451.0156 C391.5625,453.5938 393.6719,455.4844 396.5625,455.4844 C397.7813,455.4844 398.9375,455.1875 399.6875,454.6406 C400.2656,454.2344 400.5938,453.7813 400.5938,453.3906 C400.5938,452.9375 400.2031,452.5469 399.7344,452.5469 C399.5156,452.5469 399.3125,452.625 399.125,452.8125 C398.6719,453.2969 398.6719,453.2969 398.4844,453.3906 C398.0625,453.6563 397.375,453.7813 396.6094,453.7813 C394.5625,453.7813 393.2656,452.6875 393.2656,450.9844 L393.2656,449.8906 C393.2656,448.1094 394.5156,446.7969 396.25,446.7969 C396.8281,446.7969 397.4375,446.9531 397.9063,447.2031 C398.3906,447.4844 398.5625,447.7031 398.6563,448.1094 C398.7188,448.5156 398.75,448.6406 398.8906,448.7656 C399.0313,448.9063 399.2656,449.0156 399.4844,449.0156 C399.75,449.0156 400.0156,448.875 400.1875,448.6563 C400.2969,448.5 400.3281,448.3125 400.3281,447.8906 L400.3281,446.4688 C400.3281,446.0313 400.3125,445.9063 400.2188,445.75 C400.0625,445.4844 399.7813,445.3438 399.4844,445.3438 C399.1875,445.3438 398.9844,445.4375 398.7656,445.75 L398.5938,445.6719 Z "
        fill="#000000"/>
      <text fill="#000000" font-family="sans-serif" font-size="14" lengthAdjust="spacing"
            textLength="53" x="416.75" y="454.8467">Station
      </text>
      <line style="stroke:#181818;stroke-width:0.5;" x1="353" x2="501" y1="466" y2="466"/>
      <line style="stroke:#181818;stroke-width:0.5;" x1="353" x2="501" y1="474" y2="474"/>
      <ellipse cx="363" cy="487.6484" fill="#84BE84" rx="3" ry="3"
               style="stroke:#038048;stroke-width:1.0;"/>
      <text fill="#000000" font-family="sans-serif" font-size="14" lengthAdjust="spacing"
            textLength="118" x="372" y="490.9951">StationId getId()
      </text>
      <ellipse cx="363" cy="503.9453" fill="#84BE84" rx="3" ry="3"
               style="stroke:#038048;stroke-width:1.0;"/>
      <text fill="#000000" font-family="sans-serif" font-size="14" lengthAdjust="spacing"
            textLength="124" x="372" y="507.292">String getName()
      </text>
    </g><!--class StationId-->
    <g id="elem_StationId">
      <rect codeLine="49" fill="#F1F1F1" height="64.2969" id="StationId" rx="2.5" ry="2.5"
            style="stroke:#181818;stroke-width:0.5;" width="111" x="371.5" y="607.5"/>
      <ellipse cx="392.35" cy="623.5" fill="#ADD1B2" rx="11" ry="11"
               style="stroke:#181818;stroke-width:1.0;"/>
      <path
        d="M394.6938,619.1719 C393.7563,618.7344 393.1625,618.5938 392.2875,618.5938 C389.6625,618.5938 387.6625,620.6719 387.6625,623.3906 L387.6625,624.5156 C387.6625,627.0938 389.7719,628.9844 392.6625,628.9844 C393.8813,628.9844 395.0375,628.6875 395.7875,628.1406 C396.3656,627.7344 396.6938,627.2813 396.6938,626.8906 C396.6938,626.4375 396.3031,626.0469 395.8344,626.0469 C395.6156,626.0469 395.4125,626.125 395.225,626.3125 C394.7719,626.7969 394.7719,626.7969 394.5844,626.8906 C394.1625,627.1563 393.475,627.2813 392.7094,627.2813 C390.6625,627.2813 389.3656,626.1875 389.3656,624.4844 L389.3656,623.3906 C389.3656,621.6094 390.6156,620.2969 392.35,620.2969 C392.9281,620.2969 393.5375,620.4531 394.0063,620.7031 C394.4906,620.9844 394.6625,621.2031 394.7563,621.6094 C394.8188,622.0156 394.85,622.1406 394.9906,622.2656 C395.1313,622.4063 395.3656,622.5156 395.5844,622.5156 C395.85,622.5156 396.1156,622.375 396.2875,622.1563 C396.3969,622 396.4281,621.8125 396.4281,621.3906 L396.4281,619.9688 C396.4281,619.5313 396.4125,619.4063 396.3188,619.25 C396.1625,618.9844 395.8813,618.8438 395.5844,618.8438 C395.2875,618.8438 395.0844,618.9375 394.8656,619.25 L394.6938,619.1719 Z "
        fill="#000000"/>
      <text fill="#000000" font-family="sans-serif" font-size="14" lengthAdjust="spacing"
            textLength="66" x="407.65" y="628.3467">StationId
      </text>
      <line style="stroke:#181818;stroke-width:0.5;" x1="372.5" x2="481.5" y1="639.5" y2="639.5"/>
      <line style="stroke:#181818;stroke-width:0.5;" x1="372.5" x2="481.5" y1="647.5" y2="647.5"/>
      <ellipse cx="382.5" cy="661.1484" fill="#84BE84" rx="3" ry="3"
               style="stroke:#038048;stroke-width:1.0;"/>
      <text fill="#000000" font-family="sans-serif" font-size="14" lengthAdjust="spacing"
            textLength="85" x="391.5" y="664.4951">UUID getId()
      </text>
    </g><!--class Train-->
    <g id="elem_Train">
      <rect codeLine="52" fill="#F1F1F1" height="80.5938" id="Train" rx="2.5" ry="2.5"
            style="stroke:#181818;stroke-width:0.5;" width="150" x="1232" y="434"/>
      <ellipse cx="1284.75" cy="450" fill="#ADD1B2" rx="11" ry="11"
               style="stroke:#181818;stroke-width:1.0;"/>
      <path
        d="M1287.0938,445.6719 C1286.1563,445.2344 1285.5625,445.0938 1284.6875,445.0938 C1282.0625,445.0938 1280.0625,447.1719 1280.0625,449.8906 L1280.0625,451.0156 C1280.0625,453.5938 1282.1719,455.4844 1285.0625,455.4844 C1286.2813,455.4844 1287.4375,455.1875 1288.1875,454.6406 C1288.7656,454.2344 1289.0938,453.7813 1289.0938,453.3906 C1289.0938,452.9375 1288.7031,452.5469 1288.2344,452.5469 C1288.0156,452.5469 1287.8125,452.625 1287.625,452.8125 C1287.1719,453.2969 1287.1719,453.2969 1286.9844,453.3906 C1286.5625,453.6563 1285.875,453.7813 1285.1094,453.7813 C1283.0625,453.7813 1281.7656,452.6875 1281.7656,450.9844 L1281.7656,449.8906 C1281.7656,448.1094 1283.0156,446.7969 1284.75,446.7969 C1285.3281,446.7969 1285.9375,446.9531 1286.4063,447.2031 C1286.8906,447.4844 1287.0625,447.7031 1287.1563,448.1094 C1287.2188,448.5156 1287.25,448.6406 1287.3906,448.7656 C1287.5313,448.9063 1287.7656,449.0156 1287.9844,449.0156 C1288.25,449.0156 1288.5156,448.875 1288.6875,448.6563 C1288.7969,448.5 1288.8281,448.3125 1288.8281,447.8906 L1288.8281,446.4688 C1288.8281,446.0313 1288.8125,445.9063 1288.7188,445.75 C1288.5625,445.4844 1288.2813,445.3438 1287.9844,445.3438 C1287.6875,445.3438 1287.4844,445.4375 1287.2656,445.75 L1287.0938,445.6719 Z "
        fill="#000000"/>
      <text fill="#000000" font-family="sans-serif" font-size="14" lengthAdjust="spacing"
            textLength="36" x="1305.25" y="454.8467">Train
      </text>
      <line style="stroke:#181818;stroke-width:0.5;" x1="1233" x2="1381" y1="466" y2="466"/>
      <line style="stroke:#181818;stroke-width:0.5;" x1="1233" x2="1381" y1="474" y2="474"/>
      <ellipse cx="1243" cy="487.6484" fill="#84BE84" rx="3" ry="3"
               style="stroke:#038048;stroke-width:1.0;"/>
      <text fill="#000000" font-family="sans-serif" font-size="14" lengthAdjust="spacing"
            textLength="101" x="1252" y="490.9951">TrainId getId()
      </text>
      <ellipse cx="1243" cy="503.9453" fill="#84BE84" rx="3" ry="3"
               style="stroke:#038048;stroke-width:1.0;"/>
      <text fill="#000000" font-family="sans-serif" font-size="14" lengthAdjust="spacing"
            textLength="124" x="1252" y="507.292">String getName()
      </text>
    </g><!--class TrainId-->
    <g id="elem_TrainId">
      <rect codeLine="56" fill="#F1F1F1" height="64.2969" id="TrainId" rx="2.5" ry="2.5"
            style="stroke:#181818;stroke-width:0.5;" width="111" x="1251.5" y="607.5"/>
      <ellipse cx="1280" cy="623.5" fill="#ADD1B2" rx="11" ry="11"
               style="stroke:#181818;stroke-width:1.0;"/>
      <path
        d="M1282.3438,619.1719 C1281.4063,618.7344 1280.8125,618.5938 1279.9375,618.5938 C1277.3125,618.5938 1275.3125,620.6719 1275.3125,623.3906 L1275.3125,624.5156 C1275.3125,627.0938 1277.4219,628.9844 1280.3125,628.9844 C1281.5313,628.9844 1282.6875,628.6875 1283.4375,628.1406 C1284.0156,627.7344 1284.3438,627.2813 1284.3438,626.8906 C1284.3438,626.4375 1283.9531,626.0469 1283.4844,626.0469 C1283.2656,626.0469 1283.0625,626.125 1282.875,626.3125 C1282.4219,626.7969 1282.4219,626.7969 1282.2344,626.8906 C1281.8125,627.1563 1281.125,627.2813 1280.3594,627.2813 C1278.3125,627.2813 1277.0156,626.1875 1277.0156,624.4844 L1277.0156,623.3906 C1277.0156,621.6094 1278.2656,620.2969 1280,620.2969 C1280.5781,620.2969 1281.1875,620.4531 1281.6563,620.7031 C1282.1406,620.9844 1282.3125,621.2031 1282.4063,621.6094 C1282.4688,622.0156 1282.5,622.1406 1282.6406,622.2656 C1282.7813,622.4063 1283.0156,622.5156 1283.2344,622.5156 C1283.5,622.5156 1283.7656,622.375 1283.9375,622.1563 C1284.0469,622 1284.0781,621.8125 1284.0781,621.3906 L1284.0781,619.9688 C1284.0781,619.5313 1284.0625,619.4063 1283.9688,619.25 C1283.8125,618.9844 1283.5313,618.8438 1283.2344,618.8438 C1282.9375,618.8438 1282.7344,618.9375 1282.5156,619.25 L1282.3438,619.1719 Z "
        fill="#000000"/>
      <text fill="#000000" font-family="sans-serif" font-size="14" lengthAdjust="spacing"
            textLength="49" x="1297" y="628.3467">TrainId
      </text>
      <line style="stroke:#181818;stroke-width:0.5;" x1="1252.5" x2="1361.5" y1="639.5" y2="639.5"/>
      <line style="stroke:#181818;stroke-width:0.5;" x1="1252.5" x2="1361.5" y1="647.5" y2="647.5"/>
      <ellipse cx="1262.5" cy="661.1484" fill="#84BE84" rx="3" ry="3"
               style="stroke:#038048;stroke-width:1.0;"/>
      <text fill="#000000" font-family="sans-serif" font-size="14" lengthAdjust="spacing"
            textLength="85" x="1271.5" y="664.4951">UUID getId()
      </text>
    </g><!--class Wagon-->
    <g id="elem_Wagon">
      <rect codeLine="59" fill="#F1F1F1" height="96.8906" id="Wagon" rx="2.5" ry="2.5"
            style="stroke:#181818;stroke-width:0.5;" width="166" x="974" y="426"/>
      <ellipse cx="1028.25" cy="442" fill="#ADD1B2" rx="11" ry="11"
               style="stroke:#181818;stroke-width:1.0;"/>
      <path
        d="M1030.5938,437.6719 C1029.6563,437.2344 1029.0625,437.0938 1028.1875,437.0938 C1025.5625,437.0938 1023.5625,439.1719 1023.5625,441.8906 L1023.5625,443.0156 C1023.5625,445.5938 1025.6719,447.4844 1028.5625,447.4844 C1029.7813,447.4844 1030.9375,447.1875 1031.6875,446.6406 C1032.2656,446.2344 1032.5938,445.7813 1032.5938,445.3906 C1032.5938,444.9375 1032.2031,444.5469 1031.7344,444.5469 C1031.5156,444.5469 1031.3125,444.625 1031.125,444.8125 C1030.6719,445.2969 1030.6719,445.2969 1030.4844,445.3906 C1030.0625,445.6563 1029.375,445.7813 1028.6094,445.7813 C1026.5625,445.7813 1025.2656,444.6875 1025.2656,442.9844 L1025.2656,441.8906 C1025.2656,440.1094 1026.5156,438.7969 1028.25,438.7969 C1028.8281,438.7969 1029.4375,438.9531 1029.9063,439.2031 C1030.3906,439.4844 1030.5625,439.7031 1030.6563,440.1094 C1030.7188,440.5156 1030.75,440.6406 1030.8906,440.7656 C1031.0313,440.9063 1031.2656,441.0156 1031.4844,441.0156 C1031.75,441.0156 1032.0156,440.875 1032.1875,440.6563 C1032.2969,440.5 1032.3281,440.3125 1032.3281,439.8906 L1032.3281,438.4688 C1032.3281,438.0313 1032.3125,437.9063 1032.2188,437.75 C1032.0625,437.4844 1031.7813,437.3438 1031.4844,437.3438 C1031.1875,437.3438 1030.9844,437.4375 1030.7656,437.75 L1030.5938,437.6719 Z "
        fill="#000000"/>
      <text fill="#000000" font-family="sans-serif" font-size="14" lengthAdjust="spacing"
            textLength="49" x="1048.75" y="446.8467">Wagon
      </text>
      <line style="stroke:#181818;stroke-width:0.5;" x1="975" x2="1139" y1="458" y2="458"/>
      <line style="stroke:#181818;stroke-width:0.5;" x1="975" x2="1139" y1="466" y2="466"/>
      <ellipse cx="985" cy="479.6484" fill="#84BE84" rx="3" ry="3"
               style="stroke:#038048;stroke-width:1.0;"/>
      <text fill="#000000" font-family="sans-serif" font-size="14" lengthAdjust="spacing"
            textLength="114" x="994" y="482.9951">WagonId getId()
      </text>
      <ellipse cx="985" cy="495.9453" fill="#84BE84" rx="3" ry="3"
               style="stroke:#038048;stroke-width:1.0;"/>
      <text fill="#000000" font-family="sans-serif" font-size="14" lengthAdjust="spacing"
            textLength="124" x="994" y="499.292">String getName()
      </text>
      <ellipse cx="985" cy="512.2422" fill="#84BE84" rx="3" ry="3"
               style="stroke:#038048;stroke-width:1.0;"/>
      <text fill="#000000" font-family="sans-serif" font-size="14" lengthAdjust="spacing"
            textLength="140" x="994" y="515.5889">String getNumber()
      </text>
    </g><!--class WagonId-->
    <g id="elem_WagonId">
      <rect codeLine="64" fill="#F1F1F1" height="64.2969" id="WagonId" rx="2.5" ry="2.5"
            style="stroke:#181818;stroke-width:0.5;" width="111" x="1001.5" y="607.5"/>
      <ellipse cx="1024.15" cy="623.5" fill="#ADD1B2" rx="11" ry="11"
               style="stroke:#181818;stroke-width:1.0;"/>
      <path
        d="M1026.4938,619.1719 C1025.5563,618.7344 1024.9625,618.5938 1024.0875,618.5938 C1021.4625,618.5938 1019.4625,620.6719 1019.4625,623.3906 L1019.4625,624.5156 C1019.4625,627.0938 1021.5719,628.9844 1024.4625,628.9844 C1025.6813,628.9844 1026.8375,628.6875 1027.5875,628.1406 C1028.1656,627.7344 1028.4938,627.2813 1028.4938,626.8906 C1028.4938,626.4375 1028.1031,626.0469 1027.6344,626.0469 C1027.4156,626.0469 1027.2125,626.125 1027.025,626.3125 C1026.5719,626.7969 1026.5719,626.7969 1026.3844,626.8906 C1025.9625,627.1563 1025.275,627.2813 1024.5094,627.2813 C1022.4625,627.2813 1021.1656,626.1875 1021.1656,624.4844 L1021.1656,623.3906 C1021.1656,621.6094 1022.4156,620.2969 1024.15,620.2969 C1024.7281,620.2969 1025.3375,620.4531 1025.8063,620.7031 C1026.2906,620.9844 1026.4625,621.2031 1026.5563,621.6094 C1026.6188,622.0156 1026.65,622.1406 1026.7906,622.2656 C1026.9313,622.4063 1027.1656,622.5156 1027.3844,622.5156 C1027.65,622.5156 1027.9156,622.375 1028.0875,622.1563 C1028.1969,622 1028.2281,621.8125 1028.2281,621.3906 L1028.2281,619.9688 C1028.2281,619.5313 1028.2125,619.4063 1028.1188,619.25 C1027.9625,618.9844 1027.6813,618.8438 1027.3844,618.8438 C1027.0875,618.8438 1026.8844,618.9375 1026.6656,619.25 L1026.4938,619.1719 Z "
        fill="#000000"/>
      <text fill="#000000" font-family="sans-serif" font-size="14" lengthAdjust="spacing"
            textLength="62" x="1039.85" y="628.3467">WagonId
      </text>
      <line style="stroke:#181818;stroke-width:0.5;" x1="1002.5" x2="1111.5" y1="639.5" y2="639.5"/>
      <line style="stroke:#181818;stroke-width:0.5;" x1="1002.5" x2="1111.5" y1="647.5" y2="647.5"/>
      <ellipse cx="1012.5" cy="661.1484" fill="#84BE84" rx="3" ry="3"
               style="stroke:#038048;stroke-width:1.0;"/>
      <text fill="#000000" font-family="sans-serif" font-size="14" lengthAdjust="spacing"
            textLength="85" x="1021.5" y="664.4951">UUID getId()
      </text>
    </g><!--class Seat-->
    <g id="elem_Seat">
      <rect codeLine="67" fill="#F1F1F1" height="80.5938" id="Seat" rx="2.5" ry="2.5"
            style="stroke:#181818;stroke-width:0.5;" width="150" x="699" y="434"/>
      <ellipse cx="753.25" cy="450" fill="#ADD1B2" rx="11" ry="11"
               style="stroke:#181818;stroke-width:1.0;"/>
      <path
        d="M755.5938,445.6719 C754.6563,445.2344 754.0625,445.0938 753.1875,445.0938 C750.5625,445.0938 748.5625,447.1719 748.5625,449.8906 L748.5625,451.0156 C748.5625,453.5938 750.6719,455.4844 753.5625,455.4844 C754.7813,455.4844 755.9375,455.1875 756.6875,454.6406 C757.2656,454.2344 757.5938,453.7813 757.5938,453.3906 C757.5938,452.9375 757.2031,452.5469 756.7344,452.5469 C756.5156,452.5469 756.3125,452.625 756.125,452.8125 C755.6719,453.2969 755.6719,453.2969 755.4844,453.3906 C755.0625,453.6563 754.375,453.7813 753.6094,453.7813 C751.5625,453.7813 750.2656,452.6875 750.2656,450.9844 L750.2656,449.8906 C750.2656,448.1094 751.5156,446.7969 753.25,446.7969 C753.8281,446.7969 754.4375,446.9531 754.9063,447.2031 C755.3906,447.4844 755.5625,447.7031 755.6563,448.1094 C755.7188,448.5156 755.75,448.6406 755.8906,448.7656 C756.0313,448.9063 756.2656,449.0156 756.4844,449.0156 C756.75,449.0156 757.0156,448.875 757.1875,448.6563 C757.2969,448.5 757.3281,448.3125 757.3281,447.8906 L757.3281,446.4688 C757.3281,446.0313 757.3125,445.9063 757.2188,445.75 C757.0625,445.4844 756.7813,445.3438 756.4844,445.3438 C756.1875,445.3438 755.9844,445.4375 755.7656,445.75 L755.5938,445.6719 Z "
        fill="#000000"/>
      <text fill="#000000" font-family="sans-serif" font-size="14" lengthAdjust="spacing"
            textLength="33" x="773.75" y="454.8467">Seat
      </text>
      <line style="stroke:#181818;stroke-width:0.5;" x1="700" x2="848" y1="466" y2="466"/>
      <line style="stroke:#181818;stroke-width:0.5;" x1="700" x2="848" y1="474" y2="474"/>
      <ellipse cx="710" cy="487.6484" fill="#84BE84" rx="3" ry="3"
               style="stroke:#038048;stroke-width:1.0;"/>
      <text fill="#000000" font-family="sans-serif" font-size="14" lengthAdjust="spacing"
            textLength="98" x="719" y="490.9951">SeatId getId()
      </text>
      <ellipse cx="710" cy="503.9453" fill="#84BE84" rx="3" ry="3"
               style="stroke:#038048;stroke-width:1.0;"/>
      <text fill="#000000" font-family="sans-serif" font-size="14" lengthAdjust="spacing"
            textLength="124" x="719" y="507.292">String getName()
      </text>
    </g><!--class SeatId-->
    <g id="elem_SeatId">
      <rect codeLine="71" fill="#F1F1F1" height="64.2969" id="SeatId" rx="2.5" ry="2.5"
            style="stroke:#181818;stroke-width:0.5;" width="111" x="718.5" y="607.5"/>
      <ellipse cx="748.35" cy="623.5" fill="#ADD1B2" rx="11" ry="11"
               style="stroke:#181818;stroke-width:1.0;"/>
      <path
        d="M750.6938,619.1719 C749.7563,618.7344 749.1625,618.5938 748.2875,618.5938 C745.6625,618.5938 743.6625,620.6719 743.6625,623.3906 L743.6625,624.5156 C743.6625,627.0938 745.7719,628.9844 748.6625,628.9844 C749.8813,628.9844 751.0375,628.6875 751.7875,628.1406 C752.3656,627.7344 752.6938,627.2813 752.6938,626.8906 C752.6938,626.4375 752.3031,626.0469 751.8344,626.0469 C751.6156,626.0469 751.4125,626.125 751.225,626.3125 C750.7719,626.7969 750.7719,626.7969 750.5844,626.8906 C750.1625,627.1563 749.475,627.2813 748.7094,627.2813 C746.6625,627.2813 745.3656,626.1875 745.3656,624.4844 L745.3656,623.3906 C745.3656,621.6094 746.6156,620.2969 748.35,620.2969 C748.9281,620.2969 749.5375,620.4531 750.0063,620.7031 C750.4906,620.9844 750.6625,621.2031 750.7563,621.6094 C750.8188,622.0156 750.85,622.1406 750.9906,622.2656 C751.1313,622.4063 751.3656,622.5156 751.5844,622.5156 C751.85,622.5156 752.1156,622.375 752.2875,622.1563 C752.3969,622 752.4281,621.8125 752.4281,621.3906 L752.4281,619.9688 C752.4281,619.5313 752.4125,619.4063 752.3188,619.25 C752.1625,618.9844 751.8813,618.8438 751.5844,618.8438 C751.2875,618.8438 751.0844,618.9375 750.8656,619.25 L750.6938,619.1719 Z "
        fill="#000000"/>
      <text fill="#000000" font-family="sans-serif" font-size="14" lengthAdjust="spacing"
            textLength="46" x="765.65" y="628.3467">SeatId
      </text>
      <line style="stroke:#181818;stroke-width:0.5;" x1="719.5" x2="828.5" y1="639.5" y2="639.5"/>
      <line style="stroke:#181818;stroke-width:0.5;" x1="719.5" x2="828.5" y1="647.5" y2="647.5"/>
      <ellipse cx="729.5" cy="661.1484" fill="#84BE84" rx="3" ry="3"
               style="stroke:#038048;stroke-width:1.0;"/>
      <text fill="#000000" font-family="sans-serif" font-size="14" lengthAdjust="spacing"
            textLength="85" x="738.5" y="664.4951">UUID getId()
      </text>
    </g><!--reverse link ReservationRepository to ReservationRepositoryImpl-->
    <g id="link_ReservationRepository_ReservationRepositoryImpl">
      <path codeLine="74" d="M1788,290.512 C1788,332.105 1788,368.001 1788,409.658 " fill="none"
            id="ReservationRepository-backto-ReservationRepositoryImpl"
            style="stroke:#181818;stroke-width:1.0;stroke-dasharray:7.0,7.0;"/>
      <polygon fill="none" points="1788,272.512,1782,290.512,1794,290.512,1788,272.512"
               style="stroke:#181818;stroke-width:1.0;"/>
    </g><!--link ReservationRepositoryImpl to Reservation-->
    <g id="link_ReservationRepositoryImpl_Reservation">
      <path codeLine="75" d="M1788,539.239 C1788,559.282 1788,574.793 1788,592.732 " fill="none"
            id="ReservationRepositoryImpl-to-Reservation" style="stroke:#181818;stroke-width:1.0;"/>
      <polygon fill="#181818"
               points="1788,598.732,1792,589.732,1788,593.732,1784,589.732,1788,598.732"
               style="stroke:#181818;stroke-width:1.0;"/>
    </g><!--link Reservation to ReservationId-->
    <g id="link_Reservation_ReservationId">
      <path codeLine="76"
            d="M1666.27,676.5 C1649.84,676.5 1638.5,676.5 1638.5,676.5 C1638.5,676.5 1638.5,748.233 1638.5,793.78 "
            fill="none" id="Reservation-to-ReservationId" style="stroke:#181818;stroke-width:1.0;"/>
      <polygon fill="#181818"
               points="1638.5,799.78,1642.5,790.78,1638.5,794.78,1634.5,790.78,1638.5,799.78"
               style="stroke:#181818;stroke-width:1.0;"/>
    </g><!--link Reservation to ReservationStatus-->
    <g id="link_Reservation_ReservationStatus">
      <path codeLine="77" d="M1807,680.324 C1807,707.915 1807,738.724 1807,769.171 " fill="none"
            id="Reservation-to-ReservationStatus" style="stroke:#181818;stroke-width:1.0;"/>
      <polygon fill="#181818"
               points="1807,775.171,1811,766.171,1807,770.171,1803,766.171,1807,775.171"
               style="stroke:#181818;stroke-width:1.0;"/>
    </g><!--link Trip to TripId-->
    <g id="link_Trip_TripId">
      <path codeLine="78" d="M183,289.044 C183,340.651 183,398.668 183,436.4 " fill="none"
            id="Trip-to-TripId" style="stroke:#181818;stroke-width:1.0;"/>
      <polygon fill="#181818" points="183,442.4,187,433.4,183,437.4,179,433.4,183,442.4"
               style="stroke:#181818;stroke-width:1.0;"/>
    </g><!--link Trip to Station-->
    <g id="link_Trip_Station">
      <path codeLine="79"
            d="M257.667,289.266 C257.667,355.628 257.667,438.5 257.667,438.5 C257.667,438.5 300.517,438.5 345.742,438.5 "
            fill="none" id="Trip-to-Station" style="stroke:#181818;stroke-width:1.0;"/>
      <polygon fill="#181818"
               points="351.742,438.5,342.742,434.5,346.742,438.5,342.742,442.5,351.742,438.5"
               style="stroke:#181818;stroke-width:1.0;"/>
    </g><!--link Trip to Seat-->
    <g id="link_Trip_Seat">
      <path codeLine="80"
            d="M296.251,283.5 C467.858,283.5 774,283.5 774,283.5 C774,283.5 774,371.927 774,427.994 "
            fill="none" id="Trip-to-Seat" style="stroke:#181818;stroke-width:1.0;"/>
      <polygon fill="#181818" points="774,433.994,778,424.994,774,428.994,770,424.994,774,433.994"
               style="stroke:#181818;stroke-width:1.0;"/>
    </g><!--link Trip to Train-->
    <g id="link_Trip_Train">
      <path codeLine="81"
            d="M296.18,278.5 C581.392,278.5 1307,278.5 1307,278.5 C1307,278.5 1307,370.479 1307,427.889 "
            fill="none" id="Trip-to-Train" style="stroke:#181818;stroke-width:1.0;"/>
      <polygon fill="#181818"
               points="1307,433.889,1311,424.889,1307,428.889,1303,424.889,1307,433.889"
               style="stroke:#181818;stroke-width:1.0;"/>
    </g><!--link Trip to Wagon-->
    <g id="link_Trip_Wagon">
      <path codeLine="82"
            d="M276.833,289.272 C276.833,352.832 276.833,430.5 276.833,430.5 C276.833,430.5 766.854,430.5 967.878,430.5 "
            fill="none" id="Trip-to-Wagon" style="stroke:#181818;stroke-width:1.0;"/>
      <polygon fill="#181818"
               points="973.878,430.5,964.878,426.5,968.878,430.5,964.878,434.5,973.878,430.5"
               style="stroke:#181818;stroke-width:1.0;"/>
    </g><!--link Station to StationId-->
    <g id="link_Station_StationId">
      <path codeLine="83" d="M427,515.287 C427,543.725 427,575.138 427,601.445 " fill="none"
            id="Station-to-StationId" style="stroke:#181818;stroke-width:1.0;"/>
      <polygon fill="#181818" points="427,607.445,431,598.445,427,602.445,423,598.445,427,607.445"
               style="stroke:#181818;stroke-width:1.0;"/>
    </g><!--link Train to TrainId-->
    <g id="link_Train_TrainId">
      <path codeLine="84" d="M1307,515.287 C1307,543.725 1307,575.138 1307,601.445 " fill="none"
            id="Train-to-TrainId" style="stroke:#181818;stroke-width:1.0;"/>
      <polygon fill="#181818"
               points="1307,607.445,1311,598.445,1307,602.445,1303,598.445,1307,607.445"
               style="stroke:#181818;stroke-width:1.0;"/>
    </g><!--link Wagon to WagonId-->
    <g id="link_Wagon_WagonId">
      <path codeLine="85" d="M1057,523.113 C1057,550.3 1057,577.43 1057,601.38 " fill="none"
            id="Wagon-to-WagonId" style="stroke:#181818;stroke-width:1.0;"/>
      <polygon fill="#181818" points="1057,607.38,1061,598.38,1057,602.38,1053,598.38,1057,607.38"
               style="stroke:#181818;stroke-width:1.0;"/>
    </g><!--link Seat to SeatId-->
    <g id="link_Seat_SeatId">
      <path codeLine="86" d="M774,515.287 C774,543.725 774,575.138 774,601.445 " fill="none"
            id="Seat-to-SeatId" style="stroke:#181818;stroke-width:1.0;"/>
      <polygon fill="#181818" points="774,607.445,778,598.445,774,602.445,770,598.445,774,607.445"
               style="stroke:#181818;stroke-width:1.0;"/>
    </g><!--SRC=[vLTDR-8m4BtdLtXxOhLgVW52shQi5Ac55GNj4Gtn4AmIEx8TAiJotzTE0Xk-ad0WYSg9mHxRxxqPJyRV8Wb122HMw76DCaJAGEDly3yWG4Nci5Jeg0_68v0GaYNZgDSH4Y7rGZXg8Jw9CkjGs577ONQJEVX87aQeKAv0Cy5760d5j93h1mAAK7Jfp5qXfyADfD39MdSM-ukO1wxylywbR8LIkK0XqjOmCAS-A5GkSiqqCqRUVIPYJa6kNLzmBSNIFOk1R1n2Vf0Dp9IMuEljCB8EiEpct7japZXzMdToOnxzVhGoDqaKh33lVUox4emI5Sz2feitJHmDWpcJOGLFAy39Zbl7Nu9I5wBWXT6o3P6mED9eN1c2KjsBnIvH-3fPQnOoyLhdzKmLF41A0jGUxHnhzQv1nyfEfbRdF2EFDix9K4XOJIRUovxCra4UXmTGKnwDmys4jP3V9qzltjWOpyF1Bs_qPgsVW-V-gp6cq_G2A-FE_6tViEcRBSs1tPFDUfPsDfkFqrYowBPypP7HHTBs-3GqrZhCD0lSvgCP6aeMC7uo_89ACvxyJUTUcTBTpA6tIqnZgtHwB84b2nCZsmv19vxcDntv0q6wVM8SYtNhR2wLwq8kPn0pmZLWLBeudtTnskI2TXnWoNXWHmOGuXaMjMXTaKUnx4b2rG1MstCAqiFczsQVwbNbpfpRWRzOwEHErWRqqvvs4MvQA3Rxcb4Yz-5O7CvGdZ2hCGWLk9MK6bCnQqQhp96NBwgjv9jTJQzSQXBVjl6ue7mR6cmtTl_sccxrMw74usElqJRHQVIPq3HxZzut_xIlTnhiss-gG8K- -6jphzYNVcqHhlfeteCKXQtp_UH2OTlgjEFXsveISVDAMULLseeBKfCILPwDBReljQfI_eHhsLV5e_y0]-->
  </g>
</svg>