<?xml version="1.0" encoding="us-ascii" standalone="no"?>
<svg xmlns="http://www.w3.org/2000/svg"
     contentStyleType="text/css" height="1672px" preserveAspectRatio="none"
     style="width:2472px;height:1672px;background:#FFFFFF;" version="1.1" viewBox="0 0 2472 1672"
     width="2472px" zoomAndPan="magnify">
  <defs/>
  <g><!--cluster use_cases-->
    <g id="cluster_use_cases">
      <path
          d="M8.5,6 L582.5,6 A3.75,3.75 0 0 1 585,8.5 L592,28.2969 L2462.5,28.2969 A2.5,2.5 0 0 1 2465,30.7969 L2465,1662.5 A2.5,2.5 0 0 1 2462.5,1665 L8.5,1665 A2.5,2.5 0 0 1 6,1662.5 L6,8.5 A2.5,2.5 0 0 1 8.5,6 "
          fill="none" style="stroke:#000000;stroke-width:1.5;"/>
      <line style="stroke:#000000;stroke-width:1.5;" x1="6" x2="592" y1="28.2969" y2="28.2969"/>
      <text fill="#000000" font-family="sans-serif" font-size="14" font-weight="bold"
            lengthAdjust="spacing" textLength="573" x="10" y="20.9951">
        de.db.vendo.prototype.buchung.reservation.divers.adapters.use_cases
      </text>
    </g><!--cluster boundary-->
    <g id="cluster_boundary">
      <path
          d="M1014.5,73.5 L1159.5,73.5 A3.75,3.75 0 0 1 1162,76 L1169,95.7969 L1191.5,95.7969 A2.5,2.5 0 0 1 1194,98.2969 L1194,186 A2.5,2.5 0 0 1 1191.5,188.5 L1014.5,188.5 A2.5,2.5 0 0 1 1012,186 L1012,76 A2.5,2.5 0 0 1 1014.5,73.5 "
          fill="none" style="stroke:#000000;stroke-width:1.5;"/>
      <line style="stroke:#000000;stroke-width:1.5;" x1="1012" x2="1169" y1="95.7969" y2="95.7969"/>
      <text fill="#000000" font-family="sans-serif" font-size="14" font-weight="bold"
            lengthAdjust="spacing" textLength="144" x="1016" y="88.4951">confirm.boundary
      </text>
    </g><!--cluster entities-->
    <g id="cluster_entities">
      <path
          d="M32.5,237 L96.5,237 A3.75,3.75 0 0 1 99,239.5 L106,259.2969 L2128.5,259.2969 A2.5,2.5 0 0 1 2131,261.7969 L2131,1638.5 A2.5,2.5 0 0 1 2128.5,1641 L32.5,1641 A2.5,2.5 0 0 1 30,1638.5 L30,239.5 A2.5,2.5 0 0 1 32.5,237 "
          fill="none" style="stroke:#000000;stroke-width:1.5;"/>
      <line style="stroke:#000000;stroke-width:1.5;" x1="30" x2="106" y1="259.2969" y2="259.2969"/>
      <text fill="#000000" font-family="sans-serif" font-size="14" font-weight="bold"
            lengthAdjust="spacing" textLength="63" x="34" y="251.9951">entities
      </text>
    </g><!--cluster boundary-->
    <g id="cluster_boundary">
      <path
          d="M934.5,304.5 L1079.5,304.5 A3.75,3.75 0 0 1 1082,307 L1089,326.7969 L1271.5,326.7969 A2.5,2.5 0 0 1 1274,329.2969 L1274,614 A2.5,2.5 0 0 1 1271.5,616.5 L934.5,616.5 A2.5,2.5 0 0 1 932,614 L932,307 A2.5,2.5 0 0 1 934.5,304.5 "
          fill="none" style="stroke:#000000;stroke-width:1.5;"/>
      <line style="stroke:#000000;stroke-width:1.5;" x1="932" x2="1089" y1="326.7969"
            y2="326.7969"/>
      <text fill="#000000" font-family="sans-serif" font-size="14" font-weight="bold"
            lengthAdjust="spacing" textLength="144" x="936" y="319.4951">confirm.boundary
      </text>
    </g><!--cluster control-->
    <g id="cluster_control">
      <path
          d="M958.5,477.5 L1018.5,477.5 A3.75,3.75 0 0 1 1021,480 L1028,499.7969 L1247.5,499.7969 A2.5,2.5 0 0 1 1250,502.2969 L1250,590 A2.5,2.5 0 0 1 1247.5,592.5 L958.5,592.5 A2.5,2.5 0 0 1 956,590 L956,480 A2.5,2.5 0 0 1 958.5,477.5 "
          fill="none" style="stroke:#000000;stroke-width:1.5;"/>
      <line style="stroke:#000000;stroke-width:1.5;" x1="956" x2="1028" y1="499.7969"
            y2="499.7969"/>
      <text fill="#000000" font-family="sans-serif" font-size="14" font-weight="bold"
            lengthAdjust="spacing" textLength="59" x="960" y="492.4951">control
      </text>
    </g><!--cluster reservation-->
    <g id="cluster_reservation">
      <path
          d="M56.5,665 L150.5,665 A3.75,3.75 0 0 1 153,667.5 L160,687.2969 L2104.5,687.2969 A2.5,2.5 0 0 1 2107,689.7969 L2107,1614.5 A2.5,2.5 0 0 1 2104.5,1617 L56.5,1617 A2.5,2.5 0 0 1 54,1614.5 L54,667.5 A2.5,2.5 0 0 1 56.5,665 "
          fill="none" style="stroke:#000000;stroke-width:1.5;"/>
      <line style="stroke:#000000;stroke-width:1.5;" x1="54" x2="160" y1="687.2969" y2="687.2969"/>
      <text fill="#000000" font-family="sans-serif" font-size="14" font-weight="bold"
            lengthAdjust="spacing" textLength="93" x="58" y="679.9951">reservation
      </text>
    </g><!--cluster control-->
    <g id="cluster_control">
      <path
          d="M80.5,708 L221.5,708 A3.75,3.75 0 0 1 224,710.5 L231,730.2969 L612.5,730.2969 A2.5,2.5 0 0 1 615,732.7969 L615,1135.5 A2.5,2.5 0 0 1 612.5,1138 L80.5,1138 A2.5,2.5 0 0 1 78,1135.5 L78,710.5 A2.5,2.5 0 0 1 80.5,708 "
          fill="none" style="stroke:#000000;stroke-width:1.5;"/>
      <line style="stroke:#000000;stroke-width:1.5;" x1="78" x2="231" y1="730.2969" y2="730.2969"/>
      <text fill="#000000" font-family="sans-serif" font-size="14" font-weight="bold"
            lengthAdjust="spacing" textLength="140" x="82" y="722.9951">boundary.control
      </text>
    </g><!--cluster entity-->
    <g id="cluster_entity">
      <path
          d="M104.5,751 L154.5,751 A3.75,3.75 0 0 1 157,753.5 L164,773.2969 L309.5,773.2969 A2.5,2.5 0 0 1 312,775.7969 L312,1111.5 A2.5,2.5 0 0 1 309.5,1114 L104.5,1114 A2.5,2.5 0 0 1 102,1111.5 L102,753.5 A2.5,2.5 0 0 1 104.5,751 "
          fill="none" style="stroke:#000000;stroke-width:1.5;"/>
      <line style="stroke:#000000;stroke-width:1.5;" x1="102" x2="164" y1="773.2969" y2="773.2969"/>
      <text fill="#000000" font-family="sans-serif" font-size="14" font-weight="bold"
            lengthAdjust="spacing" textLength="49" x="106" y="765.9951">entity
      </text>
    </g><!--cluster trip-->
    <g id="cluster_trip">
      <path
          d="M641.5,907 L672.5,907 A3.75,3.75 0 0 1 675,909.5 L682,929.2969 L2080.5,929.2969 A2.5,2.5 0 0 1 2083,931.7969 L2083,1590.5 A2.5,2.5 0 0 1 2080.5,1593 L641.5,1593 A2.5,2.5 0 0 1 639,1590.5 L639,909.5 A2.5,2.5 0 0 1 641.5,907 "
          fill="none" style="stroke:#000000;stroke-width:1.5;"/>
      <line style="stroke:#000000;stroke-width:1.5;" x1="639" x2="682" y1="929.2969" y2="929.2969"/>
      <text fill="#000000" font-family="sans-serif" font-size="14" font-weight="bold"
            lengthAdjust="spacing" textLength="30" x="643" y="921.9951">trip
      </text>
    </g><!--cluster entity-->
    <g id="cluster_entity">
      <path
          d="M665.5,950 L860.5,950 A3.75,3.75 0 0 1 863,952.5 L870,972.2969 L918.5,972.2969 A2.5,2.5 0 0 1 921,974.7969 L921,1378 A2.5,2.5 0 0 1 918.5,1380.5 L665.5,1380.5 A2.5,2.5 0 0 1 663,1378 L663,952.5 A2.5,2.5 0 0 1 665.5,950 "
          fill="none" style="stroke:#000000;stroke-width:1.5;"/>
      <line style="stroke:#000000;stroke-width:1.5;" x1="663" x2="870" y1="972.2969" y2="972.2969"/>
      <text fill="#000000" font-family="sans-serif" font-size="14" font-weight="bold"
            lengthAdjust="spacing" textLength="194" x="667" y="964.9951">boundary.control.entity
      </text>
    </g><!--cluster entity-->
    <g id="cluster_entity">
      <path
          d="M947.5,1257 L1207.5,1257 A3.75,3.75 0 0 1 1210,1259.5 L1217,1279.2969 L1217.5,1279.2969 A2.5,2.5 0 0 1 1220,1281.7969 L1220,1518.5 A2.5,2.5 0 0 1 1217.5,1521 L947.5,1521 A2.5,2.5 0 0 1 945,1518.5 L945,1259.5 A2.5,2.5 0 0 1 947.5,1257 "
          fill="none" style="stroke:#000000;stroke-width:1.5;"/>
      <line style="stroke:#000000;stroke-width:1.5;" x1="945" x2="1217" y1="1279.2969"
            y2="1279.2969"/>
      <text fill="#000000" font-family="sans-serif" font-size="14" font-weight="bold"
            lengthAdjust="spacing" textLength="259" x="949" y="1271.9951">
        station.boundary.control.entity
      </text>
    </g><!--cluster train-->
    <g id="cluster_train">
      <path
          d="M1246.5,1163 L1287.5,1163 A3.75,3.75 0 0 1 1290,1165.5 L1297,1185.2969 L2056.5,1185.2969 A2.5,2.5 0 0 1 2059,1187.7969 L2059,1566.5 A2.5,2.5 0 0 1 2056.5,1569 L1246.5,1569 A2.5,2.5 0 0 1 1244,1566.5 L1244,1165.5 A2.5,2.5 0 0 1 1246.5,1163 "
          fill="none" style="stroke:#000000;stroke-width:1.5;"/>
      <line style="stroke:#000000;stroke-width:1.5;" x1="1244" x2="1297" y1="1185.2969"
            y2="1185.2969"/>
      <text fill="#000000" font-family="sans-serif" font-size="14" font-weight="bold"
            lengthAdjust="spacing" textLength="40" x="1248" y="1177.9951">train
      </text>
    </g><!--cluster entity-->
    <g id="cluster_entity">
      <path
          d="M1827.5,1257 L2022.5,1257 A3.75,3.75 0 0 1 2025,1259.5 L2032,1279.2969 L2032.5,1279.2969 A2.5,2.5 0 0 1 2035,1281.7969 L2035,1518.5 A2.5,2.5 0 0 1 2032.5,1521 L1827.5,1521 A2.5,2.5 0 0 1 1825,1518.5 L1825,1259.5 A2.5,2.5 0 0 1 1827.5,1257 "
          fill="none" style="stroke:#000000;stroke-width:1.5;"/>
      <line style="stroke:#000000;stroke-width:1.5;" x1="1825" x2="2032" y1="1279.2969"
            y2="1279.2969"/>
      <text fill="#000000" font-family="sans-serif" font-size="14" font-weight="bold"
            lengthAdjust="spacing" textLength="194" x="1829" y="1271.9951">boundary.control.entity
      </text>
    </g><!--cluster wagon-->
    <g id="cluster_wagon">
      <path
          d="M1270.5,1206 L1324.5,1206 A3.75,3.75 0 0 1 1327,1208.5 L1334,1228.2969 L1798.5,1228.2969 A2.5,2.5 0 0 1 1801,1230.7969 L1801,1542.5 A2.5,2.5 0 0 1 1798.5,1545 L1270.5,1545 A2.5,2.5 0 0 1 1268,1542.5 L1268,1208.5 A2.5,2.5 0 0 1 1270.5,1206 "
          fill="none" style="stroke:#000000;stroke-width:1.5;"/>
      <line style="stroke:#000000;stroke-width:1.5;" x1="1268" x2="1334" y1="1228.2969"
            y2="1228.2969"/>
      <text fill="#000000" font-family="sans-serif" font-size="14" font-weight="bold"
            lengthAdjust="spacing" textLength="53" x="1272" y="1220.9951">wagon
      </text>
    </g><!--cluster entity-->
    <g id="cluster_entity">
      <path
          d="M1569.5,1249 L1764.5,1249 A3.75,3.75 0 0 1 1767,1251.5 L1774,1271.2969 L1774.5,1271.2969 A2.5,2.5 0 0 1 1777,1273.7969 L1777,1518.5 A2.5,2.5 0 0 1 1774.5,1521 L1569.5,1521 A2.5,2.5 0 0 1 1567,1518.5 L1567,1251.5 A2.5,2.5 0 0 1 1569.5,1249 "
          fill="none" style="stroke:#000000;stroke-width:1.5;"/>
      <line style="stroke:#000000;stroke-width:1.5;" x1="1567" x2="1774" y1="1271.2969"
            y2="1271.2969"/>
      <text fill="#000000" font-family="sans-serif" font-size="14" font-weight="bold"
            lengthAdjust="spacing" textLength="194" x="1571" y="1263.9951">boundary.control.entity
      </text>
    </g><!--cluster entity-->
    <g id="cluster_entity">
      <path
          d="M1294.5,1257 L1530.5,1257 A3.75,3.75 0 0 1 1533,1259.5 L1540,1279.2969 L1540.5,1279.2969 A2.5,2.5 0 0 1 1543,1281.7969 L1543,1518.5 A2.5,2.5 0 0 1 1540.5,1521 L1294.5,1521 A2.5,2.5 0 0 1 1292,1518.5 L1292,1259.5 A2.5,2.5 0 0 1 1294.5,1257 "
          fill="none" style="stroke:#000000;stroke-width:1.5;"/>
      <line style="stroke:#000000;stroke-width:1.5;" x1="1292" x2="1540" y1="1279.2969"
            y2="1279.2969"/>
      <text fill="#000000" font-family="sans-serif" font-size="14" font-weight="bold"
            lengthAdjust="spacing" textLength="235" x="1296" y="1271.9951">
        seat.boundary.control.entity
      </text>
    </g><!--cluster boundary-->
    <g id="cluster_boundary">
      <path
          d="M584.5,304.5 L708.5,304.5 A3.75,3.75 0 0 1 711,307 L718,326.7969 L905.5,326.7969 A2.5,2.5 0 0 1 908,329.2969 L908,614 A2.5,2.5 0 0 1 905.5,616.5 L584.5,616.5 A2.5,2.5 0 0 1 582,614 L582,307 A2.5,2.5 0 0 1 584.5,304.5 "
          fill="none" style="stroke:#000000;stroke-width:1.5;"/>
      <line style="stroke:#000000;stroke-width:1.5;" x1="582" x2="718" y1="326.7969" y2="326.7969"/>
      <text fill="#000000" font-family="sans-serif" font-size="14" font-weight="bold"
            lengthAdjust="spacing" textLength="123" x="586" y="319.4951">reset.boundary
      </text>
    </g><!--cluster control-->
    <g id="cluster_control">
      <path
          d="M608.5,477.5 L668.5,477.5 A3.75,3.75 0 0 1 671,480 L678,499.7969 L881.5,499.7969 A2.5,2.5 0 0 1 884,502.2969 L884,590 A2.5,2.5 0 0 1 881.5,592.5 L608.5,592.5 A2.5,2.5 0 0 1 606,590 L606,480 A2.5,2.5 0 0 1 608.5,477.5 "
          fill="none" style="stroke:#000000;stroke-width:1.5;"/>
      <line style="stroke:#000000;stroke-width:1.5;" x1="606" x2="678" y1="499.7969" y2="499.7969"/>
      <text fill="#000000" font-family="sans-serif" font-size="14" font-weight="bold"
            lengthAdjust="spacing" textLength="59" x="610" y="492.4951">control
      </text>
    </g><!--cluster boundary-->
    <g id="cluster_boundary">
      <path
          d="M56.5,280 L195.5,280 A3.75,3.75 0 0 1 198,282.5 L205,302.2969 L555.5,302.2969 A2.5,2.5 0 0 1 558,304.7969 L558,638.5 A2.5,2.5 0 0 1 555.5,641 L56.5,641 A2.5,2.5 0 0 1 54,638.5 L54,282.5 A2.5,2.5 0 0 1 56.5,280 "
          fill="none" style="stroke:#000000;stroke-width:1.5;"/>
      <line style="stroke:#000000;stroke-width:1.5;" x1="54" x2="205" y1="302.2969" y2="302.2969"/>
      <text fill="#000000" font-family="sans-serif" font-size="14" font-weight="bold"
            lengthAdjust="spacing" textLength="138" x="58" y="294.9951">submit.boundary
      </text>
    </g><!--cluster control-->
    <g id="cluster_control">
      <path
          d="M80.5,453 L140.5,453 A3.75,3.75 0 0 1 143,455.5 L150,475.2969 L531.5,475.2969 A2.5,2.5 0 0 1 534,477.7969 L534,614.5 A2.5,2.5 0 0 1 531.5,617 L80.5,617 A2.5,2.5 0 0 1 78,614.5 L78,455.5 A2.5,2.5 0 0 1 80.5,453 "
          fill="none" style="stroke:#000000;stroke-width:1.5;"/>
      <line style="stroke:#000000;stroke-width:1.5;" x1="78" x2="150" y1="475.2969" y2="475.2969"/>
      <text fill="#000000" font-family="sans-serif" font-size="14" font-weight="bold"
            lengthAdjust="spacing" textLength="59" x="82" y="467.9951">control
      </text>
    </g><!--cluster boundary-->
    <g id="cluster_boundary">
      <path
          d="M2157.5,1007 L2333.5,1007 A3.75,3.75 0 0 1 2336,1009.5 L2343,1029.2969 L2438.5,1029.2969 A2.5,2.5 0 0 1 2441,1031.7969 L2441,1103.5 A2.5,2.5 0 0 1 2438.5,1106 L2157.5,1106 A2.5,2.5 0 0 1 2155,1103.5 L2155,1009.5 A2.5,2.5 0 0 1 2157.5,1007 "
          fill="none" style="stroke:#000000;stroke-width:1.5;"/>
      <line style="stroke:#000000;stroke-width:1.5;" x1="2155" x2="2343" y1="1029.2969"
            y2="1029.2969"/>
      <text fill="#000000" font-family="sans-serif" font-size="14" font-weight="bold"
            lengthAdjust="spacing" textLength="175" x="2159" y="1021.9951">persistence.boundary
      </text>
    </g><!--cluster boundary-->
    <g id="cluster_boundary">
      <path
          d="M657.5,73.5 L781.5,73.5 A3.75,3.75 0 0 1 784,76 L791,95.7969 L832.5,95.7969 A2.5,2.5 0 0 1 835,98.2969 L835,186 A2.5,2.5 0 0 1 832.5,188.5 L657.5,188.5 A2.5,2.5 0 0 1 655,186 L655,76 A2.5,2.5 0 0 1 657.5,73.5 "
          fill="none" style="stroke:#000000;stroke-width:1.5;"/>
      <line style="stroke:#000000;stroke-width:1.5;" x1="655" x2="791" y1="95.7969" y2="95.7969"/>
      <text fill="#000000" font-family="sans-serif" font-size="14" font-weight="bold"
            lengthAdjust="spacing" textLength="123" x="659" y="88.4951">reset.boundary
      </text>
    </g><!--cluster boundary-->
    <g id="cluster_boundary">
      <path
          d="M81.5,49 L220.5,49 A3.75,3.75 0 0 1 223,51.5 L230,71.2969 L530.5,71.2969 A2.5,2.5 0 0 1 533,73.7969 L533,210.5 A2.5,2.5 0 0 1 530.5,213 L81.5,213 A2.5,2.5 0 0 1 79,210.5 L79,51.5 A2.5,2.5 0 0 1 81.5,49 "
          fill="none" style="stroke:#000000;stroke-width:1.5;"/>
      <line style="stroke:#000000;stroke-width:1.5;" x1="79" x2="230" y1="71.2969" y2="71.2969"/>
      <text fill="#000000" font-family="sans-serif" font-size="14" font-weight="bold"
            lengthAdjust="spacing" textLength="138" x="83" y="63.9951">submit.boundary
      </text>
    </g><!--class ConfirmUseCase-->
    <g id="elem_ConfirmUseCase">
      <rect codeLine="5" fill="#F1F1F1" height="64.2969" id="ConfirmUseCase" rx="2.5" ry="2.5"
            style="stroke:#181818;stroke-width:0.5;" width="149" x="1028.5" y="108.5"/>
      <ellipse cx="1043.5" cy="124.5" fill="#ADD1B2" rx="11" ry="11"
               style="stroke:#181818;stroke-width:1.0;"/>
      <path
          d="M1045.8438,120.1719 C1044.9063,119.7344 1044.3125,119.5938 1043.4375,119.5938 C1040.8125,119.5938 1038.8125,121.6719 1038.8125,124.3906 L1038.8125,125.5156 C1038.8125,128.0938 1040.9219,129.9844 1043.8125,129.9844 C1045.0313,129.9844 1046.1875,129.6875 1046.9375,129.1406 C1047.5156,128.7344 1047.8438,128.2813 1047.8438,127.8906 C1047.8438,127.4375 1047.4531,127.0469 1046.9844,127.0469 C1046.7656,127.0469 1046.5625,127.125 1046.375,127.3125 C1045.9219,127.7969 1045.9219,127.7969 1045.7344,127.8906 C1045.3125,128.1563 1044.625,128.2813 1043.8594,128.2813 C1041.8125,128.2813 1040.5156,127.1875 1040.5156,125.4844 L1040.5156,124.3906 C1040.5156,122.6094 1041.7656,121.2969 1043.5,121.2969 C1044.0781,121.2969 1044.6875,121.4531 1045.1563,121.7031 C1045.6406,121.9844 1045.8125,122.2031 1045.9063,122.6094 C1045.9688,123.0156 1046,123.1406 1046.1406,123.2656 C1046.2813,123.4063 1046.5156,123.5156 1046.7344,123.5156 C1047,123.5156 1047.2656,123.375 1047.4375,123.1563 C1047.5469,123 1047.5781,122.8125 1047.5781,122.3906 L1047.5781,120.9688 C1047.5781,120.5313 1047.5625,120.4063 1047.4688,120.25 C1047.3125,119.9844 1047.0313,119.8438 1046.7344,119.8438 C1046.4375,119.8438 1046.2344,119.9375 1046.0156,120.25 L1045.8438,120.1719 Z "
          fill="#000000"/>
      <text fill="#000000" font-family="sans-serif" font-size="14" lengthAdjust="spacing"
            textLength="117" x="1057.5" y="129.3467">ConfirmUseCase
      </text>
      <line style="stroke:#181818;stroke-width:0.5;" x1="1029.5" x2="1176.5" y1="140.5" y2="140.5"/>
      <line style="stroke:#181818;stroke-width:0.5;" x1="1029.5" x2="1176.5" y1="148.5" y2="148.5"/>
      <ellipse cx="1039.5" cy="162.1484" fill="#84BE84" rx="3" ry="3"
               style="stroke:#038048;stroke-width:1.0;"/>
      <text fill="#000000" font-family="sans-serif" font-size="14" lengthAdjust="spacing"
            textLength="122" x="1048.5" y="165.4951">void action(UUID)
      </text>
    </g><!--class ConfirmReservationService-->
    <g id="elem_ConfirmReservationService">
      <rect codeLine="8" fill="#F1F1F1" height="64.2969" id="ConfirmReservationService" rx="2.5"
            ry="2.5" style="stroke:#181818;stroke-width:0.5;" width="229" x="988.5" y="339.5"/>
      <ellipse cx="1003.5" cy="355.5" fill="#ADD1B2" rx="11" ry="11"
               style="stroke:#181818;stroke-width:1.0;"/>
      <path
          d="M1005.8438,351.1719 C1004.9063,350.7344 1004.3125,350.5938 1003.4375,350.5938 C1000.8125,350.5938 998.8125,352.6719 998.8125,355.3906 L998.8125,356.5156 C998.8125,359.0938 1000.9219,360.9844 1003.8125,360.9844 C1005.0313,360.9844 1006.1875,360.6875 1006.9375,360.1406 C1007.5156,359.7344 1007.8438,359.2813 1007.8438,358.8906 C1007.8438,358.4375 1007.4531,358.0469 1006.9844,358.0469 C1006.7656,358.0469 1006.5625,358.125 1006.375,358.3125 C1005.9219,358.7969 1005.9219,358.7969 1005.7344,358.8906 C1005.3125,359.1563 1004.625,359.2813 1003.8594,359.2813 C1001.8125,359.2813 1000.5156,358.1875 1000.5156,356.4844 L1000.5156,355.3906 C1000.5156,353.6094 1001.7656,352.2969 1003.5,352.2969 C1004.0781,352.2969 1004.6875,352.4531 1005.1563,352.7031 C1005.6406,352.9844 1005.8125,353.2031 1005.9063,353.6094 C1005.9688,354.0156 1006,354.1406 1006.1406,354.2656 C1006.2813,354.4063 1006.5156,354.5156 1006.7344,354.5156 C1007,354.5156 1007.2656,354.375 1007.4375,354.1563 C1007.5469,354 1007.5781,353.8125 1007.5781,353.3906 L1007.5781,351.9688 C1007.5781,351.5313 1007.5625,351.4063 1007.4688,351.25 C1007.3125,350.9844 1007.0313,350.8438 1006.7344,350.8438 C1006.4375,350.8438 1006.2344,350.9375 1006.0156,351.25 L1005.8438,351.1719 Z "
          fill="#000000"/>
      <text fill="#000000" font-family="sans-serif" font-size="14" lengthAdjust="spacing"
            textLength="197" x="1017.5" y="360.3467">ConfirmReservationService
      </text>
      <line style="stroke:#181818;stroke-width:0.5;" x1="989.5" x2="1216.5" y1="371.5" y2="371.5"/>
      <line style="stroke:#181818;stroke-width:0.5;" x1="989.5" x2="1216.5" y1="379.5" y2="379.5"/>
      <ellipse cx="999.5" cy="393.1484" fill="#84BE84" rx="3" ry="3"
               style="stroke:#038048;stroke-width:1.0;"/>
      <text fill="#000000" font-family="sans-serif" font-size="14" lengthAdjust="spacing"
            textLength="182" x="1008.5" y="396.4951">void serve(ReservationId)
      </text>
    </g><!--class ConfirmReservationComponent-->
    <g id="elem_ConfirmReservationComponent">
      <rect codeLine="11" fill="#F1F1F1" height="64.2969" id="ConfirmReservationComponent" rx="2.5"
            ry="2.5" style="stroke:#181818;stroke-width:0.5;" width="262" x="972" y="512.5"/>
      <ellipse cx="987" cy="528.5" fill="#ADD1B2" rx="11" ry="11"
               style="stroke:#181818;stroke-width:1.0;"/>
      <path
          d="M989.3438,524.1719 C988.4063,523.7344 987.8125,523.5938 986.9375,523.5938 C984.3125,523.5938 982.3125,525.6719 982.3125,528.3906 L982.3125,529.5156 C982.3125,532.0938 984.4219,533.9844 987.3125,533.9844 C988.5313,533.9844 989.6875,533.6875 990.4375,533.1406 C991.0156,532.7344 991.3438,532.2813 991.3438,531.8906 C991.3438,531.4375 990.9531,531.0469 990.4844,531.0469 C990.2656,531.0469 990.0625,531.125 989.875,531.3125 C989.4219,531.7969 989.4219,531.7969 989.2344,531.8906 C988.8125,532.1563 988.125,532.2813 987.3594,532.2813 C985.3125,532.2813 984.0156,531.1875 984.0156,529.4844 L984.0156,528.3906 C984.0156,526.6094 985.2656,525.2969 987,525.2969 C987.5781,525.2969 988.1875,525.4531 988.6563,525.7031 C989.1406,525.9844 989.3125,526.2031 989.4063,526.6094 C989.4688,527.0156 989.5,527.1406 989.6406,527.2656 C989.7813,527.4063 990.0156,527.5156 990.2344,527.5156 C990.5,527.5156 990.7656,527.375 990.9375,527.1563 C991.0469,527 991.0781,526.8125 991.0781,526.3906 L991.0781,524.9688 C991.0781,524.5313 991.0625,524.4063 990.9688,524.25 C990.8125,523.9844 990.5313,523.8438 990.2344,523.8438 C989.9375,523.8438 989.7344,523.9375 989.5156,524.25 L989.3438,524.1719 Z "
          fill="#000000"/>
      <text fill="#000000" font-family="sans-serif" font-size="14" lengthAdjust="spacing"
            textLength="230" x="1001" y="533.3467">ConfirmReservationComponent
      </text>
      <line style="stroke:#181818;stroke-width:0.5;" x1="973" x2="1233" y1="544.5" y2="544.5"/>
      <line style="stroke:#181818;stroke-width:0.5;" x1="973" x2="1233" y1="552.5" y2="552.5"/>
      <ellipse cx="983" cy="566.1484" fill="#84BE84" rx="3" ry="3"
               style="stroke:#038048;stroke-width:1.0;"/>
      <text fill="#000000" font-family="sans-serif" font-size="14" lengthAdjust="spacing"
            textLength="201" x="992" y="569.4951">void execute(ReservationId)
      </text>
    </g><!--class ReservationRepository-->
    <g id="elem_ReservationRepository">
      <rect codeLine="14" fill="#F1F1F1" height="129.4844" id="ReservationRepository" rx="2.5"
            ry="2.5" style="stroke:#181818;stroke-width:0.5;" width="268" x="331" y="762"/>
      <ellipse cx="380.25" cy="778" fill="#B4A7E5" rx="11" ry="11"
               style="stroke:#181818;stroke-width:1.0;"/>
      <path
          d="M381.2031,774.7813 L382.9219,774.7813 C383.3125,774.7813 383.5,774.75 383.625,774.6719 C383.8906,774.5156 384.0313,774.2344 384.0313,773.9375 C384.0313,773.6719 383.9219,773.4063 383.6875,773.2344 C383.5156,773.125 383.375,773.0938 382.9219,773.0938 L377.7813,773.0938 C377.3438,773.0938 377.2188,773.1094 377.0625,773.2031 C376.8125,773.3594 376.6563,773.6563 376.6563,773.9375 C376.6563,774.2188 376.7969,774.4688 377.0156,774.6406 C377.1719,774.75 377.3594,774.7813 377.7813,774.7813 L379.5,774.7813 L379.5,781.2969 L377.7813,781.2969 C377.3438,781.2969 377.2188,781.3125 377.0625,781.4219 C376.8125,781.5781 376.6563,781.8594 376.6563,782.1563 C376.6563,782.4063 376.7969,782.6719 377.0156,782.8281 C377.1719,782.9531 377.375,783 377.7813,783 L382.9219,783 C383.6719,783 384.0313,782.7188 384.0313,782.1563 C384.0313,781.875 383.9219,781.625 383.6875,781.4531 C383.5156,781.3281 383.375,781.2969 382.9219,781.2969 L381.2031,781.2969 L381.2031,774.7813 Z "
          fill="#000000"/>
      <text fill="#000000" font-family="sans-serif" font-size="14" font-style="italic"
            lengthAdjust="spacing" textLength="161" x="400.75" y="782.8467">ReservationRepository
      </text>
      <line style="stroke:#181818;stroke-width:0.5;" x1="332" x2="598" y1="794" y2="794"/>
      <line style="stroke:#181818;stroke-width:0.5;" x1="332" x2="598" y1="802" y2="802"/>
      <ellipse cx="342" cy="815.6484" fill="#84BE84" rx="3" ry="3"
               style="stroke:#038048;stroke-width:1.0;"/>
      <text fill="#000000" font-family="sans-serif" font-size="14" font-style="italic"
            lengthAdjust="spacing" textLength="242" x="351" y="818.9951">Reservation
        findBy(ReservationId)
      </text>
      <ellipse cx="342" cy="831.9453" fill="#84BE84" rx="3" ry="3"
               style="stroke:#038048;stroke-width:1.0;"/>
      <text fill="#000000" font-family="sans-serif" font-size="14" font-style="italic"
            lengthAdjust="spacing" textLength="162" x="351" y="835.292">void save(Reservation)
      </text>
      <ellipse cx="342" cy="848.2422" fill="#84BE84" rx="3" ry="3"
               style="stroke:#038048;stroke-width:1.0;"/>
      <text fill="#000000" font-family="sans-serif" font-size="14" font-style="italic"
            lengthAdjust="spacing" textLength="190" x="351" y="851.5889">void submit(ReservationId)
      </text>
      <ellipse cx="342" cy="864.5391" fill="#84BE84" rx="3" ry="3"
               style="stroke:#038048;stroke-width:1.0;"/>
      <text fill="#000000" font-family="sans-serif" font-size="14" font-style="italic"
            lengthAdjust="spacing" textLength="197" x="351" y="867.8857">void confirm(ReservationId)
      </text>
      <ellipse cx="342" cy="880.8359" fill="#84BE84" rx="3" ry="3"
               style="stroke:#038048;stroke-width:1.0;"/>
      <text fill="#000000" font-family="sans-serif" font-size="14" font-style="italic"
            lengthAdjust="spacing" textLength="178" x="351" y="884.1826">void reset(ReservationId)
      </text>
    </g><!--class Reservation-->
    <g id="elem_Reservation">
      <rect codeLine="21" fill="#F1F1F1" height="80.5938" id="Reservation" rx="2.5" ry="2.5"
            style="stroke:#181818;stroke-width:0.5;" width="177" x="118.5" y="786"/>
      <ellipse cx="160.05" cy="802" fill="#ADD1B2" rx="11" ry="11"
               style="stroke:#181818;stroke-width:1.0;"/>
      <path
          d="M162.3938,797.6719 C161.4563,797.2344 160.8625,797.0938 159.9875,797.0938 C157.3625,797.0938 155.3625,799.1719 155.3625,801.8906 L155.3625,803.0156 C155.3625,805.5938 157.4719,807.4844 160.3625,807.4844 C161.5813,807.4844 162.7375,807.1875 163.4875,806.6406 C164.0656,806.2344 164.3938,805.7813 164.3938,805.3906 C164.3938,804.9375 164.0031,804.5469 163.5344,804.5469 C163.3156,804.5469 163.1125,804.625 162.925,804.8125 C162.4719,805.2969 162.4719,805.2969 162.2844,805.3906 C161.8625,805.6563 161.175,805.7813 160.4094,805.7813 C158.3625,805.7813 157.0656,804.6875 157.0656,802.9844 L157.0656,801.8906 C157.0656,800.1094 158.3156,798.7969 160.05,798.7969 C160.6281,798.7969 161.2375,798.9531 161.7063,799.2031 C162.1906,799.4844 162.3625,799.7031 162.4563,800.1094 C162.5188,800.5156 162.55,800.6406 162.6906,800.7656 C162.8313,800.9063 163.0656,801.0156 163.2844,801.0156 C163.55,801.0156 163.8156,800.875 163.9875,800.6563 C164.0969,800.5 164.1281,800.3125 164.1281,799.8906 L164.1281,798.4688 C164.1281,798.0313 164.1125,797.9063 164.0188,797.75 C163.8625,797.4844 163.5813,797.3438 163.2844,797.3438 C162.9875,797.3438 162.7844,797.4375 162.5656,797.75 L162.3938,797.6719 Z "
          fill="#000000"/>
      <text fill="#000000" font-family="sans-serif" font-size="14" lengthAdjust="spacing"
            textLength="86" x="179.95" y="806.8467">Reservation
      </text>
      <line style="stroke:#181818;stroke-width:0.5;" x1="119.5" x2="294.5" y1="818" y2="818"/>
      <line style="stroke:#181818;stroke-width:0.5;" x1="119.5" x2="294.5" y1="826" y2="826"/>
      <ellipse cx="129.5" cy="839.6484" fill="#84BE84" rx="3" ry="3"
               style="stroke:#038048;stroke-width:1.0;"/>
      <text fill="#000000" font-family="sans-serif" font-size="14" lengthAdjust="spacing"
            textLength="151" x="138.5" y="842.9951">ReservationId getId()
      </text>
      <ellipse cx="129.5" cy="855.9453" fill="#84BE84" rx="3" ry="3"
               style="stroke:#038048;stroke-width:1.0;"/>
      <text fill="#000000" font-family="sans-serif" font-size="14" lengthAdjust="spacing"
            textLength="97" x="138.5" y="859.292">Trip getTrip()
      </text>
    </g><!--class ReservationId-->
    <g id="elem_ReservationId">
      <rect codeLine="25" fill="#F1F1F1" height="64.2969" id="ReservationId" rx="2.5" ry="2.5"
            style="stroke:#181818;stroke-width:0.5;" width="131" x="141.5" y="1034"/>
      <ellipse cx="156.5" cy="1050" fill="#ADD1B2" rx="11" ry="11"
               style="stroke:#181818;stroke-width:1.0;"/>
      <path
          d="M158.8438,1045.6719 C157.9063,1045.2344 157.3125,1045.0938 156.4375,1045.0938 C153.8125,1045.0938 151.8125,1047.1719 151.8125,1049.8906 L151.8125,1051.0156 C151.8125,1053.5938 153.9219,1055.4844 156.8125,1055.4844 C158.0313,1055.4844 159.1875,1055.1875 159.9375,1054.6406 C160.5156,1054.2344 160.8438,1053.7813 160.8438,1053.3906 C160.8438,1052.9375 160.4531,1052.5469 159.9844,1052.5469 C159.7656,1052.5469 159.5625,1052.625 159.375,1052.8125 C158.9219,1053.2969 158.9219,1053.2969 158.7344,1053.3906 C158.3125,1053.6563 157.625,1053.7813 156.8594,1053.7813 C154.8125,1053.7813 153.5156,1052.6875 153.5156,1050.9844 L153.5156,1049.8906 C153.5156,1048.1094 154.7656,1046.7969 156.5,1046.7969 C157.0781,1046.7969 157.6875,1046.9531 158.1563,1047.2031 C158.6406,1047.4844 158.8125,1047.7031 158.9063,1048.1094 C158.9688,1048.5156 159,1048.6406 159.1406,1048.7656 C159.2813,1048.9063 159.5156,1049.0156 159.7344,1049.0156 C160,1049.0156 160.2656,1048.875 160.4375,1048.6563 C160.5469,1048.5 160.5781,1048.3125 160.5781,1047.8906 L160.5781,1046.4688 C160.5781,1046.0313 160.5625,1045.9063 160.4688,1045.75 C160.3125,1045.4844 160.0313,1045.3438 159.7344,1045.3438 C159.4375,1045.3438 159.2344,1045.4375 159.0156,1045.75 L158.8438,1045.6719 Z "
          fill="#000000"/>
      <text fill="#000000" font-family="sans-serif" font-size="14" lengthAdjust="spacing"
            textLength="99" x="170.5" y="1054.8467">ReservationId
      </text>
      <line style="stroke:#181818;stroke-width:0.5;" x1="142.5" x2="271.5" y1="1066" y2="1066"/>
      <line style="stroke:#181818;stroke-width:0.5;" x1="142.5" x2="271.5" y1="1074" y2="1074"/>
      <ellipse cx="152.5" cy="1087.6484" fill="#84BE84" rx="3" ry="3"
               style="stroke:#038048;stroke-width:1.0;"/>
      <text fill="#000000" font-family="sans-serif" font-size="14" lengthAdjust="spacing"
            textLength="85" x="161.5" y="1090.9951">UUID getId()
      </text>
    </g><!--class Trip-->
    <g id="elem_Trip">
      <rect codeLine="28" fill="#F1F1F1" height="162.0781" id="Trip" rx="2.5" ry="2.5"
            style="stroke:#181818;stroke-width:0.5;" width="226" x="679" y="985"/>
      <ellipse cx="773.25" cy="1001" fill="#ADD1B2" rx="11" ry="11"
               style="stroke:#181818;stroke-width:1.0;"/>
      <path
          d="M775.5938,996.6719 C774.6563,996.2344 774.0625,996.0938 773.1875,996.0938 C770.5625,996.0938 768.5625,998.1719 768.5625,1000.8906 L768.5625,1002.0156 C768.5625,1004.5938 770.6719,1006.4844 773.5625,1006.4844 C774.7813,1006.4844 775.9375,1006.1875 776.6875,1005.6406 C777.2656,1005.2344 777.5938,1004.7813 777.5938,1004.3906 C777.5938,1003.9375 777.2031,1003.5469 776.7344,1003.5469 C776.5156,1003.5469 776.3125,1003.625 776.125,1003.8125 C775.6719,1004.2969 775.6719,1004.2969 775.4844,1004.3906 C775.0625,1004.6563 774.375,1004.7813 773.6094,1004.7813 C771.5625,1004.7813 770.2656,1003.6875 770.2656,1001.9844 L770.2656,1000.8906 C770.2656,999.1094 771.5156,997.7969 773.25,997.7969 C773.8281,997.7969 774.4375,997.9531 774.9063,998.2031 C775.3906,998.4844 775.5625,998.7031 775.6563,999.1094 C775.7188,999.5156 775.75,999.6406 775.8906,999.7656 C776.0313,999.9063 776.2656,1000.0156 776.4844,1000.0156 C776.75,1000.0156 777.0156,999.875 777.1875,999.6563 C777.2969,999.5 777.3281,999.3125 777.3281,998.8906 L777.3281,997.4688 C777.3281,997.0313 777.3125,996.9063 777.2188,996.75 C777.0625,996.4844 776.7813,996.3438 776.4844,996.3438 C776.1875,996.3438 775.9844,996.4375 775.7656,996.75 L775.5938,996.6719 Z "
          fill="#000000"/>
      <text fill="#000000" font-family="sans-serif" font-size="14" lengthAdjust="spacing"
            textLength="29" x="793.75" y="1005.8467">Trip
      </text>
      <line style="stroke:#181818;stroke-width:0.5;" x1="680" x2="904" y1="1017" y2="1017"/>
      <line style="stroke:#181818;stroke-width:0.5;" x1="680" x2="904" y1="1025" y2="1025"/>
      <ellipse cx="690" cy="1038.6484" fill="#84BE84" rx="3" ry="3"
               style="stroke:#038048;stroke-width:1.0;"/>
      <text fill="#000000" font-family="sans-serif" font-size="14" lengthAdjust="spacing"
            textLength="94" x="699" y="1041.9951">TripId getId()
      </text>
      <ellipse cx="690" cy="1054.9453" fill="#84BE84" rx="3" ry="3"
               style="stroke:#038048;stroke-width:1.0;"/>
      <text fill="#000000" font-family="sans-serif" font-size="14" lengthAdjust="spacing"
            textLength="135" x="699" y="1058.292">Station getOrigin()
      </text>
      <ellipse cx="690" cy="1071.2422" fill="#84BE84" rx="3" ry="3"
               style="stroke:#038048;stroke-width:1.0;"/>
      <text fill="#000000" font-family="sans-serif" font-size="14" lengthAdjust="spacing"
            textLength="176" x="699" y="1074.5889">Station getDestination()
      </text>
      <ellipse cx="690" cy="1087.5391" fill="#84BE84" rx="3" ry="3"
               style="stroke:#038048;stroke-width:1.0;"/>
      <text fill="#000000" font-family="sans-serif" font-size="14" lengthAdjust="spacing"
            textLength="200" x="699" y="1090.8857">List&lt;Station&gt; getStations()
      </text>
      <ellipse cx="690" cy="1103.8359" fill="#84BE84" rx="3" ry="3"
               style="stroke:#038048;stroke-width:1.0;"/>
      <text fill="#000000" font-family="sans-serif" font-size="14" lengthAdjust="spacing"
            textLength="111" x="699" y="1107.1826">Train getTrain()
      </text>
      <ellipse cx="690" cy="1120.1328" fill="#84BE84" rx="3" ry="3"
               style="stroke:#038048;stroke-width:1.0;"/>
      <text fill="#000000" font-family="sans-serif" font-size="14" lengthAdjust="spacing"
            textLength="105" x="699" y="1123.4795">Seat getSeat()
      </text>
      <ellipse cx="690" cy="1136.4297" fill="#84BE84" rx="3" ry="3"
               style="stroke:#038048;stroke-width:1.0;"/>
      <text fill="#000000" font-family="sans-serif" font-size="14" lengthAdjust="spacing"
            textLength="137" x="699" y="1139.7764">Wagon getWagon()
      </text>
    </g><!--class TripId-->
    <g id="elem_TripId">
      <rect codeLine="37" fill="#F1F1F1" height="64.2969" id="TripId" rx="2.5" ry="2.5"
            style="stroke:#181818;stroke-width:0.5;" width="111" x="736.5" y="1300.5"/>
      <ellipse cx="768.15" cy="1316.5" fill="#ADD1B2" rx="11" ry="11"
               style="stroke:#181818;stroke-width:1.0;"/>
      <path
          d="M770.4938,1312.1719 C769.5563,1311.7344 768.9625,1311.5938 768.0875,1311.5938 C765.4625,1311.5938 763.4625,1313.6719 763.4625,1316.3906 L763.4625,1317.5156 C763.4625,1320.0938 765.5719,1321.9844 768.4625,1321.9844 C769.6813,1321.9844 770.8375,1321.6875 771.5875,1321.1406 C772.1656,1320.7344 772.4938,1320.2813 772.4938,1319.8906 C772.4938,1319.4375 772.1031,1319.0469 771.6344,1319.0469 C771.4156,1319.0469 771.2125,1319.125 771.025,1319.3125 C770.5719,1319.7969 770.5719,1319.7969 770.3844,1319.8906 C769.9625,1320.1563 769.275,1320.2813 768.5094,1320.2813 C766.4625,1320.2813 765.1656,1319.1875 765.1656,1317.4844 L765.1656,1316.3906 C765.1656,1314.6094 766.4156,1313.2969 768.15,1313.2969 C768.7281,1313.2969 769.3375,1313.4531 769.8063,1313.7031 C770.2906,1313.9844 770.4625,1314.2031 770.5563,1314.6094 C770.6188,1315.0156 770.65,1315.1406 770.7906,1315.2656 C770.9313,1315.4063 771.1656,1315.5156 771.3844,1315.5156 C771.65,1315.5156 771.9156,1315.375 772.0875,1315.1563 C772.1969,1315 772.2281,1314.8125 772.2281,1314.3906 L772.2281,1312.9688 C772.2281,1312.5313 772.2125,1312.4063 772.1188,1312.25 C771.9625,1311.9844 771.6813,1311.8438 771.3844,1311.8438 C771.0875,1311.8438 770.8844,1311.9375 770.6656,1312.25 L770.4938,1312.1719 Z "
          fill="#000000"/>
      <text fill="#000000" font-family="sans-serif" font-size="14" lengthAdjust="spacing"
            textLength="42" x="785.85" y="1321.3467">TripId
      </text>
      <line style="stroke:#181818;stroke-width:0.5;" x1="737.5" x2="846.5" y1="1332.5" y2="1332.5"/>
      <line style="stroke:#181818;stroke-width:0.5;" x1="737.5" x2="846.5" y1="1340.5" y2="1340.5"/>
      <ellipse cx="747.5" cy="1354.1484" fill="#84BE84" rx="3" ry="3"
               style="stroke:#038048;stroke-width:1.0;"/>
      <text fill="#000000" font-family="sans-serif" font-size="14" lengthAdjust="spacing"
            textLength="85" x="756.5" y="1357.4951">UUID getId()
      </text>
    </g><!--class Station-->
    <g id="elem_Station">
      <rect codeLine="40" fill="#F1F1F1" height="80.5938" id="Station" rx="2.5" ry="2.5"
            style="stroke:#181818;stroke-width:0.5;" width="150" x="961" y="1292"/>
      <ellipse cx="1005.25" cy="1308" fill="#ADD1B2" rx="11" ry="11"
               style="stroke:#181818;stroke-width:1.0;"/>
      <path
          d="M1007.5938,1303.6719 C1006.6563,1303.2344 1006.0625,1303.0938 1005.1875,1303.0938 C1002.5625,1303.0938 1000.5625,1305.1719 1000.5625,1307.8906 L1000.5625,1309.0156 C1000.5625,1311.5938 1002.6719,1313.4844 1005.5625,1313.4844 C1006.7813,1313.4844 1007.9375,1313.1875 1008.6875,1312.6406 C1009.2656,1312.2344 1009.5938,1311.7813 1009.5938,1311.3906 C1009.5938,1310.9375 1009.2031,1310.5469 1008.7344,1310.5469 C1008.5156,1310.5469 1008.3125,1310.625 1008.125,1310.8125 C1007.6719,1311.2969 1007.6719,1311.2969 1007.4844,1311.3906 C1007.0625,1311.6563 1006.375,1311.7813 1005.6094,1311.7813 C1003.5625,1311.7813 1002.2656,1310.6875 1002.2656,1308.9844 L1002.2656,1307.8906 C1002.2656,1306.1094 1003.5156,1304.7969 1005.25,1304.7969 C1005.8281,1304.7969 1006.4375,1304.9531 1006.9063,1305.2031 C1007.3906,1305.4844 1007.5625,1305.7031 1007.6563,1306.1094 C1007.7188,1306.5156 1007.75,1306.6406 1007.8906,1306.7656 C1008.0313,1306.9063 1008.2656,1307.0156 1008.4844,1307.0156 C1008.75,1307.0156 1009.0156,1306.875 1009.1875,1306.6563 C1009.2969,1306.5 1009.3281,1306.3125 1009.3281,1305.8906 L1009.3281,1304.4688 C1009.3281,1304.0313 1009.3125,1303.9063 1009.2188,1303.75 C1009.0625,1303.4844 1008.7813,1303.3438 1008.4844,1303.3438 C1008.1875,1303.3438 1007.9844,1303.4375 1007.7656,1303.75 L1007.5938,1303.6719 Z "
          fill="#000000"/>
      <text fill="#000000" font-family="sans-serif" font-size="14" lengthAdjust="spacing"
            textLength="53" x="1025.75" y="1312.8467">Station
      </text>
      <line style="stroke:#181818;stroke-width:0.5;" x1="962" x2="1110" y1="1324" y2="1324"/>
      <line style="stroke:#181818;stroke-width:0.5;" x1="962" x2="1110" y1="1332" y2="1332"/>
      <ellipse cx="972" cy="1345.6484" fill="#84BE84" rx="3" ry="3"
               style="stroke:#038048;stroke-width:1.0;"/>
      <text fill="#000000" font-family="sans-serif" font-size="14" lengthAdjust="spacing"
            textLength="118" x="981" y="1348.9951">StationId getId()
      </text>
      <ellipse cx="972" cy="1361.9453" fill="#84BE84" rx="3" ry="3"
               style="stroke:#038048;stroke-width:1.0;"/>
      <text fill="#000000" font-family="sans-serif" font-size="14" lengthAdjust="spacing"
            textLength="124" x="981" y="1365.292">String getName()
      </text>
    </g><!--class StationId-->
    <g id="elem_StationId">
      <rect codeLine="44" fill="#F1F1F1" height="64.2969" id="StationId" rx="2.5" ry="2.5"
            style="stroke:#181818;stroke-width:0.5;" width="111" x="980.5" y="1441"/>
      <ellipse cx="1001.35" cy="1457" fill="#ADD1B2" rx="11" ry="11"
               style="stroke:#181818;stroke-width:1.0;"/>
      <path
          d="M1003.6938,1452.6719 C1002.7563,1452.2344 1002.1625,1452.0938 1001.2875,1452.0938 C998.6625,1452.0938 996.6625,1454.1719 996.6625,1456.8906 L996.6625,1458.0156 C996.6625,1460.5938 998.7719,1462.4844 1001.6625,1462.4844 C1002.8813,1462.4844 1004.0375,1462.1875 1004.7875,1461.6406 C1005.3656,1461.2344 1005.6938,1460.7813 1005.6938,1460.3906 C1005.6938,1459.9375 1005.3031,1459.5469 1004.8344,1459.5469 C1004.6156,1459.5469 1004.4125,1459.625 1004.225,1459.8125 C1003.7719,1460.2969 1003.7719,1460.2969 1003.5844,1460.3906 C1003.1625,1460.6563 1002.475,1460.7813 1001.7094,1460.7813 C999.6625,1460.7813 998.3656,1459.6875 998.3656,1457.9844 L998.3656,1456.8906 C998.3656,1455.1094 999.6156,1453.7969 1001.35,1453.7969 C1001.9281,1453.7969 1002.5375,1453.9531 1003.0063,1454.2031 C1003.4906,1454.4844 1003.6625,1454.7031 1003.7563,1455.1094 C1003.8188,1455.5156 1003.85,1455.6406 1003.9906,1455.7656 C1004.1313,1455.9063 1004.3656,1456.0156 1004.5844,1456.0156 C1004.85,1456.0156 1005.1156,1455.875 1005.2875,1455.6563 C1005.3969,1455.5 1005.4281,1455.3125 1005.4281,1454.8906 L1005.4281,1453.4688 C1005.4281,1453.0313 1005.4125,1452.9063 1005.3188,1452.75 C1005.1625,1452.4844 1004.8813,1452.3438 1004.5844,1452.3438 C1004.2875,1452.3438 1004.0844,1452.4375 1003.8656,1452.75 L1003.6938,1452.6719 Z "
          fill="#000000"/>
      <text fill="#000000" font-family="sans-serif" font-size="14" lengthAdjust="spacing"
            textLength="66" x="1016.65" y="1461.8467">StationId
      </text>
      <line style="stroke:#181818;stroke-width:0.5;" x1="981.5" x2="1090.5" y1="1473" y2="1473"/>
      <line style="stroke:#181818;stroke-width:0.5;" x1="981.5" x2="1090.5" y1="1481" y2="1481"/>
      <ellipse cx="991.5" cy="1494.6484" fill="#84BE84" rx="3" ry="3"
               style="stroke:#038048;stroke-width:1.0;"/>
      <text fill="#000000" font-family="sans-serif" font-size="14" lengthAdjust="spacing"
            textLength="85" x="1000.5" y="1497.9951">UUID getId()
      </text>
    </g><!--class Train-->
    <g id="elem_Train">
      <rect codeLine="47" fill="#F1F1F1" height="80.5938" id="Train" rx="2.5" ry="2.5"
            style="stroke:#181818;stroke-width:0.5;" width="150" x="1841" y="1292"/>
      <ellipse cx="1893.75" cy="1308" fill="#ADD1B2" rx="11" ry="11"
               style="stroke:#181818;stroke-width:1.0;"/>
      <path
          d="M1896.0938,1303.6719 C1895.1563,1303.2344 1894.5625,1303.0938 1893.6875,1303.0938 C1891.0625,1303.0938 1889.0625,1305.1719 1889.0625,1307.8906 L1889.0625,1309.0156 C1889.0625,1311.5938 1891.1719,1313.4844 1894.0625,1313.4844 C1895.2813,1313.4844 1896.4375,1313.1875 1897.1875,1312.6406 C1897.7656,1312.2344 1898.0938,1311.7813 1898.0938,1311.3906 C1898.0938,1310.9375 1897.7031,1310.5469 1897.2344,1310.5469 C1897.0156,1310.5469 1896.8125,1310.625 1896.625,1310.8125 C1896.1719,1311.2969 1896.1719,1311.2969 1895.9844,1311.3906 C1895.5625,1311.6563 1894.875,1311.7813 1894.1094,1311.7813 C1892.0625,1311.7813 1890.7656,1310.6875 1890.7656,1308.9844 L1890.7656,1307.8906 C1890.7656,1306.1094 1892.0156,1304.7969 1893.75,1304.7969 C1894.3281,1304.7969 1894.9375,1304.9531 1895.4063,1305.2031 C1895.8906,1305.4844 1896.0625,1305.7031 1896.1563,1306.1094 C1896.2188,1306.5156 1896.25,1306.6406 1896.3906,1306.7656 C1896.5313,1306.9063 1896.7656,1307.0156 1896.9844,1307.0156 C1897.25,1307.0156 1897.5156,1306.875 1897.6875,1306.6563 C1897.7969,1306.5 1897.8281,1306.3125 1897.8281,1305.8906 L1897.8281,1304.4688 C1897.8281,1304.0313 1897.8125,1303.9063 1897.7188,1303.75 C1897.5625,1303.4844 1897.2813,1303.3438 1896.9844,1303.3438 C1896.6875,1303.3438 1896.4844,1303.4375 1896.2656,1303.75 L1896.0938,1303.6719 Z "
          fill="#000000"/>
      <text fill="#000000" font-family="sans-serif" font-size="14" lengthAdjust="spacing"
            textLength="36" x="1914.25" y="1312.8467">Train
      </text>
      <line style="stroke:#181818;stroke-width:0.5;" x1="1842" x2="1990" y1="1324" y2="1324"/>
      <line style="stroke:#181818;stroke-width:0.5;" x1="1842" x2="1990" y1="1332" y2="1332"/>
      <ellipse cx="1852" cy="1345.6484" fill="#84BE84" rx="3" ry="3"
               style="stroke:#038048;stroke-width:1.0;"/>
      <text fill="#000000" font-family="sans-serif" font-size="14" lengthAdjust="spacing"
            textLength="101" x="1861" y="1348.9951">TrainId getId()
      </text>
      <ellipse cx="1852" cy="1361.9453" fill="#84BE84" rx="3" ry="3"
               style="stroke:#038048;stroke-width:1.0;"/>
      <text fill="#000000" font-family="sans-serif" font-size="14" lengthAdjust="spacing"
            textLength="124" x="1861" y="1365.292">String getName()
      </text>
    </g><!--class TrainId-->
    <g id="elem_TrainId">
      <rect codeLine="51" fill="#F1F1F1" height="64.2969" id="TrainId" rx="2.5" ry="2.5"
            style="stroke:#181818;stroke-width:0.5;" width="111" x="1860.5" y="1441"/>
      <ellipse cx="1889" cy="1457" fill="#ADD1B2" rx="11" ry="11"
               style="stroke:#181818;stroke-width:1.0;"/>
      <path
          d="M1891.3438,1452.6719 C1890.4063,1452.2344 1889.8125,1452.0938 1888.9375,1452.0938 C1886.3125,1452.0938 1884.3125,1454.1719 1884.3125,1456.8906 L1884.3125,1458.0156 C1884.3125,1460.5938 1886.4219,1462.4844 1889.3125,1462.4844 C1890.5313,1462.4844 1891.6875,1462.1875 1892.4375,1461.6406 C1893.0156,1461.2344 1893.3438,1460.7813 1893.3438,1460.3906 C1893.3438,1459.9375 1892.9531,1459.5469 1892.4844,1459.5469 C1892.2656,1459.5469 1892.0625,1459.625 1891.875,1459.8125 C1891.4219,1460.2969 1891.4219,1460.2969 1891.2344,1460.3906 C1890.8125,1460.6563 1890.125,1460.7813 1889.3594,1460.7813 C1887.3125,1460.7813 1886.0156,1459.6875 1886.0156,1457.9844 L1886.0156,1456.8906 C1886.0156,1455.1094 1887.2656,1453.7969 1889,1453.7969 C1889.5781,1453.7969 1890.1875,1453.9531 1890.6563,1454.2031 C1891.1406,1454.4844 1891.3125,1454.7031 1891.4063,1455.1094 C1891.4688,1455.5156 1891.5,1455.6406 1891.6406,1455.7656 C1891.7813,1455.9063 1892.0156,1456.0156 1892.2344,1456.0156 C1892.5,1456.0156 1892.7656,1455.875 1892.9375,1455.6563 C1893.0469,1455.5 1893.0781,1455.3125 1893.0781,1454.8906 L1893.0781,1453.4688 C1893.0781,1453.0313 1893.0625,1452.9063 1892.9688,1452.75 C1892.8125,1452.4844 1892.5313,1452.3438 1892.2344,1452.3438 C1891.9375,1452.3438 1891.7344,1452.4375 1891.5156,1452.75 L1891.3438,1452.6719 Z "
          fill="#000000"/>
      <text fill="#000000" font-family="sans-serif" font-size="14" lengthAdjust="spacing"
            textLength="49" x="1906" y="1461.8467">TrainId
      </text>
      <line style="stroke:#181818;stroke-width:0.5;" x1="1861.5" x2="1970.5" y1="1473" y2="1473"/>
      <line style="stroke:#181818;stroke-width:0.5;" x1="1861.5" x2="1970.5" y1="1481" y2="1481"/>
      <ellipse cx="1871.5" cy="1494.6484" fill="#84BE84" rx="3" ry="3"
               style="stroke:#038048;stroke-width:1.0;"/>
      <text fill="#000000" font-family="sans-serif" font-size="14" lengthAdjust="spacing"
            textLength="85" x="1880.5" y="1497.9951">UUID getId()
      </text>
    </g><!--class Wagon-->
    <g id="elem_Wagon">
      <rect codeLine="54" fill="#F1F1F1" height="96.8906" id="Wagon" rx="2.5" ry="2.5"
            style="stroke:#181818;stroke-width:0.5;" width="166" x="1583" y="1284"/>
      <ellipse cx="1637.25" cy="1300" fill="#ADD1B2" rx="11" ry="11"
               style="stroke:#181818;stroke-width:1.0;"/>
      <path
          d="M1639.5938,1295.6719 C1638.6563,1295.2344 1638.0625,1295.0938 1637.1875,1295.0938 C1634.5625,1295.0938 1632.5625,1297.1719 1632.5625,1299.8906 L1632.5625,1301.0156 C1632.5625,1303.5938 1634.6719,1305.4844 1637.5625,1305.4844 C1638.7813,1305.4844 1639.9375,1305.1875 1640.6875,1304.6406 C1641.2656,1304.2344 1641.5938,1303.7813 1641.5938,1303.3906 C1641.5938,1302.9375 1641.2031,1302.5469 1640.7344,1302.5469 C1640.5156,1302.5469 1640.3125,1302.625 1640.125,1302.8125 C1639.6719,1303.2969 1639.6719,1303.2969 1639.4844,1303.3906 C1639.0625,1303.6563 1638.375,1303.7813 1637.6094,1303.7813 C1635.5625,1303.7813 1634.2656,1302.6875 1634.2656,1300.9844 L1634.2656,1299.8906 C1634.2656,1298.1094 1635.5156,1296.7969 1637.25,1296.7969 C1637.8281,1296.7969 1638.4375,1296.9531 1638.9063,1297.2031 C1639.3906,1297.4844 1639.5625,1297.7031 1639.6563,1298.1094 C1639.7188,1298.5156 1639.75,1298.6406 1639.8906,1298.7656 C1640.0313,1298.9063 1640.2656,1299.0156 1640.4844,1299.0156 C1640.75,1299.0156 1641.0156,1298.875 1641.1875,1298.6563 C1641.2969,1298.5 1641.3281,1298.3125 1641.3281,1297.8906 L1641.3281,1296.4688 C1641.3281,1296.0313 1641.3125,1295.9063 1641.2188,1295.75 C1641.0625,1295.4844 1640.7813,1295.3438 1640.4844,1295.3438 C1640.1875,1295.3438 1639.9844,1295.4375 1639.7656,1295.75 L1639.5938,1295.6719 Z "
          fill="#000000"/>
      <text fill="#000000" font-family="sans-serif" font-size="14" lengthAdjust="spacing"
            textLength="49" x="1657.75" y="1304.8467">Wagon
      </text>
      <line style="stroke:#181818;stroke-width:0.5;" x1="1584" x2="1748" y1="1316" y2="1316"/>
      <line style="stroke:#181818;stroke-width:0.5;" x1="1584" x2="1748" y1="1324" y2="1324"/>
      <ellipse cx="1594" cy="1337.6484" fill="#84BE84" rx="3" ry="3"
               style="stroke:#038048;stroke-width:1.0;"/>
      <text fill="#000000" font-family="sans-serif" font-size="14" lengthAdjust="spacing"
            textLength="114" x="1603" y="1340.9951">WagonId getId()
      </text>
      <ellipse cx="1594" cy="1353.9453" fill="#84BE84" rx="3" ry="3"
               style="stroke:#038048;stroke-width:1.0;"/>
      <text fill="#000000" font-family="sans-serif" font-size="14" lengthAdjust="spacing"
            textLength="124" x="1603" y="1357.292">String getName()
      </text>
      <ellipse cx="1594" cy="1370.2422" fill="#84BE84" rx="3" ry="3"
               style="stroke:#038048;stroke-width:1.0;"/>
      <text fill="#000000" font-family="sans-serif" font-size="14" lengthAdjust="spacing"
            textLength="140" x="1603" y="1373.5889">String getNumber()
      </text>
    </g><!--class WagonId-->
    <g id="elem_WagonId">
      <rect codeLine="59" fill="#F1F1F1" height="64.2969" id="WagonId" rx="2.5" ry="2.5"
            style="stroke:#181818;stroke-width:0.5;" width="111" x="1610.5" y="1441"/>
      <ellipse cx="1633.15" cy="1457" fill="#ADD1B2" rx="11" ry="11"
               style="stroke:#181818;stroke-width:1.0;"/>
      <path
          d="M1635.4938,1452.6719 C1634.5563,1452.2344 1633.9625,1452.0938 1633.0875,1452.0938 C1630.4625,1452.0938 1628.4625,1454.1719 1628.4625,1456.8906 L1628.4625,1458.0156 C1628.4625,1460.5938 1630.5719,1462.4844 1633.4625,1462.4844 C1634.6813,1462.4844 1635.8375,1462.1875 1636.5875,1461.6406 C1637.1656,1461.2344 1637.4938,1460.7813 1637.4938,1460.3906 C1637.4938,1459.9375 1637.1031,1459.5469 1636.6344,1459.5469 C1636.4156,1459.5469 1636.2125,1459.625 1636.025,1459.8125 C1635.5719,1460.2969 1635.5719,1460.2969 1635.3844,1460.3906 C1634.9625,1460.6563 1634.275,1460.7813 1633.5094,1460.7813 C1631.4625,1460.7813 1630.1656,1459.6875 1630.1656,1457.9844 L1630.1656,1456.8906 C1630.1656,1455.1094 1631.4156,1453.7969 1633.15,1453.7969 C1633.7281,1453.7969 1634.3375,1453.9531 1634.8063,1454.2031 C1635.2906,1454.4844 1635.4625,1454.7031 1635.5563,1455.1094 C1635.6188,1455.5156 1635.65,1455.6406 1635.7906,1455.7656 C1635.9313,1455.9063 1636.1656,1456.0156 1636.3844,1456.0156 C1636.65,1456.0156 1636.9156,1455.875 1637.0875,1455.6563 C1637.1969,1455.5 1637.2281,1455.3125 1637.2281,1454.8906 L1637.2281,1453.4688 C1637.2281,1453.0313 1637.2125,1452.9063 1637.1188,1452.75 C1636.9625,1452.4844 1636.6813,1452.3438 1636.3844,1452.3438 C1636.0875,1452.3438 1635.8844,1452.4375 1635.6656,1452.75 L1635.4938,1452.6719 Z "
          fill="#000000"/>
      <text fill="#000000" font-family="sans-serif" font-size="14" lengthAdjust="spacing"
            textLength="62" x="1648.85" y="1461.8467">WagonId
      </text>
      <line style="stroke:#181818;stroke-width:0.5;" x1="1611.5" x2="1720.5" y1="1473" y2="1473"/>
      <line style="stroke:#181818;stroke-width:0.5;" x1="1611.5" x2="1720.5" y1="1481" y2="1481"/>
      <ellipse cx="1621.5" cy="1494.6484" fill="#84BE84" rx="3" ry="3"
               style="stroke:#038048;stroke-width:1.0;"/>
      <text fill="#000000" font-family="sans-serif" font-size="14" lengthAdjust="spacing"
            textLength="85" x="1630.5" y="1497.9951">UUID getId()
      </text>
    </g><!--class Seat-->
    <g id="elem_Seat">
      <rect codeLine="62" fill="#F1F1F1" height="80.5938" id="Seat" rx="2.5" ry="2.5"
            style="stroke:#181818;stroke-width:0.5;" width="150" x="1308" y="1292"/>
      <ellipse cx="1362.25" cy="1308" fill="#ADD1B2" rx="11" ry="11"
               style="stroke:#181818;stroke-width:1.0;"/>
      <path
          d="M1364.5938,1303.6719 C1363.6563,1303.2344 1363.0625,1303.0938 1362.1875,1303.0938 C1359.5625,1303.0938 1357.5625,1305.1719 1357.5625,1307.8906 L1357.5625,1309.0156 C1357.5625,1311.5938 1359.6719,1313.4844 1362.5625,1313.4844 C1363.7813,1313.4844 1364.9375,1313.1875 1365.6875,1312.6406 C1366.2656,1312.2344 1366.5938,1311.7813 1366.5938,1311.3906 C1366.5938,1310.9375 1366.2031,1310.5469 1365.7344,1310.5469 C1365.5156,1310.5469 1365.3125,1310.625 1365.125,1310.8125 C1364.6719,1311.2969 1364.6719,1311.2969 1364.4844,1311.3906 C1364.0625,1311.6563 1363.375,1311.7813 1362.6094,1311.7813 C1360.5625,1311.7813 1359.2656,1310.6875 1359.2656,1308.9844 L1359.2656,1307.8906 C1359.2656,1306.1094 1360.5156,1304.7969 1362.25,1304.7969 C1362.8281,1304.7969 1363.4375,1304.9531 1363.9063,1305.2031 C1364.3906,1305.4844 1364.5625,1305.7031 1364.6563,1306.1094 C1364.7188,1306.5156 1364.75,1306.6406 1364.8906,1306.7656 C1365.0313,1306.9063 1365.2656,1307.0156 1365.4844,1307.0156 C1365.75,1307.0156 1366.0156,1306.875 1366.1875,1306.6563 C1366.2969,1306.5 1366.3281,1306.3125 1366.3281,1305.8906 L1366.3281,1304.4688 C1366.3281,1304.0313 1366.3125,1303.9063 1366.2188,1303.75 C1366.0625,1303.4844 1365.7813,1303.3438 1365.4844,1303.3438 C1365.1875,1303.3438 1364.9844,1303.4375 1364.7656,1303.75 L1364.5938,1303.6719 Z "
          fill="#000000"/>
      <text fill="#000000" font-family="sans-serif" font-size="14" lengthAdjust="spacing"
            textLength="33" x="1382.75" y="1312.8467">Seat
      </text>
      <line style="stroke:#181818;stroke-width:0.5;" x1="1309" x2="1457" y1="1324" y2="1324"/>
      <line style="stroke:#181818;stroke-width:0.5;" x1="1309" x2="1457" y1="1332" y2="1332"/>
      <ellipse cx="1319" cy="1345.6484" fill="#84BE84" rx="3" ry="3"
               style="stroke:#038048;stroke-width:1.0;"/>
      <text fill="#000000" font-family="sans-serif" font-size="14" lengthAdjust="spacing"
            textLength="98" x="1328" y="1348.9951">SeatId getId()
      </text>
      <ellipse cx="1319" cy="1361.9453" fill="#84BE84" rx="3" ry="3"
               style="stroke:#038048;stroke-width:1.0;"/>
      <text fill="#000000" font-family="sans-serif" font-size="14" lengthAdjust="spacing"
            textLength="124" x="1328" y="1365.292">String getName()
      </text>
    </g><!--class SeatId-->
    <g id="elem_SeatId">
      <rect codeLine="66" fill="#F1F1F1" height="64.2969" id="SeatId" rx="2.5" ry="2.5"
            style="stroke:#181818;stroke-width:0.5;" width="111" x="1327.5" y="1441"/>
      <ellipse cx="1357.35" cy="1457" fill="#ADD1B2" rx="11" ry="11"
               style="stroke:#181818;stroke-width:1.0;"/>
      <path
          d="M1359.6938,1452.6719 C1358.7563,1452.2344 1358.1625,1452.0938 1357.2875,1452.0938 C1354.6625,1452.0938 1352.6625,1454.1719 1352.6625,1456.8906 L1352.6625,1458.0156 C1352.6625,1460.5938 1354.7719,1462.4844 1357.6625,1462.4844 C1358.8813,1462.4844 1360.0375,1462.1875 1360.7875,1461.6406 C1361.3656,1461.2344 1361.6938,1460.7813 1361.6938,1460.3906 C1361.6938,1459.9375 1361.3031,1459.5469 1360.8344,1459.5469 C1360.6156,1459.5469 1360.4125,1459.625 1360.225,1459.8125 C1359.7719,1460.2969 1359.7719,1460.2969 1359.5844,1460.3906 C1359.1625,1460.6563 1358.475,1460.7813 1357.7094,1460.7813 C1355.6625,1460.7813 1354.3656,1459.6875 1354.3656,1457.9844 L1354.3656,1456.8906 C1354.3656,1455.1094 1355.6156,1453.7969 1357.35,1453.7969 C1357.9281,1453.7969 1358.5375,1453.9531 1359.0063,1454.2031 C1359.4906,1454.4844 1359.6625,1454.7031 1359.7563,1455.1094 C1359.8188,1455.5156 1359.85,1455.6406 1359.9906,1455.7656 C1360.1313,1455.9063 1360.3656,1456.0156 1360.5844,1456.0156 C1360.85,1456.0156 1361.1156,1455.875 1361.2875,1455.6563 C1361.3969,1455.5 1361.4281,1455.3125 1361.4281,1454.8906 L1361.4281,1453.4688 C1361.4281,1453.0313 1361.4125,1452.9063 1361.3188,1452.75 C1361.1625,1452.4844 1360.8813,1452.3438 1360.5844,1452.3438 C1360.2875,1452.3438 1360.0844,1452.4375 1359.8656,1452.75 L1359.6938,1452.6719 Z "
          fill="#000000"/>
      <text fill="#000000" font-family="sans-serif" font-size="14" lengthAdjust="spacing"
            textLength="46" x="1374.65" y="1461.8467">SeatId
      </text>
      <line style="stroke:#181818;stroke-width:0.5;" x1="1328.5" x2="1437.5" y1="1473" y2="1473"/>
      <line style="stroke:#181818;stroke-width:0.5;" x1="1328.5" x2="1437.5" y1="1481" y2="1481"/>
      <ellipse cx="1338.5" cy="1494.6484" fill="#84BE84" rx="3" ry="3"
               style="stroke:#038048;stroke-width:1.0;"/>
      <text fill="#000000" font-family="sans-serif" font-size="14" lengthAdjust="spacing"
            textLength="85" x="1347.5" y="1497.9951">UUID getId()
      </text>
    </g><!--class ResetReservationService-->
    <g id="elem_ResetReservationService">
      <rect codeLine="69" fill="#F1F1F1" height="64.2969" id="ResetReservationService" rx="2.5"
            ry="2.5" style="stroke:#181818;stroke-width:0.5;" width="213" x="638.5" y="339.5"/>
      <ellipse cx="653.5" cy="355.5" fill="#ADD1B2" rx="11" ry="11"
               style="stroke:#181818;stroke-width:1.0;"/>
      <path
          d="M655.8438,351.1719 C654.9063,350.7344 654.3125,350.5938 653.4375,350.5938 C650.8125,350.5938 648.8125,352.6719 648.8125,355.3906 L648.8125,356.5156 C648.8125,359.0938 650.9219,360.9844 653.8125,360.9844 C655.0313,360.9844 656.1875,360.6875 656.9375,360.1406 C657.5156,359.7344 657.8438,359.2813 657.8438,358.8906 C657.8438,358.4375 657.4531,358.0469 656.9844,358.0469 C656.7656,358.0469 656.5625,358.125 656.375,358.3125 C655.9219,358.7969 655.9219,358.7969 655.7344,358.8906 C655.3125,359.1563 654.625,359.2813 653.8594,359.2813 C651.8125,359.2813 650.5156,358.1875 650.5156,356.4844 L650.5156,355.3906 C650.5156,353.6094 651.7656,352.2969 653.5,352.2969 C654.0781,352.2969 654.6875,352.4531 655.1563,352.7031 C655.6406,352.9844 655.8125,353.2031 655.9063,353.6094 C655.9688,354.0156 656,354.1406 656.1406,354.2656 C656.2813,354.4063 656.5156,354.5156 656.7344,354.5156 C657,354.5156 657.2656,354.375 657.4375,354.1563 C657.5469,354 657.5781,353.8125 657.5781,353.3906 L657.5781,351.9688 C657.5781,351.5313 657.5625,351.4063 657.4688,351.25 C657.3125,350.9844 657.0313,350.8438 656.7344,350.8438 C656.4375,350.8438 656.2344,350.9375 656.0156,351.25 L655.8438,351.1719 Z "
          fill="#000000"/>
      <text fill="#000000" font-family="sans-serif" font-size="14" lengthAdjust="spacing"
            textLength="181" x="667.5" y="360.3467">ResetReservationService
      </text>
      <line style="stroke:#181818;stroke-width:0.5;" x1="639.5" x2="850.5" y1="371.5" y2="371.5"/>
      <line style="stroke:#181818;stroke-width:0.5;" x1="639.5" x2="850.5" y1="379.5" y2="379.5"/>
      <ellipse cx="649.5" cy="393.1484" fill="#84BE84" rx="3" ry="3"
               style="stroke:#038048;stroke-width:1.0;"/>
      <text fill="#000000" font-family="sans-serif" font-size="14" lengthAdjust="spacing"
            textLength="182" x="658.5" y="396.4951">void serve(ReservationId)
      </text>
    </g><!--class ResetReservationComponent-->
    <g id="elem_ResetReservationComponent">
      <rect codeLine="72" fill="#F1F1F1" height="64.2969" id="ResetReservationComponent" rx="2.5"
            ry="2.5" style="stroke:#181818;stroke-width:0.5;" width="246" x="622" y="512.5"/>
      <ellipse cx="637" cy="528.5" fill="#ADD1B2" rx="11" ry="11"
               style="stroke:#181818;stroke-width:1.0;"/>
      <path
          d="M639.3438,524.1719 C638.4063,523.7344 637.8125,523.5938 636.9375,523.5938 C634.3125,523.5938 632.3125,525.6719 632.3125,528.3906 L632.3125,529.5156 C632.3125,532.0938 634.4219,533.9844 637.3125,533.9844 C638.5313,533.9844 639.6875,533.6875 640.4375,533.1406 C641.0156,532.7344 641.3438,532.2813 641.3438,531.8906 C641.3438,531.4375 640.9531,531.0469 640.4844,531.0469 C640.2656,531.0469 640.0625,531.125 639.875,531.3125 C639.4219,531.7969 639.4219,531.7969 639.2344,531.8906 C638.8125,532.1563 638.125,532.2813 637.3594,532.2813 C635.3125,532.2813 634.0156,531.1875 634.0156,529.4844 L634.0156,528.3906 C634.0156,526.6094 635.2656,525.2969 637,525.2969 C637.5781,525.2969 638.1875,525.4531 638.6563,525.7031 C639.1406,525.9844 639.3125,526.2031 639.4063,526.6094 C639.4688,527.0156 639.5,527.1406 639.6406,527.2656 C639.7813,527.4063 640.0156,527.5156 640.2344,527.5156 C640.5,527.5156 640.7656,527.375 640.9375,527.1563 C641.0469,527 641.0781,526.8125 641.0781,526.3906 L641.0781,524.9688 C641.0781,524.5313 641.0625,524.4063 640.9688,524.25 C640.8125,523.9844 640.5313,523.8438 640.2344,523.8438 C639.9375,523.8438 639.7344,523.9375 639.5156,524.25 L639.3438,524.1719 Z "
          fill="#000000"/>
      <text fill="#000000" font-family="sans-serif" font-size="14" lengthAdjust="spacing"
            textLength="214" x="651" y="533.3467">ResetReservationComponent
      </text>
      <line style="stroke:#181818;stroke-width:0.5;" x1="623" x2="867" y1="544.5" y2="544.5"/>
      <line style="stroke:#181818;stroke-width:0.5;" x1="623" x2="867" y1="552.5" y2="552.5"/>
      <ellipse cx="633" cy="566.1484" fill="#84BE84" rx="3" ry="3"
               style="stroke:#038048;stroke-width:1.0;"/>
      <text fill="#000000" font-family="sans-serif" font-size="14" lengthAdjust="spacing"
            textLength="201" x="642" y="569.4951">void execute(ReservationId)
      </text>
    </g><!--class SubmitReservationService-->
    <g id="elem_SubmitReservationService">
      <rect codeLine="75" fill="#F1F1F1" height="113.1875" id="SubmitReservationService" rx="2.5"
            ry="2.5" style="stroke:#181818;stroke-width:0.5;" width="455" x="78.5" y="315"/>
      <ellipse cx="206.25" cy="331" fill="#ADD1B2" rx="11" ry="11"
               style="stroke:#181818;stroke-width:1.0;"/>
      <path
          d="M208.5938,326.6719 C207.6563,326.2344 207.0625,326.0938 206.1875,326.0938 C203.5625,326.0938 201.5625,328.1719 201.5625,330.8906 L201.5625,332.0156 C201.5625,334.5938 203.6719,336.4844 206.5625,336.4844 C207.7813,336.4844 208.9375,336.1875 209.6875,335.6406 C210.2656,335.2344 210.5938,334.7813 210.5938,334.3906 C210.5938,333.9375 210.2031,333.5469 209.7344,333.5469 C209.5156,333.5469 209.3125,333.625 209.125,333.8125 C208.6719,334.2969 208.6719,334.2969 208.4844,334.3906 C208.0625,334.6563 207.375,334.7813 206.6094,334.7813 C204.5625,334.7813 203.2656,333.6875 203.2656,331.9844 L203.2656,330.8906 C203.2656,329.1094 204.5156,327.7969 206.25,327.7969 C206.8281,327.7969 207.4375,327.9531 207.9063,328.2031 C208.3906,328.4844 208.5625,328.7031 208.6563,329.1094 C208.7188,329.5156 208.75,329.6406 208.8906,329.7656 C209.0313,329.9063 209.2656,330.0156 209.4844,330.0156 C209.75,330.0156 210.0156,329.875 210.1875,329.6563 C210.2969,329.5 210.3281,329.3125 210.3281,328.8906 L210.3281,327.4688 C210.3281,327.0313 210.3125,326.9063 210.2188,326.75 C210.0625,326.4844 209.7813,326.3438 209.4844,326.3438 C209.1875,326.3438 208.9844,326.4375 208.7656,326.75 L208.5938,326.6719 Z "
          fill="#000000"/>
      <text fill="#000000" font-family="sans-serif" font-size="14" lengthAdjust="spacing"
            textLength="191" x="226.75" y="335.8467">SubmitReservationService
      </text>
      <line style="stroke:#181818;stroke-width:0.5;" x1="79.5" x2="532.5" y1="347" y2="347"/>
      <ellipse cx="89.5" cy="360.6484" fill="none" rx="3" ry="3"
               style="stroke:#038048;stroke-width:1.0;"/>
      <text fill="#000000" font-family="sans-serif" font-size="14" lengthAdjust="spacing"
            textLength="364" x="98.5" y="363.9951">SubmitReservationComponent submitReservation
      </text>
      <line style="stroke:#181818;stroke-width:0.5;" x1="79.5" x2="532.5" y1="371.2969"
            y2="371.2969"/>
      <ellipse cx="89.5" cy="384.9453" fill="#84BE84" rx="3" ry="3"
               style="stroke:#038048;stroke-width:1.0;"/>
      <text fill="#000000" font-family="sans-serif" font-size="14" lengthAdjust="spacing"
            textLength="401" x="98.5" y="388.292">SubmitReservationComponent getSubmitReservation()
      </text>
      <ellipse cx="89.5" cy="401.2422" fill="#84BE84" rx="3" ry="3"
               style="stroke:#038048;stroke-width:1.0;"/>
      <text fill="#000000" font-family="sans-serif" font-size="14" lengthAdjust="spacing"
            textLength="429" x="98.5" y="404.5889">void
        setSubmitReservation(SubmitReservationComponent)
      </text>
      <ellipse cx="89.5" cy="417.5391" fill="#84BE84" rx="3" ry="3"
               style="stroke:#038048;stroke-width:1.0;"/>
      <text fill="#000000" font-family="sans-serif" font-size="14" lengthAdjust="spacing"
            textLength="182" x="98.5" y="420.8857">void serve(ReservationId)
      </text>
    </g><!--class SubmitReservationComponent-->
    <g id="elem_SubmitReservationComponent">
      <rect codeLine="82" fill="#F1F1F1" height="113.1875" id="SubmitReservationComponent" rx="2.5"
            ry="2.5" style="stroke:#181818;stroke-width:0.5;" width="423" x="94.5" y="488"/>
      <ellipse cx="189.75" cy="504" fill="#ADD1B2" rx="11" ry="11"
               style="stroke:#181818;stroke-width:1.0;"/>
      <path
          d="M192.0938,499.6719 C191.1563,499.2344 190.5625,499.0938 189.6875,499.0938 C187.0625,499.0938 185.0625,501.1719 185.0625,503.8906 L185.0625,505.0156 C185.0625,507.5938 187.1719,509.4844 190.0625,509.4844 C191.2813,509.4844 192.4375,509.1875 193.1875,508.6406 C193.7656,508.2344 194.0938,507.7813 194.0938,507.3906 C194.0938,506.9375 193.7031,506.5469 193.2344,506.5469 C193.0156,506.5469 192.8125,506.625 192.625,506.8125 C192.1719,507.2969 192.1719,507.2969 191.9844,507.3906 C191.5625,507.6563 190.875,507.7813 190.1094,507.7813 C188.0625,507.7813 186.7656,506.6875 186.7656,504.9844 L186.7656,503.8906 C186.7656,502.1094 188.0156,500.7969 189.75,500.7969 C190.3281,500.7969 190.9375,500.9531 191.4063,501.2031 C191.8906,501.4844 192.0625,501.7031 192.1563,502.1094 C192.2188,502.5156 192.25,502.6406 192.3906,502.7656 C192.5313,502.9063 192.7656,503.0156 192.9844,503.0156 C193.25,503.0156 193.5156,502.875 193.6875,502.6563 C193.7969,502.5 193.8281,502.3125 193.8281,501.8906 L193.8281,500.4688 C193.8281,500.0313 193.8125,499.9063 193.7188,499.75 C193.5625,499.4844 193.2813,499.3438 192.9844,499.3438 C192.6875,499.3438 192.4844,499.4375 192.2656,499.75 L192.0938,499.6719 Z "
          fill="#000000"/>
      <text fill="#000000" font-family="sans-serif" font-size="14" lengthAdjust="spacing"
            textLength="224" x="210.25" y="508.8467">SubmitReservationComponent
      </text>
      <line style="stroke:#181818;stroke-width:0.5;" x1="95.5" x2="516.5" y1="520" y2="520"/>
      <ellipse cx="105.5" cy="533.6484" fill="none" rx="3" ry="3"
               style="stroke:#038048;stroke-width:1.0;"/>
      <text fill="#000000" font-family="sans-serif" font-size="14" lengthAdjust="spacing"
            textLength="330" x="114.5" y="536.9951">ReservationRepository reservationRepository
      </text>
      <line style="stroke:#181818;stroke-width:0.5;" x1="95.5" x2="516.5" y1="544.2969"
            y2="544.2969"/>
      <ellipse cx="105.5" cy="557.9453" fill="#84BE84" rx="3" ry="3"
               style="stroke:#038048;stroke-width:1.0;"/>
      <text fill="#000000" font-family="sans-serif" font-size="14" lengthAdjust="spacing"
            textLength="369" x="114.5" y="561.292">ReservationRepository getReservationRepository()
      </text>
      <ellipse cx="105.5" cy="574.2422" fill="#84BE84" rx="3" ry="3"
               style="stroke:#038048;stroke-width:1.0;"/>
      <text fill="#000000" font-family="sans-serif" font-size="14" lengthAdjust="spacing"
            textLength="397" x="114.5" y="577.5889">void
        setReservationRepository(ReservationRepository)
      </text>
      <ellipse cx="105.5" cy="590.5391" fill="#84BE84" rx="3" ry="3"
               style="stroke:#038048;stroke-width:1.0;"/>
      <text fill="#000000" font-family="sans-serif" font-size="14" lengthAdjust="spacing"
            textLength="201" x="114.5" y="593.8857">void execute(ReservationId)
      </text>
    </g><!--class ReservationRepositoryUseCase-->
    <g id="elem_ReservationRepositoryUseCase">
      <rect codeLine="89" fill="#F1F1F1" height="48" id="ReservationRepositoryUseCase" rx="2.5"
            ry="2.5" style="stroke:#181818;stroke-width:0.5;" width="254" x="2171" y="1042"/>
      <ellipse cx="2186" cy="1058" fill="#B4A7E5" rx="11" ry="11"
               style="stroke:#181818;stroke-width:1.0;"/>
      <path
          d="M2186.9531,1054.7813 L2188.6719,1054.7813 C2189.0625,1054.7813 2189.25,1054.75 2189.375,1054.6719 C2189.6406,1054.5156 2189.7813,1054.2344 2189.7813,1053.9375 C2189.7813,1053.6719 2189.6719,1053.4063 2189.4375,1053.2344 C2189.2656,1053.125 2189.125,1053.0938 2188.6719,1053.0938 L2183.5313,1053.0938 C2183.0938,1053.0938 2182.9688,1053.1094 2182.8125,1053.2031 C2182.5625,1053.3594 2182.4063,1053.6563 2182.4063,1053.9375 C2182.4063,1054.2188 2182.5469,1054.4688 2182.7656,1054.6406 C2182.9219,1054.75 2183.1094,1054.7813 2183.5313,1054.7813 L2185.25,1054.7813 L2185.25,1061.2969 L2183.5313,1061.2969 C2183.0938,1061.2969 2182.9688,1061.3125 2182.8125,1061.4219 C2182.5625,1061.5781 2182.4063,1061.8594 2182.4063,1062.1563 C2182.4063,1062.4063 2182.5469,1062.6719 2182.7656,1062.8281 C2182.9219,1062.9531 2183.125,1063 2183.5313,1063 L2188.6719,1063 C2189.4219,1063 2189.7813,1062.7188 2189.7813,1062.1563 C2189.7813,1061.875 2189.6719,1061.625 2189.4375,1061.4531 C2189.2656,1061.3281 2189.125,1061.2969 2188.6719,1061.2969 L2186.9531,1061.2969 L2186.9531,1054.7813 Z "
          fill="#000000"/>
      <text fill="#000000" font-family="sans-serif" font-size="14" font-style="italic"
            lengthAdjust="spacing" textLength="222" x="2200" y="1062.8467">
        ReservationRepositoryUseCase
      </text>
      <line style="stroke:#181818;stroke-width:0.5;" x1="2172" x2="2424" y1="1074" y2="1074"/>
      <line style="stroke:#181818;stroke-width:0.5;" x1="2172" x2="2424" y1="1082" y2="1082"/>
    </g><!--class ResetUseCase-->
    <g id="elem_ResetUseCase">
      <rect codeLine="91" fill="#F1F1F1" height="64.2969" id="ResetUseCase" rx="2.5" ry="2.5"
            style="stroke:#181818;stroke-width:0.5;" width="148" x="671" y="108.5"/>
      <ellipse cx="692.75" cy="124.5" fill="#ADD1B2" rx="11" ry="11"
               style="stroke:#181818;stroke-width:1.0;"/>
      <path
          d="M695.0938,120.1719 C694.1563,119.7344 693.5625,119.5938 692.6875,119.5938 C690.0625,119.5938 688.0625,121.6719 688.0625,124.3906 L688.0625,125.5156 C688.0625,128.0938 690.1719,129.9844 693.0625,129.9844 C694.2813,129.9844 695.4375,129.6875 696.1875,129.1406 C696.7656,128.7344 697.0938,128.2813 697.0938,127.8906 C697.0938,127.4375 696.7031,127.0469 696.2344,127.0469 C696.0156,127.0469 695.8125,127.125 695.625,127.3125 C695.1719,127.7969 695.1719,127.7969 694.9844,127.8906 C694.5625,128.1563 693.875,128.2813 693.1094,128.2813 C691.0625,128.2813 689.7656,127.1875 689.7656,125.4844 L689.7656,124.3906 C689.7656,122.6094 691.0156,121.2969 692.75,121.2969 C693.3281,121.2969 693.9375,121.4531 694.4063,121.7031 C694.8906,121.9844 695.0625,122.2031 695.1563,122.6094 C695.2188,123.0156 695.25,123.1406 695.3906,123.2656 C695.5313,123.4063 695.7656,123.5156 695.9844,123.5156 C696.25,123.5156 696.5156,123.375 696.6875,123.1563 C696.7969,123 696.8281,122.8125 696.8281,122.3906 L696.8281,120.9688 C696.8281,120.5313 696.8125,120.4063 696.7188,120.25 C696.5625,119.9844 696.2813,119.8438 695.9844,119.8438 C695.6875,119.8438 695.4844,119.9375 695.2656,120.25 L695.0938,120.1719 Z "
          fill="#000000"/>
      <text fill="#000000" font-family="sans-serif" font-size="14" lengthAdjust="spacing"
            textLength="101" x="708.25" y="129.3467">ResetUseCase
      </text>
      <line style="stroke:#181818;stroke-width:0.5;" x1="672" x2="818" y1="140.5" y2="140.5"/>
      <line style="stroke:#181818;stroke-width:0.5;" x1="672" x2="818" y1="148.5" y2="148.5"/>
      <ellipse cx="682" cy="162.1484" fill="#84BE84" rx="3" ry="3"
               style="stroke:#038048;stroke-width:1.0;"/>
      <text fill="#000000" font-family="sans-serif" font-size="14" lengthAdjust="spacing"
            textLength="122" x="691" y="165.4951">void action(UUID)
      </text>
    </g><!--class SubmitUseCase-->
    <g id="elem_SubmitUseCase">
      <rect codeLine="94" fill="#F1F1F1" height="113.1875" id="SubmitUseCase" rx="2.5" ry="2.5"
            style="stroke:#181818;stroke-width:0.5;" width="422" x="95" y="84"/>
      <ellipse cx="246.25" cy="100" fill="#ADD1B2" rx="11" ry="11"
               style="stroke:#181818;stroke-width:1.0;"/>
      <path
          d="M248.5938,95.6719 C247.6563,95.2344 247.0625,95.0938 246.1875,95.0938 C243.5625,95.0938 241.5625,97.1719 241.5625,99.8906 L241.5625,101.0156 C241.5625,103.5938 243.6719,105.4844 246.5625,105.4844 C247.7813,105.4844 248.9375,105.1875 249.6875,104.6406 C250.2656,104.2344 250.5938,103.7813 250.5938,103.3906 C250.5938,102.9375 250.2031,102.5469 249.7344,102.5469 C249.5156,102.5469 249.3125,102.625 249.125,102.8125 C248.6719,103.2969 248.6719,103.2969 248.4844,103.3906 C248.0625,103.6563 247.375,103.7813 246.6094,103.7813 C244.5625,103.7813 243.2656,102.6875 243.2656,100.9844 L243.2656,99.8906 C243.2656,98.1094 244.5156,96.7969 246.25,96.7969 C246.8281,96.7969 247.4375,96.9531 247.9063,97.2031 C248.3906,97.4844 248.5625,97.7031 248.6563,98.1094 C248.7188,98.5156 248.75,98.6406 248.8906,98.7656 C249.0313,98.9063 249.2656,99.0156 249.4844,99.0156 C249.75,99.0156 250.0156,98.875 250.1875,98.6563 C250.2969,98.5 250.3281,98.3125 250.3281,97.8906 L250.3281,96.4688 C250.3281,96.0313 250.3125,95.9063 250.2188,95.75 C250.0625,95.4844 249.7813,95.3438 249.4844,95.3438 C249.1875,95.3438 248.9844,95.4375 248.7656,95.75 L248.5938,95.6719 Z "
          fill="#000000"/>
      <text fill="#000000" font-family="sans-serif" font-size="14" lengthAdjust="spacing"
            textLength="111" x="266.75" y="104.8467">SubmitUseCase
      </text>
      <line style="stroke:#181818;stroke-width:0.5;" x1="96" x2="516" y1="116" y2="116"/>
      <ellipse cx="106" cy="129.6484" fill="none" rx="3" ry="3"
               style="stroke:#038048;stroke-width:1.0;"/>
      <text fill="#000000" font-family="sans-serif" font-size="14" lengthAdjust="spacing"
            textLength="331" x="115" y="132.9951">SubmitReservationService submitReservation
      </text>
      <line style="stroke:#181818;stroke-width:0.5;" x1="96" x2="516" y1="140.2969" y2="140.2969"/>
      <ellipse cx="106" cy="153.9453" fill="#84BE84" rx="3" ry="3"
               style="stroke:#038048;stroke-width:1.0;"/>
      <text fill="#000000" font-family="sans-serif" font-size="14" lengthAdjust="spacing"
            textLength="368" x="115" y="157.292">SubmitReservationService getSubmitReservation()
      </text>
      <ellipse cx="106" cy="170.2422" fill="#84BE84" rx="3" ry="3"
               style="stroke:#038048;stroke-width:1.0;"/>
      <text fill="#000000" font-family="sans-serif" font-size="14" lengthAdjust="spacing"
            textLength="396" x="115" y="173.5889">void
        setSubmitReservation(SubmitReservationService)
      </text>
      <ellipse cx="106" cy="186.5391" fill="#84BE84" rx="3" ry="3"
               style="stroke:#038048;stroke-width:1.0;"/>
      <text fill="#000000" font-family="sans-serif" font-size="14" lengthAdjust="spacing"
            textLength="122" x="115" y="189.8857">void action(UUID)
      </text>
    </g><!--link ConfirmUseCase to ConfirmReservationService-->
    <g id="link_ConfirmUseCase_ConfirmReservationService">
      <path codeLine="101" d="M1103,172.62 C1103,216.63 1103,289.22 1103,333.28 " fill="none"
            id="ConfirmUseCase-to-ConfirmReservationService"
            style="stroke:#181818;stroke-width:1.0;"/>
      <polygon fill="#181818" points="1103,339.28,1107,330.28,1103,334.28,1099,330.28,1103,339.28"
               style="stroke:#181818;stroke-width:1.0;"/>
    </g><!--link ConfirmReservationService to ConfirmReservationComponent-->
    <g id="link_ConfirmReservationService_ConfirmReservationComponent">
      <path codeLine="102" d="M1103,403.63 C1103,434.61 1103,475.23 1103,506.24 " fill="none"
            id="ConfirmReservationService-to-ConfirmReservationComponent"
            style="stroke:#181818;stroke-width:1.0;"/>
      <polygon fill="#181818" points="1103,512.24,1107,503.24,1103,507.24,1099,503.24,1103,512.24"
               style="stroke:#181818;stroke-width:1.0;"/>
    </g><!--link ConfirmReservationComponent to ReservationRepository-->
    <g id="link_ConfirmReservationComponent_ReservationRepository">
      <path codeLine="103"
            d="M1041.5,576.7 C1041.5,646.4 1041.5,805 1041.5,805 C1041.5,805 775.401,805 605.073,805 "
            fill="none" id="ConfirmReservationComponent-to-ReservationRepository"
            style="stroke:#181818;stroke-width:1.0;"/>
      <polygon fill="#181818" points="599.073,805,608.073,809,604.073,805,608.073,801,599.073,805"
               style="stroke:#181818;stroke-width:1.0;"/>
    </g><!--link Reservation to Trip-->
    <g id="link_Reservation_Trip">
      <path codeLine="104"
            d="M284,867.225 C284,921.285 284,1010 284,1010 C284,1010 523.253,1010 672.943,1010 "
            fill="none" id="Reservation-to-Trip" style="stroke:#181818;stroke-width:1.0;"/>
      <polygon fill="#181818"
               points="678.943,1010,669.943,1006,673.943,1010,669.943,1014,678.943,1010"
               style="stroke:#181818;stroke-width:1.0;"/>
    </g><!--link Reservation to ReservationId-->
    <g id="link_Reservation_ReservationId">
      <path codeLine="105" d="M207,867.128 C207,914.105 207,984.487 207,1027.638 " fill="none"
            id="Reservation-to-ReservationId" style="stroke:#181818;stroke-width:1.0;"/>
      <polygon fill="#181818"
               points="207,1033.638,211,1024.638,207,1028.638,203,1024.638,207,1033.638"
               style="stroke:#181818;stroke-width:1.0;"/>
    </g><!--link Trip to TripId-->
    <g id="link_Trip_TripId">
      <path codeLine="106" d="M792,1147.044 C792,1198.651 792,1256.668 792,1294.4 " fill="none"
            id="Trip-to-TripId" style="stroke:#181818;stroke-width:1.0;"/>
      <polygon fill="#181818" points="792,1300.4,796,1291.4,792,1295.4,788,1291.4,792,1300.4"
               style="stroke:#181818;stroke-width:1.0;"/>
    </g><!--link Trip to Station-->
    <g id="link_Trip_Station">
      <path codeLine="107"
            d="M866.667,1147.117 C866.667,1213.677 866.667,1297 866.667,1297 C866.667,1297 909.517,1297 954.742,1297 "
            fill="none" id="Trip-to-Station" style="stroke:#181818;stroke-width:1.0;"/>
      <polygon fill="#181818"
               points="960.742,1297,951.742,1293,955.742,1297,951.742,1301,960.742,1297"
               style="stroke:#181818;stroke-width:1.0;"/>
    </g><!--link Trip to Seat-->
    <g id="link_Trip_Seat">
      <path codeLine="108"
            d="M905.251,1128 C1076.86,1128 1383,1128 1383,1128 C1383,1128 1383,1225.93 1383,1285.608 "
            fill="none" id="Trip-to-Seat" style="stroke:#181818;stroke-width:1.0;"/>
      <polygon fill="#181818"
               points="1383,1291.608,1387,1282.608,1383,1286.608,1379,1282.608,1383,1291.608"
               style="stroke:#181818;stroke-width:1.0;"/>
    </g><!--link Trip to Train-->
    <g id="link_Trip_Train">
      <path codeLine="109"
            d="M905.18,1109 C1190.39,1109 1916,1109 1916,1109 C1916,1109 1916,1221.301 1916,1285.767 "
            fill="none" id="Trip-to-Train" style="stroke:#181818;stroke-width:1.0;"/>
      <polygon fill="#181818"
               points="1916,1291.767,1920,1282.767,1916,1286.767,1912,1282.767,1916,1291.767"
               style="stroke:#181818;stroke-width:1.0;"/>
    </g><!--link Trip to Wagon-->
    <g id="link_Trip_Wagon">
      <path codeLine="110"
            d="M885.833,1147.089 C885.833,1210.507 885.833,1288 885.833,1288 C885.833,1288 1375.85,1288 1576.88,1288 "
            fill="none" id="Trip-to-Wagon" style="stroke:#181818;stroke-width:1.0;"/>
      <polygon fill="#181818"
               points="1582.88,1288,1573.88,1284,1577.88,1288,1573.88,1292,1582.88,1288"
               style="stroke:#181818;stroke-width:1.0;"/>
    </g><!--link Station to StationId-->
    <g id="link_Station_StationId">
      <path codeLine="111" d="M1036,1373.138 C1036,1394.696 1036,1414.808 1036,1434.923 "
            fill="none" id="Station-to-StationId" style="stroke:#181818;stroke-width:1.0;"/>
      <polygon fill="#181818"
               points="1036,1440.923,1040,1431.923,1036,1435.923,1032,1431.923,1036,1440.923"
               style="stroke:#181818;stroke-width:1.0;"/>
    </g><!--link Train to TrainId-->
    <g id="link_Train_TrainId">
      <path codeLine="112" d="M1916,1373.138 C1916,1394.696 1916,1414.808 1916,1434.923 "
            fill="none" id="Train-to-TrainId" style="stroke:#181818;stroke-width:1.0;"/>
      <polygon fill="#181818"
               points="1916,1440.923,1920,1431.923,1916,1435.923,1912,1431.923,1916,1440.923"
               style="stroke:#181818;stroke-width:1.0;"/>
    </g><!--link Wagon to WagonId-->
    <g id="link_Wagon_WagonId">
      <path codeLine="113" d="M1666,1381.246 C1666,1400.902 1666,1417.043 1666,1434.651 "
            fill="none" id="Wagon-to-WagonId" style="stroke:#181818;stroke-width:1.0;"/>
      <polygon fill="#181818"
               points="1666,1440.651,1670,1431.651,1666,1435.651,1662,1431.651,1666,1440.651"
               style="stroke:#181818;stroke-width:1.0;"/>
    </g><!--link Seat to SeatId-->
    <g id="link_Seat_SeatId">
      <path codeLine="114" d="M1383,1373.138 C1383,1394.696 1383,1414.808 1383,1434.923 "
            fill="none" id="Seat-to-SeatId" style="stroke:#181818;stroke-width:1.0;"/>
      <polygon fill="#181818"
               points="1383,1440.923,1387,1431.923,1383,1435.923,1379,1431.923,1383,1440.923"
               style="stroke:#181818;stroke-width:1.0;"/>
    </g><!--link ResetReservationService to ResetReservationComponent-->
    <g id="link_ResetReservationService_ResetReservationComponent">
      <path codeLine="115" d="M745,403.63 C745,434.61 745,475.23 745,506.24 " fill="none"
            id="ResetReservationService-to-ResetReservationComponent"
            style="stroke:#181818;stroke-width:1.0;"/>
      <polygon fill="#181818" points="745,512.24,749,503.24,745,507.24,741,503.24,745,512.24"
               style="stroke:#181818;stroke-width:1.0;"/>
    </g><!--link ResetReservationComponent to ReservationRepository-->
    <g id="link_ResetReservationComponent_ReservationRepository">
      <path codeLine="116"
            d="M621.828,545 C590.866,545 566.25,545 566.25,545 C566.25,545 566.25,672.81 566.25,755.918 "
            fill="none" id="ResetReservationComponent-to-ReservationRepository"
            style="stroke:#181818;stroke-width:1.0;"/>
      <polygon fill="#181818"
               points="566.25,761.918,570.25,752.918,566.25,756.918,562.25,752.918,566.25,761.918"
               style="stroke:#181818;stroke-width:1.0;"/>
    </g><!--link SubmitReservationService to SubmitReservationComponent-->
    <g id="link_SubmitReservationService_SubmitReservationComponent">
      <path codeLine="117" d="M306,428.15 C306,447.26 306,462.6 306,481.73 " fill="none"
            id="SubmitReservationService-to-SubmitReservationComponent"
            style="stroke:#181818;stroke-width:1.0;"/>
      <polygon fill="#181818" points="306,487.73,310,478.73,306,482.73,302,478.73,306,487.73"
               style="stroke:#181818;stroke-width:1.0;"/>
    </g><!--link SubmitReservationComponent to ReservationRepository-->
    <g id="link_SubmitReservationComponent_ReservationRepository">
      <path codeLine="118" d="M424.25,601.23 C424.25,647.71 424.25,707.491 424.25,755.975 "
            fill="none" id="SubmitReservationComponent-to-ReservationRepository"
            style="stroke:#181818;stroke-width:1.0;"/>
      <polygon fill="#181818"
               points="424.25,761.975,428.25,752.975,424.25,756.975,420.25,752.975,424.25,761.975"
               style="stroke:#181818;stroke-width:1.0;"/>
    </g><!--reverse link ReservationRepository to ReservationRepositoryUseCase-->
    <g id="link_ReservationRepository_ReservationRepositoryUseCase">
      <path codeLine="119"
            d="M617.042,848 C1039.6,848 2298,848 2298,848 C2298,848 2298,985.078 2298,1041.837 "
            fill="none" id="ReservationRepository-backto-ReservationRepositoryUseCase"
            style="stroke:#181818;stroke-width:1.0;stroke-dasharray:7.0,7.0;"/>
      <polygon fill="none" points="599.042,848,617.042,854,617.042,842,599.042,848"
               style="stroke:#181818;stroke-width:1.0;"/>
    </g><!--link ResetUseCase to ResetReservationService-->
    <g id="link_ResetUseCase_ResetReservationService">
      <path codeLine="120" d="M745,172.62 C745,216.63 745,289.22 745,333.28 " fill="none"
            id="ResetUseCase-to-ResetReservationService" style="stroke:#181818;stroke-width:1.0;"/>
      <polygon fill="#181818" points="745,339.28,749,330.28,745,334.28,741,330.28,745,339.28"
               style="stroke:#181818;stroke-width:1.0;"/>
    </g><!--link SubmitUseCase to SubmitReservationService-->
    <g id="link_SubmitUseCase_SubmitReservationService">
      <path codeLine="121" d="M306,197.01 C306,232.81 306,272.94 306,308.77 " fill="none"
            id="SubmitUseCase-to-SubmitReservationService"
            style="stroke:#181818;stroke-width:1.0;"/>
      <polygon fill="#181818" points="306,314.77,310,305.77,306,309.77,302,305.77,306,314.77"
               style="stroke:#181818;stroke-width:1.0;"/>
    </g><!--SRC=[vLZBRjim4BppAzYSR1JH5nGvDBaO2DeYQT1ZG4jhXOX52YJbr53pxoNri2LP3xhL2yx9DhaYPsQNQt4-XOBu0S6HX1LJ80BmA57mWxYln0U9DsGh0SbNoa8YI82tb87QXu2vK2ySoHV-XgL-3hWPHSZT4YdnrIrd6og29mctHC8L9X9xu7XhPmVCuquek4eUSDQH-n8ntn4WGUo8efmv7js1a0xnIAZC5utjsTNBICTDbtNMF68U4Nkdl0-E4SQVTvnwcBXcgSNJq-fkYTuhi1wEcptgBzJj3o4mHHLjWNgwTm6rcO958MJbjQA_vK78cTvp1FnwG0c-TLfG59Z0Rt0ZLSE5cYhR44txgZ3t026NL76nxvz9CVo4JIs6b0UEoLegeIlflH25DvHvN_TLOkNuD9cadClwe6WTK6MnMfOFYqZ3LpKMKM5yPAcJg7rHyLJd4bBiWrfvYuJOJq53yzjyBkefhBp9IMZC2GtJQWxe3rWDzc4XAhr38yv4mZWNiopleqgJe8U-2-fJTZ9y1r9HblnCv-wfL5-oW1iJaNsNUS88PMd6o64v82g9r9_fo2_YfyidNwfY3PtHJhdQyvaH7W6ZLEqbcESfBYIjcc11cMz6lf40QbYCehKbZwvZf0jg1B3AxDDI7gQ-uqEfsygT1Sy3VxlGoPaS3UYRsQqHRjeeuaFFw92xF1O5Qn0dp4PCWWMtZbQZE-R8QANUilcWcauUvptTkjKaiNFZqQwy-NTNOrmIabUr8z26VQql2DNd1xmUL90NNwVLlruDyef9Ned7a3zz-JwoQDevg_hgx96Sh4xf-EVdZeVCIr5rDZrDMQfhffkNMrhMIFCAm-kRLqcBADKRGU5I9kf63qBNF-ENgl4uKTQvFgHsTFd_Dzo-JP5G_zJlvS1SABUIffsroEMMqJUYkhPcQz6ajT4telgJNiBKUFZFEDpv8xqSxMonPPDWOnXgrzStKzbYQ2exRdZE5bOQcjxCwrs7yuquDAaxDQW0dJx41NEtSjNGX8xPj9c_TEwMZj1bYt3MTVKZID5gMdsSMcWrZD0yBEVPj8Z1EwMD7poB0pAI4ZQ6xOpEowYgT9kdC_jN6K8T2pTp41NEyIBHj4xenTshh6tKtfcVRp2YgGtEIyd- -QwZ4pb_BeDxcxyvT7ThwAfeU9TqyDFRr3V-0W00]-->
  </g>
</svg>