<?xml version="1.0" encoding="us-ascii" standalone="no"?>
<svg xmlns="http://www.w3.org/2000/svg" xmlns:xlink="http://www.w3.org/1999/xlink"
     contentStyleType="text/css" height="1704px" preserveAspectRatio="none"
     style="width:2568px;height:1704px;background:#FFFFFF;" version="1.1" viewBox="0 0 2568 1704"
     width="2568px" zoomAndPan="magnify">
  <defs/>
  <g><!--cluster use_cases-->
    <g id="cluster_use_cases">
      <path
        d="M8.5,6 L582.5,6 A3.75,3.75 0 0 1 585,8.5 L592,28.2969 L2558.5,28.2969 A2.5,2.5 0 0 1 2561,30.7969 L2561,1694.5 A2.5,2.5 0 0 1 2558.5,1697 L8.5,1697 A2.5,2.5 0 0 1 6,1694.5 L6,8.5 A2.5,2.5 0 0 1 8.5,6 "
        fill="none" style="stroke:#000000;stroke-width:1.5;"/>
      <line style="stroke:#000000;stroke-width:1.5;" x1="6" x2="592" y1="28.2969" y2="28.2969"/>
      <text fill="#000000" font-family="sans-serif" font-size="14" font-weight="bold"
            lengthAdjust="spacing" textLength="573" x="10" y="20.9951">
        de.db.vendo.prototype.buchung.reservation.divers.adapters.use_cases
      </text>
    </g><!--cluster boundary-->
    <g id="cluster_boundary">
      <path
        d="M953.5,49 L1098.5,49 A3.75,3.75 0 0 1 1101,51.5 L1108,71.2969 L1414.5,71.2969 A2.5,2.5 0 0 1 1417,73.7969 L1417,210.5 A2.5,2.5 0 0 1 1414.5,213 L953.5,213 A2.5,2.5 0 0 1 951,210.5 L951,51.5 A2.5,2.5 0 0 1 953.5,49 "
        fill="none" style="stroke:#000000;stroke-width:1.5;"/>
      <line style="stroke:#000000;stroke-width:1.5;" x1="951" x2="1108" y1="71.2969" y2="71.2969"/>
      <text fill="#000000" font-family="sans-serif" font-size="14" font-weight="bold"
            lengthAdjust="spacing" textLength="144" x="955" y="63.9951">confirm.boundary
      </text>
    </g><!--cluster entities-->
    <g id="cluster_entities">
      <path
        d="M32.5,237 L96.5,237 A3.75,3.75 0 0 1 99,239.5 L106,259.2969 L2128.5,259.2969 A2.5,2.5 0 0 1 2131,261.7969 L2131,1670.5 A2.5,2.5 0 0 1 2128.5,1673 L32.5,1673 A2.5,2.5 0 0 1 30,1670.5 L30,239.5 A2.5,2.5 0 0 1 32.5,237 "
        fill="none" style="stroke:#000000;stroke-width:1.5;"/>
      <line style="stroke:#000000;stroke-width:1.5;" x1="30" x2="106" y1="259.2969" y2="259.2969"/>
      <text fill="#000000" font-family="sans-serif" font-size="14" font-weight="bold"
            lengthAdjust="spacing" textLength="63" x="34" y="251.9951">entities
      </text>
    </g><!--cluster boundary-->
    <g id="cluster_boundary">
      <path
        d="M934.5,280 L1079.5,280 A3.75,3.75 0 0 1 1082,282.5 L1089,302.2969 L1433.5,302.2969 A2.5,2.5 0 0 1 1436,304.7969 L1436,638.5 A2.5,2.5 0 0 1 1433.5,641 L934.5,641 A2.5,2.5 0 0 1 932,638.5 L932,282.5 A2.5,2.5 0 0 1 934.5,280 "
        fill="none" style="stroke:#000000;stroke-width:1.5;"/>
      <line style="stroke:#000000;stroke-width:1.5;" x1="932" x2="1089" y1="302.2969"
            y2="302.2969"/>
      <text fill="#000000" font-family="sans-serif" font-size="14" font-weight="bold"
            lengthAdjust="spacing" textLength="144" x="936" y="294.9951">confirm.boundary
      </text>
    </g><!--cluster control-->
    <g id="cluster_control">
      <path
        d="M958.5,453 L1018.5,453 A3.75,3.75 0 0 1 1021,455.5 L1028,475.2969 L1409.5,475.2969 A2.5,2.5 0 0 1 1412,477.7969 L1412,614.5 A2.5,2.5 0 0 1 1409.5,617 L958.5,617 A2.5,2.5 0 0 1 956,614.5 L956,455.5 A2.5,2.5 0 0 1 958.5,453 "
        fill="none" style="stroke:#000000;stroke-width:1.5;"/>
      <line style="stroke:#000000;stroke-width:1.5;" x1="956" x2="1028" y1="475.2969"
            y2="475.2969"/>
      <text fill="#000000" font-family="sans-serif" font-size="14" font-weight="bold"
            lengthAdjust="spacing" textLength="59" x="960" y="467.9951">control
      </text>
    </g><!--cluster reservation-->
    <g id="cluster_reservation">
      <path
        d="M56.5,665 L150.5,665 A3.75,3.75 0 0 1 153,667.5 L160,687.2969 L2104.5,687.2969 A2.5,2.5 0 0 1 2107,689.7969 L2107,1646.5 A2.5,2.5 0 0 1 2104.5,1649 L56.5,1649 A2.5,2.5 0 0 1 54,1646.5 L54,667.5 A2.5,2.5 0 0 1 56.5,665 "
        fill="none" style="stroke:#000000;stroke-width:1.5;"/>
      <line style="stroke:#000000;stroke-width:1.5;" x1="54" x2="160" y1="687.2969" y2="687.2969"/>
      <text fill="#000000" font-family="sans-serif" font-size="14" font-weight="bold"
            lengthAdjust="spacing" textLength="93" x="58" y="679.9951">reservation
      </text>
    </g><!--cluster control-->
    <g id="cluster_control">
      <path
        d="M80.5,708 L221.5,708 A3.75,3.75 0 0 1 224,710.5 L231,730.2969 L612.5,730.2969 A2.5,2.5 0 0 1 615,732.7969 L615,1167.5 A2.5,2.5 0 0 1 612.5,1170 L80.5,1170 A2.5,2.5 0 0 1 78,1167.5 L78,710.5 A2.5,2.5 0 0 1 80.5,708 "
        fill="none" style="stroke:#000000;stroke-width:1.5;"/>
      <line style="stroke:#000000;stroke-width:1.5;" x1="78" x2="231" y1="730.2969" y2="730.2969"/>
      <text fill="#000000" font-family="sans-serif" font-size="14" font-weight="bold"
            lengthAdjust="spacing" textLength="140" x="82" y="722.9951">boundary.control
      </text>
    </g><!--cluster entity-->
    <g id="cluster_entity">
      <path
        d="M104.5,751 L154.5,751 A3.75,3.75 0 0 1 157,753.5 L164,773.2969 L309.5,773.2969 A2.5,2.5 0 0 1 312,775.7969 L312,1143.5 A2.5,2.5 0 0 1 309.5,1146 L104.5,1146 A2.5,2.5 0 0 1 102,1143.5 L102,753.5 A2.5,2.5 0 0 1 104.5,751 "
        fill="none" style="stroke:#000000;stroke-width:1.5;"/>
      <line style="stroke:#000000;stroke-width:1.5;" x1="102" x2="164" y1="773.2969" y2="773.2969"/>
      <text fill="#000000" font-family="sans-serif" font-size="14" font-weight="bold"
            lengthAdjust="spacing" textLength="49" x="106" y="765.9951">entity
      </text>
    </g><!--cluster trip-->
    <g id="cluster_trip">
      <path
        d="M641.5,939 L672.5,939 A3.75,3.75 0 0 1 675,941.5 L682,961.2969 L2080.5,961.2969 A2.5,2.5 0 0 1 2083,963.7969 L2083,1622.5 A2.5,2.5 0 0 1 2080.5,1625 L641.5,1625 A2.5,2.5 0 0 1 639,1622.5 L639,941.5 A2.5,2.5 0 0 1 641.5,939 "
        fill="none" style="stroke:#000000;stroke-width:1.5;"/>
      <line style="stroke:#000000;stroke-width:1.5;" x1="639" x2="682" y1="961.2969" y2="961.2969"/>
      <text fill="#000000" font-family="sans-serif" font-size="14" font-weight="bold"
            lengthAdjust="spacing" textLength="30" x="643" y="953.9951">trip
      </text>
    </g><!--cluster entity-->
    <g id="cluster_entity">
      <path
        d="M665.5,982 L860.5,982 A3.75,3.75 0 0 1 863,984.5 L870,1004.2969 L918.5,1004.2969 A2.5,2.5 0 0 1 921,1006.7969 L921,1410 A2.5,2.5 0 0 1 918.5,1412.5 L665.5,1412.5 A2.5,2.5 0 0 1 663,1410 L663,984.5 A2.5,2.5 0 0 1 665.5,982 "
        fill="none" style="stroke:#000000;stroke-width:1.5;"/>
      <line style="stroke:#000000;stroke-width:1.5;" x1="663" x2="870" y1="1004.2969"
            y2="1004.2969"/>
      <text fill="#000000" font-family="sans-serif" font-size="14" font-weight="bold"
            lengthAdjust="spacing" textLength="194" x="667" y="996.9951">boundary.control.entity
      </text>
    </g><!--cluster entity-->
    <g id="cluster_entity">
      <path
        d="M947.5,1289 L1207.5,1289 A3.75,3.75 0 0 1 1210,1291.5 L1217,1311.2969 L1217.5,1311.2969 A2.5,2.5 0 0 1 1220,1313.7969 L1220,1550.5 A2.5,2.5 0 0 1 1217.5,1553 L947.5,1553 A2.5,2.5 0 0 1 945,1550.5 L945,1291.5 A2.5,2.5 0 0 1 947.5,1289 "
        fill="none" style="stroke:#000000;stroke-width:1.5;"/>
      <line style="stroke:#000000;stroke-width:1.5;" x1="945" x2="1217" y1="1311.2969"
            y2="1311.2969"/>
      <text fill="#000000" font-family="sans-serif" font-size="14" font-weight="bold"
            lengthAdjust="spacing" textLength="259" x="949" y="1303.9951">
        station.boundary.control.entity
      </text>
    </g><!--cluster train-->
    <g id="cluster_train">
      <path
        d="M1246.5,1195 L1287.5,1195 A3.75,3.75 0 0 1 1290,1197.5 L1297,1217.2969 L2056.5,1217.2969 A2.5,2.5 0 0 1 2059,1219.7969 L2059,1598.5 A2.5,2.5 0 0 1 2056.5,1601 L1246.5,1601 A2.5,2.5 0 0 1 1244,1598.5 L1244,1197.5 A2.5,2.5 0 0 1 1246.5,1195 "
        fill="none" style="stroke:#000000;stroke-width:1.5;"/>
      <line style="stroke:#000000;stroke-width:1.5;" x1="1244" x2="1297" y1="1217.2969"
            y2="1217.2969"/>
      <text fill="#000000" font-family="sans-serif" font-size="14" font-weight="bold"
            lengthAdjust="spacing" textLength="40" x="1248" y="1209.9951">train
      </text>
    </g><!--cluster entity-->
    <g id="cluster_entity">
      <path
        d="M1827.5,1289 L2022.5,1289 A3.75,3.75 0 0 1 2025,1291.5 L2032,1311.2969 L2032.5,1311.2969 A2.5,2.5 0 0 1 2035,1313.7969 L2035,1550.5 A2.5,2.5 0 0 1 2032.5,1553 L1827.5,1553 A2.5,2.5 0 0 1 1825,1550.5 L1825,1291.5 A2.5,2.5 0 0 1 1827.5,1289 "
        fill="none" style="stroke:#000000;stroke-width:1.5;"/>
      <line style="stroke:#000000;stroke-width:1.5;" x1="1825" x2="2032" y1="1311.2969"
            y2="1311.2969"/>
      <text fill="#000000" font-family="sans-serif" font-size="14" font-weight="bold"
            lengthAdjust="spacing" textLength="194" x="1829" y="1303.9951">boundary.control.entity
      </text>
    </g><!--cluster wagon-->
    <g id="cluster_wagon">
      <path
        d="M1270.5,1238 L1324.5,1238 A3.75,3.75 0 0 1 1327,1240.5 L1334,1260.2969 L1798.5,1260.2969 A2.5,2.5 0 0 1 1801,1262.7969 L1801,1574.5 A2.5,2.5 0 0 1 1798.5,1577 L1270.5,1577 A2.5,2.5 0 0 1 1268,1574.5 L1268,1240.5 A2.5,2.5 0 0 1 1270.5,1238 "
        fill="none" style="stroke:#000000;stroke-width:1.5;"/>
      <line style="stroke:#000000;stroke-width:1.5;" x1="1268" x2="1334" y1="1260.2969"
            y2="1260.2969"/>
      <text fill="#000000" font-family="sans-serif" font-size="14" font-weight="bold"
            lengthAdjust="spacing" textLength="53" x="1272" y="1252.9951">wagon
      </text>
    </g><!--cluster entity-->
    <g id="cluster_entity">
      <path
        d="M1569.5,1281 L1764.5,1281 A3.75,3.75 0 0 1 1767,1283.5 L1774,1303.2969 L1774.5,1303.2969 A2.5,2.5 0 0 1 1777,1305.7969 L1777,1550.5 A2.5,2.5 0 0 1 1774.5,1553 L1569.5,1553 A2.5,2.5 0 0 1 1567,1550.5 L1567,1283.5 A2.5,2.5 0 0 1 1569.5,1281 "
        fill="none" style="stroke:#000000;stroke-width:1.5;"/>
      <line style="stroke:#000000;stroke-width:1.5;" x1="1567" x2="1774" y1="1303.2969"
            y2="1303.2969"/>
      <text fill="#000000" font-family="sans-serif" font-size="14" font-weight="bold"
            lengthAdjust="spacing" textLength="194" x="1571" y="1295.9951">boundary.control.entity
      </text>
    </g><!--cluster entity-->
    <g id="cluster_entity">
      <path
        d="M1294.5,1289 L1530.5,1289 A3.75,3.75 0 0 1 1533,1291.5 L1540,1311.2969 L1540.5,1311.2969 A2.5,2.5 0 0 1 1543,1313.7969 L1543,1550.5 A2.5,2.5 0 0 1 1540.5,1553 L1294.5,1553 A2.5,2.5 0 0 1 1292,1550.5 L1292,1291.5 A2.5,2.5 0 0 1 1294.5,1289 "
        fill="none" style="stroke:#000000;stroke-width:1.5;"/>
      <line style="stroke:#000000;stroke-width:1.5;" x1="1292" x2="1540" y1="1311.2969"
            y2="1311.2969"/>
      <text fill="#000000" font-family="sans-serif" font-size="14" font-weight="bold"
            lengthAdjust="spacing" textLength="235" x="1296" y="1303.9951">
        seat.boundary.control.entity
      </text>
    </g><!--cluster boundary-->
    <g id="cluster_boundary">
      <path
        d="M584.5,304.5 L708.5,304.5 A3.75,3.75 0 0 1 711,307 L718,326.7969 L905.5,326.7969 A2.5,2.5 0 0 1 908,329.2969 L908,614 A2.5,2.5 0 0 1 905.5,616.5 L584.5,616.5 A2.5,2.5 0 0 1 582,614 L582,307 A2.5,2.5 0 0 1 584.5,304.5 "
        fill="none" style="stroke:#000000;stroke-width:1.5;"/>
      <line style="stroke:#000000;stroke-width:1.5;" x1="582" x2="718" y1="326.7969" y2="326.7969"/>
      <text fill="#000000" font-family="sans-serif" font-size="14" font-weight="bold"
            lengthAdjust="spacing" textLength="123" x="586" y="319.4951">reset.boundary
      </text>
    </g><!--cluster control-->
    <g id="cluster_control">
      <path
        d="M608.5,477.5 L668.5,477.5 A3.75,3.75 0 0 1 671,480 L678,499.7969 L881.5,499.7969 A2.5,2.5 0 0 1 884,502.2969 L884,590 A2.5,2.5 0 0 1 881.5,592.5 L608.5,592.5 A2.5,2.5 0 0 1 606,590 L606,480 A2.5,2.5 0 0 1 608.5,477.5 "
        fill="none" style="stroke:#000000;stroke-width:1.5;"/>
      <line style="stroke:#000000;stroke-width:1.5;" x1="606" x2="678" y1="499.7969" y2="499.7969"/>
      <text fill="#000000" font-family="sans-serif" font-size="14" font-weight="bold"
            lengthAdjust="spacing" textLength="59" x="610" y="492.4951">control
      </text>
    </g><!--cluster boundary-->
    <g id="cluster_boundary">
      <path
        d="M56.5,280 L195.5,280 A3.75,3.75 0 0 1 198,282.5 L205,302.2969 L555.5,302.2969 A2.5,2.5 0 0 1 558,304.7969 L558,638.5 A2.5,2.5 0 0 1 555.5,641 L56.5,641 A2.5,2.5 0 0 1 54,638.5 L54,282.5 A2.5,2.5 0 0 1 56.5,280 "
        fill="none" style="stroke:#000000;stroke-width:1.5;"/>
      <line style="stroke:#000000;stroke-width:1.5;" x1="54" x2="205" y1="302.2969" y2="302.2969"/>
      <text fill="#000000" font-family="sans-serif" font-size="14" font-weight="bold"
            lengthAdjust="spacing" textLength="138" x="58" y="294.9951">submit.boundary
      </text>
    </g><!--cluster control-->
    <g id="cluster_control">
      <path
        d="M80.5,453 L140.5,453 A3.75,3.75 0 0 1 143,455.5 L150,475.2969 L531.5,475.2969 A2.5,2.5 0 0 1 534,477.7969 L534,614.5 A2.5,2.5 0 0 1 531.5,617 L80.5,617 A2.5,2.5 0 0 1 78,614.5 L78,455.5 A2.5,2.5 0 0 1 80.5,453 "
        fill="none" style="stroke:#000000;stroke-width:1.5;"/>
      <line style="stroke:#000000;stroke-width:1.5;" x1="78" x2="150" y1="475.2969" y2="475.2969"/>
      <text fill="#000000" font-family="sans-serif" font-size="14" font-weight="bold"
            lengthAdjust="spacing" textLength="59" x="82" y="467.9951">control
      </text>
    </g><!--cluster boundary-->
    <g id="cluster_boundary">
      <path
        d="M2157.5,692 L2333.5,692 A3.75,3.75 0 0 1 2336,694.5 L2343,714.2969 L2534.5,714.2969 A2.5,2.5 0 0 1 2537,716.7969 L2537,1135.5 A2.5,2.5 0 0 1 2534.5,1138 L2157.5,1138 A2.5,2.5 0 0 1 2155,1135.5 L2155,694.5 A2.5,2.5 0 0 1 2157.5,692 "
        fill="none" style="stroke:#000000;stroke-width:1.5;"/>
      <line style="stroke:#000000;stroke-width:1.5;" x1="2155" x2="2343" y1="714.2969"
            y2="714.2969"/>
      <text fill="#000000" font-family="sans-serif" font-size="14" font-weight="bold"
            lengthAdjust="spacing" textLength="175" x="2159" y="706.9951">persistence.boundary
      </text>
    </g><!--cluster bridge-->
    <g id="cluster_bridge">
      <path
        d="M2181.5,735 L2233.5,735 A3.75,3.75 0 0 1 2236,737.5 L2243,757.2969 L2510.5,757.2969 A2.5,2.5 0 0 1 2513,759.7969 L2513,912.5 A2.5,2.5 0 0 1 2510.5,915 L2181.5,915 A2.5,2.5 0 0 1 2179,912.5 L2179,737.5 A2.5,2.5 0 0 1 2181.5,735 "
        fill="none" style="stroke:#000000;stroke-width:1.5;"/>
      <line style="stroke:#000000;stroke-width:1.5;" x1="2179" x2="2243" y1="757.2969"
            y2="757.2969"/>
      <text fill="#000000" font-family="sans-serif" font-size="14" font-weight="bold"
            lengthAdjust="spacing" textLength="51" x="2183" y="749.9951">bridge
      </text>
    </g><!--cluster boundary-->
    <g id="cluster_boundary">
      <path
        d="M657.5,73.5 L781.5,73.5 A3.75,3.75 0 0 1 784,76 L791,95.7969 L832.5,95.7969 A2.5,2.5 0 0 1 835,98.2969 L835,186 A2.5,2.5 0 0 1 832.5,188.5 L657.5,188.5 A2.5,2.5 0 0 1 655,186 L655,76 A2.5,2.5 0 0 1 657.5,73.5 "
        fill="none" style="stroke:#000000;stroke-width:1.5;"/>
      <line style="stroke:#000000;stroke-width:1.5;" x1="655" x2="791" y1="95.7969" y2="95.7969"/>
      <text fill="#000000" font-family="sans-serif" font-size="14" font-weight="bold"
            lengthAdjust="spacing" textLength="123" x="659" y="88.4951">reset.boundary
      </text>
    </g><!--cluster boundary-->
    <g id="cluster_boundary">
      <path
        d="M81.5,49 L220.5,49 A3.75,3.75 0 0 1 223,51.5 L230,71.2969 L530.5,71.2969 A2.5,2.5 0 0 1 533,73.7969 L533,210.5 A2.5,2.5 0 0 1 530.5,213 L81.5,213 A2.5,2.5 0 0 1 79,210.5 L79,51.5 A2.5,2.5 0 0 1 81.5,49 "
        fill="none" style="stroke:#000000;stroke-width:1.5;"/>
      <line style="stroke:#000000;stroke-width:1.5;" x1="79" x2="230" y1="71.2969" y2="71.2969"/>
      <text fill="#000000" font-family="sans-serif" font-size="14" font-weight="bold"
            lengthAdjust="spacing" textLength="138" x="83" y="63.9951">submit.boundary
      </text>
    </g><!--class ConfirmUseCase-->
    <g id="elem_ConfirmUseCase">
      <rect codeLine="5" fill="#F1F1F1" height="113.1875" id="ConfirmUseCase" rx="2.5" ry="2.5"
            style="stroke:#181818;stroke-width:0.5;" width="434" x="967" y="84"/>
      <ellipse cx="1121.25" cy="100" fill="#ADD1B2" rx="11" ry="11"
               style="stroke:#181818;stroke-width:1.0;"/>
      <path
        d="M1123.5938,95.6719 C1122.6563,95.2344 1122.0625,95.0938 1121.1875,95.0938 C1118.5625,95.0938 1116.5625,97.1719 1116.5625,99.8906 L1116.5625,101.0156 C1116.5625,103.5938 1118.6719,105.4844 1121.5625,105.4844 C1122.7813,105.4844 1123.9375,105.1875 1124.6875,104.6406 C1125.2656,104.2344 1125.5938,103.7813 1125.5938,103.3906 C1125.5938,102.9375 1125.2031,102.5469 1124.7344,102.5469 C1124.5156,102.5469 1124.3125,102.625 1124.125,102.8125 C1123.6719,103.2969 1123.6719,103.2969 1123.4844,103.3906 C1123.0625,103.6563 1122.375,103.7813 1121.6094,103.7813 C1119.5625,103.7813 1118.2656,102.6875 1118.2656,100.9844 L1118.2656,99.8906 C1118.2656,98.1094 1119.5156,96.7969 1121.25,96.7969 C1121.8281,96.7969 1122.4375,96.9531 1122.9063,97.2031 C1123.3906,97.4844 1123.5625,97.7031 1123.6563,98.1094 C1123.7188,98.5156 1123.75,98.6406 1123.8906,98.7656 C1124.0313,98.9063 1124.2656,99.0156 1124.4844,99.0156 C1124.75,99.0156 1125.0156,98.875 1125.1875,98.6563 C1125.2969,98.5 1125.3281,98.3125 1125.3281,97.8906 L1125.3281,96.4688 C1125.3281,96.0313 1125.3125,95.9063 1125.2188,95.75 C1125.0625,95.4844 1124.7813,95.3438 1124.4844,95.3438 C1124.1875,95.3438 1123.9844,95.4375 1123.7656,95.75 L1123.5938,95.6719 Z "
        fill="#000000"/>
      <text fill="#000000" font-family="sans-serif" font-size="14" lengthAdjust="spacing"
            textLength="117" x="1141.75" y="104.8467">ConfirmUseCase
      </text>
      <line style="stroke:#181818;stroke-width:0.5;" x1="968" x2="1400" y1="116" y2="116"/>
      <ellipse cx="978" cy="129.6484" fill="none" rx="3" ry="3"
               style="stroke:#038048;stroke-width:1.0;"/>
      <text fill="#000000" font-family="sans-serif" font-size="14" lengthAdjust="spacing"
            textLength="343" x="987" y="132.9951">ConfirmReservationService confirmReservation
      </text>
      <line style="stroke:#181818;stroke-width:0.5;" x1="968" x2="1400" y1="140.2969"
            y2="140.2969"/>
      <ellipse cx="978" cy="153.9453" fill="#84BE84" rx="3" ry="3"
               style="stroke:#038048;stroke-width:1.0;"/>
      <text fill="#000000" font-family="sans-serif" font-size="14" lengthAdjust="spacing"
            textLength="380" x="987" y="157.292">ConfirmReservationService getConfirmReservation()
      </text>
      <ellipse cx="978" cy="170.2422" fill="#84BE84" rx="3" ry="3"
               style="stroke:#038048;stroke-width:1.0;"/>
      <text fill="#000000" font-family="sans-serif" font-size="14" lengthAdjust="spacing"
            textLength="408" x="987" y="173.5889">void
        setConfirmReservation(ConfirmReservationService)
      </text>
      <ellipse cx="978" cy="186.5391" fill="#84BE84" rx="3" ry="3"
               style="stroke:#038048;stroke-width:1.0;"/>
      <text fill="#000000" font-family="sans-serif" font-size="14" lengthAdjust="spacing"
            textLength="122" x="987" y="189.8857">void action(UUID)
      </text>
    </g><!--class ConfirmReservationService-->
    <g id="elem_ConfirmReservationService">
      <rect codeLine="12" fill="#F1F1F1" height="113.1875" id="ConfirmReservationService" rx="2.5"
            ry="2.5" style="stroke:#181818;stroke-width:0.5;" width="467" x="950.5" y="315"/>
      <ellipse cx="1081.25" cy="331" fill="#ADD1B2" rx="11" ry="11"
               style="stroke:#181818;stroke-width:1.0;"/>
      <path
        d="M1083.5938,326.6719 C1082.6563,326.2344 1082.0625,326.0938 1081.1875,326.0938 C1078.5625,326.0938 1076.5625,328.1719 1076.5625,330.8906 L1076.5625,332.0156 C1076.5625,334.5938 1078.6719,336.4844 1081.5625,336.4844 C1082.7813,336.4844 1083.9375,336.1875 1084.6875,335.6406 C1085.2656,335.2344 1085.5938,334.7813 1085.5938,334.3906 C1085.5938,333.9375 1085.2031,333.5469 1084.7344,333.5469 C1084.5156,333.5469 1084.3125,333.625 1084.125,333.8125 C1083.6719,334.2969 1083.6719,334.2969 1083.4844,334.3906 C1083.0625,334.6563 1082.375,334.7813 1081.6094,334.7813 C1079.5625,334.7813 1078.2656,333.6875 1078.2656,331.9844 L1078.2656,330.8906 C1078.2656,329.1094 1079.5156,327.7969 1081.25,327.7969 C1081.8281,327.7969 1082.4375,327.9531 1082.9063,328.2031 C1083.3906,328.4844 1083.5625,328.7031 1083.6563,329.1094 C1083.7188,329.5156 1083.75,329.6406 1083.8906,329.7656 C1084.0313,329.9063 1084.2656,330.0156 1084.4844,330.0156 C1084.75,330.0156 1085.0156,329.875 1085.1875,329.6563 C1085.2969,329.5 1085.3281,329.3125 1085.3281,328.8906 L1085.3281,327.4688 C1085.3281,327.0313 1085.3125,326.9063 1085.2188,326.75 C1085.0625,326.4844 1084.7813,326.3438 1084.4844,326.3438 C1084.1875,326.3438 1083.9844,326.4375 1083.7656,326.75 L1083.5938,326.6719 Z "
        fill="#000000"/>
      <text fill="#000000" font-family="sans-serif" font-size="14" lengthAdjust="spacing"
            textLength="197" x="1101.75" y="335.8467">ConfirmReservationService
      </text>
      <line style="stroke:#181818;stroke-width:0.5;" x1="951.5" x2="1416.5" y1="347" y2="347"/>
      <ellipse cx="961.5" cy="360.6484" fill="none" rx="3" ry="3"
               style="stroke:#038048;stroke-width:1.0;"/>
      <text fill="#000000" font-family="sans-serif" font-size="14" lengthAdjust="spacing"
            textLength="376" x="970.5" y="363.9951">ConfirmReservationComponent confirmReservation
      </text>
      <line style="stroke:#181818;stroke-width:0.5;" x1="951.5" x2="1416.5" y1="371.2969"
            y2="371.2969"/>
      <ellipse cx="961.5" cy="384.9453" fill="#84BE84" rx="3" ry="3"
               style="stroke:#038048;stroke-width:1.0;"/>
      <text fill="#000000" font-family="sans-serif" font-size="14" lengthAdjust="spacing"
            textLength="413" x="970.5" y="388.292">ConfirmReservationComponent
        getConfirmReservation()
      </text>
      <ellipse cx="961.5" cy="401.2422" fill="#84BE84" rx="3" ry="3"
               style="stroke:#038048;stroke-width:1.0;"/>
      <text fill="#000000" font-family="sans-serif" font-size="14" lengthAdjust="spacing"
            textLength="441" x="970.5" y="404.5889">void
        setConfirmReservation(ConfirmReservationComponent)
      </text>
      <ellipse cx="961.5" cy="417.5391" fill="#84BE84" rx="3" ry="3"
               style="stroke:#038048;stroke-width:1.0;"/>
      <text fill="#000000" font-family="sans-serif" font-size="14" lengthAdjust="spacing"
            textLength="182" x="970.5" y="420.8857">void serve(ReservationId)
      </text>
    </g><!--class ConfirmReservationComponent-->
    <g id="elem_ConfirmReservationComponent">
      <rect codeLine="19" fill="#F1F1F1" height="113.1875" id="ConfirmReservationComponent" rx="2.5"
            ry="2.5" style="stroke:#181818;stroke-width:0.5;" width="423" x="972.5" y="488"/>
      <ellipse cx="1064.75" cy="504" fill="#ADD1B2" rx="11" ry="11"
               style="stroke:#181818;stroke-width:1.0;"/>
      <path
        d="M1067.0938,499.6719 C1066.1563,499.2344 1065.5625,499.0938 1064.6875,499.0938 C1062.0625,499.0938 1060.0625,501.1719 1060.0625,503.8906 L1060.0625,505.0156 C1060.0625,507.5938 1062.1719,509.4844 1065.0625,509.4844 C1066.2813,509.4844 1067.4375,509.1875 1068.1875,508.6406 C1068.7656,508.2344 1069.0938,507.7813 1069.0938,507.3906 C1069.0938,506.9375 1068.7031,506.5469 1068.2344,506.5469 C1068.0156,506.5469 1067.8125,506.625 1067.625,506.8125 C1067.1719,507.2969 1067.1719,507.2969 1066.9844,507.3906 C1066.5625,507.6563 1065.875,507.7813 1065.1094,507.7813 C1063.0625,507.7813 1061.7656,506.6875 1061.7656,504.9844 L1061.7656,503.8906 C1061.7656,502.1094 1063.0156,500.7969 1064.75,500.7969 C1065.3281,500.7969 1065.9375,500.9531 1066.4063,501.2031 C1066.8906,501.4844 1067.0625,501.7031 1067.1563,502.1094 C1067.2188,502.5156 1067.25,502.6406 1067.3906,502.7656 C1067.5313,502.9063 1067.7656,503.0156 1067.9844,503.0156 C1068.25,503.0156 1068.5156,502.875 1068.6875,502.6563 C1068.7969,502.5 1068.8281,502.3125 1068.8281,501.8906 L1068.8281,500.4688 C1068.8281,500.0313 1068.8125,499.9063 1068.7188,499.75 C1068.5625,499.4844 1068.2813,499.3438 1067.9844,499.3438 C1067.6875,499.3438 1067.4844,499.4375 1067.2656,499.75 L1067.0938,499.6719 Z "
        fill="#000000"/>
      <text fill="#000000" font-family="sans-serif" font-size="14" lengthAdjust="spacing"
            textLength="230" x="1085.25" y="508.8467">ConfirmReservationComponent
      </text>
      <line style="stroke:#181818;stroke-width:0.5;" x1="973.5" x2="1394.5" y1="520" y2="520"/>
      <ellipse cx="983.5" cy="533.6484" fill="none" rx="3" ry="3"
               style="stroke:#038048;stroke-width:1.0;"/>
      <text fill="#000000" font-family="sans-serif" font-size="14" lengthAdjust="spacing"
            textLength="330" x="992.5" y="536.9951">ReservationRepository reservationRepository
      </text>
      <line style="stroke:#181818;stroke-width:0.5;" x1="973.5" x2="1394.5" y1="544.2969"
            y2="544.2969"/>
      <ellipse cx="983.5" cy="557.9453" fill="#84BE84" rx="3" ry="3"
               style="stroke:#038048;stroke-width:1.0;"/>
      <text fill="#000000" font-family="sans-serif" font-size="14" lengthAdjust="spacing"
            textLength="369" x="992.5" y="561.292">ReservationRepository getReservationRepository()
      </text>
      <ellipse cx="983.5" cy="574.2422" fill="#84BE84" rx="3" ry="3"
               style="stroke:#038048;stroke-width:1.0;"/>
      <text fill="#000000" font-family="sans-serif" font-size="14" lengthAdjust="spacing"
            textLength="397" x="992.5" y="577.5889">void
        setReservationRepository(ReservationRepository)
      </text>
      <ellipse cx="983.5" cy="590.5391" fill="#84BE84" rx="3" ry="3"
               style="stroke:#038048;stroke-width:1.0;"/>
      <text fill="#000000" font-family="sans-serif" font-size="14" lengthAdjust="spacing"
            textLength="201" x="992.5" y="593.8857">void execute(ReservationId)
      </text>
    </g><!--class ReservationRepository-->
    <g id="elem_ReservationRepository">
      <rect codeLine="26" fill="#F1F1F1" height="129.4844" id="ReservationRepository" rx="2.5"
            ry="2.5" style="stroke:#181818;stroke-width:0.5;" width="268" x="331" y="770"/>
      <ellipse cx="380.25" cy="786" fill="#B4A7E5" rx="11" ry="11"
               style="stroke:#181818;stroke-width:1.0;"/>
      <path
        d="M381.2031,782.7813 L382.9219,782.7813 C383.3125,782.7813 383.5,782.75 383.625,782.6719 C383.8906,782.5156 384.0313,782.2344 384.0313,781.9375 C384.0313,781.6719 383.9219,781.4063 383.6875,781.2344 C383.5156,781.125 383.375,781.0938 382.9219,781.0938 L377.7813,781.0938 C377.3438,781.0938 377.2188,781.1094 377.0625,781.2031 C376.8125,781.3594 376.6563,781.6563 376.6563,781.9375 C376.6563,782.2188 376.7969,782.4688 377.0156,782.6406 C377.1719,782.75 377.3594,782.7813 377.7813,782.7813 L379.5,782.7813 L379.5,789.2969 L377.7813,789.2969 C377.3438,789.2969 377.2188,789.3125 377.0625,789.4219 C376.8125,789.5781 376.6563,789.8594 376.6563,790.1563 C376.6563,790.4063 376.7969,790.6719 377.0156,790.8281 C377.1719,790.9531 377.375,791 377.7813,791 L382.9219,791 C383.6719,791 384.0313,790.7188 384.0313,790.1563 C384.0313,789.875 383.9219,789.625 383.6875,789.4531 C383.5156,789.3281 383.375,789.2969 382.9219,789.2969 L381.2031,789.2969 L381.2031,782.7813 Z "
        fill="#000000"/>
      <text fill="#000000" font-family="sans-serif" font-size="14" font-style="italic"
            lengthAdjust="spacing" textLength="161" x="400.75" y="790.8467">ReservationRepository
      </text>
      <line style="stroke:#181818;stroke-width:0.5;" x1="332" x2="598" y1="802" y2="802"/>
      <line style="stroke:#181818;stroke-width:0.5;" x1="332" x2="598" y1="810" y2="810"/>
      <ellipse cx="342" cy="823.6484" fill="#84BE84" rx="3" ry="3"
               style="stroke:#038048;stroke-width:1.0;"/>
      <text fill="#000000" font-family="sans-serif" font-size="14" font-style="italic"
            lengthAdjust="spacing" textLength="242" x="351" y="826.9951">Reservation
        findBy(ReservationId)
      </text>
      <ellipse cx="342" cy="839.9453" fill="#84BE84" rx="3" ry="3"
               style="stroke:#038048;stroke-width:1.0;"/>
      <text fill="#000000" font-family="sans-serif" font-size="14" font-style="italic"
            lengthAdjust="spacing" textLength="162" x="351" y="843.292">void save(Reservation)
      </text>
      <ellipse cx="342" cy="856.2422" fill="#84BE84" rx="3" ry="3"
               style="stroke:#038048;stroke-width:1.0;"/>
      <text fill="#000000" font-family="sans-serif" font-size="14" font-style="italic"
            lengthAdjust="spacing" textLength="190" x="351" y="859.5889">void submit(ReservationId)
      </text>
      <ellipse cx="342" cy="872.5391" fill="#84BE84" rx="3" ry="3"
               style="stroke:#038048;stroke-width:1.0;"/>
      <text fill="#000000" font-family="sans-serif" font-size="14" font-style="italic"
            lengthAdjust="spacing" textLength="197" x="351" y="875.8857">void confirm(ReservationId)
      </text>
      <ellipse cx="342" cy="888.8359" fill="#84BE84" rx="3" ry="3"
               style="stroke:#038048;stroke-width:1.0;"/>
      <text fill="#000000" font-family="sans-serif" font-size="14" font-style="italic"
            lengthAdjust="spacing" textLength="178" x="351" y="892.1826">void reset(ReservationId)
      </text>
    </g><!--class Reservation-->
    <g id="elem_Reservation">
      <rect codeLine="33" fill="#F1F1F1" height="96.8906" id="Reservation" rx="2.5" ry="2.5"
            style="stroke:#181818;stroke-width:0.5;" width="177" x="118.5" y="786"/>
      <ellipse cx="160.05" cy="802" fill="#ADD1B2" rx="11" ry="11"
               style="stroke:#181818;stroke-width:1.0;"/>
      <path
        d="M162.3938,797.6719 C161.4563,797.2344 160.8625,797.0938 159.9875,797.0938 C157.3625,797.0938 155.3625,799.1719 155.3625,801.8906 L155.3625,803.0156 C155.3625,805.5938 157.4719,807.4844 160.3625,807.4844 C161.5813,807.4844 162.7375,807.1875 163.4875,806.6406 C164.0656,806.2344 164.3938,805.7813 164.3938,805.3906 C164.3938,804.9375 164.0031,804.5469 163.5344,804.5469 C163.3156,804.5469 163.1125,804.625 162.925,804.8125 C162.4719,805.2969 162.4719,805.2969 162.2844,805.3906 C161.8625,805.6563 161.175,805.7813 160.4094,805.7813 C158.3625,805.7813 157.0656,804.6875 157.0656,802.9844 L157.0656,801.8906 C157.0656,800.1094 158.3156,798.7969 160.05,798.7969 C160.6281,798.7969 161.2375,798.9531 161.7063,799.2031 C162.1906,799.4844 162.3625,799.7031 162.4563,800.1094 C162.5188,800.5156 162.55,800.6406 162.6906,800.7656 C162.8313,800.9063 163.0656,801.0156 163.2844,801.0156 C163.55,801.0156 163.8156,800.875 163.9875,800.6563 C164.0969,800.5 164.1281,800.3125 164.1281,799.8906 L164.1281,798.4688 C164.1281,798.0313 164.1125,797.9063 164.0188,797.75 C163.8625,797.4844 163.5813,797.3438 163.2844,797.3438 C162.9875,797.3438 162.7844,797.4375 162.5656,797.75 L162.3938,797.6719 Z "
        fill="#000000"/>
      <text fill="#000000" font-family="sans-serif" font-size="14" lengthAdjust="spacing"
            textLength="86" x="179.95" y="806.8467">Reservation
      </text>
      <line style="stroke:#181818;stroke-width:0.5;" x1="119.5" x2="294.5" y1="818" y2="818"/>
      <line style="stroke:#181818;stroke-width:0.5;" x1="119.5" x2="294.5" y1="826" y2="826"/>
      <ellipse cx="129.5" cy="839.6484" fill="#84BE84" rx="3" ry="3"
               style="stroke:#038048;stroke-width:1.0;"/>
      <text fill="#000000" font-family="sans-serif" font-size="14" lengthAdjust="spacing"
            textLength="151" x="138.5" y="842.9951">ReservationId getId()
      </text>
      <ellipse cx="129.5" cy="855.9453" fill="#84BE84" rx="3" ry="3"
               style="stroke:#038048;stroke-width:1.0;"/>
      <text fill="#000000" font-family="sans-serif" font-size="14" lengthAdjust="spacing"
            textLength="97" x="138.5" y="859.292">Trip getTrip()
      </text>
      <ellipse cx="129.5" cy="872.2422" fill="#84BE84" rx="3" ry="3"
               style="stroke:#038048;stroke-width:1.0;"/>
      <text fill="#000000" font-family="sans-serif" font-size="14" lengthAdjust="spacing"
            textLength="129" x="138.5" y="875.5889">String getStatus()
      </text>
    </g><!--class ReservationId-->
    <g id="elem_ReservationId">
      <rect codeLine="38" fill="#F1F1F1" height="64.2969" id="ReservationId" rx="2.5" ry="2.5"
            style="stroke:#181818;stroke-width:0.5;" width="131" x="141.5" y="1066"/>
      <ellipse cx="156.5" cy="1082" fill="#ADD1B2" rx="11" ry="11"
               style="stroke:#181818;stroke-width:1.0;"/>
      <path
        d="M158.8438,1077.6719 C157.9063,1077.2344 157.3125,1077.0938 156.4375,1077.0938 C153.8125,1077.0938 151.8125,1079.1719 151.8125,1081.8906 L151.8125,1083.0156 C151.8125,1085.5938 153.9219,1087.4844 156.8125,1087.4844 C158.0313,1087.4844 159.1875,1087.1875 159.9375,1086.6406 C160.5156,1086.2344 160.8438,1085.7813 160.8438,1085.3906 C160.8438,1084.9375 160.4531,1084.5469 159.9844,1084.5469 C159.7656,1084.5469 159.5625,1084.625 159.375,1084.8125 C158.9219,1085.2969 158.9219,1085.2969 158.7344,1085.3906 C158.3125,1085.6563 157.625,1085.7813 156.8594,1085.7813 C154.8125,1085.7813 153.5156,1084.6875 153.5156,1082.9844 L153.5156,1081.8906 C153.5156,1080.1094 154.7656,1078.7969 156.5,1078.7969 C157.0781,1078.7969 157.6875,1078.9531 158.1563,1079.2031 C158.6406,1079.4844 158.8125,1079.7031 158.9063,1080.1094 C158.9688,1080.5156 159,1080.6406 159.1406,1080.7656 C159.2813,1080.9063 159.5156,1081.0156 159.7344,1081.0156 C160,1081.0156 160.2656,1080.875 160.4375,1080.6563 C160.5469,1080.5 160.5781,1080.3125 160.5781,1079.8906 L160.5781,1078.4688 C160.5781,1078.0313 160.5625,1077.9063 160.4688,1077.75 C160.3125,1077.4844 160.0313,1077.3438 159.7344,1077.3438 C159.4375,1077.3438 159.2344,1077.4375 159.0156,1077.75 L158.8438,1077.6719 Z "
        fill="#000000"/>
      <text fill="#000000" font-family="sans-serif" font-size="14" lengthAdjust="spacing"
            textLength="99" x="170.5" y="1086.8467">ReservationId
      </text>
      <line style="stroke:#181818;stroke-width:0.5;" x1="142.5" x2="271.5" y1="1098" y2="1098"/>
      <line style="stroke:#181818;stroke-width:0.5;" x1="142.5" x2="271.5" y1="1106" y2="1106"/>
      <ellipse cx="152.5" cy="1119.6484" fill="#84BE84" rx="3" ry="3"
               style="stroke:#038048;stroke-width:1.0;"/>
      <text fill="#000000" font-family="sans-serif" font-size="14" lengthAdjust="spacing"
            textLength="85" x="161.5" y="1122.9951">UUID getId()
      </text>
    </g><!--class Trip-->
    <g id="elem_Trip">
      <rect codeLine="41" fill="#F1F1F1" height="162.0781" id="Trip" rx="2.5" ry="2.5"
            style="stroke:#181818;stroke-width:0.5;" width="226" x="679" y="1017"/>
      <ellipse cx="773.25" cy="1033" fill="#ADD1B2" rx="11" ry="11"
               style="stroke:#181818;stroke-width:1.0;"/>
      <path
        d="M775.5938,1028.6719 C774.6563,1028.2344 774.0625,1028.0938 773.1875,1028.0938 C770.5625,1028.0938 768.5625,1030.1719 768.5625,1032.8906 L768.5625,1034.0156 C768.5625,1036.5938 770.6719,1038.4844 773.5625,1038.4844 C774.7813,1038.4844 775.9375,1038.1875 776.6875,1037.6406 C777.2656,1037.2344 777.5938,1036.7813 777.5938,1036.3906 C777.5938,1035.9375 777.2031,1035.5469 776.7344,1035.5469 C776.5156,1035.5469 776.3125,1035.625 776.125,1035.8125 C775.6719,1036.2969 775.6719,1036.2969 775.4844,1036.3906 C775.0625,1036.6563 774.375,1036.7813 773.6094,1036.7813 C771.5625,1036.7813 770.2656,1035.6875 770.2656,1033.9844 L770.2656,1032.8906 C770.2656,1031.1094 771.5156,1029.7969 773.25,1029.7969 C773.8281,1029.7969 774.4375,1029.9531 774.9063,1030.2031 C775.3906,1030.4844 775.5625,1030.7031 775.6563,1031.1094 C775.7188,1031.5156 775.75,1031.6406 775.8906,1031.7656 C776.0313,1031.9063 776.2656,1032.0156 776.4844,1032.0156 C776.75,1032.0156 777.0156,1031.875 777.1875,1031.6563 C777.2969,1031.5 777.3281,1031.3125 777.3281,1030.8906 L777.3281,1029.4688 C777.3281,1029.0313 777.3125,1028.9063 777.2188,1028.75 C777.0625,1028.4844 776.7813,1028.3438 776.4844,1028.3438 C776.1875,1028.3438 775.9844,1028.4375 775.7656,1028.75 L775.5938,1028.6719 Z "
        fill="#000000"/>
      <text fill="#000000" font-family="sans-serif" font-size="14" lengthAdjust="spacing"
            textLength="29" x="793.75" y="1037.8467">Trip
      </text>
      <line style="stroke:#181818;stroke-width:0.5;" x1="680" x2="904" y1="1049" y2="1049"/>
      <line style="stroke:#181818;stroke-width:0.5;" x1="680" x2="904" y1="1057" y2="1057"/>
      <ellipse cx="690" cy="1070.6484" fill="#84BE84" rx="3" ry="3"
               style="stroke:#038048;stroke-width:1.0;"/>
      <text fill="#000000" font-family="sans-serif" font-size="14" lengthAdjust="spacing"
            textLength="94" x="699" y="1073.9951">TripId getId()
      </text>
      <ellipse cx="690" cy="1086.9453" fill="#84BE84" rx="3" ry="3"
               style="stroke:#038048;stroke-width:1.0;"/>
      <text fill="#000000" font-family="sans-serif" font-size="14" lengthAdjust="spacing"
            textLength="135" x="699" y="1090.292">Station getOrigin()
      </text>
      <ellipse cx="690" cy="1103.2422" fill="#84BE84" rx="3" ry="3"
               style="stroke:#038048;stroke-width:1.0;"/>
      <text fill="#000000" font-family="sans-serif" font-size="14" lengthAdjust="spacing"
            textLength="176" x="699" y="1106.5889">Station getDestination()
      </text>
      <ellipse cx="690" cy="1119.5391" fill="#84BE84" rx="3" ry="3"
               style="stroke:#038048;stroke-width:1.0;"/>
      <text fill="#000000" font-family="sans-serif" font-size="14" lengthAdjust="spacing"
            textLength="200" x="699" y="1122.8857">List&lt;Station&gt; getStations()
      </text>
      <ellipse cx="690" cy="1135.8359" fill="#84BE84" rx="3" ry="3"
               style="stroke:#038048;stroke-width:1.0;"/>
      <text fill="#000000" font-family="sans-serif" font-size="14" lengthAdjust="spacing"
            textLength="111" x="699" y="1139.1826">Train getTrain()
      </text>
      <ellipse cx="690" cy="1152.1328" fill="#84BE84" rx="3" ry="3"
               style="stroke:#038048;stroke-width:1.0;"/>
      <text fill="#000000" font-family="sans-serif" font-size="14" lengthAdjust="spacing"
            textLength="105" x="699" y="1155.4795">Seat getSeat()
      </text>
      <ellipse cx="690" cy="1168.4297" fill="#84BE84" rx="3" ry="3"
               style="stroke:#038048;stroke-width:1.0;"/>
      <text fill="#000000" font-family="sans-serif" font-size="14" lengthAdjust="spacing"
            textLength="137" x="699" y="1171.7764">Wagon getWagon()
      </text>
    </g><!--class TripId-->
    <g id="elem_TripId">
      <rect codeLine="50" fill="#F1F1F1" height="64.2969" id="TripId" rx="2.5" ry="2.5"
            style="stroke:#181818;stroke-width:0.5;" width="111" x="736.5" y="1332.5"/>
      <ellipse cx="768.15" cy="1348.5" fill="#ADD1B2" rx="11" ry="11"
               style="stroke:#181818;stroke-width:1.0;"/>
      <path
        d="M770.4938,1344.1719 C769.5563,1343.7344 768.9625,1343.5938 768.0875,1343.5938 C765.4625,1343.5938 763.4625,1345.6719 763.4625,1348.3906 L763.4625,1349.5156 C763.4625,1352.0938 765.5719,1353.9844 768.4625,1353.9844 C769.6813,1353.9844 770.8375,1353.6875 771.5875,1353.1406 C772.1656,1352.7344 772.4938,1352.2813 772.4938,1351.8906 C772.4938,1351.4375 772.1031,1351.0469 771.6344,1351.0469 C771.4156,1351.0469 771.2125,1351.125 771.025,1351.3125 C770.5719,1351.7969 770.5719,1351.7969 770.3844,1351.8906 C769.9625,1352.1563 769.275,1352.2813 768.5094,1352.2813 C766.4625,1352.2813 765.1656,1351.1875 765.1656,1349.4844 L765.1656,1348.3906 C765.1656,1346.6094 766.4156,1345.2969 768.15,1345.2969 C768.7281,1345.2969 769.3375,1345.4531 769.8063,1345.7031 C770.2906,1345.9844 770.4625,1346.2031 770.5563,1346.6094 C770.6188,1347.0156 770.65,1347.1406 770.7906,1347.2656 C770.9313,1347.4063 771.1656,1347.5156 771.3844,1347.5156 C771.65,1347.5156 771.9156,1347.375 772.0875,1347.1563 C772.1969,1347 772.2281,1346.8125 772.2281,1346.3906 L772.2281,1344.9688 C772.2281,1344.5313 772.2125,1344.4063 772.1188,1344.25 C771.9625,1343.9844 771.6813,1343.8438 771.3844,1343.8438 C771.0875,1343.8438 770.8844,1343.9375 770.6656,1344.25 L770.4938,1344.1719 Z "
        fill="#000000"/>
      <text fill="#000000" font-family="sans-serif" font-size="14" lengthAdjust="spacing"
            textLength="42" x="785.85" y="1353.3467">TripId
      </text>
      <line style="stroke:#181818;stroke-width:0.5;" x1="737.5" x2="846.5" y1="1364.5" y2="1364.5"/>
      <line style="stroke:#181818;stroke-width:0.5;" x1="737.5" x2="846.5" y1="1372.5" y2="1372.5"/>
      <ellipse cx="747.5" cy="1386.1484" fill="#84BE84" rx="3" ry="3"
               style="stroke:#038048;stroke-width:1.0;"/>
      <text fill="#000000" font-family="sans-serif" font-size="14" lengthAdjust="spacing"
            textLength="85" x="756.5" y="1389.4951">UUID getId()
      </text>
    </g><!--class Station-->
    <g id="elem_Station">
      <rect codeLine="53" fill="#F1F1F1" height="80.5938" id="Station" rx="2.5" ry="2.5"
            style="stroke:#181818;stroke-width:0.5;" width="150" x="961" y="1324"/>
      <ellipse cx="1005.25" cy="1340" fill="#ADD1B2" rx="11" ry="11"
               style="stroke:#181818;stroke-width:1.0;"/>
      <path
        d="M1007.5938,1335.6719 C1006.6563,1335.2344 1006.0625,1335.0938 1005.1875,1335.0938 C1002.5625,1335.0938 1000.5625,1337.1719 1000.5625,1339.8906 L1000.5625,1341.0156 C1000.5625,1343.5938 1002.6719,1345.4844 1005.5625,1345.4844 C1006.7813,1345.4844 1007.9375,1345.1875 1008.6875,1344.6406 C1009.2656,1344.2344 1009.5938,1343.7813 1009.5938,1343.3906 C1009.5938,1342.9375 1009.2031,1342.5469 1008.7344,1342.5469 C1008.5156,1342.5469 1008.3125,1342.625 1008.125,1342.8125 C1007.6719,1343.2969 1007.6719,1343.2969 1007.4844,1343.3906 C1007.0625,1343.6563 1006.375,1343.7813 1005.6094,1343.7813 C1003.5625,1343.7813 1002.2656,1342.6875 1002.2656,1340.9844 L1002.2656,1339.8906 C1002.2656,1338.1094 1003.5156,1336.7969 1005.25,1336.7969 C1005.8281,1336.7969 1006.4375,1336.9531 1006.9063,1337.2031 C1007.3906,1337.4844 1007.5625,1337.7031 1007.6563,1338.1094 C1007.7188,1338.5156 1007.75,1338.6406 1007.8906,1338.7656 C1008.0313,1338.9063 1008.2656,1339.0156 1008.4844,1339.0156 C1008.75,1339.0156 1009.0156,1338.875 1009.1875,1338.6563 C1009.2969,1338.5 1009.3281,1338.3125 1009.3281,1337.8906 L1009.3281,1336.4688 C1009.3281,1336.0313 1009.3125,1335.9063 1009.2188,1335.75 C1009.0625,1335.4844 1008.7813,1335.3438 1008.4844,1335.3438 C1008.1875,1335.3438 1007.9844,1335.4375 1007.7656,1335.75 L1007.5938,1335.6719 Z "
        fill="#000000"/>
      <text fill="#000000" font-family="sans-serif" font-size="14" lengthAdjust="spacing"
            textLength="53" x="1025.75" y="1344.8467">Station
      </text>
      <line style="stroke:#181818;stroke-width:0.5;" x1="962" x2="1110" y1="1356" y2="1356"/>
      <line style="stroke:#181818;stroke-width:0.5;" x1="962" x2="1110" y1="1364" y2="1364"/>
      <ellipse cx="972" cy="1377.6484" fill="#84BE84" rx="3" ry="3"
               style="stroke:#038048;stroke-width:1.0;"/>
      <text fill="#000000" font-family="sans-serif" font-size="14" lengthAdjust="spacing"
            textLength="118" x="981" y="1380.9951">StationId getId()
      </text>
      <ellipse cx="972" cy="1393.9453" fill="#84BE84" rx="3" ry="3"
               style="stroke:#038048;stroke-width:1.0;"/>
      <text fill="#000000" font-family="sans-serif" font-size="14" lengthAdjust="spacing"
            textLength="124" x="981" y="1397.292">String getName()
      </text>
    </g><!--class StationId-->
    <g id="elem_StationId">
      <rect codeLine="57" fill="#F1F1F1" height="64.2969" id="StationId" rx="2.5" ry="2.5"
            style="stroke:#181818;stroke-width:0.5;" width="111" x="980.5" y="1473"/>
      <ellipse cx="1001.35" cy="1489" fill="#ADD1B2" rx="11" ry="11"
               style="stroke:#181818;stroke-width:1.0;"/>
      <path
        d="M1003.6938,1484.6719 C1002.7563,1484.2344 1002.1625,1484.0938 1001.2875,1484.0938 C998.6625,1484.0938 996.6625,1486.1719 996.6625,1488.8906 L996.6625,1490.0156 C996.6625,1492.5938 998.7719,1494.4844 1001.6625,1494.4844 C1002.8813,1494.4844 1004.0375,1494.1875 1004.7875,1493.6406 C1005.3656,1493.2344 1005.6938,1492.7813 1005.6938,1492.3906 C1005.6938,1491.9375 1005.3031,1491.5469 1004.8344,1491.5469 C1004.6156,1491.5469 1004.4125,1491.625 1004.225,1491.8125 C1003.7719,1492.2969 1003.7719,1492.2969 1003.5844,1492.3906 C1003.1625,1492.6563 1002.475,1492.7813 1001.7094,1492.7813 C999.6625,1492.7813 998.3656,1491.6875 998.3656,1489.9844 L998.3656,1488.8906 C998.3656,1487.1094 999.6156,1485.7969 1001.35,1485.7969 C1001.9281,1485.7969 1002.5375,1485.9531 1003.0063,1486.2031 C1003.4906,1486.4844 1003.6625,1486.7031 1003.7563,1487.1094 C1003.8188,1487.5156 1003.85,1487.6406 1003.9906,1487.7656 C1004.1313,1487.9063 1004.3656,1488.0156 1004.5844,1488.0156 C1004.85,1488.0156 1005.1156,1487.875 1005.2875,1487.6563 C1005.3969,1487.5 1005.4281,1487.3125 1005.4281,1486.8906 L1005.4281,1485.4688 C1005.4281,1485.0313 1005.4125,1484.9063 1005.3188,1484.75 C1005.1625,1484.4844 1004.8813,1484.3438 1004.5844,1484.3438 C1004.2875,1484.3438 1004.0844,1484.4375 1003.8656,1484.75 L1003.6938,1484.6719 Z "
        fill="#000000"/>
      <text fill="#000000" font-family="sans-serif" font-size="14" lengthAdjust="spacing"
            textLength="66" x="1016.65" y="1493.8467">StationId
      </text>
      <line style="stroke:#181818;stroke-width:0.5;" x1="981.5" x2="1090.5" y1="1505" y2="1505"/>
      <line style="stroke:#181818;stroke-width:0.5;" x1="981.5" x2="1090.5" y1="1513" y2="1513"/>
      <ellipse cx="991.5" cy="1526.6484" fill="#84BE84" rx="3" ry="3"
               style="stroke:#038048;stroke-width:1.0;"/>
      <text fill="#000000" font-family="sans-serif" font-size="14" lengthAdjust="spacing"
            textLength="85" x="1000.5" y="1529.9951">UUID getId()
      </text>
    </g><!--class Train-->
    <g id="elem_Train">
      <rect codeLine="60" fill="#F1F1F1" height="80.5938" id="Train" rx="2.5" ry="2.5"
            style="stroke:#181818;stroke-width:0.5;" width="150" x="1841" y="1324"/>
      <ellipse cx="1893.75" cy="1340" fill="#ADD1B2" rx="11" ry="11"
               style="stroke:#181818;stroke-width:1.0;"/>
      <path
        d="M1896.0938,1335.6719 C1895.1563,1335.2344 1894.5625,1335.0938 1893.6875,1335.0938 C1891.0625,1335.0938 1889.0625,1337.1719 1889.0625,1339.8906 L1889.0625,1341.0156 C1889.0625,1343.5938 1891.1719,1345.4844 1894.0625,1345.4844 C1895.2813,1345.4844 1896.4375,1345.1875 1897.1875,1344.6406 C1897.7656,1344.2344 1898.0938,1343.7813 1898.0938,1343.3906 C1898.0938,1342.9375 1897.7031,1342.5469 1897.2344,1342.5469 C1897.0156,1342.5469 1896.8125,1342.625 1896.625,1342.8125 C1896.1719,1343.2969 1896.1719,1343.2969 1895.9844,1343.3906 C1895.5625,1343.6563 1894.875,1343.7813 1894.1094,1343.7813 C1892.0625,1343.7813 1890.7656,1342.6875 1890.7656,1340.9844 L1890.7656,1339.8906 C1890.7656,1338.1094 1892.0156,1336.7969 1893.75,1336.7969 C1894.3281,1336.7969 1894.9375,1336.9531 1895.4063,1337.2031 C1895.8906,1337.4844 1896.0625,1337.7031 1896.1563,1338.1094 C1896.2188,1338.5156 1896.25,1338.6406 1896.3906,1338.7656 C1896.5313,1338.9063 1896.7656,1339.0156 1896.9844,1339.0156 C1897.25,1339.0156 1897.5156,1338.875 1897.6875,1338.6563 C1897.7969,1338.5 1897.8281,1338.3125 1897.8281,1337.8906 L1897.8281,1336.4688 C1897.8281,1336.0313 1897.8125,1335.9063 1897.7188,1335.75 C1897.5625,1335.4844 1897.2813,1335.3438 1896.9844,1335.3438 C1896.6875,1335.3438 1896.4844,1335.4375 1896.2656,1335.75 L1896.0938,1335.6719 Z "
        fill="#000000"/>
      <text fill="#000000" font-family="sans-serif" font-size="14" lengthAdjust="spacing"
            textLength="36" x="1914.25" y="1344.8467">Train
      </text>
      <line style="stroke:#181818;stroke-width:0.5;" x1="1842" x2="1990" y1="1356" y2="1356"/>
      <line style="stroke:#181818;stroke-width:0.5;" x1="1842" x2="1990" y1="1364" y2="1364"/>
      <ellipse cx="1852" cy="1377.6484" fill="#84BE84" rx="3" ry="3"
               style="stroke:#038048;stroke-width:1.0;"/>
      <text fill="#000000" font-family="sans-serif" font-size="14" lengthAdjust="spacing"
            textLength="101" x="1861" y="1380.9951">TrainId getId()
      </text>
      <ellipse cx="1852" cy="1393.9453" fill="#84BE84" rx="3" ry="3"
               style="stroke:#038048;stroke-width:1.0;"/>
      <text fill="#000000" font-family="sans-serif" font-size="14" lengthAdjust="spacing"
            textLength="124" x="1861" y="1397.292">String getName()
      </text>
    </g><!--class TrainId-->
    <g id="elem_TrainId">
      <rect codeLine="64" fill="#F1F1F1" height="64.2969" id="TrainId" rx="2.5" ry="2.5"
            style="stroke:#181818;stroke-width:0.5;" width="111" x="1860.5" y="1473"/>
      <ellipse cx="1889" cy="1489" fill="#ADD1B2" rx="11" ry="11"
               style="stroke:#181818;stroke-width:1.0;"/>
      <path
        d="M1891.3438,1484.6719 C1890.4063,1484.2344 1889.8125,1484.0938 1888.9375,1484.0938 C1886.3125,1484.0938 1884.3125,1486.1719 1884.3125,1488.8906 L1884.3125,1490.0156 C1884.3125,1492.5938 1886.4219,1494.4844 1889.3125,1494.4844 C1890.5313,1494.4844 1891.6875,1494.1875 1892.4375,1493.6406 C1893.0156,1493.2344 1893.3438,1492.7813 1893.3438,1492.3906 C1893.3438,1491.9375 1892.9531,1491.5469 1892.4844,1491.5469 C1892.2656,1491.5469 1892.0625,1491.625 1891.875,1491.8125 C1891.4219,1492.2969 1891.4219,1492.2969 1891.2344,1492.3906 C1890.8125,1492.6563 1890.125,1492.7813 1889.3594,1492.7813 C1887.3125,1492.7813 1886.0156,1491.6875 1886.0156,1489.9844 L1886.0156,1488.8906 C1886.0156,1487.1094 1887.2656,1485.7969 1889,1485.7969 C1889.5781,1485.7969 1890.1875,1485.9531 1890.6563,1486.2031 C1891.1406,1486.4844 1891.3125,1486.7031 1891.4063,1487.1094 C1891.4688,1487.5156 1891.5,1487.6406 1891.6406,1487.7656 C1891.7813,1487.9063 1892.0156,1488.0156 1892.2344,1488.0156 C1892.5,1488.0156 1892.7656,1487.875 1892.9375,1487.6563 C1893.0469,1487.5 1893.0781,1487.3125 1893.0781,1486.8906 L1893.0781,1485.4688 C1893.0781,1485.0313 1893.0625,1484.9063 1892.9688,1484.75 C1892.8125,1484.4844 1892.5313,1484.3438 1892.2344,1484.3438 C1891.9375,1484.3438 1891.7344,1484.4375 1891.5156,1484.75 L1891.3438,1484.6719 Z "
        fill="#000000"/>
      <text fill="#000000" font-family="sans-serif" font-size="14" lengthAdjust="spacing"
            textLength="49" x="1906" y="1493.8467">TrainId
      </text>
      <line style="stroke:#181818;stroke-width:0.5;" x1="1861.5" x2="1970.5" y1="1505" y2="1505"/>
      <line style="stroke:#181818;stroke-width:0.5;" x1="1861.5" x2="1970.5" y1="1513" y2="1513"/>
      <ellipse cx="1871.5" cy="1526.6484" fill="#84BE84" rx="3" ry="3"
               style="stroke:#038048;stroke-width:1.0;"/>
      <text fill="#000000" font-family="sans-serif" font-size="14" lengthAdjust="spacing"
            textLength="85" x="1880.5" y="1529.9951">UUID getId()
      </text>
    </g><!--class Wagon-->
    <g id="elem_Wagon">
      <rect codeLine="67" fill="#F1F1F1" height="96.8906" id="Wagon" rx="2.5" ry="2.5"
            style="stroke:#181818;stroke-width:0.5;" width="166" x="1583" y="1316"/>
      <ellipse cx="1637.25" cy="1332" fill="#ADD1B2" rx="11" ry="11"
               style="stroke:#181818;stroke-width:1.0;"/>
      <path
        d="M1639.5938,1327.6719 C1638.6563,1327.2344 1638.0625,1327.0938 1637.1875,1327.0938 C1634.5625,1327.0938 1632.5625,1329.1719 1632.5625,1331.8906 L1632.5625,1333.0156 C1632.5625,1335.5938 1634.6719,1337.4844 1637.5625,1337.4844 C1638.7813,1337.4844 1639.9375,1337.1875 1640.6875,1336.6406 C1641.2656,1336.2344 1641.5938,1335.7813 1641.5938,1335.3906 C1641.5938,1334.9375 1641.2031,1334.5469 1640.7344,1334.5469 C1640.5156,1334.5469 1640.3125,1334.625 1640.125,1334.8125 C1639.6719,1335.2969 1639.6719,1335.2969 1639.4844,1335.3906 C1639.0625,1335.6563 1638.375,1335.7813 1637.6094,1335.7813 C1635.5625,1335.7813 1634.2656,1334.6875 1634.2656,1332.9844 L1634.2656,1331.8906 C1634.2656,1330.1094 1635.5156,1328.7969 1637.25,1328.7969 C1637.8281,1328.7969 1638.4375,1328.9531 1638.9063,1329.2031 C1639.3906,1329.4844 1639.5625,1329.7031 1639.6563,1330.1094 C1639.7188,1330.5156 1639.75,1330.6406 1639.8906,1330.7656 C1640.0313,1330.9063 1640.2656,1331.0156 1640.4844,1331.0156 C1640.75,1331.0156 1641.0156,1330.875 1641.1875,1330.6563 C1641.2969,1330.5 1641.3281,1330.3125 1641.3281,1329.8906 L1641.3281,1328.4688 C1641.3281,1328.0313 1641.3125,1327.9063 1641.2188,1327.75 C1641.0625,1327.4844 1640.7813,1327.3438 1640.4844,1327.3438 C1640.1875,1327.3438 1639.9844,1327.4375 1639.7656,1327.75 L1639.5938,1327.6719 Z "
        fill="#000000"/>
      <text fill="#000000" font-family="sans-serif" font-size="14" lengthAdjust="spacing"
            textLength="49" x="1657.75" y="1336.8467">Wagon
      </text>
      <line style="stroke:#181818;stroke-width:0.5;" x1="1584" x2="1748" y1="1348" y2="1348"/>
      <line style="stroke:#181818;stroke-width:0.5;" x1="1584" x2="1748" y1="1356" y2="1356"/>
      <ellipse cx="1594" cy="1369.6484" fill="#84BE84" rx="3" ry="3"
               style="stroke:#038048;stroke-width:1.0;"/>
      <text fill="#000000" font-family="sans-serif" font-size="14" lengthAdjust="spacing"
            textLength="114" x="1603" y="1372.9951">WagonId getId()
      </text>
      <ellipse cx="1594" cy="1385.9453" fill="#84BE84" rx="3" ry="3"
               style="stroke:#038048;stroke-width:1.0;"/>
      <text fill="#000000" font-family="sans-serif" font-size="14" lengthAdjust="spacing"
            textLength="124" x="1603" y="1389.292">String getName()
      </text>
      <ellipse cx="1594" cy="1402.2422" fill="#84BE84" rx="3" ry="3"
               style="stroke:#038048;stroke-width:1.0;"/>
      <text fill="#000000" font-family="sans-serif" font-size="14" lengthAdjust="spacing"
            textLength="140" x="1603" y="1405.5889">String getNumber()
      </text>
    </g><!--class WagonId-->
    <g id="elem_WagonId">
      <rect codeLine="72" fill="#F1F1F1" height="64.2969" id="WagonId" rx="2.5" ry="2.5"
            style="stroke:#181818;stroke-width:0.5;" width="111" x="1610.5" y="1473"/>
      <ellipse cx="1633.15" cy="1489" fill="#ADD1B2" rx="11" ry="11"
               style="stroke:#181818;stroke-width:1.0;"/>
      <path
        d="M1635.4938,1484.6719 C1634.5563,1484.2344 1633.9625,1484.0938 1633.0875,1484.0938 C1630.4625,1484.0938 1628.4625,1486.1719 1628.4625,1488.8906 L1628.4625,1490.0156 C1628.4625,1492.5938 1630.5719,1494.4844 1633.4625,1494.4844 C1634.6813,1494.4844 1635.8375,1494.1875 1636.5875,1493.6406 C1637.1656,1493.2344 1637.4938,1492.7813 1637.4938,1492.3906 C1637.4938,1491.9375 1637.1031,1491.5469 1636.6344,1491.5469 C1636.4156,1491.5469 1636.2125,1491.625 1636.025,1491.8125 C1635.5719,1492.2969 1635.5719,1492.2969 1635.3844,1492.3906 C1634.9625,1492.6563 1634.275,1492.7813 1633.5094,1492.7813 C1631.4625,1492.7813 1630.1656,1491.6875 1630.1656,1489.9844 L1630.1656,1488.8906 C1630.1656,1487.1094 1631.4156,1485.7969 1633.15,1485.7969 C1633.7281,1485.7969 1634.3375,1485.9531 1634.8063,1486.2031 C1635.2906,1486.4844 1635.4625,1486.7031 1635.5563,1487.1094 C1635.6188,1487.5156 1635.65,1487.6406 1635.7906,1487.7656 C1635.9313,1487.9063 1636.1656,1488.0156 1636.3844,1488.0156 C1636.65,1488.0156 1636.9156,1487.875 1637.0875,1487.6563 C1637.1969,1487.5 1637.2281,1487.3125 1637.2281,1486.8906 L1637.2281,1485.4688 C1637.2281,1485.0313 1637.2125,1484.9063 1637.1188,1484.75 C1636.9625,1484.4844 1636.6813,1484.3438 1636.3844,1484.3438 C1636.0875,1484.3438 1635.8844,1484.4375 1635.6656,1484.75 L1635.4938,1484.6719 Z "
        fill="#000000"/>
      <text fill="#000000" font-family="sans-serif" font-size="14" lengthAdjust="spacing"
            textLength="62" x="1648.85" y="1493.8467">WagonId
      </text>
      <line style="stroke:#181818;stroke-width:0.5;" x1="1611.5" x2="1720.5" y1="1505" y2="1505"/>
      <line style="stroke:#181818;stroke-width:0.5;" x1="1611.5" x2="1720.5" y1="1513" y2="1513"/>
      <ellipse cx="1621.5" cy="1526.6484" fill="#84BE84" rx="3" ry="3"
               style="stroke:#038048;stroke-width:1.0;"/>
      <text fill="#000000" font-family="sans-serif" font-size="14" lengthAdjust="spacing"
            textLength="85" x="1630.5" y="1529.9951">UUID getId()
      </text>
    </g><!--class Seat-->
    <g id="elem_Seat">
      <rect codeLine="75" fill="#F1F1F1" height="80.5938" id="Seat" rx="2.5" ry="2.5"
            style="stroke:#181818;stroke-width:0.5;" width="150" x="1308" y="1324"/>
      <ellipse cx="1362.25" cy="1340" fill="#ADD1B2" rx="11" ry="11"
               style="stroke:#181818;stroke-width:1.0;"/>
      <path
        d="M1364.5938,1335.6719 C1363.6563,1335.2344 1363.0625,1335.0938 1362.1875,1335.0938 C1359.5625,1335.0938 1357.5625,1337.1719 1357.5625,1339.8906 L1357.5625,1341.0156 C1357.5625,1343.5938 1359.6719,1345.4844 1362.5625,1345.4844 C1363.7813,1345.4844 1364.9375,1345.1875 1365.6875,1344.6406 C1366.2656,1344.2344 1366.5938,1343.7813 1366.5938,1343.3906 C1366.5938,1342.9375 1366.2031,1342.5469 1365.7344,1342.5469 C1365.5156,1342.5469 1365.3125,1342.625 1365.125,1342.8125 C1364.6719,1343.2969 1364.6719,1343.2969 1364.4844,1343.3906 C1364.0625,1343.6563 1363.375,1343.7813 1362.6094,1343.7813 C1360.5625,1343.7813 1359.2656,1342.6875 1359.2656,1340.9844 L1359.2656,1339.8906 C1359.2656,1338.1094 1360.5156,1336.7969 1362.25,1336.7969 C1362.8281,1336.7969 1363.4375,1336.9531 1363.9063,1337.2031 C1364.3906,1337.4844 1364.5625,1337.7031 1364.6563,1338.1094 C1364.7188,1338.5156 1364.75,1338.6406 1364.8906,1338.7656 C1365.0313,1338.9063 1365.2656,1339.0156 1365.4844,1339.0156 C1365.75,1339.0156 1366.0156,1338.875 1366.1875,1338.6563 C1366.2969,1338.5 1366.3281,1338.3125 1366.3281,1337.8906 L1366.3281,1336.4688 C1366.3281,1336.0313 1366.3125,1335.9063 1366.2188,1335.75 C1366.0625,1335.4844 1365.7813,1335.3438 1365.4844,1335.3438 C1365.1875,1335.3438 1364.9844,1335.4375 1364.7656,1335.75 L1364.5938,1335.6719 Z "
        fill="#000000"/>
      <text fill="#000000" font-family="sans-serif" font-size="14" lengthAdjust="spacing"
            textLength="33" x="1382.75" y="1344.8467">Seat
      </text>
      <line style="stroke:#181818;stroke-width:0.5;" x1="1309" x2="1457" y1="1356" y2="1356"/>
      <line style="stroke:#181818;stroke-width:0.5;" x1="1309" x2="1457" y1="1364" y2="1364"/>
      <ellipse cx="1319" cy="1377.6484" fill="#84BE84" rx="3" ry="3"
               style="stroke:#038048;stroke-width:1.0;"/>
      <text fill="#000000" font-family="sans-serif" font-size="14" lengthAdjust="spacing"
            textLength="98" x="1328" y="1380.9951">SeatId getId()
      </text>
      <ellipse cx="1319" cy="1393.9453" fill="#84BE84" rx="3" ry="3"
               style="stroke:#038048;stroke-width:1.0;"/>
      <text fill="#000000" font-family="sans-serif" font-size="14" lengthAdjust="spacing"
            textLength="124" x="1328" y="1397.292">String getName()
      </text>
    </g><!--class SeatId-->
    <g id="elem_SeatId">
      <rect codeLine="79" fill="#F1F1F1" height="64.2969" id="SeatId" rx="2.5" ry="2.5"
            style="stroke:#181818;stroke-width:0.5;" width="111" x="1327.5" y="1473"/>
      <ellipse cx="1357.35" cy="1489" fill="#ADD1B2" rx="11" ry="11"
               style="stroke:#181818;stroke-width:1.0;"/>
      <path
        d="M1359.6938,1484.6719 C1358.7563,1484.2344 1358.1625,1484.0938 1357.2875,1484.0938 C1354.6625,1484.0938 1352.6625,1486.1719 1352.6625,1488.8906 L1352.6625,1490.0156 C1352.6625,1492.5938 1354.7719,1494.4844 1357.6625,1494.4844 C1358.8813,1494.4844 1360.0375,1494.1875 1360.7875,1493.6406 C1361.3656,1493.2344 1361.6938,1492.7813 1361.6938,1492.3906 C1361.6938,1491.9375 1361.3031,1491.5469 1360.8344,1491.5469 C1360.6156,1491.5469 1360.4125,1491.625 1360.225,1491.8125 C1359.7719,1492.2969 1359.7719,1492.2969 1359.5844,1492.3906 C1359.1625,1492.6563 1358.475,1492.7813 1357.7094,1492.7813 C1355.6625,1492.7813 1354.3656,1491.6875 1354.3656,1489.9844 L1354.3656,1488.8906 C1354.3656,1487.1094 1355.6156,1485.7969 1357.35,1485.7969 C1357.9281,1485.7969 1358.5375,1485.9531 1359.0063,1486.2031 C1359.4906,1486.4844 1359.6625,1486.7031 1359.7563,1487.1094 C1359.8188,1487.5156 1359.85,1487.6406 1359.9906,1487.7656 C1360.1313,1487.9063 1360.3656,1488.0156 1360.5844,1488.0156 C1360.85,1488.0156 1361.1156,1487.875 1361.2875,1487.6563 C1361.3969,1487.5 1361.4281,1487.3125 1361.4281,1486.8906 L1361.4281,1485.4688 C1361.4281,1485.0313 1361.4125,1484.9063 1361.3188,1484.75 C1361.1625,1484.4844 1360.8813,1484.3438 1360.5844,1484.3438 C1360.2875,1484.3438 1360.0844,1484.4375 1359.8656,1484.75 L1359.6938,1484.6719 Z "
        fill="#000000"/>
      <text fill="#000000" font-family="sans-serif" font-size="14" lengthAdjust="spacing"
            textLength="46" x="1374.65" y="1493.8467">SeatId
      </text>
      <line style="stroke:#181818;stroke-width:0.5;" x1="1328.5" x2="1437.5" y1="1505" y2="1505"/>
      <line style="stroke:#181818;stroke-width:0.5;" x1="1328.5" x2="1437.5" y1="1513" y2="1513"/>
      <ellipse cx="1338.5" cy="1526.6484" fill="#84BE84" rx="3" ry="3"
               style="stroke:#038048;stroke-width:1.0;"/>
      <text fill="#000000" font-family="sans-serif" font-size="14" lengthAdjust="spacing"
            textLength="85" x="1347.5" y="1529.9951">UUID getId()
      </text>
    </g><!--class ResetReservationService-->
    <g id="elem_ResetReservationService">
      <rect codeLine="82" fill="#F1F1F1" height="64.2969" id="ResetReservationService" rx="2.5"
            ry="2.5" style="stroke:#181818;stroke-width:0.5;" width="213" x="638.5" y="339.5"/>
      <ellipse cx="653.5" cy="355.5" fill="#ADD1B2" rx="11" ry="11"
               style="stroke:#181818;stroke-width:1.0;"/>
      <path
        d="M655.8438,351.1719 C654.9063,350.7344 654.3125,350.5938 653.4375,350.5938 C650.8125,350.5938 648.8125,352.6719 648.8125,355.3906 L648.8125,356.5156 C648.8125,359.0938 650.9219,360.9844 653.8125,360.9844 C655.0313,360.9844 656.1875,360.6875 656.9375,360.1406 C657.5156,359.7344 657.8438,359.2813 657.8438,358.8906 C657.8438,358.4375 657.4531,358.0469 656.9844,358.0469 C656.7656,358.0469 656.5625,358.125 656.375,358.3125 C655.9219,358.7969 655.9219,358.7969 655.7344,358.8906 C655.3125,359.1563 654.625,359.2813 653.8594,359.2813 C651.8125,359.2813 650.5156,358.1875 650.5156,356.4844 L650.5156,355.3906 C650.5156,353.6094 651.7656,352.2969 653.5,352.2969 C654.0781,352.2969 654.6875,352.4531 655.1563,352.7031 C655.6406,352.9844 655.8125,353.2031 655.9063,353.6094 C655.9688,354.0156 656,354.1406 656.1406,354.2656 C656.2813,354.4063 656.5156,354.5156 656.7344,354.5156 C657,354.5156 657.2656,354.375 657.4375,354.1563 C657.5469,354 657.5781,353.8125 657.5781,353.3906 L657.5781,351.9688 C657.5781,351.5313 657.5625,351.4063 657.4688,351.25 C657.3125,350.9844 657.0313,350.8438 656.7344,350.8438 C656.4375,350.8438 656.2344,350.9375 656.0156,351.25 L655.8438,351.1719 Z "
        fill="#000000"/>
      <text fill="#000000" font-family="sans-serif" font-size="14" lengthAdjust="spacing"
            textLength="181" x="667.5" y="360.3467">ResetReservationService
      </text>
      <line style="stroke:#181818;stroke-width:0.5;" x1="639.5" x2="850.5" y1="371.5" y2="371.5"/>
      <line style="stroke:#181818;stroke-width:0.5;" x1="639.5" x2="850.5" y1="379.5" y2="379.5"/>
      <ellipse cx="649.5" cy="393.1484" fill="#84BE84" rx="3" ry="3"
               style="stroke:#038048;stroke-width:1.0;"/>
      <text fill="#000000" font-family="sans-serif" font-size="14" lengthAdjust="spacing"
            textLength="182" x="658.5" y="396.4951">void serve(ReservationId)
      </text>
    </g><!--class ResetReservationComponent-->
    <g id="elem_ResetReservationComponent">
      <rect codeLine="85" fill="#F1F1F1" height="64.2969" id="ResetReservationComponent" rx="2.5"
            ry="2.5" style="stroke:#181818;stroke-width:0.5;" width="246" x="622" y="512.5"/>
      <ellipse cx="637" cy="528.5" fill="#ADD1B2" rx="11" ry="11"
               style="stroke:#181818;stroke-width:1.0;"/>
      <path
        d="M639.3438,524.1719 C638.4063,523.7344 637.8125,523.5938 636.9375,523.5938 C634.3125,523.5938 632.3125,525.6719 632.3125,528.3906 L632.3125,529.5156 C632.3125,532.0938 634.4219,533.9844 637.3125,533.9844 C638.5313,533.9844 639.6875,533.6875 640.4375,533.1406 C641.0156,532.7344 641.3438,532.2813 641.3438,531.8906 C641.3438,531.4375 640.9531,531.0469 640.4844,531.0469 C640.2656,531.0469 640.0625,531.125 639.875,531.3125 C639.4219,531.7969 639.4219,531.7969 639.2344,531.8906 C638.8125,532.1563 638.125,532.2813 637.3594,532.2813 C635.3125,532.2813 634.0156,531.1875 634.0156,529.4844 L634.0156,528.3906 C634.0156,526.6094 635.2656,525.2969 637,525.2969 C637.5781,525.2969 638.1875,525.4531 638.6563,525.7031 C639.1406,525.9844 639.3125,526.2031 639.4063,526.6094 C639.4688,527.0156 639.5,527.1406 639.6406,527.2656 C639.7813,527.4063 640.0156,527.5156 640.2344,527.5156 C640.5,527.5156 640.7656,527.375 640.9375,527.1563 C641.0469,527 641.0781,526.8125 641.0781,526.3906 L641.0781,524.9688 C641.0781,524.5313 641.0625,524.4063 640.9688,524.25 C640.8125,523.9844 640.5313,523.8438 640.2344,523.8438 C639.9375,523.8438 639.7344,523.9375 639.5156,524.25 L639.3438,524.1719 Z "
        fill="#000000"/>
      <text fill="#000000" font-family="sans-serif" font-size="14" lengthAdjust="spacing"
            textLength="214" x="651" y="533.3467">ResetReservationComponent
      </text>
      <line style="stroke:#181818;stroke-width:0.5;" x1="623" x2="867" y1="544.5" y2="544.5"/>
      <line style="stroke:#181818;stroke-width:0.5;" x1="623" x2="867" y1="552.5" y2="552.5"/>
      <ellipse cx="633" cy="566.1484" fill="#84BE84" rx="3" ry="3"
               style="stroke:#038048;stroke-width:1.0;"/>
      <text fill="#000000" font-family="sans-serif" font-size="14" lengthAdjust="spacing"
            textLength="201" x="642" y="569.4951">void execute(ReservationId)
      </text>
    </g><!--class SubmitReservationService-->
    <g id="elem_SubmitReservationService">
      <rect codeLine="88" fill="#F1F1F1" height="113.1875" id="SubmitReservationService" rx="2.5"
            ry="2.5" style="stroke:#181818;stroke-width:0.5;" width="455" x="78.5" y="315"/>
      <ellipse cx="206.25" cy="331" fill="#ADD1B2" rx="11" ry="11"
               style="stroke:#181818;stroke-width:1.0;"/>
      <path
        d="M208.5938,326.6719 C207.6563,326.2344 207.0625,326.0938 206.1875,326.0938 C203.5625,326.0938 201.5625,328.1719 201.5625,330.8906 L201.5625,332.0156 C201.5625,334.5938 203.6719,336.4844 206.5625,336.4844 C207.7813,336.4844 208.9375,336.1875 209.6875,335.6406 C210.2656,335.2344 210.5938,334.7813 210.5938,334.3906 C210.5938,333.9375 210.2031,333.5469 209.7344,333.5469 C209.5156,333.5469 209.3125,333.625 209.125,333.8125 C208.6719,334.2969 208.6719,334.2969 208.4844,334.3906 C208.0625,334.6563 207.375,334.7813 206.6094,334.7813 C204.5625,334.7813 203.2656,333.6875 203.2656,331.9844 L203.2656,330.8906 C203.2656,329.1094 204.5156,327.7969 206.25,327.7969 C206.8281,327.7969 207.4375,327.9531 207.9063,328.2031 C208.3906,328.4844 208.5625,328.7031 208.6563,329.1094 C208.7188,329.5156 208.75,329.6406 208.8906,329.7656 C209.0313,329.9063 209.2656,330.0156 209.4844,330.0156 C209.75,330.0156 210.0156,329.875 210.1875,329.6563 C210.2969,329.5 210.3281,329.3125 210.3281,328.8906 L210.3281,327.4688 C210.3281,327.0313 210.3125,326.9063 210.2188,326.75 C210.0625,326.4844 209.7813,326.3438 209.4844,326.3438 C209.1875,326.3438 208.9844,326.4375 208.7656,326.75 L208.5938,326.6719 Z "
        fill="#000000"/>
      <text fill="#000000" font-family="sans-serif" font-size="14" lengthAdjust="spacing"
            textLength="191" x="226.75" y="335.8467">SubmitReservationService
      </text>
      <line style="stroke:#181818;stroke-width:0.5;" x1="79.5" x2="532.5" y1="347" y2="347"/>
      <ellipse cx="89.5" cy="360.6484" fill="none" rx="3" ry="3"
               style="stroke:#038048;stroke-width:1.0;"/>
      <text fill="#000000" font-family="sans-serif" font-size="14" lengthAdjust="spacing"
            textLength="364" x="98.5" y="363.9951">SubmitReservationComponent submitReservation
      </text>
      <line style="stroke:#181818;stroke-width:0.5;" x1="79.5" x2="532.5" y1="371.2969"
            y2="371.2969"/>
      <ellipse cx="89.5" cy="384.9453" fill="#84BE84" rx="3" ry="3"
               style="stroke:#038048;stroke-width:1.0;"/>
      <text fill="#000000" font-family="sans-serif" font-size="14" lengthAdjust="spacing"
            textLength="401" x="98.5" y="388.292">SubmitReservationComponent getSubmitReservation()
      </text>
      <ellipse cx="89.5" cy="401.2422" fill="#84BE84" rx="3" ry="3"
               style="stroke:#038048;stroke-width:1.0;"/>
      <text fill="#000000" font-family="sans-serif" font-size="14" lengthAdjust="spacing"
            textLength="429" x="98.5" y="404.5889">void
        setSubmitReservation(SubmitReservationComponent)
      </text>
      <ellipse cx="89.5" cy="417.5391" fill="#84BE84" rx="3" ry="3"
               style="stroke:#038048;stroke-width:1.0;"/>
      <text fill="#000000" font-family="sans-serif" font-size="14" lengthAdjust="spacing"
            textLength="182" x="98.5" y="420.8857">void serve(ReservationId)
      </text>
    </g><!--class SubmitReservationComponent-->
    <g id="elem_SubmitReservationComponent">
      <rect codeLine="95" fill="#F1F1F1" height="113.1875" id="SubmitReservationComponent" rx="2.5"
            ry="2.5" style="stroke:#181818;stroke-width:0.5;" width="423" x="94.5" y="488"/>
      <ellipse cx="189.75" cy="504" fill="#ADD1B2" rx="11" ry="11"
               style="stroke:#181818;stroke-width:1.0;"/>
      <path
        d="M192.0938,499.6719 C191.1563,499.2344 190.5625,499.0938 189.6875,499.0938 C187.0625,499.0938 185.0625,501.1719 185.0625,503.8906 L185.0625,505.0156 C185.0625,507.5938 187.1719,509.4844 190.0625,509.4844 C191.2813,509.4844 192.4375,509.1875 193.1875,508.6406 C193.7656,508.2344 194.0938,507.7813 194.0938,507.3906 C194.0938,506.9375 193.7031,506.5469 193.2344,506.5469 C193.0156,506.5469 192.8125,506.625 192.625,506.8125 C192.1719,507.2969 192.1719,507.2969 191.9844,507.3906 C191.5625,507.6563 190.875,507.7813 190.1094,507.7813 C188.0625,507.7813 186.7656,506.6875 186.7656,504.9844 L186.7656,503.8906 C186.7656,502.1094 188.0156,500.7969 189.75,500.7969 C190.3281,500.7969 190.9375,500.9531 191.4063,501.2031 C191.8906,501.4844 192.0625,501.7031 192.1563,502.1094 C192.2188,502.5156 192.25,502.6406 192.3906,502.7656 C192.5313,502.9063 192.7656,503.0156 192.9844,503.0156 C193.25,503.0156 193.5156,502.875 193.6875,502.6563 C193.7969,502.5 193.8281,502.3125 193.8281,501.8906 L193.8281,500.4688 C193.8281,500.0313 193.8125,499.9063 193.7188,499.75 C193.5625,499.4844 193.2813,499.3438 192.9844,499.3438 C192.6875,499.3438 192.4844,499.4375 192.2656,499.75 L192.0938,499.6719 Z "
        fill="#000000"/>
      <text fill="#000000" font-family="sans-serif" font-size="14" lengthAdjust="spacing"
            textLength="224" x="210.25" y="508.8467">SubmitReservationComponent
      </text>
      <line style="stroke:#181818;stroke-width:0.5;" x1="95.5" x2="516.5" y1="520" y2="520"/>
      <ellipse cx="105.5" cy="533.6484" fill="none" rx="3" ry="3"
               style="stroke:#038048;stroke-width:1.0;"/>
      <text fill="#000000" font-family="sans-serif" font-size="14" lengthAdjust="spacing"
            textLength="330" x="114.5" y="536.9951">ReservationRepository reservationRepository
      </text>
      <line style="stroke:#181818;stroke-width:0.5;" x1="95.5" x2="516.5" y1="544.2969"
            y2="544.2969"/>
      <ellipse cx="105.5" cy="557.9453" fill="#84BE84" rx="3" ry="3"
               style="stroke:#038048;stroke-width:1.0;"/>
      <text fill="#000000" font-family="sans-serif" font-size="14" lengthAdjust="spacing"
            textLength="369" x="114.5" y="561.292">ReservationRepository getReservationRepository()
      </text>
      <ellipse cx="105.5" cy="574.2422" fill="#84BE84" rx="3" ry="3"
               style="stroke:#038048;stroke-width:1.0;"/>
      <text fill="#000000" font-family="sans-serif" font-size="14" lengthAdjust="spacing"
            textLength="397" x="114.5" y="577.5889">void
        setReservationRepository(ReservationRepository)
      </text>
      <ellipse cx="105.5" cy="590.5391" fill="#84BE84" rx="3" ry="3"
               style="stroke:#038048;stroke-width:1.0;"/>
      <text fill="#000000" font-family="sans-serif" font-size="14" lengthAdjust="spacing"
            textLength="201" x="114.5" y="593.8857">void execute(ReservationId)
      </text>
    </g><!--class ReservationRepositoryUseCase-->
    <g id="elem_ReservationRepositoryUseCase">
      <rect codeLine="102" fill="#F1F1F1" height="48" id="ReservationRepositoryUseCase" rx="2.5"
            ry="2.5" style="stroke:#181818;stroke-width:0.5;" width="254" x="2195" y="1074"/>
      <ellipse cx="2210" cy="1090" fill="#A9DCDF" rx="11" ry="11"
               style="stroke:#181818;stroke-width:1.0;"/>
      <path
        d="M2212.0781,1091.8125 L2212.4688,1092.7969 L2212.0781,1092.7969 C2211.625,1092.7969 2211.5156,1092.8125 2211.3594,1092.9219 C2211.1094,1093.0781 2210.9531,1093.3594 2210.9531,1093.6563 C2210.9531,1093.9219 2211.0938,1094.1719 2211.3125,1094.3281 C2211.4531,1094.4531 2211.6563,1094.5 2212.0781,1094.5 L2214.4375,1094.5 C2214.7969,1094.5 2215.0156,1094.4688 2215.1563,1094.375 C2215.4063,1094.2344 2215.5625,1093.9375 2215.5625,1093.6563 C2215.5625,1093.375 2215.4219,1093.125 2215.2031,1092.9688 C2215.0313,1092.8281 2214.875,1092.7969 2214.4063,1092.7969 L2211.0156,1084.5938 L2207.3438,1084.5938 C2206.8906,1084.5938 2206.7656,1084.6094 2206.6094,1084.7031 C2206.3594,1084.875 2206.2031,1085.1563 2206.2031,1085.4375 C2206.2031,1085.7188 2206.3438,1085.9688 2206.5625,1086.1406 C2206.7344,1086.25 2206.9063,1086.2813 2207.3438,1086.2813 L2208.4219,1086.2813 L2205.7813,1092.7969 C2205.3594,1092.7969 2205.2031,1092.8125 2205.0469,1092.9219 C2204.7969,1093.0781 2204.6406,1093.3594 2204.6406,1093.6563 C2204.6406,1094.2188 2205.0156,1094.5 2205.7656,1094.5 L2208.0313,1094.5 C2208.3906,1094.5 2208.6094,1094.4688 2208.7344,1094.375 C2209,1094.2344 2209.1406,1093.9375 2209.1406,1093.6563 C2209.1406,1093.375 2209.0156,1093.125 2208.7969,1092.9531 C2208.625,1092.8281 2208.4844,1092.7969 2208.0313,1092.7969 L2207.6406,1092.7969 L2208.0313,1091.8125 L2212.0781,1091.8125 Z M2211.375,1090.1094 L2208.7031,1090.1094 L2210.0469,1086.8438 L2211.375,1090.1094 Z "
        fill="#000000"/>
      <text fill="#000000" font-family="sans-serif" font-size="14" font-style="italic"
            lengthAdjust="spacing" textLength="222" x="2224" y="1094.8467">
        ReservationRepositoryUseCase
      </text>
      <line style="stroke:#181818;stroke-width:0.5;" x1="2196" x2="2448" y1="1106" y2="1106"/>
      <line style="stroke:#181818;stroke-width:0.5;" x1="2196" x2="2448" y1="1114" y2="1114"/>
    </g><!--class ReservationRepositoryUseCaseBridge-->
    <g id="elem_ReservationRepositoryUseCaseBridge">
      <rect codeLine="104" fill="#F1F1F1" height="129.4844" id="ReservationRepositoryUseCaseBridge"
            rx="2.5" ry="2.5" style="stroke:#181818;stroke-width:0.5;" width="301" x="2195.5"
            y="770"/>
      <ellipse cx="2210.5" cy="786" fill="#B4A7E5" rx="11" ry="11"
               style="stroke:#181818;stroke-width:1.0;"/>
      <path
        d="M2211.4531,782.7813 L2213.1719,782.7813 C2213.5625,782.7813 2213.75,782.75 2213.875,782.6719 C2214.1406,782.5156 2214.2813,782.2344 2214.2813,781.9375 C2214.2813,781.6719 2214.1719,781.4063 2213.9375,781.2344 C2213.7656,781.125 2213.625,781.0938 2213.1719,781.0938 L2208.0313,781.0938 C2207.5938,781.0938 2207.4688,781.1094 2207.3125,781.2031 C2207.0625,781.3594 2206.9063,781.6563 2206.9063,781.9375 C2206.9063,782.2188 2207.0469,782.4688 2207.2656,782.6406 C2207.4219,782.75 2207.6094,782.7813 2208.0313,782.7813 L2209.75,782.7813 L2209.75,789.2969 L2208.0313,789.2969 C2207.5938,789.2969 2207.4688,789.3125 2207.3125,789.4219 C2207.0625,789.5781 2206.9063,789.8594 2206.9063,790.1563 C2206.9063,790.4063 2207.0469,790.6719 2207.2656,790.8281 C2207.4219,790.9531 2207.625,791 2208.0313,791 L2213.1719,791 C2213.9219,791 2214.2813,790.7188 2214.2813,790.1563 C2214.2813,789.875 2214.1719,789.625 2213.9375,789.4531 C2213.7656,789.3281 2213.625,789.2969 2213.1719,789.2969 L2211.4531,789.2969 L2211.4531,782.7813 Z "
        fill="#000000"/>
      <text fill="#000000" font-family="sans-serif" font-size="14" font-style="italic"
            lengthAdjust="spacing" textLength="269" x="2224.5" y="790.8467">
        ReservationRepositoryUseCaseBridge
      </text>
      <line style="stroke:#181818;stroke-width:0.5;" x1="2196.5" x2="2495.5" y1="802" y2="802"/>
      <line style="stroke:#181818;stroke-width:0.5;" x1="2196.5" x2="2495.5" y1="810" y2="810"/>
      <ellipse cx="2206.5" cy="823.6484" fill="#84BE84" rx="3" ry="3"
               style="stroke:#038048;stroke-width:1.0;"/>
      <text fill="#000000" font-family="sans-serif" font-size="14" font-style="italic"
            lengthAdjust="spacing" textLength="136" x="2215.5" y="826.9951">String findBy(UUID)
      </text>
      <ellipse cx="2206.5" cy="839.9453" fill="#84BE84" rx="3" ry="3"
               style="stroke:#038048;stroke-width:1.0;"/>
      <text fill="#000000" font-family="sans-serif" font-size="14" font-style="italic"
            lengthAdjust="spacing" textLength="119" x="2215.5" y="843.292">void save(String)
      </text>
      <ellipse cx="2206.5" cy="856.2422" fill="#84BE84" rx="3" ry="3"
               style="stroke:#038048;stroke-width:1.0;"/>
      <text fill="#000000" font-family="sans-serif" font-size="14" font-style="italic"
            lengthAdjust="spacing" textLength="127" x="2215.5" y="859.5889">void submit(UUID)
      </text>
      <ellipse cx="2206.5" cy="872.5391" fill="#84BE84" rx="3" ry="3"
               style="stroke:#038048;stroke-width:1.0;"/>
      <text fill="#000000" font-family="sans-serif" font-size="14" font-style="italic"
            lengthAdjust="spacing" textLength="134" x="2215.5" y="875.8857">void confirm(UUID)
      </text>
      <ellipse cx="2206.5" cy="888.8359" fill="#84BE84" rx="3" ry="3"
               style="stroke:#038048;stroke-width:1.0;"/>
      <text fill="#000000" font-family="sans-serif" font-size="14" font-style="italic"
            lengthAdjust="spacing" textLength="115" x="2215.5" y="892.1826">void reset(UUID)
      </text>
    </g><!--class ResetUseCase-->
    <g id="elem_ResetUseCase">
      <rect codeLine="111" fill="#F1F1F1" height="64.2969" id="ResetUseCase" rx="2.5" ry="2.5"
            style="stroke:#181818;stroke-width:0.5;" width="148" x="671" y="108.5"/>
      <ellipse cx="692.75" cy="124.5" fill="#ADD1B2" rx="11" ry="11"
               style="stroke:#181818;stroke-width:1.0;"/>
      <path
        d="M695.0938,120.1719 C694.1563,119.7344 693.5625,119.5938 692.6875,119.5938 C690.0625,119.5938 688.0625,121.6719 688.0625,124.3906 L688.0625,125.5156 C688.0625,128.0938 690.1719,129.9844 693.0625,129.9844 C694.2813,129.9844 695.4375,129.6875 696.1875,129.1406 C696.7656,128.7344 697.0938,128.2813 697.0938,127.8906 C697.0938,127.4375 696.7031,127.0469 696.2344,127.0469 C696.0156,127.0469 695.8125,127.125 695.625,127.3125 C695.1719,127.7969 695.1719,127.7969 694.9844,127.8906 C694.5625,128.1563 693.875,128.2813 693.1094,128.2813 C691.0625,128.2813 689.7656,127.1875 689.7656,125.4844 L689.7656,124.3906 C689.7656,122.6094 691.0156,121.2969 692.75,121.2969 C693.3281,121.2969 693.9375,121.4531 694.4063,121.7031 C694.8906,121.9844 695.0625,122.2031 695.1563,122.6094 C695.2188,123.0156 695.25,123.1406 695.3906,123.2656 C695.5313,123.4063 695.7656,123.5156 695.9844,123.5156 C696.25,123.5156 696.5156,123.375 696.6875,123.1563 C696.7969,123 696.8281,122.8125 696.8281,122.3906 L696.8281,120.9688 C696.8281,120.5313 696.8125,120.4063 696.7188,120.25 C696.5625,119.9844 696.2813,119.8438 695.9844,119.8438 C695.6875,119.8438 695.4844,119.9375 695.2656,120.25 L695.0938,120.1719 Z "
        fill="#000000"/>
      <text fill="#000000" font-family="sans-serif" font-size="14" lengthAdjust="spacing"
            textLength="101" x="708.25" y="129.3467">ResetUseCase
      </text>
      <line style="stroke:#181818;stroke-width:0.5;" x1="672" x2="818" y1="140.5" y2="140.5"/>
      <line style="stroke:#181818;stroke-width:0.5;" x1="672" x2="818" y1="148.5" y2="148.5"/>
      <ellipse cx="682" cy="162.1484" fill="#84BE84" rx="3" ry="3"
               style="stroke:#038048;stroke-width:1.0;"/>
      <text fill="#000000" font-family="sans-serif" font-size="14" lengthAdjust="spacing"
            textLength="122" x="691" y="165.4951">void action(UUID)
      </text>
    </g><!--class SubmitUseCase-->
    <g id="elem_SubmitUseCase">
      <rect codeLine="114" fill="#F1F1F1" height="113.1875" id="SubmitUseCase" rx="2.5" ry="2.5"
            style="stroke:#181818;stroke-width:0.5;" width="422" x="95" y="84"/>
      <ellipse cx="246.25" cy="100" fill="#ADD1B2" rx="11" ry="11"
               style="stroke:#181818;stroke-width:1.0;"/>
      <path
        d="M248.5938,95.6719 C247.6563,95.2344 247.0625,95.0938 246.1875,95.0938 C243.5625,95.0938 241.5625,97.1719 241.5625,99.8906 L241.5625,101.0156 C241.5625,103.5938 243.6719,105.4844 246.5625,105.4844 C247.7813,105.4844 248.9375,105.1875 249.6875,104.6406 C250.2656,104.2344 250.5938,103.7813 250.5938,103.3906 C250.5938,102.9375 250.2031,102.5469 249.7344,102.5469 C249.5156,102.5469 249.3125,102.625 249.125,102.8125 C248.6719,103.2969 248.6719,103.2969 248.4844,103.3906 C248.0625,103.6563 247.375,103.7813 246.6094,103.7813 C244.5625,103.7813 243.2656,102.6875 243.2656,100.9844 L243.2656,99.8906 C243.2656,98.1094 244.5156,96.7969 246.25,96.7969 C246.8281,96.7969 247.4375,96.9531 247.9063,97.2031 C248.3906,97.4844 248.5625,97.7031 248.6563,98.1094 C248.7188,98.5156 248.75,98.6406 248.8906,98.7656 C249.0313,98.9063 249.2656,99.0156 249.4844,99.0156 C249.75,99.0156 250.0156,98.875 250.1875,98.6563 C250.2969,98.5 250.3281,98.3125 250.3281,97.8906 L250.3281,96.4688 C250.3281,96.0313 250.3125,95.9063 250.2188,95.75 C250.0625,95.4844 249.7813,95.3438 249.4844,95.3438 C249.1875,95.3438 248.9844,95.4375 248.7656,95.75 L248.5938,95.6719 Z "
        fill="#000000"/>
      <text fill="#000000" font-family="sans-serif" font-size="14" lengthAdjust="spacing"
            textLength="111" x="266.75" y="104.8467">SubmitUseCase
      </text>
      <line style="stroke:#181818;stroke-width:0.5;" x1="96" x2="516" y1="116" y2="116"/>
      <ellipse cx="106" cy="129.6484" fill="none" rx="3" ry="3"
               style="stroke:#038048;stroke-width:1.0;"/>
      <text fill="#000000" font-family="sans-serif" font-size="14" lengthAdjust="spacing"
            textLength="331" x="115" y="132.9951">SubmitReservationService submitReservation
      </text>
      <line style="stroke:#181818;stroke-width:0.5;" x1="96" x2="516" y1="140.2969" y2="140.2969"/>
      <ellipse cx="106" cy="153.9453" fill="#84BE84" rx="3" ry="3"
               style="stroke:#038048;stroke-width:1.0;"/>
      <text fill="#000000" font-family="sans-serif" font-size="14" lengthAdjust="spacing"
            textLength="368" x="115" y="157.292">SubmitReservationService getSubmitReservation()
      </text>
      <ellipse cx="106" cy="170.2422" fill="#84BE84" rx="3" ry="3"
               style="stroke:#038048;stroke-width:1.0;"/>
      <text fill="#000000" font-family="sans-serif" font-size="14" lengthAdjust="spacing"
            textLength="396" x="115" y="173.5889">void
        setSubmitReservation(SubmitReservationService)
      </text>
      <ellipse cx="106" cy="186.5391" fill="#84BE84" rx="3" ry="3"
               style="stroke:#038048;stroke-width:1.0;"/>
      <text fill="#000000" font-family="sans-serif" font-size="14" lengthAdjust="spacing"
            textLength="122" x="115" y="189.8857">void action(UUID)
      </text>
    </g><!--link ConfirmUseCase to ConfirmReservationService-->
    <g id="link_ConfirmUseCase_ConfirmReservationService">
      <path codeLine="121" d="M1184,197.01 C1184,232.81 1184,272.94 1184,308.77 " fill="none"
            id="ConfirmUseCase-to-ConfirmReservationService"
            style="stroke:#181818;stroke-width:1.0;"/>
      <polygon fill="#181818" points="1184,314.77,1188,305.77,1184,309.77,1180,305.77,1184,314.77"
               style="stroke:#181818;stroke-width:1.0;"/>
    </g><!--link ConfirmReservationService to ConfirmReservationComponent-->
    <g id="link_ConfirmReservationService_ConfirmReservationComponent">
      <path codeLine="122" d="M1184,428.15 C1184,447.26 1184,462.6 1184,481.73 " fill="none"
            id="ConfirmReservationService-to-ConfirmReservationComponent"
            style="stroke:#181818;stroke-width:1.0;"/>
      <polygon fill="#181818" points="1184,487.73,1188,478.73,1184,482.73,1180,478.73,1184,487.73"
               style="stroke:#181818;stroke-width:1.0;"/>
    </g><!--link ConfirmReservationComponent to ReservationRepository-->
    <g id="link_ConfirmReservationComponent_ReservationRepository">
      <path codeLine="123"
            d="M972.185,589 C797.123,589 577.167,589 577.167,589 C577.167,589 577.167,691.26 577.167,763.998 "
            fill="none" id="ConfirmReservationComponent-to-ReservationRepository"
            style="stroke:#181818;stroke-width:1.0;"/>
      <polygon fill="#181818"
               points="577.167,769.998,581.167,760.998,577.167,764.998,573.167,760.998,577.167,769.998"
               style="stroke:#181818;stroke-width:1.0;"/>
    </g><!--link Reservation to Trip-->
    <g id="link_Reservation_Trip">
      <path codeLine="124"
            d="M284,883.15 C284,944.48 284,1042 284,1042 C284,1042 523.253,1042 672.943,1042 "
            fill="none" id="Reservation-to-Trip" style="stroke:#181818;stroke-width:1.0;"/>
      <polygon fill="#181818"
               points="678.943,1042,669.943,1038,673.943,1042,669.943,1046,678.943,1042"
               style="stroke:#181818;stroke-width:1.0;"/>
    </g><!--link Reservation to ReservationId-->
    <g id="link_Reservation_ReservationId">
      <path codeLine="125" d="M207,883.137 C207,936.373 207,1014.21 207,1059.827 " fill="none"
            id="Reservation-to-ReservationId" style="stroke:#181818;stroke-width:1.0;"/>
      <polygon fill="#181818"
               points="207,1065.827,211,1056.827,207,1060.827,203,1056.827,207,1065.827"
               style="stroke:#181818;stroke-width:1.0;"/>
    </g><!--link Trip to TripId-->
    <g id="link_Trip_TripId">
      <path codeLine="126" d="M792,1179.044 C792,1230.651 792,1288.668 792,1326.4 " fill="none"
            id="Trip-to-TripId" style="stroke:#181818;stroke-width:1.0;"/>
      <polygon fill="#181818" points="792,1332.4,796,1323.4,792,1327.4,788,1323.4,792,1332.4"
               style="stroke:#181818;stroke-width:1.0;"/>
    </g><!--link Trip to Station-->
    <g id="link_Trip_Station">
      <path codeLine="127"
            d="M866.667,1179.117 C866.667,1245.677 866.667,1329 866.667,1329 C866.667,1329 909.517,1329 954.742,1329 "
            fill="none" id="Trip-to-Station" style="stroke:#181818;stroke-width:1.0;"/>
      <polygon fill="#181818"
               points="960.742,1329,951.742,1325,955.742,1329,951.742,1333,960.742,1329"
               style="stroke:#181818;stroke-width:1.0;"/>
    </g><!--link Trip to Seat-->
    <g id="link_Trip_Seat">
      <path codeLine="128"
            d="M905.274,1160 C1068.83,1160 1351.75,1160 1351.75,1160 C1351.75,1160 1351.75,1257.93 1351.75,1317.608 "
            fill="none" id="Trip-to-Seat" style="stroke:#181818;stroke-width:1.0;"/>
      <polygon fill="#181818"
               points="1351.75,1323.608,1355.75,1314.608,1351.75,1318.608,1347.75,1314.608,1351.75,1323.608"
               style="stroke:#181818;stroke-width:1.0;"/>
    </g><!--link Trip to Train-->
    <g id="link_Trip_Train">
      <path codeLine="129"
            d="M905.18,1141 C1190.39,1141 1916,1141 1916,1141 C1916,1141 1916,1253.301 1916,1317.767 "
            fill="none" id="Trip-to-Train" style="stroke:#181818;stroke-width:1.0;"/>
      <polygon fill="#181818"
               points="1916,1323.767,1920,1314.767,1916,1318.767,1912,1314.767,1916,1323.767"
               style="stroke:#181818;stroke-width:1.0;"/>
    </g><!--link Trip to Wagon-->
    <g id="link_Trip_Wagon">
      <path codeLine="130"
            d="M885.833,1179.089 C885.833,1242.507 885.833,1320 885.833,1320 C885.833,1320 1375.85,1320 1576.88,1320 "
            fill="none" id="Trip-to-Wagon" style="stroke:#181818;stroke-width:1.0;"/>
      <polygon fill="#181818"
               points="1582.88,1320,1573.88,1316,1577.88,1320,1573.88,1324,1582.88,1320"
               style="stroke:#181818;stroke-width:1.0;"/>
    </g><!--link Station to StationId-->
    <g id="link_Station_StationId">
      <path codeLine="131" d="M1036,1405.138 C1036,1426.696 1036,1446.808 1036,1466.923 "
            fill="none" id="Station-to-StationId" style="stroke:#181818;stroke-width:1.0;"/>
      <polygon fill="#181818"
               points="1036,1472.923,1040,1463.923,1036,1467.923,1032,1463.923,1036,1472.923"
               style="stroke:#181818;stroke-width:1.0;"/>
    </g><!--link Train to TrainId-->
    <g id="link_Train_TrainId">
      <path codeLine="132" d="M1916,1405.138 C1916,1426.696 1916,1446.808 1916,1466.923 "
            fill="none" id="Train-to-TrainId" style="stroke:#181818;stroke-width:1.0;"/>
      <polygon fill="#181818"
               points="1916,1472.923,1920,1463.923,1916,1467.923,1912,1463.923,1916,1472.923"
               style="stroke:#181818;stroke-width:1.0;"/>
    </g><!--link Wagon to WagonId-->
    <g id="link_Wagon_WagonId">
      <path codeLine="133" d="M1666,1413.246 C1666,1432.902 1666,1449.043 1666,1466.651 "
            fill="none" id="Wagon-to-WagonId" style="stroke:#181818;stroke-width:1.0;"/>
      <polygon fill="#181818"
               points="1666,1472.651,1670,1463.651,1666,1467.651,1662,1463.651,1666,1472.651"
               style="stroke:#181818;stroke-width:1.0;"/>
    </g><!--link Seat to SeatId-->
    <g id="link_Seat_SeatId">
      <path codeLine="134" d="M1383,1405.138 C1383,1426.696 1383,1446.808 1383,1466.923 "
            fill="none" id="Seat-to-SeatId" style="stroke:#181818;stroke-width:1.0;"/>
      <polygon fill="#181818"
               points="1383,1472.923,1387,1463.923,1383,1467.923,1379,1463.923,1383,1472.923"
               style="stroke:#181818;stroke-width:1.0;"/>
    </g><!--link ResetReservationService to ResetReservationComponent-->
    <g id="link_ResetReservationService_ResetReservationComponent">
      <path codeLine="135" d="M745,403.63 C745,434.61 745,475.23 745,506.24 " fill="none"
            id="ResetReservationService-to-ResetReservationComponent"
            style="stroke:#181818;stroke-width:1.0;"/>
      <polygon fill="#181818" points="745,512.24,749,503.24,745,507.24,741,503.24,745,512.24"
               style="stroke:#181818;stroke-width:1.0;"/>
    </g><!--link ResetReservationComponent to ReservationRepository-->
    <g id="link_ResetReservationComponent_ReservationRepository">
      <path codeLine="136"
            d="M621.936,545 C585.591,545 555.333,545 555.333,545 C555.333,545 555.333,678.57 555.333,763.891 "
            fill="none" id="ResetReservationComponent-to-ReservationRepository"
            style="stroke:#181818;stroke-width:1.0;"/>
      <polygon fill="#181818"
               points="555.333,769.891,559.333,760.891,555.333,764.891,551.333,760.891,555.333,769.891"
               style="stroke:#181818;stroke-width:1.0;"/>
    </g><!--link SubmitReservationService to SubmitReservationComponent-->
    <g id="link_SubmitReservationService_SubmitReservationComponent">
      <path codeLine="137" d="M306,428.15 C306,447.26 306,462.6 306,481.73 " fill="none"
            id="SubmitReservationService-to-SubmitReservationComponent"
            style="stroke:#181818;stroke-width:1.0;"/>
      <polygon fill="#181818" points="306,487.73,310,478.73,306,482.73,302,478.73,306,487.73"
               style="stroke:#181818;stroke-width:1.0;"/>
    </g><!--link SubmitReservationComponent to ReservationRepository-->
    <g id="link_SubmitReservationComponent_ReservationRepository">
      <path codeLine="138" d="M424.25,601.1 C424.25,649.56 424.25,713.328 424.25,763.951 "
            fill="none" id="SubmitReservationComponent-to-ReservationRepository"
            style="stroke:#181818;stroke-width:1.0;"/>
      <polygon fill="#181818"
               points="424.25,769.951,428.25,760.951,424.25,764.951,420.25,760.951,424.25,769.951"
               style="stroke:#181818;stroke-width:1.0;"/>
    </g><!--reverse link ReservationRepository to ReservationRepositoryUseCase-->
    <g id="link_ReservationRepository_ReservationRepositoryUseCase">
      <path codeLine="139"
            d="M617.157,835 C753.805,835 927.75,835 927.75,835 C927.75,835 927.75,1098 927.75,1098 C927.75,1098 1850.94,1098 2194.88,1098 "
            fill="none" id="ReservationRepository-backto-ReservationRepositoryUseCase"
            style="stroke:#181818;stroke-width:1.0;stroke-dasharray:7.0,7.0;"/>
      <polygon fill="none" points="599.157,835,617.157,841,617.157,829,599.157,835"
               style="stroke:#181818;stroke-width:1.0;"/>
    </g><!--reverse link ReservationRepositoryUseCaseBridge to ReservationRepositoryUseCase-->
    <g id="link_ReservationRepositoryUseCaseBridge_ReservationRepositoryUseCase">
      <path codeLine="140" d="M2322.25,917.297 C2322.25,973.831 2322.25,1034.765 2322.25,1073.954 "
            fill="none" id="ReservationRepositoryUseCaseBridge-backto-ReservationRepositoryUseCase"
            style="stroke:#181818;stroke-width:1.0;stroke-dasharray:7.0,7.0;"/>
      <polygon fill="none" points="2322.25,899.297,2316.25,917.297,2328.25,917.297,2322.25,899.297"
               style="stroke:#181818;stroke-width:1.0;"/>
    </g><!--link ResetUseCase to ResetReservationService-->
    <g id="link_ResetUseCase_ResetReservationService">
      <path codeLine="141" d="M745,172.62 C745,216.63 745,289.22 745,333.28 " fill="none"
            id="ResetUseCase-to-ResetReservationService" style="stroke:#181818;stroke-width:1.0;"/>
      <polygon fill="#181818" points="745,339.28,749,330.28,745,334.28,741,330.28,745,339.28"
               style="stroke:#181818;stroke-width:1.0;"/>
    </g><!--link SubmitUseCase to SubmitReservationService-->
    <g id="link_SubmitUseCase_SubmitReservationService">
      <path codeLine="142" d="M306,197.01 C306,232.81 306,272.94 306,308.77 " fill="none"
            id="SubmitUseCase-to-SubmitReservationService"
            style="stroke:#181818;stroke-width:1.0;"/>
      <polygon fill="#181818" points="306,314.77,310,305.77,306,309.77,302,305.77,306,314.77"
               style="stroke:#181818;stroke-width:1.0;"/>
    </g><!--SRC=[xLXBRzim3BxxLsWzjHZgNp3qqFOIODY6TiMEXM8hhj1OCYGvNP3rlq-Itm_92kP7aEuKHo8fyYD5cz-dXC4eXY3bQ4K4OZ4ACHJe1mnUOOGusC0jHnv_nII13CPWYmaI-mG1oiGBzVWBVGDSwY6gLZqls4BEmSKT9HlCuYUExY175m1o428_NFixH4Bg9umAhU2lq-0b9P7F44Ti1mMcn0_n3Z7kmn0cGZr8tvu3QORxGMRMNzEKX93j_UOvuE01y3bVUwWiFie7720GT7Qa_FEpNIb2ehjvUQMKTXI7WFVk6-rLYZ3GaazFg_ihxxs5N5TnD10H4LXW2vez81Y0lQDnGeaqU1oqbTfOu9OMwwfiXovhCglG2dDfOWQWvO9WTElReD6GrtOUK48v5fJj0UjRBV7krv58zsuqmUuNwLsjzD1l5AIY1skiEie6olgvw3KnFj9ryGxQ_S1edC41hhbWyag-rwJ01fFmTjyEh2cVGGURjTOlbAvZB1oivVNY8AdY5SOYhwtF3BMMsjSHxzJpAbGrkGgp0lp9SAB-gzzivL4mJ2ArzYYWIFbbVs2hSF7GP2GwEDN9ovXANrL4qxeeWKgCVcfW3mN4JT0Li2erSkaxmn4cdULxn0KcjQxy5NFn9HUuAP8ZdtcHHeX9baTOcaDGDthrcwtyWb5cNZ-qmPeweuDmsVEP1po3ZrpOIx38qw6Mj7Q2Yplq3SQe9ufPi7QCO-WQoOAQmLcXph6KXwhlGrdghd3dmgVXlnreVITdS_HDdMPqDsiKXx9d3C3TN4lZDMATo6PCWaDi0wr6TioPlUNoIFD5LPtyKFHqvrQZPKyj3ZlowkqkvfZ1z0TSvQZXtCnLXx6chJ_XKDFolFwHBSm3ZNrWA2f6VoZF0N_sILv5OJevh_hsRXKSRs-LuvX5INqKjNURyrXtsspETVGrMvWUtw9ABA2SmTnRp6YWEwvKTiRcnXBvLtwS8nAWPZyndIoH7XxHSzbRXiDeOb_N-Wn_s8tEo9w_U_9fFIFKJ4Dw9ckRputwnLXk5CYcyHQXfnlYsCdkUsqqI50BmvZTlR4zwk-a3P-CpVM8vbbZPV-zTGvHidDGrjVNDqknkjvIRFBqCJiGhDxo5E_eE1nFVtgBSeAJ0Z38yvnnx4wifRSW8xbiviyzTaV6xRn1E8eE-0XGM4d1ZrCBLaBEEmrA_sHQnEITqeLlFuaBCXCIBeJu2TsNML4P9gTFxAqo1JeERF4aA1p3zNhBCirdDrSvqzIZHtuyWUijJI2VI_QF9tJzrF_pF_PboMblQdftwkPkUAbuqvF4apSlKzly2m00]-->
  </g>
</svg>