<?xml version="1.0" encoding="us-ascii" standalone="no"?>
<svg xmlns="http://www.w3.org/2000/svg"
     contentStyleType="text/css" height="1430px" preserveAspectRatio="none"
     style="width:3391px;height:1430px;background:#FFFFFF;" version="1.1" viewBox="0 0 3391 1430"
     width="3391px" zoomAndPan="magnify">
  <defs/>
  <g><!--cluster use_cases-->
    <g id="cluster_use_cases">
      <path
        d="M8.5,6 L582.5,6 A3.75,3.75 0 0 1 585,8.5 L592,28.2969 L3381.5,28.2969 A2.5,2.5 0 0 1 3384,30.7969 L3384,1421 A2.5,2.5 0 0 1 3381.5,1423.5 L8.5,1423.5 A2.5,2.5 0 0 1 6,1421 L6,8.5 A2.5,2.5 0 0 1 8.5,6 "
        fill="none" style="stroke:#000000;stroke-width:1.5;"/>
      <line style="stroke:#000000;stroke-width:1.5;" x1="6" x2="592" y1="28.2969" y2="28.2969"/>
      <text fill="#000000" font-family="sans-serif" font-size="14" font-weight="bold"
            lengthAdjust="spacing" textLength="573" x="10" y="20.9951">
        de.db.vendo.prototype.buchung.reservation.divers.adapters.use_cases
      </text>
    </g><!--cluster boundary-->
    <g id="cluster_boundary">
      <path
        d="M2664.5,77.5 L2809.5,77.5 A3.75,3.75 0 0 1 2812,80 L2819,99.7969 L2841.5,99.7969 A2.5,2.5 0 0 1 2844,102.2969 L2844,190 A2.5,2.5 0 0 1 2841.5,192.5 L2664.5,192.5 A2.5,2.5 0 0 1 2662,190 L2662,80 A2.5,2.5 0 0 1 2664.5,77.5 "
        fill="none" style="stroke:#000000;stroke-width:1.5;"/>
      <line style="stroke:#000000;stroke-width:1.5;" x1="2662" x2="2819" y1="99.7969" y2="99.7969"/>
      <text fill="#000000" font-family="sans-serif" font-size="14" font-weight="bold"
            lengthAdjust="spacing" textLength="144" x="2666" y="92.4951">confirm.boundary
      </text>
    </g><!--cluster entities-->
    <g id="cluster_entities">
      <path
        d="M32.5,245 L96.5,245 A3.75,3.75 0 0 1 99,247.5 L106,267.2969 L2945.5,267.2969 A2.5,2.5 0 0 1 2948,269.7969 L2948,1397 A2.5,2.5 0 0 1 2945.5,1399.5 L32.5,1399.5 A2.5,2.5 0 0 1 30,1397 L30,247.5 A2.5,2.5 0 0 1 32.5,245 "
        fill="none" style="stroke:#000000;stroke-width:1.5;"/>
      <line style="stroke:#000000;stroke-width:1.5;" x1="30" x2="106" y1="267.2969" y2="267.2969"/>
      <text fill="#000000" font-family="sans-serif" font-size="14" font-weight="bold"
            lengthAdjust="spacing" textLength="63" x="34" y="259.9951">entities
      </text>
    </g><!--cluster boundary-->
    <g id="cluster_boundary">
      <path
        d="M2584.5,288 L2729.5,288 A3.75,3.75 0 0 1 2732,290.5 L2739,310.2969 L2921.5,310.2969 A2.5,2.5 0 0 1 2924,312.7969 L2924,548.5 A2.5,2.5 0 0 1 2921.5,551 L2584.5,551 A2.5,2.5 0 0 1 2582,548.5 L2582,290.5 A2.5,2.5 0 0 1 2584.5,288 "
        fill="none" style="stroke:#000000;stroke-width:1.5;"/>
      <line style="stroke:#000000;stroke-width:1.5;" x1="2582" x2="2739" y1="310.2969"
            y2="310.2969"/>
      <text fill="#000000" font-family="sans-serif" font-size="14" font-weight="bold"
            lengthAdjust="spacing" textLength="144" x="2586" y="302.9951">confirm.boundary
      </text>
    </g><!--cluster control-->
    <g id="cluster_control">
      <path
        d="M2608.5,412 L2668.5,412 A3.75,3.75 0 0 1 2671,414.5 L2678,434.2969 L2897.5,434.2969 A2.5,2.5 0 0 1 2900,436.7969 L2900,524.5 A2.5,2.5 0 0 1 2897.5,527 L2608.5,527 A2.5,2.5 0 0 1 2606,524.5 L2606,414.5 A2.5,2.5 0 0 1 2608.5,412 "
        fill="none" style="stroke:#000000;stroke-width:1.5;"/>
      <line style="stroke:#000000;stroke-width:1.5;" x1="2606" x2="2678" y1="434.2969"
            y2="434.2969"/>
      <text fill="#000000" font-family="sans-serif" font-size="14" font-weight="bold"
            lengthAdjust="spacing" textLength="59" x="2610" y="426.9951">control
      </text>
    </g><!--cluster reservation-->
    <g id="cluster_reservation">
      <path
        d="M56.5,575 L150.5,575 A3.75,3.75 0 0 1 153,577.5 L160,597.2969 L2921.5,597.2969 A2.5,2.5 0 0 1 2924,599.7969 L2924,1373 A2.5,2.5 0 0 1 2921.5,1375.5 L56.5,1375.5 A2.5,2.5 0 0 1 54,1373 L54,577.5 A2.5,2.5 0 0 1 56.5,575 "
        fill="none" style="stroke:#000000;stroke-width:1.5;"/>
      <line style="stroke:#000000;stroke-width:1.5;" x1="54" x2="160" y1="597.2969" y2="597.2969"/>
      <text fill="#000000" font-family="sans-serif" font-size="14" font-weight="bold"
            lengthAdjust="spacing" textLength="93" x="58" y="589.9951">reservation
      </text>
    </g><!--cluster control-->
    <g id="cluster_control">
      <path
        d="M1934.5,658.5 L2075.5,658.5 A3.75,3.75 0 0 1 2078,661 L2085,680.7969 L2897.5,680.7969 A2.5,2.5 0 0 1 2900,683.2969 L2900,1137.5 A2.5,2.5 0 0 1 2897.5,1140 L1934.5,1140 A2.5,2.5 0 0 1 1932,1137.5 L1932,661 A2.5,2.5 0 0 1 1934.5,658.5 "
        fill="none" style="stroke:#000000;stroke-width:1.5;"/>
      <line style="stroke:#000000;stroke-width:1.5;" x1="1932" x2="2085" y1="680.7969"
            y2="680.7969"/>
      <text fill="#000000" font-family="sans-serif" font-size="14" font-weight="bold"
            lengthAdjust="spacing" textLength="140" x="1936" y="673.4951">boundary.control
      </text>
    </g><!--cluster entity-->
    <g id="cluster_entity">
      <path
        d="M1958.5,701.5 L2008.5,701.5 A3.75,3.75 0 0 1 2011,704 L2018,723.7969 L2513.5,723.7969 A2.5,2.5 0 0 1 2516,726.2969 L2516,1113.5 A2.5,2.5 0 0 1 2513.5,1116 L1958.5,1116 A2.5,2.5 0 0 1 1956,1113.5 L1956,704 A2.5,2.5 0 0 1 1958.5,701.5 "
        fill="none" style="stroke:#000000;stroke-width:1.5;"/>
      <line style="stroke:#000000;stroke-width:1.5;" x1="1956" x2="2018" y1="723.7969"
            y2="723.7969"/>
      <text fill="#000000" font-family="sans-serif" font-size="14" font-weight="bold"
            lengthAdjust="spacing" textLength="49" x="1960" y="716.4951">entity
      </text>
    </g><!--cluster trip-->
    <g id="cluster_trip">
      <path
        d="M80.5,618 L111.5,618 A3.75,3.75 0 0 1 114,620.5 L121,640.2969 L1905.5,640.2969 A2.5,2.5 0 0 1 1908,642.7969 L1908,1349 A2.5,2.5 0 0 1 1905.5,1351.5 L80.5,1351.5 A2.5,2.5 0 0 1 78,1349 L78,620.5 A2.5,2.5 0 0 1 80.5,618 "
        fill="none" style="stroke:#000000;stroke-width:1.5;"/>
      <line style="stroke:#000000;stroke-width:1.5;" x1="78" x2="121" y1="640.2969" y2="640.2969"/>
      <text fill="#000000" font-family="sans-serif" font-size="14" font-weight="bold"
            lengthAdjust="spacing" textLength="30" x="82" y="632.9951">trip
      </text>
    </g><!--cluster entity-->
    <g id="cluster_entity">
      <path
        d="M104.5,661 L299.5,661 A3.75,3.75 0 0 1 302,663.5 L309,683.2969 L357.5,683.2969 A2.5,2.5 0 0 1 360,685.7969 L360,1089 A2.5,2.5 0 0 1 357.5,1091.5 L104.5,1091.5 A2.5,2.5 0 0 1 102,1089 L102,663.5 A2.5,2.5 0 0 1 104.5,661 "
        fill="none" style="stroke:#000000;stroke-width:1.5;"/>
      <line style="stroke:#000000;stroke-width:1.5;" x1="102" x2="309" y1="683.2969" y2="683.2969"/>
      <text fill="#000000" font-family="sans-serif" font-size="14" font-weight="bold"
            lengthAdjust="spacing" textLength="194" x="106" y="675.9951">boundary.control.entity
      </text>
    </g><!--cluster entity-->
    <g id="cluster_entity">
      <path
        d="M386.5,968 L646.5,968 A3.75,3.75 0 0 1 649,970.5 L656,990.2969 L656.5,990.2969 A2.5,2.5 0 0 1 659,992.7969 L659,1325 A2.5,2.5 0 0 1 656.5,1327.5 L386.5,1327.5 A2.5,2.5 0 0 1 384,1325 L384,970.5 A2.5,2.5 0 0 1 386.5,968 "
        fill="none" style="stroke:#000000;stroke-width:1.5;"/>
      <line style="stroke:#000000;stroke-width:1.5;" x1="384" x2="656" y1="990.2969" y2="990.2969"/>
      <text fill="#000000" font-family="sans-serif" font-size="14" font-weight="bold"
            lengthAdjust="spacing" textLength="259" x="388" y="982.9951">
        station.boundary.control.entity
      </text>
    </g><!--cluster train-->
    <g id="cluster_train">
      <path
        d="M685.5,874 L726.5,874 A3.75,3.75 0 0 1 729,876.5 L736,896.2969 L1881.5,896.2969 A2.5,2.5 0 0 1 1884,898.7969 L1884,1153.5 A2.5,2.5 0 0 1 1881.5,1156 L685.5,1156 A2.5,2.5 0 0 1 683,1153.5 L683,876.5 A2.5,2.5 0 0 1 685.5,874 "
        fill="none" style="stroke:#000000;stroke-width:1.5;"/>
      <line style="stroke:#000000;stroke-width:1.5;" x1="683" x2="736" y1="896.2969" y2="896.2969"/>
      <text fill="#000000" font-family="sans-serif" font-size="14" font-weight="bold"
            lengthAdjust="spacing" textLength="40" x="687" y="888.9951">train
      </text>
    </g><!--cluster entity-->
    <g id="cluster_entity">
      <path
        d="M1515.5,968 L1710.5,968 A3.75,3.75 0 0 1 1713,970.5 L1720,990.2969 L1857.5,990.2969 A2.5,2.5 0 0 1 1860,992.7969 L1860,1097.5 A2.5,2.5 0 0 1 1857.5,1100 L1515.5,1100 A2.5,2.5 0 0 1 1513,1097.5 L1513,970.5 A2.5,2.5 0 0 1 1515.5,968 "
        fill="none" style="stroke:#000000;stroke-width:1.5;"/>
      <line style="stroke:#000000;stroke-width:1.5;" x1="1513" x2="1720" y1="990.2969"
            y2="990.2969"/>
      <text fill="#000000" font-family="sans-serif" font-size="14" font-weight="bold"
            lengthAdjust="spacing" textLength="194" x="1517" y="982.9951">boundary.control.entity
      </text>
    </g><!--cluster wagon-->
    <g id="cluster_wagon">
      <path
        d="M709.5,917 L763.5,917 A3.75,3.75 0 0 1 766,919.5 L773,939.2969 L1486.5,939.2969 A2.5,2.5 0 0 1 1489,941.7969 L1489,1129.5 A2.5,2.5 0 0 1 1486.5,1132 L709.5,1132 A2.5,2.5 0 0 1 707,1129.5 L707,919.5 A2.5,2.5 0 0 1 709.5,917 "
        fill="none" style="stroke:#000000;stroke-width:1.5;"/>
      <line style="stroke:#000000;stroke-width:1.5;" x1="707" x2="773" y1="939.2969" y2="939.2969"/>
      <text fill="#000000" font-family="sans-serif" font-size="14" font-weight="bold"
            lengthAdjust="spacing" textLength="53" x="711" y="931.9951">wagon
      </text>
    </g><!--cluster entity-->
    <g id="cluster_entity">
      <path
        d="M1104.5,960 L1299.5,960 A3.75,3.75 0 0 1 1302,962.5 L1309,982.2969 L1462.5,982.2969 A2.5,2.5 0 0 1 1465,984.7969 L1465,1105.5 A2.5,2.5 0 0 1 1462.5,1108 L1104.5,1108 A2.5,2.5 0 0 1 1102,1105.5 L1102,962.5 A2.5,2.5 0 0 1 1104.5,960 "
        fill="none" style="stroke:#000000;stroke-width:1.5;"/>
      <line style="stroke:#000000;stroke-width:1.5;" x1="1102" x2="1309" y1="982.2969"
            y2="982.2969"/>
      <text fill="#000000" font-family="sans-serif" font-size="14" font-weight="bold"
            lengthAdjust="spacing" textLength="194" x="1106" y="974.9951">boundary.control.entity
      </text>
    </g><!--cluster entity-->
    <g id="cluster_entity">
      <path
        d="M733.5,968 L969.5,968 A3.75,3.75 0 0 1 972,970.5 L979,990.2969 L1075.5,990.2969 A2.5,2.5 0 0 1 1078,992.7969 L1078,1097.5 A2.5,2.5 0 0 1 1075.5,1100 L733.5,1100 A2.5,2.5 0 0 1 731,1097.5 L731,970.5 A2.5,2.5 0 0 1 733.5,968 "
        fill="none" style="stroke:#000000;stroke-width:1.5;"/>
      <line style="stroke:#000000;stroke-width:1.5;" x1="731" x2="979" y1="990.2969" y2="990.2969"/>
      <text fill="#000000" font-family="sans-serif" font-size="14" font-weight="bold"
            lengthAdjust="spacing" textLength="235" x="735" y="982.9951">
        seat.boundary.control.entity
      </text>
    </g><!--cluster boundary-->
    <g id="cluster_boundary">
      <path
        d="M2234.5,288 L2358.5,288 A3.75,3.75 0 0 1 2361,290.5 L2368,310.2969 L2555.5,310.2969 A2.5,2.5 0 0 1 2558,312.7969 L2558,548.5 A2.5,2.5 0 0 1 2555.5,551 L2234.5,551 A2.5,2.5 0 0 1 2232,548.5 L2232,290.5 A2.5,2.5 0 0 1 2234.5,288 "
        fill="none" style="stroke:#000000;stroke-width:1.5;"/>
      <line style="stroke:#000000;stroke-width:1.5;" x1="2232" x2="2368" y1="310.2969"
            y2="310.2969"/>
      <text fill="#000000" font-family="sans-serif" font-size="14" font-weight="bold"
            lengthAdjust="spacing" textLength="123" x="2236" y="302.9951">reset.boundary
      </text>
    </g><!--cluster control-->
    <g id="cluster_control">
      <path
        d="M2258.5,412 L2318.5,412 A3.75,3.75 0 0 1 2321,414.5 L2328,434.2969 L2531.5,434.2969 A2.5,2.5 0 0 1 2534,436.7969 L2534,524.5 A2.5,2.5 0 0 1 2531.5,527 L2258.5,527 A2.5,2.5 0 0 1 2256,524.5 L2256,414.5 A2.5,2.5 0 0 1 2258.5,412 "
        fill="none" style="stroke:#000000;stroke-width:1.5;"/>
      <line style="stroke:#000000;stroke-width:1.5;" x1="2256" x2="2328" y1="434.2969"
            y2="434.2969"/>
      <text fill="#000000" font-family="sans-serif" font-size="14" font-weight="bold"
            lengthAdjust="spacing" textLength="59" x="2260" y="426.9951">control
      </text>
    </g><!--cluster boundary-->
    <g id="cluster_boundary">
      <path
        d="M1841.5,288 L1980.5,288 A3.75,3.75 0 0 1 1983,290.5 L1990,310.2969 L2172.5,310.2969 A2.5,2.5 0 0 1 2175,312.7969 L2175,548.5 A2.5,2.5 0 0 1 2172.5,551 L1841.5,551 A2.5,2.5 0 0 1 1839,548.5 L1839,290.5 A2.5,2.5 0 0 1 1841.5,288 "
        fill="none" style="stroke:#000000;stroke-width:1.5;"/>
      <line style="stroke:#000000;stroke-width:1.5;" x1="1839" x2="1990" y1="310.2969"
            y2="310.2969"/>
      <text fill="#000000" font-family="sans-serif" font-size="14" font-weight="bold"
            lengthAdjust="spacing" textLength="138" x="1843" y="302.9951">submit.boundary
      </text>
    </g><!--cluster control-->
    <g id="cluster_control">
      <path
        d="M1865.5,412 L1925.5,412 A3.75,3.75 0 0 1 1928,414.5 L1935,434.2969 L2148.5,434.2969 A2.5,2.5 0 0 1 2151,436.7969 L2151,524.5 A2.5,2.5 0 0 1 2148.5,527 L1865.5,527 A2.5,2.5 0 0 1 1863,524.5 L1863,414.5 A2.5,2.5 0 0 1 1865.5,412 "
        fill="none" style="stroke:#000000;stroke-width:1.5;"/>
      <line style="stroke:#000000;stroke-width:1.5;" x1="1863" x2="1935" y1="434.2969"
            y2="434.2969"/>
      <text fill="#000000" font-family="sans-serif" font-size="14" font-weight="bold"
            lengthAdjust="spacing" textLength="59" x="1867" y="426.9951">control
      </text>
    </g><!--cluster boundary-->
    <g id="cluster_boundary">
      <path
        d="M2974.5,944 L3150.5,944 A3.75,3.75 0 0 1 3153,946.5 L3160,966.2969 L3357.5,966.2969 A2.5,2.5 0 0 1 3360,968.7969 L3360,1381.5 A2.5,2.5 0 0 1 3357.5,1384 L2974.5,1384 A2.5,2.5 0 0 1 2972,1381.5 L2972,946.5 A2.5,2.5 0 0 1 2974.5,944 "
        fill="none" style="stroke:#000000;stroke-width:1.5;"/>
      <line style="stroke:#000000;stroke-width:1.5;" x1="2972" x2="3160" y1="966.2969"
            y2="966.2969"/>
      <text fill="#000000" font-family="sans-serif" font-size="14" font-weight="bold"
            lengthAdjust="spacing" textLength="175" x="2976" y="958.9951">persistence.boundary
      </text>
    </g><!--cluster bridge-->
    <g id="cluster_bridge">
      <path
        d="M3001.5,1180 L3053.5,1180 A3.75,3.75 0 0 1 3056,1182.5 L3063,1202.2969 L3330.5,1202.2969 A2.5,2.5 0 0 1 3333,1204.7969 L3333,1357.5 A2.5,2.5 0 0 1 3330.5,1360 L3001.5,1360 A2.5,2.5 0 0 1 2999,1357.5 L2999,1182.5 A2.5,2.5 0 0 1 3001.5,1180 "
        fill="none" style="stroke:#000000;stroke-width:1.5;"/>
      <line style="stroke:#000000;stroke-width:1.5;" x1="2999" x2="3063" y1="1202.2969"
            y2="1202.2969"/>
      <text fill="#000000" font-family="sans-serif" font-size="14" font-weight="bold"
            lengthAdjust="spacing" textLength="51" x="3003" y="1194.9951">bridge
      </text>
    </g><!--cluster boundary-->
    <g id="cluster_boundary">
      <path
        d="M2200.5,49 L2324.5,49 A3.75,3.75 0 0 1 2327,51.5 L2334,71.2969 L2629.5,71.2969 A2.5,2.5 0 0 1 2632,73.7969 L2632,218.5 A2.5,2.5 0 0 1 2629.5,221 L2200.5,221 A2.5,2.5 0 0 1 2198,218.5 L2198,51.5 A2.5,2.5 0 0 1 2200.5,49 "
        fill="none" style="stroke:#000000;stroke-width:1.5;"/>
      <line style="stroke:#000000;stroke-width:1.5;" x1="2198" x2="2334" y1="71.2969" y2="71.2969"/>
      <text fill="#000000" font-family="sans-serif" font-size="14" font-weight="bold"
            lengthAdjust="spacing" textLength="123" x="2202" y="63.9951">reset.boundary
      </text>
    </g><!--cluster boundary-->
    <g id="cluster_boundary">
      <path
        d="M1722.5,53 L1861.5,53 A3.75,3.75 0 0 1 1864,55.5 L1871,75.2969 L2171.5,75.2969 A2.5,2.5 0 0 1 2174,77.7969 L2174,214.5 A2.5,2.5 0 0 1 2171.5,217 L1722.5,217 A2.5,2.5 0 0 1 1720,214.5 L1720,55.5 A2.5,2.5 0 0 1 1722.5,53 "
        fill="none" style="stroke:#000000;stroke-width:1.5;"/>
      <line style="stroke:#000000;stroke-width:1.5;" x1="1720" x2="1871" y1="75.2969" y2="75.2969"/>
      <text fill="#000000" font-family="sans-serif" font-size="14" font-weight="bold"
            lengthAdjust="spacing" textLength="138" x="1724" y="67.9951">submit.boundary
      </text>
    </g><!--class ConfirmUseCase-->
    <g id="elem_ConfirmUseCase">
      <rect codeLine="5" fill="#F1F1F1" height="64.2969" id="ConfirmUseCase" rx="2.5" ry="2.5"
            style="stroke:#181818;stroke-width:0.5;" width="149" x="2678.5" y="112.5"/>
      <ellipse cx="2693.5" cy="128.5" fill="#ADD1B2" rx="11" ry="11"
               style="stroke:#181818;stroke-width:1.0;"/>
      <path
        d="M2695.8438,124.1719 C2694.9063,123.7344 2694.3125,123.5938 2693.4375,123.5938 C2690.8125,123.5938 2688.8125,125.6719 2688.8125,128.3906 L2688.8125,129.5156 C2688.8125,132.0938 2690.9219,133.9844 2693.8125,133.9844 C2695.0313,133.9844 2696.1875,133.6875 2696.9375,133.1406 C2697.5156,132.7344 2697.8438,132.2813 2697.8438,131.8906 C2697.8438,131.4375 2697.4531,131.0469 2696.9844,131.0469 C2696.7656,131.0469 2696.5625,131.125 2696.375,131.3125 C2695.9219,131.7969 2695.9219,131.7969 2695.7344,131.8906 C2695.3125,132.1563 2694.625,132.2813 2693.8594,132.2813 C2691.8125,132.2813 2690.5156,131.1875 2690.5156,129.4844 L2690.5156,128.3906 C2690.5156,126.6094 2691.7656,125.2969 2693.5,125.2969 C2694.0781,125.2969 2694.6875,125.4531 2695.1563,125.7031 C2695.6406,125.9844 2695.8125,126.2031 2695.9063,126.6094 C2695.9688,127.0156 2696,127.1406 2696.1406,127.2656 C2696.2813,127.4063 2696.5156,127.5156 2696.7344,127.5156 C2697,127.5156 2697.2656,127.375 2697.4375,127.1563 C2697.5469,127 2697.5781,126.8125 2697.5781,126.3906 L2697.5781,124.9688 C2697.5781,124.5313 2697.5625,124.4063 2697.4688,124.25 C2697.3125,123.9844 2697.0313,123.8438 2696.7344,123.8438 C2696.4375,123.8438 2696.2344,123.9375 2696.0156,124.25 L2695.8438,124.1719 Z "
        fill="#000000"/>
      <text fill="#000000" font-family="sans-serif" font-size="14" lengthAdjust="spacing"
            textLength="117" x="2707.5" y="133.3467">ConfirmUseCase
      </text>
      <line style="stroke:#181818;stroke-width:0.5;" x1="2679.5" x2="2826.5" y1="144.5" y2="144.5"/>
      <line style="stroke:#181818;stroke-width:0.5;" x1="2679.5" x2="2826.5" y1="152.5" y2="152.5"/>
      <ellipse cx="2689.5" cy="166.1484" fill="#84BE84" rx="3" ry="3"
               style="stroke:#038048;stroke-width:1.0;"/>
      <text fill="#000000" font-family="sans-serif" font-size="14" lengthAdjust="spacing"
            textLength="122" x="2698.5" y="169.4951">void action(UUID)
      </text>
    </g><!--class ConfirmReservationService-->
    <g id="elem_ConfirmReservationService">
      <rect codeLine="8" fill="#F1F1F1" height="64.2969" id="ConfirmReservationService" rx="2.5"
            ry="2.5" style="stroke:#181818;stroke-width:0.5;" width="229" x="2638.5" y="323"/>
      <ellipse cx="2653.5" cy="339" fill="#ADD1B2" rx="11" ry="11"
               style="stroke:#181818;stroke-width:1.0;"/>
      <path
        d="M2655.8438,334.6719 C2654.9063,334.2344 2654.3125,334.0938 2653.4375,334.0938 C2650.8125,334.0938 2648.8125,336.1719 2648.8125,338.8906 L2648.8125,340.0156 C2648.8125,342.5938 2650.9219,344.4844 2653.8125,344.4844 C2655.0313,344.4844 2656.1875,344.1875 2656.9375,343.6406 C2657.5156,343.2344 2657.8438,342.7813 2657.8438,342.3906 C2657.8438,341.9375 2657.4531,341.5469 2656.9844,341.5469 C2656.7656,341.5469 2656.5625,341.625 2656.375,341.8125 C2655.9219,342.2969 2655.9219,342.2969 2655.7344,342.3906 C2655.3125,342.6563 2654.625,342.7813 2653.8594,342.7813 C2651.8125,342.7813 2650.5156,341.6875 2650.5156,339.9844 L2650.5156,338.8906 C2650.5156,337.1094 2651.7656,335.7969 2653.5,335.7969 C2654.0781,335.7969 2654.6875,335.9531 2655.1563,336.2031 C2655.6406,336.4844 2655.8125,336.7031 2655.9063,337.1094 C2655.9688,337.5156 2656,337.6406 2656.1406,337.7656 C2656.2813,337.9063 2656.5156,338.0156 2656.7344,338.0156 C2657,338.0156 2657.2656,337.875 2657.4375,337.6563 C2657.5469,337.5 2657.5781,337.3125 2657.5781,336.8906 L2657.5781,335.4688 C2657.5781,335.0313 2657.5625,334.9063 2657.4688,334.75 C2657.3125,334.4844 2657.0313,334.3438 2656.7344,334.3438 C2656.4375,334.3438 2656.2344,334.4375 2656.0156,334.75 L2655.8438,334.6719 Z "
        fill="#000000"/>
      <text fill="#000000" font-family="sans-serif" font-size="14" lengthAdjust="spacing"
            textLength="197" x="2667.5" y="343.8467">ConfirmReservationService
      </text>
      <line style="stroke:#181818;stroke-width:0.5;" x1="2639.5" x2="2866.5" y1="355" y2="355"/>
      <line style="stroke:#181818;stroke-width:0.5;" x1="2639.5" x2="2866.5" y1="363" y2="363"/>
      <ellipse cx="2649.5" cy="376.6484" fill="#84BE84" rx="3" ry="3"
               style="stroke:#038048;stroke-width:1.0;"/>
      <text fill="#000000" font-family="sans-serif" font-size="14" lengthAdjust="spacing"
            textLength="182" x="2658.5" y="379.9951">void serve(ReservationId)
      </text>
    </g><!--class ConfirmReservationComponent-->
    <g id="elem_ConfirmReservationComponent">
      <rect codeLine="11" fill="#F1F1F1" height="64.2969" id="ConfirmReservationComponent" rx="2.5"
            ry="2.5" style="stroke:#181818;stroke-width:0.5;" width="262" x="2622" y="447"/>
      <ellipse cx="2637" cy="463" fill="#ADD1B2" rx="11" ry="11"
               style="stroke:#181818;stroke-width:1.0;"/>
      <path
        d="M2639.3438,458.6719 C2638.4063,458.2344 2637.8125,458.0938 2636.9375,458.0938 C2634.3125,458.0938 2632.3125,460.1719 2632.3125,462.8906 L2632.3125,464.0156 C2632.3125,466.5938 2634.4219,468.4844 2637.3125,468.4844 C2638.5313,468.4844 2639.6875,468.1875 2640.4375,467.6406 C2641.0156,467.2344 2641.3438,466.7813 2641.3438,466.3906 C2641.3438,465.9375 2640.9531,465.5469 2640.4844,465.5469 C2640.2656,465.5469 2640.0625,465.625 2639.875,465.8125 C2639.4219,466.2969 2639.4219,466.2969 2639.2344,466.3906 C2638.8125,466.6563 2638.125,466.7813 2637.3594,466.7813 C2635.3125,466.7813 2634.0156,465.6875 2634.0156,463.9844 L2634.0156,462.8906 C2634.0156,461.1094 2635.2656,459.7969 2637,459.7969 C2637.5781,459.7969 2638.1875,459.9531 2638.6563,460.2031 C2639.1406,460.4844 2639.3125,460.7031 2639.4063,461.1094 C2639.4688,461.5156 2639.5,461.6406 2639.6406,461.7656 C2639.7813,461.9063 2640.0156,462.0156 2640.2344,462.0156 C2640.5,462.0156 2640.7656,461.875 2640.9375,461.6563 C2641.0469,461.5 2641.0781,461.3125 2641.0781,460.8906 L2641.0781,459.4688 C2641.0781,459.0313 2641.0625,458.9063 2640.9688,458.75 C2640.8125,458.4844 2640.5313,458.3438 2640.2344,458.3438 C2639.9375,458.3438 2639.7344,458.4375 2639.5156,458.75 L2639.3438,458.6719 Z "
        fill="#000000"/>
      <text fill="#000000" font-family="sans-serif" font-size="14" lengthAdjust="spacing"
            textLength="230" x="2651" y="467.8467">ConfirmReservationComponent
      </text>
      <line style="stroke:#181818;stroke-width:0.5;" x1="2623" x2="2883" y1="479" y2="479"/>
      <line style="stroke:#181818;stroke-width:0.5;" x1="2623" x2="2883" y1="487" y2="487"/>
      <ellipse cx="2633" cy="500.6484" fill="#84BE84" rx="3" ry="3"
               style="stroke:#038048;stroke-width:1.0;"/>
      <text fill="#000000" font-family="sans-serif" font-size="14" lengthAdjust="spacing"
            textLength="201" x="2642" y="503.9951">void execute(ReservationId)
      </text>
    </g><!--class ReservationRepository-->
    <g id="elem_ReservationRepository">
      <rect codeLine="14" fill="#F1F1F1" height="129.4844" id="ReservationRepository" rx="2.5"
            ry="2.5" style="stroke:#181818;stroke-width:0.5;" width="352" x="2532" y="712.5"/>
      <ellipse cx="2623.25" cy="728.5" fill="#B4A7E5" rx="11" ry="11"
               style="stroke:#181818;stroke-width:1.0;"/>
      <path
        d="M2624.2031,725.2813 L2625.9219,725.2813 C2626.3125,725.2813 2626.5,725.25 2626.625,725.1719 C2626.8906,725.0156 2627.0313,724.7344 2627.0313,724.4375 C2627.0313,724.1719 2626.9219,723.9063 2626.6875,723.7344 C2626.5156,723.625 2626.375,723.5938 2625.9219,723.5938 L2620.7813,723.5938 C2620.3438,723.5938 2620.2188,723.6094 2620.0625,723.7031 C2619.8125,723.8594 2619.6563,724.1563 2619.6563,724.4375 C2619.6563,724.7188 2619.7969,724.9688 2620.0156,725.1406 C2620.1719,725.25 2620.3594,725.2813 2620.7813,725.2813 L2622.5,725.2813 L2622.5,731.7969 L2620.7813,731.7969 C2620.3438,731.7969 2620.2188,731.8125 2620.0625,731.9219 C2619.8125,732.0781 2619.6563,732.3594 2619.6563,732.6563 C2619.6563,732.9063 2619.7969,733.1719 2620.0156,733.3281 C2620.1719,733.4531 2620.375,733.5 2620.7813,733.5 L2625.9219,733.5 C2626.6719,733.5 2627.0313,733.2188 2627.0313,732.6563 C2627.0313,732.375 2626.9219,732.125 2626.6875,731.9531 C2626.5156,731.8281 2626.375,731.7969 2625.9219,731.7969 L2624.2031,731.7969 L2624.2031,725.2813 Z "
        fill="#000000"/>
      <text fill="#000000" font-family="sans-serif" font-size="14" font-style="italic"
            lengthAdjust="spacing" textLength="161" x="2643.75" y="733.3467">ReservationRepository
      </text>
      <line style="stroke:#181818;stroke-width:0.5;" x1="2533" x2="2883" y1="744.5" y2="744.5"/>
      <line style="stroke:#181818;stroke-width:0.5;" x1="2533" x2="2883" y1="752.5" y2="752.5"/>
      <ellipse cx="2543" cy="766.1484" fill="#84BE84" rx="3" ry="3"
               style="stroke:#038048;stroke-width:1.0;"/>
      <text fill="#000000" font-family="sans-serif" font-size="14" font-style="italic"
            lengthAdjust="spacing" textLength="326" x="2552" y="769.4951">Optional&lt;Reservation&gt;
        findBy(ReservationId)
      </text>
      <ellipse cx="2543" cy="782.4453" fill="#84BE84" rx="3" ry="3"
               style="stroke:#038048;stroke-width:1.0;"/>
      <text fill="#000000" font-family="sans-serif" font-size="14" font-style="italic"
            lengthAdjust="spacing" textLength="217" x="2552" y="785.792">Reservation
        save(Reservation)
      </text>
      <ellipse cx="2543" cy="798.7422" fill="#84BE84" rx="3" ry="3"
               style="stroke:#038048;stroke-width:1.0;"/>
      <text fill="#000000" font-family="sans-serif" font-size="14" font-style="italic"
            lengthAdjust="spacing" textLength="190" x="2552" y="802.0889">void submit(ReservationId)
      </text>
      <ellipse cx="2543" cy="815.0391" fill="#84BE84" rx="3" ry="3"
               style="stroke:#038048;stroke-width:1.0;"/>
      <text fill="#000000" font-family="sans-serif" font-size="14" font-style="italic"
            lengthAdjust="spacing" textLength="197" x="2552" y="818.3857">void
        confirm(ReservationId)
      </text>
      <ellipse cx="2543" cy="831.3359" fill="#84BE84" rx="3" ry="3"
               style="stroke:#038048;stroke-width:1.0;"/>
      <text fill="#000000" font-family="sans-serif" font-size="14" font-style="italic"
            lengthAdjust="spacing" textLength="178" x="2552" y="834.6826">void reset(ReservationId)
      </text>
    </g><!--class Reservation-->
    <g id="elem_Reservation">
      <rect codeLine="21" fill="#F1F1F1" height="80.5938" id="Reservation" rx="2.5" ry="2.5"
            style="stroke:#181818;stroke-width:0.5;" width="243" x="2084.5" y="736.5"/>
      <ellipse cx="2158.75" cy="752.5" fill="#ADD1B2" rx="11" ry="11"
               style="stroke:#181818;stroke-width:1.0;"/>
      <path
        d="M2161.0938,748.1719 C2160.1563,747.7344 2159.5625,747.5938 2158.6875,747.5938 C2156.0625,747.5938 2154.0625,749.6719 2154.0625,752.3906 L2154.0625,753.5156 C2154.0625,756.0938 2156.1719,757.9844 2159.0625,757.9844 C2160.2813,757.9844 2161.4375,757.6875 2162.1875,757.1406 C2162.7656,756.7344 2163.0938,756.2813 2163.0938,755.8906 C2163.0938,755.4375 2162.7031,755.0469 2162.2344,755.0469 C2162.0156,755.0469 2161.8125,755.125 2161.625,755.3125 C2161.1719,755.7969 2161.1719,755.7969 2160.9844,755.8906 C2160.5625,756.1563 2159.875,756.2813 2159.1094,756.2813 C2157.0625,756.2813 2155.7656,755.1875 2155.7656,753.4844 L2155.7656,752.3906 C2155.7656,750.6094 2157.0156,749.2969 2158.75,749.2969 C2159.3281,749.2969 2159.9375,749.4531 2160.4063,749.7031 C2160.8906,749.9844 2161.0625,750.2031 2161.1563,750.6094 C2161.2188,751.0156 2161.25,751.1406 2161.3906,751.2656 C2161.5313,751.4063 2161.7656,751.5156 2161.9844,751.5156 C2162.25,751.5156 2162.5156,751.375 2162.6875,751.1563 C2162.7969,751 2162.8281,750.8125 2162.8281,750.3906 L2162.8281,748.9688 C2162.8281,748.5313 2162.8125,748.4063 2162.7188,748.25 C2162.5625,747.9844 2162.2813,747.8438 2161.9844,747.8438 C2161.6875,747.8438 2161.4844,747.9375 2161.2656,748.25 L2161.0938,748.1719 Z "
        fill="#000000"/>
      <text fill="#000000" font-family="sans-serif" font-size="14" lengthAdjust="spacing"
            textLength="86" x="2179.25" y="757.3467">Reservation
      </text>
      <line style="stroke:#181818;stroke-width:0.5;" x1="2085.5" x2="2326.5" y1="768.5" y2="768.5"/>
      <line style="stroke:#181818;stroke-width:0.5;" x1="2085.5" x2="2326.5" y1="776.5" y2="776.5"/>
      <ellipse cx="2095.5" cy="790.1484" fill="#84BE84" rx="3" ry="3"
               style="stroke:#038048;stroke-width:1.0;"/>
      <text fill="#000000" font-family="sans-serif" font-size="14" lengthAdjust="spacing"
            textLength="151" x="2104.5" y="793.4951">ReservationId getId()
      </text>
      <ellipse cx="2095.5" cy="806.4453" fill="#84BE84" rx="3" ry="3"
               style="stroke:#038048;stroke-width:1.0;"/>
      <text fill="#000000" font-family="sans-serif" font-size="14" lengthAdjust="spacing"
            textLength="217" x="2104.5" y="809.792">ReservationStatus getStatus()
      </text>
    </g><!--class ReservationId-->
    <g id="elem_ReservationId">
      <rect codeLine="25" fill="#F1F1F1" height="64.2969" id="ReservationId" rx="2.5" ry="2.5"
            style="stroke:#181818;stroke-width:0.5;" width="131" x="1972.5" y="1011.5"/>
      <ellipse cx="1987.5" cy="1027.5" fill="#ADD1B2" rx="11" ry="11"
               style="stroke:#181818;stroke-width:1.0;"/>
      <path
        d="M1989.8438,1023.1719 C1988.9063,1022.7344 1988.3125,1022.5938 1987.4375,1022.5938 C1984.8125,1022.5938 1982.8125,1024.6719 1982.8125,1027.3906 L1982.8125,1028.5156 C1982.8125,1031.0938 1984.9219,1032.9844 1987.8125,1032.9844 C1989.0313,1032.9844 1990.1875,1032.6875 1990.9375,1032.1406 C1991.5156,1031.7344 1991.8438,1031.2813 1991.8438,1030.8906 C1991.8438,1030.4375 1991.4531,1030.0469 1990.9844,1030.0469 C1990.7656,1030.0469 1990.5625,1030.125 1990.375,1030.3125 C1989.9219,1030.7969 1989.9219,1030.7969 1989.7344,1030.8906 C1989.3125,1031.1563 1988.625,1031.2813 1987.8594,1031.2813 C1985.8125,1031.2813 1984.5156,1030.1875 1984.5156,1028.4844 L1984.5156,1027.3906 C1984.5156,1025.6094 1985.7656,1024.2969 1987.5,1024.2969 C1988.0781,1024.2969 1988.6875,1024.4531 1989.1563,1024.7031 C1989.6406,1024.9844 1989.8125,1025.2031 1989.9063,1025.6094 C1989.9688,1026.0156 1990,1026.1406 1990.1406,1026.2656 C1990.2813,1026.4063 1990.5156,1026.5156 1990.7344,1026.5156 C1991,1026.5156 1991.2656,1026.375 1991.4375,1026.1563 C1991.5469,1026 1991.5781,1025.8125 1991.5781,1025.3906 L1991.5781,1023.9688 C1991.5781,1023.5313 1991.5625,1023.4063 1991.4688,1023.25 C1991.3125,1022.9844 1991.0313,1022.8438 1990.7344,1022.8438 C1990.4375,1022.8438 1990.2344,1022.9375 1990.0156,1023.25 L1989.8438,1023.1719 Z "
        fill="#000000"/>
      <text fill="#000000" font-family="sans-serif" font-size="14" lengthAdjust="spacing"
            textLength="99" x="2001.5" y="1032.3467">ReservationId
      </text>
      <line style="stroke:#181818;stroke-width:0.5;" x1="1973.5" x2="2102.5" y1="1043.5"
            y2="1043.5"/>
      <line style="stroke:#181818;stroke-width:0.5;" x1="1973.5" x2="2102.5" y1="1051.5"
            y2="1051.5"/>
      <ellipse cx="1983.5" cy="1065.1484" fill="#84BE84" rx="3" ry="3"
               style="stroke:#038048;stroke-width:1.0;"/>
      <text fill="#000000" font-family="sans-serif" font-size="14" lengthAdjust="spacing"
            textLength="85" x="1992.5" y="1068.4951">UUID getId()
      </text>
    </g><!--class ReservationStatus-->
    <g id="elem_ReservationStatus">
      <rect codeLine="28" fill="#F1F1F1" height="113.1875" id="ReservationStatus" rx="2.5" ry="2.5"
            style="stroke:#181818;stroke-width:0.5;" width="361" x="2138.5" y="987"/>
      <ellipse cx="2248.75" cy="1003" fill="#EB937F" rx="11" ry="11"
               style="stroke:#181818;stroke-width:1.0;"/>
      <path
        d="M2247.5469,1003.875 L2249,1003.875 L2249,1003.9844 C2249,1004.3906 2249.0313,1004.5469 2249.1094,1004.7031 C2249.2656,1004.9531 2249.5469,1005.1094 2249.8438,1005.1094 C2250.0938,1005.1094 2250.3594,1004.9688 2250.5156,1004.75 C2250.6406,1004.5938 2250.6719,1004.4375 2250.6719,1003.9844 L2250.6719,1002.0625 C2250.6719,1001.9063 2250.6719,1001.8594 2250.6563,1001.7031 C2250.5938,1001.2344 2250.2813,1000.9219 2249.8281,1000.9219 C2249.5781,1000.9219 2249.3125,1001.0625 2249.1406,1001.2813 C2249.0313,1001.4531 2249,1001.6094 2249,1002.0625 L2249,1002.1875 L2247.5469,1002.1875 L2247.5469,999.7813 L2251.5313,999.7813 L2251.5313,1000.6406 C2251.5313,1001.0469 2251.5625,1001.2188 2251.6406,1001.375 C2251.8125,1001.625 2252.0938,1001.7813 2252.375,1001.7813 C2252.6406,1001.7813 2252.9063,1001.6406 2253.0781,1001.4219 C2253.1875,1001.25 2253.2188,1001.1094 2253.2188,1000.6406 L2253.2188,998.0938 L2245.5938,998.0938 C2245.1563,998.0938 2245.0313,998.1094 2244.875,998.2031 C2244.625,998.3594 2244.4688,998.6563 2244.4688,998.9375 C2244.4688,999.2188 2244.6094,999.4688 2244.8281,999.6406 C2244.9844,999.75 2245.1719,999.7813 2245.5938,999.7813 L2245.8438,999.7813 L2245.8438,1006.2969 L2245.5938,1006.2969 C2245.1875,1006.2969 2245.0313,1006.3125 2244.875,1006.4219 C2244.625,1006.5938 2244.4688,1006.8594 2244.4688,1007.1563 C2244.4688,1007.4219 2244.6094,1007.6719 2244.8281,1007.8281 C2244.9688,1007.9531 2245.2031,1008 2245.5938,1008 L2253.5938,1008 L2253.5938,1005.4219 C2253.5938,1004.9844 2253.5625,1004.8438 2253.4844,1004.6875 C2253.3125,1004.4375 2253.0313,1004.2813 2252.75,1004.2813 C2252.4844,1004.2813 2252.2188,1004.3906 2252.0469,1004.6406 C2251.9375,1004.7969 2251.9063,1004.9375 2251.9063,1005.4219 L2251.9063,1006.2969 L2247.5469,1006.2969 L2247.5469,1003.875 Z "
        fill="#000000"/>
      <text fill="#000000" font-family="sans-serif" font-size="14" lengthAdjust="spacing"
            textLength="132" x="2269.25" y="1007.8467">ReservationStatus
      </text>
      <line style="stroke:#181818;stroke-width:0.5;" x1="2139.5" x2="2498.5" y1="1019" y2="1019"/>
      <text fill="#000000" font-family="sans-serif" font-size="14" lengthAdjust="spacing"
            textLength="53" x="2144.5" y="1035.9951">SUBMIT
      </text>
      <text fill="#000000" font-family="sans-serif" font-size="14" lengthAdjust="spacing"
            textLength="65" x="2144.5" y="1052.292">CONFIRM
      </text>
      <text fill="#000000" font-family="sans-serif" font-size="14" lengthAdjust="spacing"
            textLength="46" x="2144.5" y="1068.5889">RESET
      </text>
      <line style="stroke:#181818;stroke-width:0.5;" x1="2139.5" x2="2498.5" y1="1075.8906"
            y2="1075.8906"/>
      <ellipse cx="2149.5" cy="1089.5391" fill="#84BE84" rx="3" ry="3"
               style="stroke:#038048;stroke-width:1.0;"/>
      <text fill="#000000" font-family="sans-serif" font-size="14" lengthAdjust="spacing"
            text-decoration="underline" textLength="335" x="2158.5" y="1092.8857">EnumEntries&lt;ReservationStatus&gt;
        getEntries()
      </text>
    </g><!--class Trip-->
    <g id="elem_Trip">
      <rect codeLine="35" fill="#F1F1F1" height="162.0781" id="Trip" rx="2.5" ry="2.5"
            style="stroke:#181818;stroke-width:0.5;" width="226" x="118" y="696"/>
      <ellipse cx="212.25" cy="712" fill="#ADD1B2" rx="11" ry="11"
               style="stroke:#181818;stroke-width:1.0;"/>
      <path
        d="M214.5938,707.6719 C213.6563,707.2344 213.0625,707.0938 212.1875,707.0938 C209.5625,707.0938 207.5625,709.1719 207.5625,711.8906 L207.5625,713.0156 C207.5625,715.5938 209.6719,717.4844 212.5625,717.4844 C213.7813,717.4844 214.9375,717.1875 215.6875,716.6406 C216.2656,716.2344 216.5938,715.7813 216.5938,715.3906 C216.5938,714.9375 216.2031,714.5469 215.7344,714.5469 C215.5156,714.5469 215.3125,714.625 215.125,714.8125 C214.6719,715.2969 214.6719,715.2969 214.4844,715.3906 C214.0625,715.6563 213.375,715.7813 212.6094,715.7813 C210.5625,715.7813 209.2656,714.6875 209.2656,712.9844 L209.2656,711.8906 C209.2656,710.1094 210.5156,708.7969 212.25,708.7969 C212.8281,708.7969 213.4375,708.9531 213.9063,709.2031 C214.3906,709.4844 214.5625,709.7031 214.6563,710.1094 C214.7188,710.5156 214.75,710.6406 214.8906,710.7656 C215.0313,710.9063 215.2656,711.0156 215.4844,711.0156 C215.75,711.0156 216.0156,710.875 216.1875,710.6563 C216.2969,710.5 216.3281,710.3125 216.3281,709.8906 L216.3281,708.4688 C216.3281,708.0313 216.3125,707.9063 216.2188,707.75 C216.0625,707.4844 215.7813,707.3438 215.4844,707.3438 C215.1875,707.3438 214.9844,707.4375 214.7656,707.75 L214.5938,707.6719 Z "
        fill="#000000"/>
      <text fill="#000000" font-family="sans-serif" font-size="14" lengthAdjust="spacing"
            textLength="29" x="232.75" y="716.8467">Trip
      </text>
      <line style="stroke:#181818;stroke-width:0.5;" x1="119" x2="343" y1="728" y2="728"/>
      <line style="stroke:#181818;stroke-width:0.5;" x1="119" x2="343" y1="736" y2="736"/>
      <ellipse cx="129" cy="749.6484" fill="#84BE84" rx="3" ry="3"
               style="stroke:#038048;stroke-width:1.0;"/>
      <text fill="#000000" font-family="sans-serif" font-size="14" lengthAdjust="spacing"
            textLength="94" x="138" y="752.9951">TripId getId()
      </text>
      <ellipse cx="129" cy="765.9453" fill="#84BE84" rx="3" ry="3"
               style="stroke:#038048;stroke-width:1.0;"/>
      <text fill="#000000" font-family="sans-serif" font-size="14" lengthAdjust="spacing"
            textLength="135" x="138" y="769.292">Station getOrigin()
      </text>
      <ellipse cx="129" cy="782.2422" fill="#84BE84" rx="3" ry="3"
               style="stroke:#038048;stroke-width:1.0;"/>
      <text fill="#000000" font-family="sans-serif" font-size="14" lengthAdjust="spacing"
            textLength="176" x="138" y="785.5889">Station getDestination()
      </text>
      <ellipse cx="129" cy="798.5391" fill="#84BE84" rx="3" ry="3"
               style="stroke:#038048;stroke-width:1.0;"/>
      <text fill="#000000" font-family="sans-serif" font-size="14" lengthAdjust="spacing"
            textLength="200" x="138" y="801.8857">List&lt;Station&gt; getStations()
      </text>
      <ellipse cx="129" cy="814.8359" fill="#84BE84" rx="3" ry="3"
               style="stroke:#038048;stroke-width:1.0;"/>
      <text fill="#000000" font-family="sans-serif" font-size="14" lengthAdjust="spacing"
            textLength="111" x="138" y="818.1826">Train getTrain()
      </text>
      <ellipse cx="129" cy="831.1328" fill="#84BE84" rx="3" ry="3"
               style="stroke:#038048;stroke-width:1.0;"/>
      <text fill="#000000" font-family="sans-serif" font-size="14" lengthAdjust="spacing"
            textLength="105" x="138" y="834.4795">Seat getSeat()
      </text>
      <ellipse cx="129" cy="847.4297" fill="#84BE84" rx="3" ry="3"
               style="stroke:#038048;stroke-width:1.0;"/>
      <text fill="#000000" font-family="sans-serif" font-size="14" lengthAdjust="spacing"
            textLength="137" x="138" y="850.7764">Wagon getWagon()
      </text>
    </g><!--class TripId-->
    <g id="elem_TripId">
      <rect codeLine="44" fill="#F1F1F1" height="64.2969" id="TripId" rx="2.5" ry="2.5"
            style="stroke:#181818;stroke-width:0.5;" width="111" x="175.5" y="1011.5"/>
      <ellipse cx="207.15" cy="1027.5" fill="#ADD1B2" rx="11" ry="11"
               style="stroke:#181818;stroke-width:1.0;"/>
      <path
        d="M209.4938,1023.1719 C208.5563,1022.7344 207.9625,1022.5938 207.0875,1022.5938 C204.4625,1022.5938 202.4625,1024.6719 202.4625,1027.3906 L202.4625,1028.5156 C202.4625,1031.0938 204.5719,1032.9844 207.4625,1032.9844 C208.6813,1032.9844 209.8375,1032.6875 210.5875,1032.1406 C211.1656,1031.7344 211.4938,1031.2813 211.4938,1030.8906 C211.4938,1030.4375 211.1031,1030.0469 210.6344,1030.0469 C210.4156,1030.0469 210.2125,1030.125 210.025,1030.3125 C209.5719,1030.7969 209.5719,1030.7969 209.3844,1030.8906 C208.9625,1031.1563 208.275,1031.2813 207.5094,1031.2813 C205.4625,1031.2813 204.1656,1030.1875 204.1656,1028.4844 L204.1656,1027.3906 C204.1656,1025.6094 205.4156,1024.2969 207.15,1024.2969 C207.7281,1024.2969 208.3375,1024.4531 208.8063,1024.7031 C209.2906,1024.9844 209.4625,1025.2031 209.5563,1025.6094 C209.6188,1026.0156 209.65,1026.1406 209.7906,1026.2656 C209.9313,1026.4063 210.1656,1026.5156 210.3844,1026.5156 C210.65,1026.5156 210.9156,1026.375 211.0875,1026.1563 C211.1969,1026 211.2281,1025.8125 211.2281,1025.3906 L211.2281,1023.9688 C211.2281,1023.5313 211.2125,1023.4063 211.1188,1023.25 C210.9625,1022.9844 210.6813,1022.8438 210.3844,1022.8438 C210.0875,1022.8438 209.8844,1022.9375 209.6656,1023.25 L209.4938,1023.1719 Z "
        fill="#000000"/>
      <text fill="#000000" font-family="sans-serif" font-size="14" lengthAdjust="spacing"
            textLength="42" x="224.85" y="1032.3467">TripId
      </text>
      <line style="stroke:#181818;stroke-width:0.5;" x1="176.5" x2="285.5" y1="1043.5" y2="1043.5"/>
      <line style="stroke:#181818;stroke-width:0.5;" x1="176.5" x2="285.5" y1="1051.5" y2="1051.5"/>
      <ellipse cx="186.5" cy="1065.1484" fill="#84BE84" rx="3" ry="3"
               style="stroke:#038048;stroke-width:1.0;"/>
      <text fill="#000000" font-family="sans-serif" font-size="14" lengthAdjust="spacing"
            textLength="85" x="195.5" y="1068.4951">UUID getId()
      </text>
    </g><!--class Station-->
    <g id="elem_Station">
      <rect codeLine="47" fill="#F1F1F1" height="80.5938" id="Station" rx="2.5" ry="2.5"
            style="stroke:#181818;stroke-width:0.5;" width="150" x="400" y="1003"/>
      <ellipse cx="444.25" cy="1019" fill="#ADD1B2" rx="11" ry="11"
               style="stroke:#181818;stroke-width:1.0;"/>
      <path
        d="M446.5938,1014.6719 C445.6563,1014.2344 445.0625,1014.0938 444.1875,1014.0938 C441.5625,1014.0938 439.5625,1016.1719 439.5625,1018.8906 L439.5625,1020.0156 C439.5625,1022.5938 441.6719,1024.4844 444.5625,1024.4844 C445.7813,1024.4844 446.9375,1024.1875 447.6875,1023.6406 C448.2656,1023.2344 448.5938,1022.7813 448.5938,1022.3906 C448.5938,1021.9375 448.2031,1021.5469 447.7344,1021.5469 C447.5156,1021.5469 447.3125,1021.625 447.125,1021.8125 C446.6719,1022.2969 446.6719,1022.2969 446.4844,1022.3906 C446.0625,1022.6563 445.375,1022.7813 444.6094,1022.7813 C442.5625,1022.7813 441.2656,1021.6875 441.2656,1019.9844 L441.2656,1018.8906 C441.2656,1017.1094 442.5156,1015.7969 444.25,1015.7969 C444.8281,1015.7969 445.4375,1015.9531 445.9063,1016.2031 C446.3906,1016.4844 446.5625,1016.7031 446.6563,1017.1094 C446.7188,1017.5156 446.75,1017.6406 446.8906,1017.7656 C447.0313,1017.9063 447.2656,1018.0156 447.4844,1018.0156 C447.75,1018.0156 448.0156,1017.875 448.1875,1017.6563 C448.2969,1017.5 448.3281,1017.3125 448.3281,1016.8906 L448.3281,1015.4688 C448.3281,1015.0313 448.3125,1014.9063 448.2188,1014.75 C448.0625,1014.4844 447.7813,1014.3438 447.4844,1014.3438 C447.1875,1014.3438 446.9844,1014.4375 446.7656,1014.75 L446.5938,1014.6719 Z "
        fill="#000000"/>
      <text fill="#000000" font-family="sans-serif" font-size="14" lengthAdjust="spacing"
            textLength="53" x="464.75" y="1023.8467">Station
      </text>
      <line style="stroke:#181818;stroke-width:0.5;" x1="401" x2="549" y1="1035" y2="1035"/>
      <line style="stroke:#181818;stroke-width:0.5;" x1="401" x2="549" y1="1043" y2="1043"/>
      <ellipse cx="411" cy="1056.6484" fill="#84BE84" rx="3" ry="3"
               style="stroke:#038048;stroke-width:1.0;"/>
      <text fill="#000000" font-family="sans-serif" font-size="14" lengthAdjust="spacing"
            textLength="118" x="420" y="1059.9951">StationId getId()
      </text>
      <ellipse cx="411" cy="1072.9453" fill="#84BE84" rx="3" ry="3"
               style="stroke:#038048;stroke-width:1.0;"/>
      <text fill="#000000" font-family="sans-serif" font-size="14" lengthAdjust="spacing"
            textLength="124" x="420" y="1076.292">String getName()
      </text>
    </g><!--class StationId-->
    <g id="elem_StationId">
      <rect codeLine="51" fill="#F1F1F1" height="64.2969" id="StationId" rx="2.5" ry="2.5"
            style="stroke:#181818;stroke-width:0.5;" width="111" x="419.5" y="1247.5"/>
      <ellipse cx="440.35" cy="1263.5" fill="#ADD1B2" rx="11" ry="11"
               style="stroke:#181818;stroke-width:1.0;"/>
      <path
        d="M442.6938,1259.1719 C441.7563,1258.7344 441.1625,1258.5938 440.2875,1258.5938 C437.6625,1258.5938 435.6625,1260.6719 435.6625,1263.3906 L435.6625,1264.5156 C435.6625,1267.0938 437.7719,1268.9844 440.6625,1268.9844 C441.8813,1268.9844 443.0375,1268.6875 443.7875,1268.1406 C444.3656,1267.7344 444.6938,1267.2813 444.6938,1266.8906 C444.6938,1266.4375 444.3031,1266.0469 443.8344,1266.0469 C443.6156,1266.0469 443.4125,1266.125 443.225,1266.3125 C442.7719,1266.7969 442.7719,1266.7969 442.5844,1266.8906 C442.1625,1267.1563 441.475,1267.2813 440.7094,1267.2813 C438.6625,1267.2813 437.3656,1266.1875 437.3656,1264.4844 L437.3656,1263.3906 C437.3656,1261.6094 438.6156,1260.2969 440.35,1260.2969 C440.9281,1260.2969 441.5375,1260.4531 442.0063,1260.7031 C442.4906,1260.9844 442.6625,1261.2031 442.7563,1261.6094 C442.8188,1262.0156 442.85,1262.1406 442.9906,1262.2656 C443.1313,1262.4063 443.3656,1262.5156 443.5844,1262.5156 C443.85,1262.5156 444.1156,1262.375 444.2875,1262.1563 C444.3969,1262 444.4281,1261.8125 444.4281,1261.3906 L444.4281,1259.9688 C444.4281,1259.5313 444.4125,1259.4063 444.3188,1259.25 C444.1625,1258.9844 443.8813,1258.8438 443.5844,1258.8438 C443.2875,1258.8438 443.0844,1258.9375 442.8656,1259.25 L442.6938,1259.1719 Z "
        fill="#000000"/>
      <text fill="#000000" font-family="sans-serif" font-size="14" lengthAdjust="spacing"
            textLength="66" x="455.65" y="1268.3467">StationId
      </text>
      <line style="stroke:#181818;stroke-width:0.5;" x1="420.5" x2="529.5" y1="1279.5" y2="1279.5"/>
      <line style="stroke:#181818;stroke-width:0.5;" x1="420.5" x2="529.5" y1="1287.5" y2="1287.5"/>
      <ellipse cx="430.5" cy="1301.1484" fill="#84BE84" rx="3" ry="3"
               style="stroke:#038048;stroke-width:1.0;"/>
      <text fill="#000000" font-family="sans-serif" font-size="14" lengthAdjust="spacing"
            textLength="85" x="439.5" y="1304.4951">UUID getId()
      </text>
    </g><!--class Train-->
    <g id="elem_Train">
      <rect codeLine="54" fill="#F1F1F1" height="80.5938" id="Train" rx="2.5" ry="2.5"
            style="stroke:#181818;stroke-width:0.5;" width="150" x="1676" y="1003"/>
      <ellipse cx="1728.75" cy="1019" fill="#ADD1B2" rx="11" ry="11"
               style="stroke:#181818;stroke-width:1.0;"/>
      <path
        d="M1731.0938,1014.6719 C1730.1563,1014.2344 1729.5625,1014.0938 1728.6875,1014.0938 C1726.0625,1014.0938 1724.0625,1016.1719 1724.0625,1018.8906 L1724.0625,1020.0156 C1724.0625,1022.5938 1726.1719,1024.4844 1729.0625,1024.4844 C1730.2813,1024.4844 1731.4375,1024.1875 1732.1875,1023.6406 C1732.7656,1023.2344 1733.0938,1022.7813 1733.0938,1022.3906 C1733.0938,1021.9375 1732.7031,1021.5469 1732.2344,1021.5469 C1732.0156,1021.5469 1731.8125,1021.625 1731.625,1021.8125 C1731.1719,1022.2969 1731.1719,1022.2969 1730.9844,1022.3906 C1730.5625,1022.6563 1729.875,1022.7813 1729.1094,1022.7813 C1727.0625,1022.7813 1725.7656,1021.6875 1725.7656,1019.9844 L1725.7656,1018.8906 C1725.7656,1017.1094 1727.0156,1015.7969 1728.75,1015.7969 C1729.3281,1015.7969 1729.9375,1015.9531 1730.4063,1016.2031 C1730.8906,1016.4844 1731.0625,1016.7031 1731.1563,1017.1094 C1731.2188,1017.5156 1731.25,1017.6406 1731.3906,1017.7656 C1731.5313,1017.9063 1731.7656,1018.0156 1731.9844,1018.0156 C1732.25,1018.0156 1732.5156,1017.875 1732.6875,1017.6563 C1732.7969,1017.5 1732.8281,1017.3125 1732.8281,1016.8906 L1732.8281,1015.4688 C1732.8281,1015.0313 1732.8125,1014.9063 1732.7188,1014.75 C1732.5625,1014.4844 1732.2813,1014.3438 1731.9844,1014.3438 C1731.6875,1014.3438 1731.4844,1014.4375 1731.2656,1014.75 L1731.0938,1014.6719 Z "
        fill="#000000"/>
      <text fill="#000000" font-family="sans-serif" font-size="14" lengthAdjust="spacing"
            textLength="36" x="1749.25" y="1023.8467">Train
      </text>
      <line style="stroke:#181818;stroke-width:0.5;" x1="1677" x2="1825" y1="1035" y2="1035"/>
      <line style="stroke:#181818;stroke-width:0.5;" x1="1677" x2="1825" y1="1043" y2="1043"/>
      <ellipse cx="1687" cy="1056.6484" fill="#84BE84" rx="3" ry="3"
               style="stroke:#038048;stroke-width:1.0;"/>
      <text fill="#000000" font-family="sans-serif" font-size="14" lengthAdjust="spacing"
            textLength="88" x="1696" y="1059.9951">Train getId()
      </text>
      <ellipse cx="1687" cy="1072.9453" fill="#84BE84" rx="3" ry="3"
               style="stroke:#038048;stroke-width:1.0;"/>
      <text fill="#000000" font-family="sans-serif" font-size="14" lengthAdjust="spacing"
            textLength="124" x="1696" y="1076.292">String getName()
      </text>
    </g><!--class TrainId-->
    <g id="elem_TrainId">
      <rect codeLine="58" fill="#F1F1F1" height="64.2969" id="TrainId" rx="2.5" ry="2.5"
            style="stroke:#181818;stroke-width:0.5;" width="111" x="1529.5" y="1011.5"/>
      <ellipse cx="1558" cy="1027.5" fill="#ADD1B2" rx="11" ry="11"
               style="stroke:#181818;stroke-width:1.0;"/>
      <path
        d="M1560.3438,1023.1719 C1559.4063,1022.7344 1558.8125,1022.5938 1557.9375,1022.5938 C1555.3125,1022.5938 1553.3125,1024.6719 1553.3125,1027.3906 L1553.3125,1028.5156 C1553.3125,1031.0938 1555.4219,1032.9844 1558.3125,1032.9844 C1559.5313,1032.9844 1560.6875,1032.6875 1561.4375,1032.1406 C1562.0156,1031.7344 1562.3438,1031.2813 1562.3438,1030.8906 C1562.3438,1030.4375 1561.9531,1030.0469 1561.4844,1030.0469 C1561.2656,1030.0469 1561.0625,1030.125 1560.875,1030.3125 C1560.4219,1030.7969 1560.4219,1030.7969 1560.2344,1030.8906 C1559.8125,1031.1563 1559.125,1031.2813 1558.3594,1031.2813 C1556.3125,1031.2813 1555.0156,1030.1875 1555.0156,1028.4844 L1555.0156,1027.3906 C1555.0156,1025.6094 1556.2656,1024.2969 1558,1024.2969 C1558.5781,1024.2969 1559.1875,1024.4531 1559.6563,1024.7031 C1560.1406,1024.9844 1560.3125,1025.2031 1560.4063,1025.6094 C1560.4688,1026.0156 1560.5,1026.1406 1560.6406,1026.2656 C1560.7813,1026.4063 1561.0156,1026.5156 1561.2344,1026.5156 C1561.5,1026.5156 1561.7656,1026.375 1561.9375,1026.1563 C1562.0469,1026 1562.0781,1025.8125 1562.0781,1025.3906 L1562.0781,1023.9688 C1562.0781,1023.5313 1562.0625,1023.4063 1561.9688,1023.25 C1561.8125,1022.9844 1561.5313,1022.8438 1561.2344,1022.8438 C1560.9375,1022.8438 1560.7344,1022.9375 1560.5156,1023.25 L1560.3438,1023.1719 Z "
        fill="#000000"/>
      <text fill="#000000" font-family="sans-serif" font-size="14" lengthAdjust="spacing"
            textLength="49" x="1575" y="1032.3467">TrainId
      </text>
      <line style="stroke:#181818;stroke-width:0.5;" x1="1530.5" x2="1639.5" y1="1043.5"
            y2="1043.5"/>
      <line style="stroke:#181818;stroke-width:0.5;" x1="1530.5" x2="1639.5" y1="1051.5"
            y2="1051.5"/>
      <ellipse cx="1540.5" cy="1065.1484" fill="#84BE84" rx="3" ry="3"
               style="stroke:#038048;stroke-width:1.0;"/>
      <text fill="#000000" font-family="sans-serif" font-size="14" lengthAdjust="spacing"
            textLength="85" x="1549.5" y="1068.4951">UUID getId()
      </text>
    </g><!--class Wagon-->
    <g id="elem_Wagon">
      <rect codeLine="61" fill="#F1F1F1" height="96.8906" id="Wagon" rx="2.5" ry="2.5"
            style="stroke:#181818;stroke-width:0.5;" width="166" x="1265" y="995"/>
      <ellipse cx="1319.25" cy="1011" fill="#ADD1B2" rx="11" ry="11"
               style="stroke:#181818;stroke-width:1.0;"/>
      <path
        d="M1321.5938,1006.6719 C1320.6563,1006.2344 1320.0625,1006.0938 1319.1875,1006.0938 C1316.5625,1006.0938 1314.5625,1008.1719 1314.5625,1010.8906 L1314.5625,1012.0156 C1314.5625,1014.5938 1316.6719,1016.4844 1319.5625,1016.4844 C1320.7813,1016.4844 1321.9375,1016.1875 1322.6875,1015.6406 C1323.2656,1015.2344 1323.5938,1014.7813 1323.5938,1014.3906 C1323.5938,1013.9375 1323.2031,1013.5469 1322.7344,1013.5469 C1322.5156,1013.5469 1322.3125,1013.625 1322.125,1013.8125 C1321.6719,1014.2969 1321.6719,1014.2969 1321.4844,1014.3906 C1321.0625,1014.6563 1320.375,1014.7813 1319.6094,1014.7813 C1317.5625,1014.7813 1316.2656,1013.6875 1316.2656,1011.9844 L1316.2656,1010.8906 C1316.2656,1009.1094 1317.5156,1007.7969 1319.25,1007.7969 C1319.8281,1007.7969 1320.4375,1007.9531 1320.9063,1008.2031 C1321.3906,1008.4844 1321.5625,1008.7031 1321.6563,1009.1094 C1321.7188,1009.5156 1321.75,1009.6406 1321.8906,1009.7656 C1322.0313,1009.9063 1322.2656,1010.0156 1322.4844,1010.0156 C1322.75,1010.0156 1323.0156,1009.875 1323.1875,1009.6563 C1323.2969,1009.5 1323.3281,1009.3125 1323.3281,1008.8906 L1323.3281,1007.4688 C1323.3281,1007.0313 1323.3125,1006.9063 1323.2188,1006.75 C1323.0625,1006.4844 1322.7813,1006.3438 1322.4844,1006.3438 C1322.1875,1006.3438 1321.9844,1006.4375 1321.7656,1006.75 L1321.5938,1006.6719 Z "
        fill="#000000"/>
      <text fill="#000000" font-family="sans-serif" font-size="14" lengthAdjust="spacing"
            textLength="49" x="1339.75" y="1015.8467">Wagon
      </text>
      <line style="stroke:#181818;stroke-width:0.5;" x1="1266" x2="1430" y1="1027" y2="1027"/>
      <line style="stroke:#181818;stroke-width:0.5;" x1="1266" x2="1430" y1="1035" y2="1035"/>
      <ellipse cx="1276" cy="1048.6484" fill="#84BE84" rx="3" ry="3"
               style="stroke:#038048;stroke-width:1.0;"/>
      <text fill="#000000" font-family="sans-serif" font-size="14" lengthAdjust="spacing"
            textLength="101" x="1285" y="1051.9951">Wagon getId()
      </text>
      <ellipse cx="1276" cy="1064.9453" fill="#84BE84" rx="3" ry="3"
               style="stroke:#038048;stroke-width:1.0;"/>
      <text fill="#000000" font-family="sans-serif" font-size="14" lengthAdjust="spacing"
            textLength="124" x="1285" y="1068.292">String getName()
      </text>
      <ellipse cx="1276" cy="1081.2422" fill="#84BE84" rx="3" ry="3"
               style="stroke:#038048;stroke-width:1.0;"/>
      <text fill="#000000" font-family="sans-serif" font-size="14" lengthAdjust="spacing"
            textLength="140" x="1285" y="1084.5889">String getNumber()
      </text>
    </g><!--class WagonId-->
    <g id="elem_WagonId">
      <rect codeLine="66" fill="#F1F1F1" height="64.2969" id="WagonId" rx="2.5" ry="2.5"
            style="stroke:#181818;stroke-width:0.5;" width="111" x="1118.5" y="1011.5"/>
      <ellipse cx="1141.15" cy="1027.5" fill="#ADD1B2" rx="11" ry="11"
               style="stroke:#181818;stroke-width:1.0;"/>
      <path
        d="M1143.4938,1023.1719 C1142.5563,1022.7344 1141.9625,1022.5938 1141.0875,1022.5938 C1138.4625,1022.5938 1136.4625,1024.6719 1136.4625,1027.3906 L1136.4625,1028.5156 C1136.4625,1031.0938 1138.5719,1032.9844 1141.4625,1032.9844 C1142.6813,1032.9844 1143.8375,1032.6875 1144.5875,1032.1406 C1145.1656,1031.7344 1145.4938,1031.2813 1145.4938,1030.8906 C1145.4938,1030.4375 1145.1031,1030.0469 1144.6344,1030.0469 C1144.4156,1030.0469 1144.2125,1030.125 1144.025,1030.3125 C1143.5719,1030.7969 1143.5719,1030.7969 1143.3844,1030.8906 C1142.9625,1031.1563 1142.275,1031.2813 1141.5094,1031.2813 C1139.4625,1031.2813 1138.1656,1030.1875 1138.1656,1028.4844 L1138.1656,1027.3906 C1138.1656,1025.6094 1139.4156,1024.2969 1141.15,1024.2969 C1141.7281,1024.2969 1142.3375,1024.4531 1142.8063,1024.7031 C1143.2906,1024.9844 1143.4625,1025.2031 1143.5563,1025.6094 C1143.6188,1026.0156 1143.65,1026.1406 1143.7906,1026.2656 C1143.9313,1026.4063 1144.1656,1026.5156 1144.3844,1026.5156 C1144.65,1026.5156 1144.9156,1026.375 1145.0875,1026.1563 C1145.1969,1026 1145.2281,1025.8125 1145.2281,1025.3906 L1145.2281,1023.9688 C1145.2281,1023.5313 1145.2125,1023.4063 1145.1188,1023.25 C1144.9625,1022.9844 1144.6813,1022.8438 1144.3844,1022.8438 C1144.0875,1022.8438 1143.8844,1022.9375 1143.6656,1023.25 L1143.4938,1023.1719 Z "
        fill="#000000"/>
      <text fill="#000000" font-family="sans-serif" font-size="14" lengthAdjust="spacing"
            textLength="62" x="1156.85" y="1032.3467">WagonId
      </text>
      <line style="stroke:#181818;stroke-width:0.5;" x1="1119.5" x2="1228.5" y1="1043.5"
            y2="1043.5"/>
      <line style="stroke:#181818;stroke-width:0.5;" x1="1119.5" x2="1228.5" y1="1051.5"
            y2="1051.5"/>
      <ellipse cx="1129.5" cy="1065.1484" fill="#84BE84" rx="3" ry="3"
               style="stroke:#038048;stroke-width:1.0;"/>
      <text fill="#000000" font-family="sans-serif" font-size="14" lengthAdjust="spacing"
            textLength="85" x="1138.5" y="1068.4951">UUID getId()
      </text>
    </g><!--class Seat-->
    <g id="elem_Seat">
      <rect codeLine="69" fill="#F1F1F1" height="80.5938" id="Seat" rx="2.5" ry="2.5"
            style="stroke:#181818;stroke-width:0.5;" width="150" x="894" y="1003"/>
      <ellipse cx="948.25" cy="1019" fill="#ADD1B2" rx="11" ry="11"
               style="stroke:#181818;stroke-width:1.0;"/>
      <path
        d="M950.5938,1014.6719 C949.6563,1014.2344 949.0625,1014.0938 948.1875,1014.0938 C945.5625,1014.0938 943.5625,1016.1719 943.5625,1018.8906 L943.5625,1020.0156 C943.5625,1022.5938 945.6719,1024.4844 948.5625,1024.4844 C949.7813,1024.4844 950.9375,1024.1875 951.6875,1023.6406 C952.2656,1023.2344 952.5938,1022.7813 952.5938,1022.3906 C952.5938,1021.9375 952.2031,1021.5469 951.7344,1021.5469 C951.5156,1021.5469 951.3125,1021.625 951.125,1021.8125 C950.6719,1022.2969 950.6719,1022.2969 950.4844,1022.3906 C950.0625,1022.6563 949.375,1022.7813 948.6094,1022.7813 C946.5625,1022.7813 945.2656,1021.6875 945.2656,1019.9844 L945.2656,1018.8906 C945.2656,1017.1094 946.5156,1015.7969 948.25,1015.7969 C948.8281,1015.7969 949.4375,1015.9531 949.9063,1016.2031 C950.3906,1016.4844 950.5625,1016.7031 950.6563,1017.1094 C950.7188,1017.5156 950.75,1017.6406 950.8906,1017.7656 C951.0313,1017.9063 951.2656,1018.0156 951.4844,1018.0156 C951.75,1018.0156 952.0156,1017.875 952.1875,1017.6563 C952.2969,1017.5 952.3281,1017.3125 952.3281,1016.8906 L952.3281,1015.4688 C952.3281,1015.0313 952.3125,1014.9063 952.2188,1014.75 C952.0625,1014.4844 951.7813,1014.3438 951.4844,1014.3438 C951.1875,1014.3438 950.9844,1014.4375 950.7656,1014.75 L950.5938,1014.6719 Z "
        fill="#000000"/>
      <text fill="#000000" font-family="sans-serif" font-size="14" lengthAdjust="spacing"
            textLength="33" x="968.75" y="1023.8467">Seat
      </text>
      <line style="stroke:#181818;stroke-width:0.5;" x1="895" x2="1043" y1="1035" y2="1035"/>
      <line style="stroke:#181818;stroke-width:0.5;" x1="895" x2="1043" y1="1043" y2="1043"/>
      <ellipse cx="905" cy="1056.6484" fill="#84BE84" rx="3" ry="3"
               style="stroke:#038048;stroke-width:1.0;"/>
      <text fill="#000000" font-family="sans-serif" font-size="14" lengthAdjust="spacing"
            textLength="85" x="914" y="1059.9951">Seat getId()
      </text>
      <ellipse cx="905" cy="1072.9453" fill="#84BE84" rx="3" ry="3"
               style="stroke:#038048;stroke-width:1.0;"/>
      <text fill="#000000" font-family="sans-serif" font-size="14" lengthAdjust="spacing"
            textLength="124" x="914" y="1076.292">String getName()
      </text>
    </g><!--class SeatId-->
    <g id="elem_SeatId">
      <rect codeLine="73" fill="#F1F1F1" height="64.2969" id="SeatId" rx="2.5" ry="2.5"
            style="stroke:#181818;stroke-width:0.5;" width="111" x="747.5" y="1011.5"/>
      <ellipse cx="777.35" cy="1027.5" fill="#ADD1B2" rx="11" ry="11"
               style="stroke:#181818;stroke-width:1.0;"/>
      <path
        d="M779.6938,1023.1719 C778.7563,1022.7344 778.1625,1022.5938 777.2875,1022.5938 C774.6625,1022.5938 772.6625,1024.6719 772.6625,1027.3906 L772.6625,1028.5156 C772.6625,1031.0938 774.7719,1032.9844 777.6625,1032.9844 C778.8813,1032.9844 780.0375,1032.6875 780.7875,1032.1406 C781.3656,1031.7344 781.6938,1031.2813 781.6938,1030.8906 C781.6938,1030.4375 781.3031,1030.0469 780.8344,1030.0469 C780.6156,1030.0469 780.4125,1030.125 780.225,1030.3125 C779.7719,1030.7969 779.7719,1030.7969 779.5844,1030.8906 C779.1625,1031.1563 778.475,1031.2813 777.7094,1031.2813 C775.6625,1031.2813 774.3656,1030.1875 774.3656,1028.4844 L774.3656,1027.3906 C774.3656,1025.6094 775.6156,1024.2969 777.35,1024.2969 C777.9281,1024.2969 778.5375,1024.4531 779.0063,1024.7031 C779.4906,1024.9844 779.6625,1025.2031 779.7563,1025.6094 C779.8188,1026.0156 779.85,1026.1406 779.9906,1026.2656 C780.1313,1026.4063 780.3656,1026.5156 780.5844,1026.5156 C780.85,1026.5156 781.1156,1026.375 781.2875,1026.1563 C781.3969,1026 781.4281,1025.8125 781.4281,1025.3906 L781.4281,1023.9688 C781.4281,1023.5313 781.4125,1023.4063 781.3188,1023.25 C781.1625,1022.9844 780.8813,1022.8438 780.5844,1022.8438 C780.2875,1022.8438 780.0844,1022.9375 779.8656,1023.25 L779.6938,1023.1719 Z "
        fill="#000000"/>
      <text fill="#000000" font-family="sans-serif" font-size="14" lengthAdjust="spacing"
            textLength="46" x="794.65" y="1032.3467">SeatId
      </text>
      <line style="stroke:#181818;stroke-width:0.5;" x1="748.5" x2="857.5" y1="1043.5" y2="1043.5"/>
      <line style="stroke:#181818;stroke-width:0.5;" x1="748.5" x2="857.5" y1="1051.5" y2="1051.5"/>
      <ellipse cx="758.5" cy="1065.1484" fill="#84BE84" rx="3" ry="3"
               style="stroke:#038048;stroke-width:1.0;"/>
      <text fill="#000000" font-family="sans-serif" font-size="14" lengthAdjust="spacing"
            textLength="85" x="767.5" y="1068.4951">UUID getId()
      </text>
    </g><!--class ResetReservationService-->
    <g id="elem_ResetReservationService">
      <rect codeLine="76" fill="#F1F1F1" height="64.2969" id="ResetReservationService" rx="2.5"
            ry="2.5" style="stroke:#181818;stroke-width:0.5;" width="213" x="2301.5" y="323"/>
      <ellipse cx="2316.5" cy="339" fill="#ADD1B2" rx="11" ry="11"
               style="stroke:#181818;stroke-width:1.0;"/>
      <path
        d="M2318.8438,334.6719 C2317.9063,334.2344 2317.3125,334.0938 2316.4375,334.0938 C2313.8125,334.0938 2311.8125,336.1719 2311.8125,338.8906 L2311.8125,340.0156 C2311.8125,342.5938 2313.9219,344.4844 2316.8125,344.4844 C2318.0313,344.4844 2319.1875,344.1875 2319.9375,343.6406 C2320.5156,343.2344 2320.8438,342.7813 2320.8438,342.3906 C2320.8438,341.9375 2320.4531,341.5469 2319.9844,341.5469 C2319.7656,341.5469 2319.5625,341.625 2319.375,341.8125 C2318.9219,342.2969 2318.9219,342.2969 2318.7344,342.3906 C2318.3125,342.6563 2317.625,342.7813 2316.8594,342.7813 C2314.8125,342.7813 2313.5156,341.6875 2313.5156,339.9844 L2313.5156,338.8906 C2313.5156,337.1094 2314.7656,335.7969 2316.5,335.7969 C2317.0781,335.7969 2317.6875,335.9531 2318.1563,336.2031 C2318.6406,336.4844 2318.8125,336.7031 2318.9063,337.1094 C2318.9688,337.5156 2319,337.6406 2319.1406,337.7656 C2319.2813,337.9063 2319.5156,338.0156 2319.7344,338.0156 C2320,338.0156 2320.2656,337.875 2320.4375,337.6563 C2320.5469,337.5 2320.5781,337.3125 2320.5781,336.8906 L2320.5781,335.4688 C2320.5781,335.0313 2320.5625,334.9063 2320.4688,334.75 C2320.3125,334.4844 2320.0313,334.3438 2319.7344,334.3438 C2319.4375,334.3438 2319.2344,334.4375 2319.0156,334.75 L2318.8438,334.6719 Z "
        fill="#000000"/>
      <text fill="#000000" font-family="sans-serif" font-size="14" lengthAdjust="spacing"
            textLength="181" x="2330.5" y="343.8467">ResetReservationService
      </text>
      <line style="stroke:#181818;stroke-width:0.5;" x1="2302.5" x2="2513.5" y1="355" y2="355"/>
      <line style="stroke:#181818;stroke-width:0.5;" x1="2302.5" x2="2513.5" y1="363" y2="363"/>
      <ellipse cx="2312.5" cy="376.6484" fill="#84BE84" rx="3" ry="3"
               style="stroke:#038048;stroke-width:1.0;"/>
      <text fill="#000000" font-family="sans-serif" font-size="14" lengthAdjust="spacing"
            textLength="182" x="2321.5" y="379.9951">void serve(ReservationId)
      </text>
    </g><!--class ResetReservationComponent-->
    <g id="elem_ResetReservationComponent">
      <rect codeLine="79" fill="#F1F1F1" height="64.2969" id="ResetReservationComponent" rx="2.5"
            ry="2.5" style="stroke:#181818;stroke-width:0.5;" width="246" x="2272" y="447"/>
      <ellipse cx="2287" cy="463" fill="#ADD1B2" rx="11" ry="11"
               style="stroke:#181818;stroke-width:1.0;"/>
      <path
        d="M2289.3438,458.6719 C2288.4063,458.2344 2287.8125,458.0938 2286.9375,458.0938 C2284.3125,458.0938 2282.3125,460.1719 2282.3125,462.8906 L2282.3125,464.0156 C2282.3125,466.5938 2284.4219,468.4844 2287.3125,468.4844 C2288.5313,468.4844 2289.6875,468.1875 2290.4375,467.6406 C2291.0156,467.2344 2291.3438,466.7813 2291.3438,466.3906 C2291.3438,465.9375 2290.9531,465.5469 2290.4844,465.5469 C2290.2656,465.5469 2290.0625,465.625 2289.875,465.8125 C2289.4219,466.2969 2289.4219,466.2969 2289.2344,466.3906 C2288.8125,466.6563 2288.125,466.7813 2287.3594,466.7813 C2285.3125,466.7813 2284.0156,465.6875 2284.0156,463.9844 L2284.0156,462.8906 C2284.0156,461.1094 2285.2656,459.7969 2287,459.7969 C2287.5781,459.7969 2288.1875,459.9531 2288.6563,460.2031 C2289.1406,460.4844 2289.3125,460.7031 2289.4063,461.1094 C2289.4688,461.5156 2289.5,461.6406 2289.6406,461.7656 C2289.7813,461.9063 2290.0156,462.0156 2290.2344,462.0156 C2290.5,462.0156 2290.7656,461.875 2290.9375,461.6563 C2291.0469,461.5 2291.0781,461.3125 2291.0781,460.8906 L2291.0781,459.4688 C2291.0781,459.0313 2291.0625,458.9063 2290.9688,458.75 C2290.8125,458.4844 2290.5313,458.3438 2290.2344,458.3438 C2289.9375,458.3438 2289.7344,458.4375 2289.5156,458.75 L2289.3438,458.6719 Z "
        fill="#000000"/>
      <text fill="#000000" font-family="sans-serif" font-size="14" lengthAdjust="spacing"
            textLength="214" x="2301" y="467.8467">ResetReservationComponent
      </text>
      <line style="stroke:#181818;stroke-width:0.5;" x1="2273" x2="2517" y1="479" y2="479"/>
      <line style="stroke:#181818;stroke-width:0.5;" x1="2273" x2="2517" y1="487" y2="487"/>
      <ellipse cx="2283" cy="500.6484" fill="#84BE84" rx="3" ry="3"
               style="stroke:#038048;stroke-width:1.0;"/>
      <text fill="#000000" font-family="sans-serif" font-size="14" lengthAdjust="spacing"
            textLength="201" x="2292" y="503.9951">void execute(ReservationId)
      </text>
    </g><!--class SubmitReservationService-->
    <g id="elem_SubmitReservationService">
      <rect codeLine="82" fill="#F1F1F1" height="64.2969" id="SubmitReservationService" rx="2.5"
            ry="2.5" style="stroke:#181818;stroke-width:0.5;" width="223" x="1875.5" y="323"/>
      <ellipse cx="1890.5" cy="339" fill="#ADD1B2" rx="11" ry="11"
               style="stroke:#181818;stroke-width:1.0;"/>
      <path
        d="M1892.8438,334.6719 C1891.9063,334.2344 1891.3125,334.0938 1890.4375,334.0938 C1887.8125,334.0938 1885.8125,336.1719 1885.8125,338.8906 L1885.8125,340.0156 C1885.8125,342.5938 1887.9219,344.4844 1890.8125,344.4844 C1892.0313,344.4844 1893.1875,344.1875 1893.9375,343.6406 C1894.5156,343.2344 1894.8438,342.7813 1894.8438,342.3906 C1894.8438,341.9375 1894.4531,341.5469 1893.9844,341.5469 C1893.7656,341.5469 1893.5625,341.625 1893.375,341.8125 C1892.9219,342.2969 1892.9219,342.2969 1892.7344,342.3906 C1892.3125,342.6563 1891.625,342.7813 1890.8594,342.7813 C1888.8125,342.7813 1887.5156,341.6875 1887.5156,339.9844 L1887.5156,338.8906 C1887.5156,337.1094 1888.7656,335.7969 1890.5,335.7969 C1891.0781,335.7969 1891.6875,335.9531 1892.1563,336.2031 C1892.6406,336.4844 1892.8125,336.7031 1892.9063,337.1094 C1892.9688,337.5156 1893,337.6406 1893.1406,337.7656 C1893.2813,337.9063 1893.5156,338.0156 1893.7344,338.0156 C1894,338.0156 1894.2656,337.875 1894.4375,337.6563 C1894.5469,337.5 1894.5781,337.3125 1894.5781,336.8906 L1894.5781,335.4688 C1894.5781,335.0313 1894.5625,334.9063 1894.4688,334.75 C1894.3125,334.4844 1894.0313,334.3438 1893.7344,334.3438 C1893.4375,334.3438 1893.2344,334.4375 1893.0156,334.75 L1892.8438,334.6719 Z "
        fill="#000000"/>
      <text fill="#000000" font-family="sans-serif" font-size="14" lengthAdjust="spacing"
            textLength="191" x="1904.5" y="343.8467">SubmitReservationService
      </text>
      <line style="stroke:#181818;stroke-width:0.5;" x1="1876.5" x2="2097.5" y1="355" y2="355"/>
      <line style="stroke:#181818;stroke-width:0.5;" x1="1876.5" x2="2097.5" y1="363" y2="363"/>
      <ellipse cx="1886.5" cy="376.6484" fill="#84BE84" rx="3" ry="3"
               style="stroke:#038048;stroke-width:1.0;"/>
      <text fill="#000000" font-family="sans-serif" font-size="14" lengthAdjust="spacing"
            textLength="196" x="1895.5" y="379.9951">ReservationId serve(String)
      </text>
    </g><!--class SubmitReservationComponent-->
    <g id="elem_SubmitReservationComponent">
      <rect codeLine="85" fill="#F1F1F1" height="64.2969" id="SubmitReservationComponent" rx="2.5"
            ry="2.5" style="stroke:#181818;stroke-width:0.5;" width="256" x="1879" y="447"/>
      <ellipse cx="1894" cy="463" fill="#ADD1B2" rx="11" ry="11"
               style="stroke:#181818;stroke-width:1.0;"/>
      <path
        d="M1896.3438,458.6719 C1895.4063,458.2344 1894.8125,458.0938 1893.9375,458.0938 C1891.3125,458.0938 1889.3125,460.1719 1889.3125,462.8906 L1889.3125,464.0156 C1889.3125,466.5938 1891.4219,468.4844 1894.3125,468.4844 C1895.5313,468.4844 1896.6875,468.1875 1897.4375,467.6406 C1898.0156,467.2344 1898.3438,466.7813 1898.3438,466.3906 C1898.3438,465.9375 1897.9531,465.5469 1897.4844,465.5469 C1897.2656,465.5469 1897.0625,465.625 1896.875,465.8125 C1896.4219,466.2969 1896.4219,466.2969 1896.2344,466.3906 C1895.8125,466.6563 1895.125,466.7813 1894.3594,466.7813 C1892.3125,466.7813 1891.0156,465.6875 1891.0156,463.9844 L1891.0156,462.8906 C1891.0156,461.1094 1892.2656,459.7969 1894,459.7969 C1894.5781,459.7969 1895.1875,459.9531 1895.6563,460.2031 C1896.1406,460.4844 1896.3125,460.7031 1896.4063,461.1094 C1896.4688,461.5156 1896.5,461.6406 1896.6406,461.7656 C1896.7813,461.9063 1897.0156,462.0156 1897.2344,462.0156 C1897.5,462.0156 1897.7656,461.875 1897.9375,461.6563 C1898.0469,461.5 1898.0781,461.3125 1898.0781,460.8906 L1898.0781,459.4688 C1898.0781,459.0313 1898.0625,458.9063 1897.9688,458.75 C1897.8125,458.4844 1897.5313,458.3438 1897.2344,458.3438 C1896.9375,458.3438 1896.7344,458.4375 1896.5156,458.75 L1896.3438,458.6719 Z "
        fill="#000000"/>
      <text fill="#000000" font-family="sans-serif" font-size="14" lengthAdjust="spacing"
            textLength="224" x="1908" y="467.8467">SubmitReservationComponent
      </text>
      <line style="stroke:#181818;stroke-width:0.5;" x1="1880" x2="2134" y1="479" y2="479"/>
      <line style="stroke:#181818;stroke-width:0.5;" x1="1880" x2="2134" y1="487" y2="487"/>
      <ellipse cx="1890" cy="500.6484" fill="#84BE84" rx="3" ry="3"
               style="stroke:#038048;stroke-width:1.0;"/>
      <text fill="#000000" font-family="sans-serif" font-size="14" lengthAdjust="spacing"
            textLength="215" x="1899" y="503.9951">ReservationId execute(String)
      </text>
    </g><!--class ReservationRepositoryUseCase-->
    <g id="elem_ReservationRepositoryUseCase">
      <rect codeLine="88" fill="#F1F1F1" height="129.4844" id="ReservationRepositoryUseCase"
            rx="2.5" ry="2.5" style="stroke:#181818;stroke-width:0.5;" width="355" x="2988.5"
            y="979"/>
      <ellipse cx="3049.75" cy="995" fill="#ADD1B2" rx="11" ry="11"
               style="stroke:#181818;stroke-width:1.0;"/>
      <path
        d="M3052.0938,990.6719 C3051.1563,990.2344 3050.5625,990.0938 3049.6875,990.0938 C3047.0625,990.0938 3045.0625,992.1719 3045.0625,994.8906 L3045.0625,996.0156 C3045.0625,998.5938 3047.1719,1000.4844 3050.0625,1000.4844 C3051.2813,1000.4844 3052.4375,1000.1875 3053.1875,999.6406 C3053.7656,999.2344 3054.0938,998.7813 3054.0938,998.3906 C3054.0938,997.9375 3053.7031,997.5469 3053.2344,997.5469 C3053.0156,997.5469 3052.8125,997.625 3052.625,997.8125 C3052.1719,998.2969 3052.1719,998.2969 3051.9844,998.3906 C3051.5625,998.6563 3050.875,998.7813 3050.1094,998.7813 C3048.0625,998.7813 3046.7656,997.6875 3046.7656,995.9844 L3046.7656,994.8906 C3046.7656,993.1094 3048.0156,991.7969 3049.75,991.7969 C3050.3281,991.7969 3050.9375,991.9531 3051.4063,992.2031 C3051.8906,992.4844 3052.0625,992.7031 3052.1563,993.1094 C3052.2188,993.5156 3052.25,993.6406 3052.3906,993.7656 C3052.5313,993.9063 3052.7656,994.0156 3052.9844,994.0156 C3053.25,994.0156 3053.5156,993.875 3053.6875,993.6563 C3053.7969,993.5 3053.8281,993.3125 3053.8281,992.8906 L3053.8281,991.4688 C3053.8281,991.0313 3053.8125,990.9063 3053.7188,990.75 C3053.5625,990.4844 3053.2813,990.3438 3052.9844,990.3438 C3052.6875,990.3438 3052.4844,990.4375 3052.2656,990.75 L3052.0938,990.6719 Z "
        fill="#000000"/>
      <text fill="#000000" font-family="sans-serif" font-size="14" lengthAdjust="spacing"
            textLength="224" x="3070.25" y="999.8467">ReservationRepositoryUseCase
      </text>
      <line style="stroke:#181818;stroke-width:0.5;" x1="2989.5" x2="3342.5" y1="1011" y2="1011"/>
      <line style="stroke:#181818;stroke-width:0.5;" x1="2989.5" x2="3342.5" y1="1019" y2="1019"/>
      <ellipse cx="2999.5" cy="1032.6484" fill="#84BE84" rx="3" ry="3"
               style="stroke:#038048;stroke-width:1.0;"/>
      <text fill="#000000" font-family="sans-serif" font-size="14" lengthAdjust="spacing"
            textLength="329" x="3008.5" y="1035.9951">Optional&lt;Reservation&gt;
        findBy(ReservationId)
      </text>
      <ellipse cx="2999.5" cy="1048.9453" fill="#84BE84" rx="3" ry="3"
               style="stroke:#038048;stroke-width:1.0;"/>
      <text fill="#000000" font-family="sans-serif" font-size="14" lengthAdjust="spacing"
            textLength="218" x="3008.5" y="1052.292">Reservation save(Reservation)
      </text>
      <ellipse cx="2999.5" cy="1065.2422" fill="#84BE84" rx="3" ry="3"
               style="stroke:#038048;stroke-width:1.0;"/>
      <text fill="#000000" font-family="sans-serif" font-size="14" lengthAdjust="spacing"
            textLength="193" x="3008.5" y="1068.5889">void submit(ReservationId)
      </text>
      <ellipse cx="2999.5" cy="1081.5391" fill="#84BE84" rx="3" ry="3"
               style="stroke:#038048;stroke-width:1.0;"/>
      <text fill="#000000" font-family="sans-serif" font-size="14" lengthAdjust="spacing"
            textLength="199" x="3008.5" y="1084.8857">void confirm(ReservationId)
      </text>
      <ellipse cx="2999.5" cy="1097.8359" fill="#84BE84" rx="3" ry="3"
               style="stroke:#038048;stroke-width:1.0;"/>
      <text fill="#000000" font-family="sans-serif" font-size="14" lengthAdjust="spacing"
            textLength="181" x="3008.5" y="1101.1826">void reset(ReservationId)
      </text>
    </g><!--class ReservationRepositoryUseCaseBridge-->
    <g id="elem_ReservationRepositoryUseCaseBridge">
      <rect codeLine="95" fill="#F1F1F1" height="129.4844" id="ReservationRepositoryUseCaseBridge"
            rx="2.5" ry="2.5" style="stroke:#181818;stroke-width:0.5;" width="301" x="3015.5"
            y="1215"/>
      <ellipse cx="3030.5" cy="1231" fill="#B4A7E5" rx="11" ry="11"
               style="stroke:#181818;stroke-width:1.0;"/>
      <path
        d="M3031.4531,1227.7813 L3033.1719,1227.7813 C3033.5625,1227.7813 3033.75,1227.75 3033.875,1227.6719 C3034.1406,1227.5156 3034.2813,1227.2344 3034.2813,1226.9375 C3034.2813,1226.6719 3034.1719,1226.4063 3033.9375,1226.2344 C3033.7656,1226.125 3033.625,1226.0938 3033.1719,1226.0938 L3028.0313,1226.0938 C3027.5938,1226.0938 3027.4688,1226.1094 3027.3125,1226.2031 C3027.0625,1226.3594 3026.9063,1226.6563 3026.9063,1226.9375 C3026.9063,1227.2188 3027.0469,1227.4688 3027.2656,1227.6406 C3027.4219,1227.75 3027.6094,1227.7813 3028.0313,1227.7813 L3029.75,1227.7813 L3029.75,1234.2969 L3028.0313,1234.2969 C3027.5938,1234.2969 3027.4688,1234.3125 3027.3125,1234.4219 C3027.0625,1234.5781 3026.9063,1234.8594 3026.9063,1235.1563 C3026.9063,1235.4063 3027.0469,1235.6719 3027.2656,1235.8281 C3027.4219,1235.9531 3027.625,1236 3028.0313,1236 L3033.1719,1236 C3033.9219,1236 3034.2813,1235.7188 3034.2813,1235.1563 C3034.2813,1234.875 3034.1719,1234.625 3033.9375,1234.4531 C3033.7656,1234.3281 3033.625,1234.2969 3033.1719,1234.2969 L3031.4531,1234.2969 L3031.4531,1227.7813 Z "
        fill="#000000"/>
      <text fill="#000000" font-family="sans-serif" font-size="14" font-style="italic"
            lengthAdjust="spacing" textLength="269" x="3044.5" y="1235.8467">
        ReservationRepositoryUseCaseBridge
      </text>
      <line style="stroke:#181818;stroke-width:0.5;" x1="3016.5" x2="3315.5" y1="1247" y2="1247"/>
      <line style="stroke:#181818;stroke-width:0.5;" x1="3016.5" x2="3315.5" y1="1255" y2="1255"/>
      <ellipse cx="3026.5" cy="1268.6484" fill="#84BE84" rx="3" ry="3"
               style="stroke:#038048;stroke-width:1.0;"/>
      <text fill="#000000" font-family="sans-serif" font-size="14" font-style="italic"
            lengthAdjust="spacing" textLength="220" x="3035.5" y="1271.9951">Optional&lt;String&gt;
        findBy(UUID)
      </text>
      <ellipse cx="3026.5" cy="1284.9453" fill="#84BE84" rx="3" ry="3"
               style="stroke:#038048;stroke-width:1.0;"/>
      <text fill="#000000" font-family="sans-serif" font-size="14" font-style="italic"
            lengthAdjust="spacing" textLength="131" x="3035.5" y="1288.292">String save(String)
      </text>
      <ellipse cx="3026.5" cy="1301.2422" fill="#84BE84" rx="3" ry="3"
               style="stroke:#038048;stroke-width:1.0;"/>
      <text fill="#000000" font-family="sans-serif" font-size="14" font-style="italic"
            lengthAdjust="spacing" textLength="127" x="3035.5" y="1304.5889">void submit(UUID)
      </text>
      <ellipse cx="3026.5" cy="1317.5391" fill="#84BE84" rx="3" ry="3"
               style="stroke:#038048;stroke-width:1.0;"/>
      <text fill="#000000" font-family="sans-serif" font-size="14" font-style="italic"
            lengthAdjust="spacing" textLength="134" x="3035.5" y="1320.8857">void confirm(UUID)
      </text>
      <ellipse cx="3026.5" cy="1333.8359" fill="#84BE84" rx="3" ry="3"
               style="stroke:#038048;stroke-width:1.0;"/>
      <text fill="#000000" font-family="sans-serif" font-size="14" font-style="italic"
            lengthAdjust="spacing" textLength="115" x="3035.5" y="1337.1826">void reset(UUID)
      </text>
    </g><!--class ResetUseCase-->
    <g id="elem_ResetUseCase">
      <rect codeLine="102" fill="#F1F1F1" height="121.1875" id="ResetUseCase" rx="2.5" ry="2.5"
            style="stroke:#181818;stroke-width:0.5;" width="402" x="2214" y="84"/>
      <ellipse cx="2360.25" cy="100" fill="#ADD1B2" rx="11" ry="11"
               style="stroke:#181818;stroke-width:1.0;"/>
      <path
        d="M2362.5938,95.6719 C2361.6563,95.2344 2361.0625,95.0938 2360.1875,95.0938 C2357.5625,95.0938 2355.5625,97.1719 2355.5625,99.8906 L2355.5625,101.0156 C2355.5625,103.5938 2357.6719,105.4844 2360.5625,105.4844 C2361.7813,105.4844 2362.9375,105.1875 2363.6875,104.6406 C2364.2656,104.2344 2364.5938,103.7813 2364.5938,103.3906 C2364.5938,102.9375 2364.2031,102.5469 2363.7344,102.5469 C2363.5156,102.5469 2363.3125,102.625 2363.125,102.8125 C2362.6719,103.2969 2362.6719,103.2969 2362.4844,103.3906 C2362.0625,103.6563 2361.375,103.7813 2360.6094,103.7813 C2358.5625,103.7813 2357.2656,102.6875 2357.2656,100.9844 L2357.2656,99.8906 C2357.2656,98.1094 2358.5156,96.7969 2360.25,96.7969 C2360.8281,96.7969 2361.4375,96.9531 2361.9063,97.2031 C2362.3906,97.4844 2362.5625,97.7031 2362.6563,98.1094 C2362.7188,98.5156 2362.75,98.6406 2362.8906,98.7656 C2363.0313,98.9063 2363.2656,99.0156 2363.4844,99.0156 C2363.75,99.0156 2364.0156,98.875 2364.1875,98.6563 C2364.2969,98.5 2364.3281,98.3125 2364.3281,97.8906 L2364.3281,96.4688 C2364.3281,96.0313 2364.3125,95.9063 2364.2188,95.75 C2364.0625,95.4844 2363.7813,95.3438 2363.4844,95.3438 C2363.1875,95.3438 2362.9844,95.4375 2362.7656,95.75 L2362.5938,95.6719 Z "
        fill="#000000"/>
      <text fill="#000000" font-family="sans-serif" font-size="14" lengthAdjust="spacing"
            textLength="101" x="2380.75" y="104.8467">ResetUseCase
      </text>
      <line style="stroke:#181818;stroke-width:0.5;" x1="2215" x2="2615" y1="116" y2="116"/>
      <line style="stroke:#181818;stroke-width:1.0;stroke-dasharray:1.0,2.0;" x1="2215" x2="2615"
            y1="124" y2="124"/>
      <ellipse cx="2225" cy="137.6484" fill="none" rx="3" ry="3"
               style="stroke:#038048;stroke-width:1.0;"/>
      <text fill="#000000" font-family="sans-serif" font-size="14" lengthAdjust="spacing"
            textLength="309" x="2234" y="140.9951">ResetReservationService resetReservation
      </text>
      <line style="stroke:#181818;stroke-width:0.5;" x1="2215" x2="2615" y1="148.2969"
            y2="148.2969"/>
      <ellipse cx="2225" cy="161.9453" fill="#84BE84" rx="3" ry="3"
               style="stroke:#038048;stroke-width:1.0;"/>
      <text fill="#000000" font-family="sans-serif" font-size="14" lengthAdjust="spacing"
            textLength="348" x="2234" y="165.292">ResetReservationService getResetReservation()
      </text>
      <ellipse cx="2225" cy="178.2422" fill="#84BE84" rx="3" ry="3"
               style="stroke:#038048;stroke-width:1.0;"/>
      <text fill="#000000" font-family="sans-serif" font-size="14" lengthAdjust="spacing"
            textLength="376" x="2234" y="181.5889">void setResetReservation(ResetReservationService)
      </text>
      <ellipse cx="2225" cy="194.5391" fill="#84BE84" rx="3" ry="3"
               style="stroke:#038048;stroke-width:1.0;"/>
      <text fill="#000000" font-family="sans-serif" font-size="14" lengthAdjust="spacing"
            textLength="122" x="2234" y="197.8857">void action(UUID)
      </text>
    </g><!--class SubmitUseCase-->
    <g id="elem_SubmitUseCase">
      <rect codeLine="110" fill="#F1F1F1" height="113.1875" id="SubmitUseCase" rx="2.5" ry="2.5"
            style="stroke:#181818;stroke-width:0.5;" width="422" x="1736" y="88"/>
      <ellipse cx="1887.25" cy="104" fill="#ADD1B2" rx="11" ry="11"
               style="stroke:#181818;stroke-width:1.0;"/>
      <path
        d="M1889.5938,99.6719 C1888.6563,99.2344 1888.0625,99.0938 1887.1875,99.0938 C1884.5625,99.0938 1882.5625,101.1719 1882.5625,103.8906 L1882.5625,105.0156 C1882.5625,107.5938 1884.6719,109.4844 1887.5625,109.4844 C1888.7813,109.4844 1889.9375,109.1875 1890.6875,108.6406 C1891.2656,108.2344 1891.5938,107.7813 1891.5938,107.3906 C1891.5938,106.9375 1891.2031,106.5469 1890.7344,106.5469 C1890.5156,106.5469 1890.3125,106.625 1890.125,106.8125 C1889.6719,107.2969 1889.6719,107.2969 1889.4844,107.3906 C1889.0625,107.6563 1888.375,107.7813 1887.6094,107.7813 C1885.5625,107.7813 1884.2656,106.6875 1884.2656,104.9844 L1884.2656,103.8906 C1884.2656,102.1094 1885.5156,100.7969 1887.25,100.7969 C1887.8281,100.7969 1888.4375,100.9531 1888.9063,101.2031 C1889.3906,101.4844 1889.5625,101.7031 1889.6563,102.1094 C1889.7188,102.5156 1889.75,102.6406 1889.8906,102.7656 C1890.0313,102.9063 1890.2656,103.0156 1890.4844,103.0156 C1890.75,103.0156 1891.0156,102.875 1891.1875,102.6563 C1891.2969,102.5 1891.3281,102.3125 1891.3281,101.8906 L1891.3281,100.4688 C1891.3281,100.0313 1891.3125,99.9063 1891.2188,99.75 C1891.0625,99.4844 1890.7813,99.3438 1890.4844,99.3438 C1890.1875,99.3438 1889.9844,99.4375 1889.7656,99.75 L1889.5938,99.6719 Z "
        fill="#000000"/>
      <text fill="#000000" font-family="sans-serif" font-size="14" lengthAdjust="spacing"
            textLength="111" x="1907.75" y="108.8467">SubmitUseCase
      </text>
      <line style="stroke:#181818;stroke-width:0.5;" x1="1737" x2="2157" y1="120" y2="120"/>
      <ellipse cx="1747" cy="133.6484" fill="none" rx="3" ry="3"
               style="stroke:#038048;stroke-width:1.0;"/>
      <text fill="#000000" font-family="sans-serif" font-size="14" lengthAdjust="spacing"
            textLength="331" x="1756" y="136.9951">SubmitReservationService submitReservation
      </text>
      <line style="stroke:#181818;stroke-width:0.5;" x1="1737" x2="2157" y1="144.2969"
            y2="144.2969"/>
      <ellipse cx="1747" cy="157.9453" fill="#84BE84" rx="3" ry="3"
               style="stroke:#038048;stroke-width:1.0;"/>
      <text fill="#000000" font-family="sans-serif" font-size="14" lengthAdjust="spacing"
            textLength="368" x="1756" y="161.292">SubmitReservationService getSubmitReservation()
      </text>
      <ellipse cx="1747" cy="174.2422" fill="#84BE84" rx="3" ry="3"
               style="stroke:#038048;stroke-width:1.0;"/>
      <text fill="#000000" font-family="sans-serif" font-size="14" lengthAdjust="spacing"
            textLength="396" x="1756" y="177.5889">void
        setSubmitReservation(SubmitReservationService)
      </text>
      <ellipse cx="1747" cy="190.5391" fill="#84BE84" rx="3" ry="3"
               style="stroke:#038048;stroke-width:1.0;"/>
      <text fill="#000000" font-family="sans-serif" font-size="14" lengthAdjust="spacing"
            textLength="136" x="1756" y="193.8857">UUID action(String)
      </text>
    </g><!--link ConfirmUseCase to ConfirmReservationService-->
    <g id="link_ConfirmUseCase_ConfirmReservationService">
      <path codeLine="117" d="M2753,176.93 C2753,216.6 2753,277.35 2753,316.88 " fill="none"
            id="ConfirmUseCase-to-ConfirmReservationService"
            style="stroke:#181818;stroke-width:1.0;"/>
      <polygon fill="#181818" points="2753,322.88,2757,313.88,2753,317.88,2749,313.88,2753,322.88"
               style="stroke:#181818;stroke-width:1.0;"/>
    </g><!--link ConfirmReservationService to ConfirmReservationComponent-->
    <g id="link_ConfirmReservationService_ConfirmReservationComponent">
      <path codeLine="118" d="M2753,387.26 C2753,405.63 2753,422.56 2753,440.906 " fill="none"
            id="ConfirmReservationService-to-ConfirmReservationComponent"
            style="stroke:#181818;stroke-width:1.0;"/>
      <polygon fill="#181818"
               points="2753,446.906,2757,437.906,2753,441.906,2749,437.906,2753,446.906"
               style="stroke:#181818;stroke-width:1.0;"/>
    </g><!--link ConfirmReservationComponent to ReservationRepository-->
    <g id="link_ConfirmReservationComponent_ReservationRepository">
      <path codeLine="119" d="M2753,511.174 C2753,559.109 2753,644.273 2753,706.334 " fill="none"
            id="ConfirmReservationComponent-to-ReservationRepository"
            style="stroke:#181818;stroke-width:1.0;"/>
      <polygon fill="#181818"
               points="2753,712.334,2757,703.334,2753,707.334,2749,703.334,2753,712.334"
               style="stroke:#181818;stroke-width:1.0;"/>
    </g><!--link Reservation to ReservationId-->
    <g id="link_Reservation_ReservationId">
      <path codeLine="120" d="M2094,817.766 C2094,870.84 2094,956.543 2094,1005.124 " fill="none"
            id="Reservation-to-ReservationId" style="stroke:#181818;stroke-width:1.0;"/>
      <polygon fill="#181818"
               points="2094,1011.124,2098,1002.124,2094,1006.124,2090,1002.124,2094,1011.124"
               style="stroke:#181818;stroke-width:1.0;"/>
    </g><!--link Reservation to ReservationStatus-->
    <g id="link_Reservation_ReservationStatus">
      <path codeLine="121" d="M2233,817.766 C2233,862.967 2233,930.185 2233,980.922 " fill="none"
            id="Reservation-to-ReservationStatus" style="stroke:#181818;stroke-width:1.0;"/>
      <polygon fill="#181818"
               points="2233,986.922,2237,977.922,2233,981.922,2229,977.922,2233,986.922"
               style="stroke:#181818;stroke-width:1.0;"/>
    </g><!--link Trip to TripId-->
    <g id="link_Trip_TripId">
      <path codeLine="122" d="M231,858.044 C231,909.651 231,967.668 231,1005.4 " fill="none"
            id="Trip-to-TripId" style="stroke:#181818;stroke-width:1.0;"/>
      <polygon fill="#181818" points="231,1011.4,235,1002.4,231,1006.4,227,1002.4,231,1011.4"
               style="stroke:#181818;stroke-width:1.0;"/>
    </g><!--link Trip to Station-->
    <g id="link_Trip_Station">
      <path codeLine="123"
            d="M305.667,858.266 C305.667,924.628 305.667,1007.5 305.667,1007.5 C305.667,1007.5 348.517,1007.5 393.742,1007.5 "
            fill="none" id="Trip-to-Station" style="stroke:#181818;stroke-width:1.0;"/>
      <polygon fill="#181818"
               points="399.742,1007.5,390.742,1003.5,394.742,1007.5,390.742,1011.5,399.742,1007.5"
               style="stroke:#181818;stroke-width:1.0;"/>
    </g><!--link Trip to Seat-->
    <g id="link_Trip_Seat">
      <path codeLine="124"
            d="M344.405,852.5 C556.953,852.5 994,852.5 994,852.5 C994,852.5 994,940.927 994,996.994 "
            fill="none" id="Trip-to-Seat" style="stroke:#181818;stroke-width:1.0;"/>
      <polygon fill="#181818" points="994,1002.994,998,993.994,994,997.994,990,993.994,994,1002.994"
               style="stroke:#181818;stroke-width:1.0;"/>
    </g><!--link Trip to Train-->
    <g id="link_Trip_Train">
      <path codeLine="125"
            d="M344.141,847.5 C690.984,847.5 1716,847.5 1716,847.5 C1716,847.5 1716,939.479 1716,996.889 "
            fill="none" id="Trip-to-Train" style="stroke:#181818;stroke-width:1.0;"/>
      <polygon fill="#181818"
               points="1716,1002.889,1720,993.889,1716,997.889,1712,993.889,1716,1002.889"
               style="stroke:#181818;stroke-width:1.0;"/>
    </g><!--link Trip to Wagon-->
    <g id="link_Trip_Wagon">
      <path codeLine="126"
            d="M324.833,858.221 C324.833,921.437 324.833,998.5 324.833,998.5 C324.833,998.5 1014.73,998.5 1258.7,998.5 "
            fill="none" id="Trip-to-Wagon" style="stroke:#181818;stroke-width:1.0;"/>
      <polygon fill="#181818"
               points="1264.7,998.5,1255.7,994.5,1259.7,998.5,1255.7,1002.5,1264.7,998.5"
               style="stroke:#181818;stroke-width:1.0;"/>
    </g><!--link Station to StationId-->
    <g id="link_Station_StationId">
      <path codeLine="127" d="M475,1084.07 C475,1130.328 475,1199.009 475,1241.402 " fill="none"
            id="Station-to-StationId" style="stroke:#181818;stroke-width:1.0;"/>
      <polygon fill="#181818"
               points="475,1247.402,479,1238.402,475,1242.402,471,1238.402,475,1247.402"
               style="stroke:#181818;stroke-width:1.0;"/>
    </g><!--link Train to Train-->
    <g id="link_Train_Train">
      <path codeLine="128"
            d="M1696,1002.953 C1696,1000.8 1696,999.5 1696,999.5 C1696,999.5 1658.25,999.5 1658.25,999.5 C1658.25,999.5 1658.25,1088.5 1658.25,1088.5 C1658.25,1088.5 1751,1088.5 1751,1088.5 C1751,1088.5 1751,1092.783 1751,1090.021 "
            fill="none" id="Train-to-Train" style="stroke:#181818;stroke-width:1.0;"/>
      <polygon fill="#181818"
               points="1751,1084.021,1747,1093.021,1751,1089.021,1755,1093.021,1751,1084.021"
               style="stroke:#181818;stroke-width:1.0;"/>
    </g><!--link Wagon to Wagon-->
    <g id="link_Wagon_Wagon">
      <path codeLine="129"
            d="M1348,994.912 C1348,992.77 1348,991.5 1348,991.5 C1348,991.5 1247.25,991.5 1247.25,991.5 C1247.25,991.5 1247.25,1096.5 1247.25,1096.5 C1247.25,1096.5 1348,1096.5 1348,1096.5 C1348,1096.5 1348,1100.934 1348,1098.341 "
            fill="none" id="Wagon-to-Wagon" style="stroke:#181818;stroke-width:1.0;"/>
      <polygon fill="#181818"
               points="1348,1092.341,1344,1101.341,1348,1097.341,1352,1101.341,1348,1092.341"
               style="stroke:#181818;stroke-width:1.0;"/>
    </g><!--link Seat to Seat-->
    <g id="link_Seat_Seat">
      <path codeLine="130"
            d="M944,1002.812 C944,1001.35 944,1000.5 944,1000.5 C944,1000.5 876.25,1000.5 876.25,1000.5 C876.25,1000.5 876.25,1088.5 876.25,1088.5 C876.25,1088.5 969,1088.5 969,1088.5 C969,1088.5 969,1092.783 969,1090.021 "
            fill="none" id="Seat-to-Seat" style="stroke:#181818;stroke-width:1.0;"/>
      <polygon fill="#181818"
               points="969,1084.021,965,1093.021,969,1089.021,973,1093.021,969,1084.021"
               style="stroke:#181818;stroke-width:1.0;"/>
    </g><!--link ResetReservationService to ResetReservationComponent-->
    <g id="link_ResetReservationService_ResetReservationComponent">
      <path codeLine="131" d="M2408,387.26 C2408,405.63 2408,422.56 2408,440.906 " fill="none"
            id="ResetReservationService-to-ResetReservationComponent"
            style="stroke:#181818;stroke-width:1.0;"/>
      <polygon fill="#181818"
               points="2408,446.906,2412,437.906,2408,441.906,2404,437.906,2408,446.906"
               style="stroke:#181818;stroke-width:1.0;"/>
    </g><!--link ResetReservationComponent to ReservationRepository-->
    <g id="link_ResetReservationComponent_ReservationRepository">
      <path codeLine="132"
            d="M2508.75,511.069 C2508.75,576.762 2508.75,720.5 2508.75,720.5 C2508.75,720.5 2511.78,720.5 2526,720.5 "
            fill="none" id="ResetReservationComponent-to-ReservationRepository"
            style="stroke:#181818;stroke-width:1.0;"/>
      <polygon fill="#181818" points="2532,720.5,2523,716.5,2527,720.5,2523,724.5,2532,720.5"
               style="stroke:#181818;stroke-width:1.0;"/>
    </g><!--link SubmitReservationService to SubmitReservationComponent-->
    <g id="link_SubmitReservationService_SubmitReservationComponent">
      <path codeLine="133" d="M1988.75,387.26 C1988.75,405.63 1988.75,422.56 1988.75,440.906 "
            fill="none" id="SubmitReservationService-to-SubmitReservationComponent"
            style="stroke:#181818;stroke-width:1.0;"/>
      <polygon fill="#181818"
               points="1988.75,446.906,1992.75,437.906,1988.75,441.906,1984.75,437.906,1988.75,446.906"
               style="stroke:#181818;stroke-width:1.0;"/>
    </g><!--link SubmitReservationComponent to ReservationRepository-->
    <g id="link_SubmitReservationComponent_ReservationRepository">
      <path codeLine="134"
            d="M2109.75,511.107 C2109.75,578.493 2109.75,728.5 2109.75,728.5 C2109.75,728.5 2349.27,728.5 2525.74,728.5 "
            fill="none" id="SubmitReservationComponent-to-ReservationRepository"
            style="stroke:#181818;stroke-width:1.0;"/>
      <polygon fill="#181818"
               points="2531.74,728.5,2522.74,724.5,2526.74,728.5,2522.74,732.5,2531.74,728.5"
               style="stroke:#181818;stroke-width:1.0;"/>
    </g><!--reverse link ReservationRepository to ReservationRepositoryUseCase-->
    <g id="link_ReservationRepository_ReservationRepositoryUseCase">
      <path codeLine="135"
            d="M2708,859.771 C2708,920.331 2708,983.5 2708,983.5 C2708,983.5 2859.53,983.5 2988.27,983.5 "
            fill="none" id="ReservationRepository-backto-ReservationRepositoryUseCase"
            style="stroke:#181818;stroke-width:1.0;stroke-dasharray:7.0,7.0;"/>
      <polygon fill="none" points="2708,841.771,2702,859.771,2714,859.771,2708,841.771"
               style="stroke:#181818;stroke-width:1.0;"/>
    </g><!--link ReservationRepositoryUseCase to ReservationRepositoryUseCaseBridge-->
    <g id="link_ReservationRepositoryUseCase_ReservationRepositoryUseCaseBridge">
      <path codeLine="136" d="M3166,1108.3 C3166,1141.459 3166,1175.706 3166,1208.844 " fill="none"
            id="ReservationRepositoryUseCase-to-ReservationRepositoryUseCaseBridge"
            style="stroke:#181818;stroke-width:1.0;"/>
      <polygon fill="#181818"
               points="3166,1214.844,3170,1205.844,3166,1209.844,3162,1205.844,3166,1214.844"
               style="stroke:#181818;stroke-width:1.0;"/>
    </g><!--link ResetUseCase to ResetReservationService-->
    <g id="link_ResetUseCase_ResetReservationService">
      <path codeLine="137" d="M2408,205.1 C2408,243.48 2408,285.59 2408,316.79 " fill="none"
            id="ResetUseCase-to-ResetReservationService" style="stroke:#181818;stroke-width:1.0;"/>
      <polygon fill="#181818" points="2408,322.79,2412,313.79,2408,317.79,2404,313.79,2408,322.79"
               style="stroke:#181818;stroke-width:1.0;"/>
    </g><!--link SubmitUseCase to SubmitReservationService-->
    <g id="link_SubmitUseCase_SubmitReservationService">
      <path codeLine="138" d="M1987,201.19 C1987,240.15 1987,284.5 1987,316.77 " fill="none"
            id="SubmitUseCase-to-SubmitReservationService"
            style="stroke:#181818;stroke-width:1.0;"/>
      <polygon fill="#181818" points="1987,322.77,1991,313.77,1987,317.77,1983,313.77,1987,322.77"
               style="stroke:#181818;stroke-width:1.0;"/>
    </g><!--SRC=[vLXTRzem57tFh_3w19hgNr3nKDP9I6ixGT4UAvEOr2fn8jkXGup_Fdy4I4ASX2qV5JnXx6lxddDlRdBFbuWXFq0WvdX21MO1zWWI-2Totv6FELYY5SSEVoSqGWm5O4Ke5fi8Wv29jz3XR-47u78V3jMiuxWhn3cu6OTqILWmvtYCEBu1Y0CFGsy1rvXw8OnOAFG6k8ZTjvZwa66EsHe94bBeaJLc728FHK8Df6-lhZo6GzSS2nTXJ3t4DZ1x3zWw07nTXyG3o5L73URpoRUXiykvDJrUDfC3uZRd8QQ225BYwkdTAQ_L4XwaJ2PUgVVZC8X2Ak_im7yv8LYuWYLUf93WtzYDHG4Meh9iYIJiczJQ54SX9o9ac-QHfCrFq1JwO720BLfmmMGcxPuZPO1MTodp4LWIwjrlyX2pErEBWADiSFEs9WNYHK14-Q7QC0bG3Kj5WB1cLMg-O-wrrIOT0aDynbFWOp7n1iFSmamW4NErQ4Q3OaGJhtTC4e96fKhH0SpEmJGECguQ7Bsxcn2hN9xDxnydBt8mVdxwFfa-oj7qOVQWPbvVJQ9nQKtStOC4yo1FbFVTdPmrKgYJrNIONXY9seKhhuoicDNr9Z9gb4qqvRXAHpdrp8XFwCdqDym5eVglMVj1kBXB34Rxl9HZRfPV629wenuans4ajANyDJE_a6-EruCyMMqdSoLTbbHEN4m0T-0Z5-Nfl8_JDXMqV80PeRwQUK81Ba3H2TSrSPJJhXEg0sU5kgSaFLH-RpEfNassDks4wXhUbzEidyZE7FrGjrdTDMLYcwaOLhApSt6mmEm4LuSXg86ieip8QjcnjrnUQNz8LHNVfkjvZI8ZBJldl195EU_glIwww9pqv-hHKSkzjRkc_FuMUwQSv-aUG_nhlxJF6DqMT46_QK2EA6mt5tshcqYOl2zpliKOvDtV1y7kGn6GVJXEe1JsYqtB797yApydCNLnzZcmtMmWdDcbLhQcvVreHHDQrdbMQG09gdj6FBzbLXVw3bZjXbqJC3bo8Df8JbdRv4sWMTwdbBttBpeXmxRLmF2T4xrq-MawHOkAT3eP8TodM57fOBdvGqTfs-2RsVJI89MZ1QkMauOL2g4f4qspLLnJCm-ljSpo_CA1BEiMrLFcrx9qdIxR3XiUlWWImeubiGj5z_Psr9Skw_Ib1xUFkOQMw_Il9ZVEm_bAiDEh6jej0KNIvNNZD_gbqwC-sIe3DVI-oyPUKt-xR1BEaWYkWOfIaV1wSg5KedC-Xy3_QKf4wvMoZlf-3Gz8VNdyUfwMywJgYt-ZrD2EM-7W7ENNwLTtlhZEghPetJZoy_Lcfs-z-rAYVxvC3cFuvrgnDnNr_vFHdRR5vxPBk-MLuhGl4xTUkcn5yoy0]-->
  </g>
</svg>